ply
format ascii 1.0
obj_info num_cols 50
obj_info num_rows 50
element vertex 406
property float x
property float y
property float z
element range_grid 2500
property list uchar int vertex_indices
end_header
-4.3055928 13.4456381 22.9860686
-2.0588193 13.4241389 21.0636144
-10.1012282 -0.0686097 27.8410717
-10.5394205 -0.3274582 26.0934063
-10.5685682 -0.1197315 24.4454812
-10.5948422 0.0925435 22.7896065
-10.5895303 0.3424752 21.1303459
-10.5765959 0.6027297 19.4618563
-6.9663800 5.0331035 18.2150259
-7.0771171 5.1657579 16.4246943
-6.9926904 5.5267773 14.6427847
-6.9949763 5.7885993 12.8416978
-6.9879312 6.0629830 11.0298256
-7.1166811 6.1792256 9.2069503
-7.1790952 6.3744983 7.3773412
-8.8239379 -1.1838526 27.7149806
-9.0254383 -1.1725303 26.0222019
-10.6145060 -2.4677840 22.4133205
-10.4627019 -2.0665363 20.8057015
-10.6438441 -2.0351137 19.1344900
-10.5763520 -1.7247028 17.4909699
-10.6392093 -1.5590446 15.8223084
-10.5974069 -1.2743097 14.1537656
-10.6365990 -1.0795183 12.4695969
-10.6710240 -0.8781409 10.7772568
-10.7095041 -0.6801632 9.0763710
-10.6035454 -0.3159885 7.3625537
-10.6424491 -0.1155699 5.6411039
-10.6934609 0.0721539 3.9120341
-10.7295457 0.2782365 2.1733035
-10.7330075 0.5233196 0.4213579
-10.5753092 -5.3169074 25.2466707
-10.4028390 -4.9133960 23.6936291
-10.5435663 -4.8443919 22.0662171
-10.5945705 -4.6782067 20.4502736
-10.4397427 -4.2883309 18.8551948
-10.4360687 -4.0601902 17.2263824
-10.6426981 -4.0596345 15.5692382
-10.5158916 -3.6950371 13.9337115
-10.4059659 -3.3467467 12.2816585
-10.5397504 -3.2640829 10.6105074
-10.6537477 -3.1591412 8.9357377
-10.3821730 -2.6274511 7.2439183
-10.4850181 -2.5076094 5.5500713
-10.7485440 -2.5657360 3.8642589
-10.5517325 -2.1107794 2.1320339
-10.6387734 -1.9706327 0.4170422
-10.6535124 -1.7484990 -1.3154197
-10.7876608 -1.6594474 -3.0359110
-10.8026141 -1.4352582 -4.7850277
-10.7678815 -1.1534084 -6.5557381
-10.6423431 -0.7666260 -8.3626580
-10.4696140 -0.3236418 -10.2005299
-10.2857786 0.1348097 -12.0619701
-10.0884296 0.6116366 -13.9488565
-9.9197595 -8.4299072 35.7964754
-10.4427700 -8.7599095 34.0928815
-10.4883423 -8.6047313 32.5633626
-10.4979986 -8.4119357 31.0385366
-10.5341501 -8.2452391 29.4978492
-10.5526406 -8.0594270 27.9548309
-10.5383619 -7.8387400 26.4119396
-10.4905288 -7.5820609 24.8670637
-10.5465233 -7.4316940 23.2903453
-10.5742832 -7.2510752 21.7122126
-10.5729693 -7.0390619 20.1307949
-10.6025909 -6.8582244 18.5361357
-10.5841823 -6.6258943 16.9388395
-10.6327155 -6.4627377 15.3257406
-10.6501814 -6.2658114 13.7074622
-10.6229093 -6.0203263 12.0822523
-10.6613986 -5.8433017 10.4453267
-10.7044256 -5.6700812 8.8006849
-10.6708364 -5.4139187 7.1458080
-10.6985752 -5.2220172 5.4831265
-10.7165185 -5.0184451 3.8111309
-10.6531289 -4.7259038 2.1213541
-10.7569299 -4.6125684 0.4404789
-10.7574372 -4.3864303 -1.2615562
-10.6656964 -4.0584833 -2.9905138
-10.4957033 -3.6430785 -4.7505325
-10.3560516 -3.2583905 -6.5224893
-10.1852912 -2.8371683 -8.3200539
-9.9196671 -2.3087875 -10.1637978
-9.6677175 -1.7922785 -12.0277275
-9.4214162 -1.2788495 -13.9136895
-9.1470553 -0.7310210 -15.8336080
-8.8734841 -0.1806733 -17.7787553
-8.5603464 0.4174054 -19.7659638
-8.9780204 -9.7367570 35.5928699
-9.3851216 -9.9424643 33.9359129
-9.4902388 -9.8510382 32.3869533
-9.5892382 -9.7530572 30.8360293
-9.6925446 -9.6588224 29.2797524
-9.7832106 -9.5514810 27.7228042
-9.9070687 -9.4767152 26.1533394
-10.0279974 -9.3986101 24.5813786
-10.1048164 -9.2757541 23.0147234
-10.1742918 -9.1448137 21.4440340
-10.3174304 -9.0875954 19.8566335
-10.4023832 -8.9710897 18.2742491
-10.4703710 -8.8366851 16.6885752
-10.5655615 -8.7292576 15.0948117
-10.6283956 -8.5881414 13.4982545
-10.6781921 -8.4328527 11.8959332
-10.7257564 -8.2743808 10.2867558
-10.6919738 -8.0310827 8.6695494
-10.7355956 -7.8664588 7.0441527
-10.7560597 -7.6768537 5.4100091
-10.7434084 -7.4516807 3.7645603
-10.7231903 -7.2172923 2.1080873
-10.6204206 -6.8950943 0.4300707
-10.4476453 -6.4974726 -1.2736571
-10.2795853 -6.1024528 -2.9948765
-10.0660867 -5.6570707 -4.7436963
-9.8297180 -5.1847858 -6.5184662
-9.5745918 -4.6897249 -8.3200333
-9.3156643 -4.1876264 -10.1458169
-9.0486399 -3.6738325 -11.9976243
-8.7040167 -3.0736830 -13.8992691
-8.3767902 -2.4885961 -15.8230728
-8.0846892 -1.9378459 -17.7611794
-7.7198716 -1.3049992 -19.7550948
-7.3518137 -0.6647431 -21.7805912
-6.9658782 -0.0010644 -23.8449313
-6.4935130 0.7611650 -25.9831449
-7.6529653 -10.6682452 35.5308818
-8.3155530 -11.1104284 33.7837744
-8.4186423 -11.0199303 32.2356679
-8.5371073 -10.9436988 30.6791117
-8.6048610 -10.8182866 29.1333794
-8.7081843 -10.7265036 27.5731110
-8.8365495 -10.6584511 26.0030443
-8.9292243 -10.5554181 24.4376535
-9.0155714 -10.4456707 22.8689857
-9.0804577 -10.3143890 21.2991205
-9.2283210 -10.2635622 19.7114001
-9.2938968 -10.1317372 18.1316774
-9.3918455 -10.0310347 16.5428541
-9.5124396 -9.9521244 14.9478365
-9.5857691 -9.8260129 13.3519870
-9.6898370 -9.7297047 11.7495167
-9.7738695 -9.6129230 10.1429684
-9.8925246 -9.5300491 8.5316755
-9.9921159 -9.4276337 6.9160143
-10.0918622 -9.3248019 5.2957791
-10.1889050 -9.2186718 3.6707012
-10.1574420 -8.9821638 2.0269825
-10.1154733 -8.7336485 0.3709350
-9.9697530 -8.3782929 -1.3128009
-9.7526801 -7.9481593 -3.0260024
-9.4870924 -7.4659207 -4.7693443
-9.2569721 -7.0171904 -6.5273774
-8.9642309 -6.5014325 -8.3224919
-8.6436894 -5.9539489 -10.1498451
-8.3092990 -5.3888827 -12.0075048
-7.9718606 -4.8172797 -13.8932039
-7.6418212 -4.2499507 -15.8037309
-7.2130723 -3.5762014 -17.7788349
-6.7992076 -2.9139680 -19.7805036
-6.4102066 -2.2738345 -21.8036111
-5.9696855 -1.5755602 -23.8812248
-5.4823857 -0.8236200 -26.0153446
-5.0022261 -0.0746540 -28.1826396
-4.4666602 0.7377898 -30.4161747
-7.2705694 -12.2987481 33.6239756
-7.3371095 -12.1772981 32.0880176
-7.4424418 -12.0912286 30.5353913
-7.5171302 -11.9761709 28.9873310
-7.6094668 -11.8769806 27.4297945
-7.7530244 -11.8252277 25.8562180
-7.8447957 -11.7245830 24.2911542
-7.9455739 -11.6318821 22.7199790
-8.0225239 -11.5161868 21.1485992
-8.1329711 -11.4315861 19.5673230
-8.2154508 -11.3199767 17.9856436
-8.3160794 -11.2250451 16.3971998
-8.4167389 -11.1296309 14.8045162
-8.4942142 -11.0114982 13.2087729
-8.5992694 -10.9192059 11.6068580
-8.6875905 -10.8102957 10.0009149
-8.8040966 -10.7280111 8.3904706
-8.8856143 -10.6113892 6.7749811
-9.0070835 -10.5329319 5.1566175
-9.0635403 -10.3907117 3.5292083
-9.0494356 -10.1787542 1.8875794
-9.0187253 -9.9493228 0.2338129
-8.9305718 -9.6621338 -1.4396845
-8.8394167 -9.3703388 -3.1273542
-8.7351094 -9.0638644 -4.8315848
-8.5314243 -8.6571020 -6.5729815
-8.2602255 -8.1808493 -8.3508689
-7.9249765 -7.6379461 -10.1693747
-7.5618944 -7.0640243 -12.0225425
-7.2008458 -6.4887683 -13.9029758
-6.7651133 -5.8349824 -15.8375083
-6.3413705 -5.1894261 -17.7995835
-5.9173557 -4.5397639 -19.7934689
-5.4277774 -3.8196801 -21.8471107
-4.8740215 -3.0299513 -23.9651365
-4.3944538 -2.3112554 -26.0871537
-3.8724120 -1.5447354 -28.2661128
-3.3602005 -0.7836972 -30.4781288
-2.7458991 0.0871503 -32.7844720
-5.6088515 -12.9318750 33.6668701
-5.8186391 -12.9412529 32.0746793
-5.9863604 -12.9128840 30.4951463
-6.1025319 -12.8379106 28.9281489
-6.2569762 -12.7971503 27.3485266
-6.4065458 -12.7517722 25.7682880
-6.5637127 -12.7130747 24.1845962
-6.6779871 -12.6350942 22.6070152
-6.8551118 -12.6141505 21.0159966
-6.9571307 -12.5242819 19.4344862
-7.0844858 -12.4572242 17.8460042
-7.2074268 -12.3857502 16.2549578
-7.3213530 -12.3055715 14.6613614
-7.3898131 -12.1828348 13.0663959
-7.5198757 -12.1166839 11.4640828
-7.5994614 -12.0031451 9.8590575
-7.6986773 -11.9073375 8.2491214
-7.8068825 -11.8194386 6.6351338
-7.8977181 -11.7147423 5.0160179
-7.9568427 -11.5795888 3.3893261
-7.9188669 -11.3519126 1.7457488
-7.8826130 -11.1245944 0.0915066
-7.7849787 -10.8376524 -1.5831300
-7.6790002 -10.5411347 -3.2731083
-7.5757326 -10.2455285 -4.9769053
-7.3859396 -9.8652792 -6.7145273
-7.2074782 -9.4937526 -8.4679149
-6.9843968 -9.0770655 -10.2516644
-6.6932349 -8.5921331 -12.0760980
-6.3305021 -8.0349730 -13.9474361
-5.9106385 -7.4189999 -15.8661123
-5.4225560 -6.7328784 -17.8406403
-4.9049770 -6.0138830 -19.8610561
-4.3930867 -5.2962569 -21.9151149
-3.8658566 -4.5593131 -24.0120281
-3.3224864 -3.8020905 -26.1536331
-2.7118280 -2.9737604 -28.3667063
-2.1126530 -2.1519221 -30.6158256
-1.4569139 -1.2688488 -32.9375066
-0.8101846 -0.3895082 -35.2991016
-3.9227934 -13.4010503 32.1693181
-4.0850310 -13.3668619 30.5751429
-4.2316698 -13.3189005 28.9835968
-4.4008803 -13.2904565 27.3846041
-4.5513925 -13.2454766 25.7885328
-4.6820601 -13.1828182 24.1944246
-4.8631086 -13.1642891 22.5886894
-4.9821521 -13.0908352 20.9918442
-5.1696653 -13.0777368 19.3825700
-5.3047929 -13.0179989 17.7787256
-5.4769219 -12.9909575 16.1688713
-5.6364693 -12.9525403 14.5587826
-5.7656674 -12.8867203 12.9484619
-5.9238978 -12.8466681 11.3344254
-6.1157027 -12.8366933 9.7185485
-6.2558135 -12.7799453 8.1014123
-6.3990573 -12.7257470 6.4818360
-6.5496226 -12.6779284 4.8602751
-6.6925893 -12.6229388 3.2359181
-6.7370181 -12.4775672 1.5983515
-6.7419250 -12.2951648 -0.0514022
-6.6516399 -12.0242294 -1.7246894
-6.5343448 -11.7268818 -3.4160595
-6.3792174 -11.3928902 -5.1296592
-6.2212885 -11.0544284 -6.8604179
-6.0002924 -10.6554120 -8.6235386
-5.7727704 -10.2480553 -10.4083242
-5.5077357 -9.8033048 -12.2245065
-5.2215109 -9.3361494 -14.0697445
-4.8628447 -8.7981834 -15.9632380
-4.4260234 -8.1834035 -17.9124876
-3.8992773 -7.4800071 -19.9279651
-3.3472391 -6.7485527 -21.9897410
-2.7602747 -5.9796276 -24.1041939
-2.1519874 -5.1858882 -26.2679210
-1.5248955 -4.3695278 -28.4816123
-0.8378197 -3.4908138 -30.7681108
-2.0261324 -13.9035033 32.2544326
-2.1905985 -13.8704391 30.6438746
-2.3520152 -13.8346477 29.0327083
-2.4846277 -13.7742929 27.4267342
-2.6165185 -13.7130281 25.8182027
-2.7855181 -13.6830591 24.1997952
-2.9513640 -13.6502612 22.5806835
-3.0833190 -13.5882985 20.9652748
-3.2339204 -13.5420324 19.3446414
-3.4126073 -13.5197140 17.7189198
-3.5822286 -13.4894755 16.0931071
-3.7378403 -13.4469747 14.4669412
-3.8691718 -13.3831999 12.8399662
-4.0139961 -13.3308419 11.2097432
-4.2043161 -13.3179139 9.5770921
-4.3620218 -13.2764088 7.9433434
-4.4984494 -13.2160356 6.3068370
-4.6733574 -13.1892030 4.6700141
-4.8077674 -13.1265266 3.0285572
-4.9195451 -13.0435113 1.3817028
-4.9825281 -12.9167842 -0.2755239
-5.0740193 -12.8147328 -1.9345602
-5.1168212 -12.6687144 -3.6071357
-5.1316676 -12.4969041 -5.2924817
-5.0387656 -12.2275233 -7.0102748
-4.8306900 -11.8530726 -8.7698244
-4.5523820 -11.4131978 -10.5671788
-4.2392407 -10.9393618 -12.3970805
-3.8792186 -10.4203498 -14.2659425
-3.5163067 -9.8957910 -16.1624013
-3.1410849 -9.3570460 -18.0902887
-2.7330145 -8.7852059 -20.0586190
-2.2082634 -8.1030817 -22.1042741
-1.5751539 -7.3173818 -24.2322980
-0.9158240 -6.5029985 -26.4132765
-0.1181166 -14.4382222 32.3334656
-0.2466912 -14.3751786 30.7169689
-0.4225664 -14.3505027 29.0858725
-0.5485617 -14.2848327 27.4651373
-0.6918037 -14.2330168 25.8378029
-0.8859673 -14.2229143 24.1985995
-1.0303650 -14.1716646 22.5674096
-1.1837898 -14.1276460 20.9325746
-1.3442952 -14.0892994 19.2948804
-1.4723996 -14.0237895 17.6588832
-1.6592160 -14.0069806 16.0149107
-1.7910367 -13.9440612 14.3737711
-1.9599799 -13.9119931 12.7281417
-2.1239943 -13.8756286 11.0812211
-2.2630263 -13.8180078 9.4326655
-2.4061080 -13.7635280 7.7815036
-2.5857561 -13.7398070 6.1294018
-2.7336138 -13.6889330 4.4742378
-2.8704237 -13.6283816 2.8157379
-2.9198840 -13.4927985 1.1448281
-3.0003684 -13.3831134 -0.5287534
-3.0779402 -13.2703474 -2.2082039
-3.1179220 -13.1245650 -3.8998483
-3.1626034 -12.9820703 -5.5978842
-3.2737989 -12.8965018 -7.2884319
-3.3833987 -12.8090977 -8.9835880
-3.0950314 -12.3741671 -10.7888080
-2.7062574 -11.8490355 -12.6455453
-2.3480159 -11.3477782 -14.5201144
-1.9517620 -10.8103164 -16.4335585
-1.5629642 -10.2764441 -18.3724705
-1.1777408 -9.7427594 -20.3380390
-0.7612139 -9.1783331 -22.3443565
-0.2157865 -8.4961072 -24.4356682
3.5759683 -13.6072933 32.9068939
3.2285981 -13.7136689 31.1825613
2.9342529 -13.7786603 29.4766457
2.5876463 -13.8854686 27.7625932
2.4509481 -13.8259071 26.0966815
1.9925685 -14.0225660 24.3692728
1.7982829 -14.0091380 22.6949305
1.4406102 -14.1266258 20.9969211
1.1766248 -14.1694606 19.3165235
0.8576197 -14.2568753 17.6329716
0.5326076 -14.3496256 15.9536354
0.2714420 -14.3911736 14.2831142
0.0493419 -14.4012392 12.6164922
-0.1134496 -14.3630893 10.9517085
-0.3119748 -14.3539353 9.2852889
-0.4687556 -14.3105854 7.6176373
-0.6050793 -14.2502381 5.9470528
-0.7629907 -14.2073590 4.2750017
-0.8725290 -14.1243590 2.5967047
-0.9559825 -14.0193559 0.9114557
-1.0473899 -13.9204110 -0.7780117
-1.1687175 -13.8458461 -2.4678610
-1.3036967 -13.7822893 -4.1590089
-1.4348307 -13.7151969 -5.8540258
-1.5733023 -13.6539183 -7.5507437
-1.6933750 -13.5768588 -9.2549062
-1.3301661 -13.0918938 -11.0902908
-0.9432948 -12.5842896 -12.9580672
-0.5594326 -12.0764734 -14.8518139
-0.0175232 -11.4315172 -16.8249134
6.8747497 -12.7047984 28.2909660
6.5346691 -12.7974427 26.5232778
6.2658312 -12.8356227 24.7732944
5.8695025 -12.9726323 23.0053475
5.6233814 -12.9938919 21.2655007
5.2346430 -13.1261633 19.5101460
5.0851626 -13.0726511 17.7853563
4.6523229 -13.2403243 16.0360089
4.4600119 -13.2204378 14.3094463
4.0552296 -13.3673772 12.5742702
3.7307378 -13.4518717 10.8483518
3.3984846 -13.5429615 9.1271603
3.0671022 -13.6338640 7.4109976
2.7653886 -13.7017179 5.6985163
2.4844006 -13.7534588 3.9884852
2.2711613 -13.7514351 2.2754630
2.1466860 -13.6784054 0.5528509
2.1050984 -13.5385186 -1.1842663
1.9903195 -13.4567846 -2.9174587
1.6851245 -13.5282108 -4.6216438
1.1072145 -13.8205777 -6.2683568
0.4152425 -14.2070216 -7.8742403
0.3392566 -14.0947677 -9.6064720
2.5676405 -12.1034221 -11.9470565
6.7927477 -12.5921192 3.6262287
6.6148604 -12.5565067 1.8453907
0
0
0
0
0
0
0
0
0
0
0
0
0
0
0
0
0
0
0
0
0
0
0
0
0
0
0
0
0
0
0
0
0
0
0
0
0
0
0
0
0
0
0
0
0
0
0
0
0
0
0
0
0
0
0
0
0
0
0
0
0
0
0
0
0
0
0
0
0
0
0
0
0
0
0
0
0
0
0
0
0
0
0
0
0
0
0
0
0
0
0
0
0
0
0
0
0
0
0
0
0
0
0
0
0
0
0
0
0
0
0
0
0
0
0
0
0
0
0
0
0
0
0
0
0
0
0
0
0
0
0
0
0
0
0
0
0
0
0
0
0
0
0
0
0
0
0
0
0
0
0
0
0
0
0
0
0
0
0
0
0
0
0
0
0
0
0
0
0
0
0
0
0
0
0
0
0
0
0
0
0
0
0
0
0
0
0
0
0
0
0
0
0
0
0
0
0
0
0
0
0
0
0
0
0
0
0
0
0
0
0
0
0
0
0
0
0
0
0
0
0
0
0
0
0
0
0
0
0
0
0
0
0
0
0
0
0
0
0
0
0
0
0
0
0
0
0
0
0
0
0
0
0
0
0
0
0
0
0
0
0
0
0
0
0
0
0
0
0
0
0
0
0
0
0
0
0
0
0
0
0
0
0
0
0
0
0
0
0
0
0
0
0
0
0
0
0
0
0
0
0
0
0
0
0
0
0
0
0
0
0
0
0
0
0
0
0
0
0
0
0
0
0
0
0
0
0
0
0
0
0
0
0
0
0
0
0
0
0
0
0
0
0
0
0
0
0
0
0
0
0
0
0
0
0
0
0
0
0
0
0
0
0
0
0
0
0
0
0
0
0
0
0
0
0
0
0
0
0
0
0
0
0
0
0
0
0
0
0
0
0
0
0
0
0
0
0
0
0
0
0
0
0
0
0
0
0
0
0
0
0
0
0
0
0
0
0
0
0
0
0
0
0
0
0
0
0
0
0
0
0
0
0
0
0
0
0
0
0
0
0
0
0
0
0
0
0
0
0
0
0
0
0
0
0
0
0
0
0
0
0
0
0
0
0
0
0
0
0
0
0
0
0
0
0
0
0
0
0
0
0
0
0
0
0
0
0
0
0
0
0
0
0
0
0
0
0
0
0
0
0
0
0
0
0
0
0
0
0
0
0
0
0
0
0
0
0
0
0
0
0
0
0
0
0
0
0
0
0
0
0
0
0
0
0
0
0
0
0
0
0
0
0
0
0
0
0
0
0
0
0
0
0
0
0
0
0
0
0
0
0
0
0
0
0
0
0
0
0
0
0
0
0
0
0
0
0
0
0
0
0
0
0
0
0
0
0
0
0
0
0
0
0
0
0
0
0
0
0
0
0
0
0
0
0
0
0
0
0
0
0
0
0
0
0
0
0
0
0
0
0
0
0
0
0
0
0
0
0
0
0
0
0
0
0
0
0
0
0
0
0
0
0
0
0
0
0
0
0
0
0
0
0
0
0
0
0
0
0
0
0
0
0
0
0
0
0
0
0
0
0
0
0
0
0
0
0
0
0
0
0
0
0
0
0
0
0
0
0
0
0
0
0
0
0
0
0
0
0
0
0
0
0
0
0
0
0
0
0
0
0
0
0
0
0
0
0
0
0
0
0
0
0
0
0
0
0
0
0
0
0
0
0
0
0
0
0
0
0
0
0
0
0
0
0
0
0
0
0
0
0
0
0
0
0
0
0
0
0
0
0
0
0
0
0
0
0
0
0
0
0
0
0
0
0
0
0
0
0
0
0
0
0
0
0
0
0
0
0
0
0
0
0
0
0
0
0
0
0
0
0
0
0
0
0
0
0
0
0
0
0
0
0
0
0
0
0
0
0
0
0
0
0
0
0
0
0
0
0
0
0
0
0
0
0
0
0
0
0
0
0
0
0
0
0
0
0
0
0
0
0
0
0
0
0
0
0
0
0
0
0
0
0
1 0
0
0
0
0
0
0
0
0
0
0
0
0
0
0
0
0
0
0
0
0
0
0
0
0
0
0
0
0
0
0
0
0
0
0
0
0
0
0
0
0
0
0
0
0
0
0
0
0
0
0
1 1
0
0
0
0
0
0
0
0
0
0
0
0
0
0
0
0
0
0
0
0
0
0
0
0
0
0
0
0
0
0
0
0
0
0
0
0
0
0
0
0
0
0
0
0
1 2
1 3
1 4
1 5
1 6
1 7
1 8
1 9
1 10
1 11
1 12
1 13
1 14
0
0
0
0
0
0
0
0
0
0
0
0
0
0
0
0
0
0
0
0
0
0
0
0
0
0
0
0
0
0
0
0
0
0
0
0
0
1 15
1 16
0
1 17
1 18
1 19
1 20
1 21
1 22
1 23
1 24
1 25
1 26
1 27
1 28
1 29
1 30
0
0
0
0
0
0
0
0
0
0
0
0
0
0
0
0
0
0
0
0
0
0
0
0
0
0
0
0
0
0
0
0
0
0
1 31
1 32
1 33
1 34
1 35
1 36
1 37
1 38
1 39
1 40
1 41
1 42
1 43
1 44
1 45
1 46
1 47
1 48
1 49
1 50
1 51
1 52
1 53
1 54
0
0
0
0
0
0
0
0
0
0
0
0
0
0
0
0
0
0
0
1 55
1 56
1 57
1 58
1 59
1 60
1 61
1 62
1 63
1 64
1 65
1 66
1 67
1 68
1 69
1 70
1 71
1 72
1 73
1 74
1 75
1 76
1 77
1 78
1 79
1 80
1 81
1 82
1 83
1 84
1 85
1 86
1 87
1 88
0
0
0
0
0
0
0
0
0
0
0
0
0
0
0
0
1 89
1 90
1 91
1 92
1 93
1 94
1 95
1 96
1 97
1 98
1 99
1 100
1 101
1 102
1 103
1 104
1 105
1 106
1 107
1 108
1 109
1 110
1 111
1 112
1 113
1 114
1 115
1 116
1 117
1 118
1 119
1 120
1 121
1 122
1 123
1 124
1 125
0
0
0
0
0
0
0
0
0
0
0
0
0
1 126
1 127
1 128
1 129
1 130
1 131
1 132
1 133
1 134
1 135
1 136
1 137
1 138
1 139
1 140
1 141
1 142
1 143
1 144
1 145
1 146
1 147
1 148
1 149
1 150
1 151
1 152
1 153
1 154
1 155
1 156
1 157
1 158
1 159
1 160
1 161
1 162
1 163
1 164
0
0
0
0
0
0
0
0
0
0
0
0
1 165
1 166
1 167
1 168
1 169
1 170
1 171
1 172
1 173
1 174
1 175
1 176
1 177
1 178
1 179
1 180
1 181
1 182
1 183
1 184
1 185
1 186
1 187
1 188
1 189
1 190
1 191
1 192
1 193
1 194
1 195
1 196
1 197
1 198
1 199
1 200
1 201
1 202
1 203
0
0
0
0
0
0
0
0
0
0
0
1 204
1 205
1 206
1 207
1 208
1 209
1 210
1 211
1 212
1 213
1 214
1 215
1 216
1 217
1 218
1 219
1 220
1 221
1 222
1 223
1 224
1 225
1 226
1 227
1 228
1 229
1 230
1 231
1 232
1 233
1 234
1 235
1 236
1 237
1 238
1 239
1 240
1 241
1 242
1 243
0
0
0
0
0
0
0
0
0
0
0
1 244
1 245
1 246
1 247
1 248
1 249
1 250
1 251
1 252
1 253
1 254
1 255
1 256
1 257
1 258
1 259
1 260
1 261
1 262
1 263
1 264
1 265
1 266
1 267
1 268
1 269
1 270
1 271
1 272
1 273
1 274
1 275
1 276
1 277
1 278
1 279
1 280
0
0
0
0
0
0
0
0
0
0
0
0
0
1 281
1 282
1 283
1 284
1 285
1 286
1 287
1 288
1 289
1 290
1 291
1 292
1 293
1 294
1 295
1 296
1 297
1 298
1 299
1 300
1 301
1 302
1 303
1 304
1 305
1 306
1 307
1 308
1 309
1 310
1 311
1 312
1 313
1 314
1 315
0
0
0
0
0
0
0
0
0
0
0
0
0
0
0
1 316
1 317
1 318
1 319
1 320
1 321
1 322
1 323
1 324
1 325
1 326
1 327
1 328
1 329
1 330
1 331
1 332
1 333
1 334
1 335
1 336
1 337
1 338
1 339
1 340
1 341
1 342
1 343
1 344
1 345
1 346
1 347
1 348
1 349
0
0
0
0
0
0
0
0
0
0
0
0
0
0
0
0
1 350
1 351
1 352
1 353
1 354
1 355
1 356
1 357
1 358
1 359
1 360
1 361
1 362
1 363
1 364
1 365
1 366
1 367
1 368
1 369
1 370
1 371
1 372
1 373
1 374
1 375
1 376
1 377
1 378
1 379
0
0
0
0
0
0
0
0
0
0
0
0
0
0
0
0
0
0
0
0
0
0
0
1 380
1 381
1 382
1 383
1 384
1 385
1 386
1 387
1 388
1 389
1 390
1 391
1 392
1 393
1 394
1 395
1 396
1 397
1 398
1 399
1 400
1 401
1 402
1 403
0
0
0
0
0
0
0
0
0
0
0
0
0
0
0
0
0
0
0
0
0
0
0
0
0
0
0
0
0
0
0
0
0
0
0
0
0
0
0
0
1 404
1 405
0
0
0
0
0
0
0
0
0
0
0
0
0
0
0
0
0
0
0
0
0
0
0
0
0
0
0
0
0
0
0
0
0
0
0
0
0
0
0
0
0
0
0
0
0
0
0
0
0
0
0
0
0
0
0
0
0
0
0
0
0
0
0
0
0
0
0
0
0
0
0
0
0
0
0
0
0
0
0
0
0
0
0
0
0
0
0
0
0
0
0
0
0
0
0
0
0
0
0
0
0
0
0
0
0
0
0
0
0
0
0
0
0
0
0
0
0
0
0
0
0
0
0
0
0
0
0
0
0
0
0
0
0
0
0
0
0
0
0
0
0
0
0
0
0
0
0
0
0
0
0
0
0
0
0
0
0
0
0
0
0
0
0
0
0
0
0
0
0
0
0
0
0
0
0
0
0
0
0
0
0
0
0
0
0
0
0
0
0
0
0
0
0
0
0
0
0
0
0
0
0
0
0
0
0
0
0
0
0
0
0
0
0
0
0
0
0
0
0
0
0
0
0
0
0
0
0
0
0
0
0
0
0
0
0
0
0
0
0
0
0
0
0
0
0
0
0
0
0
0
0
0
0
0
0
0
0
0
0
0
0
0
0
0
0
0
0
0
0
0
0
0
0
0
0
0
0
0
0
0
0
0
0
0
0
0
0
0
0
0
0
0
0
0
0
0
0
0
0
0
0
0
0
0
0
0
0
0
0
0
0
0
0
0
0
0
0
0
0
0
0
0
0
0
0
0
0
0
0
0
0
0
0
0
0
0
0
0
0
0
0
0
0
0
0
0
0
0
0
0
0
0
0
0
0
0
0
0
0
0
0
0
0
0
0
0
0
0
0
0
0
0
0
0
0
0
0
0
0
0
0
0
0
0
0
0
0
0
0
0
0
0
0
0
0
0
0
0
0
0
0
0
0
0
0
0
0
0
0
0
0
0
0
0
0
0
0
0
0
0
0
0
0
0
0
0
0
0
0
0
0
0
0
0
0
0
0
0
0
0
0
0
0
0
0
0
0
0
0
0
0
0
0
0
0
0
0
0
0
0
0
0
0
0
0
0
0
0
0
0
0
0
0
0
0
0
0
0
0
0
0
0
0
0
0
0
0
0
0
0
0
0
0
0
0
0
0
0
0
0
0
0
0
0
0
0
0
0
0
0
0
0
0
0
0
0
0
0
0
0
0
0
0
0
0
0
0
0
0
0
0
0
0
0
0
0
0
0
0
0
0
0
0
0
0
0
0
0
0
0
0
0
0
0
0
0
0
0
0
0
0
0
0
0
0
0
0
0
0
0
0
0
0
0
0
0
0
0
0
0
0
0
0
0
0
0
0
0
0
0
0
0
0
0
0
0
0
0
0
0
0
0
0
0
0
0
0
0
0
0
0
0
0
0
0
0
0
0
0
0
0
0
0
0
0
0
0
0
0
0
0
0
0
0
0
0
0
0
0
0
0
0
0
0
0
0
0
0
0
0
0
0
0
0
0
0
0
0
0
0
0
0
0
0
0
0
0
0
0
0
0
0
0
0
0
0
0
0
0
0
0
0
0
0
0
0
0
0
0
0
0
0
0
0
0
0
0
0
0
0
0
0
0
0
0
0
0
0
0
0
0
0
0
0
0
0
0
0
0
0
0
0
0
0
0
0
0
0
0
0
0
0
0
0
0
0
0
0
0
0
0
0
0
0
0
0
0
0
0
0
0
0
0
0
0
0
0
0
0
0
0
0
0
0
0
0
0
0
0
0
0
0
0
0
0
0
0
0
0
0
0
0
0
0
0
0
0
0
0
0
0
0
0
0
0
0
0
0
0
0
0
0
0
0
0
0
0
0
0
0
0
0
0
0
0
0
0
0
0
0
0
0
0
0
0
0
0
0
0
0
0
0
0
0
0
0
0
0
0
0
0
0
0
0
0
0
0
0
0
0
0
0
0
0
0
0
0
0
0
0
0
0
0
0
0
0
0
0
0
0
0
0
0
0
0
0
