ply
format ascii 1.0
obj_info num_cols 50
obj_info num_rows 50
element vertex 211
property float x
property float y
property float z
element range_grid 2500
property list uchar int vertex_indices
end_header
-4.8996411 13.1959701 22.5313824
-2.9306070 13.2611220 21.7585757
-0.8646957 13.3391141 21.0995406
1.5475823 13.4675542 20.9188101
5.0568327 13.7563506 22.2620903
-3.7648733 10.8519212 16.5335436
-3.3745299 10.7145444 13.4496301
-2.5242708 10.6395042 11.1644746
-0.7391966 10.6794034 10.2702679
-4.6953978 8.8742760 18.8623438
-4.7878681 8.7220794 14.9152839
-4.7814048 8.5863029 11.3058384
-4.8686123 8.4480649 7.7239711
-3.7260436 8.4273232 6.0404125
-2.1542108 8.4459369 4.9754840
-0.0450433 8.5109845 4.6098491
3.4623271 8.6932496 5.9680857
-7.0074179 6.6656835 15.0878371
-6.8908182 6.4128362 4.7551958
-4.8516966 6.4601289 4.4378334
-4.2289515 6.4198709 2.1330815
-2.6206345 6.4403299 1.2029885
-0.9615890 6.4633907 0.3225278
2.0047284 6.5611887 1.0313968
-7.1500510 4.7725875 22.7326449
-6.8132890 4.7370138 19.2581338
-6.9995822 4.6844649 15.0895049
-6.9694705 4.6420108 11.4670702
-7.0556072 4.5975201 7.8367783
-6.9575660 4.5613028 4.6445094
-6.9122436 4.5249707 1.5168773
-6.0678762 4.5165070 -0.3871145
-5.3087654 4.5059099 -2.3508203
-4.2333261 4.5060453 -3.8554092
-2.7394914 4.5195887 -4.8191660
-0.9154450 4.5431971 -5.3996593
1.6641926 4.5893276 -5.1460948
-6.7901353 2.6984227 19.2869561
-7.1466318 2.7085358 7.6864620
-7.1488705 2.7120821 4.3518711
-7.2329330 2.7150707 1.0508494
-6.8809134 2.7200492 -1.5090160
-6.1206423 2.7269536 -3.4342354
-5.3310443 2.7339464 -5.2670370
-4.2338004 2.7424448 -6.6724167
-2.8073346 2.7526025 -7.6653111
-1.0782078 2.7643252 -8.3161669
1.3164078 2.7795323 -8.2554537
-7.3525604 0.8268573 7.3622565
-7.4407538 0.8755179 3.9123846
-7.4206315 0.9194075 0.7725062
-7.4774668 0.9631593 -2.3357118
-7.1367390 0.9961196 -4.7859899
-6.5602211 1.0226691 -6.8453010
-5.8594883 1.0456701 -8.6864194
-5.1135887 1.0670197 -10.4224131
-4.1202746 1.0827775 -11.8292213
-2.9351293 1.0944570 -12.9991623
-1.2227770 1.0959877 -13.5938053
1.0954271 1.0866905 -13.5869452
-10.6915769 -1.3619850 20.5207271
-10.5228473 -1.2640098 16.7954273
-10.5704098 -1.1579643 12.8856179
-10.7332197 -1.0504349 8.9819968
-10.5642616 -0.9668890 5.7920122
-10.6920401 -0.8708407 2.2958091
-10.5958099 -0.7912492 -0.7087810
-10.6044495 -0.7096955 -3.7304469
-10.7362665 -0.6254239 -6.7875010
-10.4814629 -0.5640411 -9.2006922
-10.1230144 -0.5101866 -11.3896157
-9.7645436 -0.4584356 -13.5004976
-9.3102607 -0.4130999 -15.4242433
-8.8150762 -0.3712731 -17.2395250
-8.3003324 -0.3317898 -18.9782403
-7.7752169 -0.2941109 -20.6555088
-7.2273372 -0.2586565 -22.2623317
-6.6678801 -0.2248321 -23.8148256
-6.0806845 -0.1932011 -25.3006679
-5.4687261 -0.1635188 -26.7273594
-4.8017481 -0.1368523 -28.0713846
-4.2375878 -0.1070084 -29.4786722
-3.5900140 -0.0811442 -30.7826138
-2.8982922 -0.0575948 -32.0241241
-2.1501599 -0.0366728 -33.1981183
-1.5110512 -0.0124028 -34.4384061
-0.7592090 0.0073530 -35.5710978
-10.3762746 -3.0970729 13.2035948
-10.6885042 -2.9233961 9.0442816
-10.2820221 -2.8208731 6.2235279
-10.4317915 -2.6756903 2.6777960
-10.6511649 -2.5314192 -0.8020311
-10.7784585 -2.4011193 -3.9886920
-10.4516870 -2.3124330 -6.4133800
-10.1202434 -2.2277998 -8.7393831
-9.7232910 -2.1515503 -10.8958108
-9.3113915 -2.0794127 -12.9584391
-8.8242734 -2.0154769 -14.8620555
-8.2683956 -1.9587704 -16.6270338
-7.7909976 -1.8986837 -18.4281765
-7.1990367 -1.8484851 -20.0523856
-6.6096202 -1.7998266 -21.6364263
-6.0180201 -1.7529313 -23.1776299
-5.3865733 -1.7100968 -24.6417166
-4.7123168 -1.6712778 -26.0316542
-4.0811633 -1.6310009 -27.4314642
-3.4074979 -1.5944875 -28.7632579
-2.6976276 -1.5611622 -30.0375504
-2.0196229 -1.5269257 -31.3149669
-1.2914035 -1.4964849 -32.5283264
-0.5659672 -1.4666914 -33.7237388
-10.5404552 -5.6458433 25.0329140
-10.5325184 -5.2088076 16.7609286
-10.4890612 -5.0116898 13.0035449
-10.6670994 -4.7974222 9.0686289
-10.5243691 -4.4565291 2.5258460
-10.6856673 -4.2716212 -0.8648173
-10.4831340 -4.1348980 -3.5852874
-10.2171818 -4.0108760 -6.1075607
-9.7186479 -3.9164012 -8.2251504
-9.3531517 -3.8121318 -10.4397978
-8.8105731 -3.7297388 -12.3580590
-8.2119124 -3.6559875 -14.1500429
-7.7524256 -3.5716447 -16.0500918
-7.1530793 -3.5035486 -17.7355609
-6.5513278 -3.4380913 -19.3727108
-5.9607599 -3.3739013 -20.9784737
-5.3199231 -3.3163361 -22.4922573
-4.6143861 -3.2662682 -23.9071255
-4.0137272 -3.2088839 -25.3908474
-3.3351345 -3.1598269 -26.7687289
-2.6129686 -3.1158346 -28.0797007
-1.8957341 -3.0727445 -29.3703380
-1.1560909 -3.0326683 -30.6188228
-0.4003294 -2.9949649 -31.8331144
-10.5732409 -8.0177195 29.4538021
-10.6471233 -7.7095785 24.8246291
-10.4696712 -7.4593226 20.9012115
-10.6705154 -7.1611088 16.5104216
-10.6685493 -6.9097258 12.6909719
-10.7292477 -6.6611287 8.9570752
-10.7412796 -6.4317027 5.4807757
-10.6032788 -6.2347786 2.3946031
-10.5482946 -6.0350640 -0.6766718
-10.2717834 -5.8748818 -3.3003706
-9.8240616 -5.7447386 -5.5859638
-9.3461436 -5.6240126 -7.7493610
-8.8589868 -5.5093930 -9.8263874
-8.2979230 -5.4086664 -11.7433992
-7.7555436 -5.3095180 -13.6235471
-7.1735057 -5.2189234 -15.4011433
-6.5465455 -5.1369937 -17.0781291
-5.9406018 -5.0555583 -18.7331063
-5.2702638 -4.9843231 -20.2775933
-4.5727312 -4.9185500 -21.7578831
-3.8950840 -4.8527785 -23.2244276
-3.2063840 -4.7903407 -24.6479659
-2.5100961 -4.7306937 -26.0343520
-1.7508009 -4.6794310 -27.3368710
-1.0196021 -4.6268435 -28.6401235
-0.2061174 -4.5840344 -29.8516375
-10.6311115 -8.5514903 9.1061895
-10.7395595 -8.2590042 5.4722828
-10.5898183 -8.0254420 2.4031048
-10.2696953 -7.8316284 -0.2824402
-9.8678182 -7.6600232 -2.7441231
-9.3288632 -7.5181526 -4.9256359
-8.9072509 -7.3634798 -7.1864758
-8.3494461 -7.2364001 -9.1936871
-7.7610497 -7.1190398 -11.0992541
-7.1736891 -7.0060744 -12.9483290
-6.5570227 -6.9016833 -14.7093763
-5.9069391 -6.8059460 -16.3842974
-5.2327148 -6.7170533 -17.9894770
-4.5404457 -6.6337737 -19.5362222
-3.8458528 -6.5536689 -21.0443354
-3.1346163 -6.4784646 -22.5020622
-2.3996943 -6.4088110 -23.9061396
-1.6259159 -6.3463478 -25.2465101
-0.8461806 -6.2865683 -26.5570504
-9.3107343 -9.7816904 1.1046585
-9.0095922 -9.5580744 -1.5480196
-8.6555423 -9.3542601 -4.0231768
-8.2019078 -9.1776742 -6.2735823
-7.6126833 -9.0331417 -8.2726481
-7.1045444 -8.8798616 -10.3085200
-6.4761129 -8.7536725 -12.1360694
-5.8236736 -8.6364004 -13.8838109
-5.1689990 -8.5238575 -15.5816551
-4.4468899 -8.4265178 -17.1625386
-3.7639827 -8.3262740 -18.7467845
-3.0308202 -8.2374798 -20.2425648
-2.2821774 -8.1540906 -21.6906379
-1.5189246 -8.0756819 -23.0950022
-0.7001626 -8.0081191 -24.4212629
-7.6763075 -11.9440506 3.4770529
-7.5026969 -11.6517572 0.5615163
-7.1498615 -11.4114873 -1.9886716
-6.7084402 -11.2003873 -4.3253057
-6.2691278 -10.9975631 -6.5814423
-5.7972803 -10.8096163 -8.7194171
-5.2049689 -10.6533060 -10.6436033
-4.6031785 -10.5048594 -12.4996929
-3.8477382 -10.3916292 -14.1320929
-3.1582036 -10.2700252 -15.7962171
-2.3228989 -10.1797996 -17.2675089
-1.5315654 -10.0846522 -18.7536209
-0.6593211 -10.0071621 -20.1304066
-2.9009841 -12.5428575 -10.5636391
-1.9383083 -12.4537658 -12.0306802
-0.9616722 -12.3707718 -13.4562779
0
0
0
0
0
0
0
0
0
0
0
0
0
0
0
0
0
0
0
0
0
0
0
0
0
0
0
0
0
0
0
0
0
0
0
0
0
0
0
0
0
0
0
0
0
0
0
0
0
0
0
0
0
0
0
0
0
0
0
0
0
0
0
0
0
0
0
0
0
0
0
0
0
0
0
0
0
0
0
0
0
0
0
0
0
0
0
0
0
0
0
0
0
0
0
0
0
0
0
0
0
0
0
0
0
0
0
0
0
0
0
0
0
0
0
0
0
0
0
0
0
0
0
0
0
0
0
0
0
0
0
0
0
0
0
0
0
0
0
0
0
0
0
0
0
0
0
0
0
0
0
0
0
0
0
0
0
0
0
0
0
0
0
0
0
0
0
0
0
0
0
0
0
0
0
0
0
0
0
0
0
0
0
0
0
0
0
0
0
0
0
0
0
0
0
0
0
0
0
0
0
0
0
0
0
0
0
0
0
0
0
0
0
0
0
0
0
0
0
0
0
0
0
0
0
0
0
0
0
0
0
0
0
0
0
0
0
0
0
0
0
0
0
0
0
0
0
0
0
0
0
0
0
0
0
0
0
0
0
0
0
0
0
0
0
0
0
0
0
0
0
0
0
0
0
0
0
0
0
0
0
0
0
0
0
0
0
0
0
0
0
0
0
0
0
0
0
0
0
0
0
0
0
0
0
0
0
0
0
0
0
0
0
0
0
0
0
0
0
0
0
0
0
0
0
0
0
0
0
0
0
0
0
0
0
0
0
0
0
0
0
0
0
0
0
0
0
0
0
0
0
0
0
0
0
0
0
0
0
0
0
0
0
0
0
0
0
0
0
0
0
0
0
0
0
0
0
0
0
0
0
0
0
0
0
0
0
0
0
0
0
0
0
0
0
0
0
0
0
0
0
0
0
0
0
0
0
0
0
0
0
0
0
0
0
0
0
0
0
0
0
0
0
0
0
0
0
0
0
0
0
0
0
0
0
0
0
0
0
0
0
0
0
0
0
0
0
0
0
0
0
0
0
0
0
0
0
0
0
0
0
0
0
0
0
0
0
0
0
0
0
0
0
0
0
0
0
0
0
0
0
0
0
0
0
0
0
0
0
0
0
0
0
0
0
0
0
0
0
0
0
0
0
0
0
0
0
0
0
0
0
0
0
0
0
0
0
0
0
0
0
0
0
0
0
0
0
0
0
0
0
0
0
0
0
0
0
0
0
0
0
0
0
0
0
0
0
0
0
0
0
0
0
0
0
0
0
0
0
0
0
0
0
0
0
0
0
0
0
0
0
0
0
0
0
0
0
0
0
0
0
0
0
0
0
0
0
0
0
0
0
0
0
0
0
0
0
0
0
0
0
0
0
0
0
0
0
0
0
0
0
0
0
0
0
0
0
0
0
0
0
0
0
0
0
0
0
0
0
0
0
0
0
0
0
0
0
0
0
0
0
0
0
0
0
0
0
0
0
0
0
0
0
0
0
0
0
0
0
0
0
0
0
0
0
0
0
0
0
0
0
0
0
0
0
0
0
0
0
0
0
0
0
0
0
0
0
0
0
0
0
0
0
0
0
0
0
0
0
0
0
0
0
0
0
0
0
0
0
0
0
0
0
0
0
0
0
0
0
0
0
0
0
0
0
0
0
0
0
0
0
0
0
0
0
0
0
0
0
0
0
0
0
0
0
0
0
0
0
0
0
0
0
0
0
0
0
0
0
0
0
0
0
0
0
0
0
0
0
0
0
0
0
0
0
0
0
0
0
0
0
0
0
0
0
0
0
0
0
0
0
0
0
0
0
0
0
0
0
0
0
0
0
0
0
0
0
0
0
0
0
0
0
0
0
0
0
0
0
0
0
0
0
0
0
0
0
0
0
0
0
0
0
0
0
0
0
0
0
0
0
0
0
0
0
0
0
0
0
0
0
0
0
0
0
0
0
0
0
0
0
0
0
0
0
0
0
0
0
0
0
0
0
0
0
0
0
0
0
0
0
0
0
0
0
0
0
0
0
0
0
0
0
0
0
0
0
0
0
0
0
0
0
0
0
0
0
0
0
0
0
0
0
0
0
0
1 0
1 1
1 2
1 3
1 4
0
0
0
0
0
0
0
0
0
0
0
0
0
0
0
0
0
0
0
0
0
0
0
0
0
0
0
0
0
0
0
0
0
0
0
0
0
0
0
0
0
0
0
0
0
0
0
1 5
1 6
1 7
1 8
0
0
0
0
0
0
0
0
0
0
0
0
0
0
0
0
0
0
0
0
0
0
0
0
0
0
0
0
0
0
0
0
0
0
0
0
0
0
0
0
0
0
0
0
0
1 9
1 10
1 11
1 12
1 13
1 14
1 15
1 16
0
0
0
0
0
0
0
0
0
0
0
0
0
0
0
0
0
0
0
0
0
0
0
0
0
0
0
0
0
0
0
0
0
0
0
0
0
0
0
0
0
0
1 17
0
0
1 18
1 19
1 20
1 21
1 22
1 23
0
0
0
0
0
0
0
0
0
0
0
0
0
0
0
0
0
0
0
0
0
0
0
0
0
0
0
0
0
0
0
0
0
0
0
0
0
0
0
1 24
1 25
1 26
1 27
1 28
1 29
1 30
1 31
1 32
1 33
1 34
1 35
1 36
0
0
0
0
0
0
0
0
0
0
0
0
0
0
0
0
0
0
0
0
0
0
0
0
0
0
0
0
0
0
0
0
0
0
0
0
0
0
1 37
0
0
1 38
1 39
1 40
1 41
1 42
1 43
1 44
1 45
1 46
1 47
0
0
0
0
0
0
0
0
0
0
0
0
0
0
0
0
0
0
0
0
0
0
0
0
0
0
0
0
0
0
0
0
0
0
0
0
0
0
0
0
1 48
1 49
1 50
1 51
1 52
1 53
1 54
1 55
1 56
1 57
1 58
1 59
0
0
0
0
0
0
0
0
0
0
0
0
0
0
0
0
0
0
0
0
0
0
0
0
0
0
0
0
0
0
0
0
0
1 60
1 61
1 62
1 63
1 64
1 65
1 66
1 67
1 68
1 69
1 70
1 71
1 72
1 73
1 74
1 75
1 76
1 77
1 78
1 79
1 80
1 81
1 82
1 83
1 84
1 85
1 86
0
0
0
0
0
0
0
0
0
0
0
0
0
0
0
0
0
0
0
0
0
0
0
0
0
1 87
1 88
1 89
1 90
1 91
1 92
1 93
1 94
1 95
1 96
1 97
1 98
1 99
1 100
1 101
1 102
1 103
1 104
1 105
1 106
1 107
1 108
1 109
1 110
0
0
0
0
0
0
0
0
0
0
0
0
0
0
0
0
0
0
0
0
0
0
0
1 111
0
1 112
1 113
1 114
0
1 115
1 116
1 117
1 118
1 119
1 120
1 121
1 122
1 123
1 124
1 125
1 126
1 127
1 128
1 129
1 130
1 131
1 132
1 133
1 134
0
0
0
0
0
0
0
0
0
0
0
0
0
0
0
0
0
0
0
0
0
0
0
1 135
1 136
1 137
1 138
1 139
1 140
1 141
1 142
1 143
1 144
1 145
1 146
1 147
1 148
1 149
1 150
1 151
1 152
1 153
1 154
1 155
1 156
1 157
1 158
1 159
1 160
0
0
0
0
0
0
0
0
0
0
0
0
0
0
0
0
0
0
0
0
0
0
0
0
0
0
0
0
0
1 161
1 162
1 163
1 164
1 165
1 166
1 167
1 168
1 169
1 170
1 171
1 172
1 173
1 174
1 175
1 176
1 177
1 178
1 179
0
0
0
0
0
0
0
0
0
0
0
0
0
0
0
0
0
0
0
0
0
0
0
0
0
0
0
0
0
0
0
0
0
0
1 180
1 181
1 182
1 183
1 184
1 185
1 186
1 187
1 188
1 189
1 190
1 191
1 192
1 193
1 194
0
0
0
0
0
0
0
0
0
0
0
0
0
0
0
0
0
0
0
0
0
0
0
0
0
0
0
0
0
0
0
0
0
0
0
1 195
1 196
1 197
1 198
1 199
1 200
1 201
1 202
1 203
1 204
1 205
1 206
1 207
0
0
0
0
0
0
0
0
0
0
0
0
0
0
0
0
0
0
0
0
0
0
0
0
0
0
0
0
0
0
0
0
0
0
0
0
0
0
0
0
0
0
0
0
1 208
1 209
1 210
0
0
0
0
0
0
0
0
0
0
0
0
0
0
0
0
0
0
0
0
0
0
0
0
0
0
0
0
0
0
0
0
0
0
0
0
0
0
0
0
0
0
0
0
0
0
0
0
0
0
0
0
0
0
0
0
0
0
0
0
0
0
0
0
0
0
0
0
0
0
0
0
0
0
0
0
0
0
0
0
0
0
0
0
0
0
0
0
0
0
0
0
0
0
0
0
0
0
0
0
0
0
0
0
0
0
0
0
0
0
0
0
0
0
0
0
0
0
0
0
0
0
0
0
0
0
0
0
0
0
0
0
0
0
0
0
0
0
0
0
0
0
0
0
0
0
0
0
0
0
0
0
0
0
0
0
0
0
0
0
0
0
0
0
0
0
0
0
0
0
0
0
0
0
0
0
0
0
0
0
0
0
0
0
0
0
0
0
0
0
0
0
0
0
0
0
0
0
0
0
0
0
0
0
0
0
0
0
0
0
0
0
0
0
0
0
0
0
0
0
0
0
0
0
0
0
0
0
0
0
0
0
0
0
0
0
0
0
0
0
0
0
0
0
0
0
0
0
0
0
0
0
0
0
0
0
0
0
0
0
0
0
0
0
0
0
0
0
0
0
0
0
0
0
0
0
0
0
0
0
0
0
0
0
0
0
0
0
0
0
0
0
0
0
0
0
0
0
0
0
0
0
0
0
0
0
0
0
0
0
0
0
0
0
0
0
0
0
0
0
0
0
0
0
0
0
0
0
0
0
0
0
0
0
0
0
0
0
0
0
0
0
0
0
0
0
0
0
0
0
0
0
0
0
0
0
0
0
0
0
0
0
0
0
0
0
0
0
0
0
0
0
0
0
0
0
0
0
0
0
0
0
0
0
0
0
0
0
0
0
0
0
0
0
0
0
0
0
0
0
0
0
0
0
0
0
0
0
0
0
0
0
0
0
0
0
0
0
0
0
0
0
0
0
0
0
0
0
0
0
0
0
0
0
0
0
0
0
0
0
0
0
0
0
0
0
0
0
0
0
0
0
0
0
0
0
0
0
0
0
0
0
0
0
0
0
0
0
0
0
0
0
0
0
0
0
0
0
0
0
0
0
0
0
0
0
0
0
0
0
0
0
0
0
0
0
0
0
0
0
0
0
0
0
0
0
0
0
0
0
0
0
0
0
0
0
0
0
0
0
0
0
0
0
0
0
0
0
0
0
0
0
0
0
0
0
0
0
0
0
0
0
0
0
0
0
0
0
0
0
0
0
0
0
0
0
0
0
0
0
0
0
0
0
0
0
0
0
0
0
0
0
0
0
0
0
0
0
0
0
0
0
0
0
0
0
0
0
0
0
0
0
0
0
0
0
0
0
0
0
0
0
0
0
0
0
0
0
0
0
0
0
0
0
0
0
0
0
0
0
0
0
0
0
0
0
0
0
0
0
0
0
0
0
0
0
0
0
0
0
0
0
0
0
0
0
0
0
0
0
0
0
0
0
0
0
0
0
0
0
0
0
0
0
0
0
0
0
0
0
0
0
0
0
0
0
0
0
0
0
0
0
0
0
0
0
0
0
0
0
0
0
0
0
0
0
0
0
0
0
0
0
0
0
0
0
0
0
0
0
0
0
0
0
0
0
0
0
0
0
0
0
0
0
0
0
0
0
0
0
0
0
0
0
0
0
0
0
0
0
0
0
0
0
0
0
0
0
0
0
0
0
0
0
0
0
0
0
0
0
0
0
0
0
0
0
0
0
0
0
0
0
0
0
0
0
0
0
0
0
0
0
0
0
0
0
0
0
0
0
0
0
0
0
0
0
0
0
0
0
0
0
0
0
0
0
0
0
0
0
0
0
0
0
0
0
0
0
0
0
0
0
0
0
0
0
0
0
0
0
0
0
0
0
0
0
0
0
0
0
0
0
0
0
0
0
0
0
0
0
0
0
0
0
0
0
0
0
0
0
0
0
0
0
0
0
0
0
0
0
