ply
format ascii 1.0
obj_info num_cols 50
obj_info num_rows 50
element vertex 257
property float x
property float y
property float z
element range_grid 2500
property list uchar int vertex_indices
end_header
0.1340561 0.8311896 -37.1498174
0.7082685 0.1378098 -35.4516509
1.7071854 0.4998983 -34.5020200
0.2661423 -0.8884965 -34.6432552
1.2671314 -0.5337079 -33.6868737
2.2542147 -0.1371264 -32.6805776
3.2172260 0.3198700 -31.6040159
-0.2762609 -1.7999553 -33.7046884
0.8286459 -1.5806353 -32.8722200
1.8037751 -1.1739939 -31.8396271
2.7939696 -0.7615397 -30.7917378
3.7713482 -0.3028785 -29.6853472
4.7611667 0.1695396 -28.5538033
5.6370703 0.8507643 -27.1845479
0.4028040 -2.6543773 -32.0729686
1.3907290 -2.2714862 -31.0493782
2.3620259 -1.8414733 -29.9655829
3.3502215 -1.4059704 -28.8658103
4.3245817 -0.9203892 -27.7002302
5.2814435 -0.3738640 -26.4548785
6.2530898 0.1907560 -25.1763347
-0.1000298 -3.6440335 -31.1686893
0.9618694 -3.3580139 -30.2357763
1.9494993 -2.9572399 -29.1666027
2.9492063 -2.5459652 -28.0759811
3.9144947 -2.0586025 -26.8879581
4.8764084 -1.5315781 -25.6422332
5.8552887 -0.9907875 -24.3678512
6.7937797 -0.3458542 -22.9569574
7.7468290 0.3272939 -21.4969466
0.5254527 -4.4452929 -29.4102339
1.5263303 -4.0684533 -28.3509468
2.5278843 -3.6675943 -27.2541665
3.5166467 -3.2221569 -26.0944834
4.4628473 -2.6859850 -24.8146300
5.4720000 -2.2011988 -23.5843531
6.3962344 -1.5523086 -22.1405110
7.3558106 -0.9069472 -20.6853182
8.2665656 -0.1291009 -19.0483214
9.0853341 0.8714222 -17.1104771
0.0658761 -5.5155884 -28.5506104
1.0941356 -5.1781640 -27.5208699
2.1098268 -4.8028374 -26.4363716
3.0988584 -4.3674259 -25.2682718
4.0589277 -3.8624763 -24.0025178
5.0460844 -3.3585247 -22.7254800
6.0311795 -2.8134998 -21.3836061
6.9766505 -2.1660349 -19.8964263
7.9075795 -1.4428031 -18.2947526
8.8146433 -0.6188527 -16.5430363
9.6747069 0.3587960 -14.5673848
0.6555558 -6.2903402 -26.6801745
1.6895808 -5.9444457 -25.6142511
2.6821469 -5.5232022 -24.4429540
3.6730988 -5.0705242 -23.2202394
4.6298456 -4.5390735 -21.8830179
5.6565938 -4.0656879 -20.6089045
6.5735811 -3.3959764 -19.0610601
7.5523135 -2.7653335 -17.5487133
8.4469364 -1.9488327 -15.7678161
9.3402641 -1.0581155 -13.8643266
10.1553267 0.0496773 -11.6376825
0.2064639 -7.4008111 -25.8226776
1.2397941 -7.0603411 -24.7454952
2.2555716 -6.6758482 -23.6008994
3.2661024 -6.2582152 -22.4017674
4.2345652 -5.7559397 -21.0769753
5.2536408 -5.2847017 -19.7815328
6.2019257 -4.6778356 -18.2863451
7.1669248 -4.0466306 -16.7413264
8.0876599 -3.2953222 -15.0106675
9.0023668 -2.4688101 -13.1534573
9.8561878 -1.4657252 -11.0213317
10.5970270 -0.1700380 -8.4393845
0.7860003 -8.1828392 -23.8693511
1.8289876 -7.8379453 -22.7579622
2.8511406 -7.4441655 -21.5692162
3.8410320 -6.9819159 -20.2735878
4.8582410 -6.5212371 -18.9677784
5.8397229 -5.9770153 -17.5298288
6.7849245 -5.3384744 -15.9407666
7.7393675 -4.6605693 -14.2770475
8.6576132 -3.8687089 -12.4271262
9.5258143 -2.9252727 -10.3304330
10.3296738 -1.7847459 -7.9125206
10.6225018 0.3674532 -3.9317026
0.1973637 -9.1687911 -22.7823518
1.3328405 -8.9305392 -21.8013440
2.3963156 -8.5918618 -20.6684981
3.4322027 -8.1959401 -19.4427081
4.4597457 -7.7606631 -18.1479711
5.4591014 -7.2556616 -16.7374531
6.4137123 -6.6502185 -15.1621141
7.3955235 -6.0334986 -13.5529568
8.3080824 -5.2620489 -11.6900470
9.1923445 -4.3780598 -9.6320864
10.0756424 -3.4097080 -7.4182883
10.7043630 -1.9159511 -4.3520706
-0.9115599 -9.6261540 -20.8819556
0.6492815 -9.8331575 -20.5387058
1.8057546 -9.5979017 -19.5365527
2.9014726 -9.2753074 -18.3952029
3.9811571 -8.9100032 -17.1792855
5.0382383 -8.4889059 -15.8667465
6.0401496 -7.9629390 -14.3786224
7.0164563 -7.3594548 -12.7534996
7.9687465 -6.6708240 -10.9759427
8.8969029 -5.8855413 -9.0238680
9.7400255 -4.8958545 -6.7188663
10.4701390 -3.6264823 -3.9293675
10.6497563 -1.2877536 0.6563089
-0.1706028 -10.6215054 -19.0512695
1.1054166 -10.5070474 -18.2162302
2.2655260 -10.2543367 -17.1597253
3.3863160 -9.9377216 -15.9940801
4.4977631 -9.5862929 -14.7632414
5.5632081 -9.1499393 -13.3843931
6.6111708 -8.6556533 -11.8979768
7.6134644 -8.0577285 -10.2259626
8.5564166 -7.3230675 -8.3086457
9.4388224 -6.4310354 -6.1053265
10.2757550 -5.3824044 -3.6103895
10.4378768 -3.1226247 0.9864628
10.6619056 -0.7290770 5.8802736
-1.5356595 -10.8967070 -16.6700101
0.3449427 -11.3841195 -16.7910841
1.5685572 -11.1938145 -15.8140618
2.7513804 -10.9443031 -14.7332237
3.9104526 -10.6488271 -13.5680286
4.9934915 -10.2389237 -12.2008580
6.0546030 -9.7688355 -10.7188774
7.1246373 -9.2714163 -9.1757937
8.1640423 -8.6890904 -7.4705952
9.1382384 -7.9609121 -5.4928968
9.9786514 -6.9634783 -3.0185060
10.7101263 -5.6954290 -0.0327946
10.4450075 -2.6465622 6.1848930
10.7108911 -0.1858672 11.4309693
-0.7141198 -11.9955291 -14.8537241
0.8151582 -12.1055115 -14.3659531
2.0440597 -11.8995651 -13.3364068
3.2576223 -11.6614953 -12.2445555
4.4097042 -11.3340809 -10.9883499
5.4647938 -10.8638511 -9.4688182
6.5238213 -10.3599232 -7.8744191
7.5725481 -9.7992919 -6.1620766
8.6362089 -9.2088666 -4.3781034
9.6605226 -8.5066113 -2.3705592
10.5055776 -7.4654175 0.2861053
10.6886045 -5.2682000 5.1327013
10.5477207 -2.2893825 11.5186565
10.7616431 0.4079461 17.4632816
-2.2013983 -12.2503379 -12.1798876
-0.0050705 -12.9852274 -12.7964621
1.2760841 -12.8242759 -11.8250784
2.5411358 -12.6344728 -10.7962066
3.7817195 -12.4032303 -9.6854006
4.8648747 -11.9717533 -8.1972943
5.9036552 -11.4517011 -6.5302953
6.9529007 -10.9006450 -4.7883403
8.0011804 -10.2994510 -2.9336605
9.0505677 -9.6439663 -0.9558969
10.1000924 -8.9248429 1.1655923
10.6746327 -7.4127207 4.8517965
10.7046632 -4.8677953 10.6110620
10.6769226 -1.9342875 17.2201099
-1.3255455 -13.4241511 -10.3309950
0.5159387 -13.7933355 -10.3266395
1.7418585 -13.5557172 -9.1854484
2.8084167 -13.1302627 -7.6775527
3.9525209 -12.7578909 -6.2578631
5.2331844 -12.5131874 -5.0740144
6.2983976 -11.9887837 -3.3337517
7.3446893 -11.3945907 -1.4381271
8.3680474 -10.7156928 0.6460792
9.4069309 -9.9928032 2.8412431
10.3409302 -9.0449306 5.5164321
10.7129253 -7.1388920 10.1812571
10.6068034 -4.2474777 16.9395918
10.6347749 -1.2391577 24.0368374
-3.8088206 -12.8712318 -5.7808197
0.6145250 -14.1932149 -6.9335215
1.6065313 -13.6805852 -5.2024797
2.7226881 -13.2604593 -3.6400162
4.0716933 -13.0640900 -2.5173196
5.3747012 -12.7985458 -1.2463418
6.6200609 -12.4407796 0.2240633
7.6699105 -11.8049971 2.2853670
8.6393031 -11.0027851 4.7177525
9.4822409 -9.9455227 7.7173176
10.4885526 -9.0145840 10.4837470
10.7115713 -6.7766664 16.0924612
10.7529051 -3.9791660 22.9909905
-3.9890158 -13.1154491 -1.7471050
-1.8672871 -13.6189857 -2.0355498
0.4141646 -14.3161028 -2.7458947
1.4697675 -13.8212613 -0.9733339
2.7836964 -13.5601506 0.3208653
4.1232877 -13.3058472 1.6097327
5.4539626 -13.0195526 2.9766107
6.7646852 -12.6837024 4.4614195
7.7915376 -11.9597616 6.8092847
8.6839386 -10.9869903 9.7330605
9.6071835 -9.9557519 12.8217593
10.5982627 -8.9105481 15.9785204
10.7526062 -6.4479484 22.3821996
-4.1857211 -13.3701619 2.5486579
-2.0327775 -13.8516634 2.2734362
0.1521261 -14.4008778 1.8311630
1.4509301 -14.0997417 3.2570106
2.7657182 -13.7908906 4.7111927
4.0431051 -13.4148835 6.3283491
5.3967972 -13.0927944 7.8365901
6.7463723 -12.7358966 9.4365413
7.7938207 -11.9647563 12.0079256
8.7279041 -10.9646343 15.1417147
9.7072342 -9.9190944 18.4191567
10.7097986 -8.7879110 21.9380561
-4.8814463 -13.2074614 8.1155279
-2.5029528 -13.8276220 7.4933428
-0.2053548 -14.4185981 6.9151405
1.2268212 -14.1915326 8.2340101
2.5647690 -13.8471401 9.8391278
3.9049677 -13.4749769 11.5236316
5.2888682 -13.1184442 13.1847577
6.7050855 -12.7662157 14.8490549
7.8211478 -12.0013719 17.5348238
8.7757012 -10.9409700 20.9776195
9.8014971 -9.8602379 24.5115019
10.7995630 -8.6088053 28.5136618
-5.5990450 -13.0660723 14.0966114
-3.2164757 -13.6142746 13.6020425
-0.7725458 -14.2652847 12.8321961
0.9861171 -14.2908196 13.5893974
2.3854988 -13.9465411 15.2711962
3.7847016 -13.5708068 17.0460267
5.2019560 -13.1798001 18.8746147
6.6684642 -12.8084367 20.6683779
7.8536528 -12.0446726 23.4905199
8.8401426 -10.9322023 27.2508190
9.9200457 -9.8194001 31.0563351
-3.8792570 -13.4886038 20.0195045
-1.2498439 -14.2323306 18.9494847
0.7283987 -14.4000106 19.3639634
2.1695518 -14.0307252 21.1953113
3.6274347 -13.6447042 23.0866597
5.1208928 -13.2607684 24.9883566
6.6214454 -12.8453587 26.9913607
7.8561066 -12.0504378 30.0495838
8.8477677 -10.8398710 34.2863149
-4.6132500 -13.3437834 27.0686010
-2.0085453 -13.9741165 26.2349391
0.4007983 -14.4708014 25.7468736
1.9475290 -14.1342411 27.5815852
3.4678647 -13.7365906 29.6040252
5.0040223 -13.3159054 31.7094423
0.0453583 -14.5490119 32.6919751
0
0
0
0
0
0
0
0
0
0
0
0
0
0
0
0
0
0
0
0
0
0
0
0
0
0
0
0
0
0
0
0
0
0
0
0
0
0
0
0
0
0
0
0
0
0
0
0
0
0
0
0
0
0
0
0
0
0
0
0
0
0
0
0
0
0
0
0
0
0
0
0
0
0
0
0
0
0
0
0
0
0
0
0
0
0
0
0
0
0
0
0
0
0
0
0
0
0
0
0
0
0
0
0
0
0
0
0
0
0
0
0
0
0
0
0
0
0
0
0
0
0
0
0
0
0
0
0
0
0
0
0
0
0
0
0
0
0
0
0
0
0
0
0
0
0
0
0
0
0
0
0
0
0
0
0
0
0
0
0
0
0
0
0
0
0
0
0
0
0
0
0
0
0
0
0
0
0
0
0
0
0
0
0
0
0
0
0
0
0
0
0
0
0
0
0
0
0
0
0
0
0
0
0
0
0
0
0
0
0
0
0
0
0
0
0
0
0
0
0
0
0
0
0
0
0
0
0
0
0
0
0
0
0
0
0
0
0
0
0
0
0
0
0
0
0
0
0
0
0
0
0
0
0
0
0
0
0
0
0
0
0
0
0
0
0
0
0
0
0
0
0
0
0
0
0
0
0
0
0
0
0
0
0
0
0
0
0
0
0
0
0
0
0
0
0
0
0
0
0
0
0
0
0
0
0
0
0
0
0
0
0
0
0
0
0
0
0
0
0
0
0
0
0
0
0
0
0
0
0
0
0
0
0
0
0
0
0
0
0
0
0
0
0
0
0
0
0
0
0
0
0
0
0
0
0
0
0
0
0
0
0
0
0
0
0
0
0
0
0
0
0
0
0
0
0
0
0
0
0
0
0
0
0
0
0
0
0
0
0
0
0
0
0
0
0
0
0
0
0
0
0
0
0
0
0
0
0
0
0
0
0
0
0
0
0
0
0
0
0
0
0
0
0
0
0
0
0
0
0
0
0
0
0
0
0
0
0
0
0
0
0
0
0
0
0
0
0
0
0
0
0
0
0
0
0
0
0
0
0
0
0
0
0
0
0
0
0
0
0
0
0
0
0
0
0
0
0
0
0
0
0
0
0
0
0
0
0
0
0
0
0
0
0
0
0
0
0
0
0
0
0
0
0
0
0
0
0
0
0
0
0
0
0
0
0
0
0
0
0
0
0
0
0
0
0
0
0
0
0
0
0
0
0
0
0
0
0
0
0
0
0
0
0
0
0
0
0
0
0
0
0
0
0
0
0
0
0
0
0
0
0
0
0
0
0
0
0
0
0
0
0
0
0
0
0
0
0
0
0
0
0
0
0
0
0
0
0
0
0
0
0
0
0
0
0
0
0
0
0
0
0
0
0
0
0
0
0
0
0
0
0
0
1 0
0
0
0
0
0
0
0
0
0
0
0
0
0
0
0
0
0
0
0
0
0
0
0
0
0
0
0
0
0
0
0
0
0
0
0
0
0
0
0
0
0
0
0
0
0
0
0
0
0
0
1 1
1 2
0
0
0
0
0
0
0
0
0
0
0
0
0
0
0
0
0
0
0
0
0
0
0
0
0
0
0
0
0
0
0
0
0
0
0
0
0
0
0
0
0
0
0
0
0
0
0
0
1 3
1 4
1 5
1 6
0
0
0
0
0
0
0
0
0
0
0
0
0
0
0
0
0
0
0
0
0
0
0
0
0
0
0
0
0
0
0
0
0
0
0
0
0
0
0
0
0
0
0
0
0
0
1 7
1 8
1 9
1 10
1 11
1 12
1 13
0
0
0
0
0
0
0
0
0
0
0
0
0
0
0
0
0
0
0
0
0
0
0
0
0
0
0
0
0
0
0
0
0
0
0
0
0
0
0
0
0
0
0
0
1 14
1 15
1 16
1 17
1 18
1 19
1 20
0
0
0
0
0
0
0
0
0
0
0
0
0
0
0
0
0
0
0
0
0
0
0
0
0
0
0
0
0
0
0
0
0
0
0
0
0
0
0
0
0
0
0
1 21
1 22
1 23
1 24
1 25
1 26
1 27
1 28
1 29
0
0
0
0
0
0
0
0
0
0
0
0
0
0
0
0
0
0
0
0
0
0
0
0
0
0
0
0
0
0
0
0
0
0
0
0
0
0
0
0
0
0
1 30
1 31
1 32
1 33
1 34
1 35
1 36
1 37
1 38
1 39
0
0
0
0
0
0
0
0
0
0
0
0
0
0
0
0
0
0
0
0
0
0
0
0
0
0
0
0
0
0
0
0
0
0
0
0
0
0
0
0
1 40
1 41
1 42
1 43
1 44
1 45
1 46
1 47
1 48
1 49
1 50
0
0
0
0
0
0
0
0
0
0
0
0
0
0
0
0
0
0
0
0
0
0
0
0
0
0
0
0
0
0
0
0
0
0
0
0
0
0
0
0
1 51
1 52
1 53
1 54
1 55
1 56
1 57
1 58
1 59
1 60
1 61
0
0
0
0
0
0
0
0
0
0
0
0
0
0
0
0
0
0
0
0
0
0
0
0
0
0
0
0
0
0
0
0
0
0
0
0
0
0
0
1 62
1 63
1 64
1 65
1 66
1 67
1 68
1 69
1 70
1 71
1 72
1 73
0
0
0
0
0
0
0
0
0
0
0
0
0
0
0
0
0
0
0
0
0
0
0
0
0
0
0
0
0
0
0
0
0
0
0
0
0
0
0
1 74
1 75
1 76
1 77
1 78
1 79
1 80
1 81
1 82
1 83
1 84
1 85
0
0
0
0
0
0
0
0
0
0
0
0
0
0
0
0
0
0
0
0
0
0
0
0
0
0
0
0
0
0
0
0
0
0
0
0
0
0
1 86
1 87
1 88
1 89
1 90
1 91
1 92
1 93
1 94
1 95
1 96
1 97
0
0
0
0
0
0
0
0
0
0
0
0
0
0
0
0
0
0
0
0
0
0
0
0
0
0
0
0
0
0
0
0
0
0
0
0
0
0
1 98
1 99
1 100
1 101
1 102
1 103
1 104
1 105
1 106
1 107
1 108
1 109
1 110
0
0
0
0
0
0
0
0
0
0
0
0
0
0
0
0
0
0
0
0
0
0
0
0
0
0
0
0
0
0
0
0
0
0
0
0
0
0
1 111
1 112
1 113
1 114
1 115
1 116
1 117
1 118
1 119
1 120
1 121
1 122
1 123
0
0
0
0
0
0
0
0
0
0
0
0
0
0
0
0
0
0
0
0
0
0
0
0
0
0
0
0
0
0
0
0
0
0
0
0
0
1 124
1 125
1 126
1 127
1 128
1 129
1 130
1 131
1 132
1 133
1 134
1 135
1 136
1 137
0
0
0
0
0
0
0
0
0
0
0
0
0
0
0
0
0
0
0
0
0
0
0
0
0
0
0
0
0
0
0
0
0
0
0
0
0
1 138
1 139
1 140
1 141
1 142
1 143
1 144
1 145
1 146
1 147
1 148
1 149
1 150
1 151
0
0
0
0
0
0
0
0
0
0
0
0
0
0
0
0
0
0
0
0
0
0
0
0
0
0
0
0
0
0
0
0
0
0
0
0
1 152
1 153
1 154
1 155
1 156
1 157
1 158
1 159
1 160
1 161
1 162
1 163
1 164
1 165
0
0
0
0
0
0
0
0
0
0
0
0
0
0
0
0
0
0
0
0
0
0
0
0
0
0
0
0
0
0
0
0
0
0
0
0
0
1 166
1 167
1 168
1 169
1 170
1 171
1 172
1 173
1 174
1 175
1 176
1 177
1 178
1 179
0
0
0
0
0
0
0
0
0
0
0
0
0
0
0
0
0
0
0
0
0
0
0
0
0
0
0
0
0
0
0
0
0
0
0
0
1 180
0
1 181
1 182
1 183
1 184
1 185
1 186
1 187
1 188
1 189
1 190
1 191
1 192
0
0
0
0
0
0
0
0
0
0
0
0
0
0
0
0
0
0
0
0
0
0
0
0
0
0
0
0
0
0
0
0
0
0
0
0
0
1 193
1 194
1 195
1 196
1 197
1 198
1 199
1 200
1 201
1 202
1 203
1 204
1 205
0
0
0
0
0
0
0
0
0
0
0
0
0
0
0
0
0
0
0
0
0
0
0
0
0
0
0
0
0
0
0
0
0
0
0
0
0
0
1 206
1 207
1 208
1 209
1 210
1 211
1 212
1 213
1 214
1 215
1 216
1 217
0
0
0
0
0
0
0
0
0
0
0
0
0
0
0
0
0
0
0
0
0
0
0
0
0
0
0
0
0
0
0
0
0
0
0
0
0
0
0
1 218
1 219
1 220
1 221
1 222
1 223
1 224
1 225
1 226
1 227
1 228
1 229
0
0
0
0
0
0
0
0
0
0
0
0
0
0
0
0
0
0
0
0
0
0
0
0
0
0
0
0
0
0
0
0
0
0
0
0
0
0
0
1 230
1 231
1 232
1 233
1 234
1 235
1 236
1 237
1 238
1 239
1 240
0
0
0
0
0
0
0
0
0
0
0
0
0
0
0
0
0
0
0
0
0
0
0
0
0
0
0
0
0
0
0
0
0
0
0
0
0
0
0
0
0
1 241
1 242
1 243
1 244
1 245
1 246
1 247
1 248
1 249
0
0
0
0
0
0
0
0
0
0
0
0
0
0
0
0
0
0
0
0
0
0
0
0
0
0
0
0
0
0
0
0
0
0
0
0
0
0
0
0
0
0
1 250
1 251
1 252
1 253
1 254
1 255
0
0
0
0
0
0
0
0
0
0
0
0
0
0
0
0
0
0
0
0
0
0
0
0
0
0
0
0
0
0
0
0
0
0
0
0
0
0
0
0
0
0
0
0
0
0
0
1 256
0
0
0
0
0
0
0
0
0
0
0
0
0
0
0
0
0
0
0
0
0
0
0
0
0
0
0
0
0
0
0
0
0
0
0
0
0
0
0
0
0
0
0
0
0
0
0
0
0
0
0
0
0
0
0
0
0
0
0
0
0
0
0
0
0
0
0
0
0
0
0
0
0
0
0
0
0
0
0
0
0
0
0
0
0
0
0
0
0
0
0
0
0
0
0
0
0
0
0
0
0
0
0
0
0
0
0
0
0
0
0
0
0
0
0
0
0
0
0
0
0
0
0
0
0
0
0
0
0
0
0
0
0
0
0
0
0
0
0
0
0
0
0
0
0
0
0
0
0
0
0
0
0
0
0
0
0
0
0
0
0
0
0
0
0
0
0
0
0
0
0
0
0
0
0
0
0
0
0
0
0
0
0
0
0
0
0
0
0
0
0
0
0
0
0
0
0
0
0
0
0
0
0
0
0
0
0
0
0
0
0
0
0
0
0
0
0
0
0
0
0
0
0
0
0
0
0
0
0
0
0
0
0
0
0
0
0
0
0
0
0
0
0
0
0
0
0
0
0
0
0
0
0
0
0
0
0
0
0
0
0
0
0
0
0
0
0
0
0
0
0
0
0
0
0
0
0
0
0
0
0
0
0
0
0
0
0
0
0
0
0
0
0
0
0
0
0
0
0
0
0
0
0
0
0
0
0
0
0
0
0
0
0
0
0
0
0
0
0
0
0
0
0
0
0
0
0
0
0
0
0
0
0
0
0
0
0
0
0
0
0
0
0
0
0
0
0
0
0
0
0
0
0
0
0
0
0
0
0
0
0
0
0
0
0
0
0
0
0
0
0
0
0
0
0
0
0
0
0
0
0
0
0
0
0
0
0
0
0
0
0
0
0
0
0
0
0
0
0
0
0
0
0
0
0
0
0
0
0
0
0
0
0
0
0
0
0
0
0
0
0
0
0
0
0
0
0
0
0
0
0
0
0
0
0
0
0
0
0
0
0
0
0
0
0
0
0
0
0
0
0
0
0
0
0
0
0
0
0
0
0
0
0
0
0
0
0
0
0
0
0
0
0
0
0
0
0
0
0
0
0
0
0
0
0
0
0
0
0
0
0
0
0
0
0
0
0
0
0
0
0
0
0
0
0
0
0
0
0
0
0
0
0
0
0
0
0
0
0
0
0
0
0
0
0
0
0
0
0
0
0
0
0
0
0
0
0
0
0
0
0
0
0
0
0
0
0
0
0
0
0
0
0
0
0
0
0
0
0
0
0
0
0
0
0
0
0
0
0
0
0
0
0
0
0
0
0
0
0
0
0
0
0
0
0
0
0
0
0
0
0
0
0
0
0
0
0
0
0
0
0
0
0
0
0
0
0
0
0
0
0
0
0
0
0
0
0
0
