ply
format ascii 1.0
obj_info num_cols 50
obj_info num_rows 50
element vertex 331
property float x
property float y
property float z
element range_grid 2500
property list uchar int vertex_indices
end_header
3.4285888 13.9234416 21.5735659
1.0645623 13.7496818 20.7872025
-2.0399178 14.0225557 21.4790565
2.9667892 9.8466096 20.1046141
3.0753661 10.1042694 18.2119456
2.0287605 11.4706805 15.8593712
1.7776250 12.0624150 13.8832990
-4.7568809 14.0148529 22.2873080
-1.8239650 11.7560797 20.0863149
0.9592914 9.3206752 19.5093536
1.4303084 9.2212194 17.7922556
-0.5508644 11.9190457 13.2089834
0.5987800 11.1399986 11.7954618
1.4315387 10.6792296 10.2353044
2.2911615 10.1967884 8.6600777
2.9000541 9.9624590 6.9880944
3.9888665 9.2668114 5.4309293
0.3247383 6.2284082 25.5003280
-2.3630772 9.8310765 20.1821197
-3.3773434 11.6304745 15.9697073
-2.9098841 11.5139704 14.3373363
-2.2375417 11.1889577 12.7788959
-1.6070573 10.9098768 11.1886401
-0.9436327 10.6002369 9.5954096
-0.2467734 10.2599932 7.9970843
0.4887242 9.8843762 6.3929036
1.2472044 9.4895403 4.7761077
4.1915065 6.9264859 3.6658713
6.3421853 5.1731740 2.2588534
-4.4009352 9.4728432 19.5346710
-4.2200385 9.6641525 17.7480200
-3.9857640 9.7964526 15.9945368
-3.7526766 9.9287126 14.2468788
-3.5312769 10.0720497 12.5009073
-3.2907465 10.1938342 10.7687807
-2.8599651 10.1150673 9.1074474
-2.4164111 10.0238278 7.4460535
-1.7987305 9.7529051 5.8306665
-1.2018463 9.5062020 4.1963918
1.3901708 7.2126456 3.0312722
2.3000070 6.6611428 1.3916485
3.2893905 6.0342030 -0.2592256
4.3193543 5.3723723 -1.9332758
9.9115260 0.1219932 -2.9806738
9.8645438 0.5747427 -4.9551235
9.9815628 0.8595974 -6.8927444
10.2462403 0.9951952 -8.8064639
-4.7482954 6.0416851 25.5557545
-3.5173739 5.0679131 24.2879068
-4.6457478 7.1660210 19.7872465
-4.6199653 7.5423482 17.8970049
-4.7318019 8.0670477 15.9629381
-4.7018677 8.4302814 14.1145009
-4.7041518 8.8250724 12.2707347
-4.5845375 9.0830548 10.4910862
-4.4031856 9.2715338 8.7449179
-4.2258863 9.4625064 7.0062707
-3.7406391 9.3212714 5.3666176
-1.6939173 7.5151187 4.1370014
-0.9920668 7.1552430 2.4963903
-0.1214153 6.6206975 0.8751424
0.6897659 6.1540614 -0.7828585
1.5151838 5.6772268 -2.4605215
2.5267984 5.0113681 -4.1339541
5.0876818 2.7475623 -5.6540240
8.7657841 -0.6454264 -7.1722026
9.1076389 -0.5836568 -9.0849245
9.3232624 -0.3935962 -11.0011863
9.0855928 0.2550863 -12.9204450
8.9000127 0.8449363 -14.8105595
-7.0133667 5.9722225 24.7080155
-7.0492711 6.4398682 22.7522926
-6.9530113 6.7487382 20.8908745
-5.8238968 5.8592417 19.5734119
-4.6994110 5.4067486 16.2910310
-4.6609671 5.7806017 14.4087015
-4.6792015 6.2147486 12.5213780
-4.6390073 6.5785544 10.6764181
-4.6244172 6.9673007 8.8396456
-4.7434035 7.5009732 6.9782434
-4.1825283 7.2751315 5.3417065
-3.5847194 7.0109228 3.7042289
-2.9440736 6.7024581 2.0645528
-2.2776093 6.3690022 0.4159019
-1.5813674 6.0066351 -1.2427006
-0.8427241 5.6021486 -2.9111486
0.0280009 5.0597175 -4.5796109
1.3361234 4.0546544 -6.2216667
3.0443727 2.6335674 -7.8722417
4.3158350 1.6894605 -9.6173594
6.9427488 -0.6744477 -11.3436111
7.2829993 -0.6158802 -13.2256016
7.7196550 -0.6584830 -15.1053941
7.8822726 -0.4158879 -16.9805890
7.6216727 0.2620087 -18.8252640
7.3762770 0.9177814 -20.6415482
-4.1827195 -0.6961166 29.0202283
-7.0148803 4.1192831 21.2876628
-6.9366991 5.3307409 15.5858840
-6.9297291 5.7484139 13.7150295
-7.0901752 6.3577987 11.7960087
-7.0222907 6.6946110 9.9915461
-6.7683501 6.8122152 8.2676783
-4.9049498 5.0728848 7.0680495
-5.8828178 6.6107241 4.9472624
-4.7809565 5.7596806 3.4571151
-4.7080105 6.0853524 1.6776245
-4.2042001 5.9212270 0.0062774
-3.5957112 5.6412791 -1.6527606
-2.9192501 5.2883141 -3.3134476
-2.0281887 4.7004478 -4.9600983
-0.8844177 3.8391220 -6.6041070
0.3931926 2.8393061 -8.2746070
1.4723280 2.0669410 -10.0029693
2.3651369 1.5053680 -11.7736116
3.4066821 0.7882432 -13.5664458
5.0994913 -0.6241094 -15.3943212
5.5464815 -0.6854071 -17.2481654
5.8646233 -0.6084444 -19.0982187
6.2255600 -0.5776569 -20.9484118
6.0990257 -0.0316129 -22.7498437
5.8191234 0.6705838 -24.5097224
-8.1361144 0.8315110 29.0995138
-6.4476100 -0.8325846 28.1589774
-6.1856401 -0.6791241 26.2605071
-5.7576457 -0.7354676 24.4661636
-7.1597465 1.9528726 19.6847875
-6.7424487 2.3516279 16.0037284
-6.9328260 3.0341990 14.0025709
-6.9087791 3.4493878 12.1206364
-7.0051485 4.0052803 10.2119940
-7.0391794 4.4804382 8.3507838
-6.9732336 4.8312816 6.5436538
-6.9772944 5.2614515 4.7315322
-6.6106350 5.2496754 3.0389656
-6.1357792 5.1111034 1.3719772
-5.6798722 4.9961751 -0.3056108
-5.2225992 4.8809271 -1.9883307
-4.5119308 4.4742362 -3.6346177
-3.6890084 3.9428492 -5.2835522
-2.7255704 3.2564002 -6.9401787
-1.7249335 2.5347884 -8.6239057
-0.8839669 2.0012975 -10.3496455
-0.1176541 1.5573475 -12.1017776
0.7062859 1.0534316 -13.8725051
1.6255648 0.4484409 -15.6660509
2.9128502 -0.5583841 -17.4979163
3.4198743 -0.6943770 -19.3287788
3.7612801 -0.6471786 -21.1523968
4.1249223 -0.6246772 -22.9765572
4.4359111 -0.5451214 -24.7933653
4.4288636 -0.1223693 -26.5597109
4.1557061 0.5826650 -28.2630564
4.1129018 1.0342125 -29.9820475
-10.0724509 0.8971883 26.3916402
-8.4620629 -0.7219849 25.4035036
-8.0908257 -0.7137802 23.6044769
-7.6845989 -0.7507645 21.8252049
-7.4746662 -0.5353661 19.9397649
-7.4059032 -0.1422316 17.9935045
-7.1705049 0.0351003 16.1437686
-6.9170508 0.1877191 14.3099694
-7.1333583 0.9280127 12.2892960
-7.1715970 1.4379762 10.3706188
-7.2262179 1.9626744 8.4691472
-7.1955128 2.3763775 6.6191320
-7.2199801 2.8533030 4.7710527
-7.1995147 3.2702551 2.9563446
-7.1850544 3.6900321 1.1585551
-6.7400107 3.5855531 -0.5272859
-6.2364956 3.4120466 -2.2068386
-5.6825059 3.1801683 -3.8859695
-5.0596369 2.8689852 -5.5659698
-4.3262828 2.4305903 -7.2473512
-3.6786994 2.0976793 -8.9553734
-2.9950907 1.7261819 -10.6757607
-2.2674891 1.3074327 -12.4107079
-1.5610340 0.9175457 -14.1639846
-0.7861406 0.4529421 -15.9349333
0.3422223 -0.4116867 -17.7389546
0.9582999 -0.6836918 -19.5480336
1.3114173 -0.6547568 -21.3462875
1.6754918 -0.6384168 -23.1447643
2.0362046 -0.6184117 -24.9423526
2.4398742 -0.6465212 -26.7460201
2.7228581 -0.5401938 -28.5295626
2.6476267 -0.0387999 -30.2370423
2.3043559 0.7526076 -31.8645397
-8.3821558 -6.5542255 36.7296158
-7.5584139 -7.1448785 35.1643661
-7.0948188 -7.2323697 33.3076209
-6.6889643 -7.2397029 31.4061796
-10.5544691 -0.4264952 22.6489578
-10.5823381 0.1063563 20.6585184
-10.5306885 0.5273815 18.7353517
-10.3739318 0.8047230 16.8846593
-8.8556118 -0.7094321 15.6947486
-8.4714696 -0.7249932 13.9293751
-8.0748653 -0.7564948 12.1682302
-7.7723208 -0.6661371 10.3690120
-7.6107494 -0.3957582 8.5231572
-7.5455731 -0.0052995 6.6574277
-7.5098323 0.4182244 4.7999833
-7.4444233 0.7996498 2.9691377
-7.4033306 1.2074465 1.1488956
-7.3743688 1.6259653 -0.6563587
-7.1997277 1.8590787 -2.4159118
-6.8009042 1.8128649 -4.1289967
-6.3247597 1.6722397 -5.8337401
-5.8216314 1.5002212 -7.5417676
-5.3335933 1.3484381 -9.2586337
-4.7897626 1.1308963 -10.9789078
-4.1801854 0.8366748 -12.7064275
-3.5810023 0.5580420 -14.4466119
-2.8356013 0.1084446 -16.2011931
-1.9083591 -0.5515977 -17.9823312
-1.4534744 -0.6486387 -19.7595922
-1.1022525 -0.6232113 -21.5316709
-0.7480004 -0.6015192 -23.3032825
-0.3639645 -0.6145182 -25.0783583
-0.0037675 -0.5998349 -26.8503251
0.3999339 -0.6351645 -28.6299791
0.7393632 -0.5967032 -30.3978905
1.0279820 -0.5008530 -32.1527480
0.7557630 0.2280142 -33.7617840
0.4678623 0.9673359 -35.3378756
-10.2775892 -6.5775854 33.8597458
-9.4246775 -7.2356914 32.3365931
-9.0355246 -7.2277607 30.4540600
-8.6446497 -7.2222832 28.5727845
-10.5955481 -3.4049942 23.1481323
-10.3658053 -3.1992401 21.2619678
-10.5648797 -2.4056951 19.1516363
-10.5240121 -1.9497662 17.2003408
-10.5866888 -1.3583195 15.2196292
-10.6089262 -0.8284191 13.2836194
-10.6089467 -0.3344950 11.3805060
-10.6098236 0.1549125 9.4988711
-10.5895411 0.6106276 7.6463643
-10.4545422 0.9096290 5.8517804
-8.9285461 -0.6219106 4.4909815
-8.5587777 -0.6258346 2.7463780
-8.1686543 -0.6560897 1.0063656
-7.8314522 -0.6175965 -0.7466988
-7.6483728 -0.3815311 -2.5275900
-7.6342423 0.0677567 -4.3260534
-7.3056815 0.1127780 -6.0631491
-6.9720294 0.1509337 -7.7980188
-6.5724948 0.1059645 -9.5261223
-6.1064124 -0.0216076 -11.2526363
-5.5851125 -0.2163646 -12.9830498
-5.0205838 -0.4624053 -14.7215798
-4.5468825 -0.5940919 -16.4684984
-4.1665860 -0.6100944 -18.2166631
-3.7846922 -0.6278133 -19.9658162
-3.4287667 -0.6138654 -21.7134066
-3.0638683 -0.6108072 -23.4617377
-2.6931450 -0.6146992 -25.2110086
-2.3439774 -0.5928161 -26.9570146
-1.9495241 -0.6247713 -28.7110819
-1.6503279 -0.5440306 -30.4460672
-1.3434402 -0.4730804 -32.1799308
-2.3136820 1.0877097 -33.5766702
-1.7141785 0.8100309 -35.3597357
-10.4758105 -8.4525862 30.1323992
-10.4782761 -7.8726178 27.9833067
-10.4434655 -7.3539089 25.8849848
-10.5183453 -6.6831938 23.7425481
-10.4846676 -6.1763606 21.6938657
-10.5114796 -5.5893827 19.6345683
-10.4973905 -5.0674083 17.6227332
-10.5723919 -4.4261494 15.5906223
-10.3813445 -4.1650301 13.7081928
-10.3493527 -3.6855589 11.7694820
-10.6039837 -2.8150981 9.7386158
-10.4319604 -2.5416915 7.9009783
-10.5511635 -1.8731642 5.9777116
-10.6427319 -1.2499167 4.0915810
-10.6359587 -0.7667394 2.2591252
-10.6333573 -0.2834479 0.4461055
-10.7060919 0.2950476 -1.3629552
-10.6744349 0.7283277 -3.1279746
-10.4421175 0.8916694 -4.8425894
-8.9302447 -0.6277323 -6.3795229
-8.5288355 -0.6794129 -8.0980426
-8.2020408 -0.6335273 -9.8248401
-7.8237731 -0.6545886 -11.5472663
-7.4636023 -0.6521080 -13.2712469
-7.1137421 -0.6364211 -14.9953436
-6.7443274 -0.6456966 -16.7195323
-6.3936274 -0.6311593 -18.4433441
-6.0167004 -0.6496916 -20.1688097
-5.7082139 -0.5823892 -21.8882373
-6.2897197 1.0329444 -25.1381117
-5.8728606 0.9571115 -26.8402017
-5.2823351 0.6695330 -28.5801838
-10.6227638 -8.1001338 17.9835091
-10.5778148 -7.5999661 15.9679795
-10.6113787 -6.9919595 13.9379865
-10.5865111 -6.4755097 11.9594570
-10.6162703 -5.8869506 9.9813864
-10.6603795 -5.2849507 8.0232522
-10.5979998 -4.8408434 6.1266161
-10.6595225 -4.2275523 4.2107512
-10.4465772 -4.0054561 2.3966210
-10.4954257 -3.4217581 0.5269769
-10.6496882 -2.6990338 -1.3413345
-10.7923929 -2.0005180 -3.1775009
-10.7763350 -1.5270069 -4.9594204
-10.7566154 -1.0638407 -6.7215204
-10.5803351 -0.8174567 -8.4485008
-10.3613960 -0.6311247 -10.1623666
-10.1266605 -0.4679393 -11.8681002
-9.7610917 -0.4803462 -13.5645330
-9.3365901 -0.5704156 -15.2619334
-8.7794324 -0.8337149 -16.9672236
-7.9546585 -1.4437133 -18.6984052
-6.6029596 -2.7316517 -20.4974794
-10.5800976 -8.5942648 8.2674170
-10.6883775 -7.8715405 6.2676253
-10.6789336 -7.3290804 4.3344029
-10.7040188 -6.7430666 2.4140925
-10.6620455 -6.2605666 0.5345938
-10.5293220 -5.9136457 -1.3053607
-10.3321457 -5.6624776 -3.1191034
-10.0607064 -5.5192499 -4.9109531
-9.6263253 -5.6067760 -6.6759314
-9.1819402 -5.7072061 -8.4436581
-8.6218171 -5.9672874 -10.2071038
-7.7212345 -6.6948344 -11.9655157
-6.4888567 -7.8699185 -13.7469795
0
0
0
0
0
0
0
0
0
0
0
0
0
0
0
0
0
0
0
0
0
0
0
0
0
0
0
0
0
0
0
0
0
0
0
0
0
0
0
0
0
0
0
0
0
0
0
0
0
0
0
0
0
0
0
0
0
0
0
0
0
0
0
0
0
0
0
0
0
0
0
0
0
0
0
0
0
0
0
0
0
0
0
0
0
0
0
0
0
0
0
0
0
0
0
0
0
0
0
0
0
0
0
0
0
0
0
0
0
0
0
0
0
0
0
0
0
0
0
0
0
0
0
0
0
0
0
0
0
0
0
0
0
0
0
0
0
0
0
0
0
0
0
0
0
0
0
0
0
0
0
0
0
0
0
0
0
0
0
0
0
0
0
0
0
0
0
0
0
0
0
0
0
0
0
0
0
0
0
0
0
0
0
0
0
0
0
0
0
0
0
0
0
0
0
0
0
0
0
0
0
0
0
0
0
0
0
0
0
0
0
0
0
0
0
0
0
0
0
0
0
0
0
0
0
0
0
0
0
0
0
0
0
0
0
0
0
0
0
0
0
0
0
0
0
0
0
0
0
0
0
0
0
0
0
0
0
0
0
0
0
0
0
0
0
0
0
0
0
0
0
0
0
0
0
0
0
0
0
0
0
0
0
0
0
0
0
0
0
0
0
0
0
0
0
0
0
0
0
0
0
0
0
0
0
0
0
0
0
0
0
0
0
0
0
0
0
0
0
0
0
0
0
0
0
0
0
0
0
0
0
0
0
0
0
0
0
0
0
0
0
0
0
0
0
0
0
0
0
0
0
0
0
0
0
0
0
0
0
0
0
0
0
0
0
0
0
0
0
0
0
0
0
0
0
0
0
0
0
0
0
0
0
0
0
0
0
0
0
0
0
0
0
0
0
0
0
0
0
0
0
0
0
0
0
0
0
0
0
0
0
0
0
0
0
0
0
0
0
0
0
0
0
0
0
0
0
0
0
0
0
0
0
0
0
0
0
0
0
0
0
0
0
0
0
0
0
0
0
0
0
0
0
0
0
0
0
0
0
0
0
0
0
0
0
0
0
0
0
0
0
0
0
0
0
0
0
0
0
0
0
0
0
0
0
0
0
0
0
0
0
0
0
0
0
0
0
0
0
0
0
0
0
0
0
0
0
0
0
0
0
0
0
0
0
0
0
0
0
0
0
0
0
0
0
0
0
0
0
0
0
0
0
0
0
0
0
0
0
0
0
0
0
0
0
0
0
0
0
0
0
0
0
0
0
0
0
0
0
0
0
0
0
0
0
0
0
0
0
0
0
0
0
0
0
0
0
0
0
0
0
0
0
0
0
0
0
0
0
0
0
0
0
0
0
0
0
0
0
0
0
0
0
0
0
0
0
0
0
0
0
0
0
0
0
0
0
0
0
0
0
0
0
0
0
0
0
0
0
0
0
0
0
0
0
0
0
0
0
0
0
0
0
0
0
0
0
0
0
0
0
0
0
0
0
0
0
0
0
0
0
0
0
0
0
0
0
0
0
0
0
0
0
0
0
0
0
0
0
0
0
0
0
0
0
0
0
0
0
0
0
0
0
0
0
0
0
0
0
0
0
0
0
0
0
0
0
0
0
0
0
0
0
0
0
0
0
0
0
0
0
0
0
0
0
0
0
0
0
0
0
0
0
0
0
0
0
0
0
0
0
0
0
0
0
0
0
0
0
0
0
0
0
0
0
0
0
0
0
0
0
0
0
0
0
0
0
0
0
0
0
0
0
0
0
0
0
0
0
0
0
0
0
0
0
0
0
0
0
0
0
0
0
0
0
0
0
0
0
0
0
0
0
0
0
0
0
0
0
0
0
0
0
1 0
0
0
0
0
0
0
0
0
0
0
0
0
0
0
0
0
0
0
0
0
0
0
0
0
0
0
0
0
0
0
0
0
0
0
0
0
0
0
0
0
0
0
0
0
0
0
0
0
0
1 1
0
0
0
0
0
0
0
0
0
0
0
0
0
0
0
0
0
0
0
0
0
0
0
0
0
0
0
0
0
0
0
0
0
0
0
0
0
0
0
0
0
0
0
0
0
0
0
0
1 2
0
1 3
1 4
1 5
1 6
0
0
0
0
0
0
0
0
0
0
0
0
0
0
0
0
0
0
0
0
0
0
0
0
0
0
0
0
0
0
0
0
0
0
0
0
0
0
0
0
0
0
0
1 7
0
1 8
1 9
1 10
0
1 11
1 12
1 13
1 14
1 15
1 16
0
0
0
0
0
0
0
0
0
0
0
0
0
0
0
0
0
0
0
0
0
0
0
0
0
0
0
0
0
0
0
0
0
0
0
0
0
0
1 17
0
1 18
0
1 19
1 20
1 21
1 22
1 23
1 24
1 25
1 26
1 27
1 28
0
0
0
0
0
0
0
0
0
0
0
0
0
0
0
0
0
0
0
0
0
0
0
0
0
0
0
0
0
0
0
0
0
0
0
0
0
0
1 29
1 30
1 31
1 32
1 33
1 34
1 35
1 36
1 37
1 38
1 39
1 40
1 41
1 42
1 43
1 44
1 45
1 46
0
0
0
0
0
0
0
0
0
0
0
0
0
0
0
0
0
0
0
0
0
0
0
0
0
0
0
0
0
1 47
1 48
0
1 49
1 50
1 51
1 52
1 53
1 54
1 55
1 56
1 57
1 58
1 59
1 60
1 61
1 62
1 63
1 64
1 65
1 66
1 67
1 68
1 69
0
0
0
0
0
0
0
0
0
0
0
0
0
0
0
0
0
0
0
0
0
0
0
0
0
0
1 70
1 71
1 72
1 73
0
1 74
1 75
1 76
1 77
1 78
1 79
1 80
1 81
1 82
1 83
1 84
1 85
1 86
1 87
1 88
1 89
1 90
1 91
1 92
1 93
1 94
1 95
0
0
0
0
0
0
0
0
0
0
0
0
0
0
0
0
0
0
0
0
0
0
1 96
0
0
1 97
0
0
1 98
1 99
1 100
1 101
1 102
1 103
1 104
1 105
1 106
1 107
1 108
1 109
1 110
1 111
1 112
1 113
1 114
1 115
1 116
1 117
1 118
1 119
1 120
1 121
0
0
0
0
0
0
0
0
0
0
0
0
0
0
0
0
0
0
0
1 122
1 123
1 124
1 125
0
1 126
0
1 127
1 128
1 129
1 130
1 131
1 132
1 133
1 134
1 135
1 136
1 137
1 138
1 139
1 140
1 141
1 142
1 143
1 144
1 145
1 146
1 147
1 148
1 149
1 150
1 151
1 152
1 153
0
0
0
0
0
0
0
0
0
0
0
0
0
0
0
0
0
1 154
1 155
1 156
1 157
1 158
1 159
1 160
1 161
1 162
1 163
1 164
1 165
1 166
1 167
1 168
1 169
1 170
1 171
1 172
1 173
1 174
1 175
1 176
1 177
1 178
1 179
1 180
1 181
1 182
1 183
1 184
1 185
1 186
1 187
0
0
0
0
0
0
0
0
0
0
0
0
1 188
1 189
1 190
1 191
0
0
1 192
1 193
1 194
1 195
1 196
1 197
1 198
1 199
1 200
1 201
1 202
1 203
1 204
1 205
1 206
1 207
1 208
1 209
1 210
1 211
1 212
1 213
1 214
1 215
1 216
1 217
1 218
1 219
1 220
1 221
1 222
1 223
1 224
1 225
0
0
0
0
0
0
0
0
0
0
0
1 226
1 227
1 228
1 229
0
1 230
1 231
1 232
1 233
1 234
1 235
1 236
1 237
1 238
1 239
1 240
1 241
1 242
1 243
1 244
1 245
1 246
1 247
1 248
1 249
1 250
1 251
1 252
1 253
1 254
1 255
1 256
1 257
1 258
1 259
1 260
1 261
1 262
1 263
0
0
0
0
0
0
0
0
0
0
0
0
0
1 264
1 265
1 266
1 267
1 268
1 269
1 270
1 271
1 272
1 273
1 274
1 275
1 276
1 277
1 278
1 279
1 280
1 281
1 282
1 283
1 284
1 285
1 286
1 287
1 288
1 289
1 290
1 291
1 292
0
1 293
1 294
1 295
0
0
0
0
0
0
0
0
0
0
0
0
0
0
0
0
0
0
0
0
0
0
0
1 296
1 297
1 298
1 299
1 300
1 301
1 302
1 303
1 304
1 305
1 306
1 307
1 308
1 309
1 310
1 311
1 312
1 313
1 314
1 315
1 316
1 317
0
0
0
0
0
0
0
0
0
0
0
0
0
0
0
0
0
0
0
0
0
0
0
0
0
0
0
0
0
0
0
0
0
1 318
1 319
1 320
1 321
1 322
1 323
1 324
1 325
1 326
1 327
1 328
1 329
1 330
0
0
0
0
0
0
0
0
0
0
0
0
0
0
0
0
0
0
0
0
0
0
0
0
0
0
0
0
0
0
0
0
0
0
0
0
0
0
0
0
0
0
0
0
0
0
0
0
0
0
0
0
0
0
0
0
0
0
0
0
0
0
0
0
0
0
0
0
0
0
0
0
0
0
0
0
0
0
0
0
0
0
0
0
0
0
0
0
0
0
0
0
0
0
0
0
0
0
0
0
0
0
0
0
0
0
0
0
0
0
0
0
0
0
0
0
0
0
0
0
0
0
0
0
0
0
0
0
0
0
0
0
0
0
0
0
0
0
0
0
0
0
0
0
0
0
0
0
0
0
0
0
0
0
0
0
0
0
0
0
0
0
0
0
0
0
0
0
0
0
0
0
0
0
0
0
0
0
0
0
0
0
0
0
0
0
0
0
0
0
0
0
0
0
0
0
0
0
0
0
0
0
0
0
0
0
0
0
0
0
0
0
0
0
0
0
0
0
0
0
0
0
0
0
0
0
0
0
0
0
0
0
0
0
0
0
0
0
0
0
0
0
0
0
0
0
0
0
0
0
0
0
0
0
0
0
0
0
0
0
0
0
0
0
0
0
0
0
0
0
0
0
0
0
0
0
0
0
0
0
0
0
0
0
0
0
0
0
0
0
0
0
0
0
0
0
0
0
0
0
0
0
0
0
0
0
0
0
0
0
0
0
0
0
0
0
0
0
0
0
0
0
0
0
0
0
0
0
0
0
0
0
0
0
0
0
0
0
0
0
0
0
0
0
0
0
0
0
0
0
0
0
0
0
0
0
0
0
0
0
0
0
0
0
0
0
0
0
0
0
0
0
0
0
0
0
0
0
0
0
0
0
0
0
0
0
0
0
0
0
0
0
0
0
0
0
0
0
0
0
0
0
0
0
0
0
0
0
0
0
0
0
0
0
0
0
0
0
0
0
0
0
0
0
0
0
0
0
0
0
0
0
0
0
0
0
0
0
0
0
0
0
0
0
0
0
0
0
0
0
0
0
0
0
0
0
0
0
0
0
0
0
0
0
0
0
0
0
0
0
0
0
0
0
0
0
0
0
0
0
0
0
0
0
0
0
0
0
0
0
0
0
0
0
0
0
0
0
0
0
0
0
0
0
0
0
0
0
0
0
0
0
0
0
0
0
0
0
0
0
0
0
0
0
0
0
0
0
0
0
0
0
0
0
0
0
0
0
0
0
0
0
0
0
0
0
0
0
0
0
0
0
0
0
0
0
0
0
0
0
0
0
0
0
0
0
0
0
0
0
0
0
0
0
0
0
0
0
0
0
0
0
0
0
0
0
0
0
0
0
0
0
0
0
0
0
0
0
0
0
0
0
0
0
0
0
0
0
0
0
0
0
0
0
0
0
0
0
0
0
0
0
0
0
0
0
0
0
0
0
0
0
0
0
0
0
0
0
0
0
0
0
0
0
0
0
0
0
0
0
0
0
0
0
0
0
0
0
0
0
0
0
0
0
0
0
0
0
0
0
0
0
0
0
0
0
0
0
0
0
0
0
0
0
0
0
0
0
0
0
0
0
0
0
0
0
0
0
0
0
0
0
0
0
0
0
0
0
0
0
0
0
0
0
0
0
0
0
0
0
0
0
0
0
0
0
0
0
0
0
0
0
0
0
0
0
0
0
0
0
0
0
0
0
0
0
0
0
0
0
0
0
0
0
0
0
0
0
0
0
0
0
0
0
0
0
0
0
0
0
0
0
0
0
0
0
0
0
0
0
0
0
0
0
0
0
0
0
0
0
0
0
0
0
0
0
0
0
0
0
0
0
0
0
0
0
0
0
0
0
0
0
0
0
0
0
0
0
0
0
0
0
0
0
0
0
0
0
0
0
0
0
0
0
0
0
0
0
0
0
0
0
0
0
0
0
0
0
0
0
0
0
0
0
0
0
0
0
0
0
0
0
0
0
0
0
0
0
0
0
0
0
0
0
0
0
0
0
0
0
0
0
0
0
0
0
0
0
0
0
0
0
0
0
0
0
0
0
0
0
0
0
0
0
0
0
0
0
0
0
0
0
0
0
0
0
0
0
