ply
format ascii 1.0
obj_info num_cols 50
obj_info num_rows 50
element vertex 256
property float x
property float y
property float z
element range_grid 2500
property list uchar int vertex_indices
end_header
-3.6727796 14.0865869 22.7820891
-0.9536936 13.7331468 20.9073803
0.9240446 13.9822128 21.2770504
2.7160482 14.0270925 21.9134435
4.4991678 14.0520018 22.5757280
-2.3840681 9.4751547 19.6222293
-0.4038423 9.8864026 19.8323579
1.6582058 10.5850570 19.6790259
2.0939336 6.4676544 25.5161602
-2.3144800 11.4484804 13.7120722
-1.4350857 9.2341064 17.0048249
3.0911152 11.9545366 15.1567636
4.2691065 10.2107700 17.9399892
4.5627135 5.1643399 24.7736506
-1.5014051 10.9563092 11.5537446
0.3122312 11.1891180 11.9645916
2.0347639 11.1952022 12.6317717
3.5896911 10.6928557 13.8881593
4.8056634 9.0016619 16.5430223
5.9582542 6.7984319 19.8325797
7.2732421 4.8173793 22.8995992
8.1422878 0.5238568 28.7704588
-2.5400408 10.1653262 9.1062116
-0.6885558 10.5172500 9.3931475
1.0561841 10.6209422 9.9476068
2.7346585 10.5440496 10.7011486
4.1240459 9.5430894 12.4930041
4.8987764 6.2865352 16.8549759
6.8505077 6.8249938 16.9487300
6.8083446 -0.6253599 26.2170058
8.7482715 -0.7539822 27.1374654
9.4433623 -7.1521963 35.3834370
-3.4475365 9.6658682 6.3952687
-1.6639054 9.8809812 6.8347764
0.0966580 10.0608393 7.3077549
1.7944258 10.0852922 7.9435124
3.4332117 9.9331815 8.7690556
4.8083733 8.8930884 10.5620123
7.3383386 5.4043197 15.7600217
7.6979026 -0.6949753 23.2553130
10.4668059 -6.5318456 31.3782380
-2.5987334 9.3162454 4.2553832
-0.8228248 9.5702106 4.6549182
0.8564712 9.5885615 5.2914805
2.5815585 9.7444870 5.7854819
4.1792861 9.5195675 6.6738981
4.8655657 6.1516664 10.8719838
7.0526524 0.8520013 17.9118162
8.5628191 -0.7488884 20.3712128
10.7764614 0.7651267 19.4722094
-6.4599782 5.8431261 3.8621351
-4.3200237 6.8314783 3.5849085
-2.4601651 7.2202647 3.8747305
1.6662532 9.3119695 3.1303282
2.8820235 7.9780166 5.1124244
4.4708530 7.6739651 6.0781324
7.2477086 5.3655222 9.7718564
7.6650445 -0.2048083 16.2231447
10.7054858 -3.7736410 21.4428657
-5.7502425 5.0855976 2.1281107
-3.5101298 6.3808854 1.5911033
-1.6554711 6.8138169 1.8448949
0.0855754 6.9832076 2.3419985
1.8131920 7.1347245 2.8533611
3.4614238 7.0553455 3.5857926
5.0047480 6.6061149 4.6810522
7.2395840 2.0520433 10.5302772
8.3838393 -0.7674318 14.0578218
10.5695526 0.8822264 13.1124810
10.8201608 -7.6278740 22.5048560
-10.0890722 0.7686482 2.2119305
-4.5792072 5.4781614 -0.6056900
-2.6686708 6.0613097 -0.4733857
-0.8892969 6.3571073 -0.0888455
0.8102145 6.4596242 0.4686320
2.4826567 6.4925053 1.0890833
4.1194022 6.4125043 1.8148234
5.5227514 5.4934350 3.3357036
7.2198866 5.5486588 3.9422209
7.6403539 0.2737571 9.6805019
10.7512519 -2.1800399 13.4919514
-3.6940575 5.2573321 -2.7121902
-1.8877642 5.6394935 -2.3952319
-0.1587027 5.8507916 -1.9338736
1.5197541 5.9380382 -1.3655348
3.1662275 5.9352607 -0.7177034
4.7252463 5.6335859 0.2013985
6.2152467 5.0305987 1.4014620
7.2476721 2.4984619 4.3942341
8.2297458 -0.7239184 8.0728421
10.3534710 0.8840368 7.2611560
10.7634048 -6.3237291 14.7894592
-9.9360236 0.1967793 -2.7587700
-5.0290652 3.6778632 -4.2787051
-2.9800825 4.6568103 -4.4440553
-1.1514884 5.1462941 -4.2117533
0.5516667 5.3320208 -3.7282325
2.2131431 5.4132132 -3.1576742
3.8292160 5.3559376 -2.4679836
5.3489402 4.9490842 -1.4703710
6.7440641 4.0005990 0.0140008
7.5513145 0.4437294 3.8472716
10.7124296 -1.1393034 6.6508701
-10.3006437 0.8431629 -6.2113477
-9.2377174 -0.6201223 -4.3954843
-4.2866907 3.1239975 -6.0370506
-2.3326779 3.9165065 -6.0296130
-0.5375858 4.3534890 -5.7443957
1.1655330 4.5692844 -5.2836588
2.8099931 4.6263991 -4.6941346
4.3661798 4.3902147 -3.8586726
5.8110549 3.7094153 -2.6415766
7.1578407 2.5270606 -0.9832088
8.0956281 -0.6369547 2.4102378
10.1445871 0.8587111 1.7823581
10.7054624 -5.1627715 7.7610853
-9.9002534 -0.5961817 -7.3153652
-8.2079719 -0.6322379 -6.6191593
-5.5720118 1.6583719 -7.7054242
-3.5812470 2.5137267 -7.7168354
-1.7283709 3.0860144 -7.5204275
0.0395364 3.4788648 -7.1913265
1.7169164 3.6412342 -6.6844956
3.3256711 3.5989444 -6.0152407
4.8526102 3.2611721 -5.1047190
6.2594061 2.4131465 -3.7692861
7.4813290 0.6588198 -1.6679628
8.8805239 -0.6183370 0.0614276
10.6719192 -0.2065001 0.3821667
-9.8660921 0.9204449 -11.2196778
-8.8870621 -0.6334999 -9.4463002
-4.6783586 1.5057650 -9.7112927
-2.8408501 2.0327280 -9.4629192
-1.1063524 2.3277688 -9.0474519
0.6153237 2.6197536 -8.6342730
2.2584351 2.6980758 -8.0607575
3.8492529 2.6085191 -7.3575662
5.3531400 2.1871470 -6.3916342
6.7814470 1.3998733 -5.1280276
7.9515432 -0.6324307 -2.8519490
10.6032075 -4.3506140 1.5123479
-9.2687121 -0.0044770 -12.6289857
-7.9084331 -0.6853103 -11.5074427
-3.8457136 1.2555334 -11.5946319
-2.0909720 1.6209412 -11.2233626
-0.3924751 1.8641831 -10.7684755
1.2562526 1.9828698 -10.2253679
2.8640623 1.9818313 -9.5947504
4.4437359 1.8811334 -8.8889691
5.9021734 1.3047041 -7.8192678
7.2381950 0.1317973 -6.2816895
8.7164152 -0.6130144 -5.0586260
10.6496029 0.7283129 -5.4614231
10.6919123 -7.9090606 2.0245893
-8.5431202 -0.6160811 -14.2346459
-6.9165044 -0.6389983 -13.5784265
-4.9709426 0.1527142 -13.4782863
-3.0572919 0.9415274 -13.3882203
-1.3569808 1.2106563 -12.9472757
0.3113307 1.4148941 -12.4646177
1.9287976 1.4817716 -11.8870457
3.5062483 1.4208296 -11.2182947
5.0259223 1.1397679 -10.3881617
6.4341397 0.3764763 -9.1985577
7.8022419 -0.6850398 -7.7753626
10.4406512 -3.9444147 -4.0173421
-8.5094859 0.9376622 -17.8284717
-7.5879205 -0.6463870 -16.1877570
-5.9815923 -0.6654544 -15.5432583
-4.1325321 -0.0467478 -15.3189731
-2.3269250 0.5172742 -15.0675243
-0.6378183 0.8031138 -14.6369497
0.9904599 0.9339476 -14.1049641
2.5829550 0.9630178 -13.5047747
4.1198724 0.7997258 -12.7709366
5.5703023 0.2849882 -11.7870272
6.9416146 -0.6338936 -10.5075835
8.5572699 -0.6264141 -9.8808801
10.4760285 0.8510971 -10.3231509
-7.7233121 0.5630335 -19.4731438
-6.6510836 -0.6584547 -18.0996605
-5.0740908 -0.6974400 -17.4516427
-3.4227995 -0.5390034 -16.9286489
-1.6338754 0.0300539 -16.6723135
0.0382323 0.3111075 -16.2368906
1.6381480 0.3947273 -15.6756095
3.2002842 0.3600696 -15.0367882
4.6847853 0.0370515 -14.2032569
6.0844273 -0.6670155 -13.1054856
7.6701652 -0.6957152 -12.4620726
9.6301007 0.9948430 -13.0142850
-7.0038310 0.0688139 -21.0130701
-5.7310280 -0.6494134 -19.9729850
-4.1775017 -0.6943736 -19.3307059
-2.5966670 -0.6678938 -18.7316086
-1.0056192 -0.6085090 -18.1533268
0.6208921 -0.4317746 -17.6496555
2.1998288 -0.3906938 -17.0623127
3.7277640 -0.5242105 -16.3632710
5.2663579 -0.6364488 -15.6761023
6.8320229 -0.6558541 -15.0483416
-6.2525913 -0.3123897 -22.5899953
-4.8494656 -0.6765032 -21.7753463
-3.2972965 -0.6708306 -21.1716566
-1.7404013 -0.6510650 -20.5763805
-0.1923783 -0.6560819 -19.9665290
1.3296646 -0.7452540 -19.3055589
2.8940753 -0.7010676 -18.7251261
4.4397100 -0.7194797 -18.1064537
5.9991790 -0.6865953 -17.5197244
-6.3769202 0.9362175 -25.6185695
-5.4333455 -0.4805874 -24.2528096
-3.9776575 -0.6686101 -23.5505739
-2.4326084 -0.6252784 -22.9760304
-0.9139548 -0.6553846 -22.3601827
0.6080553 -0.6785182 -21.7479236
2.1470649 -0.6482237 -21.1665775
3.6671015 -0.6810221 -20.5482951
5.2051834 -0.6504471 -19.9675096
-5.4891705 0.9831408 -27.3196093
-4.5898572 -0.5345235 -25.9374355
-3.1249092 -0.6507897 -25.2848969
-1.6020099 -0.6120345 -24.7148783
-0.1055694 -0.6496162 -24.1034108
1.4021500 -0.6553360 -23.5091513
2.9131774 -0.6505510 -22.9207261
4.4184934 -0.6660250 -22.3207876
7.7192096 0.5104077 -21.8267645
-4.6263698 1.0255822 -28.9736380
-3.7507611 -0.5438119 -27.6030967
-2.3003337 -0.6503530 -26.9654038
-0.8000592 -0.6203194 -26.3976264
0.6859261 -0.6317752 -25.8082754
2.1801704 -0.6172832 -25.2326821
3.6670470 -0.6270281 -24.6441024
-3.8111456 1.0013801 -30.5526089
-2.9292648 -0.5434376 -29.2316461
-1.4926727 -0.6385538 -28.6090810
-0.0158681 -0.6212270 -28.0417867
1.4455539 -0.6516114 -27.4503824
2.9287388 -0.6113698 -26.8950623
-2.9967976 1.0290471 -32.1168634
-2.1022649 -0.4694500 -30.8541951
-0.6993168 -0.6089990 -30.2199211
0.7302687 -0.6801870 -29.6168424
2.2156313 -0.5745320 -29.0996038
4.1182864 1.0131295 -29.3213671
-2.2060673 1.0476411 -33.6378285
-1.3092609 -0.4329175 -32.4179513
0.0579049 -0.6292864 -31.7674487
3.3995863 0.9842303 -31.4058732
-1.4521055 1.0169411 -35.1002315
-0.4912209 -0.2628959 -34.0006747
1.3175078 0.9877960 -33.9994189
-0.7313324 0.9414337 -36.5098530
0.6581248 0.9888944 -35.9917019
0
0
0
0
0
0
0
0
0
0
0
0
0
0
0
0
0
0
0
0
0
0
0
0
0
0
0
0
0
0
0
0
0
0
0
0
0
0
0
0
0
0
0
0
0
0
0
0
0
0
0
0
0
0
0
0
0
0
0
0
0
0
0
0
0
0
0
0
0
0
0
0
0
0
0
0
0
0
0
0
0
0
0
0
0
0
0
0
0
0
0
0
0
0
0
0
0
0
0
0
0
0
0
0
0
0
0
0
0
0
0
0
0
0
0
0
0
0
0
0
0
0
0
0
0
0
0
0
0
0
0
0
0
0
0
0
0
0
0
0
0
0
0
0
0
0
0
0
0
0
0
0
0
0
0
0
0
0
0
0
0
0
0
0
0
0
0
0
0
0
0
0
0
0
0
0
0
0
0
0
0
0
0
0
0
0
0
0
0
0
0
0
0
0
0
0
0
0
0
0
0
0
0
0
0
0
0
0
0
0
0
0
0
0
0
0
0
0
0
0
0
0
0
0
0
0
0
0
0
0
0
0
0
0
0
0
0
0
0
0
0
0
0
0
0
0
0
0
0
0
0
0
0
0
0
0
0
0
0
0
0
0
0
0
0
0
0
0
0
0
0
0
0
0
0
0
0
0
0
0
0
0
0
0
0
0
0
0
0
0
0
0
0
0
0
0
0
0
0
0
0
0
0
0
0
0
0
0
0
0
0
0
0
0
0
0
0
0
0
0
0
0
0
0
0
0
0
0
0
0
0
0
0
0
0
0
0
0
0
0
0
0
0
0
0
0
0
0
0
0
0
0
0
0
0
0
0
0
0
0
0
0
0
0
0
0
0
0
0
0
0
0
0
0
0
0
0
0
0
0
0
0
0
0
0
0
0
0
0
0
0
0
0
0
0
0
0
0
0
0
0
0
0
0
0
0
0
0
0
0
0
0
0
0
0
0
0
0
0
0
0
0
0
0
0
0
0
0
0
0
0
0
0
0
0
0
0
0
0
0
0
0
0
0
0
0
0
0
0
0
0
0
0
0
0
0
0
0
0
0
0
0
0
0
0
0
0
0
0
0
0
0
0
0
0
0
0
0
0
0
0
0
0
0
0
0
0
0
0
0
0
0
0
0
0
0
0
0
0
0
0
0
0
0
0
0
0
0
0
0
0
0
0
0
0
0
0
0
0
0
0
0
0
0
0
0
0
0
0
0
0
0
0
0
0
0
0
0
0
0
0
0
0
0
0
0
0
0
0
0
0
0
0
0
0
0
0
0
0
0
0
0
0
0
0
0
0
0
0
0
0
0
0
0
0
0
0
1 0
0
0
0
0
0
0
0
0
0
0
0
0
0
0
0
0
0
0
0
0
0
0
0
0
0
0
0
0
0
0
0
0
0
0
0
0
0
0
0
0
0
0
0
0
0
0
0
0
0
0
1 1
1 2
1 3
1 4
0
0
0
0
0
0
0
0
0
0
0
0
0
0
0
0
0
0
0
0
0
0
0
0
0
0
0
0
0
0
0
0
0
0
0
0
0
0
0
0
0
0
0
0
0
0
0
0
0
0
0
0
0
0
0
0
0
0
0
0
0
0
0
0
0
0
0
0
0
0
0
0
0
0
0
0
0
0
0
0
0
0
0
0
0
0
0
0
0
0
0
0
0
0
0
1 5
1 6
1 7
1 8
0
0
0
0
0
0
0
0
0
0
0
0
0
0
0
0
0
0
0
0
0
0
0
0
0
0
0
0
0
0
0
0
0
0
0
0
0
0
0
0
0
0
0
0
0
1 9
1 10
0
1 11
1 12
1 13
0
0
0
0
0
0
0
0
0
0
0
0
0
0
0
0
0
0
0
0
0
0
0
0
0
0
0
0
0
0
0
0
0
0
0
0
0
0
0
0
0
0
0
0
1 14
1 15
1 16
1 17
1 18
1 19
1 20
1 21
0
0
0
0
0
0
0
0
0
0
0
0
0
0
0
0
0
0
0
0
0
0
0
0
0
0
0
0
0
0
0
0
0
0
0
0
0
0
0
0
0
1 22
1 23
1 24
1 25
1 26
1 27
1 28
1 29
1 30
1 31
0
0
0
0
0
0
0
0
0
0
0
0
0
0
0
0
0
0
0
0
0
0
0
0
0
0
0
0
0
0
0
0
0
0
0
0
0
0
0
1 32
1 33
1 34
1 35
1 36
1 37
0
1 38
1 39
0
1 40
0
0
0
0
0
0
0
0
0
0
0
0
0
0
0
0
0
0
0
0
0
0
0
0
0
0
0
0
0
0
0
0
0
0
0
0
0
0
0
1 41
1 42
1 43
1 44
1 45
1 46
0
1 47
1 48
1 49
0
0
0
0
0
0
0
0
0
0
0
0
0
0
0
0
0
0
0
0
0
0
0
0
0
0
0
0
0
0
0
0
0
0
0
0
0
0
1 50
1 51
1 52
0
1 53
1 54
1 55
0
1 56
1 57
0
1 58
0
0
0
0
0
0
0
0
0
0
0
0
0
0
0
0
0
0
0
0
0
0
0
0
0
0
0
0
0
0
0
0
0
0
0
0
0
0
1 59
1 60
1 61
1 62
1 63
1 64
1 65
0
1 66
1 67
1 68
1 69
0
0
0
0
0
0
0
0
0
0
0
0
0
0
0
0
0
0
0
0
0
0
0
0
0
0
0
0
0
0
0
0
0
0
0
0
1 70
0
1 71
1 72
1 73
1 74
1 75
1 76
1 77
1 78
1 79
0
1 80
0
0
0
0
0
0
0
0
0
0
0
0
0
0
0
0
0
0
0
0
0
0
0
0
0
0
0
0
0
0
0
0
0
0
0
0
0
0
0
1 81
1 82
1 83
1 84
1 85
1 86
1 87
1 88
1 89
1 90
1 91
0
0
0
0
0
0
0
0
0
0
0
0
0
0
0
0
0
0
0
0
0
0
0
0
0
0
0
0
0
0
0
0
0
0
0
0
1 92
0
1 93
1 94
1 95
1 96
1 97
1 98
1 99
1 100
1 101
0
1 102
0
0
0
0
0
0
0
0
0
0
0
0
0
0
0
0
0
0
0
0
0
0
0
0
0
0
0
0
0
0
0
0
0
0
0
0
1 103
1 104
0
1 105
1 106
1 107
1 108
1 109
1 110
1 111
1 112
1 113
1 114
1 115
0
0
0
0
0
0
0
0
0
0
0
0
0
0
0
0
0
0
0
0
0
0
0
0
0
0
0
0
0
0
0
0
0
0
0
0
1 116
1 117
1 118
1 119
1 120
1 121
1 122
1 123
1 124
1 125
1 126
1 127
1 128
0
0
0
0
0
0
0
0
0
0
0
0
0
0
0
0
0
0
0
0
0
0
0
0
0
0
0
0
0
0
0
0
0
0
0
0
1 129
1 130
0
1 131
1 132
1 133
1 134
1 135
1 136
1 137
1 138
1 139
0
1 140
0
0
0
0
0
0
0
0
0
0
0
0
0
0
0
0
0
0
0
0
0
0
0
0
0
0
0
0
0
0
0
0
0
0
0
0
1 141
1 142
0
1 143
1 144
1 145
1 146
1 147
1 148
1 149
1 150
1 151
1 152
1 153
0
0
0
0
0
0
0
0
0
0
0
0
0
0
0
0
0
0
0
0
0
0
0
0
0
0
0
0
0
0
0
0
0
0
0
0
1 154
1 155
1 156
1 157
1 158
1 159
1 160
1 161
1 162
1 163
1 164
0
1 165
0
0
0
0
0
0
0
0
0
0
0
0
0
0
0
0
0
0
0
0
0
0
0
0
0
0
0
0
0
0
0
0
0
0
0
0
1 166
1 167
1 168
1 169
1 170
1 171
1 172
1 173
1 174
1 175
1 176
1 177
1 178
0
0
0
0
0
0
0
0
0
0
0
0
0
0
0
0
0
0
0
0
0
0
0
0
0
0
0
0
0
0
0
0
0
0
0
0
0
1 179
1 180
1 181
1 182
1 183
1 184
1 185
1 186
1 187
1 188
1 189
1 190
0
0
0
0
0
0
0
0
0
0
0
0
0
0
0
0
0
0
0
0
0
0
0
0
0
0
0
0
0
0
0
0
0
0
0
0
0
0
1 191
1 192
1 193
1 194
1 195
1 196
1 197
1 198
1 199
1 200
0
0
0
0
0
0
0
0
0
0
0
0
0
0
0
0
0
0
0
0
0
0
0
0
0
0
0
0
0
0
0
0
0
0
0
0
0
0
0
0
1 201
1 202
1 203
1 204
1 205
1 206
1 207
1 208
1 209
0
0
0
0
0
0
0
0
0
0
0
0
0
0
0
0
0
0
0
0
0
0
0
0
0
0
0
0
0
0
0
0
0
0
0
0
0
0
0
0
1 210
1 211
1 212
1 213
1 214
1 215
1 216
1 217
1 218
0
0
0
0
0
0
0
0
0
0
0
0
0
0
0
0
0
0
0
0
0
0
0
0
0
0
0
0
0
0
0
0
0
0
0
0
0
0
0
0
0
1 219
1 220
1 221
1 222
1 223
1 224
1 225
1 226
0
1 227
0
0
0
0
0
0
0
0
0
0
0
0
0
0
0
0
0
0
0
0
0
0
0
0
0
0
0
0
0
0
0
0
0
0
0
0
0
0
0
0
1 228
1 229
1 230
1 231
1 232
1 233
1 234
0
0
0
0
0
0
0
0
0
0
0
0
0
0
0
0
0
0
0
0
0
0
0
0
0
0
0
0
0
0
0
0
0
0
0
0
0
0
0
0
0
0
0
1 235
1 236
1 237
1 238
1 239
1 240
0
0
0
0
0
0
0
0
0
0
0
0
0
0
0
0
0
0
0
0
0
0
0
0
0
0
0
0
0
0
0
0
0
0
0
0
0
0
0
0
0
0
0
0
1 241
1 242
1 243
1 244
1 245
1 246
0
0
0
0
0
0
0
0
0
0
0
0
0
0
0
0
0
0
0
0
0
0
0
0
0
0
0
0
0
0
0
0
0
0
0
0
0
0
0
0
0
0
0
0
1 247
1 248
1 249
0
1 250
0
0
0
0
0
0
0
0
0
0
0
0
0
0
0
0
0
0
0
0
0
0
0
0
0
0
0
0
0
0
0
0
0
0
0
0
0
0
0
0
0
0
0
0
0
1 251
1 252
1 253
0
0
0
0
0
0
0
0
0
0
0
0
0
0
0
0
0
0
0
0
0
0
0
0
0
0
0
0
0
0
0
0
0
0
0
0
0
0
0
0
0
0
0
0
0
0
0
1 254
1 255
0
0
0
0
0
0
0
0
0
0
0
0
0
0
0
0
0
0
0
0
0
0
0
0
0
0
0
0
0
0
0
0
0
0
0
0
0
0
0
0
0
0
0
0
0
0
0
0
0
0
0
0
0
0
0
0
0
0
0
0
0
0
0
0
0
0
0
0
0
0
0
0
0
0
0
0
0
0
0
0
0
0
0
0
0
0
0
0
0
0
0
0
0
0
0
0
0
0
0
0
0
0
0
0
0
0
0
0
0
0
0
0
0
0
0
0
0
0
0
0
0
0
0
0
0
0
0
0
0
0
0
0
0
0
0
0
0
0
0
0
0
0
0
0
0
0
0
0
0
0
0
0
0
0
0
0
0
0
0
0
0
0
0
0
0
0
0
0
0
0
0
0
0
0
0
0
0
0
0
0
0
0
0
0
0
0
0
0
0
0
0
0
0
0
0
0
0
0
0
0
0
0
0
0
0
0
0
0
0
0
0
0
0
0
0
0
0
0
0
0
0
0
0
0
0
0
0
0
0
0
0
0
0
0
0
0
0
0
0
0
0
0
0
0
0
0
0
0
0
0
0
0
0
0
0
0
0
0
0
0
0
0
0
0
0
0
0
0
0
0
0
0
0
0
0
0
0
0
0
0
0
0
0
0
0
0
0
0
0
0
0
0
0
0
0
0
0
0
0
0
0
0
0
0
0
0
0
0
0
0
0
0
0
0
0
0
0
0
0
0
0
0
0
0
0
0
0
0
0
0
0
0
0
0
0
0
0
0
0
0
0
0
0
0
0
0
0
0
0
0
0
0
0
0
0
0
0
0
0
0
0
0
0
0
0
0
0
0
0
0
0
0
0
0
0
0
0
0
0
0
0
0
0
0
0
0
0
0
0
0
0
0
0
0
0
0
0
0
0
0
0
0
0
0
0
0
0
0
0
0
0
0
0
0
0
0
0
0
0
0
0
0
0
0
0
0
0
0
0
0
0
0
0
