ply
format ascii 1.0
obj_info num_cols 50
obj_info num_rows 50
element vertex 393
property float x
property float y
property float z
element range_grid 2500
property list uchar int vertex_indices
end_header
10.7354928 -7.1183610 33.1367029
10.5639800 -8.8856161 34.3475622
9.8202279 -9.2004420 35.5536940
8.8132671 -8.8860615 36.7790377
10.6721881 -1.0195885 26.9849675
10.2659095 -9.3351107 32.3751983
9.6734118 -10.0100109 33.5895557
8.9717851 -10.4023959 34.7914700
7.9660121 -10.0919695 36.0077857
6.4992495 -8.7797578 37.2827570
10.7101293 0.1432100 23.2892240
10.5374356 -9.0306901 29.1331150
9.9276511 -9.6967927 30.3865360
9.3135875 -10.3218616 31.6208306
8.7114919 -10.9456924 32.8377548
8.1318256 -11.5916288 34.0370463
6.9973088 -11.0025682 35.2521541
5.1340499 -8.8883008 36.5471939
10.7091156 -8.4555332 25.7903890
10.1804033 -9.3570404 27.1029136
9.5664814 -10.0150575 28.3774057
8.9671377 -10.6760319 29.6335622
8.3654721 -11.3018066 30.8703461
7.7866134 -11.9498996 32.0898012
7.2228301 -12.6022366 33.2910568
4.5977090 -8.8965239 34.5558670
3.7006033 -8.9007073 35.8037009
2.7925795 -8.8830278 37.0526544
10.7468444 -2.6629171 19.0352878
10.4520834 -9.0390287 23.7386261
9.8303295 -9.7117773 25.0545313
9.2229912 -10.3861672 26.3515372
8.6070883 -11.0099706 27.6263585
8.0188172 -11.6668418 28.8851059
7.4556437 -12.3490694 30.1261029
6.7927787 -12.7905792 31.3433193
6.0148940 -12.9750189 32.5470127
5.2080446 -13.0932299 33.7462957
2.2347700 -8.8989802 35.0475029
1.3273978 -8.8990594 36.3067203
10.6556146 -8.5280967 20.2632891
10.0999600 -9.3990982 21.6488404
9.4733796 -10.0615964 22.9856690
8.8640806 -10.7324851 24.3044413
8.2681281 -11.4023690 25.6039871
7.6967430 -12.0958394 26.8860905
7.0628392 -12.6251662 28.1391089
6.3058526 -12.8744090 29.3652592
5.5456571 -13.1067758 30.5839533
4.7663460 -13.2914447 31.7955117
3.9971728 -13.4887588 33.0019273
0.7278813 -8.8691406 34.2780948
-0.1745551 -8.8947596 35.5482505
-1.0908699 -8.8940099 36.8190548
10.5072441 -2.1544752 12.8633573
10.3874253 -9.1053812 18.1618081
9.7467757 -9.7681228 19.5398401
9.1298367 -10.4539321 20.9020136
8.5078308 -11.0961488 22.2390287
7.9277082 -11.8014044 23.5644897
7.3258480 -12.4281868 24.8621634
6.6003249 -12.7667184 26.1185474
5.8303078 -12.9990853 27.3582652
5.0456422 -13.1923174 28.5894075
4.2747303 -13.4050247 29.8158507
3.5110765 -13.6234307 31.0364332
2.7493877 -13.8371411 32.2508229
2.0204769 -14.1037972 33.4588367
-1.7120034 -8.8756852 34.7762327
-2.6204142 -8.9046269 36.0577264
-3.6166210 -8.7783779 37.3464227
10.6206532 -8.6532972 14.5565509
10.0129950 -9.4337658 16.0015723
9.3854576 -10.1294974 17.4087759
8.7589080 -10.7942440 18.7906996
8.1641362 -11.4988019 20.1592714
7.5707180 -12.1741761 21.5034460
6.9087994 -12.6736827 22.8069134
6.1214131 -12.8903862 24.0661637
5.3365612 -13.1032163 25.3189103
4.5632975 -13.3304629 26.5667096
3.7830530 -13.5349822 27.8066529
3.0074410 -13.7403634 29.0408365
2.2518776 -13.9754502 30.2701373
1.4767992 -14.1657889 31.4919730
0.7165293 -14.3758217 32.7084680
-0.2443197 -14.2234184 33.9234684
-4.1828773 -8.9063329 35.2828685
-5.1174644 -8.9036489 36.5769790
10.4815142 -2.2142993 6.5607510
10.2968801 -9.1167211 12.3771981
9.6554078 -9.8149017 13.8291180
9.0183143 -10.4891731 15.2557057
8.4072461 -11.1899710 16.6675752
7.8087434 -11.8858362 18.0580474
7.1818561 -12.4891608 19.4133297
6.4187750 -12.7798393 20.7056017
5.6306777 -13.0067192 21.9811671
4.8383832 -13.2157362 23.2481624
4.0510394 -13.4260070 24.5093033
3.2760377 -13.6516915 25.7657470
2.5060666 -13.8780533 27.0157607
1.7337739 -14.0914472 28.2585470
0.9651470 -14.3034887 29.4951608
0.1794155 -14.4772877 30.7246851
-0.8070727 -14.2942484 31.9451232
-1.8382435 -14.0415854 33.1714322
-5.7894545 -8.8823941 34.4941614
-6.6433793 -9.0281171 35.7956270
-7.4646302 -9.2221276 37.0906852
10.5543566 -8.7087216 8.6365880
9.9214048 -9.4660956 10.1503574
9.2662595 -10.1340793 11.6197965
8.6549840 -10.8694583 13.0850368
8.0508345 -11.5858335 14.5244325
7.4471855 -12.2701660 15.9362148
6.7358355 -12.6954524 17.2796798
5.9393349 -12.9257390 18.5773708
5.1346065 -13.1296193 19.8642839
4.3293641 -13.3240756 21.1439924
3.5619651 -13.5841419 22.4263570
2.7623259 -13.7725506 23.6932168
1.9868289 -13.9986482 24.9582704
1.2063487 -14.2070198 26.2153403
0.4273803 -14.4103220 27.4660557
-0.4813640 -14.3781990 28.6989012
-1.5310579 -14.1045365 29.9242307
-2.5969340 -13.8137572 31.1576141
-3.6695134 -13.5225407 32.3999236
-4.7292170 -13.2628823 33.6508950
-6.7849862 -11.4143017 34.9478811
-9.1037163 -9.2142796 36.3141707
10.4843591 -2.3537236 0.0595421
10.1717692 -9.0529366 6.3565742
9.5165941 -9.7592861 7.8829460
8.9132525 -10.5498347 9.4111725
8.2891687 -11.2556954 10.8940222
7.6704867 -11.9401280 12.3506289
7.0266484 -12.5392938 13.7674703
6.2371657 -12.8072828 15.0963070
5.4332909 -13.0342877 16.4092190
4.6181856 -13.2292979 17.7096923
3.8340582 -13.4769022 19.0132636
3.0385285 -13.6926530 20.3047581
2.2494845 -13.9120547 21.5904587
1.4712214 -14.1427813 22.8711288
0.6763728 -14.3348454 24.1409465
-0.1608564 -14.4448885 25.3977138
-1.2160478 -14.1730998 26.6223750
-2.2831892 -13.8913304 27.8548636
-3.3637734 -13.5976345 29.0955455
-4.4228265 -13.3500446 30.3467403
-5.5173513 -13.0542389 31.6048980
-6.6059420 -12.7783150 32.8722330
-9.0784707 -10.3568300 34.1797938
10.6275381 -6.6911983 0.4155013
10.4378083 -8.6489960 2.4622269
9.8048913 -9.4482065 4.0674842
9.1600585 -10.1793751 5.6272591
8.5395411 -10.9296477 7.1707448
7.9195005 -11.6449296 8.6816887
7.2945985 -12.3161790 10.1592502
6.5441941 -12.6921236 11.5416678
5.7310811 -12.9221871 12.8780685
4.9070921 -13.1204845 14.2005977
4.1121192 -13.3677097 15.5274968
3.3096992 -13.5903982 16.8423600
2.5229636 -13.8337777 18.1543404
1.7212983 -14.0399222 19.4530838
0.9177120 -14.2346534 20.7440905
0.1207350 -14.4338094 22.0299697
-0.8974299 -14.2397952 23.2641350
-1.9770757 -13.9481468 24.4945408
-3.0627712 -13.6573928 25.7341451
-4.1304977 -13.4071010 26.9857149
-5.2313970 -13.1122667 28.2426703
-6.3383321 -12.8184219 29.5088916
-8.1171633 -11.4840711 30.7581684
10.5539522 0.1437605 -9.2630763
10.1710475 -6.8944411 -2.0628760
9.9447596 -8.7527235 0.0116255
9.3706295 -9.6974698 1.7023453
8.7821256 -10.5617631 3.3367388
8.1793154 -11.3517151 4.9205044
7.5560324 -12.0592644 6.4545459
6.8605745 -12.5802234 7.9117626
6.0391606 -12.8156916 9.2729438
5.2249138 -13.0554520 10.6282627
4.4025332 -13.2688138 11.9698343
3.5865887 -13.4858097 13.3059328
2.7917438 -13.7341140 14.6424676
1.9752565 -13.9321197 15.9613221
1.1700088 -14.1429254 17.2767343
0.3953454 -14.4003873 18.5939866
-0.5646500 -14.3228780 19.8505772
-1.6426511 -14.0454954 21.0812523
-2.7446727 -13.7382312 22.3168899
-3.8301340 -13.4700176 23.5665897
-4.9389936 -13.1736901 24.8220652
-6.0376444 -12.9044867 26.0891007
-7.3605982 -12.2925651 27.3421262
9.9989443 0.1321885 -12.1037371
9.8479238 -2.2779973 -9.5208693
9.6663985 -4.4768344 -7.1038949
9.5645647 -6.7506499 -4.7234635
9.3817073 -8.7114652 -2.5390603
8.8395447 -9.7393087 -0.7758015
8.2941398 -10.7083385 0.9340256
7.7447830 -11.6213250 2.5941321
7.1425204 -12.3771362 4.1727272
6.3491546 -12.6969326 5.5866209
5.5284541 -12.9463800 6.9690939
4.6951316 -13.1596879 8.3334584
3.8778349 -13.3953722 9.6976621
3.0709663 -13.6412547 11.0574648
2.2494186 -13.8495578 12.4005903
1.4466131 -14.0840478 13.7435451
0.6323623 -14.2887562 15.0730230
-0.2479394 -14.3690299 16.3714420
-1.3130813 -14.1264344 17.6079162
-2.4391671 -13.7898549 18.8362472
-3.5292669 -13.5261210 20.0864738
-4.6435479 -13.2327830 21.3410397
-5.7353820 -12.9863594 22.6107167
-6.9169503 -12.6073177 23.8740808
-9.7138890 -9.7367614 24.9212194
9.3946924 0.2215517 -15.0486703
8.9750319 -4.1598172 -9.9863191
8.9834028 -6.6975613 -7.4023539
8.7525607 -8.5414168 -5.1968100
8.2930873 -9.7691242 -3.3048304
7.7123176 -10.6657995 -1.5834465
7.2139036 -11.6975692 0.1620589
6.6301876 -12.4997129 1.7908376
5.8361461 -12.8297737 3.2280488
5.0043601 -13.0688364 4.6244594
4.1522678 -13.2574465 5.9973893
3.3479947 -13.5305557 7.3905207
2.5239342 -13.7548897 8.7611685
1.7219325 -14.0109877 10.1337556
0.8887569 -14.2003556 11.4812636
0.0636083 -14.3966768 12.8247671
-0.9924871 -14.1832549 14.0690206
-2.1117637 -13.8704515 15.2991251
-3.2241250 -13.5813981 16.5439441
-4.3285944 -13.3163772 17.8024138
-5.4597627 -13.0182242 19.0639708
-6.6068349 -12.7058435 20.3330005
-8.8789926 -10.6523728 21.3793541
8.7184056 0.4651176 -18.1366370
8.4672077 -1.6840851 -15.5075783
8.4004546 -4.1635778 -12.7833048
8.2708476 -6.3606873 -10.2717429
8.0854706 -8.3140034 -7.9417390
7.6646374 -9.6383755 -5.9533281
7.1641770 -10.7224395 -4.1097449
6.6650336 -11.7568220 -2.3207192
6.0757658 -12.5542151 -0.6584648
5.2723684 -12.8783636 0.7979360
4.4490194 -13.1483770 2.2244989
3.6248309 -13.4050909 3.6381074
2.8025839 -13.6546690 5.0414536
1.9835860 -13.9000031 6.4357965
1.1576523 -14.1227589 7.8157765
0.3353319 -14.3431865 9.1882826
-0.6640236 -14.2447842 10.4674792
-1.7762150 -13.9566557 11.7015171
-2.8861581 -13.6837155 12.9485637
-4.0121621 -13.3948329 14.2009252
-5.1468497 -13.1028697 15.4620397
-6.3062226 -12.7825047 16.7271847
-8.0200381 -11.6064051 17.8516593
7.7300439 -1.3271505 -18.6450565
7.5768961 -3.5974843 -15.9337175
7.4217311 -5.7415852 -13.3585527
7.3381320 -7.9365393 -10.8264677
6.9696104 -9.3890135 -8.7173645
6.4928917 -10.5359990 -6.7947974
6.0249055 -11.6460849 -4.9249395
5.4607420 -12.5060876 -3.1972615
4.6626364 -12.8565608 -1.7066846
3.8337880 -13.1311475 -0.2570941
3.0398556 -13.4609707 1.2049734
2.2369568 -13.7599944 2.6455460
1.4313500 -14.0416832 4.0707835
0.5874025 -14.2429527 5.4605614
-0.3180372 -14.3278724 6.8073715
-1.4318787 -14.0494319 8.0426412
-2.5885416 -13.7096116 9.2696137
-3.7114715 -13.4392146 10.5263185
-4.8441111 -13.1634616 11.7905675
-6.0182698 -12.8317283 13.0506607
-7.3132767 -12.3223740 14.2824957
6.8393522 -0.6371511 -22.0540133
6.6408389 -2.8107012 -19.2990965
6.5518828 -5.1203252 -16.5405233
6.4531080 -7.2881597 -13.9301555
6.2284727 -9.0718218 -11.5839826
5.7853304 -10.3027094 -9.5661809
5.3456074 -11.4816101 -7.6124324
4.8336810 -12.4588933 -5.7888244
4.0385361 -12.8306054 -4.2642793
3.1906582 -13.0838427 -2.8019471
2.3855141 -13.4071591 -1.3187876
1.5857137 -13.7267619 0.1527391
0.7887608 -14.0383569 1.6111878
-0.0211054 -14.3144536 3.0470006
-1.1039442 -14.1048276 4.3063281
-2.2350531 -13.8215485 5.5484116
-3.4003750 -13.4924254 6.7855304
-4.5423976 -13.2143970 8.0487089
-5.7060079 -12.9123685 9.3143762
-6.8961432 -12.5798719 10.5819847
-9.7255214 -9.7176715 11.2315248
5.8925537 0.1363930 -25.6185378
5.7120683 -2.0932270 -22.7332047
5.6130328 -4.3891127 -19.8822297
5.5153188 -6.5694281 -17.1696980
5.3954090 -8.5923595 -14.6125002
4.9648736 -9.8649615 -12.5124956
4.6149217 -11.2415960 -10.4010063
4.1562570 -12.3367885 -8.4717979
3.3761788 -12.7547795 -6.8984133
2.5710276 -13.1065339 -5.3686369
1.7766252 -13.4632523 -3.8478639
1.0110617 -13.8576412 -2.3224611
0.2461762 -14.2369815 -0.8157850
-0.8415745 -14.0357938 0.4513532
-1.9610909 -13.7885658 1.7080167
-3.0802734 -13.5520040 2.9768268
-4.2314458 -13.2721989 4.2387791
-5.4093051 -12.9602016 5.4995998
-6.5686972 -12.6894806 6.7836626
-8.8708828 -10.6486881 7.5564492
4.6691724 -1.1654888 -26.4058443
4.4195909 -3.1407447 -23.6430284
4.3730362 -5.4554783 -20.7455417
4.4192945 -7.8507765 -17.8778289
4.1134156 -9.4019483 -15.5561946
3.6915104 -10.6454317 -13.4506631
3.2877790 -11.8669281 -11.3971804
2.7995510 -12.8704665 -9.4935884
2.0505295 -13.3391542 -7.8838882
1.2618989 -13.7148553 -6.3332100
0.5028711 -14.1281025 -4.7775246
-0.4289433 -14.2198991 -3.3762747
-1.7992534 -13.5514390 -2.2989996
-2.9100883 -13.3490253 -1.0102216
-3.9902714 -13.2057311 0.3085170
-5.1444917 -12.9479262 1.5895106
-6.2832260 -12.7249154 2.8916698
-8.0251470 -11.5664148 3.8831819
3.4944765 0.0010387 -30.3600240
3.4322198 -2.4114808 -27.2181421
3.3068644 -4.5658240 -24.3160193
3.2470026 -6.7494118 -21.4674228
3.0967266 -8.6429721 -18.8611558
2.7334099 -10.0237379 -16.6098076
2.2929798 -11.1910857 -14.5221457
1.7672638 -12.1440760 -12.5880585
1.2910415 -13.1467397 -10.6594959
0.7299797 -13.9523285 -8.8632346
-0.0683046 -14.3031049 -7.3150097
-1.4023328 -13.7090157 -6.2227272
-2.7711361 -13.0803822 -5.1261108
-3.8807256 -12.9094683 -3.8081863
-4.9755389 -12.7697457 -2.4711871
-6.1679708 -12.4792361 -1.1901874
-8.9109959 -9.7613320 -0.8395601
2.0770316 -0.9393679 -31.4053039
2.0883186 -3.4109797 -28.1825526
2.0297126 -5.6165378 -25.2117627
1.9740700 -7.7213451 -22.3770754
1.6937938 -9.2874076 -19.9377047
1.2465268 -10.4622716 -17.7800242
0.7017588 -11.4022501 -15.7952996
0.2420872 -12.4563301 -13.7787231
-0.4388410 -13.0698561 -12.0334806
-1.4144101 -13.1425615 -10.5894888
-2.4044852 -13.1877537 -9.1614908
-3.7505646 -12.6343722 -8.0255775
-5.0250837 -12.2210349 -6.8051079
-7.7287303 -9.5211889 -6.6046888
0.6791228 0.5479023 -35.7721957
0.6891317 -1.9462927 -32.4071135
0.6256238 -4.1687821 -29.3085033
0.6804784 -6.5178095 -26.2020648
0.6371880 -8.5672990 -23.3657632
0.1303236 -9.6502173 -21.1981610
-0.5949719 -10.2828784 -19.3386244
-1.6105514 -10.3658026 -17.8226084
-2.7488055 -10.2295962 -16.4338972
-4.0876533 -9.7539027 -15.2278438
0
0
0
0
0
0
0
0
0
0
0
0
0
0
0
0
0
0
0
0
0
0
0
0
0
0
0
0
0
0
0
0
0
0
0
0
0
0
0
0
0
0
0
0
0
0
0
0
0
0
0
0
0
0
0
0
0
0
0
0
0
0
0
0
0
0
0
0
0
0
0
0
0
0
0
0
0
0
0
0
0
0
0
0
0
0
0
0
0
0
0
0
0
0
0
0
0
0
0
0
0
0
0
0
0
0
0
0
0
0
0
0
0
0
0
0
0
0
0
0
0
0
0
0
0
0
0
0
0
0
0
0
0
0
0
0
0
0
0
0
0
0
0
0
0
0
0
0
0
0
0
0
0
0
0
0
0
0
0
0
0
0
0
0
0
0
0
0
0
0
0
0
0
0
0
0
0
0
0
0
0
0
0
0
0
0
0
0
0
0
0
0
0
0
0
0
0
0
0
0
0
0
0
0
0
0
0
0
0
0
0
0
0
0
0
0
0
0
0
0
0
0
0
0
0
0
0
0
0
0
0
0
0
0
0
0
0
0
0
0
0
0
0
0
0
0
0
0
0
0
0
0
0
0
0
0
0
0
0
0
0
0
0
0
0
0
0
0
0
0
0
0
0
0
0
0
0
0
0
0
0
0
0
0
0
0
0
0
0
0
0
0
0
0
0
0
0
0
0
0
0
0
0
0
0
0
0
0
0
0
0
0
0
0
0
0
0
0
0
0
0
0
0
0
0
0
0
0
0
0
0
0
0
0
0
0
0
0
0
0
0
0
0
0
0
0
0
0
0
0
0
0
0
0
0
0
0
0
0
0
0
0
0
0
0
0
0
0
0
0
0
0
0
0
0
0
0
0
0
0
0
0
0
0
0
0
0
0
0
0
0
0
0
0
0
0
0
0
0
0
0
0
0
0
0
0
0
0
0
0
0
0
0
0
0
0
0
0
0
0
0
0
0
0
0
0
0
0
0
0
0
0
0
0
0
0
0
0
0
0
0
0
0
0
0
0
0
0
0
0
0
0
0
0
0
0
0
0
0
0
0
0
0
0
0
0
0
0
0
0
0
0
0
0
0
0
0
0
0
0
0
0
0
0
0
0
0
0
0
0
0
0
0
0
0
0
0
0
0
0
0
0
0
0
0
0
0
0
0
0
0
0
0
0
0
0
0
0
0
0
0
0
0
0
0
0
0
0
0
0
0
0
0
0
0
0
0
0
0
0
0
0
0
0
0
0
0
0
0
0
0
0
0
0
0
0
0
0
0
0
0
0
0
0
0
0
0
0
0
0
0
0
0
0
0
0
0
0
0
0
0
0
0
0
0
0
0
0
1 0
1 1
1 2
1 3
0
0
0
0
0
0
0
0
0
0
0
0
0
0
0
0
0
0
0
0
0
0
0
0
0
0
0
0
0
0
0
0
0
0
0
0
0
0
0
0
0
0
1 4
0
0
0
1 5
1 6
1 7
1 8
1 9
0
0
0
0
0
0
0
0
0
0
0
0
0
0
0
0
0
0
0
0
0
0
0
0
0
0
0
0
0
0
0
0
0
0
0
0
0
0
0
1 10
0
0
0
1 11
1 12
1 13
1 14
1 15
1 16
1 17
0
0
0
0
0
0
0
0
0
0
0
0
0
0
0
0
0
0
0
0
0
0
0
0
0
0
0
0
0
0
0
0
0
0
0
0
0
0
0
0
0
1 18
1 19
1 20
1 21
1 22
1 23
1 24
1 25
1 26
1 27
0
0
0
0
0
0
0
0
0
0
0
0
0
0
0
0
0
0
0
0
0
0
0
0
0
0
0
0
0
0
0
0
0
0
0
0
1 28
0
0
1 29
1 30
1 31
1 32
1 33
1 34
1 35
1 36
1 37
1 38
1 39
0
0
0
0
0
0
0
0
0
0
0
0
0
0
0
0
0
0
0
0
0
0
0
0
0
0
0
0
0
0
0
0
0
0
0
0
0
1 40
1 41
1 42
1 43
1 44
1 45
1 46
1 47
1 48
1 49
1 50
1 51
1 52
1 53
0
0
0
0
0
0
0
0
0
0
0
0
0
0
0
0
0
0
0
0
0
0
0
0
0
0
0
0
0
0
0
0
1 54
0
0
1 55
1 56
1 57
1 58
1 59
1 60
1 61
1 62
1 63
1 64
1 65
1 66
1 67
1 68
1 69
1 70
0
0
0
0
0
0
0
0
0
0
0
0
0
0
0
0
0
0
0
0
0
0
0
0
0
0
0
0
0
0
0
0
1 71
1 72
1 73
1 74
1 75
1 76
1 77
1 78
1 79
1 80
1 81
1 82
1 83
1 84
1 85
1 86
1 87
1 88
0
0
0
0
0
0
0
0
0
0
0
0
0
0
0
0
0
0
0
0
0
0
0
0
0
0
0
0
1 89
0
0
1 90
1 91
1 92
1 93
1 94
1 95
1 96
1 97
1 98
1 99
1 100
1 101
1 102
1 103
1 104
1 105
1 106
1 107
1 108
1 109
0
0
0
0
0
0
0
0
0
0
0
0
0
0
0
0
0
0
0
0
0
0
0
0
0
0
0
0
1 110
1 111
1 112
1 113
1 114
1 115
1 116
1 117
1 118
1 119
1 120
1 121
1 122
1 123
1 124
1 125
1 126
1 127
1 128
1 129
1 130
1 131
0
0
0
0
0
0
0
0
0
0
0
0
0
0
0
0
0
0
0
0
0
0
0
0
1 132
0
0
1 133
1 134
1 135
1 136
1 137
1 138
1 139
1 140
1 141
1 142
1 143
1 144
1 145
1 146
1 147
1 148
1 149
1 150
1 151
1 152
1 153
1 154
0
0
0
0
0
0
0
0
0
0
0
0
0
0
0
0
0
0
0
0
0
0
0
0
0
1 155
1 156
1 157
1 158
1 159
1 160
1 161
1 162
1 163
1 164
1 165
1 166
1 167
1 168
1 169
1 170
1 171
1 172
1 173
1 174
1 175
1 176
1 177
0
0
0
0
0
0
0
0
0
0
0
0
0
0
0
0
0
0
0
0
0
0
0
1 178
0
0
1 179
1 180
1 181
1 182
1 183
1 184
1 185
1 186
1 187
1 188
1 189
1 190
1 191
1 192
1 193
1 194
1 195
1 196
1 197
1 198
1 199
1 200
0
0
0
0
0
0
0
0
0
0
0
0
0
0
0
0
0
0
0
0
0
0
0
0
1 201
1 202
1 203
1 204
1 205
1 206
1 207
1 208
1 209
1 210
1 211
1 212
1 213
1 214
1 215
1 216
1 217
1 218
1 219
1 220
1 221
1 222
1 223
1 224
1 225
0
0
0
0
0
0
0
0
0
0
0
0
0
0
0
0
0
0
0
0
0
0
0
0
1 226
0
1 227
1 228
1 229
1 230
1 231
1 232
1 233
1 234
1 235
1 236
1 237
1 238
1 239
1 240
1 241
1 242
1 243
1 244
1 245
1 246
1 247
1 248
0
0
0
0
0
0
0
0
0
0
0
0
0
0
0
0
0
0
0
0
0
0
0
0
0
1 249
1 250
1 251
1 252
1 253
1 254
1 255
1 256
1 257
1 258
1 259
1 260
1 261
1 262
1 263
1 264
1 265
1 266
1 267
1 268
1 269
1 270
1 271
0
0
0
0
0
0
0
0
0
0
0
0
0
0
0
0
0
0
0
0
0
0
0
0
0
0
0
1 272
1 273
1 274
1 275
1 276
1 277
1 278
1 279
1 280
1 281
1 282
1 283
1 284
1 285
1 286
1 287
1 288
1 289
1 290
1 291
1 292
0
0
0
0
0
0
0
0
0
0
0
0
0
0
0
0
0
0
0
0
0
0
0
0
0
0
0
0
1 293
1 294
1 295
1 296
1 297
1 298
1 299
1 300
1 301
1 302
1 303
1 304
1 305
1 306
1 307
1 308
1 309
1 310
1 311
1 312
1 313
0
0
0
0
0
0
0
0
0
0
0
0
0
0
0
0
0
0
0
0
0
0
0
0
0
0
0
0
1 314
1 315
1 316
1 317
1 318
1 319
1 320
1 321
1 322
1 323
1 324
1 325
1 326
1 327
1 328
1 329
1 330
1 331
1 332
1 333
0
0
0
0
0
0
0
0
0
0
0
0
0
0
0
0
0
0
0
0
0
0
0
0
0
0
0
0
0
0
1 334
1 335
1 336
1 337
1 338
1 339
1 340
1 341
1 342
1 343
1 344
1 345
1 346
1 347
1 348
1 349
1 350
1 351
0
0
0
0
0
0
0
0
0
0
0
0
0
0
0
0
0
0
0
0
0
0
0
0
0
0
0
0
0
0
0
1 352
1 353
1 354
1 355
1 356
1 357
1 358
1 359
1 360
1 361
1 362
1 363
1 364
1 365
1 366
1 367
1 368
0
0
0
0
0
0
0
0
0
0
0
0
0
0
0
0
0
0
0
0
0
0
0
0
0
0
0
0
0
0
0
0
0
1 369
1 370
1 371
1 372
1 373
1 374
1 375
1 376
1 377
1 378
1 379
1 380
1 381
1 382
0
0
0
0
0
0
0
0
0
0
0
0
0
0
0
0
0
0
0
0
0
0
0
0
0
0
0
0
0
0
0
0
0
0
0
1 383
1 384
1 385
1 386
1 387
1 388
1 389
1 390
1 391
1 392
0
0
0
0
0
0
0
0
0
0
0
0
0
0
0
0
0
0
0
0
0
0
0
0
0
0
0
0
0
0
0
0
0
0
0
0
0
0
0
0
0
0
0
0
0
0
0
0
0
0
0
0
0
0
0
0
0
0
0
0
0
0
0
0
0
0
0
0
0
0
0
0
0
0
0
0
0
0
0
0
0
0
0
0
0
0
0
0
0
0
0
0
0
0
0
0
0
0
0
0
0
0
0
0
0
0
0
0
0
0
0
0
0
0
0
0
0
0
0
0
0
0
0
0
0
0
0
0
0
0
0
0
0
0
0
0
0
0
0
0
0
0
0
0
0
0
0
0
0
0
0
0
0
0
0
0
0
0
0
0
0
0
0
0
0
0
0
0
0
0
0
0
0
0
0
0
0
0
0
0
0
0
0
0
0
0
0
0
0
0
0
0
0
0
0
0
0
0
0
0
0
0
0
0
0
0
0
0
0
0
0
0
0
0
0
0
0
0
0
0
0
0
0
0
0
0
0
0
0
0
0
0
0
0
0
0
0
0
0
0
0
0
0
0
0
0
0
0
0
0
0
0
0
0
0
0
0
0
0
0
0
0
0
0
0
0
0
0
0
0
0
0
0
0
0
0
0
0
0
0
0
0
0
0
0
0
0
0
0
0
0
0
0
0
0
0
0
0
0
0
0
0
0
0
0
0
0
0
0
0
0
0
0
0
0
0
0
0
0
0
0
0
0
0
0
0
0
0
0
0
0
0
0
0
0
0
0
0
0
0
0
0
0
0
0
0
0
0
0
0
0
0
0
0
0
0
0
0
0
0
0
0
0
0
0
0
0
0
0
0
0
0
0
0
0
0
0
0
0
0
0
0
0
0
0
0
0
0
0
0
0
0
0
0
0
0
0
0
0
0
0
0
0
0
0
0
0
0
0
0
0
0
0
0
0
0
0
0
0
0
0
0
0
0
0
0
0
0
0
0
0
0
0
0
0
0
0
0
0
0
0
0
0
0
0
0
0
0
0
0
0
0
0
0
0
0
0
0
0
0
0
0
0
0
0
0
0
0
0
0
0
0
0
0
0
0
0
0
0
0
0
0
0
0
0
0
0
0
0
0
0
0
0
0
0
0
0
0
0
0
0
0
0
0
0
0
0
0
0
0
0
0
0
0
0
0
0
0
0
0
0
0
0
0
0
0
0
0
0
0
0
0
0
0
0
0
0
0
0
0
0
0
0
0
0
0
0
0
0
0
0
0
0
0
0
0
0
0
0
0
0
0
0
0
0
0
0
0
0
0
0
0
0
0
0
0
0
0
0
0
0
0
0
0
0
0
0
0
0
0
0
0
0
0
0
0
0
0
0
0
0
0
0
0
0
0
0
0
0
0
0
0
0
0
0
0
0
0
0
0
0
0
0
0
0
0
0
0
0
0
0
0
0
0
0
0
0
0
0
0
0
0
0
0
0
0
0
0
0
0
0
0
0
0
0
0
0
0
0
0
0
0
0
0
0
0
0
0
0
0
0
0
0
0
0
0
0
0
0
0
0
0
0
0
0
0
0
0
0
0
0
0
0
0
0
0
0
0
0
0
0
0
0
0
0
0
0
0
0
0
0
0
0
0
0
0
0
0
0
0
0
0
0
0
0
0
0
0
0
0
0
0
0
0
0
0
0
0
0
0
0
0
0
0
0
0
0
0
0
0
0
0
0
0
0
0
0
0
0
0
0
0
0
0
0
0
0
0
0
0
0
0
0
0
0
0
0
0
0
0
0
0
0
0
0
0
0
0
0
0
0
0
0
0
0
0
0
0
0
0
0
0
0
0
0
0
0
0
0
0
0
0
0
0
0
0
0
0
0
0
0
0
0
0
0
0
0
0
0
0
