ply
format ascii 1.0
obj_info num_cols 50
obj_info num_rows 50
element vertex 262
property float x
property float y
property float z
element range_grid 2500
property list uchar int vertex_indices
end_header
-5.0658717 14.1453486 23.3647706
3.4752372 13.6533479 23.0595499
1.7128936 13.5322161 22.3181932
-2.1142444 13.2163839 21.1511846
-2.0976525 11.6172464 21.1298166
-2.0776843 10.0192058 21.1059285
-4.2181657 10.0405743 18.7520943
-3.9902746 10.2779004 16.4972050
-3.6339810 10.5452516 14.0561411
-0.0098294 8.5531546 21.5482515
-4.3872683 8.2442903 20.8804526
-4.7926011 8.3511245 19.2040227
-4.7849339 8.5242542 17.1476476
-4.8264927 8.6950707 15.0699336
-4.8188424 8.8789691 12.8851625
-4.7425123 9.0796900 10.5680873
-4.6834068 9.2840791 8.1901647
-1.2450072 6.5102405 26.1977424
-4.0470468 6.3026178 26.2970315
-6.2409089 6.1641948 26.0402152
-7.1389321 6.1842818 24.8712418
-7.2343882 6.3071168 23.0739006
-7.2200402 6.4478007 21.1380358
-7.1594668 6.5988067 19.1049307
-7.1230928 6.7512293 17.0281913
-4.8120107 7.2162571 12.8740094
-4.6666169 7.3983260 10.4944371
-4.8313548 7.5429293 8.3266501
4.5144281 5.3101029 26.1252051
1.6204412 5.1372160 26.1253424
-1.1845788 4.9683907 26.1462201
-3.8284504 4.8111594 26.1345333
-6.1700590 4.6806153 25.9799824
-7.0242839 4.7022531 24.7771645
-7.2432870 4.7921239 23.0730251
-6.5898426 4.9789419 20.6268426
-6.9389914 5.0614365 18.9161107
-7.1670814 5.1599401 17.0600908
-7.0161386 5.3044014 14.8181446
-7.0594849 5.4311063 12.6779993
-7.0874268 5.5636882 10.4558046
-7.0568844 5.7075532 8.1046771
-7.2154112 5.8333717 5.8653114
6.6866353 3.9596468 22.8114993
6.5436356 4.0448720 20.9205515
4.1983334 4.1536600 16.3774180
-7.2444437 3.3729658 21.1433195
-4.6743024 3.6961912 17.0361499
-7.0321180 3.6907082 14.8273232
-7.0406799 3.7959990 12.6566806
-7.1035885 3.8995702 10.4678422
-7.1420606 4.0088607 8.1856127
-7.1042202 4.1291961 5.7517053
-7.1471503 4.2456215 3.3185666
-6.6094058 4.4244139 0.1763936
6.5192979 2.3444519 20.9251744
-6.8250129 1.8665050 20.8006420
-7.2292512 1.9131879 19.1433389
-6.7942808 2.0181923 16.7297349
-6.9926050 2.0828633 14.7874252
-7.2042004 2.1486461 12.8020861
-7.2407875 2.2289852 10.5943024
-7.2839561 2.3114735 8.3219827
-7.2990644 2.3987647 5.9472458
-7.3079941 2.4894673 3.4863187
-7.3172427 2.5832633 0.9414503
-6.7848963 2.7222805 -2.2965078
1.5016354 0.3012788 29.7533998
-1.3682720 0.2303038 29.7921012
-4.0455327 0.1651821 29.7851425
-6.7194827 0.0983152 29.8503850
-8.6086062 0.0625001 29.4447041
-9.7125249 0.0591157 28.5139532
-10.4393153 0.0719316 27.3063378
-10.6405377 0.1082029 25.6781438
-10.6471376 0.1542325 23.8517954
-10.6445662 0.2020680 21.9628890
-10.6507533 0.2509676 20.0234620
-10.5792818 0.3050216 17.9551244
-10.6213619 0.3553926 15.9229062
-10.6671318 0.4072034 13.8302016
-10.7273042 0.4599982 11.6846969
-10.7470934 0.5165614 9.4291394
-10.7017175 0.5783449 7.0300150
-10.7933220 0.6351723 4.6947568
-10.7713729 0.6999574 2.1543614
-10.7510743 0.7669601 -0.4753082
-10.7413189 0.8358156 -3.1884056
-10.6137419 0.9137609 -6.1472857
-10.3412399 -1.2983839 23.6002351
-10.6594911 -1.2802123 21.9691208
-10.6947542 -1.2546261 20.0556813
-10.6523384 -1.2263286 18.0150527
-10.6601470 -1.1983939 15.9544643
-10.6479044 -1.1690505 13.8089516
-10.6975842 -1.1403536 11.6534765
-10.7141948 -1.1098336 9.3946851
-10.6881296 -1.0771384 7.0156275
-10.6896533 -1.0440730 4.5837439
-10.7134882 -1.0104726 2.0918314
-10.7157139 -0.9750661 -0.5127834
-10.7856650 -0.9403319 -3.1308484
-10.8204404 -0.9032851 -5.8862461
-10.5097175 -0.8544901 -9.1844912
-9.7594392 -0.7903754 -13.2007995
-8.5610340 -0.7097492 -18.0148149
-6.1541742 -0.5873934 -24.7744282
8.6882443 -2.7465063 23.4327299
5.3901372 -2.7497368 23.6078652
2.3001562 -2.7527002 23.7391612
-0.3828627 -2.7549336 23.6769808
-2.8607738 -2.7568459 23.5415575
-5.7298852 -2.7597970 23.7669231
-10.6937757 -2.7643604 23.8755988
-10.6436977 -2.7606033 21.9499370
-10.5720260 -2.7566749 19.9452380
-10.3847340 -2.7523232 17.7736120
-10.5378840 -2.7487266 15.8387364
-10.5943988 -2.7447588 13.7552943
-10.4571088 -2.7401282 11.4162829
-10.6836162 -2.7363668 9.3625744
-10.4454369 -2.7311433 6.7619952
-10.6807847 -2.7271328 4.5750652
-10.4848882 -2.7216848 1.8388043
-10.7045643 -2.7173246 -0.5223287
-10.8294526 -2.7125140 -3.0739675
-10.5250899 -2.7061337 -6.2443871
-9.8039926 -2.6981114 -10.0768123
-8.6674673 -2.6883318 -14.6315980
-6.5306781 -2.6746147 -20.7733773
9.9493431 -4.4382835 24.5757211
-0.5031515 -4.3145488 25.6215252
-10.5355557 -4.2238617 23.7422023
-10.5817513 -4.2413711 21.8925541
-10.6358518 -4.2592667 19.9944328
-10.4957194 -4.2815043 17.8671029
-10.6093786 -4.2994225 15.9002184
-10.4970049 -4.3224564 13.6601389
-10.5691655 -4.3424773 11.5236201
-10.7027123 -4.3618941 9.3806474
-10.5719875 -4.3875289 6.8939484
-10.7149869 -4.4081878 4.6128786
-10.6589801 -4.4338975 2.0351345
-10.8270806 -4.4555666 -0.3776844
-10.5526142 -4.4879736 -3.3994844
-9.9462835 -4.5291539 -6.9520210
-8.8900213 -4.5823304 -11.2345327
-6.9749165 -4.6578573 -16.8541540
-2.0541814 -4.8088272 -26.8681662
10.3579291 -6.0617323 28.0796755
-0.1856308 -5.8418478 27.2226747
-2.1147558 -5.8094532 26.6995370
-10.5462926 -5.6429948 25.5757410
-10.5013106 -5.6839676 23.7080280
-10.5565527 -5.7221353 21.8655847
-10.6151118 -5.7613380 19.9712640
-10.6055228 -5.8045914 17.9595668
-10.6047527 -5.8488390 15.8920839
-10.6712867 -5.8916246 13.8218567
-10.6654286 -5.9389575 11.6155300
-10.7407946 -5.9842691 9.4179032
-10.7445000 -6.0343313 7.0738987
-10.7827486 -6.0845324 4.6869154
-10.7453384 -6.1400023 2.1335572
-10.6295627 -6.2011453 -0.6022179
-10.0659316 -6.2860393 -3.9752199
-9.0828317 -6.3945799 -8.0105398
-7.4671016 -6.5387031 -13.0409944
-3.7392641 -6.7955747 -21.1110960
-8.2402120 -6.7760500 37.1350938
-9.5096278 -6.7569788 36.3939268
-10.2422508 -6.7670318 35.3287490
-10.5842929 -6.7992063 33.9996561
-10.5584224 -6.8531187 32.3947196
-10.6419526 -6.9022602 30.8205653
-10.5868781 -6.9608709 29.1037517
-10.6034760 -7.0169387 27.3894687
-10.5864242 -7.0766632 25.5994531
-10.6015100 -7.1362081 23.7814946
-10.6019518 -7.1984518 21.8970624
-10.6133333 -7.2619159 19.9643264
-10.6813467 -7.3237543 18.0219808
-10.6701256 -7.3926610 15.9479843
-10.7253589 -7.4594217 13.8699246
-10.7371059 -7.5312575 11.6834176
-10.7400835 -7.6060684 9.4159691
-10.7511356 -7.6828452 7.0806305
-10.7769395 -7.7612223 4.6815360
-10.6686541 -7.8518782 2.0500507
-10.1473520 -7.9756599 -1.1551181
-9.2625264 -8.1306910 -4.9285836
-7.6990394 -8.3423261 -9.7104705
-4.4966716 -8.6871033 -16.8201348
-8.2902924 -8.1000051 37.1531386
-9.4781802 -8.0805903 36.3639588
-10.2984216 -8.0879651 35.3538555
-10.6137903 -8.1335273 34.0090631
-10.5982965 -8.2055753 32.4122525
-10.5878737 -8.2792501 30.7738017
-10.5972277 -8.3534691 29.1027956
-10.5930415 -8.4309044 27.3737444
-10.5713842 -8.5120132 25.5804596
-10.5854540 -8.5926071 23.7618954
-10.5607132 -8.6788519 21.8568194
-10.5380069 -8.7675634 19.8944333
-10.5130300 -8.8592248 17.8683516
-10.4167463 -8.9599744 15.7122946
-10.3483869 -9.0614869 13.5103936
-10.2240642 -9.1713247 11.1797865
-10.1144652 -9.2834551 8.7826929
-10.0207679 -9.3978855 6.3177321
-9.8950567 -9.5192507 3.7305178
-9.2404289 -9.6955487 0.4585453
-8.2510848 -9.9107291 -3.3389689
-6.6006674 -10.1992842 -8.0979104
-7.5037846 -9.4971704 36.6793589
-8.9243126 -9.4525318 36.0157991
-9.6940847 -9.4674061 34.9623479
-9.8787264 -9.5379970 33.5191566
-9.7505461 -9.6405057 31.8297548
-9.6818444 -9.7401065 30.1310218
-9.5808066 -9.8457194 28.3586537
-9.4696060 -9.9553881 26.5246627
-9.3743817 -10.0666416 24.6461394
-9.2638202 -10.1827707 22.6967400
-9.1522664 -10.3024980 20.6844431
-9.0638205 -10.4234360 18.6269496
-8.9258954 -10.5534488 16.4589949
-8.8138099 -10.6847364 14.2419025
-8.7187237 -10.8183424 11.9661997
-8.5657596 -10.9628235 9.5566689
-8.4414362 -11.1088017 7.0911795
-8.3214461 -11.2591864 4.5429774
-7.7482496 -11.4684178 1.4141724
-6.7551748 -11.7355296 -2.3122413
-5.1718029 -12.0844798 -6.8870917
-7.6508834 -10.9240654 35.2291034
-8.4974621 -10.9353979 34.1969762
-8.4686479 -11.0466600 32.5881056
-8.3274206 -11.1739585 30.8579929
-8.2617897 -11.2959782 29.1283454
-8.1129246 -11.4313311 27.2874402
-7.9984641 -11.5664412 25.4149450
-7.8828279 -11.7056408 23.4834349
-7.7504379 -11.8510403 21.4777543
-7.5776811 -12.0058861 19.3742362
-7.4360945 -12.1614844 17.2277804
-7.2628455 -12.3260098 14.9822347
-6.9803746 -12.5100856 12.5604424
-6.1079206 -12.7788931 9.4939870
-4.7967317 -13.1160017 5.8702218
-1.4861642 -13.7401869 0.0627782
-0.6925445 -14.0320609 -3.4239023
3.0401488 -13.2554311 33.8218340
-2.8533332 -12.7696650 33.9208040
-7.1499858 -12.4677508 33.3360567
-6.7636383 -12.6479414 31.4639601
-5.8355384 -12.9061586 29.1630650
-4.6739058 -13.2035093 26.6081762
-3.3732116 -13.5285499 23.8468705
-2.0624075 -13.8643337 20.9607671
-0.7884982 -14.2046244 17.9803610
0
0
0
0
0
0
0
0
0
0
0
0
0
0
0
0
0
0
0
0
0
0
0
0
0
0
0
0
0
0
0
0
0
0
0
0
0
0
0
0
0
0
0
0
0
0
0
0
0
0
0
0
0
0
0
0
0
0
0
0
0
0
0
0
0
0
0
0
0
0
0
0
0
0
0
0
0
0
0
0
0
0
0
0
0
0
0
0
0
0
0
0
0
0
0
0
0
0
0
0
0
0
0
0
0
0
0
0
0
0
0
0
0
0
0
0
0
0
0
0
0
0
0
0
0
0
0
0
0
0
0
0
0
0
0
0
0
0
0
0
0
0
0
0
0
0
0
0
0
0
0
0
0
0
0
0
0
0
0
0
0
0
0
0
0
0
0
0
0
0
0
0
0
0
0
0
0
0
0
0
0
0
0
0
0
0
0
0
0
0
0
0
0
0
0
0
0
0
0
0
0
0
0
0
0
0
0
0
0
0
0
0
0
0
0
0
0
0
0
0
0
0
0
0
0
0
0
0
0
0
0
0
0
0
0
0
0
0
0
0
0
0
0
0
0
0
0
0
0
0
0
0
0
0
0
0
0
0
0
0
0
0
0
0
0
0
0
0
0
0
0
0
0
0
0
0
0
0
0
0
0
0
0
0
0
0
0
0
0
0
0
0
0
0
0
0
0
0
0
0
0
0
0
0
0
0
0
0
0
0
0
0
0
0
0
0
0
0
0
0
0
0
0
0
0
0
0
0
0
0
0
0
0
0
0
0
0
0
0
0
0
0
0
0
0
0
0
0
0
0
0
0
0
0
0
0
0
0
0
0
0
0
0
0
0
0
0
0
0
0
0
0
0
0
0
0
0
0
0
0
0
0
0
0
0
0
0
0
0
0
0
0
0
0
0
0
0
0
0
0
0
0
0
0
0
0
0
0
0
0
0
0
0
0
0
0
0
0
0
0
0
0
0
0
0
0
0
0
0
0
0
0
0
0
0
0
0
0
0
0
0
0
0
0
0
0
0
0
0
0
0
0
0
0
0
0
0
0
0
0
0
0
0
0
0
0
0
0
0
0
0
0
0
0
0
0
0
0
0
0
0
0
0
0
0
0
0
0
0
0
0
0
0
0
0
0
0
0
0
0
0
0
0
0
0
0
0
0
0
0
0
0
0
0
0
0
0
0
0
0
0
0
0
0
0
0
0
0
0
0
0
0
0
0
0
0
0
0
0
0
0
0
0
0
0
0
0
0
0
0
0
0
0
0
0
0
0
0
0
0
0
0
0
0
0
0
0
0
0
0
0
0
0
0
0
0
0
0
0
0
0
0
0
0
0
0
0
0
0
0
0
0
0
0
0
0
0
0
0
0
0
0
0
0
0
0
0
0
0
0
0
0
0
0
0
0
0
0
0
0
0
0
0
0
0
0
0
0
0
0
0
0
0
0
0
0
0
0
0
0
0
0
0
0
0
0
0
0
0
0
0
0
0
0
0
0
0
0
0
0
0
0
0
0
0
0
0
0
0
0
0
0
0
0
0
0
0
0
0
0
0
0
0
0
0
0
0
0
0
0
0
0
0
0
0
0
0
0
0
0
0
0
0
0
0
0
0
0
0
0
0
0
0
0
0
0
0
0
0
0
0
0
0
0
0
0
0
0
0
0
0
0
0
0
0
0
0
0
0
0
0
0
0
0
0
0
0
0
0
0
0
0
0
0
0
0
0
0
0
0
0
0
0
0
0
0
1 0
0
0
0
0
0
0
0
0
0
0
0
0
0
0
0
0
0
0
0
0
0
0
0
0
0
0
0
0
0
0
0
0
0
0
0
0
0
0
0
0
0
0
0
0
0
0
1 1
1 2
0
1 3
0
0
0
0
0
0
0
0
0
0
0
0
0
0
0
0
0
0
0
0
0
0
0
0
0
0
0
0
0
0
0
0
0
0
0
0
0
0
0
0
0
0
0
0
0
0
0
0
0
1 4
0
0
0
0
0
0
0
0
0
0
0
0
0
0
0
0
0
0
0
0
0
0
0
0
0
0
0
0
0
0
0
0
0
0
0
0
0
0
0
0
0
0
0
0
0
0
0
0
0
1 5
0
1 6
1 7
1 8
0
0
0
0
0
0
0
0
0
0
0
0
0
0
0
0
0
0
0
0
0
0
0
0
0
0
0
0
0
0
0
0
0
0
0
0
0
0
0
0
0
0
0
0
1 9
0
1 10
1 11
1 12
1 13
1 14
1 15
1 16
0
0
0
0
0
0
0
0
0
0
0
0
0
0
0
0
0
0
0
0
0
0
0
0
0
0
0
0
0
0
0
0
0
0
0
0
0
0
0
1 17
1 18
1 19
1 20
1 21
1 22
1 23
1 24
1 25
1 26
1 27
0
0
0
0
0
0
0
0
0
0
0
0
0
0
0
0
0
0
0
0
0
0
0
0
0
0
0
0
0
0
0
0
0
0
0
0
0
1 28
1 29
1 30
1 31
1 32
1 33
1 34
1 35
1 36
1 37
1 38
1 39
1 40
1 41
1 42
0
0
0
0
0
0
0
0
0
0
0
0
0
0
0
0
0
0
0
0
0
0
0
0
0
0
0
0
0
0
0
0
0
0
0
0
1 43
1 44
0
0
1 45
0
1 46
1 47
0
1 48
1 49
1 50
1 51
1 52
1 53
1 54
0
0
0
0
0
0
0
0
0
0
0
0
0
0
0
0
0
0
0
0
0
0
0
0
0
0
0
0
0
0
0
0
0
0
0
1 55
0
0
0
0
1 56
1 57
1 58
1 59
1 60
1 61
1 62
1 63
1 64
1 65
1 66
0
0
0
0
0
0
0
0
0
0
0
0
0
0
0
0
0
0
0
0
0
0
0
0
0
0
0
0
0
0
0
1 67
1 68
1 69
1 70
1 71
1 72
1 73
1 74
1 75
1 76
1 77
1 78
1 79
1 80
1 81
1 82
1 83
1 84
1 85
1 86
1 87
1 88
0
0
0
0
0
0
0
0
0
0
0
0
0
0
0
0
0
0
0
0
0
0
0
0
0
0
0
0
0
0
0
0
0
0
0
0
1 89
1 90
1 91
1 92
1 93
1 94
1 95
1 96
1 97
1 98
1 99
1 100
1 101
1 102
1 103
1 104
1 105
1 106
0
0
0
0
0
0
0
0
0
0
0
0
0
0
0
0
0
0
0
0
0
0
0
0
0
1 107
1 108
1 109
1 110
1 111
1 112
0
1 113
1 114
1 115
1 116
1 117
1 118
1 119
1 120
1 121
1 122
1 123
1 124
1 125
1 126
1 127
1 128
1 129
0
0
0
0
0
0
0
0
0
0
0
0
0
0
0
0
0
0
0
0
0
0
0
0
0
1 130
0
0
1 131
0
0
0
0
1 132
1 133
1 134
1 135
1 136
1 137
1 138
1 139
1 140
1 141
1 142
1 143
1 144
1 145
1 146
1 147
1 148
0
0
0
0
0
0
0
0
0
0
0
0
0
0
0
0
0
0
0
0
0
0
0
1 149
0
0
0
1 150
1 151
0
0
0
1 152
1 153
1 154
1 155
1 156
1 157
1 158
1 159
1 160
1 161
1 162
1 163
1 164
1 165
1 166
1 167
1 168
0
0
0
0
0
0
0
0
0
0
0
0
0
0
0
0
0
0
0
0
0
0
0
0
0
1 169
1 170
1 171
1 172
1 173
1 174
1 175
1 176
1 177
1 178
1 179
1 180
1 181
1 182
1 183
1 184
1 185
1 186
1 187
1 188
1 189
1 190
1 191
1 192
0
0
0
0
0
0
0
0
0
0
0
0
0
0
0
0
0
0
0
0
0
0
0
0
0
0
1 193
1 194
1 195
1 196
1 197
1 198
1 199
1 200
1 201
1 202
1 203
1 204
1 205
1 206
1 207
1 208
1 209
1 210
1 211
1 212
1 213
1 214
0
0
0
0
0
0
0
0
0
0
0
0
0
0
0
0
0
0
0
0
0
0
0
0
0
0
0
0
1 215
1 216
1 217
1 218
1 219
1 220
1 221
1 222
1 223
1 224
1 225
1 226
1 227
1 228
1 229
1 230
1 231
1 232
1 233
1 234
1 235
0
0
0
0
0
0
0
0
0
0
0
0
0
0
0
0
0
0
0
0
0
0
0
0
0
0
0
0
0
0
1 236
1 237
1 238
1 239
1 240
1 241
1 242
1 243
1 244
1 245
1 246
1 247
1 248
1 249
1 250
1 251
1 252
0
0
0
0
0
0
0
0
0
0
0
0
0
0
0
0
0
0
0
0
0
0
0
0
0
0
0
0
0
0
1 253
0
1 254
0
1 255
1 256
1 257
1 258
1 259
1 260
1 261
0
0
0
0
0
0
0
0
0
0
0
0
0
0
0
0
0
0
0
0
0
0
0
0
0
0
0
0
0
0
0
0
0
0
0
0
0
0
0
0
0
0
0
0
0
0
0
0
0
0
0
0
0
0
0
0
0
0
0
0
0
0
0
0
0
0
0
0
0
0
0
0
0
0
0
0
0
0
0
0
0
0
0
0
0
0
0
0
0
0
0
0
0
0
0
0
0
0
0
0
0
0
0
0
0
0
0
0
0
0
0
0
0
0
0
0
0
0
0
0
0
0
0
0
0
0
0
0
0
0
0
0
0
0
0
0
0
0
0
0
0
0
0
0
0
0
0
0
0
0
0
0
0
0
0
0
0
0
0
0
0
0
0
0
0
0
0
0
0
0
0
0
0
0
0
0
0
0
0
0
0
0
0
0
0
0
0
0
0
0
0
0
0
0
0
0
0
0
0
0
0
0
0
0
0
0
0
0
0
0
0
0
0
0
0
0
0
0
0
0
0
0
0
0
0
0
0
0
0
0
0
0
0
0
0
0
0
0
0
0
0
0
0
0
0
0
0
0
0
0
0
0
0
0
0
0
0
0
0
0
0
0
0
0
0
0
0
0
0
0
0
0
0
0
0
0
0
0
0
0
0
0
0
0
0
0
0
0
0
0
0
0
0
0
0
0
0
0
0
0
0
0
0
0
0
0
0
0
0
0
0
0
0
0
0
0
0
0
0
0
0
0
0
0
0
0
0
0
0
0
0
0
0
0
0
0
0
0
0
0
0
0
0
0
0
0
0
0
0
0
0
0
0
0
0
0
0
0
0
0
0
0
0
0
0
0
0
0
0
0
0
0
0
0
0
0
0
0
0
0
0
0
0
0
0
0
0
0
0
0
0
0
0
0
0
0
0
0
0
0
0
0
0
0
0
0
0
0
0
0
0
0
0
0
0
0
0
0
0
0
0
0
0
0
0
0
0
0
0
0
0
0
0
0
0
0
0
0
0
0
0
0
0
0
0
0
0
0
0
0
0
0
0
0
0
0
0
0
0
0
0
0
0
0
0
0
0
0
0
0
0
0
0
0
0
0
0
0
0
0
0
0
0
0
0
0
0
0
0
0
0
0
0
0
0
0
0
0
0
0
0
0
0
0
0
0
0
0
0
0
0
0
0
0
0
0
0
0
0
0
0
0
0
0
0
0
0
0
0
0
0
0
0
0
0
0
0
0
0
0
0
0
0
0
0
0
0
0
0
0
0
0
0
0
0
0
0
0
0
0
0
0
0
0
0
0
0
0
0
0
0
0
0
0
0
0
0
0
0
0
0
0
0
0
0
0
0
0
0
0
0
0
0
0
0
0
0
0
0
0
0
0
0
0
0
0
0
0
0
0
0
0
0
0
0
0
0
0
0
0
0
0
0
0
0
0
0
0
0
0
0
0
0
0
0
0
0
0
0
0
0
0
0
0
0
0
0
0
0
0
0
0
0
0
0
0
0
0
0
0
0
0
0
0
0
0
0
0
0
0
0
0
0
0
0
0
0
0
0
0
0
0
0
0
0
0
0
0
0
0
0
0
0
0
0
0
0
0
0
0
0
0
0
0
0
0
0
0
0
0
0
0
0
0
0
0
0
0
0
0
0
0
0
0
0
0
0
0
0
0
0
0
0
0
0
0
0
0
0
0
0
0
0
0
0
0
0
0
0
0
0
0
0
0
0
0
0
0
0
0
0
0
0
0
0
0
0
0
0
0
0
0
0
0
0
0
0
0
0
0
0
0
0
0
0
0
0
0
0
0
0
0
0
0
0
0
0
0
0
0
0
0
0
0
0
0
0
0
0
0
0
0
0
0
0
0
0
0
0
0
0
0
0
0
0
0
0
0
0
0
0
0
