ply
format ascii 1.0
obj_info num_cols 50
obj_info num_rows 50
element vertex 339
property float x
property float y
property float z
element range_grid 2500
property list uchar int vertex_indices
end_header
4.9281416 13.5909825 22.1968853
3.1627224 11.9223743 15.4524528
2.1660178 11.9160855 20.7964204
3.1693987 10.1726060 10.1758382
3.4790964 10.1691908 11.9392422
3.6494769 10.1654606 13.6927454
3.8868064 10.1619263 15.4321896
4.0816873 10.1583116 17.1619784
3.3584395 10.1523068 18.9593220
2.1442346 10.1449475 20.8251346
1.8163037 8.3772418 4.7778587
4.5961698 8.4277818 6.6664511
4.7138106 8.4283242 8.4269593
4.5178136 8.4229691 10.1800760
4.8146556 8.4269006 11.9243275
4.8019015 8.4250066 13.6654998
4.7628424 8.4226203 15.4035961
4.8103071 8.4218721 17.1320412
4.7957138 8.4199565 18.8594243
4.6184973 8.4149678 20.5990467
4.3240296 6.6545317 3.1160699
7.0848237 6.7536102 6.7416698
7.0854956 6.7544391 8.4624583
7.0949204 6.7555744 10.1783114
7.1166488 6.7571412 11.8887447
7.1147538 6.7578725 13.5945216
7.0801766 6.7574497 15.2973075
7.0639871 6.7576731 16.9951418
7.0899455 6.7593795 18.6850976
7.0503801 6.7587752 20.3761706
7.1158998 6.7618701 22.0513389
7.1386461 6.7634558 23.7254448
6.8200863 6.7530241 25.4455266
4.9423645 4.8995683 -2.1833277
5.6572479 4.9400785 -0.3315859
6.4694578 4.9855870 1.4987745
7.1297410 5.0231518 3.2877259
7.0763777 5.0236592 5.0178441
7.1044902 5.0283831 6.7470986
7.1092962 5.0318889 8.4702446
7.1266535 5.0360348 10.1882860
7.1089697 5.0383577 11.9016356
7.0981049 5.0410251 13.6104644
7.1877216 5.0488758 15.3094070
7.2259406 5.0540578 17.0042353
7.2005864 5.0559476 18.6985372
7.2111248 5.0596812 20.3852192
7.2011964 5.0623502 22.0692526
7.1540478 5.0630935 23.7539061
7.0405637 5.0604153 25.4453838
4.3987191 3.0704612 -5.8600617
5.5116965 3.1529641 -3.9109353
6.2023487 3.2063163 -2.0515346
7.0179783 3.2681524 -0.2085677
7.1143417 3.2805551 1.5459447
7.1022643 3.2854998 3.2856005
7.0648500 3.2886947 5.0195613
7.1154716 3.2979000 6.7522962
7.1011846 3.3026465 8.4776804
7.1059676 3.3086808 10.1985419
7.1501846 3.3173897 11.9135243
7.1483963 3.3229404 13.6239332
7.1890199 3.3313653 15.3272700
4.7937814 3.1739209 17.1959115
-6.3516246 2.4214247 19.8957633
7.2131584 3.3498741 20.4105906
1.4505200 0.8829379 -34.8438289
2.7204447 1.0023328 -32.4103242
-2.3287181 0.5737881 -32.3622833
-3.1427012 0.5127850 -30.6519637
-4.0626546 0.4427221 -28.9544521
-4.8009528 0.3884833 -27.1731140
-5.5709474 0.3316018 -25.3814725
-6.3041587 0.2779920 -23.5586334
-6.9164466 0.2348955 -21.6842982
3.9652973 1.2077078 -11.4183381
5.1110808 1.3146814 -9.3806838
5.8056590 1.3827811 -7.4604897
6.5239506 1.4527744 -5.5655967
6.9785895 1.5000780 -3.7339961
7.2791041 1.5341148 -1.9400110
7.2353209 1.5386870 -0.1938149
7.2927642 1.5518761 1.5567348
7.2827412 1.5592835 3.2962315
7.3033900 1.5692800 5.0324622
7.3372204 1.5803709 6.7634273
7.3032860 1.5856748 8.4875630
7.2108096 1.5859908 10.2082066
7.1602282 1.5898514 11.9261109
7.1539714 1.5974529 13.6391280
6.8749549 1.5819400 15.3622970
6.8208655 1.5854727 17.0738711
7.1474168 1.6211577 18.7493197
7.2610004 1.6387887 20.4313161
-2.0792839 0.8589153 23.2326056
-2.2756746 0.8510673 25.0923515
-2.0112684 0.8820240 26.8834469
1.0429296 -1.0436125 -33.1174741
2.8963483 -0.8390833 -30.4851421
4.2304740 -0.6888690 -28.1066994
5.4133896 -0.5546500 -25.8312553
6.3967609 -0.4413802 -23.6659969
7.2908228 -0.3375927 -21.5672163
7.9459771 -0.2587138 -19.5723697
8.6286708 -0.1771655 -17.5981870
9.1528512 -0.1121388 -15.6921253
9.6366639 -0.0514134 -13.8185974
10.0597029 0.0029246 -11.9797831
10.3517670 0.0436792 -10.1862645
10.5604698 0.0757816 -8.4227036
10.5797773 0.0883818 -6.7020047
10.5305581 0.0939255 -4.9968874
10.5645659 0.1079684 -3.2843384
10.5500926 0.1170162 -1.5832670
10.6094746 0.1335816 0.1204051
10.5870662 0.1417576 1.8108260
10.5906300 0.1525560 3.4987421
10.6319154 0.1671657 5.1833958
10.6144072 0.1757553 6.8602200
10.6360188 0.1882951 8.5332879
10.6396306 0.1989733 10.2009670
10.6672969 0.2120615 11.8632637
10.6749055 0.2230823 13.5206894
10.6715812 0.2329657 15.1737583
10.7257476 0.2486350 16.8181848
10.7298628 0.2592078 18.4605412
10.7193530 0.2682749 20.0996352
10.7480916 0.2812731 21.7297572
10.7185631 0.2883677 23.3622572
10.7256054 0.2991201 24.9855756
10.7731351 0.3139131 26.5973059
9.9952466 0.2457691 28.3548157
0.4406050 -3.0081583 -31.4488563
2.2816102 -2.7705634 -28.8445621
3.6995689 -2.5846216 -26.4525107
4.9199908 -2.4229431 -24.1785011
5.9868058 -2.2801508 -21.9987526
6.9557661 -2.1494677 -19.8892579
7.7395387 -2.0413596 -17.8679384
8.3262823 -1.9571749 -15.9279545
8.9332988 -1.8707508 -14.0087487
9.3772275 -1.8040802 -12.1504794
9.8884872 -1.7295003 -10.2993048
10.2796993 -1.6694551 -8.4922562
10.4473489 -1.6362687 -6.7399295
10.6442430 -1.5996725 -4.9940299
10.6058447 -1.5912246 -3.2900365
10.5812080 -1.5811649 -1.5881321
10.6342946 -1.5618875 0.1170744
10.6513640 -1.5469423 1.8127977
10.6289457 -1.5367273 3.5006639
10.6346198 -1.5232114 5.1856932
10.6399253 -1.5097773 6.8657024
10.7023440 -1.4896212 8.5413855
10.6563319 -1.4823375 10.2107841
10.6670226 -1.4683814 11.8757164
10.6842177 -1.4536967 13.5353108
10.7144300 -1.4375181 15.1889129
10.6996291 -1.4266824 16.8400243
10.7332235 -1.4101869 18.4827194
10.7162380 -1.3996776 20.1249047
10.7571121 -1.3824090 21.7560740
10.6556434 -1.3818734 23.4006666
1.6023353 -4.7324318 -27.2041711
3.1747525 -4.4981101 -24.7778023
4.4157518 -4.3099927 -22.5117363
5.7500406 -4.1094814 -20.2680340
6.4921470 -3.9908298 -18.2336694
7.4502831 -3.8428027 -16.1766664
7.9909419 -3.7523710 -14.2546682
8.7152731 -3.6369980 -12.3171923
9.2663680 -3.5455989 -10.4439039
9.6633381 -3.4754800 -8.6223345
10.1119820 -3.3984762 -6.8109840
10.3670647 -3.3480488 -5.0481557
10.5767208 -3.3039320 -3.3048266
10.5659878 -3.2899068 -1.5982008
10.5332655 -3.2789111 0.1017764
10.3664529 -3.2861509 1.7874750
10.6159622 -3.2369373 3.4994369
10.5567124 -3.2296597 5.1843996
10.4000085 -3.2355918 6.8637802
10.6063500 -3.1924616 8.5476611
10.6330904 -3.1736798 10.2208396
10.4246839 -3.1866542 11.8934915
10.6153349 -3.1458640 13.5529723
10.6582540 -3.1250482 15.2095302
10.4570056 -3.1371000 16.8773457
10.5344311 -3.1117269 18.5226599
10.5542678 -3.0941410 20.1667479
10.7553785 -3.0523234 21.7837614
10.7117258 -3.0433545 23.4229819
0.9069545 -6.7204938 -25.5452134
2.6214068 -6.4343947 -23.0933059
4.0087052 -6.1996344 -20.7997489
5.3372312 -5.9745287 -18.5756993
6.2348792 -5.8165161 -16.5105003
7.1256155 -5.6599530 -14.4833450
7.9041092 -5.5210645 -12.5162996
8.4925846 -5.4117582 -10.6187518
9.1407460 -5.2935434 -8.7358250
9.5836481 -5.2071329 -6.9136432
9.9846899 -5.1273547 -5.1177478
10.3532785 -5.0527444 -3.3447035
10.5688240 -5.0017355 -1.6062771
10.6710067 -4.9681811 0.1091398
10.6318682 -4.9562884 1.8051471
10.6267829 -4.9392408 3.4996692
10.6446994 -4.9187393 5.1905162
10.6214023 -4.9045650 6.8747640
10.6631675 -4.8805468 8.5556899
10.6854155 -4.8595560 10.2305236
10.6073492 -4.8538315 11.9020353
10.6855192 -4.8244710 13.5653503
10.6778526 -4.8081709 15.2260576
10.6789976 -4.7905866 16.8816632
10.7276804 -4.7658780 18.5283547
10.7411216 -4.7465479 20.1724393
10.7226318 -4.7320792 21.8152672
10.7275512 -4.7141322 23.4508553
10.7640647 -4.6914893 25.0768326
-6.2958688 -7.2343759 29.5857548
-6.3268683 -7.2190784 31.4880186
-6.7016624 -7.2552995 33.4550895
-6.3246513 -7.1790164 35.2655987
2.1237790 -8.3804463 -21.3736188
3.6608515 -8.0934294 -19.0576435
4.9161578 -7.8554920 -16.8709187
6.0582155 -7.6375599 -14.7594514
6.8694417 -7.4768242 -12.7638605
7.7416718 -7.3060516 -10.7894929
8.3402178 -7.1824600 -8.8996718
8.9663057 -7.0544759 -7.0310460
9.4425634 -6.9523466 -5.2108168
9.8683535 -6.8590638 -3.4183960
10.2899970 -6.7667194 -1.6459311
10.5946649 -6.6944719 0.0961442
10.6404241 -6.6663256 1.8027381
10.6461515 -6.6450391 3.5004248
10.6415719 -6.6255576 5.1925735
10.6594488 -6.6023367 6.8806359
10.6737590 -6.5797831 8.5632176
10.6587108 -6.5622437 10.2406614
10.6612809 -6.5417882 11.9134146
10.6821280 -6.5183162 13.5805955
10.6801122 -6.4987512 15.2435882
10.6784375 -6.4791849 16.9018834
10.7049584 -6.4549476 18.5530336
10.7276256 -6.4314223 20.1990191
10.7013862 -6.4161415 21.8454879
10.7520405 -6.3880606 23.4776251
10.7722677 -6.3651321 25.1081401
10.6918096 -6.3590477 26.7504319
10.7361985 -6.3322033 28.3675711
5.6102326 -7.1651707 31.0206645
5.5201421 -7.1598130 32.7379934
5.4816922 -7.1459109 34.4413722
8.6364846 -6.5833300 36.9798401
3.7107343 -9.8992656 -15.3334749
5.0970900 -9.6129065 -13.1705384
6.2572279 -9.3698508 -11.1056089
7.1638748 -9.1750669 -9.1316965
7.9232424 -9.0084303 -7.2182146
8.5982858 -8.8580292 -5.3482436
9.2026401 -8.7212492 -3.5155724
9.7240502 -8.6003334 -1.7178455
10.1082387 -8.5053673 0.0441042
10.4573164 -8.4171963 1.7853249
10.6520731 -8.3580199 3.5003540
10.6626946 -8.3332844 5.1957184
10.6597138 -8.3111488 6.8854687
10.6988019 -8.2812627 8.5709268
10.6997608 -8.2585331 10.2504573
10.6939472 -8.2371237 11.9252915
10.7281869 -8.2083627 13.5939712
10.7253987 -8.1865262 15.2587931
10.7352186 -8.1624242 16.9180502
10.7463883 -8.1381412 18.5721340
10.7395310 -8.1172469 20.2230264
10.7574487 -8.0918544 21.8664565
10.7706012 -8.0674082 23.5052860
10.7856264 -8.0426864 25.1387509
10.8117670 -8.0159955 26.7652135
10.8174335 -7.9931269 28.3900268
10.8202917 -7.9708360 30.0106359
10.7858505 -7.9554215 31.6347150
10.8237819 -7.9268479 33.2384126
10.6751816 -7.9323468 34.8829946
9.1541641 -8.1876724 36.8927251
4.8164354 -11.4541881 -9.5757656
5.6550132 -11.2549874 -7.6060227
6.4247135 -11.0703967 -5.6804323
7.1022844 -10.9051161 -3.7983200
7.6943433 -10.7577220 -1.9540979
8.2576882 -10.6165614 -0.1378780
8.6866216 -10.5031456 1.6436355
9.0154376 -10.4103931 3.3994620
9.0680882 -10.3740065 5.1269022
9.0802164 -10.3459457 6.8464754
9.1305430 -10.3102205 8.5611125
9.1853834 -10.2736797 10.2691153
9.2269011 -10.2399335 11.9706849
9.3153688 -10.1967970 13.6641676
9.3870304 -10.1571669 15.3507961
9.4054879 -10.1283647 17.0340557
9.4399802 -10.0964160 18.7104806
9.5461704 -10.0501435 20.3734688
9.5587336 -10.0227909 22.0395645
9.5618446 -9.9974103 23.7018096
9.6608531 -9.9528950 25.3444859
9.7145614 -9.9175594 26.9869518
9.7075834 -9.8944443 28.6343043
9.8180651 -9.8479550 30.2534646
9.8346677 -9.8202995 31.8849412
9.8761726 -9.7877631 33.5054381
9.1561759 -9.9067334 35.3107314
0.3753516 -14.2548085 -8.4873255
0.4745466 -14.2016051 -6.5663306
0.7161889 -14.1169669 -4.6358613
0.8603111 -14.0541474 -2.7301114
0.7610406 -14.0453235 -0.8579398
6.8379101 -12.6146036 5.0298677
7.0227717 -12.5451478 6.7944084
7.2375105 -12.4693105 8.5480023
7.2684094 -12.4340249 10.2904357
7.2626559 -12.4068731 12.0276507
7.4029034 -12.3478329 13.7543637
7.4356112 -12.3124666 15.4774452
7.5032431 -12.2695711 17.1919857
7.5582569 -12.2295450 18.9004996
7.5883518 -12.1950575 20.6049322
7.6183022 -12.1606973 22.3035275
7.6832841 -12.1188187 23.9914697
7.7340404 -12.0801416 25.6746625
7.7274059 -12.0540125 27.3611826
7.7706029 -12.0171677 29.0338430
7.8419516 -11.9743350 30.6946427
7.8018856 -11.9556841 32.3727888
7.8534765 -11.9173145 34.0259799
0
0
0
0
0
0
0
0
0
0
0
0
0
0
0
0
0
0
0
0
0
0
0
0
0
0
0
0
0
0
0
0
0
0
0
0
0
0
0
0
0
0
0
0
0
0
0
0
0
0
0
0
0
0
0
0
0
0
0
0
0
0
0
0
0
0
0
0
0
0
0
0
0
0
0
0
0
0
0
0
0
0
0
0
0
0
0
0
0
0
0
0
0
0
0
0
0
0
0
0
0
0
0
0
0
0
0
0
0
0
0
0
0
0
0
0
0
0
0
0
0
0
0
0
0
0
0
0
0
0
0
0
0
0
0
0
0
0
0
0
0
0
0
0
0
0
0
0
0
0
0
0
0
0
0
0
0
0
0
0
0
0
0
0
0
0
0
0
0
0
0
0
0
0
0
0
0
0
0
0
0
0
0
0
0
0
0
0
0
0
0
0
0
0
0
0
0
0
0
0
0
0
0
0
0
0
0
0
0
0
0
0
0
0
0
0
0
0
0
0
0
0
0
0
0
0
0
0
0
0
0
0
0
0
0
0
0
0
0
0
0
0
0
0
0
0
0
0
0
0
0
0
0
0
0
0
0
0
0
0
0
0
0
0
0
0
0
0
0
0
0
0
0
0
0
0
0
0
0
0
0
0
0
0
0
0
0
0
0
0
0
0
0
0
0
0
0
0
0
0
0
0
0
0
0
0
0
0
0
0
0
0
0
0
0
0
0
0
0
0
0
0
0
0
0
0
0
0
0
0
0
0
0
0
0
0
0
0
0
0
0
0
0
0
0
0
0
0
0
0
0
0
0
0
0
0
0
0
0
0
0
0
0
0
0
0
0
0
0
0
0
0
0
0
0
0
0
0
0
0
0
0
0
0
0
0
0
0
0
0
0
0
0
0
0
0
0
0
0
0
0
0
0
0
0
0
0
0
0
0
0
0
0
0
0
0
0
0
0
0
0
0
0
0
0
0
0
0
0
0
0
0
0
0
0
0
0
0
0
0
0
0
0
0
0
0
0
0
0
0
0
0
0
0
0
0
0
0
0
0
0
0
0
0
0
0
0
0
0
0
0
0
0
0
0
0
0
0
0
0
0
0
0
0
0
0
0
0
0
0
0
0
0
0
0
0
0
0
0
0
0
0
0
0
0
0
0
0
0
0
0
0
0
0
0
0
0
0
0
0
0
0
0
0
0
0
0
0
0
0
0
0
0
0
0
0
0
0
0
0
0
0
0
0
0
0
0
0
0
0
0
0
0
0
0
0
0
0
0
0
0
0
0
0
0
0
0
0
0
0
0
0
0
0
0
0
0
0
0
0
0
0
0
0
0
0
0
0
0
0
0
0
0
0
0
0
0
0
0
0
0
0
0
0
0
0
0
0
0
0
0
0
0
0
0
0
0
0
0
0
0
0
0
0
0
0
0
0
0
0
0
0
0
0
0
0
0
0
0
0
0
0
0
0
0
0
0
0
0
0
0
0
0
0
0
0
0
0
0
0
0
0
0
0
0
0
0
0
0
0
0
0
0
0
0
0
0
0
0
0
0
0
0
0
0
0
0
0
0
0
0
0
0
0
0
0
0
0
0
0
0
0
0
0
0
0
0
0
0
0
0
0
0
0
0
0
0
0
0
0
0
0
0
0
0
0
0
0
0
0
0
0
0
0
0
0
0
0
0
0
0
0
0
0
0
0
0
0
0
0
0
0
0
0
0
0
0
0
0
0
0
0
0
0
0
0
0
0
0
0
0
0
0
0
0
0
0
0
0
0
0
0
0
0
0
0
0
0
0
0
0
0
0
0
0
0
0
0
0
0
0
0
0
0
0
0
0
0
0
0
0
0
0
0
0
0
0
0
0
0
0
0
0
0
0
0
0
0
0
0
0
0
0
0
0
0
0
0
0
0
0
0
0
0
0
0
0
0
0
0
0
0
0
0
0
0
0
0
0
0
0
0
0
0
0
0
0
0
0
0
0
0
0
0
0
0
0
0
0
0
0
0
0
0
0
0
0
1 0
0
0
0
0
0
0
0
0
0
0
0
0
0
0
0
0
0
0
0
0
0
0
0
0
0
0
0
0
0
0
0
0
0
0
0
0
0
0
0
0
0
0
0
0
0
1 1
0
0
1 2
0
0
0
0
0
0
0
0
0
0
0
0
0
0
0
0
0
0
0
0
0
0
0
0
0
0
0
0
0
0
0
0
0
0
0
0
0
0
0
0
0
0
0
1 3
1 4
1 5
1 6
1 7
1 8
1 9
0
0
0
0
0
0
0
0
0
0
0
0
0
0
0
0
0
0
0
0
0
0
0
0
0
0
0
0
0
0
0
0
0
0
0
0
0
0
0
0
1 10
1 11
1 12
1 13
1 14
1 15
1 16
1 17
1 18
1 19
0
0
0
0
0
0
0
0
0
0
0
0
0
0
0
0
0
0
0
0
0
0
0
0
0
0
0
0
0
0
0
0
0
0
0
0
0
0
0
1 20
0
1 21
1 22
1 23
1 24
1 25
1 26
1 27
1 28
1 29
1 30
1 31
1 32
0
0
0
0
0
0
0
0
0
0
0
0
0
0
0
0
0
0
0
0
0
0
0
0
0
0
0
0
0
0
0
0
0
1 33
1 34
1 35
1 36
1 37
1 38
1 39
1 40
1 41
1 42
1 43
1 44
1 45
1 46
1 47
1 48
1 49
0
0
0
0
0
0
0
0
0
0
0
0
0
0
0
0
0
0
0
0
0
0
0
0
0
0
0
0
0
0
0
1 50
1 51
1 52
1 53
1 54
1 55
1 56
1 57
1 58
1 59
1 60
1 61
1 62
1 63
1 64
1 65
0
0
0
0
0
0
0
0
0
0
0
0
0
0
0
0
0
0
0
1 66
1 67
1 68
1 69
1 70
1 71
1 72
1 73
1 74
0
0
0
1 75
1 76
1 77
1 78
1 79
1 80
1 81
1 82
1 83
1 84
1 85
1 86
1 87
1 88
1 89
1 90
1 91
1 92
1 93
1 94
1 95
1 96
0
0
0
0
0
0
0
0
0
0
0
0
0
0
0
0
0
1 97
1 98
1 99
1 100
1 101
1 102
1 103
1 104
1 105
1 106
1 107
1 108
1 109
1 110
1 111
1 112
1 113
1 114
1 115
1 116
1 117
1 118
1 119
1 120
1 121
1 122
1 123
1 124
1 125
1 126
1 127
1 128
1 129
1 130
1 131
0
0
0
0
0
0
0
0
0
0
0
0
0
0
0
0
1 132
1 133
1 134
1 135
1 136
1 137
1 138
1 139
1 140
1 141
1 142
1 143
1 144
1 145
1 146
1 147
1 148
1 149
1 150
1 151
1 152
1 153
1 154
1 155
1 156
1 157
1 158
1 159
1 160
1 161
1 162
0
0
0
0
0
0
0
0
0
0
0
0
0
0
0
0
0
0
0
0
0
1 163
1 164
1 165
1 166
1 167
1 168
1 169
1 170
1 171
1 172
1 173
1 174
1 175
1 176
1 177
1 178
1 179
1 180
1 181
1 182
1 183
1 184
1 185
1 186
1 187
1 188
1 189
1 190
1 191
0
0
0
0
0
0
0
0
0
0
0
0
0
0
0
0
0
0
0
0
0
0
1 192
1 193
1 194
1 195
1 196
1 197
1 198
1 199
1 200
1 201
1 202
1 203
1 204
1 205
1 206
1 207
1 208
1 209
1 210
1 211
1 212
1 213
1 214
1 215
1 216
1 217
1 218
1 219
1 220
1 221
1 222
1 223
1 224
0
0
0
0
0
0
0
0
0
0
0
0
0
0
0
0
0
0
0
1 225
1 226
1 227
1 228
1 229
1 230
1 231
1 232
1 233
1 234
1 235
1 236
1 237
1 238
1 239
1 240
1 241
1 242
1 243
1 244
1 245
1 246
1 247
1 248
1 249
1 250
1 251
1 252
1 253
1 254
1 255
1 256
0
1 257
0
0
0
0
0
0
0
0
0
0
0
0
0
0
0
0
0
0
0
1 258
1 259
1 260
1 261
1 262
1 263
1 264
1 265
1 266
1 267
1 268
1 269
1 270
1 271
1 272
1 273
1 274
1 275
1 276
1 277
1 278
1 279
1 280
1 281
1 282
1 283
1 284
1 285
1 286
1 287
1 288
0
0
0
0
0
0
0
0
0
0
0
0
0
0
0
0
0
0
0
0
0
0
1 289
1 290
1 291
1 292
1 293
1 294
1 295
1 296
1 297
1 298
1 299
1 300
1 301
1 302
1 303
1 304
1 305
1 306
1 307
1 308
1 309
1 310
1 311
1 312
1 313
1 314
1 315
0
0
0
0
0
0
0
0
0
0
0
0
0
0
0
0
0
0
0
0
0
0
0
0
1 316
1 317
1 318
1 319
1 320
0
0
1 321
1 322
1 323
1 324
1 325
1 326
1 327
1 328
1 329
1 330
1 331
1 332
1 333
1 334
1 335
1 336
1 337
1 338
0
0
0
0
0
0
0
0
0
0
0
0
0
0
0
0
0
0
0
0
0
0
0
0
0
0
0
0
0
0
0
0
0
0
0
0
0
0
0
0
0
0
0
0
0
0
0
0
0
0
0
0
0
0
0
0
0
0
0
0
0
0
0
0
0
0
0
0
0
0
0
0
0
0
0
0
0
0
0
0
0
0
0
0
0
0
0
0
0
0
0
0
0
0
0
0
0
0
0
0
0
0
0
0
0
0
0
0
0
0
0
0
0
0
0
0
0
0
0
0
0
0
0
0
0
0
0
0
0
0
0
0
0
0
0
0
0
0
0
0
0
0
0
0
0
0
0
0
0
0
0
0
0
0
0
0
0
0
0
0
0
0
0
0
0
0
0
0
0
0
0
0
0
0
0
0
0
0
0
0
0
0
0
0
0
0
0
0
0
0
0
0
0
0
0
0
0
0
0
0
0
0
0
0
0
0
0
0
0
0
0
0
0
0
0
0
0
0
0
0
0
0
0
0
0
0
0
0
0
0
0
0
0
0
0
0
0
0
0
0
0
0
0
0
0
0
0
0
0
0
0
0
0
0
0
0
0
0
0
0
0
0
0
0
0
0
0
0
0
0
0
0
0
0
0
0
0
0
0
0
0
0
0
0
0
0
0
0
0
0
0
0
0
0
0
0
0
0
0
0
0
0
0
0
0
0
0
0
0
0
0
0
0
0
0
0
0
0
0
0
0
0
0
0
0
0
0
0
0
0
0
0
0
0
0
0
0
0
0
0
0
0
0
0
0
0
0
0
0
0
0
0
0
0
0
0
0
0
0
0
0
0
0
0
0
0
0
0
0
0
0
0
0
0
0
0
0
0
0
0
0
0
0
0
0
0
0
0
0
0
0
0
0
0
0
0
0
0
0
0
0
0
0
0
0
0
0
0
0
0
0
0
0
0
0
0
0
0
0
0
0
0
0
0
0
0
0
0
0
0
0
0
0
0
0
0
0
0
0
0
0
0
0
0
0
0
0
0
0
0
0
0
0
0
0
0
0
0
0
0
0
0
0
0
0
0
0
0
0
0
0
0
0
0
0
0
0
0
0
0
0
0
0
0
0
0
0
0
0
0
0
0
0
0
0
0
0
0
0
0
0
0
0
0
0
0
0
0
0
0
0
0
0
0
0
0
0
0
0
0
0
0
0
0
0
0
0
0
0
0
0
0
0
0
0
0
0
0
0
0
0
0
0
0
0
0
0
0
0
0
0
0
0
0
0
0
0
0
0
0
0
0
0
0
0
0
0
0
0
0
0
0
0
0
0
0
0
0
0
0
0
0
0
0
0
0
0
0
0
0
0
0
0
0
0
0
0
0
0
0
0
0
0
0
0
0
0
0
0
0
0
0
0
0
0
0
0
0
0
0
0
0
0
0
0
0
0
0
0
0
0
0
0
0
0
0
0
0
0
0
0
0
0
0
0
0
0
0
0
0
0
0
0
0
0
0
0
0
0
0
0
0
0
0
0
0
0
0
0
0
0
0
0
0
0
0
0
0
0
0
0
0
0
0
0
0
0
0
0
0
0
0
0
0
0
0
0
0
0
0
0
0
0
0
0
0
0
0
0
0
0
0
0
0
0
0
0
0
0
0
0
0
0
0
0
0
0
0
0
0
0
0
0
0
0
0
0
0
0
0
0
0
0
0
0
0
0
0
0
0
0
0
0
0
0
0
0
0
0
0
0
0
0
0
0
0
0
0
0
0
0
0
0
0
0
0
0
0
0
0
0
0
0
0
0
0
0
0
0
0
0
0
0
0
0
0
0
0
0
0
0
0
0
0
0
0
0
0
0
0
0
0
0
0
0
0
0
0
0
0
0
0
0
0
0
0
0
0
0
0
0
0
0
0
0
0
0
0
0
0
0
0
0
0
0
0
0
0
0
0
0
0
0
0
0
