ply
format ascii 1.0
obj_info num_cols 50
obj_info num_rows 50
element vertex 339
property float x
property float y
property float z
element range_grid 2500
property list uchar int vertex_indices
end_header
0.3644941 -0.0220314 -35.7362138
1.3332139 0.1962015 -34.6314952
2.2541268 0.4882966 -33.4908346
3.0114884 1.0189404 -32.2423277
0.6756037 -0.9757382 -33.8949596
1.6231354 -0.7270562 -32.7678481
2.5712684 -0.4686423 -31.6294465
3.4956313 -0.1664223 -30.4640440
4.3817889 0.2027428 -29.2590692
5.2405538 0.6278687 -28.0169273
0.0149691 -2.1431639 -33.1569584
0.9891860 -1.9357400 -32.0437319
1.9369666 -1.6851065 -30.9049715
2.8537002 -1.3823574 -29.7346605
3.7676554 -1.0626088 -28.5474466
4.6442126 -0.6765117 -27.3181511
5.5039279 -0.2488222 -26.0565356
6.3847237 0.1680912 -24.7882540
7.1519854 0.7743277 -23.4060298
0.3705730 -3.1609203 -31.3287769
1.3211857 -2.9222743 -30.1920301
2.2433525 -2.6366945 -29.0255225
3.1876757 -2.3681261 -27.8591438
4.0549006 -1.9834537 -26.6251973
4.9428443 -1.6101228 -25.3859859
5.8025466 -1.1796605 -24.1048023
6.6272629 -0.6782783 -22.7714525
7.4695854 -0.1788263 -21.4245384
8.2406237 0.4535777 -19.9849548
0.7089874 -4.1598327 -29.4819382
1.6442438 -3.9004185 -28.3242701
2.5845806 -3.6364865 -27.1565247
3.4908924 -3.3163914 -25.9509454
4.3584127 -2.9300065 -24.6994789
5.2539552 -2.5645374 -23.4482900
6.0840145 -2.0901203 -22.1232409
6.9362032 -1.6249631 -20.7895659
7.7264619 -1.0459558 -19.3728591
8.4763571 -0.3771453 -17.8830228
9.2007819 0.3652962 -16.3263665
0.0588008 -5.3477447 -28.7494183
1.0253102 -5.1345073 -27.6111902
1.9798756 -4.8973830 -26.4536256
2.8866582 -4.5891497 -25.2495003
3.8031876 -4.2800912 -24.0355655
4.6039898 -3.8030443 -22.7141949
5.5562510 -3.5104644 -21.4888618
6.3794402 -3.0242064 -20.1357464
7.2186430 -2.5374621 -18.7676095
7.9623285 -1.8870840 -17.2793359
8.7486124 -1.2677955 -15.7918867
9.4582023 -0.4985384 -14.1845740
10.0893989 0.4352852 -12.4405416
0.4041155 -6.3621021 -26.8972572
1.3736016 -6.1512387 -25.7504193
2.2869285 -5.8619201 -24.5520057
3.2337586 -5.6024219 -23.3622559
4.0908473 -5.2154730 -22.0873812
4.9715879 -4.8422701 -20.8091140
5.8593982 -4.4613496 -19.5144405
6.6252166 -3.8935953 -18.0863748
7.4837001 -3.4296321 -16.7100099
8.2450742 -2.8015913 -15.2074797
8.9763222 -2.0967058 -13.6320441
9.6486564 -1.2649784 -11.9445357
10.2966143 -0.3504010 -10.1711321
0.7461950 -7.3753876 -25.0334980
1.6866153 -7.1283039 -23.8548589
2.6343538 -6.8796186 -22.6674797
3.5288313 -6.5532979 -21.4236028
4.3948830 -6.1759802 -20.1367100
5.3092889 -5.8447971 -18.8683591
6.1383331 -5.3836668 -17.5020331
6.9396061 -4.8623602 -16.0797553
7.7514117 -4.3303383 -14.6335861
8.4989837 -3.6790088 -13.0847400
9.2435459 -2.9897080 -11.4875271
9.9093344 -2.1444489 -9.7514232
10.4742675 -1.0961437 -7.8329618
10.6176555 0.6859381 -5.3068459
0.0709159 -8.5416526 -24.2841231
1.0617768 -8.3606638 -23.1407737
2.0201443 -8.1333379 -21.9622462
2.9487866 -7.8600530 -20.7465747
3.8335156 -7.5201540 -19.4778123
4.7386544 -7.1908592 -18.2054246
5.6138368 -6.8074515 -16.8847651
6.4227321 -6.3177945 -15.4760467
7.2711686 -5.8583497 -14.0737459
8.0345235 -5.2574289 -12.5513260
8.7689114 -4.5845881 -10.9549874
9.4311902 -3.7708909 -9.2277162
10.1524454 -3.0026414 -7.5105534
10.6219227 -1.8023894 -5.4193825
10.6046112 0.2404925 -2.5948227
0.2192159 -9.3432650 -22.2692821
1.2655094 -9.2203672 -21.1509993
2.2555019 -9.0258286 -19.9804340
3.2027805 -8.7713541 -18.7621786
4.1552795 -8.5119711 -17.5321710
5.0583799 -8.1785791 -16.2402654
5.9342410 -7.7945745 -14.9001410
6.7445951 -7.3058843 -13.4685315
7.5572444 -6.7964615 -12.0050618
8.3078178 -6.1756297 -10.4373570
9.0612655 -5.5270679 -8.8272150
9.7225496 -4.7101032 -7.0580121
10.3165793 -3.7483962 -5.1413321
10.6076302 -2.2674002 -2.7510741
10.6123261 -0.2490343 0.1537073
0.3099916 -10.0878696 -20.1857916
1.3834211 -9.9881610 -19.0715101
2.3835873 -9.7985974 -17.8896764
3.3974604 -9.6170362 -16.7073945
4.3448779 -9.3462420 -15.4523573
5.2882609 -9.0579651 -14.1749779
6.1775785 -8.6870978 -12.8235599
7.0314254 -8.2520093 -11.4086572
7.8315571 -7.7235266 -9.9033498
8.6131695 -7.1429247 -8.3372797
9.3143978 -6.4190106 -6.6306478
9.9613027 -5.5780650 -4.7990417
10.5599418 -4.6195175 -2.8361620
10.5418890 -2.6654288 0.0506887
10.6176073 -0.7459473 2.9705246
-1.2851429 -10.2799053 -18.7275034
0.4055096 -10.8466387 -18.0762712
1.4790885 -10.7391207 -16.9447715
2.5479713 -10.6214749 -15.8019416
3.5442469 -10.4128035 -14.5846439
4.5146868 -10.1634426 -13.3280990
5.4327705 -9.8377954 -12.0014987
6.3369007 -9.4790348 -10.6365932
7.2374131 -9.0981468 -9.2409549
8.0937339 -8.6396038 -7.7658095
8.8787398 -8.0605406 -6.1697272
9.5598202 -7.3059466 -4.3975601
10.2166478 -6.4760090 -2.5314895
10.6808410 -5.3162501 -0.3321800
10.5230817 -3.1477412 2.8568224
10.6365695 -1.2758748 5.8343116
7.1852810 6.4378428 14.5766481
4.5525448 13.2732450 22.7066120
-1.2010030 -11.0502694 -16.5724764
0.5021005 -11.6156134 -15.9374213
1.5960334 -11.5229809 -14.8055496
2.6827452 -11.4179935 -13.6605528
3.7009075 -11.2281021 -12.4423951
4.6653753 -10.9652715 -11.1567098
5.5636291 -10.6090740 -9.7823183
6.4262237 -10.1911145 -8.3419192
7.3299480 -9.8054496 -6.9157952
8.1947826 -9.3491934 -5.4125466
9.0474764 -8.8530074 -3.8567994
9.7992190 -8.1906717 -2.1280023
10.4430728 -7.3387938 -0.1952419
10.6381299 -5.7828245 2.4519516
10.5444540 -3.7030510 5.6712821
10.6937947 -1.8768723 8.7065420
10.6950987 0.2968351 12.1605816
-1.0029274 -11.9512206 -14.4822895
0.6214787 -12.4185358 -13.7877151
1.6960373 -12.2968868 -12.6205012
2.7921863 -12.1942698 -11.4651193
3.8570960 -12.0508223 -10.2707781
4.7833403 -11.7365299 -8.9205808
5.6446666 -11.3287002 -7.4751490
6.5229636 -10.9222009 -6.0166254
7.3898167 -10.4809911 -4.5113772
8.2398427 -9.9954117 -2.9483805
9.0758655 -9.4657784 -1.3256124
9.9371143 -8.9424490 0.3095080
10.6270061 -8.1484985 2.2349804
10.6456815 -6.3356724 5.2301488
10.6017133 -4.3240053 8.4956063
10.5505297 -2.1809022 11.9705093
10.6625271 -0.1643262 15.3844370
-0.7619372 -12.9043115 -12.4068713
0.7209774 -13.2090740 -11.5897868
1.7895653 -13.0731598 -10.3967416
2.8957744 -12.9732794 -9.2310695
3.8214551 -12.6620803 -7.8687675
4.8155353 -12.4165096 -6.5564281
5.7250396 -12.0577440 -5.1278452
6.5697242 -11.6017875 -3.5924329
7.4148672 -11.1235748 -2.0187811
8.2430899 -10.5989463 -0.3814740
9.0778867 -10.0553865 1.2939276
9.8993344 -9.4642365 3.0381956
10.5904541 -8.6578572 5.0309351
10.6694213 -6.9244189 8.0481927
10.6255160 -4.9070436 11.4374099
10.6825475 -2.9215295 14.8633486
10.7063707 -0.7597264 18.5590122
-2.8845681 -12.6851566 -10.3667831
-0.5542950 -13.8290189 -10.2803160
0.8044052 -13.9922397 -9.3440391
1.6688050 -13.6272470 -7.9238844
2.4994215 -13.2084413 -6.4395099
3.4813267 -12.9417304 -5.0863982
4.5874842 -12.8064733 -3.8525917
5.6453825 -12.6073735 -2.5499610
6.5706137 -12.2370643 -1.0656863
7.3850963 -11.7099174 0.5946928
8.2259294 -11.1891200 2.2676302
8.9816867 -10.5288628 4.1092256
9.6414714 -9.7030252 6.1556040
10.4291685 -9.0081472 8.0868416
10.6668393 -7.4882635 10.9737286
10.6704977 -5.5340870 14.4136760
10.4951102 -3.1889181 18.3800242
10.7016824 -1.2920447 21.9018927
-3.4657682 -12.8454567 -7.4523073
0.3850116 -14.2592011 -6.5581422
1.2412934 -13.8685987 -5.0761774
2.1001057 -13.4630460 -3.5647226
3.1494862 -13.2520684 -2.2358254
4.2580475 -13.0988748 -0.9588139
5.3354993 -12.9016577 0.3703138
6.4084393 -12.6891386 1.7232304
7.3384193 -12.2893060 3.2883553
8.0646117 -11.6104360 5.1778660
8.7496617 -10.8415216 7.1942227
9.4147831 -10.0034479 9.3185135
10.2056926 -9.2905501 11.3282322
10.7190160 -8.1433270 13.8785295
10.6787959 -6.1205307 17.5240503
10.5792920 -3.8830244 21.5069888
10.3696155 -1.3312785 25.9626789
-4.1541900 -12.9270702 -4.3460437
-2.4959471 -13.3144975 -3.5828157
-0.2496941 -14.3269605 -3.4678240
0.7716756 -14.0893491 -2.1003556
1.7118042 -13.7529674 -0.6199344
2.7929421 -13.5568764 0.7231192
3.8963481 -13.3765764 2.0564709
4.9721183 -13.1552887 3.4421685
6.0090824 -12.8766301 4.9010238
7.0394771 -12.5755210 6.3962663
7.8016835 -11.9223436 8.3133987
8.4997112 -11.1509950 10.3954052
9.2015576 -10.3415395 12.5526543
9.9619169 -9.5651340 14.7003190
10.6698504 -8.6692432 17.0259174
10.6991914 -6.7387066 20.6900004
10.7129235 -4.6634254 24.6127662
-4.9133191 -12.9705810 -1.0692563
-3.2066567 -13.3743335 -0.3201038
-1.4433623 -13.8536380 0.3326289
0.3106270 -14.3447439 0.9539541
1.3124033 -14.0548135 2.4218553
2.4044028 -13.8498031 3.8053088
3.4562034 -13.5898033 5.2598583
4.4857622 -13.2913391 6.7694315
5.5574618 -13.0272426 8.2498953
6.6170196 -12.7346574 9.7750130
7.5280024 -12.2421658 11.5563961
8.2394975 -11.4684417 13.7068817
8.9718842 -10.6782810 15.9082536
9.7249804 -9.8700013 18.1636305
10.4973117 -9.0399251 20.4788609
10.7145694 -7.3641949 23.9442911
-5.7867279 -12.9375394 2.4353105
-4.0376338 -13.3481943 3.1805994
-2.1449125 -13.9218038 3.7258747
-0.4294340 -14.3387043 4.4282639
0.8135251 -14.2764940 5.6734794
1.8679139 -14.0076042 7.1666091
2.9357630 -13.7404171 8.6684202
3.9956017 -13.4507126 10.2085301
5.0671230 -13.1596610 11.7618846
6.1712582 -12.8921398 13.2970523
7.2167381 -12.5381664 14.9541333
7.9739977 -11.8012811 17.1255880
8.7032125 -10.9858383 19.4305682
9.4786768 -10.1840194 21.7496657
10.2550487 -9.3347332 24.1655241
10.7705860 -8.0624808 27.2013807
-5.0622091 -13.1704971 7.0213831
-3.2355304 -13.6364589 7.6907905
-1.4220311 -14.1103246 8.3317723
0.2210781 -14.4289782 9.1443648
1.3192224 -14.1818705 10.6510582
2.3962956 -13.8994937 12.2126421
3.4938780 -13.6257446 13.7746289
4.5763815 -13.3204002 15.3892087
5.7045461 -13.0525881 16.9663070
6.8162889 -12.7501481 18.6011408
7.6941765 -12.1392471 20.6713947
8.4325552 -11.3140681 23.0647868
9.2006581 -10.4788773 25.5059217
10.0063701 -9.6434780 27.9813693
10.7525719 -8.6715079 30.6892570
-6.2428773 -12.8861677 11.1872419
-4.3865485 -13.3369441 11.8807569
-2.5503655 -13.7883163 12.5548306
-0.6877182 -14.2882027 13.1474128
0.7349809 -14.3494428 14.2960443
1.8428716 -14.0742121 15.8916159
2.9338283 -13.7661252 17.5432686
4.0662553 -13.4888729 19.1653320
5.1929950 -13.1899906 20.8292340
6.3421612 -12.9013497 22.4911028
7.3980121 -12.4812778 24.3542667
8.1500414 -11.6513864 26.8335177
8.9221315 -10.7975392 29.3828516
9.7428390 -9.9559477 31.9493719
10.4581119 -8.9137029 34.8565611
-5.5167277 -13.1056064 16.2049748
-3.6193981 -13.5726088 16.8628285
-1.7107110 -14.0734041 17.4548292
0.1125742 -14.5100744 18.1142690
1.2620698 -14.2518581 19.7312351
2.4013071 -13.9690423 21.3943455
3.5396980 -13.6702137 23.0927462
4.6791140 -13.3562178 24.8262202
5.8438939 -13.0545685 26.5547460
7.0232834 -12.7532440 28.2957024
7.8489956 -11.9908391 30.7561581
8.6388086 -11.1354169 33.3937019
-4.8307594 -13.2654954 21.5291380
-2.8602521 -13.7784885 22.1062804
-0.8753605 -14.3315466 22.6027969
0.6479579 -14.4284313 23.7489966
1.7955536 -14.1258622 25.4897422
2.9800878 -13.8478271 27.2064609
4.1382009 -13.5243971 29.0054108
5.3286925 -13.2203815 30.7881845
6.5261323 -12.9069133 32.5992983
-6.1320009 -12.9250157 26.5053509
-4.0690384 -13.4766838 27.0267616
-2.0422192 -14.0194630 27.5371547
-0.0741899 -14.5292551 28.0745499
1.2037297 -14.3334873 29.7007204
2.3819565 -14.0183684 31.5264251
3.6128049 -13.7445676 33.2993715
-5.2763455 -13.2310544 32.1380029
-3.3056316 -13.6652718 32.8207612
-1.2235497 -14.2353808 33.2617428
0
0
0
0
0
0
0
0
0
0
0
0
0
0
0
0
0
0
0
0
0
0
0
0
0
0
0
0
0
0
0
0
0
0
0
0
0
0
0
0
0
0
0
0
0
0
0
0
0
0
0
0
0
0
0
0
0
0
0
0
0
0
0
0
0
0
0
0
0
0
0
0
0
0
0
0
0
0
0
0
0
0
0
0
0
0
0
0
0
0
0
0
0
0
0
0
0
0
0
0
0
0
0
0
0
0
0
0
0
0
0
0
0
0
0
0
0
0
0
0
0
0
0
0
0
0
0
0
0
0
0
0
0
0
0
0
0
0
0
0
0
0
0
0
0
0
0
0
0
0
0
0
0
0
0
0
0
0
0
0
0
0
0
0
0
0
0
0
0
0
0
0
0
0
0
0
0
0
0
0
0
0
0
0
0
0
0
0
0
0
0
0
0
0
0
0
0
0
0
0
0
0
0
0
0
0
0
0
0
0
0
0
0
0
0
0
0
0
0
0
0
0
0
0
0
0
0
0
0
0
0
0
0
0
0
0
0
0
0
0
0
0
0
0
0
0
0
0
0
0
0
0
0
0
0
0
0
0
0
0
0
0
0
0
0
0
0
0
0
0
0
0
0
0
0
0
0
0
0
0
0
0
0
0
0
0
0
0
0
0
0
0
0
0
0
0
0
0
0
0
0
0
0
0
0
0
0
0
0
0
0
0
0
0
0
0
0
0
0
0
0
0
0
0
0
0
0
0
0
0
0
0
0
0
0
0
0
0
0
0
0
0
0
0
0
0
0
0
0
0
0
0
0
0
0
0
0
0
0
0
0
0
0
0
0
0
0
0
0
0
0
0
0
0
0
0
0
0
0
0
0
0
0
0
0
0
0
0
0
0
0
0
0
0
0
0
0
0
0
0
0
0
0
0
0
0
0
0
0
0
0
0
0
0
0
0
0
0
0
0
0
0
0
0
0
0
0
0
0
0
0
0
0
0
0
0
0
0
0
0
0
0
0
0
0
0
0
0
0
0
0
0
0
0
0
0
0
0
0
0
0
0
0
0
0
0
0
0
0
0
0
0
0
0
0
0
0
0
0
0
0
0
0
0
0
0
0
0
0
0
0
0
0
0
0
0
0
0
0
0
0
0
0
0
0
0
0
0
0
0
0
0
0
0
0
0
0
0
0
0
0
0
0
0
0
0
0
0
0
0
0
0
0
0
0
0
0
0
0
0
0
0
0
0
0
0
0
0
0
0
0
0
0
0
0
0
0
0
0
0
0
0
0
0
0
0
0
0
0
0
0
0
0
0
0
0
0
0
0
0
0
0
0
0
0
0
0
0
0
0
0
0
0
0
0
0
0
0
0
0
0
0
0
0
0
0
0
0
0
0
0
0
0
0
0
0
0
0
0
0
0
0
0
0
0
0
0
0
0
0
0
0
0
0
0
0
0
0
0
0
0
0
0
0
0
0
0
0
0
0
0
0
0
0
0
0
0
0
0
1 0
1 1
1 2
1 3
0
0
0
0
0
0
0
0
0
0
0
0
0
0
0
0
0
0
0
0
0
0
0
0
0
0
0
0
0
0
0
0
0
0
0
0
0
0
0
0
0
0
0
0
0
0
0
1 4
1 5
1 6
1 7
1 8
1 9
0
0
0
0
0
0
0
0
0
0
0
0
0
0
0
0
0
0
0
0
0
0
0
0
0
0
0
0
0
0
0
0
0
0
0
0
0
0
0
0
0
0
0
0
1 10
1 11
1 12
1 13
1 14
1 15
1 16
1 17
1 18
0
0
0
0
0
0
0
0
0
0
0
0
0
0
0
0
0
0
0
0
0
0
0
0
0
0
0
0
0
0
0
0
0
0
0
0
0
0
0
0
0
0
1 19
1 20
1 21
1 22
1 23
1 24
1 25
1 26
1 27
1 28
0
0
0
0
0
0
0
0
0
0
0
0
0
0
0
0
0
0
0
0
0
0
0
0
0
0
0
0
0
0
0
0
0
0
0
0
0
0
0
0
0
1 29
1 30
1 31
1 32
1 33
1 34
1 35
1 36
1 37
1 38
1 39
0
0
0
0
0
0
0
0
0
0
0
0
0
0
0
0
0
0
0
0
0
0
0
0
0
0
0
0
0
0
0
0
0
0
0
0
0
0
0
1 40
1 41
1 42
1 43
1 44
1 45
1 46
1 47
1 48
1 49
1 50
1 51
1 52
0
0
0
0
0
0
0
0
0
0
0
0
0
0
0
0
0
0
0
0
0
0
0
0
0
0
0
0
0
0
0
0
0
0
0
0
0
0
1 53
1 54
1 55
1 56
1 57
1 58
1 59
1 60
1 61
1 62
1 63
1 64
1 65
0
0
0
0
0
0
0
0
0
0
0
0
0
0
0
0
0
0
0
0
0
0
0
0
0
0
0
0
0
0
0
0
0
0
0
0
0
0
1 66
1 67
1 68
1 69
1 70
1 71
1 72
1 73
1 74
1 75
1 76
1 77
1 78
1 79
0
0
0
0
0
0
0
0
0
0
0
0
0
0
0
0
0
0
0
0
0
0
0
0
0
0
0
0
0
0
0
0
0
0
0
0
1 80
1 81
1 82
1 83
1 84
1 85
1 86
1 87
1 88
1 89
1 90
1 91
1 92
1 93
1 94
0
0
0
0
0
0
0
0
0
0
0
0
0
0
0
0
0
0
0
0
0
0
0
0
0
0
0
0
0
0
0
0
0
0
0
0
1 95
1 96
1 97
1 98
1 99
1 100
1 101
1 102
1 103
1 104
1 105
1 106
1 107
1 108
1 109
0
0
0
0
0
0
0
0
0
0
0
0
0
0
0
0
0
0
0
0
0
0
0
0
0
0
0
0
0
0
0
0
0
0
0
0
1 110
1 111
1 112
1 113
1 114
1 115
1 116
1 117
1 118
1 119
1 120
1 121
1 122
1 123
1 124
0
0
0
0
0
0
0
0
0
0
0
0
0
0
0
0
0
0
0
0
0
0
0
0
0
0
0
0
0
0
0
0
0
0
0
1 125
1 126
1 127
1 128
1 129
1 130
1 131
1 132
1 133
1 134
1 135
1 136
1 137
1 138
1 139
1 140
1 141
1 142
0
0
0
0
0
0
0
0
0
0
0
0
0
0
0
0
0
0
0
0
0
0
0
0
0
0
0
0
0
0
0
0
0
1 143
1 144
1 145
1 146
1 147
1 148
1 149
1 150
1 151
1 152
1 153
1 154
1 155
1 156
1 157
1 158
1 159
0
0
0
0
0
0
0
0
0
0
0
0
0
0
0
0
0
0
0
0
0
0
0
0
0
0
0
0
0
0
0
0
0
0
1 160
1 161
1 162
1 163
1 164
1 165
1 166
1 167
1 168
1 169
1 170
1 171
1 172
1 173
1 174
1 175
1 176
0
0
0
0
0
0
0
0
0
0
0
0
0
0
0
0
0
0
0
0
0
0
0
0
0
0
0
0
0
0
0
0
0
0
1 177
1 178
1 179
1 180
1 181
1 182
1 183
1 184
1 185
1 186
1 187
1 188
1 189
1 190
1 191
1 192
1 193
0
0
0
0
0
0
0
0
0
0
0
0
0
0
0
0
0
0
0
0
0
0
0
0
0
0
0
0
0
0
0
0
0
1 194
1 195
1 196
1 197
1 198
1 199
1 200
1 201
1 202
1 203
1 204
1 205
1 206
1 207
1 208
1 209
1 210
1 211
0
0
0
0
0
0
0
0
0
0
0
0
0
0
0
0
0
0
0
0
0
0
0
0
0
0
0
0
0
0
0
0
0
1 212
0
1 213
1 214
1 215
1 216
1 217
1 218
1 219
1 220
1 221
1 222
1 223
1 224
1 225
1 226
1 227
1 228
0
0
0
0
0
0
0
0
0
0
0
0
0
0
0
0
0
0
0
0
0
0
0
0
0
0
0
0
0
0
0
0
0
1 229
1 230
1 231
1 232
1 233
1 234
1 235
1 236
1 237
1 238
1 239
1 240
1 241
1 242
1 243
1 244
1 245
0
0
0
0
0
0
0
0
0
0
0
0
0
0
0
0
0
0
0
0
0
0
0
0
0
0
0
0
0
0
0
0
0
0
1 246
1 247
1 248
1 249
1 250
1 251
1 252
1 253
1 254
1 255
1 256
1 257
1 258
1 259
1 260
1 261
0
0
0
0
0
0
0
0
0
0
0
0
0
0
0
0
0
0
0
0
0
0
0
0
0
0
0
0
0
0
0
0
0
0
0
1 262
1 263
1 264
1 265
1 266
1 267
1 268
1 269
1 270
1 271
1 272
1 273
1 274
1 275
1 276
1 277
0
0
0
0
0
0
0
0
0
0
0
0
0
0
0
0
0
0
0
0
0
0
0
0
0
0
0
0
0
0
0
0
0
0
0
0
1 278
1 279
1 280
1 281
1 282
1 283
1 284
1 285
1 286
1 287
1 288
1 289
1 290
1 291
1 292
0
0
0
0
0
0
0
0
0
0
0
0
0
0
0
0
0
0
0
0
0
0
0
0
0
0
0
0
0
0
0
0
0
0
0
0
1 293
1 294
1 295
1 296
1 297
1 298
1 299
1 300
1 301
1 302
1 303
1 304
1 305
1 306
1 307
0
0
0
0
0
0
0
0
0
0
0
0
0
0
0
0
0
0
0
0
0
0
0
0
0
0
0
0
0
0
0
0
0
0
0
0
0
1 308
1 309
1 310
1 311
1 312
1 313
1 314
1 315
1 316
1 317
1 318
1 319
0
0
0
0
0
0
0
0
0
0
0
0
0
0
0
0
0
0
0
0
0
0
0
0
0
0
0
0
0
0
0
0
0
0
0
0
0
0
0
0
1 320
1 321
1 322
1 323
1 324
1 325
1 326
1 327
1 328
0
0
0
0
0
0
0
0
0
0
0
0
0
0
0
0
0
0
0
0
0
0
0
0
0
0
0
0
0
0
0
0
0
0
0
0
0
0
0
0
0
0
1 329
1 330
1 331
1 332
1 333
1 334
1 335
0
0
0
0
0
0
0
0
0
0
0
0
0
0
0
0
0
0
0
0
0
0
0
0
0
0
0
0
0
0
0
0
0
0
0
0
0
0
0
0
0
0
0
0
0
1 336
1 337
1 338
0
0
0
0
0
0
0
0
0
0
0
0
0
0
0
0
0
0
0
0
0
0
0
0
0
0
0
0
0
0
0
0
0
0
0
0
0
0
0
0
0
0
0
0
0
0
0
0
0
0
0
0
0
0
0
0
0
0
0
0
0
0
0
0
0
0
0
0
0
0
0
0
0
0
0
0
0
0
0
0
0
0
0
0
0
0
0
0
0
0
0
0
0
0
0
0
0
0
0
0
0
0
0
0
0
0
0
0
0
0
0
0
0
0
0
0
0
0
0
0
0
0
0
0
0
0
0
0
0
0
0
0
0
0
0
0
0
0
0
0
0
0
0
0
0
0
0
0
0
0
0
0
0
0
0
0
0
0
0
0
0
0
0
0
0
0
0
0
0
0
0
0
0
0
0
0
0
0
0
0
0
0
0
0
0
0
0
0
0
0
0
0
0
0
0
0
0
0
0
0
0
0
0
0
0
0
0
0
0
0
0
0
0
0
0
0
0
0
0
0
0
0
0
0
0
0
0
0
0
0
0
0
0
0
0
0
0
0
0
0
0
0
0
0
0
0
0
0
0
0
0
0
0
0
0
0
0
0
0
0
0
0
0
0
0
0
0
0
0
0
0
0
0
0
0
0
0
0
0
0
0
0
0
0
0
0
0
0
0
0
0
0
0
0
0
0
0
0
0
0
0
0
0
0
0
0
0
0
0
0
0
0
0
0
0
0
0
0
0
0
0
0
0
0
0
0
0
0
0
0
0
0
0
0
0
0
0
0
0
0
0
0
0
0
0
0
0
0
0
0
0
0
0
0
0
0
0
0
0
0
0
0
0
0
0
0
0
0
0
0
0
0
0
0
0
0
0
0
0
0
0
0
0
0
0
0
0
0
0
0
0
0
0
0
0
0
0
0
0
0
0
0
0
0
0
0
0
0
0
0
0
0
0
0
0
0
0
0
0
0
0
0
0
0
0
0
0
0
0
0
0
0
0
0
0
0
0
0
0
0
0
0
0
0
0
0
0
0
0
0
0
0
0
0
0
0
0
0
0
0
0
0
0
0
0
0
0
0
0
0
0
0
0
0
0
0
0
0
0
0
0
0
0
0
0
0
0
0
0
0
0
0
0
0
0
0
0
0
0
0
0
0
0
0
0
0
0
0
0
0
0
0
0
0
0
0
0
0
0
0
0
0
0
0
0
0
0
0
0
0
0
0
0
0
0
0
0
0
0
0
0
0
0
0
0
0
0
0
0
0
0
0
0
0
0
0
0
0
0
0
0
0
0
0
