ply
format ascii 1.0
obj_info num_cols 50
obj_info num_rows 50
element vertex 275
property float x
property float y
property float z
element range_grid 2500
property list uchar int vertex_indices
end_header
-3.6692389 13.4976492 21.7924655
-1.6875998 13.7951815 20.9080349
-4.0103840 9.2758773 5.5099127
-2.6719226 9.2785993 4.1313375
-6.7778739 0.8714516 -24.7366364
-6.2922746 0.6229549 -26.2199271
-5.6607691 0.4453845 -27.5751682
-4.9645702 0.3008284 -28.8674609
-4.2624606 0.1630057 -30.1393551
-3.4939678 0.0568792 -31.3552492
-2.7741838 -0.0662437 -32.5875617
-1.9648762 -0.1495258 -33.7557987
-1.1671417 -0.2350789 -34.9209722
-0.2953733 -0.2889531 -36.0381550
-4.0813697 10.1614046 17.6947474
-7.1807432 6.2573243 4.6972958
-4.7212175 6.8628673 4.6569484
-4.6788963 6.2155696 1.9239789
-9.3342311 0.5147834 -16.9203923
-8.8087718 0.2601651 -18.5241673
-8.2296745 0.0375844 -20.0505915
-7.6549898 -0.1799264 -21.5513689
-7.0326555 -0.3700848 -22.9880361
-6.4089338 -0.5538241 -24.3994788
-5.7046525 -0.6981911 -25.7310776
-4.9959126 -0.8363801 -27.0416453
-4.2576415 -0.9584300 -28.3158563
-3.5503629 -1.0893626 -29.5947610
-2.7922288 -1.1963487 -30.8270353
-1.9884796 -1.2824183 -32.0198210
-1.1759462 -1.3626314 -33.1974064
-0.3169859 -1.4228851 -34.3403221
-7.0475366 6.3943380 13.7573306
-6.9393953 5.7423387 10.7826992
-6.9576809 5.0506884 7.7655562
-10.7112011 0.2460878 -9.4199123
-10.3057631 -0.0876443 -11.3067661
-9.8651654 -0.3942910 -13.1113053
-9.4104522 -0.6845041 -14.8583926
-8.8758350 -0.9303976 -16.4940670
-8.2811220 -1.1425691 -18.0442402
-7.7236581 -1.3637140 -19.5950463
-7.0639159 -1.5353808 -21.0350763
-6.4397430 -1.7162873 -22.4786564
-5.7727174 -1.8743672 -23.8666215
-5.0280784 -1.9967920 -25.1788261
-4.3361598 -2.1362064 -26.5107552
-3.5985416 -2.2538446 -27.7946427
-2.8374165 -2.3590792 -29.0485403
-2.0381900 -2.4469366 -30.2658005
-1.2428860 -2.5337100 -31.4742209
-0.4144309 -2.6058788 -32.6530241
-7.1652681 6.4060860 23.5045369
-7.0267266 5.7303935 20.2175442
-7.0571933 4.9956690 16.8320928
-10.7340348 0.0887990 -2.1586248
-10.7138200 -0.4438041 -4.6568194
-10.6947928 -0.9582503 -7.0693293
-10.3486354 -1.3110586 -9.0709157
-9.9195943 -1.6159949 -10.9362112
-9.4617724 -1.8984452 -12.7269122
-8.9703963 -2.1575093 -14.4438062
-8.3611601 -2.3595869 -16.0184610
-7.8138088 -2.5802317 -17.6149906
-7.1631355 -2.7526438 -19.0948468
-6.4909454 -2.9111813 -20.5325921
-5.8267373 -3.0678928 -21.9535274
-5.0936297 -3.1935277 -23.3017158
-4.3608022 -3.3154529 -24.6323588
-3.6725999 -3.4502666 -25.9764487
-2.8829499 -3.5440462 -27.2353928
-2.1107812 -3.6413602 -28.4925603
-1.2852062 -3.7168685 -29.7039571
-0.4589137 -3.7899306 -30.9047238
-10.6821395 0.5397869 8.8581324
-10.6055598 -0.0138638 6.0418786
-10.5775583 -0.5687055 3.2704341
-10.6507747 -1.1480771 0.4833824
-10.7436453 -1.7150836 -2.2220463
-10.7478799 -2.2239604 -4.7326756
-10.3948537 -2.5645364 -6.7843320
-10.0142895 -2.8819523 -8.7502615
-9.5131495 -3.1394742 -10.5460037
-9.0261886 -3.3940420 -12.3123485
-8.3693222 -3.5732324 -13.8834612
-7.8697477 -3.8075795 -15.5630319
-7.2277442 -3.9800326 -17.0853358
-6.5175094 -4.1213479 -18.5249510
-5.9232848 -4.3011856 -20.0338913
-5.1984412 -4.4278324 -21.4162548
-4.4131699 -4.5288664 -22.7350917
-3.7154861 -4.6578536 -24.1006783
-2.9689437 -4.7659360 -25.4139344
-2.1705926 -4.8529781 -26.6772682
-1.3583992 -4.9327509 -27.9191197
-0.5144452 -4.9995484 -29.1299879
-10.5484519 0.4517784 18.3256899
-10.6516941 -0.2150279 14.9199777
-10.5529146 -0.7646867 11.9203636
-10.6094612 -1.3614834 8.8347413
-10.5281079 -1.8759369 6.0388538
-10.6032004 -2.4375943 3.1577814
-10.3813823 -2.8548948 0.7269860
-10.7816118 -3.5118727 -2.3164658
-10.4045396 -3.8329337 -4.4024439
-10.0605542 -4.1558536 -6.4636283
-9.5836175 -4.4159861 -8.3329508
-9.0941566 -4.6625067 -10.1436399
-8.5500514 -4.8802414 -11.8597715
-7.9399768 -5.0663858 -13.4784075
-7.3438926 -5.2515688 -15.0773514
-6.6508917 -5.3960584 -16.5631842
-5.9949724 -5.5490508 -18.0550560
-5.2830117 -5.6777674 -19.4775954
-4.5214423 -5.7854928 -20.8413866
-3.8159425 -5.9088435 -22.2288971
-3.0394257 -6.0048371 -23.5464950
-2.2404870 -6.0905869 -24.8335544
-1.4197324 -6.1667192 -26.0927419
-0.5620948 -6.2288222 -27.3165619
-10.4568819 -0.3270844 25.1883888
-10.5786118 -1.0068217 21.4828734
-10.5238816 -1.5816513 18.1840938
-10.6071552 -2.1925169 14.8266623
-10.2990350 -2.6149895 12.1216032
-10.5578998 -3.2547047 8.7854153
-10.5048425 -4.2364678 3.1936992
-10.7483785 -4.8057607 0.2385650
-10.5805762 -5.1972139 -2.1445980
-10.1616119 -5.4803593 -4.1801000
-9.6917839 -5.7348230 -6.1071442
-9.2161933 -5.9784544 -7.9791418
-8.6294407 -6.1740949 -9.6969578
-8.0404959 -6.3624263 -11.3758546
-7.4192218 -6.5333660 -12.9905438
-6.7448111 -6.6806427 -14.5274567
-6.0913809 -6.8302302 -16.0554236
-5.3636620 -6.9505365 -17.4960899
-4.6236730 -7.0630705 -18.9057801
-3.8729197 -7.1686608 -20.2875909
-3.1212259 -7.2707179 -21.6504628
-2.3071729 -7.3502535 -22.9516560
-1.4485245 -7.4136785 -24.2087136
-0.6174230 -7.4835251 -25.4731284
-10.4073735 -3.0011158 21.5360172
-10.3297453 -3.5242699 18.2841462
-10.5283783 -4.1366429 14.7816219
-10.4907393 -4.6327549 11.7356103
-10.6224604 -5.1747735 8.5891969
-10.6843265 -5.6701264 5.6522484
-10.6231854 -6.1017371 2.9724495
-10.5978169 -6.5306612 0.3464863
-10.2810316 -6.8403919 -1.8630853
-9.7811749 -7.0750680 -3.8100086
-9.2748239 -7.2993372 -5.7006831
-8.7417061 -7.5068585 -7.5179631
-8.1481334 -7.6872346 -9.2342072
-7.5235079 -7.8514206 -10.8849372
-6.8638313 -7.9988998 -12.4712186
-6.1878123 -8.1363993 -14.0141789
-5.4587995 -8.2529180 -15.4856272
-4.7320750 -8.3664389 -16.9365056
-3.9702245 -8.4657438 -18.3381094
-3.1552902 -8.5460889 -19.6805432
-2.3334918 -8.6219189 -21.0028208
-1.5094593 -8.6947733 -22.3094114
-0.6344441 -8.7508126 -23.5676231
-10.5522270 -4.5728975 24.6002975
-10.4914372 -5.0800510 21.2173200
-10.5374586 -5.6068779 17.8180142
-10.5566882 -6.1029255 14.5919401
-10.5713377 -6.5780231 11.4981501
-10.6127188 -7.0444920 8.4889640
-10.6491941 -7.4917930 5.6000568
-10.6168276 -7.8990889 2.9004998
-10.3208835 -8.2030289 0.5999196
-9.8569683 -8.4406259 -1.4432815
-9.3469884 -8.6548939 -3.3822930
-8.7233702 -8.8254384 -5.1547695
-8.1057993 -8.9920242 -6.8949733
-7.4423987 -9.1388216 -8.5539117
-6.7960145 -9.2858911 -10.1967210
-6.0699010 -9.4042743 -11.7357138
-5.3218013 -9.5123188 -13.2301871
-4.5477859 -9.6093603 -14.6799297
-3.7506924 -9.6967077 -16.0905207
-2.9298944 -9.7746166 -17.4642927
-2.0234291 -9.8263093 -18.7566625
-1.0925365 -9.8696623 -20.0201652
0.0639008 -9.8508042 -21.1139265
-10.5393184 -6.6323185 24.4021467
-10.4722487 -7.0937445 21.0519743
-10.5837265 -7.5984994 17.5823483
-10.6079724 -8.0537038 14.3727921
-10.5809069 -8.4741867 11.3558346
-10.4170300 -8.8339209 8.6261937
-10.2103577 -9.1664697 6.0445825
-9.8731965 -9.4456371 3.7046021
-9.4102237 -9.6757093 1.5807284
-8.8865575 -9.8790845 -0.4174811
-8.3180407 -10.0618776 -2.3167599
-7.7451385 -10.2370428 -4.1664559
-7.0764626 -10.3784949 -5.8776578
-6.4514489 -10.5276038 -7.5971834
-5.7730058 -10.6567840 -9.2314788
-5.0706805 -10.7751305 -10.8139905
-4.3034906 -10.8720093 -12.3124056
-3.4573160 -10.9446197 -13.7217255
-2.5292250 -10.9932767 -15.0472844
-1.5615260 -11.0300291 -16.3300490
-0.5427728 -11.0524637 -17.5649536
-10.3919081 -7.6829113 31.7198586
-10.5715438 -8.2240262 27.7063066
-10.5108810 -8.6632377 24.2298660
-10.2373339 -9.0155807 21.2027745
-9.9767968 -9.3578913 18.2674065
-9.7202688 -9.6879625 15.4313714
-9.3646406 -9.9750149 12.8245607
-9.1323209 -10.2881130 10.1460325
-8.9003161 -10.5896544 7.5576204
-8.6073120 -10.8625490 5.1271413
-8.2490062 -11.1070922 2.8477426
-7.7439841 -11.3020375 0.7982390
-7.1904881 -11.4768616 -1.1462979
-6.6471466 -11.6483919 -3.0544883
-6.0552260 -11.8012089 -4.8687596
-5.3694454 -11.9243957 -6.5522698
-4.7299793 -12.0553867 -8.2473457
-4.0188312 -12.1639679 -9.8442601
-3.0744412 -12.2109198 -11.2094710
-2.0365402 -12.2333170 -12.4829814
-1.0173846 -12.2593914 -13.7652021
1.1902829 -12.0013729 -14.0994019
-9.6547077 -9.5664820 32.6422595
-9.4628490 -9.9454498 29.1947245
-9.0757463 -10.2500886 26.1756491
-8.8153957 -10.5795416 23.0790325
-8.5501268 -10.8944082 20.1020243
-8.2989598 -11.2009191 17.2115298
-8.0483182 -11.4957913 14.4212059
-7.7084561 -11.7552353 11.8391890
-7.5460970 -12.0525218 9.1221135
-7.2513522 -12.3042342 6.6542626
-6.9339660 -12.5410944 4.2894404
-6.2935850 -12.6876609 2.3538159
-5.5775342 -12.8101945 0.5433851
-4.7720092 -12.9065033 -1.1377775
-4.0182858 -13.0119706 -2.8422194
-3.0876382 -13.0718304 -4.3445308
-2.4794529 -13.2049967 -6.1312190
-2.0233552 -13.3688569 -8.0188183
-1.5060190 -13.5136542 -9.8084097
-0.4401548 -13.5314268 -11.0943512
-7.8480138 -11.5710184 31.4645549
-7.5570477 -11.8771167 28.2402363
-7.2714450 -12.1722109 25.1263809
-6.9863067 -12.4556845 22.1236197
-6.4616240 -12.6670980 19.5505770
-5.8367989 -12.8453263 17.1863041
-5.1950811 -13.0126219 14.9080216
-4.5538990 -13.1737801 12.6887227
-3.9092657 -13.3281890 10.5299700
-3.3074313 -13.4869641 8.3754197
-2.8037561 -13.6625495 6.1658247
-2.1723288 -13.8033136 4.1510526
-1.4825399 -13.9263225 2.2428666
-0.7369822 -14.0330044 0.4304482
-0.4248824 -14.2289168 -1.7677891
-4.5599074 -13.2153615 32.5121502
-3.8116647 -13.3804249 29.9400979
-3.1788280 -13.5655033 27.2779184
-2.3591566 -13.7009293 24.9463165
-1.8159455 -13.8925955 22.3100259
-1.3068203 -14.0844765 19.7081028
-0.5511548 -14.2163243 17.4836632
0
0
0
0
0
0
0
0
0
0
0
0
0
0
0
0
0
0
0
0
0
0
0
0
0
0
0
0
0
0
0
0
0
0
0
0
0
0
0
0
0
0
0
0
0
0
0
0
0
0
0
0
0
0
0
0
0
0
0
0
0
0
0
0
0
0
0
0
0
0
0
0
0
0
0
0
0
0
0
0
0
0
0
0
0
0
0
0
0
0
0
0
0
0
0
0
0
0
0
0
0
0
0
0
0
0
0
0
0
0
0
0
0
0
0
0
0
0
0
0
0
0
0
0
0
0
0
0
0
0
0
0
0
0
0
0
0
0
0
0
0
0
0
0
0
0
0
0
0
0
0
0
0
0
0
0
0
0
0
0
0
0
0
0
0
0
0
0
0
0
0
0
0
0
0
0
0
0
0
0
0
0
0
0
0
0
0
0
0
0
0
0
0
0
0
0
0
0
0
0
0
0
0
0
0
0
0
0
0
0
0
0
0
0
0
0
0
0
0
0
0
0
0
0
0
0
0
0
0
0
0
0
0
0
0
0
0
0
0
0
0
0
0
0
0
0
0
0
0
0
0
0
0
0
0
0
0
0
0
0
0
0
0
0
0
0
0
0
0
0
0
0
0
0
0
0
0
0
0
0
0
0
0
0
0
0
0
0
0
0
0
0
0
0
0
0
0
0
0
0
0
0
0
0
0
0
0
0
0
0
0
0
0
0
0
0
0
0
0
0
0
0
0
0
0
0
0
0
0
0
0
0
0
0
0
0
0
0
0
0
0
0
0
0
0
0
0
0
0
0
0
0
0
0
0
0
0
0
0
0
0
0
0
0
0
0
0
0
0
0
0
0
0
0
0
0
0
0
0
0
0
0
0
0
0
0
0
0
0
0
0
0
0
0
0
0
0
0
0
0
0
0
0
0
0
0
0
0
0
0
0
0
0
0
0
0
0
0
0
0
0
0
0
0
0
0
0
0
0
0
0
0
0
0
0
0
0
0
0
0
0
0
0
0
0
0
0
0
0
0
0
0
0
0
0
0
0
0
0
0
0
0
0
0
0
0
0
0
0
0
0
0
0
0
0
0
0
0
0
0
0
0
0
0
0
0
0
0
0
0
0
0
0
0
0
0
0
0
0
0
0
0
0
0
0
0
0
0
0
0
0
0
0
0
0
0
0
0
0
0
0
0
0
0
0
0
0
0
0
0
0
0
0
0
0
0
0
0
0
0
0
0
0
0
0
0
0
0
0
0
0
0
0
0
0
0
0
0
0
0
0
0
0
0
0
0
0
0
0
0
0
0
0
0
0
0
0
0
0
0
0
0
0
0
0
0
0
0
0
0
0
0
0
0
0
0
0
0
0
0
0
0
0
0
0
0
0
0
0
0
0
0
0
0
0
0
0
0
0
0
0
0
0
0
0
0
0
0
0
0
0
0
0
0
0
0
0
0
0
0
0
0
0
0
0
0
0
0
0
0
0
0
0
0
0
0
0
0
0
0
0
0
0
0
0
0
0
0
0
0
0
0
0
0
0
0
0
0
0
0
0
0
0
0
0
0
0
0
0
0
0
0
0
0
0
0
0
0
0
0
0
0
0
0
0
0
0
0
0
0
0
0
0
0
0
0
0
0
0
0
0
0
0
0
0
0
0
0
0
0
0
0
0
0
0
0
0
0
0
0
0
0
0
0
0
0
0
0
0
0
0
0
0
0
0
0
0
0
0
0
0
0
0
0
0
0
0
0
0
0
0
0
0
0
0
0
0
0
0
0
0
0
0
0
0
0
0
0
0
0
0
0
0
0
0
0
0
0
0
0
0
0
0
0
0
0
0
0
0
0
0
0
0
0
0
0
0
0
0
0
0
0
0
0
0
0
0
0
0
0
0
0
0
0
0
0
0
0
0
0
0
0
0
0
0
0
0
0
0
0
0
0
0
0
0
0
0
0
0
0
0
0
0
0
0
0
0
0
0
0
0
0
0
0
0
0
0
0
0
0
0
0
0
0
0
0
0
0
0
0
0
0
0
0
0
0
0
0
0
0
0
0
0
0
0
0
0
0
0
0
0
0
0
0
0
0
0
0
0
0
0
0
0
0
0
0
0
0
0
0
0
0
0
0
0
0
0
0
0
0
0
0
0
0
0
0
0
0
0
0
0
0
0
0
0
0
0
0
0
0
0
0
0
0
0
0
0
0
0
0
0
0
0
0
0
0
0
0
0
0
0
0
0
0
0
0
0
0
0
0
0
0
0
0
0
0
0
0
0
0
0
0
0
0
0
0
0
0
0
0
0
0
0
0
0
0
1 0
1 1
0
0
0
1 2
1 3
0
0
0
0
0
0
0
0
0
0
1 4
1 5
1 6
1 7
1 8
1 9
1 10
1 11
1 12
1 13
0
0
0
0
0
0
0
0
0
0
0
0
0
0
0
0
0
0
0
0
0
0
0
0
1 14
0
0
1 15
1 16
1 17
0
0
0
0
0
1 18
1 19
1 20
1 21
1 22
1 23
1 24
1 25
1 26
1 27
1 28
1 29
1 30
1 31
0
0
0
0
0
0
0
0
0
0
0
0
0
0
0
0
0
0
0
0
0
0
0
0
0
1 32
1 33
1 34
0
0
0
0
1 35
1 36
1 37
1 38
1 39
1 40
1 41
1 42
1 43
1 44
1 45
1 46
1 47
1 48
1 49
1 50
1 51
0
0
0
0
0
0
0
0
0
0
0
0
0
0
0
0
0
0
0
0
0
0
0
1 52
1 53
1 54
0
0
0
0
1 55
1 56
1 57
1 58
1 59
1 60
1 61
1 62
1 63
1 64
1 65
1 66
1 67
1 68
1 69
1 70
1 71
1 72
1 73
0
0
0
0
0
0
0
0
0
0
0
0
0
0
0
0
0
0
0
0
0
0
0
0
0
0
0
1 74
1 75
1 76
1 77
1 78
1 79
1 80
1 81
1 82
1 83
1 84
1 85
1 86
1 87
1 88
1 89
1 90
1 91
1 92
1 93
1 94
1 95
0
0
0
0
0
0
0
0
0
0
0
0
0
0
0
0
0
0
0
0
0
0
0
0
0
1 96
1 97
1 98
1 99
1 100
1 101
1 102
1 103
1 104
1 105
1 106
1 107
1 108
1 109
1 110
1 111
1 112
1 113
1 114
1 115
1 116
1 117
1 118
1 119
0
0
0
0
0
0
0
0
0
0
0
0
0
0
0
0
0
0
0
0
0
0
0
0
1 120
1 121
1 122
1 123
1 124
1 125
0
1 126
1 127
1 128
1 129
1 130
1 131
1 132
1 133
1 134
1 135
1 136
1 137
1 138
1 139
1 140
1 141
1 142
1 143
0
0
0
0
0
0
0
0
0
0
0
0
0
0
0
0
0
0
0
0
0
0
0
0
0
0
1 144
1 145
1 146
1 147
1 148
1 149
1 150
1 151
1 152
1 153
1 154
1 155
1 156
1 157
1 158
1 159
1 160
1 161
1 162
1 163
1 164
1 165
1 166
0
0
0
0
0
0
0
0
0
0
0
0
0
0
0
0
0
0
0
0
0
0
0
0
0
0
1 167
1 168
1 169
1 170
1 171
1 172
1 173
1 174
1 175
1 176
1 177
1 178
1 179
1 180
1 181
1 182
1 183
1 184
1 185
1 186
1 187
1 188
1 189
0
0
0
0
0
0
0
0
0
0
0
0
0
0
0
0
0
0
0
0
0
0
0
0
0
0
0
1 190
1 191
1 192
1 193
1 194
1 195
1 196
1 197
1 198
1 199
1 200
1 201
1 202
1 203
1 204
1 205
1 206
1 207
1 208
1 209
1 210
0
0
0
0
0
0
0
0
0
0
0
0
0
0
0
0
0
0
0
0
0
0
0
0
0
0
0
1 211
1 212
1 213
1 214
1 215
1 216
1 217
1 218
1 219
1 220
1 221
1 222
1 223
1 224
1 225
1 226
1 227
1 228
1 229
1 230
1 231
1 232
0
0
0
0
0
0
0
0
0
0
0
0
0
0
0
0
0
0
0
0
0
0
0
0
0
0
0
0
1 233
1 234
1 235
1 236
1 237
1 238
1 239
1 240
1 241
1 242
1 243
1 244
1 245
1 246
1 247
1 248
1 249
1 250
1 251
1 252
0
0
0
0
0
0
0
0
0
0
0
0
0
0
0
0
0
0
0
0
0
0
0
0
0
0
0
0
0
0
0
1 253
1 254
1 255
1 256
1 257
1 258
1 259
1 260
1 261
1 262
1 263
1 264
1 265
1 266
1 267
0
0
0
0
0
0
0
0
0
0
0
0
0
0
0
0
0
0
0
0
0
0
0
0
0
0
0
0
0
0
0
0
0
0
0
0
1 268
1 269
1 270
1 271
1 272
1 273
1 274
0
0
0
0
0
0
0
0
0
0
0
0
0
0
0
0
0
0
0
0
0
0
0
0
0
0
0
0
0
0
0
0
0
0
0
0
0
0
0
0
0
0
0
0
0
0
0
0
0
0
0
0
0
0
0
0
0
0
0
0
0
0
0
0
0
0
0
0
0
0
0
0
0
0
0
0
0
0
0
0
0
0
0
0
0
0
0
0
0
0
0
0
0
0
0
0
0
0
0
0
0
0
0
0
0
0
0
0
0
0
0
0
0
0
0
0
0
0
0
0
0
0
0
0
0
0
0
0
0
0
0
0
0
0
0
0
0
0
0
0
0
0
0
0
0
0
0
0
0
0
0
0
0
0
0
0
0
0
0
0
0
0
0
0
0
0
0
0
0
0
0
0
0
0
0
0
0
0
0
0
0
0
0
0
0
0
0
0
0
0
0
0
0
0
0
0
0
0
0
0
0
0
0
0
0
0
0
0
0
0
0
0
0
0
0
0
0
0
0
0
0
0
0
0
0
0
0
0
0
0
0
0
0
0
0
0
0
0
0
0
0
0
0
0
0
0
0
0
0
0
0
0
0
0
0
0
0
0
0
0
0
0
0
0
0
0
0
0
0
0
0
0
0
0
0
0
0
0
0
0
0
0
0
0
0
0
0
0
0
0
0
0
0
0
0
0
0
0
0
0
0
0
0
0
0
0
0
0
0
0
0
0
0
0
0
0
0
0
0
0
0
0
0
0
0
0
0
0
0
0
0
0
0
0
0
0
0
0
0
0
0
0
0
0
0
0
0
0
0
0
0
0
0
0
0
0
0
0
0
0
0
0
0
0
0
0
0
0
0
0
0
0
0
0
0
0
0
0
0
0
0
0
0
0
0
0
0
0
0
0
0
0
0
0
0
0
0
0
0
0
0
0
0
0
0
0
0
0
0
0
0
0
0
0
0
0
0
0
0
0
0
0
0
0
0
0
0
0
0
0
0
0
0
0
0
0
0
0
0
0
0
0
0
0
0
0
0
0
0
0
0
0
0
0
0
0
0
0
0
0
0
0
0
0
0
0
0
0
0
0
0
0
0
0
0
0
0
0
0
0
0
0
0
0
0
0
0
0
0
0
0
0
0
0
0
0
0
0
0
0
0
0
0
0
0
0
0
0
0
0
0
0
0
0
0
0
0
0
0
0
0
0
0
0
0
0
0
0
0
0
0
0
0
0
0
0
0
0
0
0
0
0
0
0
0
0
0
0
0
0
0
0
0
0
0
0
0
0
0
0
0
0
0
0
0
0
0
0
0
0
0
0
0
0
0
0
0
0
0
0
0
0
0
0
0
0
0
0
0
0
0
0
0
0
0
0
0
0
0
0
0
0
0
0
0
0
0
0
0
0
0
0
0
0
0
0
0
0
0
0
0
0
0
0
0
0
0
0
0
0
0
0
0
0
0
0
0
0
0
0
0
0
0
0
0
0
0
0
0
0
0
0
0
0
0
0
0
0
0
0
0
0
0
0
0
0
0
0
0
0
0
0
0
0
0
0
0
0
0
0
0
0
0
0
0
0
0
0
0
0
0
0
0
0
0
0
0
0
0
0
0
0
0
0
0
0
0
0
0
0
0
0
0
0
0
0
0
0
0
0
0
0
0
0
0
0
0
0
0
0
0
0
0
0
0
0
0
0
0
0
0
0
0
0
0
0
0
0
0
0
0
0
0
0
0
0
0
0
0
0
0
0
0
0
0
0
0
0
0
0
0
0
0
0
0
0
0
0
0
0
0
0
0
0
0
0
0
0
0
0
0
0
0
0
0
0
0
0
0
0
0
0
0
0
0
0
0
0
0
0
0
0
0
0
0
0
0
0
0
0
0
0
0
0
0
0
0
0
0
0
0
