ply
format ascii 1.0
obj_info num_cols 50
obj_info num_rows 50
element vertex 197
property float x
property float y
property float z
element range_grid 2500
property list uchar int vertex_indices
end_header
2.3360582 13.4693027 21.6531557
0.8212143 13.4995223 21.3370420
-0.7269087 13.4686842 21.2042769
-2.2493947 11.8791051 20.9394655
-2.1941371 10.3899633 20.5820102
3.9871787 8.8923804 21.1529023
2.3556837 8.7486953 21.4377987
0.7372194 8.5989387 21.7469805
-0.7253300 8.6886114 21.1985348
-2.2976106 8.5883264 21.3325980
-3.8395949 8.5291396 21.3199770
5.9076779 6.1144061 26.1094705
4.4003503 6.0467749 26.1486432
2.9076119 5.9871148 26.1586821
1.4247228 5.9311632 26.1556272
-0.0531775 5.8728510 26.1625996
-1.5192359 5.8225327 26.1399357
-2.9967981 5.7406985 26.2394024
-4.4467940 5.6950163 26.2009333
-5.8944584 5.6423341 26.1903252
-7.2313681 5.8841155 25.0391003
5.9431631 4.6654021 25.8938424
4.6728265 4.8539726 24.9064514
1.6969169 4.7892850 24.7285680
0.1958555 4.7313289 24.7456262
-1.2625055 4.7268391 24.5437296
-2.7626127 4.6520113 24.6320653
-4.2300345 4.6212431 24.5395898
-5.7165814 4.5402794 24.6558486
-7.1454086 4.5828604 24.2599679
6.7078308 3.8862365 22.7437561
6.3504358 5.0116390 17.5738929
2.8930627 4.6749831 18.5763139
1.3512235 4.6973293 18.2393742
-0.3175874 4.5475387 18.6654673
-1.8863453 4.5206918 18.5480165
-3.4048961 4.5774638 18.0581558
-4.8079184 4.8906093 16.4206337
-6.9576066 3.5083780 22.3751456
3.5758273 0.8634951 29.5377680
2.1264520 0.7901202 29.6760413
0.7004760 0.7299339 29.7529242
-0.6960464 0.6937723 29.7159463
-2.0976050 0.6445747 29.7424370
-3.4934557 0.5932733 29.7801748
-4.8793113 0.5460415 29.7993972
-6.2612329 0.4932851 29.8464520
-7.6215809 0.4713895 29.7447418
-8.9500743 0.5290219 29.2560081
-10.2304749 0.7915794 27.7647662
7.8087977 -0.4575502 29.6868391
6.3518309 -0.5160799 29.7747148
4.9246819 -0.5587154 29.7817370
3.5021948 -0.6029748 29.7982204
2.0872481 -0.6466547 29.8127614
0.6894517 -0.6801910 29.7754099
-0.7214449 -0.7331712 29.8406101
-2.1088495 -0.7683283 29.8135958
-3.4976068 -0.8123175 29.8338807
-4.8743616 -0.8486269 29.8147243
-6.2505897 -0.8935952 29.8422274
-7.6092901 -0.9171920 29.7574996
-8.9330136 -0.8616884 29.2527229
-10.2244030 -0.6680513 28.0099348
8.8931958 -1.1836515 25.7735028
6.0076259 -1.1879855 25.3438043
4.5143182 -1.2278551 25.3441121
3.2036474 -1.1232751 24.5183662
1.8996157 -0.9937863 23.5462548
-2.6982307 -1.2419174 24.2891822
-4.0896284 -1.1729845 23.6616623
-5.5577506 -1.2019109 23.6011810
-7.0216745 -1.2315179 23.5453895
-8.4840943 -1.2683630 23.5326718
-9.9450812 -1.3188048 23.6006474
9.4635454 -2.3274157 23.6689200
7.9693308 -2.3415773 23.5225510
6.4004266 -2.4046170 23.6855151
4.9028066 -2.4272238 23.5941152
3.4029434 -2.4541968 23.5310575
1.8825951 -2.5013246 23.5972058
0.3797434 -2.5409175 23.6166268
-1.1120516 -2.5768831 23.6139754
-2.6064612 -2.6227826 23.6762064
-4.0552934 -2.6234305 23.4482766
-5.5662655 -2.7104507 23.7781627
-7.0130180 -2.7196913 23.6070512
-8.4669748 -2.7452487 23.5420452
-9.9528268 -2.8651317 24.0919825
-10.7981679 -0.7560105 10.0920717
9.3335698 -3.8875133 24.0378160
7.8937474 -3.8769992 23.7250004
6.2842460 -3.9608759 24.0818139
4.8241592 -3.9649562 23.8735096
1.4595319 -4.2904659 25.7288266
0.0048876 -4.3193350 25.7045456
-1.4537238 -4.3565217 25.7410654
-2.6612667 -4.1589255 24.0840586
-4.0428378 -4.0979195 23.4077327
-5.6193587 -4.2617826 24.3608560
-7.0299226 -4.2364445 23.9433016
-8.4758105 -4.2614513 23.8919170
-10.7393197 -2.3466311 9.3759548
8.1586327 -6.9756324 37.2776499
6.8144851 -7.0207086 37.4327365
5.5182372 -7.0495272 37.4588379
4.2363247 -7.0747073 37.4566751
2.9579697 -7.1008996 37.4636371
1.6933138 -7.1228911 37.4374914
0.4342207 -7.1444016 37.4082230
-0.8388786 -7.1776042 37.4751363
-2.0966883 -7.2056654 37.5012815
-3.3383483 -7.2263445 37.4679220
-4.5824617 -7.2528244 37.4830330
-5.8212459 -7.2799452 37.5044358
-7.0480151 -7.3006462 37.4737504
-8.2507594 -7.2959387 37.2329762
-9.4226418 -7.2385306 36.5532791
-10.5460553 -7.0491545 34.7696527
-10.7374296 -4.1128222 9.9945378
8.1444892 -8.2354006 37.2343805
6.7804647 -8.2828494 37.4641750
5.5009214 -8.3033374 37.4443825
4.2281359 -8.3231073 37.4187184
2.9541599 -8.3454410 37.4179684
1.6830015 -8.3690498 37.4301965
0.4256429 -8.3887652 37.4066574
-0.8269531 -8.4084849 37.3839815
-2.0833356 -8.4332723 37.4103035
-3.3298782 -8.4558098 37.4162776
-4.5672363 -8.4758045 37.3989227
-5.8052836 -8.5003938 37.4264633
-7.0382358 -8.5261826 37.4666344
-8.2337403 -8.5177800 37.1782702
-9.4047692 -8.4706658 36.5148486
-10.5326757 -8.3206898 34.8510715
-10.7446870 -5.8710202 10.8139407
8.4218586 -9.4074064 36.2721405
7.0205274 -9.4553085 36.5806740
6.4705797 -9.2368238 33.9278330
5.1290824 -9.2585221 33.9407716
3.8002330 -9.2779185 33.9290705
2.4847780 -9.2942277 33.8836824
1.1666413 -9.3134584 33.8719660
-0.1610549 -9.3394841 33.9379707
-1.4723979 -9.3613440 33.9582096
-2.7746739 -9.3817514 33.9630955
-4.0734022 -9.4035833 33.9852711
-6.9214877 -9.6612830 36.4867976
-8.1404769 -9.6644910 36.3055626
-9.3063530 -9.6069657 35.4238654
-10.2374166 -9.1769636 30.2299303
-10.7842645 -7.6570786 12.3638547
7.3154203 -10.6384333 35.5122618
6.4431682 -10.5416785 33.9462954
5.1104211 -10.5587124 33.9397741
3.7807961 -10.5764715 33.9443410
2.4592156 -10.5935694 33.9408668
1.1409174 -10.6114712 33.9496504
-0.1744798 -10.6305269 33.9756851
-1.4744107 -10.6460149 33.9530203
-2.7758631 -10.6643717 33.9715878
-4.0717869 -10.6831078 33.9966944
-5.3583944 -10.7002679 34.0007611
-8.0206274 -10.8146461 35.1506815
-8.9638489 -10.5511819 31.1584304
-9.6343317 -9.8257198 20.5313996
-10.5300377 -8.9142838 7.1699773
6.4233171 -11.8381260 33.9382933
5.0920014 -11.8526317 33.9382045
3.7656398 -11.8673182 33.9425705
2.4482059 -11.8812716 33.9348755
1.1317176 -11.8963994 33.9496528
-0.1784697 -11.9114959 33.9651378
-1.4770900 -11.9249392 33.9516575
-2.7754651 -11.9400682 33.9702006
-4.0574736 -11.9513796 33.9197213
-5.3489234 -11.9684040 33.9756456
-7.7129039 -11.8895569 31.9915023
-8.2285526 -11.3584370 21.8113880
-8.8895510 -10.6671642 8.5636797
3.7585929 -13.1507668 33.9081628
2.4412834 -13.1623278 33.9112836
1.1278613 -13.1742276 33.9246319
-0.1843524 -13.1870814 33.9644520
-1.4863820 -13.1992389 33.9875899
-2.7805573 -13.2110453 34.0029642
-4.0309739 -13.2129860 33.7579854
-4.9579729 -13.1186891 30.9486531
-5.6935244 -12.9304293 25.6059278
-6.4846964 -12.6974617 19.0228117
-7.2571255 -12.3554751 9.4518528
-0.1019005 -14.4468727 33.5100136
-0.2730252 -14.3192060 27.1408381
-0.7270856 -14.2026226 21.2289907
-1.2016115 -14.0619842 14.1208432
-1.7810276 -13.9019100 6.0177505
0
0
0
0
0
0
0
0
0
0
0
0
0
0
0
0
0
0
0
0
0
0
0
0
0
0
0
0
0
0
0
0
0
0
0
0
0
0
0
0
0
0
0
0
0
0
0
0
0
0
0
0
0
0
0
0
0
0
0
0
0
0
0
0
0
0
0
0
0
0
0
0
0
0
0
0
0
0
0
0
0
0
0
0
0
0
0
0
0
0
0
0
0
0
0
0
0
0
0
0
0
0
0
0
0
0
0
0
0
0
0
0
0
0
0
0
0
0
0
0
0
0
0
0
0
0
0
0
0
0
0
0
0
0
0
0
0
0
0
0
0
0
0
0
0
0
0
0
0
0
0
0
0
0
0
0
0
0
0
0
0
0
0
0
0
0
0
0
0
0
0
0
0
0
0
0
0
0
0
0
0
0
0
0
0
0
0
0
0
0
0
0
0
0
0
0
0
0
0
0
0
0
0
0
0
0
0
0
0
0
0
0
0
0
0
0
0
0
0
0
0
0
0
0
0
0
0
0
0
0
0
0
0
0
0
0
0
0
0
0
0
0
0
0
0
0
0
0
0
0
0
0
0
0
0
0
0
0
0
0
0
0
0
0
0
0
0
0
0
0
0
0
0
0
0
0
0
0
0
0
0
0
0
0
0
0
0
0
0
0
0
0
0
0
0
0
0
0
0
0
0
0
0
0
0
0
0
0
0
0
0
0
0
0
0
0
0
0
0
0
0
0
0
0
0
0
0
0
0
0
0
0
0
0
0
0
0
0
0
0
0
0
0
0
0
0
0
0
0
0
0
0
0
0
0
0
0
0
0
0
0
0
0
0
0
0
0
0
0
0
0
0
0
0
0
0
0
0
0
0
0
0
0
0
0
0
0
0
0
0
0
0
0
0
0
0
0
0
0
0
0
0
0
0
0
0
0
0
0
0
0
0
0
0
0
0
0
0
0
0
0
0
0
0
0
0
0
0
0
0
0
0
0
0
0
0
0
0
0
0
0
0
0
0
0
0
0
0
0
0
0
0
0
0
0
0
0
0
0
0
0
0
0
0
0
0
0
0
0
0
0
0
0
0
0
0
0
0
0
0
0
0
0
0
0
0
0
0
0
0
0
0
0
0
0
0
0
0
0
0
0
0
0
0
0
0
0
0
0
0
0
0
0
0
0
0
0
0
0
0
0
0
0
0
0
0
0
0
0
0
0
0
0
0
0
0
0
0
0
0
0
0
0
0
0
0
0
0
0
0
0
0
0
0
0
0
0
0
0
0
0
0
0
0
0
0
0
0
0
0
0
0
0
0
0
0
0
0
0
0
0
0
0
0
0
0
0
0
0
0
0
0
0
0
0
0
0
0
0
0
0
0
0
0
0
0
0
0
0
0
0
0
0
0
0
0
0
0
0
0
0
0
0
0
0
0
0
0
0
0
0
0
0
0
0
0
0
0
0
0
0
0
0
0
0
0
0
0
0
0
0
0
0
0
0
0
0
0
0
0
0
0
0
0
0
0
0
0
0
0
0
0
0
0
0
0
0
0
0
0
0
0
0
0
0
0
0
0
0
0
0
0
0
0
0
0
0
0
0
0
0
0
0
0
0
0
0
0
0
0
0
0
0
0
0
0
0
0
0
0
0
1 0
1 1
1 2
0
0
0
0
0
0
0
0
0
0
0
0
0
0
0
0
0
0
0
0
0
0
0
0
0
0
0
0
0
0
0
0
0
0
0
0
0
0
0
0
0
0
0
0
0
0
0
0
0
0
1 3
0
0
0
0
0
0
0
0
0
0
0
0
0
0
0
0
0
0
0
0
0
0
0
0
0
0
0
0
0
0
0
0
0
0
0
0
0
0
0
0
0
0
0
0
0
0
0
0
0
1 4
0
0
0
0
0
0
0
0
0
0
0
0
0
0
0
0
0
0
0
0
0
0
0
0
0
0
0
0
0
0
0
0
0
0
0
0
0
0
0
0
0
0
0
0
0
1 5
1 6
1 7
1 8
1 9
1 10
0
0
0
0
0
0
0
0
0
0
0
0
0
0
0
0
0
0
0
0
0
0
0
0
0
0
0
0
0
0
0
0
0
0
0
0
0
0
0
0
0
0
1 11
1 12
1 13
1 14
1 15
1 16
1 17
1 18
1 19
1 20
0
0
0
0
0
0
0
0
0
0
0
0
0
0
0
0
0
0
0
0
0
0
0
0
0
0
0
0
0
0
0
0
0
0
0
0
0
0
0
0
1 21
1 22
0
1 23
1 24
1 25
1 26
1 27
1 28
1 29
0
0
0
0
0
0
0
0
0
0
0
0
0
0
0
0
0
0
0
0
0
0
0
0
0
0
0
0
0
0
0
0
0
0
0
0
0
0
0
0
1 30
1 31
0
1 32
1 33
1 34
1 35
1 36
1 37
1 38
0
0
0
0
0
0
0
0
0
0
0
0
0
0
0
0
0
0
0
0
0
0
0
0
0
0
0
0
0
0
0
0
0
0
0
0
0
0
0
0
0
1 39
1 40
1 41
1 42
1 43
1 44
1 45
1 46
1 47
1 48
1 49
0
0
0
0
0
0
0
0
0
0
0
0
0
0
0
0
0
0
0
0
0
0
0
0
0
0
0
0
0
0
0
0
0
0
0
0
1 50
1 51
1 52
1 53
1 54
1 55
1 56
1 57
1 58
1 59
1 60
1 61
1 62
1 63
0
0
0
0
0
0
0
0
0
0
0
0
0
0
0
0
0
0
0
0
0
0
0
0
0
0
0
0
0
0
0
0
0
0
0
0
1 64
0
1 65
1 66
1 67
1 68
0
0
1 69
1 70
1 71
1 72
1 73
1 74
0
0
0
0
0
0
0
0
0
0
0
0
0
0
0
0
0
0
0
0
0
0
0
0
0
0
0
0
0
0
0
0
0
0
0
0
1 75
1 76
1 77
1 78
1 79
1 80
1 81
1 82
1 83
1 84
1 85
1 86
1 87
1 88
1 89
0
0
0
0
0
0
0
0
0
0
0
0
0
0
0
0
0
0
0
0
0
0
0
0
0
0
0
0
0
0
0
0
0
0
0
1 90
1 91
1 92
1 93
0
1 94
1 95
1 96
1 97
1 98
1 99
1 100
1 101
0
1 102
0
0
0
0
0
0
0
0
0
0
0
0
0
0
0
0
0
0
0
0
0
0
0
0
0
0
0
0
0
0
0
0
0
1 103
1 104
1 105
1 106
1 107
1 108
1 109
1 110
1 111
1 112
1 113
1 114
1 115
1 116
1 117
1 118
1 119
0
0
0
0
0
0
0
0
0
0
0
0
0
0
0
0
0
0
0
0
0
0
0
0
0
0
0
0
0
0
0
0
0
1 120
1 121
1 122
1 123
1 124
1 125
1 126
1 127
1 128
1 129
1 130
1 131
1 132
1 133
1 134
1 135
1 136
0
0
0
0
0
0
0
0
0
0
0
0
0
0
0
0
0
0
0
0
0
0
0
0
0
0
0
0
0
0
0
0
0
1 137
1 138
1 139
1 140
1 141
1 142
1 143
1 144
1 145
1 146
1 147
0
1 148
1 149
1 150
1 151
1 152
0
0
0
0
0
0
0
0
0
0
0
0
0
0
0
0
0
0
0
0
0
0
0
0
0
0
0
0
0
0
0
0
0
0
1 153
1 154
1 155
1 156
1 157
1 158
1 159
1 160
1 161
1 162
1 163
0
1 164
1 165
1 166
1 167
0
0
0
0
0
0
0
0
0
0
0
0
0
0
0
0
0
0
0
0
0
0
0
0
0
0
0
0
0
0
0
0
0
0
0
1 168
1 169
1 170
1 171
1 172
1 173
1 174
1 175
1 176
1 177
0
1 178
1 179
1 180
0
0
0
0
0
0
0
0
0
0
0
0
0
0
0
0
0
0
0
0
0
0
0
0
0
0
0
0
0
0
0
0
0
0
0
0
0
0
1 181
1 182
1 183
1 184
1 185
1 186
1 187
1 188
1 189
1 190
1 191
0
0
0
0
0
0
0
0
0
0
0
0
0
0
0
0
0
0
0
0
0
0
0
0
0
0
0
0
0
0
0
0
0
0
0
0
0
0
0
0
0
0
1 192
1 193
1 194
1 195
1 196
0
0
0
0
0
0
0
0
0
0
0
0
0
0
0
0
0
0
0
0
0
0
0
0
0
0
0
0
0
0
0
0
0
0
0
0
0
0
0
0
0
0
0
0
0
0
0
0
0
0
0
0
0
0
0
0
0
0
0
0
0
0
0
0
0
0
0
0
0
0
0
0
0
0
0
0
0
0
0
0
0
0
0
0
0
0
0
0
0
0
0
0
0
0
0
0
0
0
0
0
0
0
0
0
0
0
0
0
0
0
0
0
0
0
0
0
0
0
0
0
0
0
0
0
0
0
0
0
0
0
0
0
0
0
0
0
0
0
0
0
0
0
0
0
0
0
0
0
0
0
0
0
0
0
0
0
0
0
0
0
0
0
0
0
0
0
0
0
0
0
0
0
0
0
0
0
0
0
0
0
0
0
0
0
0
0
0
0
0
0
0
0
0
0
0
0
0
0
0
0
0
0
0
0
0
0
0
0
0
0
0
0
0
0
0
0
0
0
0
0
0
0
0
0
0
0
0
0
0
0
0
0
0
0
0
0
0
0
0
0
0
0
0
0
0
0
0
0
0
0
0
0
0
0
0
0
0
0
0
0
0
0
0
0
0
0
0
0
0
0
0
0
0
0
0
0
0
0
0
0
0
0
0
0
0
0
0
0
0
0
0
0
0
0
0
0
0
0
0
0
0
0
0
0
0
0
0
0
0
0
0
0
0
0
0
0
0
0
0
0
0
0
0
0
0
0
0
0
0
0
0
0
0
0
0
0
0
0
0
0
0
0
0
0
0
0
0
0
0
0
0
0
0
0
0
0
0
0
0
0
0
0
0
0
0
0
0
0
0
0
0
0
0
0
0
0
0
0
0
0
0
0
0
0
0
0
0
0
0
0
0
0
0
0
0
0
0
0
0
0
0
0
0
0
0
0
0
0
0
0
0
0
0
0
0
0
0
0
0
0
0
0
0
0
0
0
0
0
0
0
0
0
0
0
0
0
0
0
0
0
0
0
0
0
0
0
0
0
0
0
0
0
0
0
0
0
0
0
0
0
0
0
0
0
0
0
0
0
0
0
0
0
0
0
0
0
0
0
0
0
0
0
0
0
0
0
0
0
0
0
0
0
0
0
0
0
0
0
0
0
0
0
0
0
0
0
0
0
0
0
0
0
0
0
0
0
0
0
0
0
0
0
0
0
0
0
0
0
0
0
0
0
0
0
0
0
0
0
0
0
0
0
0
0
0
0
0
0
0
0
0
0
0
0
0
0
0
0
0
0
0
0
0
0
0
0
0
0
0
0
0
0
0
0
0
0
0
0
0
0
0
0
0
0
0
0
0
0
0
0
0
0
0
0
0
0
0
0
0
0
0
0
0
0
0
0
0
0
0
0
0
0
0
0
0
0
0
0
0
0
0
0
0
0
0
0
0
0
0
0
0
0
0
0
0
0
0
0
0
0
0
0
0
0
0
0
0
0
0
0
0
0
0
0
0
0
0
0
0
0
0
0
0
0
0
0
0
0
0
0
0
0
0
0
0
0
0
0
0
0
0
0
0
0
0
0
0
0
0
0
0
0
0
0
0
0
0
0
0
0
0
0
0
0
0
0
0
0
0
0
0
0
0
0
0
0
0
0
0
0
0
0
0
0
0
0
0
0
0
0
0
0
0
0
0
0
0
0
0
0
0
0
0
0
0
0
0
0
0
0
0
0
0
0
0
0
0
0
0
0
0
0
0
0
0
0
0
0
0
0
0
0
0
0
0
0
0
0
0
0
0
0
0
0
0
0
0
0
0
0
0
0
0
0
0
0
0
0
0
0
0
0
0
0
0
0
0
0
0
0
0
0
0
0
0
0
0
0
0
0
0
0
0
0
0
0
0
0
0
0
0
0
0
0
0
0
0
0
0
0
0
0
0
0
0
0
0
0
0
0
0
0
0
0
0
0
0
0
0
0
0
0
0
0
0
0
0
0
0
0
0
0
0
0
