ply
format ascii 1.0
obj_info num_cols 50
obj_info num_rows 50
element vertex 200
property float x
property float y
property float z
element range_grid 2500
property list uchar int vertex_indices
end_header
-4.7135715 13.9446339 22.3274880
1.9764320 13.0480209 20.6880561
2.1542477 11.1194572 20.1397476
-2.4503717 11.2074933 13.3914786
-0.3463044 11.6102845 12.9750833
1.5381148 11.6241272 13.4424840
3.2750996 11.3058017 14.6753338
4.4835962 9.6058324 19.1145768
-1.6231921 10.5877597 10.1141937
0.2981930 10.7257607 10.3045928
2.1308596 10.6934541 10.8660432
3.6823640 9.9867452 12.9154502
4.8504480 8.1316487 17.5238999
-2.7280282 9.8423996 6.8107033
-0.8488715 9.9601924 7.0477387
0.9830669 9.9968258 7.4523202
2.7915338 9.9854327 7.9572338
4.3466740 9.3408424 9.7998407
4.8198241 5.5921995 18.2424740
7.1464845 6.6508213 16.5107695
-1.8950549 9.3358757 3.6779689
-0.0688368 9.4328557 3.9555550
1.7309376 9.4866058 4.3180743
3.4393567 9.3315549 5.1004575
4.7914249 8.2183243 7.8262390
6.7798780 2.9040824 19.6551299
7.7746670 -0.8131042 27.8242200
10.3248485 0.8604231 24.9406894
-6.0414156 6.3231519 4.5312702
-3.8835265 6.9287089 3.8667489
-1.9475503 7.1813087 3.8637205
-0.0615758 7.3651598 3.9877432
1.7868702 7.4921152 4.2179320
3.4886828 7.2762224 5.1089107
4.7769712 5.8918282 8.2748310
6.9228148 6.7949355 6.9999531
7.0933451 1.2513418 18.3571071
10.7594838 -0.3265934 22.5473303
-3.1222794 6.3128954 1.1385705
-1.1890185 6.6391229 1.0105216
0.5941803 6.6834171 1.3952673
2.3663476 6.7078073 1.8160997
4.0788063 6.5808005 2.5178206
5.6573960 6.0470950 3.9811083
7.1875420 5.2441234 5.9592397
7.4927363 -0.0850431 16.4829808
10.7971145 -3.2950575 23.6471273
-4.2940376 5.4137780 -1.4169844
-2.3597318 5.7776630 -1.5912722
-0.5421752 5.9437175 -1.4238086
1.2263894 6.0220091 -1.1039947
2.9493290 5.9991761 -0.6057754
4.5998208 5.7754128 0.2517382
6.1202375 5.1199168 1.8880182
7.1954609 2.8516007 6.4442891
8.0722831 -0.7120225 13.3877460
10.4136039 0.9069786 10.9570863
10.8118866 -6.4974575 25.0079661
-3.5782840 4.7866984 -3.8700408
-1.6752313 5.1615299 -4.0466941
0.0895563 5.2831706 -3.8011679
1.8157916 5.3308488 -3.4318287
3.4988542 5.2741213 -2.8847452
5.0909345 4.9497417 -1.8768018
6.5542918 4.1602359 -0.0602176
7.4416704 1.2090427 5.5204265
10.7047289 -0.6378389 9.7276607
-10.0165935 0.7113786 -2.0722216
-5.1874517 3.0307921 -4.8429011
-3.0389450 3.8743259 -5.7470888
-1.1721601 4.2266281 -5.8689906
0.5836290 4.3738640 -5.6625809
2.2824407 4.4020315 -5.2635719
3.9097684 4.2420031 -4.5552469
5.4439515 3.7781450 -3.3416794
6.8647547 2.8524161 -1.3526182
7.6938378 -0.4134531 4.5610488
10.5757404 -4.1230814 11.7900453
-9.6242250 -0.6266541 -3.3962317
-4.5265200 2.3328601 -7.0234126
-2.5369118 2.9291662 -7.5005391
-0.7138984 3.2352444 -7.5341014
1.0124250 3.3544632 -7.2792945
2.6769610 3.3325875 -6.8037867
4.2780712 3.1288977 -6.0396158
5.7704700 2.5541043 -4.6807809
7.2037424 1.6605826 -2.8021830
8.3237079 -0.6165015 1.3177131
10.4877264 0.9455038 -0.7354651
10.7326796 -6.3893774 11.6490520
-9.9402991 -0.0985032 -7.8968599
-8.5302412 -0.6773322 -6.5883786
-3.7963284 1.8344503 -9.4076753
-1.9955080 2.1094579 -9.3785197
-0.2500731 2.2937854 -9.2171534
1.4505252 2.3935237 -8.9306580
3.0979220 2.3661452 -8.4523898
4.6785119 2.1392001 -7.6686453
6.1555248 1.5391895 -6.3082366
7.5097845 0.3818284 -4.0778799
10.6538705 -0.9215581 -1.1396625
-9.9039817 0.9523602 -12.8767171
-9.1646286 -0.6725806 -10.1451650
-7.5017600 -0.7463292 -9.5922926
-5.0198755 0.7910023 -11.3391080
-3.0804964 1.3762447 -11.7422913
-1.3513077 1.5670026 -11.5849194
0.3462425 1.7079075 -11.3580433
2.0001195 1.7569506 -10.9992455
3.5941828 1.6472235 -10.4083143
5.1258516 1.3292976 -9.5087590
6.5696636 0.6591664 -8.0824537
7.8671521 -0.6888920 -5.6362585
10.6785464 -3.4737841 -0.5482988
-8.9168200 0.8138881 -15.5318446
-8.1363081 -0.7205261 -13.0149274
-6.4619446 -0.6950127 -12.6128800
-4.2318210 0.4693161 -13.7802430
-2.4319318 0.8420925 -13.8683219
-0.7194706 1.0607979 -13.7472942
0.9182965 1.1246352 -13.4126090
2.5240282 1.1121414 -12.9713593
4.0798748 0.9533737 -12.3228724
5.5495641 0.4959569 -11.2471387
6.8924368 -0.4867542 -9.4134153
10.5164340 0.8324547 -10.4474106
10.7370387 -5.9515370 -0.1693406
-8.1398796 0.3820562 -17.6776158
-7.1129260 -0.6835679 -15.8577454
-5.4974968 -0.6921098 -15.4205956
-3.5741563 -0.0517115 -15.8463222
-1.8016563 0.3288977 -15.9338650
-0.1408436 0.4919883 -15.7344090
1.4641678 0.5345790 -15.3743666
3.0257719 0.4633574 -14.8602059
4.5330076 0.2175859 -14.1064706
5.9094444 -0.4978736 -12.7040011
7.4832584 -0.6509951 -12.0675133
9.5285106 1.0267786 -13.9699669
10.1251922 -3.3196486 -7.4915561
-7.3434015 0.0492173 -19.8582692
-6.1587776 -0.6860981 -18.5139912
-4.5529059 -0.6354302 -18.1631972
-2.9870540 -0.6666771 -17.7078425
-1.3069715 -0.4376825 -17.5880675
0.3361114 -0.2703095 -17.3914466
1.9075114 -0.2695598 -16.9795840
3.4410135 -0.3774686 -16.4250328
4.9492859 -0.5820172 -15.7413485
6.5099853 -0.6479482 -15.2386225
9.3614124 -1.9376532 -12.6775348
-6.5038881 -0.1350559 -22.1278243
-5.2396468 -0.6698103 -21.0698409
-3.6893439 -0.6567239 -20.6804547
-2.1360748 -0.6359606 -20.3007112
-0.5988412 -0.6515449 -19.8758353
0.9141370 -0.7317863 -19.3695539
2.4639007 -0.7235462 -18.9737301
4.0123003 -0.7187743 -18.5735563
5.5907143 -0.6180002 -18.2958284
8.5450663 -1.1365841 -16.8159282
8.5995524 -7.5703111 -8.0674721
-5.5232847 0.0312716 -24.7125393
-4.3525185 -0.6329925 -23.5334209
-2.8397637 -0.6229404 -23.1495282
-1.3303389 -0.6199650 -22.7572220
0.1617509 -0.6600046 -22.3130118
1.6764286 -0.6465143 -21.9331268
3.1861595 -0.6457181 -21.5378801
4.7090682 -0.6053073 -21.1911659
7.6245372 -0.9760877 -19.9392555
7.5401351 -7.3717396 -11.5675455
-4.5706158 0.2316587 -27.2168860
-3.5272226 -0.6435247 -25.8322524
-2.0337358 -0.6017079 -25.4934971
-0.5657987 -0.6165841 -25.0894836
0.8948419 -0.6525249 -24.6606469
2.3803177 -0.6263776 -24.3041039
3.8508599 -0.6406826 -23.9001319
5.8451585 0.9938627 -25.4516637
6.4645904 -1.8002469 -21.7425315
6.2588371 -8.2142934 -13.6550411
-3.5969541 0.5651991 -29.7540606
-2.7111117 -0.5954342 -28.0964046
-1.2766530 -0.6124816 -27.6992995
0.1707602 -0.6001465 -27.3348815
1.5995862 -0.6356209 -26.9166235
5.0430697 1.0434085 -28.0755998
5.2646937 -2.8054455 -23.2907679
-2.6160990 1.0079328 -32.2914448
-1.9379724 -0.5653029 -30.2437380
-0.5347238 -0.5825218 -29.8554529
0.8385401 -0.6786189 -29.3812726
4.2041445 0.8809838 -30.3528356
3.6427122 -5.1546434 -23.3260173
-1.8593445 1.0519674 -34.3007739
-1.1626743 -0.4545739 -32.3845513
2.1835085 1.0880435 -33.2830398
2.6163965 -1.4509750 -30.2477799
1.4082099 0.8747973 -35.3147766
0
0
0
0
0
0
0
0
0
0
0
0
0
0
0
0
0
0
0
0
0
0
0
0
0
0
0
0
0
0
0
0
0
0
0
0
0
0
0
0
0
0
0
0
0
0
0
0
0
0
0
0
0
0
0
0
0
0
0
0
0
0
0
0
0
0
0
0
0
0
0
0
0
0
0
0
0
0
0
0
0
0
0
0
0
0
0
0
0
0
0
0
0
0
0
0
0
0
0
0
0
0
0
0
0
0
0
0
0
0
0
0
0
0
0
0
0
0
0
0
0
0
0
0
0
0
0
0
0
0
0
0
0
0
0
0
0
0
0
0
0
0
0
0
0
0
0
0
0
0
0
0
0
0
0
0
0
0
0
0
0
0
0
0
0
0
0
0
0
0
0
0
0
0
0
0
0
0
0
0
0
0
0
0
0
0
0
0
0
0
0
0
0
0
0
0
0
0
0
0
0
0
0
0
0
0
0
0
0
0
0
0
0
0
0
0
0
0
0
0
0
0
0
0
0
0
0
0
0
0
0
0
0
0
0
0
0
0
0
0
0
0
0
0
0
0
0
0
0
0
0
0
0
0
0
0
0
0
0
0
0
0
0
0
0
0
0
0
0
0
0
0
0
0
0
0
0
0
0
0
0
0
0
0
0
0
0
0
0
0
0
0
0
0
0
0
0
0
0
0
0
0
0
0
0
0
0
0
0
0
0
0
0
0
0
0
0
0
0
0
0
0
0
0
0
0
0
0
0
0
0
0
0
0
0
0
0
0
0
0
0
0
0
0
0
0
0
0
0
0
0
0
0
0
0
0
0
0
0
0
0
0
0
0
0
0
0
0
0
0
0
0
0
0
0
0
0
0
0
0
0
0
0
0
0
0
0
0
0
0
0
0
0
0
0
0
0
0
0
0
0
0
0
0
0
0
0
0
0
0
0
0
0
0
0
0
0
0
0
0
0
0
0
0
0
0
0
0
0
0
0
0
0
0
0
0
0
0
0
0
0
0
0
0
0
0
0
0
0
0
0
0
0
0
0
0
0
0
0
0
0
0
0
0
0
0
0
0
0
0
0
0
0
0
0
0
0
0
0
0
0
0
0
0
0
0
0
0
0
0
0
0
0
0
0
0
0
0
0
0
0
0
0
0
0
0
0
0
0
0
0
0
0
0
0
0
0
0
0
0
0
0
0
0
0
0
0
0
0
0
0
0
0
0
0
0
0
0
0
0
0
0
0
0
0
0
0
0
0
0
0
0
0
0
0
0
0
0
0
0
0
0
0
0
0
0
0
0
0
0
0
0
0
0
0
0
0
0
0
0
0
0
0
0
0
0
0
0
0
0
0
0
0
0
0
0
0
0
0
0
0
0
0
0
0
0
0
0
0
0
0
0
0
0
0
0
0
0
0
0
0
0
0
0
0
0
0
0
0
0
0
0
0
0
0
0
0
0
0
0
0
0
0
0
0
0
0
0
0
0
0
0
0
0
0
0
0
0
0
0
0
0
0
0
0
0
0
0
0
0
0
0
0
0
0
1 0
0
0
0
0
0
0
0
0
0
0
0
0
0
0
0
0
0
0
0
0
0
0
0
0
0
0
0
0
0
0
0
0
0
0
0
0
0
0
0
0
0
0
0
0
0
0
0
0
0
0
0
0
1 1
0
0
0
0
0
0
0
0
0
0
0
0
0
0
0
0
0
0
0
0
0
0
0
0
0
0
0
0
0
0
0
0
0
0
0
0
0
0
0
0
0
0
0
0
0
0
0
0
0
1 2
0
0
0
0
0
0
0
0
0
0
0
0
0
0
0
0
0
0
0
0
0
0
0
0
0
0
0
0
0
0
0
0
0
0
0
0
0
0
0
0
0
0
0
0
0
0
1 3
1 4
1 5
1 6
1 7
0
0
0
0
0
0
0
0
0
0
0
0
0
0
0
0
0
0
0
0
0
0
0
0
0
0
0
0
0
0
0
0
0
0
0
0
0
0
0
0
0
0
0
0
0
1 8
1 9
1 10
1 11
1 12
0
0
0
0
0
0
0
0
0
0
0
0
0
0
0
0
0
0
0
0
0
0
0
0
0
0
0
0
0
0
0
0
0
0
0
0
0
0
0
0
0
0
0
0
1 13
1 14
1 15
1 16
1 17
1 18
1 19
0
0
0
0
0
0
0
0
0
0
0
0
0
0
0
0
0
0
0
0
0
0
0
0
0
0
0
0
0
0
0
0
0
0
0
0
0
0
0
0
0
0
0
1 20
1 21
1 22
1 23
1 24
0
1 25
1 26
1 27
0
0
0
0
0
0
0
0
0
0
0
0
0
0
0
0
0
0
0
0
0
0
0
0
0
0
0
0
0
0
0
0
0
0
0
0
0
0
0
1 28
1 29
1 30
1 31
1 32
1 33
1 34
1 35
1 36
0
1 37
0
0
0
0
0
0
0
0
0
0
0
0
0
0
0
0
0
0
0
0
0
0
0
0
0
0
0
0
0
0
0
0
0
0
0
0
0
0
0
0
1 38
1 39
1 40
1 41
1 42
1 43
1 44
1 45
0
1 46
0
0
0
0
0
0
0
0
0
0
0
0
0
0
0
0
0
0
0
0
0
0
0
0
0
0
0
0
0
0
0
0
0
0
0
0
0
0
0
1 47
1 48
1 49
1 50
1 51
1 52
1 53
1 54
1 55
1 56
1 57
0
0
0
0
0
0
0
0
0
0
0
0
0
0
0
0
0
0
0
0
0
0
0
0
0
0
0
0
0
0
0
0
0
0
0
0
0
0
0
1 58
1 59
1 60
1 61
1 62
1 63
1 64
1 65
0
1 66
0
0
0
0
0
0
0
0
0
0
0
0
0
0
0
0
0
0
0
0
0
0
0
0
0
0
0
0
0
0
0
0
0
0
0
0
0
1 67
0
1 68
1 69
1 70
1 71
1 72
1 73
1 74
1 75
1 76
0
1 77
0
0
0
0
0
0
0
0
0
0
0
0
0
0
0
0
0
0
0
0
0
0
0
0
0
0
0
0
0
0
0
0
0
0
0
0
0
1 78
0
1 79
1 80
1 81
1 82
1 83
1 84
1 85
1 86
1 87
1 88
1 89
0
0
0
0
0
0
0
0
0
0
0
0
0
0
0
0
0
0
0
0
0
0
0
0
0
0
0
0
0
0
0
0
0
0
0
0
1 90
1 91
0
1 92
1 93
1 94
1 95
1 96
1 97
1 98
1 99
0
1 100
0
0
0
0
0
0
0
0
0
0
0
0
0
0
0
0
0
0
0
0
0
0
0
0
0
0
0
0
0
0
0
0
0
0
0
0
1 101
1 102
1 103
1 104
1 105
1 106
1 107
1 108
1 109
1 110
1 111
1 112
0
1 113
0
0
0
0
0
0
0
0
0
0
0
0
0
0
0
0
0
0
0
0
0
0
0
0
0
0
0
0
0
0
0
0
0
0
0
0
1 114
1 115
1 116
1 117
1 118
1 119
1 120
1 121
1 122
1 123
1 124
0
1 125
1 126
0
0
0
0
0
0
0
0
0
0
0
0
0
0
0
0
0
0
0
0
0
0
0
0
0
0
0
0
0
0
0
0
0
0
0
0
1 127
1 128
1 129
1 130
1 131
1 132
1 133
1 134
1 135
1 136
1 137
1 138
1 139
0
0
0
0
0
0
0
0
0
0
0
0
0
0
0
0
0
0
0
0
0
0
0
0
0
0
0
0
0
0
0
0
0
0
0
0
0
1 140
1 141
1 142
1 143
1 144
1 145
1 146
1 147
1 148
1 149
0
1 150
0
0
0
0
0
0
0
0
0
0
0
0
0
0
0
0
0
0
0
0
0
0
0
0
0
0
0
0
0
0
0
0
0
0
0
0
0
0
1 151
1 152
1 153
1 154
1 155
1 156
1 157
1 158
1 159
0
1 160
1 161
0
0
0
0
0
0
0
0
0
0
0
0
0
0
0
0
0
0
0
0
0
0
0
0
0
0
0
0
0
0
0
0
0
0
0
0
0
0
1 162
1 163
1 164
1 165
1 166
1 167
1 168
1 169
0
1 170
1 171
0
0
0
0
0
0
0
0
0
0
0
0
0
0
0
0
0
0
0
0
0
0
0
0
0
0
0
0
0
0
0
0
0
0
0
0
0
0
0
1 172
1 173
1 174
1 175
1 176
1 177
1 178
1 179
1 180
1 181
0
0
0
0
0
0
0
0
0
0
0
0
0
0
0
0
0
0
0
0
0
0
0
0
0
0
0
0
0
0
0
0
0
0
0
0
0
0
0
0
1 182
1 183
1 184
1 185
1 186
0
1 187
1 188
0
0
0
0
0
0
0
0
0
0
0
0
0
0
0
0
0
0
0
0
0
0
0
0
0
0
0
0
0
0
0
0
0
0
0
0
0
0
0
0
0
0
1 189
1 190
1 191
1 192
0
1 193
1 194
0
0
0
0
0
0
0
0
0
0
0
0
0
0
0
0
0
0
0
0
0
0
0
0
0
0
0
0
0
0
0
0
0
0
0
0
0
0
0
0
0
0
0
1 195
1 196
0
1 197
1 198
0
0
0
0
0
0
0
0
0
0
0
0
0
0
0
0
0
0
0
0
0
0
0
0
0
0
0
0
0
0
0
0
0
0
0
0
0
0
0
0
0
0
0
0
0
0
0
1 199
0
0
0
0
0
0
0
0
0
0
0
0
0
0
0
0
0
0
0
0
0
0
0
0
0
0
0
0
0
0
0
0
0
0
0
0
0
0
0
0
0
0
0
0
0
0
0
0
0
0
0
0
0
0
0
0
0
0
0
0
0
0
0
0
0
0
0
0
0
0
0
0
0
0
0
0
0
0
0
0
0
0
0
0
0
0
0
0
0
0
0
0
0
0
0
0
0
0
0
0
0
0
0
0
0
0
0
0
0
0
0
0
0
0
0
0
0
0
0
0
0
0
0
0
0
0
0
0
0
0
0
0
0
0
0
0
0
0
0
0
0
0
0
0
0
0
0
0
0
0
0
0
0
0
0
0
0
0
0
0
0
0
0
0
0
0
0
0
0
0
0
0
0
0
0
0
0
0
0
0
0
0
0
0
0
0
0
0
0
0
0
0
0
0
0
0
0
0
0
0
0
0
0
0
0
0
0
0
0
0
0
0
0
0
0
0
0
0
0
0
0
0
0
0
0
0
0
0
0
0
0
0
0
0
0
0
0
0
0
0
0
0
0
0
0
0
0
0
0
0
0
0
0
0
0
0
0
0
0
0
0
0
0
0
0
0
0
0
0
0
0
0
0
0
0
0
0
0
0
0
0
0
0
0
0
0
0
0
0
0
0
0
0
0
0
0
0
0
0
0
0
0
0
0
0
0
0
0
0
0
0
0
0
0
0
0
0
0
0
0
0
0
0
0
0
0
0
0
0
0
0
0
0
0
0
0
0
0
0
0
0
0
0
0
0
0
0
0
0
0
0
0
0
0
0
0
0
0
0
0
0
0
0
0
0
0
0
0
0
0
0
0
0
0
0
0
0
0
0
0
0
0
0
0
0
0
0
0
0
0
0
0
0
0
0
0
0
0
0
0
0
0
0
0
0
0
0
0
0
0
0
0
0
0
0
0
0
0
0
0
0
0
0
0
0
0
0
0
0
0
0
0
0
0
0
0
0
0
0
0
0
0
0
0
0
0
0
0
0
0
0
0
0
0
0
0
0
0
0
0
0
0
0
0
0
0
0
0
0
0
0
0
0
0
0
0
0
0
0
0
0
0
0
0
0
0
0
0
0
0
0
0
0
0
0
0
0
0
0
0
0
0
0
0
0
0
0
0
0
0
0
0
0
0
0
0
0
0
0
0
0
0
0
0
0
0
0
0
0
0
0
0
0
0
0
0
0
0
0
0
0
0
0
0
0
0
0
0
0
0
0
0
0
0
0
0
0
0
0
0
0
0
0
0
0
0
0
0
0
0
0
0
0
0
0
0
0
0
0
0
0
0
0
0
0
0
0
0
0
0
0
0
0
0
0
0
0
0
0
0
0
0
0
0
0
0
0
0
0
0
0
0
0
0
0
0
0
0
0
0
0
0
0
0
0
0
0
0
0
0
