ply
format ascii 1.0
obj_info num_cols 50
obj_info num_rows 50
element vertex 336
property float x
property float y
property float z
element range_grid 2500
property list uchar int vertex_indices
end_header
4.5153484 14.1263070 22.7515837
0.4116929 14.0938774 21.3929279
-3.0165004 14.0431724 21.6785976
1.5242905 11.4153834 19.9046818
3.1299953 10.3302656 18.1267734
2.7610056 10.2941646 16.4282893
1.0857357 10.9615655 14.8529590
-1.2504645 11.9929799 13.3994853
-0.1157135 11.1462726 11.5536109
0.3106214 10.6786727 9.7567165
0.6638790 10.2467449 7.9395192
0.9885240 9.8264691 6.0972867
1.1726375 9.4800494 4.2548114
-2.0881143 11.4757052 20.2430566
1.4321147 9.2928851 18.4082619
-3.4145824 11.5222319 15.4268047
-3.1632238 11.1478147 13.7445850
-2.9577802 10.7957848 12.0431173
-2.8156637 10.4763518 10.3273104
-2.6688314 10.1511512 8.5888634
-2.7702634 9.9651733 6.8753342
-2.6025155 9.6222692 5.0923854
1.3349730 7.0931973 2.4189450
2.0255844 6.4286413 0.3816748
2.6808378 5.7782164 -1.6924816
9.9717130 0.9264135 -7.8410637
9.7350080 0.7681301 -9.8828660
9.4296027 0.6492172 -11.9117804
8.9717572 0.6204666 -13.8922045
8.5138208 0.5914603 -15.8747965
8.0063224 0.5921512 -17.8389033
7.3965461 0.6550799 -19.7580949
6.8240680 0.6958178 -21.6900754
6.1879965 0.7760624 -23.5883872
5.4932414 0.8933944 -25.4511510
4.8570412 0.9755487 -27.3364082
4.2750112 1.0247100 -29.2456637
5.9369139 5.7520637 25.4205593
-2.3482511 9.7289879 20.4448540
-3.4187845 10.1052548 18.8622142
-4.0272565 10.2176151 17.2694406
-3.9840371 9.9520286 15.6232188
-3.9730856 9.7027481 13.9632002
-4.0487159 9.5018978 12.2981068
-4.2929643 9.3985759 10.6450589
-4.5061729 9.2758371 8.9797980
-4.6971556 9.1386484 7.3020595
-3.0544706 7.9024334 5.2308333
-2.2379503 7.1510426 3.2662382
-1.9852523 6.7330631 1.3917565
-1.6185073 6.2416310 -0.5420114
-1.2450353 5.7411725 -2.5113340
-0.5911457 5.0636085 -4.6025340
2.0332244 3.1639750 -7.3968917
3.9107528 1.7080027 -10.0580660
7.1517389 -0.6122371 -13.3332705
6.6862363 -0.6353071 -15.2964325
6.2290616 -0.6638756 -17.2648454
5.6622417 -0.6233916 -19.1869479
5.0770933 -0.5708506 -21.0977989
4.5697985 -0.5675498 -23.0429628
4.0476983 -0.5547202 -24.9804748
3.6117015 -0.5973997 -26.9631150
2.9611688 -0.5012222 -28.8295583
2.2144826 -0.3412580 -30.6333231
1.3240449 -0.0852355 -32.3386305
0.5080772 0.1243822 -34.0720101
-1.3107103 1.0016705 -35.1351969
0.7284133 6.7380685 25.5804105
-4.3658559 9.0016014 20.7109614
-4.7340246 8.9753372 19.1105344
-4.7194552 8.7188981 17.4806384
-4.7494178 8.4868623 15.8385335
-4.7569825 8.2389902 14.1791423
-4.7529425 7.9816291 12.5023513
-4.7231860 7.7059983 10.8051404
-4.5386627 7.3324136 9.0639296
-4.7770491 7.2166724 7.3783622
-4.8095512 6.9718209 5.6421314
-4.7390504 6.6601906 3.8661813
-4.6388612 6.3267988 2.0622511
-4.4463644 5.9318164 0.2112447
-4.1904930 5.4926549 -1.6845338
-3.7367303 4.9229264 -3.6715506
-2.7266145 3.9910551 -5.8826283
-1.2912889 2.7758996 -8.3077323
-0.4714772 1.9464874 -10.5829923
-0.0646996 1.3771118 -12.7498907
0.4384682 0.7387767 -14.9964920
1.8647281 -0.5129093 -17.6969837
1.6622169 -0.7017168 -19.7239301
1.0790545 -0.6397311 -21.5777255
0.5540006 -0.6159042 -23.4571234
0.0367450 -0.5970772 -25.3391606
-0.4214041 -0.6179557 -27.2531024
-0.9231486 -0.6095007 -29.1431983
-3.7607658 0.6656518 -31.7614398
-2.7079337 6.8306786 25.7565522
-0.3981875 5.1632904 24.1466373
-4.2551249 7.0112201 20.9020818
-4.6893521 7.0219910 19.2868467
-4.7319130 6.7888343 17.6445406
-4.7126273 6.5146836 15.9822697
-4.7470343 6.2716243 14.3088318
-4.7119338 5.9822293 12.6112850
-4.7498144 5.7363345 10.9064149
-6.9266478 6.8535423 9.5456403
-7.1400987 6.7221458 7.8855615
-7.1715917 6.4720953 6.1791248
-7.1180189 6.1643933 4.4371999
-5.9532193 5.1298266 2.3979826
-6.1846938 4.9987586 0.6701079
-5.8941788 4.5228996 -1.2186583
-5.4480138 3.9392146 -3.1871696
-4.8591921 3.2546742 -5.2416349
-4.1800020 2.5026483 -7.3733388
-3.7593652 1.9164311 -9.4568667
-3.4665171 1.4103384 -11.5281501
-3.1381310 0.8747843 -13.6483250
-2.7177561 0.2707848 -15.8455375
-1.9092994 -0.6058470 -18.2655933
-2.2974843 -0.6666855 -20.1560477
-2.8239246 -0.6323465 -21.9794601
-3.2770184 -0.6487810 -23.8402162
-6.2958771 0.8064453 -26.3237757
-5.7925502 6.8134770 25.9273751
-3.5559451 5.1383834 24.3647596
-6.9653084 6.7810945 21.1838490
-7.0715858 6.5871299 19.5871203
-7.0753969 6.3250865 17.9717182
-7.0004948 6.0093789 16.3336206
-6.9794548 5.7256747 14.6822332
-6.9811903 5.4540748 13.0165021
-7.0210537 5.2048712 11.3397866
-7.0080184 4.9181459 9.6389182
-7.0382398 4.6573014 7.9284700
-7.0163477 4.3589633 6.1909980
-7.0579700 4.1002638 4.4494608
-7.1457546 3.8700888 2.7032295
-7.2440160 3.6446499 0.9453183
-6.9417951 3.1435823 -0.9438976
-6.5576925 2.5811411 -2.8906177
-6.2685099 2.0782730 -4.8413696
-6.0343249 1.6082420 -6.8047191
-5.8578615 1.1734643 -8.7764674
-5.6089055 0.6832904 -10.8056012
-5.3554525 0.1847169 -12.8686117
-4.8842532 -0.4733594 -15.0619014
-5.1021317 -0.6480823 -16.9736732
-5.5609541 -0.6522951 -18.7778465
-8.2946967 0.9801995 -19.4023905
-8.0553534 0.4797366 -21.5316320
-4.9352655 -2.1216858 -25.3280433
-7.0914820 5.4635207 24.5672178
-7.1518774 5.2345314 22.9840024
1.5817927 -0.8230304 21.1392839
-4.6347148 2.7285962 17.9741639
-6.9748110 3.7314889 14.8145119
-6.9817093 3.4505495 13.1325307
-7.0253343 3.1918364 11.4391780
-7.1491035 2.9854685 9.7436532
-7.2014050 2.7277169 8.0223412
-7.2222901 2.4455482 6.2789152
-7.2628620 2.1741801 4.5228325
-7.3183765 1.9104580 2.7538920
-7.3549434 1.6306511 0.9636103
-7.4507729 1.3898330 -0.8266150
-7.5118869 1.1217888 -2.6427203
-7.3713742 0.7067732 -4.5433965
-7.2345254 0.2899786 -6.4687525
-7.0347476 -0.1767337 -8.4443480
-6.8675384 -0.6248042 -10.4363210
-7.2314291 -0.6898929 -12.2299909
-9.9256825 0.9551871 -12.9784425
-9.8305328 0.5590986 -14.9433976
-8.8360170 -0.5088552 -17.3815741
-7.0519655 -2.1777952 -20.3009887
-2.5436362 0.7141125 26.5224390
-2.5396095 0.4179171 24.8538884
-7.1718169 2.7132241 19.9573894
-4.8531668 0.8174628 18.1618033
-6.7623669 1.8463947 16.6150571
-6.8283615 1.5958570 14.9348164
-7.1845067 1.5468323 13.2761795
-7.1942566 1.2524374 11.5644893
-7.3989088 1.0934932 9.8678162
-7.4705704 0.8379293 8.1370396
-7.5007911 0.5499648 6.3825988
-7.5858719 0.2985799 4.6235911
-7.6504005 0.0296501 2.8444548
-7.6525142 -0.2876221 1.0322717
-7.7216457 -0.5591356 -0.7793897
-10.5506733 0.8822694 -3.5447084
-10.7350092 0.6983989 -5.3043964
-10.8093347 0.4301643 -7.1175385
-10.7155026 0.0324240 -9.0155162
-10.2287531 -0.6670500 -11.1067772
-9.4448934 -1.6003020 -13.3761339
-8.2111244 -2.8881138 -15.9183244
-6.0167377 -4.9293279 -19.0224065
-3.1515206 -0.6470362 28.4229464
-3.6086347 -0.6290706 26.7508246
-4.1462929 -0.5543304 25.0783782
-4.4498162 -0.6442520 23.4089449
-4.6817069 -0.7859366 21.7328266
-7.1377897 0.3549106 18.4816426
-7.1600094 0.0649785 16.8038813
-7.4021179 -0.0686475 15.1324232
-7.5872577 -0.2451296 13.4463733
-7.6715338 -0.4972489 11.7358078
-10.4226057 0.9000059 8.7495488
-10.5883191 0.7103889 7.0666435
-10.7075251 0.4840203 5.3621361
-10.6665651 0.1349560 3.6044906
-10.6411780 -0.2060677 1.8306615
-10.6342292 -0.5367475 0.0421931
-10.6554696 -0.8494764 -1.7569254
-10.7634914 -1.0990111 -3.5452867
-10.7954031 -1.4099767 -5.3760629
-10.5385211 -1.9483311 -7.3364543
-9.9406364 -2.7585244 -9.4682405
-9.0900857 -3.7757807 -11.7580064
-7.6000271 -5.3085526 -14.4005811
-4.3424797 -8.2597817 -17.9834593
-6.0175451 -0.6873171 28.5467390
-6.4296740 -0.6943350 26.9133259
-6.8558427 -0.6912319 25.2792066
-7.3242915 -0.6572223 23.6452284
-7.6678008 -0.7146318 22.0103620
-10.1716377 0.8217566 20.4601616
-10.5109146 0.7681123 18.8616539
-10.5589647 0.4967710 17.2366608
-10.6002353 0.2175446 15.5961113
-10.6072201 -0.0904092 13.9360141
-10.6651578 -0.3629962 12.2661201
-10.6428936 -0.6994903 10.5679595
-10.6633751 -1.0068262 8.8588660
-10.6503196 -1.3432172 7.1255872
-10.6238233 -1.6935863 5.3702406
-10.7339311 -1.9415163 3.6290423
-10.4544347 -2.4966142 1.7679246
-10.5685214 -2.7484536 -0.0094156
-10.7586465 -2.9429692 -1.7772746
-10.6450258 -3.3808936 -3.6594799
-10.3052745 -4.0042393 -5.6491371
-9.6364240 -4.8987627 -7.8022000
-8.5877121 -6.1099633 -10.1633431
-6.7449346 -7.9794776 -12.9399906
1.6763390 -7.1342954 36.2306965
-9.5584309 -0.1301051 28.6177270
-10.3984763 0.1925096 27.0179617
-10.5566216 0.0058279 25.4489300
-10.5393675 -0.3152606 23.8703555
-10.5849239 -0.5919424 22.2761136
-10.6483184 -0.8578571 20.6679708
-10.6332280 -1.1867260 19.0411485
-10.5814271 -1.5473155 17.3939338
-10.5962077 -1.8600641 15.7340459
-10.6503842 -2.1454029 14.0620618
-10.3840872 -2.6847442 12.3294600
-10.5217017 -2.9117892 10.6330934
-10.5894899 -3.1965280 8.9114737
-10.4104245 -3.6807482 7.1235413
-10.5798050 -3.8914285 5.3880239
-10.6562623 -4.1791371 3.6176160
-10.6061903 -4.5723032 1.7967704
-10.7895089 -4.7800116 0.0225084
-10.6349812 -5.2662149 -1.8706053
-10.1130544 -6.0598126 -3.9162249
-9.3267671 -7.0807468 -6.1031049
-7.9323062 -8.6185982 -8.5838004
-1.3720133 -7.0891130 36.1886472
-1.7994598 -7.1025868 34.4669400
-2.1109325 -7.2044988 32.7561426
-2.5763473 -7.1896713 31.0276332
-3.1511776 -7.0905776 29.2929382
-3.5210801 -7.1488722 27.5719905
-10.6198770 -2.6274689 22.4857012
-10.3288322 -3.1853275 20.8489995
-10.5486207 -3.3439536 19.2122257
-10.3534105 -3.8350330 17.5352921
-10.5567326 -4.0119658 15.8715837
-10.5196498 -4.3844252 14.1700485
-10.5412652 -4.7133257 12.4570343
-10.6082010 -5.0088606 10.7338401
-10.6645762 -5.3162284 8.9929148
-10.6581297 -5.6786247 7.2226153
-10.7405211 -5.9714734 5.4528880
-10.7469724 -6.3307054 3.6483268
-10.6921902 -6.7451130 1.8075142
-10.4837762 -7.2933181 -0.1012902
-9.8416339 -8.2144205 -2.1780923
-4.1996103 -7.1124674 36.1605944
-4.6338035 -7.1137637 34.4735705
-5.0131995 -7.1581752 32.7921206
-5.4501396 -7.1575792 31.1035292
-5.9260825 -7.1260147 29.4123140
-6.3399596 -7.1436940 27.7254498
-10.4267615 -4.5508780 24.3263871
-10.4507955 -4.8715781 22.6969668
-10.5635717 -5.1233196 21.0543757
-10.5533306 -5.4785156 19.3923789
-10.5441692 -5.8365929 17.7123985
-10.5539252 -6.1828277 16.0159210
-10.6248155 -6.4818868 14.3087902
-10.6799134 -6.7973923 12.5840038
-10.6758277 -7.1661221 10.8333421
-10.6786420 -7.5330358 9.0646701
-10.7215872 -7.8698367 7.2849079
-10.7200324 -8.2484140 5.4772721
-10.5314701 -8.7920188 3.6029658
-6.9212819 -7.1254895 36.1320056
-7.3542581 -7.1204970 34.4792967
-7.6898104 -7.1945597 32.8372875
-8.1297722 -7.1842031 31.1824008
-8.5148460 -7.2187740 29.5317426
-10.4085381 -6.0099905 27.8042676
-10.5111191 -6.2729482 26.1885458
-10.5356872 -6.6036616 24.5607606
-10.5361182 -6.9580832 22.9165233
-10.5290909 -7.3225482 21.2546074
-10.5523578 -7.6652661 19.5762238
-10.6381446 -7.9584696 17.8853305
-10.6412836 -8.3255397 16.1719921
-10.4477511 -8.8657388 14.4175092
-8.7479682 -10.7142958 12.4294193
-9.5971937 -7.0833988 36.0946863
-10.3892872 -6.7713631 34.4287328
-10.5414082 -6.9923613 32.8488964
-10.4262368 -7.4407894 31.2834932
-10.5261793 -7.7117826 29.6813675
-10.5181881 -8.0774869 28.0721806
-10.5128654 -8.4447736 26.4455700
-10.3529030 -8.9489625 24.8034296
-8.6807194 -10.7660490 23.1254393
-8.3759342 -11.0234186 33.4276072
0
0
0
0
0
0
0
0
0
0
0
0
0
0
0
0
0
0
0
0
0
0
0
0
0
0
0
0
0
0
0
0
0
0
0
0
0
0
0
0
0
0
0
0
0
0
0
0
0
0
0
0
0
0
0
0
0
0
0
0
0
0
0
0
0
0
0
0
0
0
0
0
0
0
0
0
0
0
0
0
0
0
0
0
0
0
0
0
0
0
0
0
0
0
0
0
0
0
0
0
0
0
0
0
0
0
0
0
0
0
0
0
0
0
0
0
0
0
0
0
0
0
0
0
0
0
0
0
0
0
0
0
0
0
0
0
0
0
0
0
0
0
0
0
0
0
0
0
0
0
0
0
0
0
0
0
0
0
0
0
0
0
0
0
0
0
0
0
0
0
0
0
0
0
0
0
0
0
0
0
0
0
0
0
0
0
0
0
0
0
0
0
0
0
0
0
0
0
0
0
0
0
0
0
0
0
0
0
0
0
0
0
0
0
0
0
0
0
0
0
0
0
0
0
0
0
0
0
0
0
0
0
0
0
0
0
0
0
0
0
0
0
0
0
0
0
0
0
0
0
0
0
0
0
0
0
0
0
0
0
0
0
0
0
0
0
0
0
0
0
0
0
0
0
0
0
0
0
0
0
0
0
0
0
0
0
0
0
0
0
0
0
0
0
0
0
0
0
0
0
0
0
0
0
0
0
0
0
0
0
0
0
0
0
0
0
0
0
0
0
0
0
0
0
0
0
0
0
0
0
0
0
0
0
0
0
0
0
0
0
0
0
0
0
0
0
0
0
0
0
0
0
0
0
0
0
0
0
0
0
0
0
0
0
0
0
0
0
0
0
0
0
0
0
0
0
0
0
0
0
0
0
0
0
0
0
0
0
0
0
0
0
0
0
0
0
0
0
0
0
0
0
0
0
0
0
0
0
0
0
0
0
0
0
0
0
0
0
0
0
0
0
0
0
0
0
0
0
0
0
0
0
0
0
0
0
0
0
0
0
0
0
0
0
0
0
0
0
0
0
0
0
0
0
0
0
0
0
0
0
0
0
0
0
0
0
0
0
0
0
0
0
0
0
0
0
0
0
0
0
0
0
0
0
0
0
0
0
0
0
0
0
0
0
0
0
0
0
0
0
0
0
0
0
0
0
0
0
0
0
0
0
0
0
0
0
0
0
0
0
0
0
0
0
0
0
0
0
0
0
0
0
0
0
0
0
0
0
0
0
0
0
0
0
0
0
0
0
0
0
0
0
0
0
0
0
0
0
0
0
0
0
0
0
0
0
0
0
0
0
0
0
0
0
0
0
0
0
0
0
0
0
0
0
0
0
0
0
0
0
0
0
0
0
0
0
0
0
0
0
0
0
0
0
0
0
0
0
0
0
0
0
0
0
0
0
0
0
0
0
0
0
0
0
0
0
0
0
0
0
0
0
0
0
0
0
0
0
0
0
0
0
0
0
0
0
0
0
0
0
0
0
0
0
0
0
0
0
0
0
0
0
0
0
0
0
0
0
0
0
0
0
0
0
0
0
0
0
0
0
0
0
0
0
0
0
0
0
0
0
0
0
0
0
0
0
0
0
0
0
0
0
0
0
0
0
0
0
0
0
0
0
0
0
0
0
0
0
0
0
0
0
0
0
0
0
0
0
0
0
0
0
0
0
0
0
0
0
0
0
0
0
0
0
0
0
0
0
0
0
0
0
0
0
0
0
0
0
0
0
0
0
0
0
0
0
0
0
0
0
0
0
0
0
0
0
0
0
0
0
0
0
0
0
0
0
0
0
0
0
0
0
0
0
0
0
0
0
0
0
0
0
0
0
0
0
0
0
0
0
0
0
0
0
0
0
0
0
0
0
0
0
0
0
0
0
0
0
0
0
0
0
0
0
0
0
0
0
0
0
0
0
0
0
0
0
0
0
0
0
0
0
0
0
0
0
0
0
0
0
0
0
0
0
0
0
0
0
0
0
0
0
0
0
0
0
0
0
0
0
0
0
0
0
0
0
0
0
0
0
0
0
0
0
0
0
0
0
0
0
0
0
0
0
0
0
0
0
0
0
0
1 0
0
0
0
0
0
0
0
0
0
0
0
0
0
0
0
0
0
0
0
0
0
0
0
0
0
0
0
0
0
0
0
0
0
0
0
0
0
0
0
0
0
0
0
0
0
0
0
0
0
0
1 1
0
0
0
0
0
0
0
0
0
0
0
0
0
0
0
0
0
0
0
0
0
0
0
0
0
0
0
0
0
0
0
0
0
0
0
0
0
0
0
0
0
0
0
0
0
0
0
0
0
1 2
1 3
1 4
1 5
1 6
1 7
1 8
1 9
1 10
1 11
1 12
0
0
0
0
0
0
0
0
0
0
0
0
0
0
0
0
0
0
0
0
0
0
0
0
0
0
0
0
0
0
0
0
0
0
0
0
0
0
0
0
1 13
1 14
0
1 15
1 16
1 17
1 18
1 19
1 20
1 21
1 22
1 23
1 24
0
1 25
1 26
1 27
1 28
1 29
1 30
1 31
1 32
1 33
1 34
1 35
1 36
0
0
0
0
0
0
0
0
0
0
0
0
0
0
0
0
0
0
0
0
0
1 37
0
0
1 38
1 39
1 40
1 41
1 42
1 43
1 44
1 45
1 46
1 47
1 48
1 49
1 50
1 51
1 52
1 53
1 54
1 55
1 56
1 57
1 58
1 59
1 60
1 61
1 62
1 63
1 64
1 65
1 66
1 67
0
0
0
0
0
0
0
0
0
0
0
0
0
0
0
0
0
1 68
0
0
1 69
1 70
1 71
1 72
1 73
1 74
1 75
1 76
1 77
1 78
1 79
1 80
1 81
1 82
1 83
1 84
1 85
1 86
1 87
1 88
1 89
1 90
1 91
1 92
1 93
1 94
1 95
0
1 96
0
0
0
0
0
0
0
0
0
0
0
0
0
0
0
0
0
0
1 97
1 98
0
1 99
1 100
1 101
1 102
1 103
1 104
1 105
1 106
1 107
1 108
1 109
1 110
1 111
1 112
1 113
1 114
1 115
1 116
1 117
1 118
1 119
1 120
1 121
1 122
1 123
0
1 124
0
0
0
0
0
0
0
0
0
0
0
0
0
0
0
0
0
0
0
0
1 125
1 126
0
1 127
1 128
1 129
1 130
1 131
1 132
1 133
1 134
1 135
1 136
1 137
1 138
1 139
1 140
1 141
1 142
1 143
1 144
1 145
1 146
1 147
1 148
1 149
1 150
1 151
1 152
0
0
0
0
0
0
0
0
0
0
0
0
0
0
0
0
0
0
0
0
0
0
1 153
1 154
1 155
0
1 156
0
1 157
1 158
1 159
1 160
1 161
1 162
1 163
1 164
1 165
1 166
1 167
1 168
1 169
1 170
1 171
1 172
1 173
1 174
1 175
1 176
0
0
0
0
0
0
0
0
0
0
0
0
0
0
0
0
0
0
0
0
0
0
0
1 177
1 178
0
0
1 179
1 180
1 181
1 182
1 183
1 184
1 185
1 186
1 187
1 188
1 189
1 190
1 191
0
1 192
1 193
1 194
1 195
1 196
1 197
1 198
1 199
0
0
0
0
0
0
0
0
0
0
0
0
0
0
0
0
0
0
0
0
0
0
0
1 200
1 201
1 202
1 203
1 204
0
1 205
1 206
1 207
1 208
1 209
0
1 210
1 211
1 212
1 213
1 214
1 215
1 216
1 217
1 218
1 219
1 220
1 221
1 222
1 223
0
0
0
0
0
0
0
0
0
0
0
0
0
0
0
0
0
0
0
0
0
0
0
0
1 224
1 225
1 226
1 227
1 228
1 229
1 230
1 231
1 232
1 233
1 234
1 235
1 236
1 237
1 238
1 239
1 240
1 241
1 242
1 243
1 244
1 245
1 246
1 247
0
0
0
0
0
0
0
0
0
0
0
0
0
0
0
0
0
0
0
0
0
0
1 248
0
0
0
1 249
1 250
1 251
1 252
1 253
1 254
1 255
1 256
1 257
1 258
1 259
1 260
1 261
1 262
1 263
1 264
1 265
1 266
1 267
1 268
1 269
1 270
0
0
0
0
0
0
0
0
0
0
0
0
0
0
0
0
0
0
0
0
0
0
0
0
1 271
1 272
1 273
1 274
1 275
1 276
0
0
1 277
1 278
1 279
1 280
1 281
1 282
1 283
1 284
1 285
1 286
1 287
1 288
1 289
1 290
1 291
0
0
0
0
0
0
0
0
0
0
0
0
0
0
0
0
0
0
0
0
0
0
0
0
0
0
0
1 292
1 293
1 294
1 295
1 296
1 297
0
1 298
1 299
1 300
1 301
1 302
1 303
1 304
1 305
1 306
1 307
1 308
1 309
1 310
0
0
0
0
0
0
0
0
0
0
0
0
0
0
0
0
0
0
0
0
0
0
0
0
0
0
0
0
0
0
1 311
1 312
1 313
1 314
1 315
1 316
1 317
1 318
1 319
1 320
1 321
1 322
1 323
1 324
1 325
0
0
0
0
0
0
0
0
0
0
0
0
0
0
0
0
0
0
0
0
0
0
0
0
0
0
0
0
0
0
0
0
0
0
0
1 326
1 327
1 328
1 329
1 330
1 331
1 332
1 333
1 334
0
0
0
0
0
0
0
0
0
0
0
0
0
0
0
0
0
0
0
0
0
0
0
0
0
0
0
0
0
0
0
0
0
0
0
0
0
0
0
0
0
0
0
1 335
0
0
0
0
0
0
0
0
0
0
0
0
0
0
0
0
0
0
0
0
0
0
0
0
0
0
0
0
0
0
0
0
0
0
0
0
0
0
0
0
0
0
0
0
0
0
0
0
0
0
0
0
0
0
0
0
0
0
0
0
0
0
0
0
0
0
0
0
0
0
0
0
0
0
0
0
0
0
0
0
0
0
0
0
0
0
0
0
0
0
0
0
0
0
0
0
0
0
0
0
0
0
0
0
0
0
0
0
0
0
0
0
0
0
0
0
0
0
0
0
0
0
0
0
0
0
0
0
0
0
0
0
0
0
0
0
0
0
0
0
0
0
0
0
0
0
0
0
0
0
0
0
0
0
0
0
0
0
0
0
0
0
0
0
0
0
0
0
0
0
0
0
0
0
0
0
0
0
0
0
0
0
0
0
0
0
0
0
0
0
0
0
0
0
0
0
0
0
0
0
0
0
0
0
0
0
0
0
0
0
0
0
0
0
0
0
0
0
0
0
0
0
0
0
0
0
0
0
0
0
0
0
0
0
0
0
0
0
0
0
0
0
0
0
0
0
0
0
0
0
0
0
0
0
0
0
0
0
0
0
0
0
0
0
0
0
0
0
0
0
0
0
0
0
0
0
0
0
0
0
0
0
0
0
0
0
0
0
0
0
0
0
0
0
0
0
0
0
0
0
0
0
0
0
0
0
0
0
0
0
0
0
0
0
0
0
0
0
0
0
0
0
0
0
0
0
0
0
0
0
0
0
0
0
0
0
0
0
0
0
0
0
0
0
0
0
0
0
0
0
0
0
0
0
0
0
0
0
0
0
0
0
0
0
0
0
0
0
0
0
0
0
0
0
0
0
0
0
0
0
0
0
0
0
0
0
0
0
0
0
0
0
0
0
0
0
0
0
0
0
0
0
0
0
0
0
0
0
0
0
0
0
0
0
0
0
0
0
0
0
0
0
0
0
0
0
0
0
0
0
0
0
0
0
0
0
0
0
0
0
0
0
0
0
0
0
0
0
0
0
0
0
0
0
0
0
0
0
0
0
0
0
0
0
0
0
0
0
0
0
0
0
0
0
0
0
0
0
0
0
0
0
0
0
0
0
0
0
0
0
0
0
0
0
0
0
0
0
0
0
0
0
0
0
0
0
0
0
0
0
0
0
0
0
0
0
0
0
0
0
0
0
0
0
0
0
0
0
0
0
0
0
0
0
0
0
0
0
0
0
0
0
0
0
0
0
0
0
0
0
0
0
0
0
0
0
0
0
0
0
0
0
0
0
0
0
0
0
0
0
0
0
0
0
0
0
0
0
0
0
0
0
0
0
0
0
0
0
0
0
0
0
0
0
0
0
0
0
0
0
0
0
0
0
0
0
0
0
0
0
0
0
0
0
0
0
0
0
0
0
0
0
0
0
0
0
0
0
0
0
0
0
0
0
0
0
0
0
0
0
0
0
0
0
0
0
0
0
0
0
0
0
0
0
0
0
0
0
0
0
0
0
0
0
0
0
0
0
0
0
0
0
0
0
0
0
0
0
0
0
0
0
0
0
0
0
0
0
0
0
0
0
0
0
0
0
0
0
0
0
0
0
0
0
0
0
0
0
0
0
0
0
0
0
0
0
0
0
0
0
0
0
0
0
0
0
0
0
0
0
0
0
0
0
0
0
0
0
0
0
0
0
