ply
format ascii 1.0
obj_info num_cols 50
obj_info num_rows 50
element vertex 412
property float x
property float y
property float z
element range_grid 2500
property list uchar int vertex_indices
end_header
-9.7386855 -9.1495344 35.6774851
-10.3919808 -8.9572468 34.3031730
-10.6940235 -7.4038967 33.1318214
-7.7447262 -9.7956876 36.4106101
-8.6798310 -10.5914487 34.8645062
-9.2814018 -10.2498555 33.5262156
-9.8292171 -9.6947000 32.2092366
-10.3672137 -9.0721652 30.8847271
-10.6789831 -7.5464232 29.6481172
-10.5036704 -0.9702409 27.3502860
-7.6256632 -11.9590973 34.0745742
-8.1767289 -11.4863844 32.7667165
-8.7061284 -10.9149467 31.4586959
-9.2229574 -10.2690774 30.1430387
-9.7740304 -9.7122815 28.7981933
-10.3279461 -9.1350987 27.4387091
-10.6403886 -7.6005968 26.1402837
-10.7240879 -5.0746424 24.8624972
-10.7375933 -2.1108852 23.5323161
-3.7050547 -8.8126369 36.9129510
-6.4323623 -12.8148785 33.3787494
-7.0523638 -12.5925137 32.0349645
-7.5886115 -12.0861695 30.7228391
-8.1115451 -11.5098961 29.4039172
-8.6419296 -10.9294738 28.0681416
-9.1739371 -10.3240723 26.7172045
-9.7311714 -9.7769403 25.3437188
-10.2840201 -9.1829748 23.9566361
-10.6641561 -7.8951838 22.5831918
-10.6660742 -5.0441170 21.2186665
-10.6882023 -2.1016869 19.7701940
-5.0702078 -13.1421339 32.7705803
-5.7125368 -12.9930725 31.4114847
-6.3454558 -12.8078018 30.0525177
-6.9768630 -12.6087883 28.6894875
-7.5352245 -12.1624512 27.3448454
-8.0588469 -11.5778215 25.9982975
-8.5987145 -11.0185075 24.6323633
-9.1313604 -10.4041680 23.2524937
-9.6824436 -9.8228037 21.8528080
-10.2424395 -9.2418857 20.4355596
-10.6959169 -8.2214633 19.0044996
-10.6738810 -5.2744193 17.5300152
-10.6508423 -2.1434933 15.9627870
0.1722814 -8.7078048 37.2552977
-3.0896620 -13.6965277 33.5054380
-3.6960481 -13.4560654 32.1616949
-4.3369341 -13.3046138 30.7983622
-4.9870057 -13.1734212 29.4279087
-5.6308966 -13.0174776 28.0560897
-6.2661271 -12.8273801 26.6826489
-6.9053607 -12.6407432 25.3031325
-7.4744657 -12.2174617 23.9325884
-7.9993237 -11.6256710 22.5570737
-8.5422288 -11.0647216 21.1626069
-9.0789253 -10.4521595 19.7519562
-9.6277698 -9.8497706 18.3226864
-10.1969746 -9.2887690 16.8756856
-10.7155701 -8.5027995 15.4051541
-10.6454977 -5.3644869 13.8073229
-10.5832899 -2.0656245 12.1048921
-10.7626597 0.4358446 10.3617004
-1.7123797 -14.0173349 32.8976224
-2.3393974 -13.8385058 31.5397938
-2.9733505 -13.6712043 30.1749506
-3.6001507 -13.4764928 28.8081435
-4.2520068 -13.3452747 27.4289414
-4.8843900 -13.1507768 26.0511144
-5.5407532 -13.0194589 24.6628546
-6.1850767 -12.8447851 23.2729374
-6.8246649 -12.6466730 21.8785838
-7.4114587 -12.2679910 20.4826207
-7.9435584 -11.6887378 19.0769872
-8.4915588 -11.1334081 17.6537859
-9.0308640 -10.5180262 16.2123550
-9.5763494 -9.8910236 14.7516983
-10.1501209 -9.3329546 13.2754214
-10.6930973 -8.6255744 11.7721385
-10.7193302 -5.8561714 10.0784899
-10.6365852 -2.4773060 8.2412216
-10.7417410 0.3350518 6.3645459
0.3545504 -14.3706673 33.6689732
-0.3248391 -14.3317834 32.2879221
-0.9666608 -14.1941842 30.9194853
-1.5948818 -14.0150794 29.5519696
-2.2384834 -13.8699003 28.1751881
-2.8702226 -13.6859215 26.7975672
-3.5119136 -13.5218781 25.4126770
-4.1609651 -13.3716518 24.0218239
-4.7956917 -13.1725505 22.6286803
-5.4431369 -13.0023696 21.2284218
-6.1028831 -12.8618713 19.8223643
-6.7378303 -12.6364670 18.4121552
-7.3472865 -12.3176205 16.9937803
-7.8863475 -11.7497460 15.5585563
-8.4284271 -11.1624371 14.1050219
-8.9818935 -10.5832811 12.6339055
-9.5327566 -9.9628793 11.1419169
-10.0916517 -9.3368707 9.6303480
-10.6560788 -8.6952974 8.0978959
-10.7561536 -6.2039832 6.3234259
-10.7103365 -2.9720788 4.3721475
-10.7511983 0.1062714 2.3448607
2.0617279 -13.9446415 33.1823450
1.2829728 -14.1305145 31.7522994
0.5031436 -14.3260921 30.3266299
-0.2143021 -14.3716758 28.9247317
-0.8450263 -14.1956273 27.5470617
-1.4868751 -14.0415982 26.1619754
-2.1161369 -13.8473504 24.7749959
-2.7515497 -13.6616587 23.3814842
-3.4107447 -13.5344177 21.9797633
-4.0526441 -13.3520069 20.5755043
-4.7108599 -13.2089980 19.1651432
-5.3622101 -13.0387513 17.7501876
-6.0204314 -12.8814119 16.3301859
-6.6667260 -12.6789395 14.9036704
-7.2846213 -12.3750030 13.4656796
-7.8309625 -11.8195501 12.0015511
-8.3756086 -11.2292295 10.5173774
-8.9338741 -10.6544400 9.0164462
-9.4865993 -10.0280610 7.4919108
-10.0500076 -9.4052639 5.9484516
-10.6228830 -8.7817659 4.3856182
-10.7477907 -6.3770017 2.5202964
-10.5524100 -2.5376431 0.3304993
-10.7311851 -0.0019797 -1.7303397
6.8933416 -9.8195288 36.2201875
3.8520876 -13.4049271 32.7015178
3.0220786 -13.6831174 31.2423233
2.2148209 -13.9174337 29.7973046
1.4488458 -14.0605204 28.3697297
0.6558795 -14.2756499 26.9395799
-0.0798163 -14.3549977 25.5270614
-0.7413535 -14.2470923 24.1292297
-1.3662228 -14.0386895 22.7330256
-2.0149191 -13.8852542 21.3284005
-2.6615711 -13.7196518 19.9191902
-3.3093233 -13.5498621 18.5048000
-3.9588581 -13.3775518 17.0850546
-4.6195095 -13.2297642 15.6605809
-5.2742593 -13.0574341 14.2304081
-5.9350497 -12.8952861 12.7954269
-6.5889585 -12.7036370 11.3531711
-7.2065278 -12.3858262 9.8936046
-7.7763352 -11.8946174 8.4058858
-8.3218548 -11.2955795 6.8898508
-8.8730205 -10.6837328 5.3534170
-9.4366202 -10.0821863 3.7994925
-9.9565994 -9.2864951 2.1943667
-10.3866836 -8.1051142 0.4939902
-10.5583044 -5.8483491 -1.4563565
-10.6902058 -3.2918233 -3.5409318
-10.8139137 -0.5369446 -5.7504468
6.4521374 -12.7522755 33.6623996
5.6328556 -12.9704969 32.1907498
4.8442592 -13.1274623 30.7342328
4.0215854 -13.3677903 29.2724622
3.1947070 -13.6265666 27.8161923
2.3952412 -13.8299388 26.3729277
1.6092569 -14.0083868 24.9378093
0.8155083 -14.2127236 23.5066880
0.0434906 -14.3705115 22.0838970
-0.6248962 -14.2694830 20.6730848
-1.2627111 -14.0844687 19.2600569
-1.9165923 -13.9344763 17.8413275
-2.5557861 -13.7380614 16.4169580
-3.2080735 -13.5694300 14.9873707
-3.8617308 -13.3971167 13.5522742
-4.5251810 -13.2453509 12.1131005
-5.1853914 -13.0768057 10.6677567
-5.8422342 -12.8898928 9.2153013
-6.5086272 -12.7235606 7.7592784
-7.1424593 -12.4447126 6.2835203
-7.7059186 -11.9206945 4.7636071
-8.2408135 -11.2728510 3.2074587
-8.7394276 -10.4644623 1.6028237
-9.2459352 -9.6390781 -0.0303767
-9.7295426 -8.6827090 -1.7165162
-9.9707272 -6.7579811 -3.6480095
-10.1747730 -4.5724525 -5.7017974
-10.3916047 -2.3012009 -7.8456914
-10.5910187 0.1887111 -10.1195174
6.6668948 -12.6556008 30.2006613
5.8284907 -12.9032656 28.7231802
5.0261601 -13.0789546 27.2605377
4.2109527 -13.2901601 25.8004058
3.3903985 -13.5213821 24.3455039
2.5712604 -13.7577800 22.8975432
1.7658710 -13.9700009 21.4578249
0.9525111 -14.2098654 20.0241584
0.1853732 -14.3436058 18.5984589
-0.5070350 -14.2921836 17.1748435
-1.1519019 -14.1149408 15.7461768
-1.8034905 -13.9480636 14.3123244
-2.4543242 -13.7719406 12.8726317
-3.1035728 -13.5836660 11.4264474
-3.7684415 -13.4311629 9.9774977
-4.4262024 -13.2510297 8.5207843
-5.0947599 -13.0944154 7.0612009
-5.7586503 -12.9160625 5.5936617
-6.4286387 -12.7478535 4.1220062
-7.0465851 -12.4051979 2.6156433
-7.5398453 -11.6370679 1.0201478
-8.0225512 -10.7928216 -0.6147618
-8.5037063 -9.8972992 -2.2873245
-8.9973838 -8.9960791 -3.9894226
-9.2872352 -7.2999595 -5.9161991
-9.4812107 -5.1436317 -8.0172465
-9.6945113 -2.9305941 -10.2019547
-9.9416320 -0.7133160 -12.4575720
6.8487736 -12.6350666 26.6801891
6.0393897 -12.8077861 25.2082640
5.2136786 -13.0228745 23.7391812
4.3892715 -13.2426602 22.2766325
3.5602071 -13.4811560 20.8204370
2.7510682 -13.6816283 19.3722216
1.9235706 -13.9336028 17.9304327
1.1292375 -14.1142864 16.4952295
0.3231032 -14.3313998 15.0669379
-0.3968119 -14.3382263 13.6348930
-1.0348117 -14.1329729 12.1889993
-1.6805564 -13.9395344 10.7375234
-2.3436928 -13.7847389 9.2836461
-2.9962605 -13.5939071 7.8207246
-3.6676504 -13.4476006 6.3574667
-4.3346814 -13.2819298 4.8867123
-4.9920786 -13.0799444 3.4048137
-5.6540266 -12.8819597 1.9171741
-6.2990923 -12.6218123 0.4112400
-6.8111781 -11.9257558 -1.1938349
-7.2887969 -11.0812469 -2.8542825
-7.7506470 -10.1390636 -4.5649608
-8.2103899 -9.1381957 -6.3205311
-8.5295317 -7.5841482 -8.2581399
-8.7335855 -5.5218815 -10.3911224
-8.9475604 -3.3742665 -12.6153278
-9.1939218 -1.2201645 -14.9096408
10.0872309 -9.3345609 26.3292860
7.1289541 -12.4089165 23.1238672
6.2330639 -12.7552817 21.6390912
5.4049113 -12.9636277 20.1682580
4.5594846 -13.2183912 18.7037343
3.7282257 -13.4498551 17.2470221
2.9092094 -13.6612231 15.7970932
2.0916858 -13.8769974 14.3540196
1.2814358 -14.0833752 12.9172116
0.4806576 -14.2743476 11.4857767
-0.2508401 -14.2976555 10.0453025
-0.9238933 -14.1709287 8.5896469
-1.5737419 -13.9776200 7.1217983
-2.2474812 -13.8402750 5.6554371
-2.9000064 -13.6384388 4.1747454
-3.5479224 -13.4144962 2.6838238
-4.2093944 -13.2192136 1.1910253
-4.8519880 -12.9590543 -0.3211075
-5.4983354 -12.6976175 -1.8418607
-6.0692490 -12.1900117 -3.4283835
-6.5092394 -11.2417035 -5.1408824
-6.9521282 -10.2535523 -6.8941993
-7.3893975 -9.1939390 -8.6991211
-7.7095023 -7.6744590 -10.6743471
-7.9170460 -5.6725508 -12.8489069
-8.1210975 -3.5420284 -15.1295678
-8.3680545 -1.4447293 -17.4667109
7.3927145 -12.2244505 19.5031043
6.4327364 -12.6949434 18.0196141
5.5839024 -12.9365861 16.5470613
4.7658060 -13.1177709 15.0801452
3.9150030 -13.3804218 13.6230345
3.0834190 -13.6080053 12.1719697
2.2502736 -13.8479060 10.7291459
1.4384552 -14.0453854 9.2897968
0.6220883 -14.2618594 7.8588801
-0.1352900 -14.3383079 6.4166468
-0.8099459 -14.2049958 4.9461884
-1.4591846 -13.9992124 3.4596609
-2.1009108 -13.7643280 1.9613003
-2.7477509 -13.5330527 0.4560541
-3.3843124 -13.2624613 -1.0649213
-4.0324818 -13.0126317 -2.5899341
-4.6874897 -12.7710246 -4.1210226
-5.2742425 -12.3123879 -5.7159358
-5.7013493 -11.3389612 -7.4667414
-6.1203659 -10.2905069 -9.2705815
-6.5289774 -9.1536599 -11.1351580
-6.8267040 -7.5868463 -13.1747921
-7.0114344 -5.5474343 -15.4245830
-7.2290853 -3.5085625 -17.7396289
-7.4744176 -1.4513109 -20.1269144
9.3425938 -10.0902915 17.2993312
7.7895345 -11.7637807 15.8135249
6.6292740 -12.6467054 14.3487447
5.7863336 -12.8629796 12.8739080
4.9447785 -13.0839021 11.4063280
4.1012595 -13.3173677 9.9469399
3.2621332 -13.5493146 8.4948594
2.4364483 -13.7582332 7.0473851
1.6096163 -13.9779902 5.6080880
0.7898858 -14.1889268 4.1744565
0.0083466 -14.3124216 2.7326543
-0.6399330 -14.0993295 1.2319377
-1.2756815 -13.8443485 -0.2842071
-1.9063945 -13.5648101 -1.8140127
-2.5417885 -13.2856458 -3.3528069
-3.1969563 -13.0490650 -4.8899689
-3.8354288 -12.7537312 -6.4505296
-4.4432196 -12.3545369 -8.0501191
-4.8614890 -11.3677317 -9.8386948
-5.2406858 -10.2118138 -11.7125630
-5.6290691 -9.0259149 -13.6337378
-5.9022014 -7.4053933 -15.7444860
-6.0807336 -5.3838362 -18.0536165
-6.2790627 -3.3182986 -20.4447686
-6.5031605 -1.2259821 -22.9132567
9.7747536 -9.5898401 13.4728578
6.8423377 -12.5682083 10.6234582
5.9930643 -12.7854030 9.1463636
5.1522126 -12.9916182 7.6750021
4.3025471 -13.2253940 6.2138718
3.4569711 -13.4584269 4.7601601
2.6266652 -13.6643063 3.3095253
1.8114174 -13.8419515 1.8604521
1.0269818 -13.9510397 0.4036832
0.1476655 -14.3019025 -0.9984142
-0.5324898 -14.1585627 -2.5018390
-1.1378121 -13.8138799 -4.0591445
-1.7780735 -13.5472927 -5.6073631
-2.4090070 -13.2434134 -7.1746155
-3.0407693 -12.9279985 -8.7551746
-3.5358429 -12.2083229 -10.4710083
-3.9308182 -11.1623794 -12.3164328
-4.3103567 -10.0193942 -14.2290367
-4.6847819 -8.8037354 -16.2048296
-4.8928037 -7.0032084 -18.4389604
-5.0663697 -4.9971468 -20.8118612
-5.2618962 -2.9556962 -23.2643735
-5.4797072 -0.8770151 -25.7990043
10.2134537 -9.0853141 9.5552383
7.0979657 -12.4041273 6.8322302
6.1851844 -12.7452642 5.3686307
5.3286090 -12.9738857 3.8986303
4.5071530 -13.1314495 2.4238350
3.6943110 -13.2750288 0.9514965
2.9031415 -13.3731418 -0.5255055
2.1179019 -13.4608224 -2.0016658
1.2379792 -13.7832424 -3.4193674
0.3007347 -14.2616267 -4.7870671
-0.4280342 -14.2293419 -6.2769576
-1.0403198 -13.8928892 -7.8549907
-1.6483506 -13.5304414 -9.4519439
-2.0735289 -12.6555149 -11.2241830
-2.5137178 -11.7824307 -13.0244650
-2.9330636 -10.8094778 -14.8884516
-3.3197709 -9.6952240 -16.8362817
-3.6643249 -8.4009920 -18.8897452
-3.8356081 -6.5129559 -21.2234180
-3.9886088 -4.4708051 -23.6831294
-4.1811916 -2.4483401 -26.2011477
-4.4026912 -0.4119475 -28.7916229
7.4826230 -11.9711134 2.9332426
6.4440433 -12.5654823 1.5122938
5.6110104 -12.7267618 0.0255125
4.8007493 -12.8426487 -1.4657155
3.9960038 -12.9501822 -2.9551144
3.2196889 -12.9952637 -4.4564229
2.3701008 -13.2168541 -5.9099261
1.3932709 -13.7569002 -7.2672763
0.4616871 -14.2065933 -8.6336381
-0.1651154 -13.9023110 -10.2206117
-0.5899343 -13.0619930 -11.9937946
-1.0103807 -12.1734096 -13.8113423
-1.4563221 -11.3141115 -15.6476045
-1.8863175 -10.3714649 -17.5437073
-2.2894763 -9.3088104 -19.5182251
-2.5751001 -7.8546856 -21.6886157
-2.7236751 -5.9224283 -24.1112382
-2.8820769 -3.9230960 -26.6272860
-3.0390640 -1.8164140 -29.2586097
-3.2655319 0.1789600 -31.9062838
8.7184062 -9.7380940 -1.4240861
7.4097169 -10.8632301 -2.7491520
6.3079535 -11.5735531 -4.1362332
5.2028206 -12.3177804 -5.4911875
4.3455482 -12.5234574 -6.9681934
3.5125469 -12.6804430 -8.4525152
2.6808837 -12.8403574 -9.9308070
2.0552719 -12.5071335 -11.5626322
1.4165811 -12.1925203 -13.1992574
0.7628340 -11.9026799 -14.8375708
0.1431148 -11.5125832 -16.5228072
-0.3689577 -10.8216003 -18.3378326
-0.8038362 -9.8916293 -20.2725450
-1.2113201 -8.8435528 -22.2878906
-1.3975305 -7.1221668 -24.6328581
-1.5365737 -5.1819921 -27.1343516
-1.6796746 -3.1585096 -29.7394338
-1.8220284 -1.0308495 -32.4624251
6.9846676 -8.7192133 -10.5316244
5.9039740 -9.3526619 -11.9353340
4.9768850 -9.6540459 -13.4282005
4.1270497 -9.7844057 -14.9706977
3.3926414 -9.6412326 -16.6088188
2.6760468 -9.4481930 -18.2708248
1.9194498 -9.3476078 -19.9024838
1.2500246 -9.0185989 -21.6324182
0.5777730 -8.6825030 -23.3764527
0.0925182 -7.8291507 -25.3638084
-0.1059169 -6.1487896 -27.7644862
-0.2591458 -4.2624001 -30.3205759
-0.4017118 -2.2545630 -33.0002141
-0.5457710 -0.1521568 -35.7956302
0
0
0
0
0
0
0
0
0
0
0
0
0
0
0
0
0
0
0
0
0
0
0
0
0
0
0
0
0
0
0
0
0
0
0
0
0
0
0
0
0
0
0
0
0
0
0
0
0
0
0
0
0
0
0
0
0
0
0
0
0
0
0
0
0
0
0
0
0
0
0
0
0
0
0
0
0
0
0
0
0
0
0
0
0
0
0
0
0
0
0
0
0
0
0
0
0
0
0
0
0
0
0
0
0
0
0
0
0
0
0
0
0
0
0
0
0
0
0
0
0
0
0
0
0
0
0
0
0
0
0
0
0
0
0
0
0
0
0
0
0
0
0
0
0
0
0
0
0
0
0
0
0
0
0
0
0
0
0
0
0
0
0
0
0
0
0
0
0
0
0
0
0
0
0
0
0
0
0
0
0
0
0
0
0
0
0
0
0
0
0
0
0
0
0
0
0
0
0
0
0
0
0
0
0
0
0
0
0
0
0
0
0
0
0
0
0
0
0
0
0
0
0
0
0
0
0
0
0
0
0
0
0
0
0
0
0
0
0
0
0
0
0
0
0
0
0
0
0
0
0
0
0
0
0
0
0
0
0
0
0
0
0
0
0
0
0
0
0
0
0
0
0
0
0
0
0
0
0
0
0
0
0
0
0
0
0
0
0
0
0
0
0
0
0
0
0
0
0
0
0
0
0
0
0
0
0
0
0
0
0
0
0
0
0
0
0
0
0
0
0
0
0
0
0
0
0
0
0
0
0
0
0
0
0
0
0
0
0
0
0
0
0
0
0
0
0
0
0
0
0
0
0
0
0
0
0
0
0
0
0
0
0
0
0
0
0
0
0
0
0
0
0
0
0
0
0
0
0
0
0
0
0
0
0
0
0
0
0
0
0
0
0
0
0
0
0
0
0
0
0
0
0
0
0
0
0
0
0
0
0
0
0
0
0
0
0
0
0
0
0
0
0
0
0
0
0
0
0
0
0
0
0
0
0
0
0
0
0
0
0
0
0
0
0
0
0
0
0
0
0
0
0
0
0
0
0
0
0
0
0
0
0
0
0
0
0
0
0
0
0
0
0
0
0
0
0
0
0
0
0
0
0
0
0
0
0
0
0
0
0
0
0
0
0
0
0
0
0
0
0
0
0
0
0
0
0
0
0
0
0
0
0
0
0
0
0
0
0
0
0
0
0
0
0
0
0
0
0
0
0
0
0
0
0
0
0
0
0
0
0
0
0
0
0
0
0
0
0
0
0
0
0
0
0
0
0
0
0
0
0
0
0
0
0
0
0
0
0
0
0
0
0
0
0
0
0
0
0
0
0
0
0
0
0
0
0
0
0
0
0
0
0
0
0
0
0
0
0
0
0
0
0
0
0
0
0
1 0
1 1
1 2
0
0
0
0
0
0
0
0
0
0
0
0
0
0
0
0
0
0
0
0
0
0
0
0
0
0
0
0
0
0
0
0
0
0
0
0
0
0
0
0
0
0
0
0
0
0
1 3
1 4
1 5
1 6
1 7
1 8
0
1 9
0
0
0
0
0
0
0
0
0
0
0
0
0
0
0
0
0
0
0
0
0
0
0
0
0
0
0
0
0
0
0
0
0
0
0
0
0
0
0
0
0
0
0
1 10
1 11
1 12
1 13
1 14
1 15
1 16
1 17
1 18
0
0
0
0
0
0
0
0
0
0
0
0
0
0
0
0
0
0
0
0
0
0
0
0
0
0
0
0
0
0
0
0
0
0
0
0
0
0
0
1 19
0
1 20
1 21
1 22
1 23
1 24
1 25
1 26
1 27
1 28
1 29
1 30
0
0
0
0
0
0
0
0
0
0
0
0
0
0
0
0
0
0
0
0
0
0
0
0
0
0
0
0
0
0
0
0
0
0
0
0
0
0
0
1 31
1 32
1 33
1 34
1 35
1 36
1 37
1 38
1 39
1 40
1 41
1 42
1 43
0
0
0
0
0
0
0
0
0
0
0
0
0
0
0
0
0
0
0
0
0
0
0
0
0
0
0
0
0
0
0
0
0
0
1 44
0
1 45
1 46
1 47
1 48
1 49
1 50
1 51
1 52
1 53
1 54
1 55
1 56
1 57
1 58
1 59
1 60
1 61
0
0
0
0
0
0
0
0
0
0
0
0
0
0
0
0
0
0
0
0
0
0
0
0
0
0
0
0
0
0
0
0
0
1 62
1 63
1 64
1 65
1 66
1 67
1 68
1 69
1 70
1 71
1 72
1 73
1 74
1 75
1 76
1 77
1 78
1 79
1 80
0
0
0
0
0
0
0
0
0
0
0
0
0
0
0
0
0
0
0
0
0
0
0
0
0
0
0
0
0
0
1 81
1 82
1 83
1 84
1 85
1 86
1 87
1 88
1 89
1 90
1 91
1 92
1 93
1 94
1 95
1 96
1 97
1 98
1 99
1 100
1 101
1 102
0
0
0
0
0
0
0
0
0
0
0
0
0
0
0
0
0
0
0
0
0
0
0
0
0
0
0
0
1 103
1 104
1 105
1 106
1 107
1 108
1 109
1 110
1 111
1 112
1 113
1 114
1 115
1 116
1 117
1 118
1 119
1 120
1 121
1 122
1 123
1 124
1 125
1 126
0
0
0
0
0
0
0
0
0
0
0
0
0
0
0
0
0
0
0
0
0
0
0
0
1 127
0
1 128
1 129
1 130
1 131
1 132
1 133
1 134
1 135
1 136
1 137
1 138
1 139
1 140
1 141
1 142
1 143
1 144
1 145
1 146
1 147
1 148
1 149
1 150
1 151
1 152
1 153
0
0
0
0
0
0
0
0
0
0
0
0
0
0
0
0
0
0
0
0
0
0
0
1 154
1 155
1 156
1 157
1 158
1 159
1 160
1 161
1 162
1 163
1 164
1 165
1 166
1 167
1 168
1 169
1 170
1 171
1 172
1 173
1 174
1 175
1 176
1 177
1 178
1 179
1 180
1 181
1 182
0
0
0
0
0
0
0
0
0
0
0
0
0
0
0
0
0
0
0
0
0
0
0
1 183
1 184
1 185
1 186
1 187
1 188
1 189
1 190
1 191
1 192
1 193
1 194
1 195
1 196
1 197
1 198
1 199
1 200
1 201
1 202
1 203
1 204
1 205
1 206
1 207
1 208
1 209
1 210
0
0
0
0
0
0
0
0
0
0
0
0
0
0
0
0
0
0
0
0
0
0
0
0
1 211
1 212
1 213
1 214
1 215
1 216
1 217
1 218
1 219
1 220
1 221
1 222
1 223
1 224
1 225
1 226
1 227
1 228
1 229
1 230
1 231
1 232
1 233
1 234
1 235
1 236
1 237
0
0
0
0
0
0
0
0
0
0
0
0
0
0
0
0
0
0
0
0
0
0
0
1 238
0
1 239
1 240
1 241
1 242
1 243
1 244
1 245
1 246
1 247
1 248
1 249
1 250
1 251
1 252
1 253
1 254
1 255
1 256
1 257
1 258
1 259
1 260
1 261
1 262
1 263
1 264
0
0
0
0
0
0
0
0
0
0
0
0
0
0
0
0
0
0
0
0
0
0
0
0
0
0
1 265
1 266
1 267
1 268
1 269
1 270
1 271
1 272
1 273
1 274
1 275
1 276
1 277
1 278
1 279
1 280
1 281
1 282
1 283
1 284
1 285
1 286
1 287
1 288
1 289
0
0
0
0
0
0
0
0
0
0
0
0
0
0
0
0
0
0
0
0
0
0
0
0
0
0
1 290
1 291
1 292
1 293
1 294
1 295
1 296
1 297
1 298
1 299
1 300
1 301
1 302
1 303
1 304
1 305
1 306
1 307
1 308
1 309
1 310
1 311
1 312
1 313
1 314
0
0
0
0
0
0
0
0
0
0
0
0
0
0
0
0
0
0
0
0
0
0
0
0
0
0
0
1 315
0
1 316
1 317
1 318
1 319
1 320
1 321
1 322
1 323
1 324
1 325
1 326
1 327
1 328
1 329
1 330
1 331
1 332
1 333
1 334
1 335
1 336
1 337
0
0
0
0
0
0
0
0
0
0
0
0
0
0
0
0
0
0
0
0
0
0
0
0
0
0
0
0
1 338
0
1 339
1 340
1 341
1 342
1 343
1 344
1 345
1 346
1 347
1 348
1 349
1 350
1 351
1 352
1 353
1 354
1 355
1 356
1 357
1 358
1 359
0
0
0
0
0
0
0
0
0
0
0
0
0
0
0
0
0
0
0
0
0
0
0
0
0
0
0
0
0
0
0
1 360
1 361
1 362
1 363
1 364
1 365
1 366
1 367
1 368
1 369
1 370
1 371
1 372
1 373
1 374
1 375
1 376
1 377
1 378
1 379
0
0
0
0
0
0
0
0
0
0
0
0
0
0
0
0
0
0
0
0
0
0
0
0
0
0
0
0
0
0
0
0
1 380
1 381
1 382
1 383
1 384
1 385
1 386
1 387
1 388
1 389
1 390
1 391
1 392
1 393
1 394
1 395
1 396
1 397
0
0
0
0
0
0
0
0
0
0
0
0
0
0
0
0
0
0
0
0
0
0
0
0
0
0
0
0
0
0
0
0
0
0
0
0
0
1 398
1 399
1 400
1 401
1 402
1 403
1 404
1 405
1 406
1 407
1 408
1 409
1 410
1 411
0
0
0
0
0
0
0
0
0
0
0
0
0
0
0
0
0
0
0
0
0
0
0
0
0
0
0
0
0
0
0
0
0
0
0
0
0
0
0
0
0
0
0
0
0
0
0
0
0
0
0
0
0
0
0
0
0
0
0
0
0
0
0
0
0
0
0
0
0
0
0
0
0
0
0
0
0
0
0
0
0
0
0
0
0
0
0
0
0
0
0
0
0
0
0
0
0
0
0
0
0
0
0
0
0
0
0
0
0
0
0
0
0
0
0
0
0
0
0
0
0
0
0
0
0
0
0
0
0
0
0
0
0
0
0
0
0
0
0
0
0
0
0
0
0
0
0
0
0
0
0
0
0
0
0
0
0
0
0
0
0
0
0
0
0
0
0
0
0
0
0
0
0
0
0
0
0
0
0
0
0
0
0
0
0
0
0
0
0
0
0
0
0
0
0
0
0
0
0
0
0
0
0
0
0
0
0
0
0
0
0
0
0
0
0
0
0
0
0
0
0
0
0
0
0
0
0
0
0
0
0
0
0
0
0
0
0
0
0
0
0
0
0
0
0
0
0
0
0
0
0
0
0
0
0
0
0
0
0
0
0
0
0
0
0
0
0
0
0
0
0
0
0
0
0
0
0
0
0
0
0
0
0
0
0
0
0
0
0
0
0
0
0
0
0
0
0
0
0
0
0
0
0
0
0
0
0
0
0
0
0
0
0
0
0
0
0
0
0
0
0
0
0
0
0
0
0
0
0
0
0
0
0
0
0
0
0
0
0
0
0
0
0
0
0
0
0
0
0
0
0
0
0
0
0
0
0
0
0
0
0
0
0
0
0
0
0
0
0
0
0
0
0
0
0
0
0
0
0
0
0
0
0
0
0
0
0
0
0
0
0
0
0
0
0
0
0
0
0
0
0
0
0
0
0
0
0
0
0
0
0
0
0
0
0
0
0
0
0
0
0
0
0
0
0
0
0
0
0
0
0
0
0
0
0
0
0
0
0
0
0
0
0
0
0
0
0
0
0
0
0
0
0
0
0
0
0
0
0
0
0
0
0
0
0
0
0
0
0
0
0
0
0
0
0
0
0
0
0
0
0
0
0
0
0
0
0
0
0
0
0
0
0
0
0
0
0
0
0
0
0
0
0
0
0
0
0
0
0
0
0
0
0
0
0
0
0
0
0
0
0
0
0
0
0
0
0
0
0
0
0
0
0
0
0
0
0
0
0
0
0
0
0
0
0
0
0
0
0
0
0
0
0
0
0
0
0
0
0
0
0
0
0
0
0
0
0
0
0
0
0
0
0
0
0
0
0
0
0
0
0
0
0
0
0
0
0
0
0
0
0
0
0
0
0
0
0
0
0
0
0
0
0
0
0
0
0
0
0
0
0
0
0
0
0
0
0
0
0
0
0
0
0
0
0
0
0
0
0
0
0
0
0
0
0
0
0
0
0
0
0
0
0
0
0
0
0
0
0
0
0
0
0
0
0
0
0
0
0
0
0
0
0
0
0
0
0
0
0
0
0
0
0
0
0
0
0
0
0
0
0
0
0
0
0
0
0
0
0
0
0
0
0
0
0
0
0
0
0
0
0
0
0
0
0
0
0
0
0
0
0
0
0
0
0
0
0
0
0
0
0
0
0
0
0
0
0
0
0
0
0
0
0
0
0
0
0
0
0
0
0
0
0
0
0
0
0
0
0
0
0
0
0
0
0
0
0
0
0
0
0
0
0
0
0
0
0
0
0
0
0
0
0
0
0
0
0
0
0
0
0
0
0
0
0
0
0
0
0
0
0
0
0
0
0
0
0
0
0
0
0
0
0
0
0
0
0
0
0
0
0
0
0
0
0
0
0
0
0
0
0
0
0
0
0
0
0
0
0
0
0
0
0
0
0
0
0
0
0
0
0
0
0
0
0
0
0
0
0
0
0
0
0
0
0
0
0
0
