ply
format ascii 1.0
obj_info num_cols 50
obj_info num_rows 50
element vertex 305
property float x
property float y
property float z
element range_grid 2500
property list uchar int vertex_indices
end_header
1.5257265 1.0083420 -33.6857439
-0.7561203 -0.1149399 -33.9027070
-2.4430274 0.6568509 -32.1764762
2.5509093 0.7101933 -31.1687079
0.2295331 -0.6547006 -31.6004523
-1.6606220 -0.5222307 -30.5337079
-3.4726951 -0.1817505 -29.2676032
-5.0379365 0.7891939 -27.4021790
3.5138562 0.2674093 -28.8503442
1.3510785 -0.6694495 -28.8371470
-0.5317067 -0.5903299 -27.8378941
-2.4403252 -0.5990488 -26.9231051
-4.3388402 -0.5790248 -25.9814767
-5.9397185 0.2296977 -24.3132612
-7.5416738 0.9503871 -22.7417148
4.5056025 0.0065897 -26.4076205
2.4577465 -0.6314450 -26.0979029
0.5849320 -0.6028331 -25.1604632
-1.2988793 -0.6127954 -24.2589249
-3.1857960 -0.6313601 -23.3650766
-5.0662148 -0.6306104 -22.4537325
-6.8305609 -0.3278814 -21.2758518
-8.1772739 0.9774165 -19.2286990
5.5142211 -0.0982108 -23.8781115
3.5294142 -0.6129302 -23.4496744
1.6702460 -0.6226348 -22.5596661
-0.1776190 -0.5953678 -21.6368857
-2.0401676 -0.6166713 -20.7572390
-3.8905906 -0.6015859 -19.8458212
-5.7549920 -0.6265330 -18.9690464
-7.5784456 -0.5447110 -18.0016515
-8.8790297 0.8009061 -15.9800966
6.5161279 -0.1279283 -21.3444681
4.5687305 -0.6107009 -20.8851590
2.7328198 -0.6238620 -20.0097433
0.8779662 -0.6996307 -19.1878273
-0.9046637 -0.5394415 -18.1646812
-2.7052954 -0.4521634 -17.2058040
-4.5791085 -0.5797912 -16.4266208
-6.4380723 -0.6552515 -15.6024067
-8.2604858 -0.6318420 -14.6969176
-9.5397646 0.6890089 -12.7556088
7.5749472 0.2039416 -18.5645062
5.5816767 -0.6071076 -18.3853713
3.7691093 -0.6214734 -17.5221818
2.2265708 0.3081820 -15.8754830
0.5994246 0.8409498 -14.5721827
-1.0524578 1.2326375 -13.3935325
-2.8169951 1.2529532 -12.5199998
-4.7146186 0.9060767 -11.9376504
-7.1038486 -0.6829710 -12.3203132
-8.8861450 -0.6179156 -11.3948616
-10.0924912 0.7978406 -9.4401132
8.6741319 0.8691953 -15.5881590
6.5751452 -0.5770827 -15.9273010
4.8193445 -0.4617060 -14.9697841
3.4209826 0.9356172 -12.9844864
1.8715695 1.6348255 -11.5799856
0.2613051 2.0529264 -10.4093383
-1.4130610 2.2293935 -9.4340001
-3.0865540 2.3882628 -8.4755669
-4.9504149 2.0188212 -7.9198657
-7.7159030 -0.6151699 -9.0490028
-9.5197897 -0.6629136 -8.2210053
-10.6448377 0.8689147 -6.2419548
9.6412110 1.0764129 -13.0760948
7.5372037 -0.5740820 -13.5531948
5.8027250 -0.4577755 -12.6088964
4.5152821 1.3329661 -10.3643431
3.0530273 2.2631739 -8.8145929
1.7085076 3.4635742 -7.0770860
0.3769832 4.5603399 -5.4397235
-1.0556876 5.2363349 -4.1345159
-2.6766558 5.3169881 -3.2774123
-4.3728124 5.1907966 -2.5712733
-8.3592830 -0.6685058 -5.9496197
8.4800900 -0.5495178 -11.2212190
6.7352175 -0.5669828 -10.3926885
5.5326835 1.5569253 -7.9517097
4.2751612 3.1822438 -5.9206424
3.1455833 5.0341230 -3.7531002
1.7064927 5.6618222 -2.5076194
0.1981456 6.0063370 -1.4765675
-1.3174329 6.2919941 -0.4935473
-2.9439247 6.2456781 0.2524759
-4.6869195 5.9018322 0.7943593
-8.9322629 -0.5844964 -2.8312246
-10.1143923 0.7288049 -1.1097811
9.3968489 -0.5383351 -8.9569058
7.6648569 -0.5945793 -8.1670626
6.4421968 1.4526820 -5.8438685
4.2244238 5.5349784 -1.3178443
2.8074023 6.1619600 -0.1022657
0.7473841 9.5030668 3.7204194
-0.7370914 9.6303218 4.5458317
-2.2499747 9.6684363 5.3095645
-3.8285274 9.5353515 5.9602102
-6.5805028 6.5640431 4.7770073
-10.6473065 0.7965665 1.8639065
8.5591954 -0.6841547 -6.0385113
5.0502362 5.2216684 0.4844882
3.1422524 9.3727923 4.7994715
1.7747728 9.8227542 5.8282742
0.3157311 9.9575698 6.6437757
-1.1182034 10.1473775 7.4920841
-2.6409775 10.0851060 8.1773188
-4.4107173 9.4100153 8.4810936
-7.0022425 6.8284625 7.6240120
9.4695123 -0.5977573 -3.8365393
5.9343997 5.1916949 2.4412536
4.0932738 9.5963921 6.8074185
2.7489545 10.0656263 7.8274903
1.3542139 10.3311828 8.7111836
-0.0153640 10.6402420 9.6170490
-1.4399489 10.7692686 10.4074136
-2.9942150 10.5511003 10.9864404
-10.0852955 0.7812189 6.7030572
3.5619957 9.8646625 9.4995248
2.3587928 10.6918387 10.7111248
1.0436765 11.1011432 11.6584559
-0.3017679 11.3838794 12.5240185
-1.5588894 11.8739020 13.5048183
-3.3926580 10.8551179 13.6148118
-6.6144707 6.5571558 11.8973625
-10.6016787 0.8406448 9.4690777
9.5500896 -0.5994199 1.0861575
6.1004169 5.1145100 6.9530633
4.2831764 9.4052353 10.9850919
3.2394409 10.7453708 12.4744791
-0.0336755 9.5902241 13.2067500
-1.5669348 9.3802079 13.7931613
-4.4758976 9.4087199 15.2195780
-7.0254777 6.8018324 14.5351260
3.8410388 9.9401147 13.7115751
3.0624040 12.0004358 15.5483598
1.3341115 11.0156572 15.6850802
-0.6909113 9.2893931 15.4394674
-2.1312320 9.3023830 16.1444424
-3.0992551 10.5285205 17.4813232
-6.4285840 5.8382579 15.7644599
-10.0694572 0.8035084 13.9538696
9.6276830 -0.5976187 5.7865546
6.7129026 6.8180957 12.2622732
4.5085789 9.3712253 15.0717406
3.6575551 11.2457736 16.7638443
1.6321513 9.3068142 16.4169812
0.1917255 9.2723724 17.0891416
-2.2193310 14.0208640 21.4987780
-3.5291506 14.1078589 22.1908486
-4.7791110 14.3266755 22.9440959
1.3442924 14.1308108 21.7725958
-3.0797793 9.5290373 20.8789888
-5.6602481 6.6059878 20.2004448
-7.0576595 6.7518761 20.9713139
9.9773937 0.7678836 11.0088680
6.9034581 6.9138752 16.3897863
3.4847904 9.8550373 19.9051841
3.4983774 14.2115017 22.6607620
0.5396554 9.3529005 21.0087882
-1.2906402 8.1318520 21.1183106
-3.0098745 7.3200645 21.4336949
-5.2883098 5.1447898 21.1545789
-6.4393434 5.9217045 22.2029116
-10.0655008 0.7987913 20.7056078
4.0657968 9.0791431 21.0891760
2.4461667 8.3274928 21.4124153
0.6993628 7.2654019 21.6076282
-1.4558995 5.1236912 21.3412791
-2.9304368 5.0609782 22.0148390
-4.4807831 4.8034202 22.6061083
-5.8355744 5.0613767 23.4175219
-6.5812806 6.7734411 24.8221442
10.0619252 0.8424775 15.2754448
7.0219706 6.7534025 20.2113421
5.2033752 5.2282697 20.1941556
3.9707755 5.9386959 21.2059807
2.3484639 5.2775677 21.6010625
0.8734450 5.1481587 22.2370702
-0.5405887 5.2132593 22.9577828
-1.9790338 5.2023195 23.6456566
-3.4453753 5.1162198 24.3028904
-5.8149048 6.3660892 26.1800287
5.9830065 5.1353579 21.7260828
4.5590957 5.1251910 22.4075223
3.1841898 5.2835723 23.1603677
1.7561911 5.2523132 23.8318847
0.3240597 5.2110476 24.4997527
-0.5501094 6.8076272 25.8220405
-2.2093594 6.0630074 26.2028468
-6.1634519 -0.7449805 24.2715975
-7.7013632 -0.7980429 24.9838615
-9.1714414 -0.6807287 25.7594762
-10.0108043 0.9146565 27.0642930
10.1356513 0.8785351 19.3376708
7.1711411 6.7405752 23.9430459
5.3633024 5.1312411 23.9437422
3.0381402 6.7603696 25.9480372
1.2733268 5.5357512 26.1363380
-3.6525866 -0.5849377 25.1981925
-5.1264029 -0.5168009 25.9462470
-6.6916843 -0.6953781 26.6048134
-8.2067349 -0.7330359 27.3154653
-9.0384726 0.8861131 28.5937428
9.1095858 -0.6959440 20.9881749
6.4707147 6.3840143 25.9409159
4.7737128 5.1896925 26.1389244
2.1414186 0.8944468 25.1765494
-0.5763134 -3.2260263 24.3462272
-2.2213008 0.9392136 27.3046229
-4.2959326 -0.8024988 27.4003292
-5.7714246 -0.7734017 28.1273072
-6.6069350 0.9098570 29.4052282
10.1985054 0.8743512 23.2115593
8.4321261 -0.6128088 23.3225909
6.9555047 -0.6456481 24.0185257
5.4961472 -0.6052168 24.7426430
4.0283555 -0.6022255 25.4521728
1.5262037 0.8659048 27.3907296
0.0234834 0.6795165 28.0227418
-1.8135031 -0.5084346 28.3169269
-2.8025200 0.8791850 29.4854539
-4.6418439 -0.2193430 29.8253254
-8.7335316 -7.2160622 28.3126738
-10.0007772 -6.4356328 29.3128553
9.1978377 -0.6504551 24.8590532
7.7648762 -0.5540201 25.5962230
6.3036982 -0.5889807 26.2842859
4.8344707 -0.6517478 26.9629591
3.3880002 -0.6236921 27.6740066
0.9149428 0.8101154 29.5511690
-0.9465546 -0.5438237 29.8027546
-4.5922636 -7.1087755 28.4276411
-6.1741154 -7.1838286 29.1547706
-7.7523042 -7.2428078 29.8878056
-9.2945518 -7.2031485 30.6505863
10.2726666 0.9399944 26.9523540
8.5068991 -0.6937006 27.0577038
7.0591057 -0.7265483 27.7408989
4.5661262 0.7550060 29.6198394
2.7145992 -0.8100306 29.7979066
-0.5750565 -7.1117293 28.5060370
-2.1091300 -7.0921718 29.2547768
-3.6605524 -7.1284237 29.9863921
-5.2172910 -7.1774155 30.7147523
-6.7595105 -7.1817455 31.4565099
-8.2980143 -7.1761323 32.2010172
-9.7842922 -7.0365405 32.9815333
9.4440538 0.1753747 28.8331004
8.0887938 0.4317490 29.5985223
4.8948273 -7.0822609 27.8579062
3.3632348 -7.1098552 28.5843692
1.8413475 -7.0987139 29.3230649
0.3047649 -7.1410265 30.0455079
-1.2420622 -7.2136423 30.7596600
-2.7702923 -7.2206089 31.4935080
-4.2872360 -7.1932658 32.2368939
-5.8166436 -7.2048040 32.9693137
-7.3432984 -7.2081670 33.7039755
-8.8393877 -7.1306566 34.4592093
10.4644370 -5.9029482 27.6009284
8.7343810 -7.1034596 27.9345622
7.2249668 -7.1006063 28.6634726
5.7128953 -7.1103787 29.3884008
4.2005225 -7.1207673 30.1132174
2.6881737 -7.1304111 30.8383329
1.1860831 -7.1022719 31.5742534
-0.3526371 -7.2036055 32.2738599
-1.8684354 -7.2203757 32.9976677
-3.3642518 -7.1738521 33.7382273
-4.8622192 -7.1384027 34.4752074
-6.3788350 -7.1594189 35.1976392
-7.8877615 -7.1581662 35.9256473
9.5116215 -7.1102381 29.4560097
8.0036873 -7.1720462 30.1583524
6.5079105 -7.1710076 30.8798180
5.0223564 -7.1274569 31.6132555
3.5331100 -7.1044428 32.3403090
2.0305939 -7.1343612 33.0527170
0.5312985 -7.1501460 33.7691909
-0.9546275 -7.1198129 34.4975534
-2.4559539 -7.1422112 35.2123773
-3.9560868 -7.1593337 35.9287232
-6.7793764 -6.6960417 37.4738884
10.3881053 -6.4912778 31.1295239
8.7802251 -7.1816090 31.6431820
7.3180028 -7.0910019 32.3822709
5.8282192 -7.1338584 33.0841194
4.3492228 -7.1276247 33.7993524
2.8678037 -7.1320592 34.5117145
1.3912323 -7.1187908 35.2284418
-0.0910357 -7.1271668 35.9397210
-2.8967631 -6.6441820 37.4749179
9.5524553 -7.1350986 33.1144525
8.0918412 -7.1065101 33.8286689
6.6237162 -7.1165844 34.5325876
5.1560460 -7.1240436 35.2372284
3.6879256 -7.1329785 35.9415550
0.8129419 -6.9304709 37.4000159
10.4183126 -6.4913082 34.7078894
8.8554112 -7.0995384 35.2531642
7.3969902 -7.1310126 35.9451909
6.0778578 -6.5450310 36.7811048
4.5865497 -6.7438092 37.4318052
9.5176346 -7.5497234 36.5440912
8.1170707 -7.3344865 37.2886173
0
0
0
0
0
0
0
0
0
0
0
0
0
0
0
0
0
0
0
0
0
0
0
0
0
0
0
0
0
0
0
0
0
0
0
0
0
0
0
0
0
0
0
0
0
0
0
0
0
0
0
0
0
0
0
0
0
0
0
0
0
0
0
0
0
0
0
0
0
0
0
0
0
0
0
0
0
0
0
0
0
0
0
0
0
0
0
0
0
0
0
0
0
0
0
0
0
0
0
0
0
0
0
0
0
0
0
0
0
0
0
0
0
0
0
0
0
0
0
0
0
0
0
0
0
0
0
0
0
0
0
0
0
0
0
0
0
0
0
0
0
0
0
0
0
0
0
0
0
0
0
0
0
0
0
0
0
0
0
0
0
0
0
0
0
0
0
0
0
0
0
0
0
0
0
0
0
0
0
0
0
0
0
0
0
0
0
0
0
0
0
0
0
0
0
0
0
0
0
0
0
0
0
0
0
0
0
0
0
0
0
0
0
0
0
0
0
0
0
0
0
0
0
0
0
0
0
0
0
0
0
0
0
0
0
0
0
0
0
0
0
0
0
0
0
0
0
0
0
0
0
0
0
0
0
0
0
0
0
0
0
0
0
0
0
0
0
0
0
0
0
0
0
0
0
0
0
0
0
0
0
0
0
0
0
0
0
0
0
0
0
0
0
0
0
0
0
0
0
0
0
0
0
0
0
0
0
0
0
0
0
0
0
0
0
0
0
0
0
0
0
0
0
0
0
0
0
0
0
0
0
0
0
0
0
0
0
0
0
0
0
0
0
0
0
0
0
0
0
0
0
0
0
0
0
0
0
0
0
0
0
0
0
0
0
0
0
0
0
0
0
0
0
0
0
0
0
0
0
0
0
0
0
0
0
0
0
0
0
0
0
0
0
0
0
0
0
0
0
0
0
0
0
0
0
0
0
0
0
0
0
0
0
0
0
0
0
0
0
0
0
0
0
0
0
0
0
0
0
0
0
0
0
0
0
0
0
0
0
0
0
0
0
0
0
0
0
0
0
0
0
0
0
0
0
0
0
0
0
0
0
0
0
0
0
0
0
0
0
0
0
0
0
0
0
0
0
0
0
0
0
0
0
0
0
0
0
0
0
0
0
0
0
0
0
0
0
0
0
0
0
0
0
0
0
0
0
0
0
0
0
0
0
0
0
0
0
0
0
0
0
0
0
0
0
0
0
0
0
0
0
0
0
0
0
0
0
0
0
0
0
0
0
0
0
0
0
0
0
0
0
0
0
0
0
0
0
0
0
0
0
0
0
0
0
0
0
0
0
0
0
0
0
0
0
0
0
0
0
0
0
0
0
0
0
0
0
0
0
0
0
0
0
0
0
0
0
0
0
0
0
0
0
0
0
0
0
0
0
0
0
0
0
0
0
0
0
0
0
0
0
0
0
0
0
0
0
0
0
0
0
0
0
0
0
0
0
0
0
0
0
0
0
0
0
0
0
0
0
0
0
0
0
0
0
0
0
0
0
0
0
0
0
0
0
0
0
1 0
1 1
1 2
0
0
0
0
0
0
0
0
0
0
0
0
0
0
0
0
0
0
0
0
0
0
0
0
0
0
0
0
0
0
0
0
0
0
0
0
0
0
0
0
0
0
0
0
0
0
0
1 3
1 4
1 5
1 6
1 7
0
0
0
0
0
0
0
0
0
0
0
0
0
0
0
0
0
0
0
0
0
0
0
0
0
0
0
0
0
0
0
0
0
0
0
0
0
0
0
0
0
0
0
0
0
1 8
1 9
1 10
1 11
1 12
1 13
1 14
0
0
0
0
0
0
0
0
0
0
0
0
0
0
0
0
0
0
0
0
0
0
0
0
0
0
0
0
0
0
0
0
0
0
0
0
0
0
0
0
0
0
0
1 15
1 16
1 17
1 18
1 19
1 20
1 21
1 22
0
0
0
0
0
0
0
0
0
0
0
0
0
0
0
0
0
0
0
0
0
0
0
0
0
0
0
0
0
0
0
0
0
0
0
0
0
0
0
0
0
0
1 23
1 24
1 25
1 26
1 27
1 28
1 29
1 30
1 31
0
0
0
0
0
0
0
0
0
0
0
0
0
0
0
0
0
0
0
0
0
0
0
0
0
0
0
0
0
0
0
0
0
0
0
0
0
0
0
0
0
1 32
1 33
1 34
1 35
1 36
1 37
1 38
1 39
1 40
1 41
0
0
0
0
0
0
0
0
0
0
0
0
0
0
0
0
0
0
0
0
0
0
0
0
0
0
0
0
0
0
0
0
0
0
0
0
0
0
0
0
1 42
1 43
1 44
1 45
1 46
1 47
1 48
1 49
1 50
1 51
1 52
0
0
0
0
0
0
0
0
0
0
0
0
0
0
0
0
0
0
0
0
0
0
0
0
0
0
0
0
0
0
0
0
0
0
0
0
0
0
0
1 53
1 54
1 55
1 56
1 57
1 58
1 59
1 60
1 61
1 62
1 63
1 64
0
0
0
0
0
0
0
0
0
0
0
0
0
0
0
0
0
0
0
0
0
0
0
0
0
0
0
0
0
0
0
0
0
0
0
0
0
0
1 65
1 66
1 67
1 68
1 69
1 70
1 71
1 72
1 73
1 74
1 75
0
0
0
0
0
0
0
0
0
0
0
0
0
0
0
0
0
0
0
0
0
0
0
0
0
0
0
0
0
0
0
0
0
0
0
0
0
0
0
0
1 76
1 77
1 78
1 79
1 80
1 81
1 82
1 83
1 84
1 85
1 86
1 87
0
0
0
0
0
0
0
0
0
0
0
0
0
0
0
0
0
0
0
0
0
0
0
0
0
0
0
0
0
0
0
0
0
0
0
0
0
0
1 88
1 89
1 90
0
1 91
1 92
0
1 93
1 94
1 95
1 96
1 97
1 98
0
0
0
0
0
0
0
0
0
0
0
0
0
0
0
0
0
0
0
0
0
0
0
0
0
0
0
0
0
0
0
0
0
0
0
0
0
0
1 99
0
0
1 100
0
1 101
1 102
1 103
1 104
1 105
1 106
1 107
0
0
0
0
0
0
0
0
0
0
0
0
0
0
0
0
0
0
0
0
0
0
0
0
0
0
0
0
0
0
0
0
0
0
0
0
0
0
1 108
0
0
1 109
0
1 110
1 111
1 112
1 113
1 114
1 115
0
1 116
0
0
0
0
0
0
0
0
0
0
0
0
0
0
0
0
0
0
0
0
0
0
0
0
0
0
0
0
0
0
0
0
0
0
0
0
0
0
0
0
0
0
0
1 117
1 118
1 119
1 120
1 121
1 122
1 123
1 124
0
0
0
0
0
0
0
0
0
0
0
0
0
0
0
0
0
0
0
0
0
0
0
0
0
0
0
0
0
0
0
0
0
0
0
0
0
1 125
0
0
1 126
0
1 127
1 128
0
1 129
1 130
0
1 131
1 132
0
0
0
0
0
0
0
0
0
0
0
0
0
0
0
0
0
0
0
0
0
0
0
0
0
0
0
0
0
0
0
0
0
0
0
0
0
0
0
0
0
0
0
1 133
1 134
1 135
1 136
1 137
1 138
1 139
1 140
0
0
0
0
0
0
0
0
0
0
0
0
0
0
0
0
0
0
0
0
0
0
0
0
0
0
0
0
0
0
0
0
0
0
0
0
0
1 141
0
0
1 142
0
1 143
1 144
1 145
1 146
0
0
1 147
1 148
1 149
0
0
0
0
0
0
0
0
0
0
0
0
0
0
0
0
0
0
0
0
0
0
0
0
0
0
0
0
0
0
0
0
0
0
0
0
0
0
0
0
0
0
0
0
0
1 150
0
1 151
1 152
1 153
0
0
0
0
0
0
0
0
0
0
0
0
0
0
0
0
0
0
0
0
0
0
0
0
0
0
0
0
0
0
0
0
0
0
0
0
0
1 154
0
0
1 155
0
0
1 156
1 157
1 158
1 159
1 160
1 161
1 162
1 163
0
0
0
0
0
0
0
0
0
0
0
0
0
0
0
0
0
0
0
0
0
0
0
0
0
0
0
0
0
0
0
0
0
0
0
0
0
0
0
0
0
0
1 164
1 165
1 166
1 167
1 168
1 169
1 170
1 171
0
0
0
0
0
0
0
0
0
0
0
0
0
0
0
0
0
0
0
0
0
0
0
0
0
0
0
0
0
0
0
0
0
0
0
0
0
1 172
0
0
1 173
1 174
1 175
1 176
1 177
1 178
1 179
1 180
0
1 181
0
0
0
0
0
0
0
0
0
0
0
0
0
0
0
0
0
0
0
0
0
0
0
0
0
0
0
0
0
0
0
0
0
0
0
0
0
0
0
0
0
1 182
1 183
1 184
1 185
1 186
1 187
1 188
1 189
1 190
1 191
1 192
0
0
0
0
0
0
0
0
0
0
0
0
0
0
0
0
0
0
0
0
0
0
0
0
0
0
0
0
0
0
0
0
0
0
0
0
1 193
0
0
1 194
1 195
0
1 196
1 197
0
1 198
1 199
1 200
1 201
1 202
0
0
0
0
0
0
0
0
0
0
0
0
0
0
0
0
0
0
0
0
0
0
0
0
0
0
0
0
0
0
0
0
0
0
0
0
0
1 203
0
0
1 204
1 205
1 206
1 207
0
1 208
1 209
1 210
1 211
0
0
0
0
0
0
0
0
0
0
0
0
0
0
0
0
0
0
0
0
0
0
0
0
0
0
0
0
0
0
0
0
0
0
0
0
0
0
1 212
1 213
1 214
1 215
1 216
0
1 217
1 218
1 219
1 220
1 221
1 222
1 223
0
0
0
0
0
0
0
0
0
0
0
0
0
0
0
0
0
0
0
0
0
0
0
0
0
0
0
0
0
0
0
0
0
0
0
0
0
0
1 224
1 225
1 226
1 227
1 228
0
1 229
1 230
1 231
1 232
1 233
1 234
0
0
0
0
0
0
0
0
0
0
0
0
0
0
0
0
0
0
0
0
0
0
0
0
0
0
0
0
0
0
0
0
0
0
0
0
0
0
1 235
1 236
1 237
0
1 238
1 239
1 240
1 241
1 242
1 243
1 244
1 245
1 246
0
0
0
0
0
0
0
0
0
0
0
0
0
0
0
0
0
0
0
0
0
0
0
0
0
0
0
0
0
0
0
0
0
0
0
0
0
0
1 247
1 248
1 249
1 250
1 251
1 252
1 253
1 254
1 255
1 256
1 257
1 258
0
0
0
0
0
0
0
0
0
0
0
0
0
0
0
0
0
0
0
0
0
0
0
0
0
0
0
0
0
0
0
0
0
0
0
0
0
1 259
1 260
1 261
1 262
1 263
1 264
1 265
1 266
1 267
1 268
1 269
1 270
1 271
0
0
0
0
0
0
0
0
0
0
0
0
0
0
0
0
0
0
0
0
0
0
0
0
0
0
0
0
0
0
0
0
0
0
0
0
0
0
1 272
1 273
1 274
1 275
1 276
1 277
1 278
1 279
1 280
1 281
0
1 282
0
0
0
0
0
0
0
0
0
0
0
0
0
0
0
0
0
0
0
0
0
0
0
0
0
0
0
0
0
0
0
0
0
0
0
0
0
0
1 283
1 284
1 285
1 286
1 287
1 288
1 289
1 290
0
1 291
0
0
0
0
0
0
0
0
0
0
0
0
0
0
0
0
0
0
0
0
0
0
0
0
0
0
0
0
0
0
0
0
0
0
0
0
0
0
0
0
0
1 292
1 293
1 294
1 295
1 296
0
1 297
0
0
0
0
0
0
0
0
0
0
0
0
0
0
0
0
0
0
0
0
0
0
0
0
0
0
0
0
0
0
0
0
0
0
0
0
0
0
0
0
0
0
0
1 298
1 299
1 300
1 301
1 302
0
0
0
0
0
0
0
0
0
0
0
0
0
0
0
0
0
0
0
0
0
0
0
0
0
0
0
0
0
0
0
0
0
0
0
0
0
0
0
0
0
0
0
0
0
0
1 303
1 304
0
0
0
0
0
0
0
0
0
0
0
0
0
0
0
0
0
0
0
0
0
0
0
0
0
0
0
0
0
0
0
0
0
0
0
0
0
0
0
0
0
0
0
0
0
0
0
0
0
0
0
0
0
0
0
0
0
0
0
0
0
0
0
0
0
0
0
0
0
0
0
0
0
0
0
0
0
0
0
0
0
0
0
0
0
0
0
0
0
0
0
0
0
0
0
0
0
0
0
0
0
0
0
0
0
0
0
0
0
0
0
0
0
0
0
0
0
0
0
0
0
0
0
0
0
0
0
0
0
0
0
0
0
0
0
0
0
0
0
0
0
0
0
0
0
0
0
0
0
0
0
0
0
0
0
0
0
0
0
0
0
0
0
0
0
0
0
0
0
