ply
format ascii 1.0
obj_info num_cols 50
obj_info num_rows 50
element vertex 297
property float x
property float y
property float z
element range_grid 2500
property list uchar int vertex_indices
end_header
0.7071555 0.7474439 -34.3830497
-1.4208631 0.5506806 -33.8900183
1.4195047 -0.0443992 -32.0866698
-0.7731779 -0.5336795 -31.9263452
-2.7165459 -0.1195281 -30.7312098
-4.4420216 0.9036188 -28.8559720
4.5862811 1.0880549 -28.3848913
2.2097254 -0.4652651 -29.4200404
0.1362506 -0.6125751 -28.8709601
-1.9006079 -0.6105763 -28.1551972
-3.9093861 -0.5198199 -27.3425599
-5.6005159 0.4999610 -25.5242511
5.3533202 0.8241483 -25.6621732
3.0572897 -0.5579305 -26.4664281
1.0509481 -0.5645512 -25.7715666
-0.9494831 -0.5494097 -25.0534510
-2.9551894 -0.5544101 -24.3569265
-4.9711348 -0.5905236 -23.6930216
-6.7181741 0.1487715 -22.2209727
6.0779736 0.4504986 -23.1295306
3.8887237 -0.6117368 -23.5593614
1.9132796 -0.6128139 -22.8689297
-0.0516301 -0.5750594 -22.1384526
-2.0288483 -0.5857310 -21.4582056
-4.0032904 -0.5864346 -20.7677040
-5.9739877 -0.5763069 -20.0663150
-7.7729727 -0.0907882 -18.8896410
6.7800200 0.0496663 -20.6882771
4.7141086 -0.5798640 -20.6512227
2.7561694 -0.6357616 -20.0267304
0.8039617 -0.6603969 -19.3701699
-1.1362144 -0.6388288 -18.6674615
-3.0683556 -0.5943827 -17.9426299
-5.0135036 -0.5962499 -17.2637245
-6.9715408 -0.6352003 -16.6207262
-8.6797400 0.0039088 -15.3261322
7.4825232 -0.2608402 -18.2165659
5.5072479 -0.5836555 -17.8656652
3.5946616 -0.5691178 -17.1808824
1.9360355 0.4601300 -15.5147205
0.1709044 0.9300504 -14.4012330
-1.6594463 1.1069824 -13.5739483
-3.5756662 0.9867079 -13.0300875
-5.9747318 -0.5491261 -13.8102883
-7.9093510 -0.6052653 -13.1923403
8.2064363 -0.3521930 -15.5966668
6.2728554 -0.6095243 -15.1825880
4.5734659 0.2560323 -13.7044691
2.9614806 1.3290361 -12.0452223
1.2507373 1.8466581 -10.9182265
-0.5092901 2.1108461 -10.0326329
-2.3141817 2.1900768 -9.3201024
-4.2157607 1.9624941 -8.8868626
-6.9365099 -0.5888457 -10.5385220
-8.8398676 -0.6325606 -9.9170071
-10.1804737 0.7652297 -8.0212646
8.9706355 -0.0830060 -12.7144487
7.0261439 -0.5849728 -12.5296538
5.4371515 0.7118229 -10.6931607
3.9149630 2.0577010 -8.8315804
1.0382211 4.7309828 -5.1853222
-0.5440629 5.2887857 -4.0808582
-2.2481075 5.3859093 -3.3886611
-4.0706489 5.1194033 -3.0140464
-7.8471135 -0.5600258 -7.3004146
-9.7044623 -0.5550170 -6.6455260
9.8115065 0.8253543 -9.3479672
7.7458875 -0.6262127 -10.0117160
6.2213428 0.9199031 -8.0015090
3.6585883 5.2092343 -3.0078339
2.1020572 5.7980888 -1.9007742
0.4937284 6.1179163 -1.0325553
-1.1140010 6.3954096 -0.2049820
-2.8465341 6.2553454 0.2674236
-4.6451689 5.9420474 0.5974911
-8.7427642 -0.5634253 -4.1825916
-10.0766758 0.7151469 -2.4946317
8.4510763 -0.6372827 -7.5370527
4.4934782 5.6500348 -0.3441165
2.1903205 9.4783218 3.9983048
0.6130081 9.5523169 4.6184755
-0.9328910 9.7154611 5.3100150
-2.5231459 9.7269277 5.8769480
-4.2009705 9.4924741 6.2473289
-9.6121074 -0.5635661 -1.1496691
9.1476494 -0.5825692 -5.0755182
3.0006798 9.8238824 6.3714259
1.4851463 10.0141454 7.0715353
-0.0162516 10.2248092 7.7849253
-1.5661740 10.2607095 8.3591623
-3.2114547 10.0180621 8.7179118
10.0574082 0.9630994 -1.4765093
6.1130611 6.6817570 4.8424332
3.6892614 9.7963217 8.3803199
2.2845760 10.3176507 9.3219101
0.8784857 10.7632283 10.1985631
-0.6014011 10.9195456 10.8511849
-2.1343807 10.8997409 11.3702551
-4.1665724 9.4871832 10.8609701
-6.7333237 6.8113053 9.4474881
6.8145678 6.8747621 7.0612416
4.2795878 9.4464201 10.0948364
3.0530964 10.5982795 11.4854455
1.7181625 11.2141517 12.4664873
0.4690943 12.0289773 13.5836048
-1.0751809 11.8441651 13.9693721
-2.4932086 12.0433195 14.6315589
2.6305463 12.0228138 14.9142732
0.3647822 9.3380620 13.5404483
-1.1575283 9.3208942 14.0589224
-3.4192608 11.4815716 16.5930978
-6.6629524 6.7901899 13.9422394
-10.5789345 0.8684585 10.5337931
10.2598621 0.9374278 5.6425826
3.0288145 11.0474985 16.0516045
1.0493193 9.2661852 15.3552052
-0.4411623 9.2917569 15.8962776
-1.9329944 9.3099503 16.4320709
-3.0308406 10.4594206 17.7119306
7.1419845 6.7568910 13.3934071
3.5824199 10.6674143 17.5819695
0.3164002 14.0883890 21.2993405
-1.0585644 14.1228478 21.8059827
-2.4551457 14.0928687 22.2716690
-3.8269800 14.1315292 22.7803802
-10.4439256 0.8978515 15.1305060
3.7265747 14.1192103 22.0093226
2.3342868 14.0373174 22.4364987
-0.3332925 9.8465401 20.3226323
-1.5418646 10.5784652 21.2771708
-3.3773627 9.4260235 21.0810728
-5.7927959 6.8089456 20.0230239
6.8887359 6.8686119 17.6483112
4.5216230 9.3451995 20.2133711
3.1411807 9.5725975 20.8554390
1.7000722 9.5545838 21.3465222
0.2244598 9.4238190 21.7705557
-1.8358140 7.4773673 21.1249988
-3.4516345 7.0603798 21.3972161
-5.6138160 5.1548662 20.8160036
-10.3320273 0.8845970 19.4690225
6.0183581 6.8528639 19.9066479
4.6013795 7.0700493 20.5489178
3.2797853 7.6293914 21.3894830
1.6476294 6.9780293 21.5189705
-0.1685164 5.7784927 21.3416609
-1.8693924 5.0923695 21.4716338
-3.3784104 5.0663028 21.9813955
-4.9424045 4.8844645 22.4049175
10.0289732 0.7985779 16.4688098
6.2547705 5.1057738 20.6000715
4.7747677 5.1150877 21.1233713
3.3196955 5.2236079 21.7027330
1.8165377 5.1357386 22.1706711
0.3364862 5.1403820 22.6909384
-1.1313015 5.1848677 23.2329339
-2.6130094 5.1805491 23.7479284
-4.1363332 5.0533827 24.1972559
-9.2683025 -0.7334133 22.2123735
-10.2325726 0.8542518 23.5859883
10.6099413 0.8193143 18.2911894
5.3764511 5.0288288 22.7697031
3.9416097 5.1567393 23.3516074
2.5019337 5.2477071 23.9119472
1.0272487 5.1993382 24.3968132
0.0488869 6.8494073 25.7773463
-1.4732111 6.5613060 26.1278780
-3.1227617 5.9172127 26.2988633
-6.8663353 -0.6932413 23.4459866
-8.4226981 -0.6620758 24.0094580
4.9482946 6.8126292 25.8682379
3.4250491 6.3831295 26.1399542
1.7456295 5.4258670 26.1461191
-2.9843196 -0.6827043 24.0935854
-4.5189489 -0.6381497 24.6568215
-6.0719923 -0.6529501 25.1904893
-7.6483881 -0.7320999 25.6932849
-9.1718182 -0.6621828 26.2679918
-10.1184033 0.8749840 27.5311194
10.2308220 0.8933738 22.3473280
8.4516581 -0.7137844 22.0300221
6.9208707 -0.7094263 22.5673898
5.3999211 -0.6585541 23.1284940
3.8826471 -0.5995780 23.6930484
2.6997077 0.8337072 24.9436679
0.2800305 -2.6975516 23.7260794
-1.8264593 0.7865480 26.4974554
-3.7800618 -0.6525289 26.3392877
-5.3148303 -0.6671666 26.8669490
-6.9217091 -0.8883694 27.2991282
9.0547447 -0.5923642 23.7929356
7.5328937 -0.6488374 24.2928308
6.0205964 -0.6479753 24.8216319
4.5212080 -0.5880610 25.3791325
0.3874693 0.8990237 27.6595309
-1.1680267 0.6536882 28.0649695
-3.0602733 -0.6731976 27.9798213
-4.0663976 0.9044638 29.2185347
-5.5869035 0.7993941 29.6906309
-7.4357000 -0.2189323 29.7638276
9.6177691 -0.6286112 25.4351996
8.1282624 -0.5991323 25.9714599
6.6299741 -0.6208575 26.4830841
5.1307565 -0.6437988 26.9943751
3.6341277 -0.6521737 27.5126427
2.1703926 -0.5248632 28.0928314
1.0378927 0.8538009 29.2343482
-0.4664855 0.7261556 29.6907925
-2.2046069 -0.1781164 29.8087002
-5.8604189 -7.1188445 27.3305172
-7.4918425 -7.1982477 27.8574417
-9.1027956 -7.2110022 28.4132753
-10.4290623 -6.4405724 29.2933981
10.3640433 0.6238318 27.6427642
8.6931123 -0.6466710 27.5654817
7.2081806 -0.6850118 28.0642070
6.0520857 0.9043365 29.2948032
4.5550867 0.6967719 29.7097125
2.8629414 -0.3059281 29.7791520
-0.0593062 -6.0253865 27.8245773
-1.7434132 -6.4524190 28.1906734
-3.5057705 -7.1015730 28.4685531
-5.1008206 -7.1291413 29.0113454
-6.7118498 -7.2037568 29.5352449
-8.2963473 -7.1926918 30.0944485
-9.7734025 -6.8804327 30.7728060
7.7900793 -0.6587148 29.6507175
5.0636616 -7.1146071 27.3760468
3.4937895 -7.1173619 27.9229650
1.9285390 -7.0998899 28.4783792
0.3633042 -7.0850240 29.0324853
-1.2183499 -7.1347636 29.5600336
-2.7882346 -7.1367294 30.1073506
-4.3589507 -7.1415212 30.6535454
-5.9331578 -7.1571768 31.1955294
-7.5177617 -7.2029719 31.7260796
-9.0866201 -7.1991365 32.2759378
-10.4205791 -6.5495366 33.0665326
10.4926523 -6.0403910 27.8603324
8.7949019 -7.0878457 27.9505398
7.2437071 -7.0865181 28.4929065
5.6890881 -7.1038821 29.0274983
4.1388124 -7.0976998 29.5718739
2.5817680 -7.1231835 30.1034159
1.0280284 -7.1316037 30.6419931
-0.5443934 -7.2123096 31.1524026
-2.0993279 -7.2191914 31.6921354
-3.6560314 -7.2316562 32.2298065
-5.2038464 -7.2138807 32.7788866
-6.7521479 -7.1996659 33.3264277
-8.2984610 -7.1811744 33.8753270
9.3652681 -7.1192363 29.5598765
7.8203128 -7.1804393 30.0712040
6.2836826 -7.1855143 30.6054692
4.7615515 -7.1173130 31.1684120
3.2245535 -7.1287598 31.6998716
1.6930188 -7.1153343 32.2408761
0.1430289 -7.1782755 32.7531614
-1.4041522 -7.2230780 33.2728180
-2.9209055 -7.1546534 33.8339857
-4.4478772 -7.1283473 34.3793278
-5.9880507 -7.1470728 34.9085448
-7.5122271 -7.1157042 35.4552418
-8.8493634 -6.5478205 36.1836679
9.9223762 -7.1578214 31.1319244
8.3956132 -7.2087916 31.6425414
6.8953606 -7.1005435 32.2141838
5.3756441 -7.1118828 32.7398342
3.8544992 -7.1286260 33.2635981
2.3329196 -7.1451905 33.7875926
0.8153343 -7.1432540 34.3183591
-0.6993804 -7.1306728 34.8528220
-2.2270450 -7.1671524 35.3701503
-3.7450975 -7.1666243 35.9004583
-5.2600604 -7.1562769 36.4340218
-6.5577809 -6.4729893 37.1887784
10.5581058 -6.5424360 32.9158005
8.9778193 -7.1130970 33.2262943
7.4730433 -7.1331057 33.7432352
5.9715153 -7.1325873 34.2677207
4.4726775 -7.1191782 34.7967171
2.9686065 -7.1320130 35.3164449
1.4681626 -7.1278955 35.8420736
-0.0410288 -7.1595112 36.3556488
-1.3602760 -6.4744703 37.1059014
-2.9613189 -6.8653086 37.4996702
9.5272299 -7.1488927 34.7273698
8.0471062 -7.1139634 35.2582569
6.5584902 -7.1327304 35.7703852
5.0717927 -7.1389930 36.2869026
3.7423604 -6.4017211 37.0493220
2.1586358 -6.8850184 37.4067229
0.3156959 -8.3706450 37.4491166
9.9829039 -7.7628988 36.0026245
8.6881212 -6.5935249 36.9068650
7.2114889 -6.6815069 37.3883411
5.4850862 -8.0730371 37.4529005
0
0
0
0
0
0
0
0
0
0
0
0
0
0
0
0
0
0
0
0
0
0
0
0
0
0
0
0
0
0
0
0
0
0
0
0
0
0
0
0
0
0
0
0
0
0
0
0
0
0
0
0
0
0
0
0
0
0
0
0
0
0
0
0
0
0
0
0
0
0
0
0
0
0
0
0
0
0
0
0
0
0
0
0
0
0
0
0
0
0
0
0
0
0
0
0
0
0
0
0
0
0
0
0
0
0
0
0
0
0
0
0
0
0
0
0
0
0
0
0
0
0
0
0
0
0
0
0
0
0
0
0
0
0
0
0
0
0
0
0
0
0
0
0
0
0
0
0
0
0
0
0
0
0
0
0
0
0
0
0
0
0
0
0
0
0
0
0
0
0
0
0
0
0
0
0
0
0
0
0
0
0
0
0
0
0
0
0
0
0
0
0
0
0
0
0
0
0
0
0
0
0
0
0
0
0
0
0
0
0
0
0
0
0
0
0
0
0
0
0
0
0
0
0
0
0
0
0
0
0
0
0
0
0
0
0
0
0
0
0
0
0
0
0
0
0
0
0
0
0
0
0
0
0
0
0
0
0
0
0
0
0
0
0
0
0
0
0
0
0
0
0
0
0
0
0
0
0
0
0
0
0
0
0
0
0
0
0
0
0
0
0
0
0
0
0
0
0
0
0
0
0
0
0
0
0
0
0
0
0
0
0
0
0
0
0
0
0
0
0
0
0
0
0
0
0
0
0
0
0
0
0
0
0
0
0
0
0
0
0
0
0
0
0
0
0
0
0
0
0
0
0
0
0
0
0
0
0
0
0
0
0
0
0
0
0
0
0
0
0
0
0
0
0
0
0
0
0
0
0
0
0
0
0
0
0
0
0
0
0
0
0
0
0
0
0
0
0
0
0
0
0
0
0
0
0
0
0
0
0
0
0
0
0
0
0
0
0
0
0
0
0
0
0
0
0
0
0
0
0
0
0
0
0
0
0
0
0
0
0
0
0
0
0
0
0
0
0
0
0
0
0
0
0
0
0
0
0
0
0
0
0
0
0
0
0
0
0
0
0
0
0
0
0
0
0
0
0
0
0
0
0
0
0
0
0
0
0
0
0
0
0
0
0
0
0
0
0
0
0
0
0
0
0
0
0
0
0
0
0
0
0
0
0
0
0
0
0
0
0
0
0
0
0
0
0
0
0
0
0
0
0
0
0
0
0
0
0
0
0
0
0
0
0
0
0
0
0
0
0
0
0
0
0
0
0
0
0
0
0
0
0
0
0
0
0
0
0
0
0
0
0
0
0
0
0
0
0
0
0
0
0
0
0
0
0
0
0
0
0
0
0
0
0
0
0
0
0
0
0
0
0
0
0
0
0
0
0
0
0
0
0
0
0
0
0
0
0
0
0
0
0
0
0
0
0
0
0
0
0
0
0
0
0
0
0
0
0
0
0
0
0
0
0
0
0
0
0
0
0
0
0
0
0
0
0
0
0
0
0
0
0
0
0
0
0
0
0
0
1 0
1 1
0
0
0
0
0
0
0
0
0
0
0
0
0
0
0
0
0
0
0
0
0
0
0
0
0
0
0
0
0
0
0
0
0
0
0
0
0
0
0
0
0
0
0
0
0
0
0
0
1 2
1 3
1 4
1 5
0
0
0
0
0
0
0
0
0
0
0
0
0
0
0
0
0
0
0
0
0
0
0
0
0
0
0
0
0
0
0
0
0
0
0
0
0
0
0
0
0
0
0
0
0
1 6
1 7
1 8
1 9
1 10
1 11
0
0
0
0
0
0
0
0
0
0
0
0
0
0
0
0
0
0
0
0
0
0
0
0
0
0
0
0
0
0
0
0
0
0
0
0
0
0
0
0
0
0
0
0
1 12
1 13
1 14
1 15
1 16
1 17
1 18
0
0
0
0
0
0
0
0
0
0
0
0
0
0
0
0
0
0
0
0
0
0
0
0
0
0
0
0
0
0
0
0
0
0
0
0
0
0
0
0
0
0
0
1 19
1 20
1 21
1 22
1 23
1 24
1 25
1 26
0
0
0
0
0
0
0
0
0
0
0
0
0
0
0
0
0
0
0
0
0
0
0
0
0
0
0
0
0
0
0
0
0
0
0
0
0
0
0
0
0
0
1 27
1 28
1 29
1 30
1 31
1 32
1 33
1 34
1 35
0
0
0
0
0
0
0
0
0
0
0
0
0
0
0
0
0
0
0
0
0
0
0
0
0
0
0
0
0
0
0
0
0
0
0
0
0
0
0
0
0
1 36
1 37
1 38
1 39
1 40
1 41
1 42
1 43
1 44
0
0
0
0
0
0
0
0
0
0
0
0
0
0
0
0
0
0
0
0
0
0
0
0
0
0
0
0
0
0
0
0
0
0
0
0
0
0
0
0
0
1 45
1 46
1 47
1 48
1 49
1 50
1 51
1 52
1 53
1 54
1 55
0
0
0
0
0
0
0
0
0
0
0
0
0
0
0
0
0
0
0
0
0
0
0
0
0
0
0
0
0
0
0
0
0
0
0
0
0
0
0
1 56
1 57
1 58
1 59
0
1 60
1 61
1 62
1 63
1 64
1 65
0
0
0
0
0
0
0
0
0
0
0
0
0
0
0
0
0
0
0
0
0
0
0
0
0
0
0
0
0
0
0
0
0
0
0
0
0
0
0
1 66
1 67
1 68
0
1 69
1 70
1 71
1 72
1 73
1 74
1 75
1 76
0
0
0
0
0
0
0
0
0
0
0
0
0
0
0
0
0
0
0
0
0
0
0
0
0
0
0
0
0
0
0
0
0
0
0
0
0
0
0
1 77
0
0
1 78
0
1 79
1 80
1 81
1 82
1 83
1 84
0
0
0
0
0
0
0
0
0
0
0
0
0
0
0
0
0
0
0
0
0
0
0
0
0
0
0
0
0
0
0
0
0
0
0
0
0
0
0
1 85
0
0
0
0
1 86
1 87
1 88
1 89
1 90
0
0
0
0
0
0
0
0
0
0
0
0
0
0
0
0
0
0
0
0
0
0
0
0
0
0
0
0
0
0
0
0
0
0
0
0
0
0
0
0
1 91
0
0
1 92
0
1 93
1 94
1 95
1 96
1 97
1 98
1 99
0
0
0
0
0
0
0
0
0
0
0
0
0
0
0
0
0
0
0
0
0
0
0
0
0
0
0
0
0
0
0
0
0
0
0
0
0
0
0
0
0
1 100
0
1 101
1 102
1 103
1 104
1 105
1 106
0
0
0
0
0
0
0
0
0
0
0
0
0
0
0
0
0
0
0
0
0
0
0
0
0
0
0
0
0
0
0
0
0
0
0
0
0
0
0
0
0
0
0
0
0
0
1 107
1 108
1 109
0
1 110
1 111
1 112
0
0
0
0
0
0
0
0
0
0
0
0
0
0
0
0
0
0
0
0
0
0
0
0
0
0
0
0
0
0
0
0
0
0
0
0
0
1 113
0
0
0
0
0
1 114
1 115
1 116
1 117
1 118
0
0
0
0
0
0
0
0
0
0
0
0
0
0
0
0
0
0
0
0
0
0
0
0
0
0
0
0
0
0
0
0
0
0
0
0
0
0
0
0
0
0
1 119
0
0
1 120
0
0
1 121
1 122
1 123
1 124
1 125
0
0
0
0
0
0
0
0
0
0
0
0
0
0
0
0
0
0
0
0
0
0
0
0
0
0
0
0
0
0
0
0
0
0
0
0
0
0
0
0
0
0
0
1 126
1 127
1 128
1 129
1 130
1 131
0
0
0
0
0
0
0
0
0
0
0
0
0
0
0
0
0
0
0
0
0
0
0
0
0
0
0
0
0
0
0
0
0
0
0
0
0
0
0
0
0
1 132
0
1 133
1 134
1 135
1 136
1 137
1 138
1 139
0
1 140
0
0
0
0
0
0
0
0
0
0
0
0
0
0
0
0
0
0
0
0
0
0
0
0
0
0
0
0
0
0
0
0
0
0
0
0
0
0
0
0
1 141
1 142
1 143
1 144
1 145
1 146
1 147
1 148
0
0
0
0
0
0
0
0
0
0
0
0
0
0
0
0
0
0
0
0
0
0
0
0
0
0
0
0
0
0
0
0
0
0
0
0
0
0
0
1 149
0
0
1 150
1 151
1 152
1 153
1 154
1 155
1 156
1 157
0
1 158
1 159
0
0
0
0
0
0
0
0
0
0
0
0
0
0
0
0
0
0
0
0
0
0
0
0
0
0
0
0
0
0
0
0
0
0
0
0
1 160
0
0
0
1 161
1 162
1 163
1 164
1 165
1 166
1 167
1 168
1 169
0
0
0
0
0
0
0
0
0
0
0
0
0
0
0
0
0
0
0
0
0
0
0
0
0
0
0
0
0
0
0
0
0
0
0
0
0
0
0
0
0
0
1 170
1 171
1 172
0
1 173
1 174
1 175
1 176
1 177
1 178
0
0
0
0
0
0
0
0
0
0
0
0
0
0
0
0
0
0
0
0
0
0
0
0
0
0
0
0
0
0
0
0
0
0
0
0
1 179
1 180
1 181
1 182
1 183
1 184
1 185
0
1 186
1 187
1 188
1 189
0
0
0
0
0
0
0
0
0
0
0
0
0
0
0
0
0
0
0
0
0
0
0
0
0
0
0
0
0
0
0
0
0
0
0
0
0
0
0
1 190
1 191
1 192
1 193
0
0
1 194
1 195
1 196
1 197
1 198
1 199
0
0
0
0
0
0
0
0
0
0
0
0
0
0
0
0
0
0
0
0
0
0
0
0
0
0
0
0
0
0
0
0
0
0
0
0
0
0
1 200
1 201
1 202
1 203
1 204
1 205
1 206
1 207
1 208
1 209
1 210
1 211
1 212
0
0
0
0
0
0
0
0
0
0
0
0
0
0
0
0
0
0
0
0
0
0
0
0
0
0
0
0
0
0
0
0
0
0
0
0
0
1 213
1 214
1 215
1 216
1 217
1 218
1 219
1 220
1 221
1 222
1 223
1 224
1 225
0
0
0
0
0
0
0
0
0
0
0
0
0
0
0
0
0
0
0
0
0
0
0
0
0
0
0
0
0
0
0
0
0
0
0
0
0
0
0
1 226
1 227
1 228
1 229
1 230
1 231
1 232
1 233
1 234
1 235
1 236
1 237
0
0
0
0
0
0
0
0
0
0
0
0
0
0
0
0
0
0
0
0
0
0
0
0
0
0
0
0
0
0
0
0
0
0
0
0
1 238
1 239
1 240
1 241
1 242
1 243
1 244
1 245
1 246
1 247
1 248
1 249
1 250
0
0
0
0
0
0
0
0
0
0
0
0
0
0
0
0
0
0
0
0
0
0
0
0
0
0
0
0
0
0
0
0
0
0
0
0
0
0
1 251
1 252
1 253
1 254
1 255
1 256
1 257
1 258
1 259
1 260
1 261
1 262
1 263
0
0
0
0
0
0
0
0
0
0
0
0
0
0
0
0
0
0
0
0
0
0
0
0
0
0
0
0
0
0
0
0
0
0
0
0
0
1 264
1 265
1 266
1 267
1 268
1 269
1 270
1 271
1 272
1 273
1 274
1 275
0
0
0
0
0
0
0
0
0
0
0
0
0
0
0
0
0
0
0
0
0
0
0
0
0
0
0
0
0
0
0
0
0
0
0
0
0
0
1 276
1 277
1 278
1 279
1 280
1 281
1 282
1 283
1 284
1 285
0
0
0
0
0
0
0
0
0
0
0
0
0
0
0
0
0
0
0
0
0
0
0
0
0
0
0
0
0
0
0
0
0
0
0
0
0
0
0
0
0
1 286
1 287
1 288
1 289
1 290
1 291
1 292
0
0
0
0
0
0
0
0
0
0
0
0
0
0
0
0
0
0
0
0
0
0
0
0
0
0
0
0
0
0
0
0
0
0
0
0
0
0
0
0
0
0
0
1 293
1 294
1 295
1 296
0
0
0
0
0
0
0
0
0
0
0
0
0
0
0
0
0
0
0
0
0
0
0
0
0
0
0
0
0
0
0
0
0
0
0
0
0
0
0
0
0
0
0
0
0
0
0
0
0
0
0
0
0
0
0
0
0
0
0
0
0
0
0
0
0
0
0
0
0
0
0
0
0
0
0
0
0
0
0
0
0
0
0
0
0
0
0
0
0
0
0
0
0
0
0
0
0
0
0
0
0
0
0
0
0
0
0
0
0
0
0
0
0
0
0
0
0
0
0
0
0
0
0
0
0
0
0
0
0
0
0
0
0
0
0
0
0
0
0
0
0
0
0
0
0
0
0
0
0
0
0
0
0
0
0
0
0
0
0
0
0
0
0
0
0
0
0
0
0
0
