ply
format ascii 1.0
obj_info num_cols 50
obj_info num_rows 50
element vertex 226
property float x
property float y
property float z
element range_grid 2500
property list uchar int vertex_indices
end_header
2.8296833 13.3954669 22.2641209
2.0492121 12.3865595 21.1261414
-1.5896572 13.2245898 21.8918816
-3.1859391 13.3812534 22.5840338
-4.7200213 13.4671829 23.3583545
6.0454406 6.1993133 26.1187425
-1.8427184 11.5924600 21.4175982
7.0207921 4.8279803 24.7884905
5.9305338 4.6047023 25.8449509
4.2964029 4.9441783 26.2083926
2.3136978 5.6100604 26.1896907
0.3138286 6.2585648 26.2127086
9.8047867 0.2371735 28.4139372
8.7306991 0.0910215 29.3301785
7.2934843 0.3078154 29.7828296
1.3804356 4.7863211 24.9187460
0.2675761 4.5723358 25.9853844
-1.6009037 5.0545710 26.1980460
-3.6325318 5.6580470 26.2808653
-5.8468791 6.3912525 26.2296223
10.5593897 -0.8836575 26.9510472
9.6537637 -1.2014085 28.1099765
8.3445222 -1.1106657 28.7154919
7.2035152 -1.1842926 29.5402092
5.6161594 -0.8431747 29.8248793
3.7598127 -0.2776089 29.8336812
1.8376421 0.3178608 29.8236382
-4.5869379 4.7412770 25.0577786
-5.7884228 4.5893354 26.0709356
10.4523284 -1.1300487 24.2123570
5.4015828 -1.1006587 27.1668596
10.2820035 -6.5595597 35.2738257
9.6032189 -6.9269900 36.4205457
8.5569245 -6.9659965 37.1236171
7.1691441 -6.7212509 37.4576833
-1.9264894 -0.2621654 29.8470356
-4.0126029 0.3715202 29.8127024
10.4170522 -8.0732611 35.3074538
9.6475105 -8.3435227 36.3328373
8.6318383 -8.4003235 37.0573637
7.3299540 -8.2266777 37.4693105
5.6359548 -7.7558895 37.4919610
3.8772436 -7.2572578 37.4948046
1.9775092 -6.6757769 37.4079974
-8.2428146 -0.0539776 29.6159968
10.6396467 -8.7189647 33.4541929
10.0664541 -9.1606894 34.7583973
9.2648293 -9.3972731 35.7514320
8.2079718 -9.4222791 36.4352231
6.2434238 -8.7492993 36.1379461
5.2063551 -8.8035439 36.8736916
3.8677282 -8.6344355 37.3021080
2.2617093 -8.2810968 37.4881350
0.4404550 -7.7919675 37.5063109
-1.4450095 -7.2794697 37.5117785
-3.3876942 -6.7497638 37.5138045
10.3618033 -8.9593999 30.8885378
9.8960487 -9.5064889 32.4065996
9.4086069 -10.0096149 33.8378297
8.7076124 -10.3232259 34.9661505
7.7118210 -10.3992838 35.7309062
4.4786074 -8.8180889 34.0668388
3.3000106 -8.7934675 34.7119224
2.1532559 -8.7928340 35.3924852
1.0341544 -8.8117339 36.1009134
-0.0885194 -8.8277973 36.8050315
-1.4012153 -8.7176767 37.3359124
-3.1810018 -8.3092695 37.4679211
-5.1018915 -7.8278012 37.5181082
-7.1693604 -7.2741657 37.4917587
10.6074005 -8.6798499 26.6058454
10.1065888 -9.2437376 28.2358423
9.6147559 -9.7860450 29.8095095
9.1373176 -10.3126295 31.3374718
8.6697327 -10.8211689 32.8169388
8.1697906 -11.2814983 34.2016993
7.1564292 -11.3470100 34.9584161
4.5526643 -10.2794533 33.9822147
2.7759817 -9.8350233 33.9872708
0.8693048 -9.3222497 33.9080358
-0.8957112 -8.9261708 34.0204215
-2.2374618 -8.8226647 34.5727833
-3.4013864 -8.8371565 35.2983641
-4.5954027 -8.8326503 35.9969243
-5.7539515 -8.8503984 36.7270071
-7.0177508 -8.8046683 37.3695993
10.3652564 -8.9833043 23.7486944
9.8646077 -9.5650853 25.4793918
9.3178346 -10.0800670 27.0728297
8.8136029 -10.6017447 28.6575347
8.3551290 -11.1320092 30.2362593
7.8820118 -11.6259360 31.7341197
7.4555789 -12.1299931 33.2292537
6.4353961 -12.1960372 33.9971469
4.6990711 -11.7706179 33.9786757
2.9318785 -11.3440639 33.9757175
1.1306079 -10.9143695 33.9852343
-0.7267918 -10.4676691 33.9861353
-2.6120592 -10.0227197 34.0078817
-4.5790787 -9.5464333 34.0008939
-6.5540466 -9.0850026 34.0352310
-6.7725529 -9.6751509 35.6191923
-7.8655719 -9.7384523 36.4235301
10.5128981 -8.5862263 18.6506766
10.0703050 -9.2708749 20.6744441
9.5449248 -9.8518074 22.4803818
8.9755407 -10.3676064 24.1447930
8.5157039 -10.9398317 25.8895055
8.0534339 -11.4813802 27.5567270
7.5870711 -11.9933372 29.1502331
7.0976468 -12.4645203 30.6524859
6.4072746 -12.7758013 31.8623275
5.5795634 -12.9809673 32.8804781
4.6712295 -13.1243986 33.7875367
3.0350998 -12.7959595 33.9115322
1.3282978 -12.4379956 34.0014187
-0.5153764 -12.0118482 33.9969366
-2.4020874 -11.5781067 33.9984054
-4.3221627 -11.1429370 34.0159609
-6.3352884 -10.6720736 33.9967893
-6.9051379 -11.0347809 35.2675666
10.3065615 -8.9584634 15.4373250
9.7760463 -9.5897568 17.4491623
9.2528206 -10.1915795 19.3774164
8.6937539 -10.7333090 21.1652218
8.1796932 -11.2800158 22.9398003
7.7386163 -11.8515916 24.7381133
7.2473574 -12.3589972 26.3934918
6.5483031 -12.6983009 27.7195795
5.7334954 -12.9436751 28.8614606
4.8756199 -13.1495457 29.9225506
4.0650371 -13.3766364 31.0127526
3.2799686 -13.6098371 32.1043017
2.4846331 -13.8267917 33.1582221
1.4246715 -13.8759666 33.9173261
-0.3109849 -13.5267213 34.0043113
-2.1730166 -13.1197614 34.0107851
-4.1863652 -12.6445920 33.9232674
-6.1049609 -12.2411191 33.9725713
10.5471171 -8.5995309 9.6539748
10.0218055 -9.2968172 11.9276056
9.4408945 -9.9088331 13.9939462
8.8975343 -10.5150717 16.0218490
8.3783983 -11.1059644 17.9922381
7.8724181 -11.6746453 19.8923137
7.3982423 -12.2361480 21.7533998
6.7258808 -12.6314676 23.2635296
5.8574555 -12.8746654 24.4610457
4.9940906 -13.1096335 25.6323999
4.1465458 -13.3438815 26.7923870
3.3356682 -13.5905471 27.9656938
2.4810559 -13.7994190 29.0583961
1.6861406 -14.0350899 30.1913190
0.8418673 -14.2318059 31.2436873
0.0500053 -14.4504908 32.3269766
-2.0626890 -13.9183426 32.0757540
-4.2807005 -13.3507330 31.7868508
-6.5662989 -12.7701785 31.5013968
10.2080160 -8.9043634 5.6958299
9.5868109 -9.5486560 7.9640183
9.0834406 -10.2466282 10.3212451
8.5505503 -10.8814578 12.5094538
7.9990489 -11.4666156 14.5619856
7.5130078 -12.0665742 16.6196384
6.9235918 -12.5622352 18.4302941
6.0220974 -12.8200528 19.7226752
5.1272274 -13.0694346 20.9862482
4.2207272 -13.2992291 22.1988476
3.3680667 -13.5520768 23.4477794
2.5025380 -13.7853311 24.6464491
1.6694462 -14.0275362 25.8524295
0.8134082 -14.2456108 27.0006923
-0.1849545 -14.3727880 27.9644711
-2.3731354 -13.8282115 27.6461940
-4.7162406 -13.2225729 27.2389393
9.3116742 -9.9691130 4.0795309
8.7165141 -10.6165259 6.4366786
8.1786655 -11.2681158 8.7730706
7.6151116 -11.8634066 10.9500399
7.0616500 -12.4323571 13.0394127
6.1797572 -12.7458069 14.5298263
5.2235974 -12.9934692 15.8599600
4.3281520 -13.2679088 17.2374033
3.4184347 -13.5197585 18.5532061
2.5421463 -13.7800332 19.8754685
1.6316261 -14.0075236 21.1162238
0.7419119 -14.2367900 22.3502491
-0.3537585 -14.3380596 23.3085786
-2.7729397 -13.6958133 22.7402003
-5.2032523 -13.0766660 22.2499806
7.7986710 -11.6911643 4.8248497
7.2438742 -12.3114668 7.1734571
6.3654437 -12.6736425 8.8701323
5.3759654 -12.9416758 10.3249389
4.3739360 -13.1873337 11.7141367
3.4536304 -13.4719937 13.1825773
2.5285625 -13.7393465 14.5973672
1.6095930 -13.9972196 15.9776616
0.6905964 -14.2427286 17.3176481
-0.5766259 -14.2781340 18.1767550
-3.1729584 -13.5722063 17.3980499
-5.6979954 -12.9383995 16.8127204
6.4929395 -12.5415098 2.5180726
5.5260136 -12.8734169 4.2250757
4.5026865 -13.1499324 5.7746869
3.4846869 -13.4148402 7.2812776
2.5025951 -13.6879235 8.7949505
1.5928332 -13.9903507 10.3671504
0.5909992 -14.2238041 11.7561514
-0.9016126 -14.1666286 12.4334177
-3.6050921 -13.4408392 11.5211688
-6.2547644 -12.7799221 10.8004205
5.3124000 -12.5421857 -3.2079797
4.4057319 -12.9525594 -1.1885566
3.3852917 -13.2669931 0.5489460
2.5059498 -13.6509962 2.4566639
1.5663501 -13.9779646 4.1924775
0.5688547 -14.2539311 5.7769115
-1.2216332 -14.0656859 6.1388468
-4.0185645 -13.3313450 5.1056004
2.9859191 -12.9184431 -7.4863959
2.0839881 -13.3472315 -5.3129643
1.2301692 -13.7802832 -3.1511543
0.3324562 -14.1636306 -1.1548619
-2.9385040 -13.1829540 -3.0204395
0.3955322 -14.2528403 -8.2998222
0
0
0
0
0
0
0
0
0
0
0
0
0
0
0
0
0
0
0
0
0
0
0
0
0
0
0
0
0
0
0
0
0
0
0
0
0
0
0
0
0
0
0
0
0
0
0
0
0
0
0
0
0
0
0
0
0
0
0
0
0
0
0
0
0
0
0
0
0
0
0
0
0
0
0
0
0
0
0
0
0
0
0
0
0
0
0
0
0
0
0
0
0
0
0
0
0
0
0
0
0
0
0
0
0
0
0
0
0
0
0
0
0
0
0
0
0
0
0
0
0
0
0
0
0
0
0
0
0
0
0
0
0
0
0
0
0
0
0
0
0
0
0
0
0
0
0
0
0
0
0
0
0
0
0
0
0
0
0
0
0
0
0
0
0
0
0
0
0
0
0
0
0
0
0
0
0
0
0
0
0
0
0
0
0
0
0
0
0
0
0
0
0
0
0
0
0
0
0
0
0
0
0
0
0
0
0
0
0
0
0
0
0
0
0
0
0
0
0
0
0
0
0
0
0
0
0
0
0
0
0
0
0
0
0
0
0
0
0
0
0
0
0
0
0
0
0
0
0
0
0
0
0
0
0
0
0
0
0
0
0
0
0
0
0
0
0
0
0
0
0
0
0
0
0
0
0
0
0
0
0
0
0
0
0
0
0
0
0
0
0
0
0
0
0
0
0
0
0
0
0
0
0
0
0
0
0
0
0
0
0
0
0
0
0
0
0
0
0
0
0
0
0
0
0
0
0
0
0
0
0
0
0
0
0
0
0
0
0
0
0
0
0
0
0
0
0
0
0
0
0
0
0
0
0
0
0
0
0
0
0
0
0
0
0
0
0
0
0
0
0
0
0
0
0
0
0
0
0
0
0
0
0
0
0
0
0
0
0
0
0
0
0
0
0
0
0
0
0
0
0
0
0
0
0
0
0
0
0
0
0
0
0
0
0
0
0
0
0
0
0
0
0
0
0
0
0
0
0
0
0
0
0
0
0
0
0
0
0
0
0
0
0
0
0
0
0
0
0
0
0
0
0
0
0
0
0
0
0
0
0
0
0
0
0
0
0
0
0
0
0
0
0
0
0
0
0
0
0
0
0
0
0
0
0
0
0
0
0
0
0
0
0
0
0
0
0
0
0
0
0
0
0
0
0
0
0
0
0
0
0
0
0
0
0
0
0
0
0
0
0
0
0
0
0
0
0
0
0
0
0
0
0
0
0
0
0
0
0
0
0
0
0
0
0
0
0
0
0
0
0
0
0
0
0
0
0
0
0
0
0
0
0
0
0
0
0
0
0
0
0
0
0
0
0
0
0
0
0
0
0
0
0
0
0
0
0
0
0
0
0
0
0
0
0
0
0
0
0
0
0
0
0
0
0
0
0
0
0
0
0
0
0
0
0
0
0
0
0
0
0
0
0
0
0
0
0
0
0
0
1 0
0
0
0
0
0
0
0
0
0
0
0
0
0
0
0
0
0
0
0
0
0
0
0
0
0
0
0
0
0
0
0
0
0
0
0
0
0
0
0
0
0
0
0
0
0
0
0
0
0
1 1
0
1 2
1 3
1 4
0
0
0
0
0
0
0
0
0
0
0
0
0
0
0
0
0
0
0
0
0
0
0
0
0
0
0
0
0
0
0
0
0
0
0
0
0
0
0
0
0
0
0
0
0
1 5
0
1 6
0
0
0
0
0
0
0
0
0
0
0
0
0
0
0
0
0
0
0
0
0
0
0
0
0
0
0
0
0
0
0
0
0
0
0
0
0
0
0
0
0
0
0
0
0
0
1 7
1 8
1 9
1 10
1 11
0
0
0
0
0
0
0
0
0
0
0
0
0
0
0
0
0
0
0
0
0
0
0
0
0
0
0
0
0
0
0
0
0
0
0
0
0
0
0
0
0
0
0
0
0
1 12
1 13
1 14
1 15
1 16
1 17
1 18
1 19
0
0
0
0
0
0
0
0
0
0
0
0
0
0
0
0
0
0
0
0
0
0
0
0
0
0
0
0
0
0
0
0
0
0
0
0
0
0
0
0
0
1 20
1 21
1 22
1 23
1 24
1 25
1 26
1 27
1 28
0
0
0
0
0
0
0
0
0
0
0
0
0
0
0
0
0
0
0
0
0
0
0
0
0
0
0
0
0
0
0
0
0
0
0
0
0
0
0
0
1 29
0
0
0
1 30
1 31
1 32
1 33
1 34
1 35
1 36
0
0
0
0
0
0
0
0
0
0
0
0
0
0
0
0
0
0
0
0
0
0
0
0
0
0
0
0
0
0
0
0
0
0
0
0
0
0
0
0
0
0
0
0
1 37
1 38
1 39
1 40
1 41
1 42
1 43
1 44
0
0
0
0
0
0
0
0
0
0
0
0
0
0
0
0
0
0
0
0
0
0
0
0
0
0
0
0
0
0
0
0
0
0
0
0
0
0
0
0
0
1 45
1 46
1 47
1 48
1 49
1 50
1 51
1 52
1 53
1 54
1 55
0
0
0
0
0
0
0
0
0
0
0
0
0
0
0
0
0
0
0
0
0
0
0
0
0
0
0
0
0
0
0
0
0
0
0
0
0
0
1 56
1 57
1 58
1 59
1 60
1 61
1 62
1 63
1 64
1 65
1 66
1 67
1 68
1 69
0
0
0
0
0
0
0
0
0
0
0
0
0
0
0
0
0
0
0
0
0
0
0
0
0
0
0
0
0
0
0
0
0
0
1 70
1 71
1 72
1 73
1 74
1 75
1 76
1 77
1 78
1 79
1 80
1 81
1 82
1 83
1 84
1 85
0
0
0
0
0
0
0
0
0
0
0
0
0
0
0
0
0
0
0
0
0
0
0
0
0
0
0
0
0
0
0
0
0
1 86
1 87
1 88
1 89
1 90
1 91
1 92
1 93
1 94
1 95
1 96
1 97
1 98
1 99
1 100
1 101
1 102
0
0
0
0
0
0
0
0
0
0
0
0
0
0
0
0
0
0
0
0
0
0
0
0
0
0
0
0
0
0
0
1 103
1 104
1 105
1 106
1 107
1 108
1 109
1 110
1 111
1 112
1 113
1 114
1 115
1 116
1 117
1 118
1 119
1 120
0
0
0
0
0
0
0
0
0
0
0
0
0
0
0
0
0
0
0
0
0
0
0
0
0
0
0
0
0
0
0
1 121
1 122
1 123
1 124
1 125
1 126
1 127
1 128
1 129
1 130
1 131
1 132
1 133
1 134
1 135
1 136
1 137
1 138
0
0
0
0
0
0
0
0
0
0
0
0
0
0
0
0
0
0
0
0
0
0
0
0
0
0
0
0
0
0
1 139
1 140
1 141
1 142
1 143
1 144
1 145
1 146
1 147
1 148
1 149
1 150
1 151
1 152
1 153
1 154
1 155
1 156
1 157
0
0
0
0
0
0
0
0
0
0
0
0
0
0
0
0
0
0
0
0
0
0
0
0
0
0
0
0
0
0
1 158
1 159
1 160
1 161
1 162
1 163
1 164
1 165
1 166
1 167
1 168
1 169
1 170
1 171
1 172
1 173
1 174
0
0
0
0
0
0
0
0
0
0
0
0
0
0
0
0
0
0
0
0
0
0
0
0
0
0
0
0
0
0
0
0
0
1 175
1 176
1 177
1 178
1 179
1 180
1 181
1 182
1 183
1 184
1 185
1 186
1 187
1 188
1 189
0
0
0
0
0
0
0
0
0
0
0
0
0
0
0
0
0
0
0
0
0
0
0
0
0
0
0
0
0
0
0
0
0
0
0
0
1 190
1 191
1 192
1 193
1 194
1 195
1 196
1 197
1 198
1 199
1 200
1 201
0
0
0
0
0
0
0
0
0
0
0
0
0
0
0
0
0
0
0
0
0
0
0
0
0
0
0
0
0
0
0
0
0
0
0
0
0
0
1 202
1 203
1 204
1 205
1 206
1 207
1 208
1 209
1 210
1 211
0
0
0
0
0
0
0
0
0
0
0
0
0
0
0
0
0
0
0
0
0
0
0
0
0
0
0
0
0
0
0
0
0
0
0
0
0
0
0
1 212
1 213
1 214
1 215
1 216
1 217
1 218
1 219
0
0
0
0
0
0
0
0
0
0
0
0
0
0
0
0
0
0
0
0
0
0
0
0
0
0
0
0
0
0
0
0
0
0
0
0
0
0
0
0
0
0
1 220
1 221
1 222
1 223
1 224
0
0
0
0
0
0
0
0
0
0
0
0
0
0
0
0
0
0
0
0
0
0
0
0
0
0
0
0
0
0
0
0
0
0
0
0
0
0
0
0
0
0
0
0
0
0
1 225
0
0
0
0
0
0
0
0
0
0
0
0
0
0
0
0
0
0
0
0
0
0
0
0
0
0
0
0
0
0
0
0
0
0
0
0
0
0
0
0
0
0
0
0
0
0
0
0
0
0
0
0
0
0
0
0
0
0
0
0
0
0
0
0
0
0
0
0
0
0
0
0
0
0
0
0
0
0
0
0
0
0
0
0
0
0
0
0
0
0
0
0
0
0
0
0
0
0
0
0
0
0
0
0
0
0
0
0
0
0
0
0
0
0
0
0
0
0
0
0
0
0
0
0
0
0
0
0
0
0
0
0
0
0
0
0
0
0
0
0
0
0
0
0
0
0
0
0
0
0
0
0
0
0
0
0
0
0
0
0
0
0
0
0
0
0
0
0
0
0
0
0
0
0
0
0
0
0
0
0
0
0
0
0
0
0
0
0
0
0
0
0
0
0
0
0
0
0
0
0
0
0
0
0
0
0
0
0
0
0
0
0
0
0
0
0
0
0
0
0
0
0
0
0
0
0
0
0
0
0
0
0
0
0
0
0
0
0
0
0
0
0
0
0
0
0
0
0
0
0
0
0
0
0
0
0
0
0
0
0
0
0
0
0
0
0
0
0
0
0
0
0
0
0
0
0
0
0
0
0
0
0
0
0
0
0
0
0
0
0
0
0
0
0
0
0
0
0
0
0
0
0
0
0
0
0
0
0
0
0
0
0
0
0
0
0
0
0
0
0
0
0
0
0
0
0
0
0
0
0
0
0
0
0
0
0
0
0
0
0
0
0
0
0
0
0
0
0
0
0
0
0
0
0
0
0
0
0
0
0
0
0
0
0
0
0
0
0
0
0
0
0
0
0
0
0
0
0
0
0
0
0
0
0
0
0
0
0
0
0
0
0
0
0
0
0
0
0
0
0
0
0
0
0
0
0
0
0
0
0
0
0
0
0
0
0
0
0
0
0
0
0
0
0
0
0
0
0
0
0
0
0
0
0
0
0
0
0
0
0
0
0
0
0
0
0
0
0
0
0
0
0
0
0
0
0
0
0
0
0
0
0
0
0
0
0
0
0
0
0
0
0
0
0
0
0
0
0
0
0
0
0
0
0
0
0
0
0
0
0
0
0
0
0
0
0
0
0
0
0
0
0
0
0
0
0
0
0
0
0
0
0
0
0
0
0
0
0
0
0
0
0
0
0
0
0
0
0
0
0
0
0
0
0
0
0
0
0
0
0
0
0
0
0
0
0
0
0
0
0
0
0
0
0
0
0
0
0
0
0
0
0
0
0
0
0
0
0
0
0
0
0
0
0
0
0
0
0
0
0
0
0
0
0
0
0
0
0
0
0
0
0
0
0
0
0
0
0
0
0
0
0
0
0
0
0
0
0
0
0
0
0
0
0
0
0
0
0
0
0
0
0
0
0
0
0
0
0
0
0
0
0
0
0
0
0
0
0
0
0
0
0
0
0
0
0
0
0
0
0
0
0
0
0
0
0
0
0
0
0
0
0
0
0
0
0
0
0
0
0
0
0
0
0
0
0
0
0
0
0
0
0
0
0
0
0
0
0
0
0
0
0
0
0
0
0
0
0
0
0
0
0
0
0
0
0
0
0
0
0
0
0
0
0
0
0
0
0
0
0
0
0
0
0
0
0
0
0
0
0
0
0
0
0
0
0
0
0
0
0
0
0
0
0
0
0
0
0
0
0
0
0
0
0
0
0
0
0
0
0
0
0
0
0
0
0
0
0
0
0
0
0
0
0
0
0
0
0
0
0
0
0
0
0
0
0
0
0
0
0
0
0
0
0
0
0
0
0
0
0
0
0
0
0
0
0
0
0
0
0
0
0
0
0
0
0
0
0
0
0
0
0
0
0
0
0
0
