ply
format ascii 1.0
obj_info num_cols 50
obj_info num_rows 50
element vertex 342
property float x
property float y
property float z
element range_grid 2500
property list uchar int vertex_indices
end_header
-0.4885121 11.9884948 13.8233537
-3.0204402 11.5977939 16.1436005
2.2315127 12.3346838 20.5654486
0.3105720 10.3212610 8.2443353
1.7321474 10.5398542 9.8778726
2.9196306 10.7201822 11.5023892
3.4148032 10.7863994 13.2083929
3.6188862 10.8045796 14.9552930
3.8464478 10.8266843 16.6931721
2.2212357 10.5259144 20.6527760
2.9403700 8.9887100 4.3801220
4.4494157 9.2459503 6.0098377
4.6077561 9.2579847 7.7551313
4.5647300 9.2333875 9.5256223
4.5605446 9.2158274 11.2942589
4.5925861 9.2048466 13.0595196
4.6848743 9.2048468 14.8150118
4.7020568 9.1911300 16.5855926
4.7619026 9.1851937 18.3487911
4.7170844 9.1600960 20.1378689
0.0267689 6.6352079 0.9720022
2.1427913 7.0363887 2.6610019
3.1238004 7.2127523 4.3806326
4.4965627 7.4673388 6.0287416
4.7968636 7.5089057 7.7634178
4.4337188 7.4183762 9.5826170
4.7912425 7.4713911 11.3046969
4.7862298 7.4521506 13.0799692
4.7800118 7.4326394 14.8583893
4.8224602 7.4228273 16.6296994
4.8682371 7.4136678 18.4015668
4.8248826 7.3866450 20.1961438
2.9441351 5.4287647 -2.7690149
4.1160317 5.6613942 -1.0208366
4.6257945 5.7516715 0.7259817
4.6960564 5.7472674 2.4893447
7.1481896 6.2381562 5.7746364
7.1311249 6.2152832 7.5102200
7.1502575 6.2002125 9.2440427
7.2516282 6.2029437 10.9670609
7.2312976 6.1792826 12.7103997
7.2108010 6.1555479 14.4571741
7.2470737 6.1441119 16.1955732
7.2244528 6.1198502 17.9486903
7.2154439 6.0985130 19.7020155
7.2754541 6.0921803 21.4404722
7.2697289 6.0715049 23.1977865
7.3002078 6.0586993 24.9473920
-9.1483175 0.9439815 -16.4901805
-9.2802640 0.8899344 -14.5178001
2.6176386 3.5581907 -6.3770434
4.3587489 3.9415096 -4.5829469
5.2822487 4.1353125 -2.8290397
5.9772999 4.2762700 -1.0954023
6.6305796 4.4077426 0.6195260
7.1394213 4.5057621 2.3251154
7.0968238 4.4752395 4.0645451
7.1383477 4.4643201 5.7992900
7.1572039 4.4480853 7.5380901
7.1327566 4.4216917 9.2849935
7.1956584 4.4157160 11.0217736
7.1837196 4.3921882 12.7721246
7.1141155 4.3550925 14.5366393
7.2262686 4.3606208 16.2684168
-9.7876323 0.3406558 21.8647052
-9.7883074 0.3161474 23.9185150
7.2424570 4.3018749 21.5403190
7.2106672 4.2734684 23.3130893
-6.9255307 0.9181285 29.2536657
-1.8034908 0.9513955 -34.3524908
-2.4133434 0.7776610 -32.6662306
-3.0779605 0.5901104 -30.9695975
-3.8831544 0.3675002 -29.2783993
-4.4855811 0.1946683 -27.5168304
-5.1659053 0.0022595 -25.7464638
-5.8767729 -0.1980432 -23.9554393
-6.4561610 -0.3660796 -22.1178930
-6.9228851 -0.5064367 -20.2429002
-7.4067012 -0.6512767 -18.3511671
1.5143352 1.4960950 -11.8815560
3.0482027 1.8554536 -9.9903288
4.2402554 2.1301568 -8.1591228
5.1336657 2.3307657 -6.3699892
5.7758397 2.4689360 -4.6078780
6.3859168 2.5993203 -2.8643028
6.9694000 2.7232760 -1.1378652
7.1534885 2.7473744 0.5928361
7.1526291 2.7251360 2.3330728
7.1502494 2.7024814 4.0761895
7.1798128 2.6878160 5.8187454
7.1701230 2.6632591 7.5678240
7.1594339 2.6384120 9.3201115
7.1767762 2.6205859 11.0711062
7.1761186 2.5981949 12.8273883
7.2195446 2.5868917 14.5779952
5.9672502 2.2483607 16.6007782
4.8338577 1.9392965 18.6429377
7.2890535 2.5375137 19.8521689
-1.7801087 0.2188824 23.9901951
-1.7294101 0.2073148 25.9052901
1.6798624 -0.0547830 -33.5669959
3.2313947 0.3310035 -31.3885885
4.5053367 0.6440601 -29.3245116
5.4492717 0.8703301 -27.3723415
6.0127705 0.9962355 -25.5256911
-0.1676842 -0.6652418 -24.9384081
-0.0979859 -0.6714293 -23.0934493
0.0337080 -0.6611623 -21.2386615
0.0530880 -0.6807210 -19.4004947
3.3398566 0.1447073 -15.3932530
4.3566367 0.3915422 -13.5209562
5.1204797 0.5713563 -11.6971102
5.7479806 0.7150948 -9.9031733
6.2672094 0.8301628 -8.1313321
6.7138222 0.9260187 -6.3755574
7.0816053 1.0009503 -4.6321430
7.3513534 1.0497599 -2.8966913
7.3418616 1.0238094 -1.1575310
7.3712634 1.0082519 0.5825821
7.3838446 0.9881549 2.3256071
7.3846228 0.9648551 4.0719748
7.4319977 0.9540518 5.8161353
7.4466485 0.9344243 7.5654252
7.4750648 0.9184754 9.3150291
7.4074278 0.8766000 11.0815394
7.2773872 0.8178128 12.8640809
6.9440168 0.7040004 14.6930305
6.9229671 0.6744369 16.4708670
7.2548266 0.7403257 18.1720423
7.2859326 0.7248761 19.9380177
2.7724804 -0.5225290 22.8974643
2.8947539 -0.5143629 24.7210847
2.7643236 -0.5748005 26.6184904
0.5485730 -2.2798988 -32.2022229
2.2958158 -1.8131277 -29.9724215
3.8002155 -1.4140962 -27.8518320
5.0064818 -1.0985960 -25.8394814
6.0847690 -0.8187355 -23.8888422
6.9379356 -0.6020931 -22.0098693
7.6803858 -0.4164317 -20.1738711
8.3532704 -0.2501669 -18.3697381
8.9251769 -0.1122599 -16.5976679
9.4288781 0.0065216 -14.8492584
9.7974855 0.0871205 -13.1266427
10.2129967 0.1812014 -11.4108552
10.4579043 0.2268836 -9.7150434
10.5772229 0.2368669 -8.0290215
10.5745957 0.2120984 -6.3462856
10.5664005 0.1857018 -4.6608081
10.5573002 0.1590049 -2.9723855
10.5997034 0.1469898 -1.2828836
10.5924111 0.1207382 0.4104908
10.6170921 0.1036014 2.1045052
10.6244613 0.0814767 3.8018668
10.6379870 0.0610836 5.5009970
10.6366527 0.0363923 7.2041699
10.6477153 0.0152245 8.9083340
10.6780480 -0.0004339 10.6117615
10.7337306 -0.0088183 12.3123821
10.6986629 -0.0433602 14.0312732
10.7061612 -0.0656837 15.7451441
10.7382772 -0.0809372 17.4558573
10.7658311 -0.0975312 19.1692869
10.7677688 -0.1215566 20.8912184
10.7484116 -0.1517821 22.6217966
10.7819406 -0.1667395 24.3400173
10.8141229 -0.1821096 26.0602278
10.3031693 -0.3550816 27.9633573
1.4148010 -3.9936382 -28.4983172
3.1301057 -3.5060086 -26.3332895
4.2734420 -3.1894314 -24.3301895
5.5321128 -2.8376203 -22.3436007
6.4817826 -2.5782240 -20.4441393
7.3367096 -2.3469258 -18.5871136
8.0091016 -2.1702714 -16.7781232
8.5878660 -2.0215682 -14.9988775
9.1320811 -1.8830428 -13.2396514
9.5220371 -1.7909124 -11.5067144
10.0370706 -1.6607741 -9.7782716
10.2960148 -1.6079633 -8.0731930
10.5225296 -1.5648875 -6.3748614
10.6627817 -1.5479028 -4.6815065
10.5680250 -1.6022393 -2.9858039
10.6093681 -1.6153071 -1.2891253
10.6196092 -1.6378533 0.4104776
10.6265598 -1.6614363 2.1126458
10.6410002 -1.6827743 3.8166007
10.6523509 -1.7050877 5.5230791
10.6520203 -1.7310010 7.2333091
10.7020036 -1.7415865 8.9391676
10.6879772 -1.7717559 10.6561391
10.7240590 -1.7866413 12.3675045
10.7250626 -1.8122916 14.0871228
10.7727472 -1.8236740 15.7995829
10.6822126 -1.8774760 17.5447268
10.8508650 -1.8517840 19.2319416
10.7597756 -1.9058669 20.9845482
10.7670659 -1.9297800 22.7154139
-6.0743127 -7.1406415 29.4952536
-6.0908630 -7.1764911 31.5378398
-6.0443387 -7.1929472 33.5631391
-5.6787895 -7.1109580 35.4774746
0.2273118 -6.3232390 -27.0419619
2.3106687 -5.6891481 -24.8045047
3.7684521 -5.2533713 -22.7417648
4.9568552 -4.9027840 -20.7672624
5.9925407 -4.6003555 -18.8514007
6.8210891 -4.3635998 -16.9928908
7.5996185 -4.1424332 -15.1651477
8.1959130 -3.9792197 -13.3768389
8.8925730 -3.7835672 -11.5995626
9.3298796 -3.6707399 -9.8565911
9.8076927 -3.5447153 -8.1246785
10.1650334 -3.4571676 -6.4084623
10.4280915 -3.3997763 -4.7017586
10.5738179 -3.3800356 -2.9992401
10.5829813 -3.4042359 -1.2941010
10.4848697 -3.4630507 0.4192074
10.4109857 -3.5141473 2.1369197
10.6541043 -3.4629772 3.8317756
10.5309032 -3.5300914 5.5597999
10.4361643 -3.5881122 7.2913450
10.6689764 -3.5401985 8.9826406
10.5917972 -3.5926319 10.7177780
10.4618561 -3.6622612 12.4676970
10.7083127 -3.6098477 14.1518540
10.6519019 -3.6557204 15.8942411
10.5249153 -3.7246138 17.6575919
10.7271022 -3.6865119 19.3468173
10.5673895 -3.7662024 21.1275661
10.7686644 -3.7283601 22.8146876
10.7363507 -3.7666550 24.5676586
0.4601179 -7.1499340 29.5867353
0.6400953 -7.1218886 31.4591975
0.6901718 -7.1362803 33.3743379
0.8419393 -7.1174011 35.2529519
1.2092285 -8.0171224 -23.2803993
3.0319599 -7.4334647 -21.1554910
4.3685257 -7.0128618 -19.1568857
5.5207467 -6.6537960 -17.2234906
6.4218513 -6.3789959 -15.3527156
7.3168908 -6.1057735 -13.5107621
8.0127190 -5.8995332 -11.7104977
8.6377664 -5.7169227 -9.9351412
9.1526747 -5.5713528 -8.1823671
9.6084603 -5.4455999 -6.4456700
10.0203087 -5.3345558 -4.7220224
10.3767888 -5.2421456 -3.0089408
10.5948224 -5.1966933 -1.3005251
10.6667813 -5.2009188 0.4108765
10.6203103 -5.2455252 2.1309529
10.6625312 -5.2599402 3.8475056
10.6400889 -5.2964606 5.5722119
10.6229286 -5.3312349 7.2998041
10.6910200 -5.3368994 9.0186726
10.6930726 -5.3651825 10.7484325
10.6619920 -5.4048660 12.4867598
10.7250879 -5.4123112 14.2106159
10.7160626 -5.4445251 15.9503503
10.7298657 -5.4689473 17.6879368
10.7933254 -5.4763311 19.4155065
10.7419281 -5.5232577 21.1741668
10.7592107 -5.5466019 22.9179771
10.7253691 -5.5876105 24.6794110
10.8967908 -5.5578509 26.3792709
6.4231454 -7.1324319 29.6438789
6.5412447 -7.1223930 31.4395253
6.6806025 -7.1049772 33.2259483
6.7312846 -7.1182355 35.0450428
3.1418564 -9.3918477 -17.5865819
4.7729694 -8.8427167 -15.5910267
5.8941406 -8.4745260 -13.6928890
6.9259344 -8.1376068 -11.8369492
7.6845584 -7.8977065 -10.0280060
8.3981478 -7.6734949 -8.2441937
8.9820005 -7.4953275 -6.4845781
9.4449642 -7.3601538 -4.7424204
9.8530459 -7.2444201 -3.0126568
10.2304314 -7.1394979 -1.2933121
10.5781371 -7.0450505 0.4171488
10.6298737 -7.0568213 2.1393175
10.6458792 -7.0814632 3.8656140
10.6445535 -7.1123843 5.5959672
10.6547747 -7.1391939 7.3277065
10.6690830 -7.1645718 9.0612862
10.6820163 -7.1904863 10.7973681
10.6970914 -7.2156681 12.5354062
10.7065312 -7.2429276 14.2768120
10.7179136 -7.2695274 16.0202759
10.7098595 -7.3032107 17.7706418
10.7118268 -7.3333152 19.5216219
10.7431571 -7.3528129 21.2675225
10.7757324 -7.3718885 23.0147803
10.7901724 -7.3975860 24.7692015
10.7913966 -7.4281328 26.5301909
10.8204085 -7.4486102 28.2845743
10.8721016 -7.4608530 30.0326763
10.8194699 -7.5111694 31.8208969
10.8785217 -7.5207938 33.5699938
10.4700512 -7.7012747 35.5120937
3.9373245 -11.1464058 -12.0961081
5.2793131 -10.6757815 -10.1968436
6.3293720 -10.3141596 -8.3515397
7.1735633 -10.0294197 -6.5435355
7.8808729 -9.7957651 -4.7621462
8.5287945 -9.5841021 -3.0016641
9.1114063 -9.3967227 -1.2587892
9.6711278 -9.2176642 0.4675981
10.0437572 -9.1090355 2.1904308
10.3183837 -9.0373039 3.9116435
10.1621717 -9.1286331 5.6720567
10.2189082 -9.1393883 7.4142486
10.2873021 -9.1457353 9.1555821
10.1988794 -9.2116411 10.9224618
10.2195675 -9.2361862 12.6758792
10.2133317 -9.2710123 14.4366792
10.1844971 -9.3144993 16.2053871
10.1778598 -9.3495993 17.9728350
10.1172204 -9.4053531 19.7568801
10.1281813 -9.4338677 21.5267945
10.0531763 -9.4952729 23.3237719
10.0475204 -9.5302621 25.1052621
10.0847924 -9.5488784 26.8760266
9.9703096 -9.6256559 28.6999621
10.0095895 -9.6436105 30.4758675
9.9138806 -9.7133929 32.3040798
9.7473324 -9.8105011 34.1666548
6.4537291 -12.3220095 -1.1686731
6.8871311 -12.1850802 0.6194052
7.3895140 -12.0205284 2.3900764
7.6936096 -11.9344668 4.1635534
7.7069500 -11.9638681 5.9603152
7.6664012 -12.0147633 7.7662567
7.6213209 -12.0675479 9.5772132
7.5791067 -12.1192774 11.3922483
7.5754946 -12.1556899 13.2048283
7.5394440 -12.2051164 15.0268645
7.4292578 -12.2842579 16.8690690
7.5014353 -12.2905765 18.6757525
7.4074870 -12.3634205 20.5244670
7.2869762 -12.4470325 22.3866931
7.3426734 -12.4601080 24.2056982
0
0
0
0
0
0
0
0
0
0
0
0
0
0
0
0
0
0
0
0
0
0
0
0
0
0
0
0
0
0
0
0
0
0
0
0
0
0
0
0
0
0
0
0
0
0
0
0
0
0
0
0
0
0
0
0
0
0
0
0
0
0
0
0
0
0
0
0
0
0
0
0
0
0
0
0
0
0
0
0
0
0
0
0
0
0
0
0
0
0
0
0
0
0
0
0
0
0
0
0
0
0
0
0
0
0
0
0
0
0
0
0
0
0
0
0
0
0
0
0
0
0
0
0
0
0
0
0
0
0
0
0
0
0
0
0
0
0
0
0
0
0
0
0
0
0
0
0
0
0
0
0
0
0
0
0
0
0
0
0
0
0
0
0
0
0
0
0
0
0
0
0
0
0
0
0
0
0
0
0
0
0
0
0
0
0
0
0
0
0
0
0
0
0
0
0
0
0
0
0
0
0
0
0
0
0
0
0
0
0
0
0
0
0
0
0
0
0
0
0
0
0
0
0
0
0
0
0
0
0
0
0
0
0
0
0
0
0
0
0
0
0
0
0
0
0
0
0
0
0
0
0
0
0
0
0
0
0
0
0
0
0
0
0
0
0
0
0
0
0
0
0
0
0
0
0
0
0
0
0
0
0
0
0
0
0
0
0
0
0
0
0
0
0
0
0
0
0
0
0
0
0
0
0
0
0
0
0
0
0
0
0
0
0
0
0
0
0
0
0
0
0
0
0
0
0
0
0
0
0
0
0
0
0
0
0
0
0
0
0
0
0
0
0
0
0
0
0
0
0
0
0
0
0
0
0
0
0
0
0
0
0
0
0
0
0
0
0
0
0
0
0
0
0
0
0
0
0
0
0
0
0
0
0
0
0
0
0
0
0
0
0
0
0
0
0
0
0
0
0
0
0
0
0
0
0
0
0
0
0
0
0
0
0
0
0
0
0
0
0
0
0
0
0
0
0
0
0
0
0
0
0
0
0
0
0
0
0
0
0
0
0
0
0
0
0
0
0
0
0
0
0
0
0
0
0
0
0
0
0
0
0
0
0
0
0
0
0
0
0
0
0
0
0
0
0
0
0
0
0
0
0
0
0
0
0
0
0
0
0
0
0
0
0
0
0
0
0
0
0
0
0
0
0
0
0
0
0
0
0
0
0
0
0
0
0
0
0
0
0
0
0
0
0
0
0
0
0
0
0
0
0
0
0
0
0
0
0
0
0
0
0
0
0
0
0
0
0
0
0
0
0
0
0
0
0
0
0
0
0
0
0
0
0
0
0
0
0
0
0
0
0
0
0
0
0
0
0
0
0
0
0
0
0
0
0
0
0
0
0
0
0
0
0
0
0
0
0
0
0
0
0
0
0
0
0
0
0
0
0
0
0
0
0
0
0
0
0
0
0
0
0
0
0
0
0
0
0
0
0
0
0
0
0
0
0
0
0
0
0
0
0
0
0
0
0
0
0
0
0
0
0
0
0
0
0
0
0
0
0
0
0
0
0
0
0
0
0
0
0
0
0
0
0
0
0
0
0
0
0
0
0
0
0
0
0
0
0
0
0
0
0
0
0
0
0
0
0
0
0
0
0
0
0
0
0
0
0
0
0
0
0
0
0
0
0
0
0
0
0
0
0
0
0
0
0
0
0
0
0
0
0
0
0
0
0
0
0
0
0
0
0
0
0
0
0
0
0
0
0
0
0
0
0
0
0
0
0
0
0
0
0
0
0
0
0
0
0
0
0
0
0
0
0
0
0
0
0
0
0
0
0
0
0
0
0
0
0
0
0
0
0
0
0
0
0
0
0
0
0
0
0
0
0
0
0
0
0
0
0
0
0
0
0
0
0
0
0
0
0
0
0
0
0
0
0
0
0
0
0
0
0
0
0
0
0
0
0
0
0
0
0
0
0
0
0
0
0
0
0
0
0
0
0
0
0
0
0
0
0
0
0
0
0
0
0
0
0
0
0
0
0
0
0
0
0
0
0
0
0
0
0
0
0
0
0
0
0
0
0
0
0
0
0
0
0
0
0
0
0
0
0
0
0
0
0
0
0
0
0
0
0
0
0
0
0
0
0
0
0
0
0
0
0
0
0
0
0
0
0
0
0
1 0
1 1
0
0
1 2
0
0
0
0
0
0
0
0
0
0
0
0
0
0
0
0
0
0
0
0
0
0
0
0
0
0
0
0
0
0
0
0
0
0
0
0
0
0
0
0
0
0
1 3
1 4
1 5
1 6
1 7
1 8
0
1 9
0
0
0
0
0
0
0
0
0
0
0
0
0
0
0
0
0
0
0
0
0
0
0
0
0
0
0
0
0
0
0
0
0
0
0
0
0
0
0
0
1 10
1 11
1 12
1 13
1 14
1 15
1 16
1 17
1 18
1 19
0
0
0
0
0
0
0
0
0
0
0
0
0
0
0
0
0
0
0
0
0
0
0
0
0
0
0
0
0
0
0
0
0
0
0
0
0
0
1 20
1 21
1 22
1 23
1 24
1 25
1 26
1 27
1 28
1 29
1 30
1 31
0
0
0
0
0
0
0
0
0
0
0
0
0
0
0
0
0
0
0
0
0
0
0
0
0
0
0
0
0
0
0
0
0
0
0
0
1 32
1 33
1 34
1 35
0
1 36
1 37
1 38
1 39
1 40
1 41
1 42
1 43
1 44
1 45
1 46
1 47
0
0
0
0
0
0
0
0
0
0
0
0
0
0
0
0
0
0
0
0
0
0
0
0
0
0
1 48
1 49
0
0
0
1 50
1 51
1 52
1 53
1 54
1 55
1 56
1 57
1 58
1 59
1 60
1 61
1 62
1 63
1 64
1 65
1 66
1 67
1 68
0
0
0
0
0
0
0
0
0
0
0
0
0
0
0
0
1 69
1 70
1 71
1 72
1 73
1 74
1 75
1 76
1 77
1 78
0
0
1 79
1 80
1 81
1 82
1 83
1 84
1 85
1 86
1 87
1 88
1 89
1 90
1 91
1 92
1 93
1 94
1 95
1 96
1 97
1 98
1 99
0
0
0
0
0
0
0
0
0
0
0
0
0
0
0
0
0
1 100
1 101
1 102
1 103
1 104
1 105
1 106
1 107
1 108
0
1 109
1 110
1 111
1 112
1 113
1 114
1 115
1 116
1 117
1 118
1 119
1 120
1 121
1 122
1 123
1 124
1 125
1 126
1 127
1 128
1 129
1 130
1 131
1 132
0
0
0
0
0
0
0
0
0
0
0
0
0
0
0
0
0
1 133
1 134
1 135
1 136
1 137
1 138
1 139
1 140
1 141
1 142
1 143
1 144
1 145
1 146
1 147
1 148
1 149
1 150
1 151
1 152
1 153
1 154
1 155
1 156
1 157
1 158
1 159
1 160
1 161
1 162
1 163
1 164
1 165
1 166
1 167
0
0
0
0
0
0
0
0
0
0
0
0
0
0
0
0
0
1 168
1 169
1 170
1 171
1 172
1 173
1 174
1 175
1 176
1 177
1 178
1 179
1 180
1 181
1 182
1 183
1 184
1 185
1 186
1 187
1 188
1 189
1 190
1 191
1 192
1 193
1 194
1 195
1 196
1 197
1 198
1 199
1 200
1 201
0
0
0
0
0
0
0
0
0
0
0
0
0
0
0
0
0
1 202
1 203
1 204
1 205
1 206
1 207
1 208
1 209
1 210
1 211
1 212
1 213
1 214
1 215
1 216
1 217
1 218
1 219
1 220
1 221
1 222
1 223
1 224
1 225
1 226
1 227
1 228
1 229
1 230
1 231
1 232
1 233
1 234
1 235
0
0
0
0
0
0
0
0
0
0
0
0
0
0
0
0
0
0
1 236
1 237
1 238
1 239
1 240
1 241
1 242
1 243
1 244
1 245
1 246
1 247
1 248
1 249
1 250
1 251
1 252
1 253
1 254
1 255
1 256
1 257
1 258
1 259
1 260
1 261
1 262
1 263
1 264
1 265
1 266
1 267
1 268
0
0
0
0
0
0
0
0
0
0
0
0
0
0
0
0
0
0
0
0
1 269
1 270
1 271
1 272
1 273
1 274
1 275
1 276
1 277
1 278
1 279
1 280
1 281
1 282
1 283
1 284
1 285
1 286
1 287
1 288
1 289
1 290
1 291
1 292
1 293
1 294
1 295
1 296
1 297
1 298
1 299
0
0
0
0
0
0
0
0
0
0
0
0
0
0
0
0
0
0
0
0
0
0
1 300
1 301
1 302
1 303
1 304
1 305
1 306
1 307
1 308
1 309
1 310
1 311
1 312
1 313
1 314
1 315
1 316
1 317
1 318
1 319
1 320
1 321
1 322
1 323
1 324
1 325
1 326
0
0
0
0
0
0
0
0
0
0
0
0
0
0
0
0
0
0
0
0
0
0
0
0
0
0
0
0
0
1 327
1 328
1 329
1 330
1 331
1 332
1 333
1 334
1 335
1 336
1 337
1 338
1 339
1 340
1 341
0
0
0
0
0
0
0
0
0
0
0
0
0
0
0
0
0
0
0
0
0
0
0
0
0
0
0
0
0
0
0
0
0
0
0
0
0
0
0
0
0
0
0
0
0
0
0
0
0
0
0
0
0
0
0
0
0
0
0
0
0
0
0
0
0
0
0
0
0
0
0
0
0
0
0
0
0
0
0
0
0
0
0
0
0
0
0
0
0
0
0
0
0
0
0
0
0
0
0
0
0
0
0
0
0
0
0
0
0
0
0
0
0
0
0
0
0
0
0
0
0
0
0
0
0
0
0
0
0
0
0
0
0
0
0
0
0
0
0
0
0
0
0
0
0
0
0
0
0
0
0
0
0
0
0
0
0
0
0
0
0
0
0
0
0
0
0
0
0
0
0
0
0
0
0
0
0
0
0
0
0
0
0
0
0
0
0
0
0
0
0
0
0
0
0
0
0
0
0
0
0
0
0
0
0
0
0
0
0
0
0
0
0
0
0
0
0
0
0
0
0
0
0
0
0
0
0
0
0
0
0
0
0
0
0
0
0
0
0
0
0
0
0
0
0
0
0
0
0
0
0
0
0
0
0
0
0
0
0
0
0
0
0
0
0
0
0
0
0
0
0
0
0
0
0
0
0
0
0
0
0
0
0
0
0
0
0
0
0
0
0
0
0
0
0
0
0
0
0
0
0
0
0
0
0
0
0
0
0
0
0
0
0
0
0
0
0
0
0
0
0
0
0
0
0
0
0
0
0
0
0
0
0
0
0
0
0
0
0
0
0
0
0
0
0
0
0
0
0
0
0
0
0
0
0
0
0
0
0
0
0
0
0
0
0
0
0
0
0
0
0
0
0
0
0
0
0
0
0
0
0
0
0
0
0
0
0
0
0
0
0
0
0
0
0
0
0
0
0
0
0
0
0
0
0
0
0
0
0
0
0
0
0
0
0
0
0
0
0
0
0
0
0
0
0
0
0
0
0
0
0
0
0
0
0
0
0
0
0
0
0
0
0
0
0
0
0
0
0
0
0
0
0
0
0
0
0
0
0
0
0
0
0
0
0
0
0
0
0
0
0
0
0
0
0
0
0
0
0
0
0
0
0
0
0
0
0
0
0
0
0
0
0
0
0
0
0
0
0
0
0
0
0
0
0
0
0
0
0
0
0
0
0
0
0
0
0
0
0
0
0
0
0
0
0
0
0
0
0
0
0
0
0
0
0
0
0
0
0
0
0
0
0
0
0
0
0
0
0
0
0
0
0
0
0
0
0
0
0
0
0
0
0
0
0
0
0
0
0
0
0
0
0
0
0
0
0
0
0
0
0
0
0
0
0
0
0
0
0
0
0
0
0
0
0
0
0
0
0
0
0
0
0
0
0
0
0
0
0
0
0
0
0
0
0
0
0
0
0
0
0
0
0
0
0
0
0
0
0
0
0
0
0
0
0
0
0
0
0
0
0
0
0
0
0
0
0
0
0
0
0
0
0
0
0
0
0
0
0
0
0
0
0
0
0
0
0
0
0
0
0
0
0
0
0
0
0
0
0
0
0
0
0
0
0
0
0
0
0
0
0
0
0
0
0
0
0
0
0
0
0
0
0
0
0
0
0
0
0
0
0
0
0
0
0
0
0
0
0
0
0
0
0
0
0
0
0
0
0
0
0
0
0
0
0
0
0
0
0
0
0
0
0
0
0
0
0
0
0
0
0
0
0
0
0
0
0
0
0
0
0
0
0
0
0
0
0
0
0
0
0
0
0
0
0
0
0
0
0
0
0
0
0
0
0
0
0
0
0
0
0
0
0
0
0
0
0
0
0
0
0
0
0
0
0
0
0
0
0
0
0
0
0
0
0
0
0
0
0
0
0
0
0
0
0
0
0
0
0
0
0
0
0
0
0
0
0
0
0
0
0
0
0
0
0
0
0
0
0
0
0
0
0
0
0
0
0
0
0
0
0
