ply
format ascii 1.0
obj_info num_cols 50
obj_info num_rows 50
element vertex 272
property float x
property float y
property float z
element range_grid 2500
property list uchar int vertex_indices
end_header
4.5542542 13.9763972 22.6294693
-3.1040583 13.6995218 21.5522165
-1.2925566 13.8158187 21.1550659
0.5285959 13.8139434 20.8710714
-4.8499908 6.5918697 26.0112341
-2.8924181 6.5886389 25.7068204
-1.4680512 12.1235216 20.2798445
1.0839101 6.0765779 25.5636911
3.0952381 5.7786163 25.5279072
5.1296261 5.4207976 25.5447724
6.8839086 6.6734620 24.0916368
-3.4432554 9.6015584 20.3991951
-1.6142170 10.0493818 19.7039858
0.3368542 9.2592024 20.1167857
2.1871107 9.4668689 19.6369020
4.0080324 9.8059727 19.0419565
-1.8807092 9.2373995 17.9700620
-0.0215574 9.2223089 17.6909560
3.3512986 11.4752258 15.1743980
6.1111419 6.0176098 19.5515202
9.3635977 -0.7651426 25.0193454
-4.0709734 9.5490620 15.5894118
-2.3988134 11.4154034 13.7337538
-0.6452367 11.7679345 13.1569585
1.1661938 11.5491675 13.0585246
3.0338416 11.0150116 13.2203520
6.8440888 -0.8684727 22.7603858
8.8861909 -0.8173182 22.3953330
10.5992240 0.7813698 20.7616205
-4.3569791 9.2264024 13.5040906
-2.6634489 10.7500890 11.9794316
-0.9000261 10.9631863 11.5257709
0.8844987 10.9338610 11.2689279
2.7093377 10.6342152 11.2289089
7.0014307 6.7770396 13.7373621
10.1161683 0.7419000 18.2293427
-2.9379394 10.2386023 10.1186401
-1.1867953 10.4957648 9.6373150
0.5897186 10.4514341 9.3927379
2.3972374 10.1995343 9.3090208
4.3112692 9.3483629 9.6870433
-10.3515118 0.7516121 16.3354104
-6.6431134 6.6378573 11.2063150
-3.2193958 9.8633559 8.1762556
-1.4710235 10.0391925 7.7647889
0.2884828 10.0572978 7.4733376
2.0669554 9.9313800 7.2900837
3.8799477 9.6182571 7.2459116
9.4719140 -0.8213280 14.4235985
-6.9224559 6.7412880 8.8519956
-3.5029242 9.5736228 6.1992393
-1.7602845 9.6774763 5.8467693
-0.0041963 9.6240265 5.6095386
1.7484523 9.6155091 5.3393274
3.5371452 9.3723637 5.2384805
8.9970834 -0.7855783 11.9555809
10.6338406 0.7574144 10.5461012
-3.6607042 7.4607235 5.5485888
-2.0548971 9.4250427 3.8793660
-0.3147915 9.3943784 3.6267100
1.4268524 9.3633691 3.3740597
3.4869833 7.1716141 4.6283575
5.3662046 6.5932920 4.7484292
8.5379419 -0.7793815 9.5610640
10.1423669 0.8562826 8.1289190
-5.6664173 6.2890890 4.4755238
-3.9232084 6.8774076 3.7907423
-2.1715525 7.0862940 3.3686470
-0.4164009 7.1832639 3.0238742
1.3599219 7.0784675 2.8161518
3.1646756 6.8051814 2.7211779
5.1619392 5.4143326 3.3734238
6.9874881 5.2705375 3.1850606
-5.8992795 5.1495975 3.0892240
-4.1874497 6.3614907 2.0048505
-2.4459055 6.6049737 1.5660465
-0.6993822 6.7045045 1.2231162
1.0706649 6.5752504 1.0300913
2.8586655 6.3548078 0.8954594
4.7098075 5.7911558 0.9813037
6.6658508 4.7629910 1.3624752
9.5283868 -0.6546842 4.5478078
-9.7166762 -0.6627427 5.2863134
-6.1701008 4.9959237 1.0606571
-4.4495100 5.8541307 0.2327087
-2.7161801 6.1101812 -0.2072851
-0.9787917 6.2223036 -0.5547099
0.7801991 6.1107739 -0.7607097
2.5491362 5.9593830 -0.9424677
4.3631603 5.5546948 -0.9673166
6.3555121 4.2126060 -0.4132914
9.0716782 -0.6151426 2.2836335
10.6599352 0.7623811 1.1402962
-9.9616768 0.6298766 2.2554142
-6.4115052 4.1194681 -0.4848125
-4.7002309 5.1840720 -1.4202205
-2.9828068 5.6046975 -1.9546013
-1.2543449 5.7320967 -2.3076840
0.4927655 5.6499297 -2.5328974
2.2478998 5.5324102 -2.7373122
4.0493681 5.1370935 -2.7756464
6.0617900 3.5838791 -2.1245553
8.6317208 -0.6146123 0.0896030
10.1734240 0.9273368 -1.1169482
-10.2025224 0.8196398 -0.0085939
-6.6413709 2.8843264 -1.8140765
-4.9451303 4.4291618 -3.0116422
-3.2437031 5.0557439 -3.6578522
-1.5217647 5.1835071 -4.0073533
0.2153179 5.1274193 -4.2486967
1.9691233 4.9579964 -4.4245359
3.7856984 4.4033105 -4.3786430
5.7566640 3.0403697 -3.8711670
8.1987176 -0.6041121 -2.0663204
-10.4392407 0.8355472 -2.1208782
-8.6301919 -0.6654170 -1.5386294
-6.8793576 1.8724622 -3.2851436
-5.1732669 3.3407732 -4.4054222
-3.4746947 4.0902878 -5.1084162
-1.7626709 4.3521881 -5.5312735
-0.0278317 4.3017151 -5.7769205
1.7263948 4.1107575 -5.9443162
3.5373340 3.5717357 -5.9192115
5.4601727 2.4633186 -5.5822272
7.7660084 -0.5472103 -4.2048388
-8.8841298 -0.6305111 -3.6494039
-5.4060495 2.3337854 -5.8514408
-3.7038518 3.0899749 -6.5423650
-1.9943327 3.4138888 -6.9937350
-0.2617649 3.3899351 -7.2550468
1.4887231 3.2249307 -7.4406545
3.2909555 2.7304953 -7.4510196
5.1531840 1.9718883 -7.3237901
7.2664148 -0.0579875 -6.5284374
9.1795413 -0.6616644 -6.4955500
-9.1327356 -0.6492854 -5.6894975
-5.6511944 1.6126470 -7.4524112
-3.9447160 2.2757377 -8.0779936
-2.2296825 2.5200026 -8.4807516
-0.4993119 2.5151516 -8.7526002
1.2433644 2.4072502 -8.9712416
3.0122202 2.1353122 -9.1062327
4.8285695 1.6191178 -9.1180157
6.8541655 -0.0092076 -8.5677057
8.7603211 -0.6869185 -8.5072788
10.2046119 0.9804015 -9.6288018
-9.3766024 -0.7008270 -7.6742093
-7.6057152 -0.6835140 -7.9641242
-5.8964198 0.9229000 -9.0611919
-4.1983646 1.6968276 -9.7285105
-2.4850159 1.8932935 -10.1013940
-0.7650791 1.9448365 -10.4008208
0.9617315 1.9201216 -10.6621356
2.7140439 1.7080913 -10.8312019
4.5106551 1.2513881 -10.8815161
6.5086546 -0.3119720 -10.3948766
8.3346353 -0.6343847 -10.5188875
9.7849995 0.9503231 -11.5637077
-9.6159356 -0.4703977 -9.7619302
-7.8621368 -0.6741666 -9.9398527
-6.1350079 0.0828925 -10.5875200
-4.4504333 1.1253133 -11.3692010
-2.7472237 1.3868142 -11.7686105
-1.0399130 1.5001732 -12.0955924
0.6813140 1.4491276 -12.3436823
2.4236584 1.2474601 -12.5208229
4.1986590 0.8720254 -12.6174283
6.1538899 -0.5265750 -12.2379174
7.9331252 -0.6693982 -12.4499430
9.3661582 0.9557420 -13.4791450
-9.8460563 0.9685039 -12.3753534
-8.1137145 -0.6629349 -11.8789916
-6.3763394 -0.6614769 -12.1556513
-4.6961269 0.4671334 -12.9562786
-3.0099062 0.9231592 -13.4397848
-1.3112309 1.0496974 -13.7694495
0.3999809 1.0154060 -14.0250469
2.1326540 0.8181704 -14.2069944
3.8957902 0.4564262 -14.3159821
5.7871332 -0.6300526 -14.1025965
7.5248570 -0.6242917 -14.3813465
8.9608518 0.9322825 -15.3455722
-8.3605757 -0.6493891 -13.7826722
-6.6389475 -0.6713342 -14.0463336
-4.9299896 -0.4081533 -14.4371172
-3.2639290 0.3683752 -15.0535826
-1.5765262 0.5617354 -15.4093184
0.1273104 0.5273745 -15.6645292
1.8492567 0.3532343 -15.8593108
3.6198535 -0.1291947 -15.9221976
5.4087119 -0.6171588 -15.9854796
7.1218432 -0.5642281 -16.2817025
8.5486692 0.9840825 -17.2096949
-8.6155112 0.6433273 -16.2029794
-6.8968695 -0.6768745 -15.9042315
-5.1931558 -0.6314760 -16.1947828
-3.4996643 -0.4450953 -16.5447920
-1.8240998 -0.1146170 -16.9543840
-0.1310328 -0.0791639 -17.2389334
1.5998123 -0.3791497 -17.3841540
3.3304786 -0.5967212 -17.5650538
5.0450240 -0.6551264 -17.8123522
6.7363295 -0.5620815 -18.1215744
8.1384543 1.0675678 -19.0505817
-8.8518234 0.8865514 -18.1071271
-7.1517764 -0.6150005 -17.7559235
-5.4623113 -0.6247470 -18.0206290
-3.7731777 -0.6194999 -18.2914891
-2.0831294 -0.6255377 -18.5578228
-0.3919741 -0.6386510 -18.8214034
1.3051195 -0.6985784 -19.0665481
2.9990929 -0.7165689 -19.3285578
4.6786266 -0.6306478 -19.6312890
6.3629696 -0.5907988 -19.9157119
7.7580517 1.0307984 -20.8089504
-7.4193215 0.2319134 -19.8795360
-5.7261952 -0.6270181 -19.8096519
-4.0526442 -0.6166240 -20.0800884
-2.3790777 -0.6083001 -20.3497095
-0.7040406 -0.6167632 -20.6129328
0.9712076 -0.6224408 -20.8772901
2.6490415 -0.6452952 -21.1352731
4.3219046 -0.6264520 -21.4089380
5.9872212 -0.5633629 -21.6988818
7.3741982 1.0511958 -22.5574540
-7.6761473 0.9792336 -21.9029411
-5.9862949 -0.6036072 -21.5760933
-4.3267173 -0.6203064 -21.8340309
-2.6677606 -0.6172092 -22.0993225
-1.0108670 -0.5895222 -22.3735429
0.6530403 -0.6352022 -22.6212595
2.3112763 -0.6201316 -22.8909440
3.9668724 -0.5883306 -23.1665066
5.5938494 -0.3798634 -23.5040223
-6.2862826 0.7191735 -23.7687171
-4.5975821 -0.5916805 -23.5681336
-2.9522512 -0.6127811 -23.8226462
-1.3109547 -0.5756956 -24.0973590
0.3358533 -0.6027006 -24.3499918
1.9859540 -0.6478132 -24.5966628
3.6202680 -0.5643164 -24.8868885
-4.8684317 -0.4622497 -25.3043023
-3.2324248 -0.5972242 -25.5190720
-1.6043604 -0.5778817 -25.7850862
0.0243074 -0.5690830 -26.0476087
1.6540837 -0.5705868 -26.3068023
3.2858249 -0.5849193 -26.5619436
-5.1980828 1.0637585 -27.4467589
-3.5099484 -0.5445172 -27.1969655
-1.8921401 -0.5863479 -27.4413759
-0.2771068 -0.5825796 -27.7000565
1.3412785 -0.6078342 -27.9499072
2.9461229 -0.5203555 -28.2339727
4.3303574 1.0581508 -28.9639505
-3.8401406 0.4729464 -29.1296085
-2.1777644 -0.5581318 -29.0799081
-0.5789897 -0.5353858 -29.3418318
1.0311166 -0.6211537 -29.5724299
2.6006293 -0.3607658 -29.9022469
4.0008145 1.0277922 -30.5495266
-2.4931646 -0.0562499 -30.8204590
-0.8716599 -0.5305351 -30.9424256
0.7210104 -0.5853516 -31.1807300
2.1857770 0.4180772 -31.7037336
-2.8443966 1.0600889 -32.6772812
-1.1737783 -0.3593365 -32.5584413
0.4133114 -0.5200741 -32.7681075
1.8025648 1.0201313 -33.4081440
-1.5768183 1.0826748 -34.4495676
0.0862617 -0.2067798 -34.3861350
1.4903354 1.0902509 -34.9412504
-0.3300622 1.0958418 -36.1894958
0
0
0
0
0
0
0
0
0
0
0
0
0
0
0
0
0
0
0
0
0
0
0
0
0
0
0
0
0
0
0
0
0
0
0
0
0
0
0
0
0
0
0
0
0
0
0
0
0
0
0
0
0
0
0
0
0
0
0
0
0
0
0
0
0
0
0
0
0
0
0
0
0
0
0
0
0
0
0
0
0
0
0
0
0
0
0
0
0
0
0
0
0
0
0
0
0
0
0
0
0
0
0
0
0
0
0
0
0
0
0
0
0
0
0
0
0
0
0
0
0
0
0
0
0
0
0
0
0
0
0
0
0
0
0
0
0
0
0
0
0
0
0
0
0
0
0
0
0
0
0
0
0
0
0
0
0
0
0
0
0
0
0
0
0
0
0
0
0
0
0
0
0
0
0
0
0
0
0
0
0
0
0
0
0
0
0
0
0
0
0
0
0
0
0
0
0
0
0
0
0
0
0
0
0
0
0
0
0
0
0
0
0
0
0
0
0
0
0
0
0
0
0
0
0
0
0
0
0
0
0
0
0
0
0
0
0
0
0
0
0
0
0
0
0
0
0
0
0
0
0
0
0
0
0
0
0
0
0
0
0
0
0
0
0
0
0
0
0
0
0
0
0
0
0
0
0
0
0
0
0
0
0
0
0
0
0
0
0
0
0
0
0
0
0
0
0
0
0
0
0
0
0
0
0
0
0
0
0
0
0
0
0
0
0
0
0
0
0
0
0
0
0
0
0
0
0
0
0
0
0
0
0
0
0
0
0
0
0
0
0
0
0
0
0
0
0
0
0
0
0
0
0
0
0
0
0
0
0
0
0
0
0
0
0
0
0
0
0
0
0
0
0
0
0
0
0
0
0
0
0
0
0
0
0
0
0
0
0
0
0
0
0
0
0
0
0
0
0
0
0
0
0
0
0
0
0
0
0
0
0
0
0
0
0
0
0
0
0
0
0
0
0
0
0
0
0
0
0
0
0
0
0
0
0
0
0
0
0
0
0
0
0
0
0
0
0
0
0
0
0
0
0
0
0
0
0
0
0
0
0
0
0
0
0
0
0
0
0
0
0
0
0
0
0
0
0
0
0
0
0
0
0
0
0
0
0
0
0
0
0
0
0
0
0
0
0
0
0
0
0
0
0
0
0
0
0
0
0
0
0
0
0
0
0
0
0
0
0
0
0
0
0
0
0
1 0
0
0
0
0
0
0
0
0
0
0
0
0
0
0
0
0
0
0
0
0
0
0
0
0
0
0
0
0
0
0
0
0
0
0
0
0
0
0
0
0
0
0
0
0
0
1 1
1 2
1 3
0
0
0
0
0
0
0
0
0
0
0
0
0
0
0
0
0
0
0
0
0
0
0
0
0
0
0
0
0
0
0
0
0
0
0
0
0
0
0
0
0
0
0
0
0
0
1 4
1 5
1 6
1 7
1 8
1 9
1 10
0
0
0
0
0
0
0
0
0
0
0
0
0
0
0
0
0
0
0
0
0
0
0
0
0
0
0
0
0
0
0
0
0
0
0
0
0
0
0
0
0
0
0
0
1 11
1 12
1 13
1 14
1 15
0
0
0
0
0
0
0
0
0
0
0
0
0
0
0
0
0
0
0
0
0
0
0
0
0
0
0
0
0
0
0
0
0
0
0
0
0
0
0
0
0
0
0
0
0
0
1 16
1 17
0
1 18
1 19
1 20
0
0
0
0
0
0
0
0
0
0
0
0
0
0
0
0
0
0
0
0
0
0
0
0
0
0
0
0
0
0
0
0
0
0
0
0
0
0
0
0
0
0
0
1 21
1 22
1 23
1 24
1 25
1 26
1 27
1 28
0
0
0
0
0
0
0
0
0
0
0
0
0
0
0
0
0
0
0
0
0
0
0
0
0
0
0
0
0
0
0
0
0
0
0
0
0
0
0
0
0
0
1 29
1 30
1 31
1 32
1 33
0
1 34
1 35
0
0
0
0
0
0
0
0
0
0
0
0
0
0
0
0
0
0
0
0
0
0
0
0
0
0
0
0
0
0
0
0
0
0
0
0
0
0
0
0
0
0
0
1 36
1 37
1 38
1 39
1 40
0
0
0
0
0
0
0
0
0
0
0
0
0
0
0
0
0
0
0
0
0
0
0
0
0
0
0
0
0
0
0
0
0
0
0
0
0
0
0
0
0
1 41
0
1 42
0
1 43
1 44
1 45
1 46
1 47
0
1 48
0
0
0
0
0
0
0
0
0
0
0
0
0
0
0
0
0
0
0
0
0
0
0
0
0
0
0
0
0
0
0
0
0
0
0
0
0
0
0
0
0
1 49
0
1 50
1 51
1 52
1 53
1 54
0
1 55
1 56
0
0
0
0
0
0
0
0
0
0
0
0
0
0
0
0
0
0
0
0
0
0
0
0
0
0
0
0
0
0
0
0
0
0
0
0
0
0
0
0
0
0
1 57
1 58
1 59
1 60
1 61
1 62
1 63
1 64
0
0
0
0
0
0
0
0
0
0
0
0
0
0
0
0
0
0
0
0
0
0
0
0
0
0
0
0
0
0
0
0
0
0
0
0
0
0
0
0
0
1 65
1 66
1 67
1 68
1 69
1 70
1 71
1 72
0
0
0
0
0
0
0
0
0
0
0
0
0
0
0
0
0
0
0
0
0
0
0
0
0
0
0
0
0
0
0
0
0
0
0
0
0
0
0
0
0
0
1 73
1 74
1 75
1 76
1 77
1 78
1 79
1 80
1 81
0
0
0
0
0
0
0
0
0
0
0
0
0
0
0
0
0
0
0
0
0
0
0
0
0
0
0
0
0
0
0
0
0
0
0
0
0
0
0
1 82
0
1 83
1 84
1 85
1 86
1 87
1 88
1 89
1 90
1 91
1 92
0
0
0
0
0
0
0
0
0
0
0
0
0
0
0
0
0
0
0
0
0
0
0
0
0
0
0
0
0
0
0
0
0
0
0
0
0
0
1 93
0
1 94
1 95
1 96
1 97
1 98
1 99
1 100
1 101
1 102
1 103
0
0
0
0
0
0
0
0
0
0
0
0
0
0
0
0
0
0
0
0
0
0
0
0
0
0
0
0
0
0
0
0
0
0
0
0
0
0
1 104
0
1 105
1 106
1 107
1 108
1 109
1 110
1 111
1 112
1 113
0
0
0
0
0
0
0
0
0
0
0
0
0
0
0
0
0
0
0
0
0
0
0
0
0
0
0
0
0
0
0
0
0
0
0
0
0
0
0
1 114
1 115
1 116
1 117
1 118
1 119
1 120
1 121
1 122
1 123
1 124
0
0
0
0
0
0
0
0
0
0
0
0
0
0
0
0
0
0
0
0
0
0
0
0
0
0
0
0
0
0
0
0
0
0
0
0
0
0
0
0
1 125
0
1 126
1 127
1 128
1 129
1 130
1 131
1 132
1 133
1 134
0
0
0
0
0
0
0
0
0
0
0
0
0
0
0
0
0
0
0
0
0
0
0
0
0
0
0
0
0
0
0
0
0
0
0
0
0
0
0
1 135
0
1 136
1 137
1 138
1 139
1 140
1 141
1 142
1 143
1 144
1 145
0
0
0
0
0
0
0
0
0
0
0
0
0
0
0
0
0
0
0
0
0
0
0
0
0
0
0
0
0
0
0
0
0
0
0
0
0
0
1 146
1 147
1 148
1 149
1 150
1 151
1 152
1 153
1 154
1 155
1 156
1 157
0
0
0
0
0
0
0
0
0
0
0
0
0
0
0
0
0
0
0
0
0
0
0
0
0
0
0
0
0
0
0
0
0
0
0
0
0
0
1 158
1 159
1 160
1 161
1 162
1 163
1 164
1 165
1 166
1 167
1 168
1 169
0
0
0
0
0
0
0
0
0
0
0
0
0
0
0
0
0
0
0
0
0
0
0
0
0
0
0
0
0
0
0
0
0
0
0
0
0
0
1 170
1 171
1 172
1 173
1 174
1 175
1 176
1 177
1 178
1 179
1 180
1 181
0
0
0
0
0
0
0
0
0
0
0
0
0
0
0
0
0
0
0
0
0
0
0
0
0
0
0
0
0
0
0
0
0
0
0
0
0
0
0
1 182
1 183
1 184
1 185
1 186
1 187
1 188
1 189
1 190
1 191
1 192
0
0
0
0
0
0
0
0
0
0
0
0
0
0
0
0
0
0
0
0
0
0
0
0
0
0
0
0
0
0
0
0
0
0
0
0
0
0
0
1 193
1 194
1 195
1 196
1 197
1 198
1 199
1 200
1 201
1 202
1 203
0
0
0
0
0
0
0
0
0
0
0
0
0
0
0
0
0
0
0
0
0
0
0
0
0
0
0
0
0
0
0
0
0
0
0
0
0
0
0
1 204
1 205
1 206
1 207
1 208
1 209
1 210
1 211
1 212
1 213
1 214
0
0
0
0
0
0
0
0
0
0
0
0
0
0
0
0
0
0
0
0
0
0
0
0
0
0
0
0
0
0
0
0
0
0
0
0
0
0
0
0
1 215
1 216
1 217
1 218
1 219
1 220
1 221
1 222
1 223
1 224
0
0
0
0
0
0
0
0
0
0
0
0
0
0
0
0
0
0
0
0
0
0
0
0
0
0
0
0
0
0
0
0
0
0
0
0
0
0
0
0
1 225
1 226
1 227
1 228
1 229
1 230
1 231
1 232
1 233
0
0
0
0
0
0
0
0
0
0
0
0
0
0
0
0
0
0
0
0
0
0
0
0
0
0
0
0
0
0
0
0
0
0
0
0
0
0
0
0
0
0
1 234
1 235
1 236
1 237
1 238
1 239
1 240
0
0
0
0
0
0
0
0
0
0
0
0
0
0
0
0
0
0
0
0
0
0
0
0
0
0
0
0
0
0
0
0
0
0
0
0
0
0
0
0
0
0
0
0
1 241
1 242
1 243
1 244
1 245
1 246
0
0
0
0
0
0
0
0
0
0
0
0
0
0
0
0
0
0
0
0
0
0
0
0
0
0
0
0
0
0
0
0
0
0
0
0
0
0
0
0
0
0
0
0
1 247
1 248
1 249
1 250
1 251
1 252
1 253
0
0
0
0
0
0
0
0
0
0
0
0
0
0
0
0
0
0
0
0
0
0
0
0
0
0
0
0
0
0
0
0
0
0
0
0
0
0
0
0
0
0
0
0
1 254
1 255
1 256
1 257
1 258
1 259
0
0
0
0
0
0
0
0
0
0
0
0
0
0
0
0
0
0
0
0
0
0
0
0
0
0
0
0
0
0
0
0
0
0
0
0
0
0
0
0
0
0
0
0
0
1 260
1 261
1 262
1 263
0
0
0
0
0
0
0
0
0
0
0
0
0
0
0
0
0
0
0
0
0
0
0
0
0
0
0
0
0
0
0
0
0
0
0
0
0
0
0
0
0
0
0
0
0
0
1 264
1 265
1 266
1 267
0
0
0
0
0
0
0
0
0
0
0
0
0
0
0
0
0
0
0
0
0
0
0
0
0
0
0
0
0
0
0
0
0
0
0
0
0
0
0
0
0
0
0
0
0
0
0
1 268
1 269
1 270
0
0
0
0
0
0
0
0
0
0
0
0
0
0
0
0
0
0
0
0
0
0
0
0
0
0
0
0
0
0
0
0
0
0
0
0
0
0
0
0
0
0
0
0
0
0
0
0
1 271
0
0
0
0
0
0
0
0
0
0
0
0
0
0
0
0
0
0
0
0
0
0
0
0
0
0
0
0
0
0
0
0
0
0
0
0
0
0
0
0
0
0
0
0
0
0
0
0
0
0
0
0
0
0
0
0
0
0
0
0
0
0
0
0
0
0
0
0
0
0
0
0
0
0
0
0
0
0
0
0
0
0
0
0
0
0
0
0
0
0
0
0
0
0
0
0
0
0
0
0
0
0
0
0
0
0
0
0
0
0
0
0
0
0
0
0
0
0
0
0
0
0
0
0
0
0
0
0
0
0
0
0
0
0
0
0
0
0
0
0
0
0
0
0
0
0
0
0
0
0
0
0
0
0
0
0
0
0
0
0
0
0
0
0
0
0
0
0
0
0
0
0
0
0
0
0
0
0
0
0
0
0
0
0
0
0
0
0
0
0
0
0
0
0
0
0
0
0
0
0
0
0
0
0
0
0
0
0
0
0
0
0
0
0
0
0
0
0
0
0
0
0
0
0
0
0
0
0
0
0
0
0
0
0
0
0
0
0
0
0
0
0
0
0
0
0
0
0
0
0
0
0
0
0
0
0
0
0
0
0
0
0
0
0
0
0
0
0
0
0
0
