ply
format ascii 1.0
obj_info num_cols 50
obj_info num_rows 50
element vertex 319
property float x
property float y
property float z
element range_grid 2500
property list uchar int vertex_indices
end_header
-5.0803179 13.2944394 23.0701016
-2.1860551 13.4007891 21.1316212
4.3383196 13.4845891 23.0277826
3.2092752 13.5034556 21.6973283
-2.2281627 11.5039986 21.0518571
-6.8350341 6.1777110 25.6974361
-7.2119616 6.5793209 24.1197271
-4.6836201 8.8122275 20.5837134
-4.6059197 9.5536707 18.5469187
-3.7901641 10.7935294 15.9175152
-4.8859252 5.0216897 26.2023658
-6.7193996 4.5543225 25.5201941
-7.2929262 4.8214845 24.0739853
-7.2661792 5.4578820 22.2062497
-7.2243725 6.1222145 20.2722522
-4.8641883 8.2442415 16.6158907
-4.8052753 8.9817461 14.4830310
-1.5905371 4.5698676 25.9672653
-2.5180805 4.6434612 24.6883143
-3.4526089 4.7151901 23.4072487
-7.2796259 3.7324276 22.1277646
-6.6279501 4.7248045 19.7819126
-7.0634322 5.0992031 18.1253932
-7.1087241 5.7207717 16.1426233
-7.1584454 6.3586502 14.1041560
-4.5658378 8.6633953 9.8779320
-4.7107246 9.3076302 7.7119561
-8.2252972 -0.6316906 29.6115204
-9.5767798 -0.8373858 28.7480234
-10.3945263 -0.7609644 27.5743617
-10.7256033 -0.4161994 26.0818879
-10.7222943 0.1239721 24.3346062
-10.6211902 0.7349123 22.4686528
-4.6910569 4.6933498 16.3515989
-7.1133771 3.9281557 16.0892749
-7.0780341 4.5861770 13.9962415
-7.0907136 5.2358335 11.8759475
-7.0699981 5.9261557 9.6616442
-7.2375499 6.5223834 7.5391845
-5.2812143 -1.2045873 29.4961751
-6.1305176 -1.1357510 28.3014361
-7.2078032 -1.1812276 27.2356219
-8.1655258 -1.1661849 26.1002678
-9.4419224 -1.3177076 25.1680781
-10.3004457 -1.2514639 23.9716778
-10.7054734 -0.9387912 22.4543489
-10.7197402 -0.4031534 20.6245071
-10.7198910 0.1562884 18.7300470
-10.5845489 0.8090290 16.6730917
-7.0712594 3.4150540 11.8270633
-7.1385136 4.0212511 9.6983081
-7.0964916 4.7111854 7.4097480
-7.0737564 5.4117700 5.0632873
0.3914232 -1.0699837 29.7154226
-0.5208007 -1.0152189 28.4885578
-2.0485540 -1.2512187 27.5946035
-3.1668025 -1.2965410 26.4889606
-4.2167766 -1.3098041 25.3470725
-5.2023659 -1.2916038 24.1666457
-10.6435876 -3.0178982 24.1200392
-10.7223582 -2.5558233 22.3942211
-10.5773439 -1.9631531 20.4592334
-10.7326855 -1.5124136 18.6868641
-10.6931631 -0.9430793 16.7150837
-10.7032095 -0.3834815 14.7216636
-10.6371725 0.2357559 12.6031526
-10.7222998 0.7891724 10.5466130
-7.2220217 3.4166321 5.2036818
-7.1829698 4.1121731 2.7843556
-8.6277929 -7.4757638 37.0500051
-9.7756987 -7.5902795 36.1751959
-10.4196500 -7.4850183 35.0554804
-10.6887305 -7.2091910 33.7273062
-10.6369668 -6.7805579 32.1954034
-10.6678862 -5.0606861 25.7785276
-10.5084248 -4.5191905 23.9497727
-10.6681569 -4.1194148 22.2854794
-10.5551411 -3.5717326 20.3811792
-10.4604445 -3.0171985 18.4307116
-10.4478858 -2.4883503 16.4825532
-10.7130148 -2.0885286 14.6987518
-10.6788586 -1.5175981 12.6188942
-10.6762101 -0.9457651 10.5000129
-10.6500514 -0.3428691 8.2924871
-10.7004063 0.2369567 6.0839332
-7.2900842 2.7925240 0.4624853
-8.5801810 -8.8543210 36.8870208
-9.6894291 -8.9489926 35.9997129
-10.3627126 -8.8622782 34.8997193
-10.6511431 -8.6089602 33.5867315
-10.6764857 -8.2351671 32.1025015
-10.6664611 -7.8359330 30.5592497
-10.6135535 -7.4068902 28.9484791
-10.6839460 -7.0216661 27.3687290
-10.6610952 -6.5831999 25.6872320
-10.5844069 -6.1074961 23.9216912
-10.5508444 -5.6385015 22.1334461
-10.6836846 -5.2352382 20.4127451
-10.6030113 -4.7169448 18.4858741
-10.5516509 -4.1976170 16.5217850
-10.7176342 -3.7708463 14.6720206
-10.4399924 -3.1066842 12.4001620
-10.6020351 -2.6476239 10.4291251
-10.6750543 -2.1276107 8.3215376
-10.6691918 -1.5490819 6.0754068
-10.6874677 -0.9646632 3.7790103
-10.6611558 -0.3364271 1.3624755
-10.7320217 0.2589043 -1.0359599
-3.1729483 -8.8449191 37.1583877
-7.6189071 -9.8637405 36.2952830
-8.8514601 -9.9997102 35.4563579
-9.5205537 -9.9129251 34.3435012
-9.8246055 -9.6754613 33.0271192
-10.0918218 -9.4166257 31.6649527
-10.3180104 -9.1338205 30.2511137
-10.5168966 -8.8318879 28.7898845
-10.6499283 -8.4935193 27.2540589
-10.6487250 -8.0874884 25.5932262
-10.6253743 -7.6603596 23.8711003
-10.6214659 -7.2298256 22.1130209
-10.6420441 -6.7980267 20.3220384
-10.6430640 -6.3446477 18.4648569
-10.6259809 -5.8694107 16.5386906
-10.6233854 -5.3867724 14.5658222
-10.6336276 -4.8956012 12.5434862
-10.6450823 -4.3898225 10.4599778
-10.4972452 -3.7891157 8.1682136
-10.4711559 -3.2305935 5.9112949
-10.7214827 -2.7955367 3.8468434
-10.5177817 -2.1097221 1.2699199
-10.6152753 -1.5603632 -1.0894131
-10.7143573 -0.9931194 -3.5237606
-10.7665386 -0.3804976 -6.0907717
-10.7186532 0.3095447 -8.8614245
3.2178686 -8.6681307 37.2691726
1.7914063 -8.8314853 36.3585376
-8.0108724 -11.0691552 34.9098284
-8.6327736 -10.9662808 33.7620550
-8.8677661 -10.7112580 32.3962258
-9.1035672 -10.4499291 31.0022867
-9.3429111 -10.1831297 29.5807452
-9.5765178 -9.9069114 28.1250817
-9.8424407 -9.6363923 26.6574057
-10.1123130 -9.3600940 25.1603360
-10.3511527 -9.0631313 23.6092892
-10.5893816 -8.7575461 22.0217497
-10.6545645 -8.3687199 20.2711695
-10.7072924 -7.9631847 18.4626354
-10.6891765 -7.5143225 16.5474687
-10.6713118 -7.0521767 14.5747337
-10.7231882 -6.6078788 12.6000026
-10.7075749 -6.1186170 10.5077833
-10.6925496 -5.6143456 8.3501704
-10.6604240 -5.0858873 6.1076151
-10.7031679 -4.5767828 3.8637514
-10.4981366 -3.9285599 1.3004919
-10.7143112 -3.4703266 -0.9203581
-10.7258127 -2.8920033 -3.4273475
-10.5629518 -2.2031309 -6.2136516
-10.2758648 -1.4244029 -9.2467967
-9.9049984 -0.5727760 -12.4994540
-9.4018788 0.3822899 -16.0484416
6.7998695 -8.9689523 35.6593158
-7.1279741 -12.1430174 34.3405132
-7.6615044 -12.0110569 33.1356648
-7.8808338 -11.7606064 31.7471114
-8.0979845 -11.5028756 30.3278799
-8.3537250 -11.2529076 28.9002977
-8.6006828 -10.9929630 27.4372392
-8.8387833 -10.7226107 25.9368261
-9.0928459 -10.4511389 24.4132435
-9.3211603 -10.1619515 22.8381599
-9.6005328 -9.8852059 21.2619111
-9.8619311 -9.5932637 19.6368278
-10.1389330 -9.2993670 17.9851790
-10.3984981 -8.9895535 16.2808084
-10.6322315 -8.6595366 14.5137050
-10.7227514 -8.2576197 12.5814118
-10.7216948 -7.8031857 10.5137088
-10.7124898 -7.3310031 8.3744271
-10.7274641 -6.8548798 6.1898290
-10.7270747 -6.3564220 3.9209435
-10.6945463 -5.8266894 1.5460619
-10.6630411 -5.2799012 -0.9076273
-10.4067141 -4.6059700 -3.6856128
-10.1247834 -3.8963615 -6.5970365
-9.6432964 -3.0621500 -9.8497990
-9.1841428 -2.2097287 -13.2107511
-8.4978339 -1.2087369 -16.9909104
-7.6926813 -0.1081785 -21.0898089
6.8158587 -10.5208370 35.4666387
-5.6522449 -13.0373961 33.4750117
-6.0988021 -12.8780067 32.2014809
-6.6310844 -12.7442815 30.9545426
-7.0134351 -12.5544880 29.6072193
-7.3348753 -12.3380910 28.2006839
-7.5907458 -12.0923587 26.7270488
-7.7990951 -11.8227037 25.1919579
-8.0603464 -11.5653164 23.6560772
-8.3116225 -11.2971142 22.0793841
-8.5360353 -11.0112211 20.4478709
-8.8172362 -10.7391561 18.8186861
-9.0596404 -10.4441131 17.1227188
-9.3225504 -10.1486313 15.4014207
-9.5804199 -9.8424004 13.6340405
-9.8868695 -9.5468612 11.8631700
-10.1699452 -9.2326345 10.0287276
-10.4479531 -8.9065708 8.1429919
-10.6670345 -8.5450562 6.1531709
-10.7111390 -8.0959240 3.9393171
-10.5757510 -7.5529230 1.4764255
-10.3192036 -6.9376247 -1.1976179
-9.9697019 -6.2592829 -4.0701614
-9.5060999 -5.5048570 -7.1800934
-8.9799204 -4.6947440 -10.4874761
-8.1611934 -3.7154117 -14.2789340
-7.3964299 -2.7273781 -18.1734123
-6.2897385 -1.5328363 -22.6757158
-4.8959385 -0.1480978 -27.7693218
-2.7408494 -13.8145441 33.4103444
-3.1114648 -13.6354054 32.0749032
-3.6177309 -13.4955938 30.7869382
-4.2119839 -13.3810169 29.5283670
-4.7119007 -13.2322724 28.2019217
-5.2232811 -13.0835184 26.8624488
-5.7466191 -12.9349224 25.5102451
-6.3120730 -12.7968753 24.1642898
-6.8101961 -12.6316089 22.7554080
-7.1875050 -12.4190869 21.2417181
-7.4512374 -12.1599402 19.6182517
-7.7033552 -11.8892864 17.9491057
-7.9850865 -11.6218418 16.2628387
-8.2243397 -11.3307677 14.5038604
-8.4905277 -11.0413807 12.7230122
-8.7497321 -10.7406854 10.8922572
-9.0395437 -10.4428740 9.0415935
-9.3201512 -10.1322667 7.1359319
-9.5970732 -9.8104912 5.1773462
-9.8315258 -9.4611245 3.1257851
-9.8849588 -9.0251472 0.8363798
-9.7709128 -8.5040406 -1.6986273
-9.3469761 -7.8322923 -4.6529288
-8.7821559 -7.0762001 -7.8789276
-8.0261828 -6.2090429 -11.4563196
-7.1284117 -5.2473387 -15.3565368
-5.9663430 -4.1295819 -19.7553307
-4.4339918 -2.7975555 -24.8303385
-2.5629793 -1.2545007 -30.6007900
-0.0255800 -14.4411264 31.9627284
-0.5832916 -14.3201689 30.6731649
-1.0556430 -14.1702873 29.3228637
-1.5809504 -14.0329214 27.9807070
-2.1031724 -13.8910978 26.6177883
-2.5645575 -13.7264277 25.1994373
-3.1527003 -13.5979606 23.8345596
-3.6676131 -13.4423832 22.4050809
-4.2495198 -13.3046146 20.9966534
-4.8471444 -13.1683280 19.5784941
-5.3613019 -13.0001427 18.0812694
-5.9520870 -12.8534542 16.6142560
-6.5164111 -12.6934333 15.1046576
-7.0121480 -12.5046884 13.5164205
-7.3287150 -12.2465010 11.7531894
-7.6235971 -11.9728167 9.9301879
-7.8679066 -11.6723181 8.0185441
-8.1684215 -11.3836256 6.1075045
-8.4320805 -11.0720211 4.1135251
-8.5106164 -10.6793505 1.8880456
-8.4797955 -10.2313558 -0.5146484
-8.4201257 -9.7573371 -3.0262808
-8.1944970 -9.2006115 -5.8000376
-7.7681410 -8.5427290 -8.8969440
-6.9160232 -7.6844840 -12.6020129
-5.7523098 -6.6639583 -16.8372919
-4.1670658 -5.4249844 -21.7839307
-2.1620031 -3.9565161 -27.5039698
-0.3938894 -14.3008869 22.0525082
-0.9694147 -14.1640999 20.6061551
-1.4866409 -14.0057377 19.1004453
-2.0464585 -13.8563647 17.5987466
-2.5838991 -13.6958274 16.0575129
-3.1590779 -13.5429144 14.5178544
-3.7651939 -13.3957393 12.9765100
-4.3167848 -13.2263924 11.3680696
-4.9550804 -13.0811125 9.8013053
-5.5698908 -12.9235912 8.1900023
-6.2010623 -12.7669957 6.5655558
-6.7558293 -12.5789515 4.8448823
-7.0981562 -12.3097355 2.8930859
-7.1283951 -11.9196265 0.5921885
-7.0216848 -11.4669804 -1.9170244
-6.8248654 -10.9661929 -4.6039386
-6.4948481 -10.3986001 -7.5282150
-5.9720144 -9.7379376 -10.7749623
-5.2246479 -8.9670665 -14.4078553
-3.9078348 -7.9431006 -18.8666192
-1.7719793 -6.5516881 -24.5330989
-0.1961706 -14.2841024 12.2935543
-0.8493390 -14.1502887 10.7206859
-1.4099289 -13.9842073 9.0516611
-1.9589821 -13.8097366 7.3434472
-2.5960912 -13.6580235 5.6772807
-3.2090302 -13.4940416 3.9620662
-3.7280366 -13.2944939 2.1316870
-4.1730001 -13.0643297 0.1944495
-4.6530273 -12.8387945 -1.7536543
-5.1165117 -12.6004872 -3.7625757
-5.1293400 -12.1981902 -6.2826482
-4.6624970 -11.6136480 -9.3947213
-3.7183251 -10.8386332 -13.1526865
-2.4472903 -9.9183507 -17.4453485
-0.9818689 -8.8944376 -22.1633653
0.1755477 -14.2214228 1.0173646
-0.5179985 -14.0757122 -0.7447340
-0.9176425 -13.8352183 -2.8096033
-1.3980439 -13.6124998 -4.8467178
-1.8979073 -13.3889597 -6.9113742
-2.3150014 -13.1316275 -9.1088939
-1.0496832 -12.3152237 -13.1501828
0
0
0
0
0
0
0
0
0
0
0
0
0
0
0
0
0
0
0
0
0
0
0
0
0
0
0
0
0
0
0
0
0
0
0
0
0
0
0
0
0
0
0
0
0
0
0
0
0
0
0
0
0
0
0
0
0
0
0
0
0
0
0
0
0
0
0
0
0
0
0
0
0
0
0
0
0
0
0
0
0
0
0
0
0
0
0
0
0
0
0
0
0
0
0
0
0
0
0
0
0
0
0
0
0
0
0
0
0
0
0
0
0
0
0
0
0
0
0
0
0
0
0
0
0
0
0
0
0
0
0
0
0
0
0
0
0
0
0
0
0
0
0
0
0
0
0
0
0
0
0
0
0
0
0
0
0
0
0
0
0
0
0
0
0
0
0
0
0
0
0
0
0
0
0
0
0
0
0
0
0
0
0
0
0
0
0
0
0
0
0
0
0
0
0
0
0
0
0
0
0
0
0
0
0
0
0
0
0
0
0
0
0
0
0
0
0
0
0
0
0
0
0
0
0
0
0
0
0
0
0
0
0
0
0
0
0
0
0
0
0
0
0
0
0
0
0
0
0
0
0
0
0
0
0
0
0
0
0
0
0
0
0
0
0
0
0
0
0
0
0
0
0
0
0
0
0
0
0
0
0
0
0
0
0
0
0
0
0
0
0
0
0
0
0
0
0
0
0
0
0
0
0
0
0
0
0
0
0
0
0
0
0
0
0
0
0
0
0
0
0
0
0
0
0
0
0
0
0
0
0
0
0
0
0
0
0
0
0
0
0
0
0
0
0
0
0
0
0
0
0
0
0
0
0
0
0
0
0
0
0
0
0
0
0
0
0
0
0
0
0
0
0
0
0
0
0
0
0
0
0
0
0
0
0
0
0
0
0
0
0
0
0
0
0
0
0
0
0
0
0
0
0
0
0
0
0
0
0
0
0
0
0
0
0
0
0
0
0
0
0
0
0
0
0
0
0
0
0
0
0
0
0
0
0
0
0
0
0
0
0
0
0
0
0
0
0
0
0
0
0
0
0
0
0
0
0
0
0
0
0
0
0
0
0
0
0
0
0
0
0
0
0
0
0
0
0
0
0
0
0
0
0
0
0
0
0
0
0
0
0
0
0
0
0
0
0
0
0
0
0
0
0
0
0
0
0
0
0
0
0
0
0
0
0
0
0
0
0
0
0
0
0
0
0
0
0
0
0
0
0
0
0
0
0
0
0
0
0
0
0
0
0
0
0
0
0
0
0
0
0
0
0
0
0
0
0
0
0
0
0
0
0
0
0
0
0
0
0
0
0
0
0
0
0
0
0
0
0
0
0
0
0
0
0
0
0
0
0
0
0
0
0
0
0
0
0
0
0
0
0
0
0
0
0
0
0
0
0
0
0
0
0
0
0
0
0
0
0
0
0
0
0
0
0
0
0
0
0
0
0
0
0
0
0
0
0
0
0
0
0
0
0
0
0
0
0
0
0
0
0
0
0
0
0
0
0
0
0
0
0
0
0
0
0
0
1 0
0
0
0
0
0
0
0
0
0
0
0
0
0
0
0
0
0
0
0
0
0
0
0
0
0
0
0
0
0
0
0
0
0
0
0
0
0
0
0
0
0
0
0
0
0
0
0
0
0
1 1
0
0
0
0
0
0
0
0
0
0
0
0
0
0
0
0
0
0
0
0
0
0
0
0
0
0
0
0
0
0
0
0
0
0
0
0
0
0
0
0
0
0
0
0
0
0
1 2
1 3
0
1 4
0
0
0
0
0
0
0
0
0
0
0
0
0
0
0
0
0
0
0
0
0
0
0
0
0
0
0
0
0
0
0
0
0
0
0
0
0
0
0
0
0
0
0
0
0
0
0
0
1 5
1 6
1 7
1 8
1 9
0
0
0
0
0
0
0
0
0
0
0
0
0
0
0
0
0
0
0
0
0
0
0
0
0
0
0
0
0
0
0
0
0
0
0
0
0
0
0
0
0
0
0
0
1 10
1 11
1 12
1 13
1 14
1 15
1 16
0
0
0
0
0
0
0
0
0
0
0
0
0
0
0
0
0
0
0
0
0
0
0
0
0
0
0
0
0
0
0
0
0
0
0
0
0
0
0
0
0
0
1 17
1 18
1 19
0
1 20
1 21
1 22
1 23
1 24
1 25
1 26
0
0
0
0
0
0
0
0
0
0
0
0
0
0
0
0
0
0
0
0
0
0
0
0
0
0
0
0
0
0
0
0
0
0
0
0
0
0
0
1 27
1 28
1 29
1 30
1 31
1 32
1 33
1 34
1 35
1 36
1 37
1 38
0
0
0
0
0
0
0
0
0
0
0
0
0
0
0
0
0
0
0
0
0
0
0
0
0
0
0
0
0
0
0
0
0
0
0
0
0
1 39
1 40
1 41
1 42
1 43
1 44
1 45
1 46
1 47
1 48
1 49
1 50
1 51
1 52
0
0
0
0
0
0
0
0
0
0
0
0
0
0
0
0
0
0
0
0
0
0
0
0
0
0
0
0
0
0
0
0
0
0
1 53
1 54
1 55
1 56
1 57
1 58
0
1 59
1 60
1 61
1 62
1 63
1 64
1 65
1 66
1 67
1 68
0
0
0
0
0
0
0
0
0
0
0
0
0
0
0
0
0
0
0
0
0
0
0
0
0
0
0
0
0
0
0
1 69
1 70
1 71
1 72
1 73
0
0
0
1 74
1 75
1 76
1 77
1 78
1 79
1 80
1 81
1 82
1 83
1 84
1 85
0
0
0
0
0
0
0
0
0
0
0
0
0
0
0
0
0
0
0
0
0
0
0
0
0
0
0
0
0
0
1 86
1 87
1 88
1 89
1 90
1 91
1 92
1 93
1 94
1 95
1 96
1 97
1 98
1 99
1 100
1 101
1 102
1 103
1 104
1 105
1 106
1 107
0
0
0
0
0
0
0
0
0
0
0
0
0
0
0
0
0
0
0
0
0
0
0
0
0
0
1 108
0
1 109
1 110
1 111
1 112
1 113
1 114
1 115
1 116
1 117
1 118
1 119
1 120
1 121
1 122
1 123
1 124
1 125
1 126
1 127
1 128
1 129
1 130
1 131
1 132
1 133
0
0
0
0
0
0
0
0
0
0
0
0
0
0
0
0
0
0
0
0
0
1 134
1 135
0
0
0
1 136
1 137
1 138
1 139
1 140
1 141
1 142
1 143
1 144
1 145
1 146
1 147
1 148
1 149
1 150
1 151
1 152
1 153
1 154
1 155
1 156
1 157
1 158
1 159
1 160
1 161
0
0
0
0
0
0
0
0
0
0
0
0
0
0
0
0
0
0
0
1 162
0
0
0
0
1 163
1 164
1 165
1 166
1 167
1 168
1 169
1 170
1 171
1 172
1 173
1 174
1 175
1 176
1 177
1 178
1 179
1 180
1 181
1 182
1 183
1 184
1 185
1 186
1 187
1 188
1 189
0
0
0
0
0
0
0
0
0
0
0
0
0
0
0
0
0
0
1 190
0
0
0
0
1 191
1 192
1 193
1 194
1 195
1 196
1 197
1 198
1 199
1 200
1 201
1 202
1 203
1 204
1 205
1 206
1 207
1 208
1 209
1 210
1 211
1 212
1 213
1 214
1 215
1 216
1 217
1 218
0
0
0
0
0
0
0
0
0
0
0
0
0
0
0
0
0
0
0
0
0
1 219
1 220
1 221
1 222
1 223
1 224
1 225
1 226
1 227
1 228
1 229
1 230
1 231
1 232
1 233
1 234
1 235
1 236
1 237
1 238
1 239
1 240
1 241
1 242
1 243
1 244
1 245
1 246
1 247
0
0
0
0
0
0
0
0
0
0
0
0
0
0
0
0
0
0
0
0
0
1 248
1 249
1 250
1 251
1 252
1 253
1 254
1 255
1 256
1 257
1 258
1 259
1 260
1 261
1 262
1 263
1 264
1 265
1 266
1 267
1 268
1 269
1 270
1 271
1 272
1 273
1 274
1 275
0
0
0
0
0
0
0
0
0
0
0
0
0
0
0
0
0
0
0
0
0
0
0
0
0
0
0
0
1 276
1 277
1 278
1 279
1 280
1 281
1 282
1 283
1 284
1 285
1 286
1 287
1 288
1 289
1 290
1 291
1 292
1 293
1 294
1 295
1 296
0
0
0
0
0
0
0
0
0
0
0
0
0
0
0
0
0
0
0
0
0
0
0
0
0
0
0
0
0
0
0
0
0
0
1 297
1 298
1 299
1 300
1 301
1 302
1 303
1 304
1 305
1 306
1 307
1 308
1 309
1 310
1 311
0
0
0
0
0
0
0
0
0
0
0
0
0
0
0
0
0
0
0
0
0
0
0
0
0
0
0
0
0
0
0
0
0
0
0
0
0
0
0
0
1 312
1 313
1 314
1 315
1 316
1 317
1 318
0
0
0
0
0
0
0
0
0
0
0
0
0
0
0
0
0
0
0
0
0
0
0
0
0
0
0
0
0
0
0
0
0
0
0
0
0
0
0
0
0
0
0
0
0
0
0
0
0
0
0
0
0
0
0
0
0
0
0
0
0
0
0
0
0
0
0
0
0
0
0
0
0
0
0
0
0
0
0
0
0
0
0
0
0
0
0
0
0
0
0
0
0
0
0
0
0
0
0
0
0
0
0
0
0
0
0
0
0
0
0
0
0
0
0
0
0
0
0
0
0
0
0
0
0
0
0
0
0
0
0
0
0
0
0
0
0
0
0
0
0
0
0
0
0
0
0
0
0
0
0
0
0
0
0
0
0
0
0
0
0
0
0
0
0
0
0
0
0
0
0
0
0
0
0
0
0
0
0
0
0
0
0
0
0
0
0
0
0
0
0
0
0
0
0
0
0
0
0
0
0
0
0
0
0
0
0
0
0
0
0
0
0
0
0
0
0
0
0
0
0
0
0
0
0
0
0
0
0
0
0
0
0
0
0
0
0
0
0
0
0
0
0
0
0
0
0
0
0
0
0
0
0
0
0
0
0
0
0
0
0
0
0
0
0
0
0
0
0
0
0
0
0
0
0
0
0
0
0
0
0
0
0
0
0
0
0
0
0
0
0
0
0
0
0
0
0
0
0
0
0
0
0
0
0
0
0
0
0
0
0
0
0
0
0
0
0
0
0
0
0
0
0
0
0
0
0
0
0
0
0
0
0
0
0
0
0
0
0
0
0
0
0
0
0
0
0
0
0
0
0
0
0
0
0
0
0
0
0
0
0
0
0
0
0
0
0
0
0
0
0
0
0
0
0
0
0
0
0
0
0
0
0
0
0
0
0
0
0
0
0
0
0
0
0
0
0
0
0
0
0
0
0
0
0
0
0
0
0
0
0
0
0
0
0
0
0
0
0
0
0
0
0
0
0
0
0
0
0
0
0
0
0
0
0
0
0
0
0
0
0
0
0
0
0
0
0
0
0
0
0
0
0
0
0
0
0
0
0
0
0
0
0
0
0
0
0
0
0
0
0
0
0
0
0
0
0
0
0
0
0
0
0
0
0
0
0
0
0
0
0
0
0
0
0
0
0
0
0
0
0
0
0
0
0
0
0
0
0
0
0
0
0
0
0
0
0
0
0
0
0
0
0
0
0
0
0
0
0
0
0
0
0
0
0
0
0
0
0
0
0
0
0
0
0
0
0
0
0
0
0
0
0
0
0
0
0
0
0
0
0
0
0
0
0
0
0
0
0
0
0
0
0
0
0
0
0
0
0
0
0
0
0
0
0
0
0
0
0
0
0
0
0
0
0
0
0
0
0
0
0
0
0
0
0
0
0
0
0
0
0
0
0
0
0
0
0
0
0
0
0
0
0
0
0
0
0
0
0
0
0
0
0
0
0
0
0
0
0
0
0
0
0
0
0
0
0
0
0
0
0
0
0
0
0
0
0
0
0
0
0
0
0
0
0
0
0
0
0
0
0
0
0
0
0
0
0
0
0
0
0
0
0
0
0
0
0
0
0
0
0
0
0
0
0
0
0
0
0
0
0
0
0
0
0
0
0
0
0
0
0
0
0
0
0
0
0
0
0
0
0
0
0
0
0
0
0
0
0
0
0
0
0
0
0
0
0
0
0
0
0
0
0
0
0
0
0
0
0
0
0
0
0
0
0
0
0
0
0
0
0
0
0
0
0
0
0
0
0
0
0
0
0
0
0
0
0
0
0
0
0
0
0
0
0
0
0
0
0
0
0
0
0
0
0
0
0
0
0
0
0
0
0
0
0
0
0
0
0
0
0
0
0
0
0
0
0
0
0
0
0
0
0
0
0
0
0
0
0
0
0
0
0
0
0
0
0
0
0
0
0
0
0
0
0
0
0
0
0
0
0
0
0
0
0
0
0
0
0
0
0
0
0
0
0
0
0
0
0
