ply
format ascii 1.0
obj_info num_cols 50
obj_info num_rows 50
element vertex 304
property float x
property float y
property float z
element range_grid 2500
property list uchar int vertex_indices
end_header
2.7234774 14.1131598 22.3405886
-1.0172252 13.7026391 22.2878314
-3.3306529 13.5010555 22.9824578
2.9925174 12.0068038 15.3873225
-3.0093685 11.3129711 15.8790369
-1.2805441 11.8984856 20.4581385
3.4388366 9.5425827 5.8131255
3.7247496 9.7878480 8.0675559
3.4937310 9.9270800 9.9315126
3.5099794 10.1105802 11.9117784
3.6158762 10.3069655 13.8996436
3.8024468 10.5141424 15.8855727
3.8116333 10.6837688 17.7247812
-2.9816967 9.5973671 15.9472558
2.1274369 10.7017965 20.4230516
-1.3419396 10.2364696 20.4929070
4.5853512 8.0437014 6.5992124
4.6288049 8.2607212 8.6736203
4.6117164 8.4597265 10.6598500
4.7799766 8.6934396 12.7145881
4.7123457 8.8724187 14.5780584
4.6508318 9.0486301 16.4052297
4.6222860 9.2276776 18.2117001
4.5295302 9.3897468 19.9456136
3.4798198 9.3559959 21.1620038
1.3730100 9.1125514 21.8719347
-3.1952940 8.3893610 21.4866444
-1.0106194 0.8049407 -34.5038944
-2.2612580 0.8031428 -32.6844579
-3.3210625 0.8542567 -30.6705284
-4.3712149 0.9063560 -28.6619267
-5.3821480 0.9674261 -26.6304248
-6.3345102 1.0423032 -24.5610493
4.6912880 5.6087877 0.2145046
7.0979335 6.6788493 6.2799619
6.9232230 6.8644149 8.2007758
4.6088714 6.5379833 8.6696895
4.6270764 6.7658141 10.6864507
4.7205352 7.0058460 12.7021956
4.7171756 7.2182087 14.6118694
4.7512331 7.4342709 16.4998070
4.7820804 7.6447993 18.3428221
4.7561069 7.8380683 20.1144285
3.7400917 7.8095128 21.3495114
0.7904795 7.3607907 21.6539383
-3.4307663 6.6473195 21.4501308
-6.5362845 6.1858961 21.8694591
-6.5286707 6.3903291 23.6919028
-5.4652742 6.8110693 25.9048958
0.7214161 -0.5459578 -29.6614341
-0.2038022 -0.4592088 -27.5961538
-1.4349979 -0.4666275 -25.8583509
-2.7085880 -0.4866599 -24.1623546
6.4382914 3.9903709 -0.7030925
6.9503141 4.3990715 1.9103498
7.1002333 4.7011326 4.1757383
7.0624415 4.9463475 6.2478249
7.0557688 5.1937862 8.2927349
7.1421961 5.4593624 10.3508023
7.1277419 5.6930115 12.2936635
7.1253048 5.9242738 14.1993361
7.1191181 6.1493041 16.0592291
7.1025406 6.3666751 17.8713072
7.0907522 6.5803440 19.6459384
7.0678551 6.7865985 21.3758165
3.6890706 6.1869759 21.3804998
2.8539421 6.6136004 26.1096009
-0.8897493 5.9556722 26.1678683
-4.8938423 5.2516343 26.2273425
9.5755095 0.8965384 -14.9647834
3.7908588 -0.6104206 -17.9838667
5.4701805 0.6130640 -11.1416488
6.0861829 1.1322733 -8.0973615
6.5806444 1.6012871 -5.2571717
6.9427477 2.0187555 -2.6155836
7.1625791 2.3836589 -0.1659063
7.1422067 2.6693086 2.0318178
7.1046946 2.9429524 4.1633615
7.0944614 3.2176946 6.2635425
7.0699094 3.4817769 8.3036535
7.0892805 3.7518062 10.3249785
7.1021448 4.0136928 12.2939699
7.1218500 4.2713546 14.2209398
7.1900578 4.5361623 16.1315580
7.0523942 4.7401172 17.8799203
7.1313165 4.9965365 19.7112776
7.1617546 5.2346332 21.4741283
7.1740929 5.4628341 23.1882118
7.1799222 5.6844148 24.8615216
6.2209104 5.6575370 26.0532192
2.9156631 5.0445305 26.2108120
9.6415418 -0.6608479 -12.4189125
10.4637377 -0.0237341 -9.1249043
10.5381799 0.3462418 -6.6275058
10.5602467 0.6891515 -4.2447406
10.4611760 0.9836058 -2.0274948
7.4775647 0.3413129 -2.2229558
7.3900981 0.6360208 -0.0207551
7.3803577 0.9477355 2.1884694
7.2995492 1.2296550 4.2909571
7.3396653 1.5417485 6.4305354
7.2323422 1.8016008 8.4160828
7.1170327 2.0528250 10.3524553
7.1157899 2.3318786 12.3193556
7.1675896 2.6199511 14.2728313
6.7367107 2.7616079 15.8953460
4.8259528 2.4761262 16.6564345
7.2533323 3.6740554 21.5714748
-4.1700110 0.7504853 17.5526278
-4.1491924 1.0273843 19.4723558
-6.5587086 0.6386764 20.2299473
-9.9080949 0.0053451 20.6281308
-9.8786892 0.2830866 22.5413368
-9.9178734 0.5369749 24.3860550
-9.9799973 0.7796259 26.1849120
10.4061299 -1.5607201 -6.8229653
10.5996492 -1.1298418 -4.2744241
10.5857752 -0.7826686 -1.9754197
10.5427834 -0.4545226 0.2407939
10.5418343 -0.1204410 2.4351692
10.6077349 0.2277138 4.6252493
10.6524895 0.5601857 6.7429630
10.5471401 0.8351887 8.7005107
7.5358028 0.1602666 8.6250440
7.4923458 0.4529656 10.6092462
7.2910560 0.6886660 12.4475474
7.0403874 0.9033204 14.2191073
6.8602420 1.1348091 15.9991832
7.2328420 1.8041210 19.8538864
-2.0433313 -0.7096930 16.7674495
-3.0885820 -0.7281826 18.1576886
-1.8587108 0.1996499 22.4696321
-1.8686971 0.4692417 24.2537486
-1.8773739 0.7334883 26.0008835
-2.1439866 0.9195708 27.6079471
-5.2182723 0.5789457 29.8179315
10.5026854 -3.0146199 -4.4243116
10.5499447 -2.6186626 -2.0596823
10.4902544 -2.2723425 0.1542371
10.5218388 -1.9017418 2.3856831
10.6207529 -1.5163470 4.6109085
10.6433599 -1.1676226 6.7208933
10.5936735 -0.8528298 8.7266765
10.5684109 -0.5372710 10.7019367
10.6754146 -0.1840733 12.7176719
10.6507323 0.1162106 14.5982444
10.6666535 0.4229959 16.4601958
10.6709591 0.7188114 18.2715022
10.4883629 0.9467514 19.9353643
7.2236080 0.1734124 19.8930117
3.6430418 -0.6841510 19.7887062
2.7395700 -0.6769060 21.1363958
2.5965248 -0.4321279 22.8466639
2.6484548 -0.1323523 24.6136073
2.6383004 0.1419716 26.3137241
2.7828103 0.7227365 29.6735528
-1.0509814 -0.1559746 29.8045690
9.9309168 -5.1110716 -4.9921206
10.6157307 -4.4319939 -2.0582239
10.5826475 -4.0514041 0.1860145
10.3705900 -3.7497787 2.2320558
10.5724223 -3.2979261 4.5495365
10.3694642 -3.0099488 6.5037105
10.5826832 -2.5741850 8.7119464
10.4949070 -2.2597875 10.6528537
10.6015467 -1.8823299 12.6779421
10.6691967 -1.5278825 14.6263331
10.6528569 -1.2116263 16.4751652
10.6564085 -0.8957717 18.2930551
10.6494864 -0.5908415 20.0629651
10.6585615 -0.2873763 21.8013984
10.6678069 0.0093038 23.5004253
10.6840232 0.3017100 25.1647537
10.6602424 0.5743791 26.7727249
10.0952143 0.6631539 28.0982193
9.0190133 0.5836143 29.1878787
6.7690079 0.1276821 29.7943260
2.9411877 -0.8217765 29.8229078
10.2534842 -6.4381891 -2.4207222
10.6087213 -5.8693588 0.1631276
10.5643577 -5.4788138 2.3511064
10.5743192 -5.0762783 4.5262884
10.5859567 -4.6832182 6.6475246
10.5986428 -4.2995267 8.7162970
10.5852187 -3.9354458 10.7158993
10.3781742 -3.6547990 12.5397415
10.6077356 -3.2147105 14.6038162
10.4384166 -2.9351097 16.3677911
10.4691950 -2.5876610 18.2134481
10.5699585 -2.2225141 20.0548640
10.7254477 -1.8458050 21.8805775
10.5635855 -1.5917351 23.4949754
10.6672717 -0.9501573 26.8357684
10.0927571 -0.8579566 28.1623298
8.9050833 -0.9790843 29.2091043
-5.3993354 -5.5691262 24.7853201
-9.1504578 -6.5042610 25.0858790
-9.8534351 -6.4026457 26.6481343
-10.1867556 -6.1810815 28.3319567
10.3159375 -7.8417979 -0.1217931
10.5782183 -7.2922090 2.3275470
10.5858949 -6.8654847 4.5102273
10.5614469 -6.4631224 6.6137164
10.6132545 -6.0390247 8.7196354
10.6432909 -5.6343548 10.7568878
10.6121042 -5.2644683 12.7030867
10.6378530 -4.8805978 14.6395609
10.6084335 -4.5277941 16.4954083
10.5461442 -4.1962148 18.2892623
10.5869302 -3.8323101 20.1015422
10.6723029 -3.4596327 21.8950089
10.7099595 -3.1135349 23.6202341
7.6292527 -3.9469129 23.7520127
4.7519690 -4.6867800 24.0729155
2.4824186 -5.1875004 24.7520707
2.0344490 -5.0151150 26.2803927
-0.0620397 -5.4399397 27.1016380
-5.9181648 -7.1954428 26.4713591
-6.8852832 -7.1913264 27.8788139
-8.0764398 -7.2656658 29.2040896
-9.0357226 -7.2585809 30.6155733
-9.7784550 -7.1777421 32.0957983
-9.8748893 -6.8797707 33.7658267
-9.7247051 -6.5050595 35.4768463
10.4027099 -8.7572003 4.3450892
10.5977684 -8.2319451 6.6246009
10.6902165 -7.7649378 8.7672101
10.6030415 -7.3874903 10.7305958
10.6206900 -6.9743292 12.7179469
10.6344374 -6.5728126 14.6541572
10.6267055 -6.1898898 16.5305300
10.6745141 -5.7930095 18.3954137
10.7179616 -5.4071692 20.2127597
10.6632880 -5.0699442 21.9337021
10.6831722 -4.7105767 23.6558122
10.5664842 -4.4133781 25.2705201
6.3601780 -5.7242335 24.9043148
2.6408391 -6.8183768 24.8969094
0.8668514 -7.1438594 25.8500078
-1.0230857 -7.1528330 28.5108220
-2.0393511 -7.1839234 29.8136641
-3.1191390 -7.2379037 31.0959049
-4.1053966 -7.2569341 32.4145519
-4.9287552 -7.2170729 33.7869633
-5.7623599 -7.1818236 35.1515716
8.3711198 -11.0736065 4.9670057
8.9886862 -10.3243499 7.5511791
10.5770934 -8.7212825 12.6984974
10.6676284 -8.2624302 14.6920997
10.6733909 -7.8519216 16.5831567
10.6446041 -7.4661918 18.4089352
10.6757895 -7.0636885 20.2266289
10.6620032 -6.6896427 21.9769163
10.7117459 -6.2974277 23.7204944
10.6523500 -5.9595041 25.3688241
10.5266914 -5.6564325 26.9505825
6.0894104 -7.1156857 26.5391882
5.1611816 -7.1303535 27.7976018
4.2869118 -7.1233781 29.0790533
3.3493205 -7.1416924 30.3339727
2.4688394 -7.1375067 31.6113920
1.4679979 -7.1800687 32.8444991
0.6395336 -7.1560199 34.1394954
-0.3434022 -7.1910915 35.3816740
0.5977574 -6.5045098 37.2135129
-3.6149549 -7.7441875 37.4971540
7.7287874 -11.8125797 10.8314768
8.6390079 -10.9291072 13.4233432
9.3214195 -10.1720617 15.7835009
10.5550966 -8.7702100 20.1966639
10.7067241 -8.3012948 22.0453048
10.7132280 -7.9072063 23.7714937
10.6863394 -7.5366518 25.4416899
10.6927539 -7.1600467 27.0910142
10.6646221 -6.8065637 28.6878056
10.5430773 -6.5003249 30.2098297
7.9616395 -7.2291268 30.6836370
7.2598574 -7.1652301 31.9663457
6.4328002 -7.1541075 33.1953965
5.5607227 -7.1616141 34.4066451
5.3096830 -6.5839279 37.3088239
1.1085794 -7.9056995 37.4823250
7.9759581 -11.6579556 18.7854482
8.6159904 -10.9224249 20.9624240
9.3142394 -10.1768113 23.0987865
10.5741890 -8.7973510 27.0967033
10.7026309 -8.3548149 28.7722017
10.7250718 -7.9689098 30.3609172
10.7102951 -7.6077080 31.8989209
10.7452541 -7.2327643 33.4237634
10.6533229 -6.9201954 34.8674680
9.9424177 -6.8767571 36.0629386
8.6943852 -7.0598287 37.0725388
5.5044960 -8.0462235 37.4755574
8.1363270 -11.5477039 26.0053623
10.2279429 -9.3670865 31.7775489
10.7250518 -8.7619918 33.4978076
10.5938023 -8.4511838 34.9316652
9.8960224 -8.3980818 36.1378923
8.3872738 -8.7019626 37.0660788
7.5745639 -12.1933076 30.7650290
8.0987070 -11.5338371 32.5518312
8.6678458 -10.8674162 34.3013452
3.3660479 -12.9300874 33.9197602
0
0
0
0
0
0
0
0
0
0
0
0
0
0
0
0
0
0
0
0
0
0
0
0
0
0
0
0
0
0
0
0
0
0
0
0
0
0
0
0
0
0
0
0
0
0
0
0
0
0
0
0
0
0
0
0
0
0
0
0
0
0
0
0
0
0
0
0
0
0
0
0
0
0
0
0
0
0
0
0
0
0
0
0
0
0
0
0
0
0
0
0
0
0
0
0
0
0
0
0
0
0
0
0
0
0
0
0
0
0
0
0
0
0
0
0
0
0
0
0
0
0
0
0
0
0
0
0
0
0
0
0
0
0
0
0
0
0
0
0
0
0
0
0
0
0
0
0
0
0
0
0
0
0
0
0
0
0
0
0
0
0
0
0
0
0
0
0
0
0
0
0
0
0
0
0
0
0
0
0
0
0
0
0
0
0
0
0
0
0
0
0
0
0
0
0
0
0
0
0
0
0
0
0
0
0
0
0
0
0
0
0
0
0
0
0
0
0
0
0
0
0
0
0
0
0
0
0
0
0
0
0
0
0
0
0
0
0
0
0
0
0
0
0
0
0
0
0
0
0
0
0
0
0
0
0
0
0
0
0
0
0
0
0
0
0
0
0
0
0
0
0
0
0
0
0
0
0
0
0
0
0
0
0
0
0
0
0
0
0
0
0
0
0
0
0
0
0
0
0
0
0
0
0
0
0
0
0
0
0
0
0
0
0
0
0
0
0
0
0
0
0
0
0
0
0
0
0
0
0
0
0
0
0
0
0
0
0
0
0
0
0
0
0
0
0
0
0
0
0
0
0
0
0
0
0
0
0
0
0
0
0
0
0
0
0
0
0
0
0
0
0
0
0
0
0
0
0
0
0
0
0
0
0
0
0
0
0
0
0
0
0
0
0
0
0
0
0
0
0
0
0
0
0
0
0
0
0
0
0
0
0
0
0
0
0
0
0
0
0
0
0
0
0
0
0
0
0
0
0
0
0
0
0
0
0
0
0
0
0
0
0
0
0
0
0
0
0
0
0
0
0
0
0
0
0
0
0
0
0
0
0
0
0
0
0
0
0
0
0
0
0
0
0
0
0
0
0
0
0
0
0
0
0
0
0
0
0
0
0
0
0
0
0
0
0
0
0
0
0
0
0
0
0
0
0
0
0
0
0
0
0
0
0
0
0
0
0
0
0
0
0
0
0
0
0
0
0
0
0
0
0
0
0
0
0
0
0
0
0
0
0
0
0
0
0
0
0
0
0
0
0
0
0
0
0
0
0
0
0
0
0
0
0
0
0
0
0
0
0
0
0
0
0
0
0
0
0
0
0
0
0
0
0
0
0
0
0
0
0
0
0
0
0
0
0
0
0
0
0
0
0
0
0
0
0
0
0
0
0
0
0
0
0
0
0
0
0
0
0
0
0
0
0
0
0
0
0
0
0
0
0
0
0
0
0
0
0
0
0
0
0
0
0
0
0
0
0
0
0
0
0
0
0
0
0
0
0
0
0
0
0
0
0
0
0
0
0
0
0
0
0
0
0
0
0
0
0
0
0
0
0
0
0
0
0
0
0
0
0
0
0
0
0
0
0
0
0
0
0
0
0
0
0
0
0
0
0
0
0
0
0
0
0
0
0
0
0
0
0
0
0
0
0
0
0
0
0
0
0
0
0
0
0
0
0
0
0
0
0
0
0
0
0
0
0
0
0
0
0
0
0
0
0
0
0
0
0
0
0
0
0
0
0
0
0
0
0
0
0
0
0
0
0
0
0
0
0
0
0
0
0
0
0
0
0
0
0
0
0
0
0
0
0
0
0
0
0
0
0
0
0
0
0
0
0
0
0
0
0
0
0
0
0
0
0
0
0
0
0
0
0
0
0
0
0
0
0
0
0
0
0
0
0
0
0
0
0
0
0
0
0
0
0
0
0
0
0
0
0
0
0
0
0
0
0
0
0
0
0
0
0
0
0
0
0
0
0
0
0
0
0
0
0
0
0
0
0
0
0
0
0
0
0
0
0
0
0
0
0
0
0
0
0
0
0
0
0
0
0
0
0
0
0
0
0
0
0
0
0
0
0
0
0
0
0
0
0
0
0
0
0
0
0
0
0
0
0
0
0
0
0
0
0
0
1 0
1 1
1 2
0
0
0
0
0
0
0
0
0
0
0
0
0
0
0
0
0
0
0
0
0
0
0
0
0
0
0
0
0
0
0
0
0
0
0
0
0
0
0
0
0
0
0
1 3
0
1 4
0
1 5
0
0
0
0
0
0
0
0
0
0
0
0
0
0
0
0
0
0
0
0
0
0
0
0
0
0
0
0
0
0
0
0
0
0
0
0
0
0
0
0
1 6
1 7
1 8
1 9
1 10
1 11
1 12
1 13
1 14
1 15
0
0
0
0
0
0
0
0
0
0
0
0
0
0
0
0
0
0
0
0
0
0
0
0
0
0
0
0
0
0
0
0
0
0
0
0
0
0
0
0
1 16
1 17
1 18
1 19
1 20
1 21
1 22
1 23
1 24
1 25
1 26
0
0
0
0
0
0
0
0
0
0
0
0
0
0
0
0
0
0
0
0
0
0
0
0
0
1 27
1 28
1 29
1 30
1 31
1 32
0
0
0
0
0
1 33
0
1 34
1 35
1 36
1 37
1 38
1 39
1 40
1 41
1 42
1 43
1 44
1 45
1 46
1 47
1 48
0
0
0
0
0
0
0
0
0
0
0
0
0
0
0
0
0
0
0
0
0
0
0
1 49
1 50
1 51
1 52
0
0
0
0
0
1 53
1 54
1 55
1 56
1 57
1 58
1 59
1 60
1 61
1 62
1 63
1 64
1 65
0
0
1 66
1 67
1 68
0
0
0
0
0
0
0
0
0
0
0
0
0
0
0
0
0
0
0
0
0
0
0
0
0
1 69
1 70
0
1 71
1 72
1 73
1 74
1 75
1 76
1 77
1 78
1 79
1 80
1 81
1 82
1 83
1 84
1 85
1 86
1 87
1 88
1 89
1 90
0
0
0
0
0
0
0
0
0
0
0
0
0
0
0
0
0
0
0
0
0
0
0
0
0
0
0
0
1 91
1 92
1 93
1 94
1 95
1 96
1 97
1 98
1 99
1 100
1 101
1 102
1 103
1 104
1 105
1 106
0
1 107
1 108
1 109
1 110
1 111
1 112
1 113
1 114
0
0
0
0
0
0
0
0
0
0
0
0
0
0
0
0
0
0
0
0
0
0
0
0
0
0
0
1 115
1 116
1 117
1 118
1 119
1 120
1 121
1 122
1 123
1 124
1 125
1 126
1 127
0
1 128
1 129
1 130
0
1 131
1 132
1 133
1 134
0
1 135
0
0
0
0
0
0
0
0
0
0
0
0
0
0
0
0
0
0
0
0
0
0
0
0
0
0
0
1 136
1 137
1 138
1 139
1 140
1 141
1 142
1 143
1 144
1 145
1 146
1 147
1 148
1 149
1 150
1 151
1 152
1 153
1 154
0
1 155
1 156
0
0
0
0
0
0
0
0
0
0
0
0
0
0
0
0
0
0
0
0
0
0
0
0
0
0
0
0
1 157
1 158
1 159
1 160
1 161
1 162
1 163
1 164
1 165
1 166
1 167
1 168
1 169
1 170
1 171
1 172
1 173
1 174
1 175
1 176
1 177
0
0
0
0
0
0
0
0
0
0
0
0
0
0
0
0
0
0
0
0
0
0
0
0
0
0
0
0
0
0
1 178
1 179
1 180
1 181
1 182
1 183
1 184
1 185
1 186
1 187
1 188
1 189
1 190
1 191
0
1 192
1 193
1 194
1 195
1 196
1 197
1 198
0
0
0
0
0
0
0
0
0
0
0
0
0
0
0
0
0
0
0
0
0
0
0
0
0
0
0
0
0
1 199
1 200
1 201
1 202
1 203
1 204
1 205
1 206
1 207
1 208
1 209
1 210
1 211
1 212
1 213
1 214
1 215
1 216
1 217
1 218
1 219
1 220
1 221
1 222
1 223
0
0
0
0
0
0
0
0
0
0
0
0
0
0
0
0
0
0
0
0
0
0
0
0
0
0
0
1 224
1 225
1 226
1 227
1 228
1 229
1 230
1 231
1 232
1 233
1 234
1 235
1 236
1 237
1 238
0
1 239
1 240
1 241
1 242
1 243
1 244
0
0
0
0
0
0
0
0
0
0
0
0
0
0
0
0
0
0
0
0
0
0
0
0
0
0
0
0
0
1 245
1 246
0
1 247
1 248
1 249
1 250
1 251
1 252
1 253
1 254
1 255
1 256
1 257
1 258
1 259
1 260
1 261
1 262
1 263
1 264
1 265
0
0
0
0
0
0
0
0
0
0
0
0
0
0
0
0
0
0
0
0
0
0
0
0
0
0
0
0
0
0
0
1 266
1 267
1 268
0
1 269
1 270
1 271
1 272
1 273
1 274
1 275
1 276
1 277
1 278
1 279
0
1 280
1 281
0
0
0
0
0
0
0
0
0
0
0
0
0
0
0
0
0
0
0
0
0
0
0
0
0
0
0
0
0
0
0
0
0
0
0
0
1 282
1 283
1 284
0
1 285
1 286
1 287
1 288
1 289
1 290
1 291
1 292
1 293
0
0
0
0
0
0
0
0
0
0
0
0
0
0
0
0
0
0
0
0
0
0
0
0
0
0
0
0
0
0
0
0
0
0
0
0
0
0
0
0
0
1 294
0
0
1 295
1 296
1 297
1 298
1 299
0
0
0
0
0
0
0
0
0
0
0
0
0
0
0
0
0
0
0
0
0
0
0
0
0
0
0
0
0
0
0
0
0
0
0
0
0
0
0
0
0
0
0
0
0
1 300
1 301
1 302
1 303
0
0
0
0
0
0
0
0
0
0
0
0
0
0
0
0
0
0
0
0
0
0
0
0
0
0
0
0
0
0
0
0
0
0
0
0
0
0
0
0
0
0
0
0
0
0
0
0
0
0
0
0
0
0
0
0
0
0
0
0
0
0
0
0
0
0
0
0
0
0
0
0
0
0
0
0
0
0
0
0
0
0
0
0
0
0
0
0
0
0
0
0
0
0
0
0
0
0
0
0
0
0
0
0
0
0
0
0
0
0
0
0
0
0
0
0
0
0
0
0
0
0
0
0
0
0
0
0
0
0
0
0
0
0
0
0
0
0
0
0
0
0
0
0
0
0
0
0
0
0
0
0
0
0
0
0
0
0
0
0
0
0
0
0
0
0
0
0
0
0
0
0
0
0
0
0
0
0
0
0
0
0
0
0
0
0
0
0
0
0
0
0
0
0
0
0
0
0
0
0
0
0
0
0
0
0
0
0
0
0
0
0
0
0
0
0
0
0
0
0
0
0
0
0
0
0
0
0
0
0
0
0
0
0
0
0
0
0
0
0
0
0
0
0
0
0
0
0
0
0
0
0
0
0
0
0
0
0
0
0
0
0
0
0
0
0
0
0
0
0
0
0
0
0
0
0
0
0
0
0
0
0
0
0
0
0
0
0
0
0
0
0
0
0
0
0
0
0
0
0
0
0
0
0
0
0
0
0
0
0
0
0
0
0
0
0
0
0
0
0
0
0
0
0
0
0
0
0
0
0
0
0
0
0
0
0
0
0
0
0
0
0
0
0
0
0
0
0
0
0
0
0
0
0
0
0
0
0
0
0
0
0
0
0
0
0
0
0
0
0
0
0
0
0
0
0
0
0
0
0
0
0
0
0
0
0
0
0
0
0
0
0
0
0
0
0
0
0
0
0
0
0
0
0
0
0
0
0
0
0
0
0
0
0
0
0
0
0
0
0
0
0
0
0
0
0
0
0
0
0
0
0
0
0
0
0
0
0
0
0
0
0
0
0
0
0
0
0
0
0
0
0
0
0
0
0
0
0
0
0
0
0
0
0
0
0
0
0
0
0
0
0
0
0
0
0
0
0
0
0
0
0
0
0
0
0
0
0
0
0
0
0
0
0
0
0
0
0
0
0
0
0
0
0
0
0
0
0
0
0
0
0
0
0
0
0
0
0
0
0
0
0
0
0
0
0
0
0
0
0
0
0
0
0
0
0
0
0
0
0
0
0
0
0
0
0
0
0
0
0
0
0
0
0
0
0
0
0
0
0
0
0
0
0
0
0
0
0
0
0
0
0
0
0
0
0
0
0
0
0
0
0
0
0
0
0
0
0
0
0
0
0
0
0
0
0
0
0
0
0
0
0
0
0
0
0
0
0
0
0
0
0
0
0
0
0
0
0
0
0
0
0
0
0
0
0
0
0
0
0
0
0
0
0
0
0
0
0
0
0
0
0
0
0
0
0
0
0
0
0
0
0
0
0
0
0
0
0
