ply
format ascii 1.0
obj_info num_cols 50
obj_info num_rows 50
element vertex 325
property float x
property float y
property float z
element range_grid 2500
property list uchar int vertex_indices
end_header
5.7077580 1.1003533 -25.5834880
4.6137822 0.7704032 -27.5019910
3.4633740 0.4974519 -29.3763463
2.3047409 0.2229163 -31.2633926
1.0527313 0.0593696 -33.0451483
8.7164151 1.1366699 -16.9524101
7.7650218 0.6834056 -18.9134673
6.8708951 0.1425448 -20.9712846
5.8861979 -0.3093235 -22.9687120
4.6092458 -0.4129421 -24.6570527
3.3111838 -0.4940317 -26.3279767
1.9400312 -0.4828440 -27.9119098
0.5902038 -0.4998953 -29.5236842
-0.8198129 -0.4351589 -31.0529805
-3.2711925 1.0970886 -31.0571938
9.4195107 0.6808128 -12.0948503
8.7596484 -0.0940053 -14.2682821
7.7013138 -0.4215644 -16.0992383
6.4800350 -0.5630185 -17.7843420
5.0935752 -0.5040351 -19.3002925
3.7756852 -0.5301454 -20.8898764
2.4433585 -0.5386694 -22.4645531
1.0884784 -0.5176331 -24.0121680
-0.2667341 -0.4953042 -25.5578344
-1.6015951 -0.5004151 -27.1293050
-2.9995397 -0.4159016 -28.6125278
9.8758123 0.5000405 -7.1615849
9.3895076 -0.4506657 -9.3935981
8.0985882 -0.4779191 -10.9519333
6.8191612 -0.5203331 -12.5233378
4.5881425 0.6171480 -13.1445041
3.2943573 0.6135456 -14.6648236
2.6871100 -0.2787204 -16.9361462
1.5994939 -0.5744501 -18.7261763
0.2332309 -0.5068526 -20.2067716
-1.0743224 -0.5174158 -21.7553784
-2.3898455 -0.5173117 -23.2946530
-3.7294074 -0.4825499 -24.8014368
-6.0548358 1.0138132 -24.9053451
4.1761870 5.9936832 0.0272926
3.0988353 5.8620594 -1.4560409
2.2009417 5.5079981 -3.1057400
1.6584381 4.7011461 -5.1056891
1.7880613 3.0152896 -7.8064009
1.1805485 2.2075188 -9.8839735
0.2924029 1.7340314 -11.7243293
-0.5828321 1.2228707 -13.6133196
-1.3979467 0.6069043 -15.6092877
-1.8820864 -0.5001586 -18.0488861
-3.1338027 -0.5586221 -19.6124639
-4.4536740 -0.5200310 -21.0915794
3.1351553 10.0888301 9.6171927
1.9240312 10.2113717 8.4007129
0.9716330 10.0380523 7.0027151
0.1160570 9.7437798 5.5200386
-0.8377288 9.5565876 4.0977119
0.4187004 6.6488404 0.8086780
-0.4226625 6.2525891 -0.8242766
-1.1865371 5.7414283 -2.5546395
-1.8428515 5.0691219 -4.4229002
-1.8645363 3.5244852 -6.9763653
-2.0962669 2.1992060 -9.4165683
-2.9042384 1.6159589 -11.3165085
-3.6348628 0.8968531 -13.3483098
-4.0770081 -0.2738509 -15.7817107
-5.1663677 -0.5379750 -17.4885758
-6.4486018 -0.5215064 -18.9618646
-8.6430397 0.9168755 -19.1752194
2.9061063 11.7710147 15.7625012
1.9686668 11.6351771 14.4506974
0.5951454 11.9896269 13.4049685
0.2511154 11.1669506 11.6999569
-0.4999915 10.7932937 10.2296156
-1.2412760 10.3939706 8.7301292
-2.0284017 10.0354921 7.2416800
-2.8773076 9.7400457 5.7807497
-1.9114152 7.1303381 2.7788919
-2.5611749 6.5071550 1.0320511
-3.3214238 6.0043807 -0.6534138
-3.9940238 5.3624371 -2.4566789
-4.2059015 4.0588429 -4.7685069
-4.3094998 2.5462193 -7.2846064
-4.8512999 1.5963797 -9.4223290
-5.3834905 0.5891667 -11.6396468
-5.8648179 -0.5414956 -13.9929127
-7.0964000 -0.5703372 -15.4794378
-9.3406971 0.9973772 -15.6229805
3.1284975 13.9416723 22.8873238
2.0136723 14.0557929 21.7579510
3.1753916 10.5239578 17.7075844
1.1284046 10.4380418 15.1813590
-1.9055936 11.5227521 13.2934340
-2.4475049 10.9106576 11.7219990
-3.0431224 10.3419478 10.1541848
-3.6917018 9.8181744 8.5932390
-4.4784579 9.4515336 7.1113148
-3.8530594 7.2183641 4.4225879
-4.5158015 6.6179001 2.7276142
-4.8261911 5.5112083 0.6694921
-5.5543935 4.9402654 -1.0568447
-5.6880083 3.4972948 -3.4232168
-5.8888376 2.0882737 -5.8162213
-6.3428365 0.9924580 -8.0256846
-6.5960924 -0.4601006 -10.5467020
-7.7305857 -0.6069124 -12.0987294
-9.9757152 1.0136676 -12.2430665
-0.8099251 14.0695755 21.7871819
2.3798896 9.2768142 18.4174551
1.3232212 9.2701210 17.1715059
-3.3893256 11.1466212 14.4392672
-3.6358540 10.1584125 12.6867535
-4.1482252 9.4720785 11.0705315
-4.5335923 8.5935176 9.3180669
-4.8368380 7.5709052 7.4482355
-4.9082234 6.1925332 5.3225252
-5.8675746 5.9854934 3.8935769
-6.3955834 5.1603137 2.0533481
-6.7289385 4.0185547 -0.0282322
-6.8236968 2.4744658 -2.4268105
-7.1199834 1.1645981 -4.7141015
-7.2779083 -0.4192676 -7.2455023
-8.3939571 -0.5648222 -8.7666496
-10.5298889 0.9321701 -9.0471883
-3.4776694 14.0055151 21.7811521
-0.5729885 9.3381110 18.4893268
-3.8365141 10.8016931 16.7697187
-4.0812589 9.8127706 15.0661303
-4.6117323 9.1559383 13.5042877
-4.8142800 8.0408982 11.6693041
-4.4769300 6.1552507 9.3613841
-7.1029476 6.7745780 7.1774590
-6.9870819 5.0598446 4.8554317
-7.1988356 3.7500101 2.7305016
-7.2969679 2.2128874 0.4127207
-7.5161904 0.7915007 -1.8808216
-7.8252679 -0.5549613 -4.1720819
-10.7434040 0.3224253 -6.3278360
5.4908042 5.0216246 22.9252505
-5.2679718 14.1412795 22.9846254
-2.7766815 9.8627224 19.9670180
-3.9239167 10.0221676 18.8462800
-4.5082786 9.4634947 17.3883380
-4.8043255 8.5056780 15.7142694
-4.8071823 7.1190446 13.7886407
-4.7550479 5.6027262 11.7475461
-7.0176761 5.7399648 9.2914882
-7.1196506 4.3222773 7.2068836
-7.2313015 2.8580957 5.0465072
-7.3808839 1.3870674 2.8322754
-7.6419543 0.0223882 0.6350819
-8.4188561 -0.5895436 -1.1218825
-10.5172342 0.9073976 -1.5008844
-10.7015554 -0.6944288 -3.9370710
-9.5511177 -4.6403873 -8.0618242
3.1901961 6.7524916 25.9766402
3.4413244 5.2026272 24.1922083
2.2981017 5.2895273 22.9717369
-4.0537624 9.3050421 20.9274519
-4.7748133 8.9244574 19.5738838
-4.8117680 7.6216586 17.7838170
-4.7765583 6.1709542 15.8798277
-7.1495472 6.5320581 13.5888179
-7.0254925 4.8422230 11.4680955
-7.1358362 3.4252152 9.4390645
-7.2798248 1.9980050 7.3570063
-7.5086872 0.6382728 5.2661661
-7.7964608 -0.6900672 3.1485216
-10.7005690 0.2777432 1.0498696
-10.6101561 -1.7884335 -1.6148115
-10.3224741 -4.2945277 -4.6386480
9.6592757 -0.5021384 27.3754411
8.6197298 -0.6157423 26.0124640
0.3326894 6.7649010 25.8924443
0.6147208 5.1219169 24.0916913
-0.4754355 5.1645982 22.8721949
-1.4383644 5.0440882 21.5898594
-4.0199539 7.0528820 21.1758465
-4.8999632 6.8519159 19.8861455
-4.8037035 5.3067032 17.9949350
-6.9395346 6.8163288 17.4548942
-7.0575850 5.5135924 15.6275013
-7.0300780 3.9461871 13.6271119
-7.1220884 2.4906676 11.6320467
-7.3712033 1.2110917 9.6814190
-7.6224428 -0.1208902 7.6603484
-8.3856695 -0.7022928 6.0138779
-10.5136624 0.8975768 5.6000285
-10.6266268 -0.7637537 3.3135709
-10.4315595 -3.0262924 0.6077042
-10.6852063 -4.6202894 -1.7559535
7.8796785 -0.7270728 28.4667025
-2.4400148 6.7782855 25.8112432
-2.1485039 5.0628651 24.0009751
-3.1301757 4.9826920 22.7525323
-4.1070157 4.8928673 21.4976363
-7.1697519 6.2688088 19.6416996
-5.3688800 2.1978560 16.6425385
-6.7850407 2.6894973 15.6030887
-7.1392337 1.6082649 13.8330486
-7.4675570 0.4414910 11.9859898
-7.8678081 -0.6633119 10.1325349
-10.6705698 0.2525705 8.0036804
-10.6146173 -1.6972958 5.6239694
-10.5059024 -3.8301329 3.0765092
-10.6861826 -5.5594115 0.6971798
4.8044572 -0.6571578 28.3178712
-5.0167352 6.6376295 25.6792376
-7.0991365 6.7388355 23.3670750
-4.8080640 0.4750655 18.4511255
-6.4131831 1.2419842 17.5042073
-6.8608270 0.2841913 15.8194708
-7.5734765 -0.3035259 14.2735895
-8.4017306 -0.7337000 12.7835569
-10.4899294 0.8553766 12.2686573
-10.6810784 -0.6221788 10.2536191
-10.4242768 -2.9261248 7.7603551
-10.6069828 -4.5775905 5.5443231
-10.6860011 -6.4930257 3.1294664
-7.0303890 5.7943691 25.3052251
-7.2468562 4.6592650 23.7215666
-7.2499128 1.6050104 20.1378010
-7.2862979 0.0368332 18.2570453
-7.8901815 -0.7083052 16.6775402
-10.6382841 0.2222865 14.5553217
-10.6401479 -1.5759439 12.4452601
-10.6360085 -3.4671943 10.2331795
-10.6417271 -5.4302626 7.9253881
-10.7153385 -7.3662783 5.5699281
10.1490853 -6.4877050 34.3910376
9.5442592 -7.1774021 32.9024624
8.4059145 -7.2039890 31.5414757
-0.9611744 0.7833526 29.6402666
-2.6402269 0.1802149 26.9938669
-3.0904615 -0.6967204 25.4738776
-4.1353340 -0.7386924 24.2047392
-5.1817120 -0.7801530 22.9344201
-6.2826401 -0.7404352 21.6923045
-7.3425291 -0.7628322 20.4277893
-8.4250418 -0.7504152 19.1762702
-10.4774496 0.8315960 18.5692538
-10.6799845 -0.5755461 16.7381052
-10.6739040 -2.3983843 14.6798492
-10.5269789 -4.5483037 12.4156584
-10.6601507 -6.3034514 10.2712962
-10.6922075 -8.3261545 7.9419964
8.7288529 -7.1381432 35.3195401
7.5781698 -7.1271002 33.9864231
6.4512369 -7.1471978 32.6469723
-3.7337198 0.8406307 29.4869144
-3.6017133 -0.8558730 27.7835610
-4.7693107 -0.6977542 26.5917187
-5.8594457 -0.6501906 25.3693758
-6.7603731 -0.8915584 24.0518460
-7.9138728 -0.7468015 22.8618533
-10.6684192 0.2928174 20.7800289
-10.7001383 -1.4016631 18.8874871
-10.4337490 -3.6810001 16.7030304
-10.6006906 -5.3073633 14.7269951
-10.6668760 -7.1898879 12.5882517
6.9196456 -7.2431641 36.3269956
5.7473031 -7.1834818 35.0196879
4.6056332 -7.1635703 33.7061577
3.4648635 -7.1442689 32.3930347
-0.1362246 -6.8204832 28.5259812
-6.3987553 0.8559342 29.3269182
-6.1949557 -1.0135548 27.5872133
-7.4373979 -0.7115426 26.4543481
-8.4454804 -0.7687222 25.2154167
-10.4561830 0.7937965 24.5180980
-10.6498454 -0.5796486 22.8385864
-10.4185298 -2.7303487 20.8335223
-10.5364941 -4.3739333 18.9566897
-10.6001274 -6.1882016 16.9627835
-10.6961707 -8.0284102 14.9035454
4.6548844 -6.6675465 37.4167728
3.9381098 -7.2024495 36.0322285
2.7938303 -7.1571092 34.7409945
1.7225164 -7.2143475 33.4302125
0.5852603 -7.1779107 32.1380886
-8.8725849 0.6863789 29.1202019
-9.9637731 0.8129903 27.9740897
-10.6426739 0.2707983 26.6263671
-10.7046161 -3.0944349 23.1145681
-10.6047941 -5.1169383 21.1641786
-10.6273280 -7.0129765 19.2000167
1.6893333 -6.5299833 37.1299258
1.0611652 -7.1941543 35.7401265
-0.0525593 -7.1694900 34.4626838
-1.0630989 -7.2984081 33.1542586
-2.2113949 -7.2222130 31.8872694
-3.3045272 -7.2289040 30.6029472
-4.4560063 -7.1434101 29.3414156
-5.5368665 -7.1687908 28.0529905
-6.6258550 -7.1818794 26.7671972
-10.4956704 -4.2954197 25.0929605
-10.5199251 -6.1209660 23.2627345
-10.6146953 -7.9019950 21.3940258
-1.0134298 -6.6563400 36.8085337
-1.7046434 -7.2378143 35.4465205
-2.8248423 -7.1804481 34.1919020
-3.8275820 -7.3054463 32.9007828
-4.9645124 -7.2204973 31.6528937
-6.0329937 -7.2440656 30.3815949
-7.1056159 -7.2617784 29.1110363
-8.1924965 -7.2560342 27.8461661
-10.1492303 -5.7367640 27.0069483
-10.6112372 -6.8084640 25.4456642
-3.3478298 -7.2546468 36.4144211
-4.4518511 -7.1990741 35.1752236
-5.4980083 -7.2350106 33.9194850
-6.5532806 -7.2574256 32.6655301
-7.5983191 -7.2980794 31.4067599
-8.6726880 -7.2900750 30.1584656
-10.2167592 -6.4566708 29.1204067
-10.5938134 -7.6818754 27.5527974
-6.0348521 -7.2213330 36.1327599
-7.0845358 -7.2299063 34.8984060
-8.1211602 -7.2611207 33.6592206
-9.1581151 -7.2931453 32.4189299
-10.5845931 -6.6357819 31.3352281
-10.5928871 -8.5199078 29.6534133
-7.9307883 -6.6495762 37.1621450
-8.6367290 -7.2138936 35.8541120
-10.0359210 -6.5865722 34.7559663
-10.6340567 -7.3667187 33.3891679
0
0
0
0
0
0
0
0
0
0
0
0
0
0
0
0
0
0
0
0
0
0
0
0
0
0
0
0
0
0
0
0
0
0
0
0
0
0
0
0
0
0
0
0
0
0
0
0
0
0
0
0
0
0
0
0
0
0
0
0
0
0
0
0
0
0
0
0
0
0
0
0
0
0
0
0
0
0
0
0
0
0
0
0
0
0
0
0
0
0
0
0
0
0
0
0
0
0
0
0
0
0
0
0
0
0
0
0
0
0
0
0
0
0
0
0
0
0
0
0
0
0
0
0
0
0
0
0
0
0
0
0
0
0
0
0
0
0
0
0
0
0
0
0
0
0
0
0
0
0
0
0
0
0
0
0
0
0
0
0
0
0
0
0
0
0
0
0
0
0
0
0
0
0
0
0
0
0
0
0
0
0
0
0
0
0
0
0
0
0
0
0
0
0
0
0
0
0
0
0
0
0
0
0
0
0
0
0
0
0
0
0
0
0
0
0
0
0
0
0
0
0
0
0
0
0
0
0
0
0
0
0
0
0
0
0
0
0
0
0
0
0
0
0
0
0
0
0
0
0
0
0
0
0
0
0
0
0
0
0
0
0
0
0
0
0
0
0
0
0
0
0
0
0
0
0
0
0
0
0
0
0
0
0
0
0
0
0
0
0
0
0
0
0
0
0
0
0
0
0
0
0
0
0
0
0
0
0
0
0
0
0
0
0
0
0
0
0
0
0
0
0
0
0
0
0
0
0
0
0
0
0
0
0
0
0
0
0
0
0
0
0
0
0
0
0
0
0
0
0
0
0
0
0
0
0
0
0
0
0
0
0
0
0
0
0
0
0
0
0
0
0
0
0
0
0
0
0
0
0
0
0
0
0
0
0
0
0
0
0
0
0
0
0
0
0
0
0
0
0
0
0
0
0
0
0
0
0
0
0
0
0
0
0
0
0
0
0
0
0
0
0
0
0
0
0
0
0
0
0
0
0
0
0
0
0
0
0
0
0
0
0
0
0
0
0
0
0
0
0
0
0
0
0
0
0
0
0
0
0
0
0
0
0
0
0
0
0
0
0
0
0
0
0
0
0
0
0
0
0
0
0
0
0
0
0
0
0
0
0
0
0
0
0
0
0
0
0
0
0
0
0
0
0
0
0
0
0
0
0
0
0
0
0
0
0
0
0
0
0
0
0
0
0
0
0
0
0
0
0
0
0
0
0
0
0
0
0
0
0
0
0
0
0
0
0
0
0
0
0
0
0
0
0
0
0
0
0
0
0
0
0
0
0
0
0
0
0
0
0
0
0
0
0
0
0
0
0
0
0
0
0
0
0
0
0
0
0
0
0
0
0
0
0
0
0
0
0
0
0
0
0
0
0
0
0
0
0
0
0
0
0
0
0
0
0
0
0
0
0
0
0
0
0
0
0
0
0
0
0
0
0
0
0
0
0
0
0
0
0
0
0
0
0
0
0
0
0
0
0
0
0
0
0
0
0
0
0
0
0
0
0
0
0
0
0
0
0
0
0
0
0
0
0
0
0
0
0
0
0
0
0
0
0
0
0
0
0
0
0
0
0
0
0
0
0
0
0
0
0
0
0
0
0
0
0
0
0
0
0
0
0
0
0
0
0
0
0
0
0
0
0
0
0
0
0
0
0
0
0
0
0
0
0
0
0
0
0
0
0
0
0
0
0
0
0
0
0
0
0
0
0
0
0
0
0
0
0
0
0
0
0
0
0
0
0
0
0
0
0
0
0
0
0
0
0
0
0
0
0
0
0
0
0
0
0
0
0
0
0
0
0
0
0
0
0
0
0
0
0
0
0
0
0
0
0
0
0
0
0
0
0
0
0
0
0
0
0
0
0
0
0
0
0
0
0
0
0
0
0
0
0
0
0
0
0
0
0
0
0
0
0
0
0
0
0
0
0
0
0
0
0
0
0
0
0
0
0
0
0
0
0
0
0
0
0
0
0
0
0
0
0
0
0
0
0
0
0
0
0
0
0
1 0
1 1
1 2
1 3
1 4
0
0
0
0
0
0
0
0
0
0
0
0
0
0
0
0
0
0
0
0
0
0
0
0
0
0
0
0
0
0
0
0
0
0
0
0
0
0
0
0
0
1 5
1 6
1 7
1 8
1 9
1 10
1 11
1 12
1 13
1 14
0
0
0
0
0
0
0
0
0
0
0
0
0
0
0
0
0
0
0
0
0
0
0
0
0
0
0
0
0
0
0
0
0
0
0
0
0
0
1 15
1 16
1 17
1 18
1 19
1 20
1 21
1 22
1 23
1 24
1 25
0
0
0
0
0
0
0
0
0
0
0
0
0
0
0
0
0
0
0
0
0
0
0
0
0
0
0
0
0
0
0
0
0
0
0
0
0
1 26
1 27
1 28
1 29
1 30
1 31
1 32
1 33
1 34
1 35
1 36
1 37
1 38
0
0
0
0
0
0
0
0
0
0
0
0
0
0
0
0
0
0
0
0
0
0
0
0
0
0
0
0
0
0
0
0
0
0
0
0
1 39
1 40
1 41
1 42
1 43
1 44
1 45
1 46
1 47
1 48
1 49
1 50
0
0
0
0
0
0
0
0
0
0
0
0
0
0
0
0
0
0
0
0
0
0
0
0
0
0
0
0
0
0
0
0
0
0
1 51
1 52
1 53
1 54
1 55
1 56
1 57
1 58
1 59
1 60
1 61
1 62
1 63
1 64
1 65
1 66
1 67
0
0
0
0
0
0
0
0
0
0
0
0
0
0
0
0
0
0
0
0
0
0
0
0
0
0
0
0
0
0
1 68
1 69
1 70
1 71
1 72
1 73
1 74
1 75
1 76
1 77
1 78
1 79
1 80
1 81
1 82
1 83
1 84
1 85
1 86
0
0
0
0
0
0
0
0
0
0
0
0
0
0
0
0
0
0
0
0
0
0
0
0
0
0
0
1 87
1 88
0
1 89
0
1 90
0
1 91
1 92
1 93
1 94
1 95
1 96
1 97
1 98
1 99
1 100
1 101
1 102
1 103
1 104
1 105
0
0
0
0
0
0
0
0
0
0
0
0
0
0
0
0
0
0
0
0
0
0
0
0
0
0
0
0
0
0
1 106
1 107
1 108
0
0
1 109
1 110
1 111
1 112
1 113
1 114
1 115
1 116
1 117
1 118
1 119
1 120
1 121
1 122
0
0
0
0
0
0
0
0
0
0
0
0
0
0
0
0
0
0
0
0
0
0
0
0
0
0
0
0
0
0
0
0
1 123
1 124
0
1 125
1 126
1 127
1 128
1 129
0
1 130
1 131
1 132
1 133
1 134
1 135
0
1 136
0
0
0
0
0
0
0
0
0
0
0
0
0
0
0
0
0
0
0
0
0
0
0
0
0
0
0
0
0
0
1 137
0
0
1 138
1 139
1 140
1 141
1 142
1 143
1 144
0
1 145
1 146
1 147
1 148
1 149
1 150
1 151
1 152
1 153
0
0
0
0
0
0
0
0
0
0
0
0
0
0
0
0
0
0
0
0
0
0
0
0
0
0
0
0
0
1 154
1 155
1 156
0
0
1 157
1 158
1 159
1 160
0
1 161
1 162
1 163
1 164
1 165
1 166
0
1 167
1 168
1 169
0
0
0
0
0
0
0
0
0
0
0
0
0
0
0
0
0
0
0
0
0
0
0
0
0
0
0
0
1 170
1 171
0
1 172
1 173
1 174
1 175
1 176
1 177
1 178
1 179
1 180
1 181
1 182
1 183
1 184
1 185
1 186
1 187
1 188
1 189
0
0
0
0
0
0
0
0
0
0
0
0
0
0
0
0
0
0
0
0
0
0
0
0
0
0
0
0
0
1 190
0
0
0
1 191
1 192
1 193
1 194
0
1 195
1 196
1 197
1 198
1 199
1 200
0
1 201
1 202
1 203
1 204
0
0
0
0
0
0
0
0
0
0
0
0
0
0
0
0
0
0
0
0
0
0
0
0
0
0
0
0
0
0
0
1 205
0
0
0
1 206
0
1 207
0
1 208
1 209
1 210
1 211
1 212
1 213
1 214
1 215
1 216
1 217
0
0
0
0
0
0
0
0
0
0
0
0
0
0
0
0
0
0
0
0
0
0
0
0
0
0
0
0
0
0
0
0
0
0
0
0
0
1 218
1 219
0
1 220
1 221
1 222
0
1 223
1 224
1 225
1 226
1 227
0
0
0
0
0
0
0
0
0
0
0
0
0
0
0
0
0
0
0
0
0
0
0
0
0
0
0
0
0
1 228
1 229
1 230
0
0
1 231
0
1 232
1 233
1 234
1 235
1 236
1 237
1 238
1 239
1 240
1 241
1 242
1 243
1 244
0
0
0
0
0
0
0
0
0
0
0
0
0
0
0
0
0
0
0
0
0
0
0
0
0
0
0
0
0
0
1 245
1 246
1 247
0
0
0
1 248
1 249
1 250
1 251
1 252
1 253
0
1 254
1 255
1 256
1 257
1 258
0
0
0
0
0
0
0
0
0
0
0
0
0
0
0
0
0
0
0
0
0
0
0
0
0
0
0
0
0
0
0
0
1 259
1 260
1 261
1 262
0
0
1 263
1 264
1 265
1 266
1 267
1 268
1 269
1 270
1 271
1 272
1 273
0
0
0
0
0
0
0
0
0
0
0
0
0
0
0
0
0
0
0
0
0
0
0
0
0
0
0
0
0
0
0
0
0
1 274
1 275
1 276
1 277
1 278
0
0
0
1 279
1 280
1 281
0
1 282
1 283
1 284
0
0
0
0
0
0
0
0
0
0
0
0
0
0
0
0
0
0
0
0
0
0
0
0
0
0
0
0
0
0
0
0
0
0
0
0
1 285
1 286
1 287
1 288
1 289
1 290
1 291
1 292
1 293
0
1 294
1 295
1 296
0
0
0
0
0
0
0
0
0
0
0
0
0
0
0
0
0
0
0
0
0
0
0
0
0
0
0
0
0
0
0
0
0
0
0
0
0
0
1 297
1 298
1 299
1 300
1 301
1 302
1 303
1 304
1 305
1 306
0
0
0
0
0
0
0
0
0
0
0
0
0
0
0
0
0
0
0
0
0
0
0
0
0
0
0
0
0
0
0
0
0
0
0
0
0
0
0
0
0
1 307
1 308
1 309
1 310
1 311
1 312
1 313
1 314
0
0
0
0
0
0
0
0
0
0
0
0
0
0
0
0
0
0
0
0
0
0
0
0
0
0
0
0
0
0
0
0
0
0
0
0
0
0
0
0
0
0
0
1 315
1 316
1 317
1 318
1 319
1 320
0
0
0
0
0
0
0
0
0
0
0
0
0
0
0
0
0
0
0
0
0
0
0
0
0
0
0
0
0
0
0
0
0
0
0
0
0
0
0
0
0
0
0
0
1 321
1 322
1 323
1 324
0
0
0
0
0
0
0
0
0
0
0
0
0
0
0
0
0
0
0
0
0
0
0
0
0
0
0
0
0
0
0
0
0
0
0
0
0
0
0
0
0
0
0
0
0
0
0
0
0
0
0
0
0
0
0
0
0
0
0
0
0
0
0
0
0
0
0
0
0
0
0
0
0
0
0
0
0
0
0
0
0
0
0
0
0
0
0
0
0
0
0
0
0
0
0
0
0
0
0
0
0
0
0
0
0
0
0
0
0
0
0
0
0
0
0
0
0
0
0
0
0
0
0
0
0
0
0
0
0
0
0
0
0
0
0
0
0
0
0
0
0
0
0
0
0
0
0
0
0
0
0
0
0
0
0
0
0
0
0
0
0
0
0
0
0
0
0
0
0
0
0
0
0
0
0
0
0
0
0
0
0
0
0
0
0
0
0
0
0
0
0
0
0
0
0
0
0
0
0
0
0
0
0
0
0
0
0
0
0
0
0
0
0
0
0
0
0
0
0
0
0
0
0
0
0
0
0
0
0
0
0
0
0
0
0
0
0
0
0
0
0
0
0
0
0
0
0
0
0
0
0
0
0
0
0
0
0
0
0
0
0
0
0
0
0
0
0
0
0
0
0
0
0
0
0
0
0
0
0
0
0
0
0
0
0
0
0
0
0
0
0
0
0
0
0
0
0
0
0
0
0
0
0
0
0
0
0
0
0
0
0
0
0
0
0
0
0
0
0
0
0
0
0
0
0
0
0
0
0
0
0
0
0
0
0
0
0
0
0
0
0
0
0
0
0
0
0
0
0
0
0
0
0
0
0
0
0
0
0
0
0
0
0
0
0
0
0
0
0
0
0
0
0
0
0
0
0
0
0
0
0
0
0
0
0
0
0
0
0
0
0
0
0
0
0
0
0
0
0
0
0
0
0
0
0
0
0
0
0
0
0
0
0
0
0
0
0
0
0
0
0
0
0
0
0
0
0
0
0
0
0
0
0
0
0
0
