ply
format ascii 1.0
obj_info num_cols 50
obj_info num_rows 50
element vertex 319
property float x
property float y
property float z
element range_grid 2500
property list uchar int vertex_indices
end_header
0.9222354 1.1664092 -34.9362491
-1.1620551 1.1835390 -35.5832392
2.2666230 0.6151374 -31.7716258
0.4240856 -0.2971102 -33.4329921
-1.8835871 0.7314297 -32.9650918
5.2956870 1.1965985 -26.8367802
3.5857394 0.0815921 -28.6523536
1.6706017 -0.4274806 -29.8449190
-0.3776255 -0.4620621 -30.5407789
-2.5137523 -0.0824415 -30.7939802
6.4478513 1.0332261 -23.4599696
4.8415572 -0.3026154 -25.4452244
2.8695877 -0.4975865 -26.2920773
0.8340786 -0.4685417 -26.9127498
-1.1906398 -0.4811371 -27.5757919
-3.2347488 -0.3986552 -28.1404086
-5.5347870 1.1472128 -27.1764738
7.5376840 0.9779550 -20.0666595
5.9969559 -0.4305484 -22.0615505
4.0186354 -0.5023278 -22.7724917
2.0261696 -0.5309450 -23.4419798
0.0191554 -0.5024890 -24.0553217
-1.9813090 -0.4978009 -24.6918879
-3.9744003 -0.5294560 -25.3648134
-6.2283611 0.9719481 -24.4879165
8.5696105 1.0096734 -16.6849843
7.0911439 -0.4532077 -18.6680522
5.1317160 -0.4931793 -19.3378301
3.1748211 -0.5482466 -20.0223649
1.2030440 -0.5524964 -20.6592610
-0.7821207 -0.4977857 -21.2396404
-2.7493987 -0.5175687 -21.8911140
-4.7211995 -0.5163524 -22.5223801
9.5419922 1.1278799 -13.3212185
8.1537637 -0.4691498 -15.3608191
6.2258423 -0.5232377 -16.0333994
4.2887484 -0.5525558 -16.6841972
2.2567155 -0.2233836 -17.0076071
0.3423159 -0.3238795 -17.7221739
-1.5540493 -0.5259265 -18.5323239
-3.4953406 -0.5432556 -19.1725008
-5.4378482 -0.5568409 -19.8093310
9.1285862 -0.3092591 -11.9918202
7.2838641 -0.5300425 -12.7971116
2.9427501 1.3043034 -12.4184424
1.0400161 1.3954787 -12.9410186
-0.7824781 1.1575893 -13.7556997
-2.5731018 0.7205685 -14.7525014
-4.2349563 -0.4963603 -16.4613207
-6.1364993 -0.5909296 -17.1629325
9.8494786 0.4884528 -8.1960137
8.2910058 -0.4674977 -9.5896507
3.7141652 2.3021056 -8.4705456
1.8288855 2.4971962 -8.8934054
0.0549570 2.2703799 -9.6748061
-1.7113658 1.9673998 -10.5249426
-3.4456788 1.4435881 -11.5711778
-5.0927486 0.3164942 -13.1531933
-6.8257242 -0.5688814 -14.5368916
9.3328579 -0.5913206 -6.6179954
3.9485435 4.9309910 -3.3548299
2.0624471 5.4050301 -3.5318909
0.3540920 5.2630301 -4.2087548
-1.2709763 4.7430091 -5.2005910
-2.7280497 3.3407518 -6.9359892
-4.2740621 2.0975287 -8.5561835
-5.8412204 0.6791518 -10.3414981
-7.4924028 -0.5733803 -12.0038744
9.8870595 0.6104003 -2.7084893
2.7963136 6.2514187 -0.0543605
1.0764806 6.3078819 -0.5573051
-0.5828947 6.1302457 -1.2454782
-2.2229340 5.8361262 -2.0292684
-3.8016351 5.1876426 -3.1031368
-5.1093256 2.9415738 -5.4865418
-6.5485265 0.9344236 -7.7033231
-8.1423359 -0.5734347 -9.5332868
-10.1687347 0.8936719 -8.9015327
2.7376618 9.5910978 5.1623185
1.1357582 9.5436348 4.6076679
-0.4823787 9.5518757 4.0948822
-1.4547640 6.8639217 1.5107870
-3.0064502 6.3241657 0.5561982
-4.5517783 5.6433334 -0.5155810
-5.9133226 3.7801367 -2.5276201
-7.1755091 0.8144937 -5.4394931
-8.7769031 -0.5632542 -7.1182888
-10.7463528 0.7089797 -6.6756360
3.5340307 9.8680223 7.9014702
1.8870168 10.0667138 7.5346486
0.3056012 10.0532933 7.0156290
-1.2454094 9.9172461 6.4062047
-2.7889583 9.7260191 5.7541018
-3.7682900 6.8277214 3.0718787
-5.1008544 5.1718140 1.2910722
-6.6264896 4.2579027 0.0543693
-7.6931821 0.0694785 -3.7098139
6.9849925 6.8702844 8.8369212
2.6227345 10.5279959 10.3223451
1.0243640 10.6776438 9.9268638
-0.5055103 10.5895572 9.3657413
-1.9894527 10.2986793 8.6593087
-3.4572354 9.8846087 7.8608287
-4.4900603 7.2535392 5.4521679
-5.9229910 6.2355317 4.1881810
-7.2086249 4.0756757 2.0702287
-8.2232264 -0.5515191 -1.9081795
-10.1742747 0.8733223 -1.4104368
1.7057383 11.3069960 12.7421139
0.1884291 11.2915294 12.2426738
-1.2787915 11.0773715 11.6078387
-2.6913676 10.5956955 10.7865956
-4.0085333 9.5847464 9.5924703
-4.7716216 5.5465113 6.2682540
-7.3962316 1.4616756 2.3102331
-8.8280570 -0.5779510 0.2949382
-10.7216154 0.6212325 0.6006900
2.5132766 11.4074526 15.1237074
1.0731085 11.1938411 14.5034987
-2.1353285 11.9995714 14.0653580
-3.3389173 10.7421195 12.7526846
-4.5391792 9.2364989 11.2583699
-5.3022123 5.1071065 7.9728871
-7.1746749 6.5883748 8.4615490
-7.6861058 -0.6117289 2.9961756
-10.7401987 -4.2657582 -0.6757864
3.4595956 10.9957464 17.1312878
2.4676953 9.3083069 15.6132013
0.9384069 9.3320719 15.1384139
-0.5893539 9.3539227 14.6627571
-3.7949555 10.0943116 14.1582951
-4.7993458 7.5868768 12.0534607
-7.1777005 3.0886331 8.0921134
-8.2770330 -0.6787087 5.0613976
-10.1753739 0.8219938 5.5175476
3.0200533 10.2378995 18.4287783
1.8083177 9.2794164 17.3819139
0.3159149 9.2325795 16.8698975
-1.2041891 9.2901395 16.4205564
-4.2757296 9.5853505 15.6352843
-4.9041326 5.0840641 12.3467590
-6.7944298 6.8436045 12.9453962
-7.4427821 1.0561022 8.7685200
-8.8685818 -0.6424767 7.1453497
-10.6714348 0.3097724 7.2185599
4.0381219 13.9985358 23.1737295
2.6456539 13.9751808 22.7104423
1.2537455 13.9474257 22.2444253
-0.1802429 14.0671446 21.8623995
-1.5602172 13.9970874 21.3722462
-1.8267444 9.3159356 18.1908671
-3.5311949 10.2926890 18.2886153
-4.7414569 9.0349857 17.0676507
-7.0282090 4.8894899 13.5907622
-7.7784351 -0.5904455 9.7255790
-10.6396801 -4.8497560 5.9886573
1.9354888 9.4649411 21.4032244
-3.5632612 14.1553984 22.6245670
-3.9775388 9.6875527 19.6430853
-4.7775882 6.3418253 17.2528545
-7.1441902 2.1246147 13.8031439
-8.3368579 -0.7296776 11.5999054
-10.1773131 0.7815724 11.9712947
6.6218115 6.5630464 22.9883152
5.6024323 5.0433090 21.7268833
4.0258462 5.1991828 21.3154006
2.1593469 6.4052380 21.4557023
0.3410919 7.5947167 21.6013435
-1.1246754 7.5235688 21.0860697
-2.9435290 8.9959973 21.4053154
-4.3786875 8.8887969 20.8777446
-6.9342205 6.7867998 18.7644519
-7.3750799 -0.0452775 14.4261279
-8.9037226 -0.7218587 13.5187482
-10.6314333 0.0772233 13.4537250
6.4223976 5.0430390 23.9085992
4.8832881 5.1290776 23.4642441
3.3416608 5.2347463 23.0306903
1.8519830 5.1649461 22.5100617
0.3600028 5.0948374 21.9885099
-1.1459124 5.0732483 21.4911737
-2.8428025 5.9168488 21.4441502
-4.3238474 5.8424798 20.9235971
-6.5661340 1.3169212 17.5251952
-7.8502472 -0.6660600 15.9390566
-10.5986809 -4.9221526 12.5371796
5.3212937 6.3176962 26.1546462
3.7045585 6.7951477 25.9061482
2.6930103 5.2007812 24.6729500
1.2088018 5.1703797 24.1779869
-0.2946765 5.2136896 23.7187854
-1.7615545 5.1055174 23.1851256
-3.2309650 4.9917901 22.6474884
-4.6915833 4.8129947 22.0756381
-7.2635786 2.1531815 19.7337008
-8.3981614 -0.7387374 17.7222238
-10.1867960 0.8055587 18.0257478
9.9640718 -0.6063519 25.6627873
8.3920159 -0.6240907 25.1470697
2.1156693 4.9600809 26.1846035
0.3873616 5.9206756 26.1542991
-1.2623491 6.6954951 26.0475681
-2.3730006 5.1818784 24.8612659
-3.8236238 5.0608525 24.3280773
-5.2910334 5.0069628 23.8262475
-7.0640214 6.7290721 24.1985448
-7.3865810 -0.6015866 20.0806677
-8.9410793 -0.7628597 19.4920063
-10.6378920 0.2302066 19.4896198
9.2415288 -0.6666622 27.3110142
7.6916581 -0.7027713 26.7930711
6.0961705 -0.5922650 26.3376112
4.5507617 -0.6429853 25.8134141
-6.1038711 6.4551293 26.1194111
-6.3537743 -0.7500566 22.2466471
-7.9170698 -0.7390882 21.7491607
-10.5770986 -4.8412481 18.7337433
8.0354480 0.7844617 29.5283309
6.9746561 -0.6814809 28.4456729
5.4472867 -0.7393336 27.9246594
3.8910510 -0.7002608 27.4433532
1.9362983 0.8687671 27.6072146
-2.5686489 0.6434476 26.0428496
-3.8323664 -0.6909046 24.9613821
-5.3756078 -0.6941077 24.4628868
-6.8988490 -0.8233796 23.9070962
-8.4602015 -0.7136697 23.4598535
-10.1926720 0.8039799 23.6693083
4.5786093 -0.0794466 29.7979946
2.8447149 0.7186998 29.6269389
1.3241569 0.7847819 29.1693616
0.1409395 -0.5607154 28.1354731
-1.6257776 0.5352298 28.0983488
-2.8750431 -0.7295903 27.0823389
-4.4093638 -0.6949041 26.6050955
-5.9454197 -0.6423508 26.1359631
-7.4572585 -0.7361215 25.6036282
-8.9875814 -0.7161438 25.1205352
-10.6381926 0.3245832 25.0940052
10.5608919 -6.5329553 30.5021065
9.1391419 -7.1311072 29.7658756
7.5143272 -7.1140049 29.2505465
5.8908445 -7.0991649 28.7345937
-0.4918591 -0.4774053 29.7603344
-2.2448771 0.6715332 29.7304020
-3.7749527 0.8847382 29.3368385
-4.9562806 -0.7975063 28.1735691
-7.9813031 -0.7966393 27.1997346
-9.7035184 0.8203732 27.3975348
-10.6281846 -4.1355132 24.7935777
9.9877818 -7.0579855 31.9521914
8.4398951 -7.2325461 31.3757808
6.8351585 -7.2307861 30.8596740
5.2219891 -7.1975536 30.3548835
3.6020688 -7.1332939 29.8617525
1.9959822 -7.1172014 29.3516012
0.3848342 -7.0755712 28.8512061
-5.5327366 -0.6687899 29.8017022
-7.1978124 0.4158612 29.7489845
-8.6922747 0.5453966 29.3253682
9.2835103 -7.1436579 33.5283977
7.6906255 -7.1208048 33.0250090
6.1113339 -7.1429174 32.5068078
4.5357793 -7.1813354 31.9828513
2.9426732 -7.1541602 31.4812360
1.3640248 -7.1845261 30.9597195
-0.2126192 -7.2281688 30.4331821
-1.8004003 -7.2229140 29.9239265
-3.3989283 -7.1578126 29.4367515
-4.9857588 -7.1489123 28.9293581
-6.5620429 -7.2068877 28.3968194
-8.1397840 -7.2673011 27.8627708
9.9602862 -6.6012662 35.7709308
8.5701661 -7.1548469 35.0971149
6.9919804 -7.1259608 34.6004306
5.4365841 -7.1758530 34.0789367
3.8584422 -7.1439470 33.5834991
2.3005134 -7.1903559 33.0626109
0.7194672 -7.1411199 32.5733105
-0.8271575 -7.2469834 32.0317990
-2.3896851 -7.2882255 31.5115379
-3.9744959 -7.2114054 31.0322826
-5.5424329 -7.2225613 30.5225579
-7.1055718 -7.2683105 30.0002603
-8.6733195 -7.2890850 29.4866709
-10.3391057 -6.4499283 29.2924615
7.6803708 -6.5317807 36.8196222
6.3161614 -7.1610185 36.1347262
4.7672151 -7.1782918 35.6288753
3.2070872 -7.1530990 35.1359767
1.6623171 -7.1888676 34.6242612
0.1077915 -7.1851363 34.1248011
-1.4312940 -7.2557330 33.6013396
-2.9908602 -7.2291368 33.1091691
-4.5356166 -7.2828157 32.5904757
-6.0916713 -7.2745518 32.0922899
-7.6459038 -7.2765804 31.5906788
-9.1991309 -7.2863235 31.0863841
5.8832847 -8.0213111 37.4057532
3.9721075 -6.6492963 37.3001344
2.4009519 -6.4802045 36.8566882
1.0386181 -7.1939616 36.1521789
-0.4991646 -7.1948568 35.6562642
-2.0353310 -7.2034832 35.1579948
-3.5790617 -7.1715687 34.6723661
-5.1072002 -7.2264786 34.1594696
-6.6418190 -7.2492541 33.6564365
-8.1850266 -7.2128596 33.1726427
0.5719922 -7.8445447 37.4673355
-1.2035613 -6.6782909 37.3083509
-2.7266180 -6.6325033 36.8336806
-4.1385563 -7.2068974 36.1750466
-5.6590749 -7.2183590 35.6809065
-7.1859533 -7.1877472 35.1996265
-8.7064500 -7.1981654 34.7058633
-10.2960794 -6.6020909 34.4047452
-6.2861748 -6.6547431 37.3313294
-7.7976196 -6.5618268 36.8754457
-9.2854781 -6.6347373 36.3712530
0
0
0
0
0
0
0
0
0
0
0
0
0
0
0
0
0
0
0
0
0
0
0
0
0
0
0
0
0
0
0
0
0
0
0
0
0
0
0
0
0
0
0
0
0
0
0
0
0
0
0
0
0
0
0
0
0
0
0
0
0
0
0
0
0
0
0
0
0
0
0
0
0
0
0
0
0
0
0
0
0
0
0
0
0
0
0
0
0
0
0
0
0
0
0
0
0
0
0
0
0
0
0
0
0
0
0
0
0
0
0
0
0
0
0
0
0
0
0
0
0
0
0
0
0
0
0
0
0
0
0
0
0
0
0
0
0
0
0
0
0
0
0
0
0
0
0
0
0
0
0
0
0
0
0
0
0
0
0
0
0
0
0
0
0
0
0
0
0
0
0
0
0
0
0
0
0
0
0
0
0
0
0
0
0
0
0
0
0
0
0
0
0
0
0
0
0
0
0
0
0
0
0
0
0
0
0
0
0
0
0
0
0
0
0
0
0
0
0
0
0
0
0
0
0
0
0
0
0
0
0
0
0
0
0
0
0
0
0
0
0
0
0
0
0
0
0
0
0
0
0
0
0
0
0
0
0
0
0
0
0
0
0
0
0
0
0
0
0
0
0
0
0
0
0
0
0
0
0
0
0
0
0
0
0
0
0
0
0
0
0
0
0
0
0
0
0
0
0
0
0
0
0
0
0
0
0
0
0
0
0
0
0
0
0
0
0
0
0
0
0
0
0
0
0
0
0
0
0
0
0
0
0
0
0
0
0
0
0
0
0
0
0
0
0
0
0
0
0
0
0
0
0
0
0
0
0
0
0
0
0
0
0
0
0
0
0
0
0
0
0
0
0
0
0
0
0
0
0
0
0
0
0
0
0
0
0
0
0
0
0
0
0
0
0
0
0
0
0
0
0
0
0
0
0
0
0
0
0
0
0
0
0
0
0
0
0
0
0
0
0
0
0
0
0
0
0
0
0
0
0
0
0
0
0
0
0
0
0
0
0
0
0
0
0
0
0
0
0
0
0
0
0
0
0
0
0
0
0
0
0
0
0
0
0
0
0
0
0
0
0
0
0
0
0
0
0
0
0
0
0
0
0
0
0
0
0
0
0
0
0
0
0
0
0
0
0
0
0
0
0
0
0
0
0
0
0
0
0
0
0
0
0
0
0
0
0
0
0
0
0
0
0
0
0
0
0
0
0
0
0
0
0
0
0
0
0
0
0
0
0
0
0
0
0
0
0
0
0
0
0
0
0
0
0
0
0
0
0
0
0
0
0
0
0
0
0
0
0
0
0
0
0
0
0
0
0
0
0
0
0
0
0
0
0
0
0
0
0
0
0
0
0
0
0
0
0
0
0
0
0
0
0
0
0
0
0
0
0
0
0
0
0
0
0
0
0
0
0
0
0
0
0
0
0
0
0
0
0
1 0
1 1
0
0
0
0
0
0
0
0
0
0
0
0
0
0
0
0
0
0
0
0
0
0
0
0
0
0
0
0
0
0
0
0
0
0
0
0
0
0
0
0
0
0
0
0
0
0
0
1 2
1 3
1 4
0
0
0
0
0
0
0
0
0
0
0
0
0
0
0
0
0
0
0
0
0
0
0
0
0
0
0
0
0
0
0
0
0
0
0
0
0
0
0
0
0
0
0
0
0
1 5
1 6
1 7
1 8
1 9
0
0
0
0
0
0
0
0
0
0
0
0
0
0
0
0
0
0
0
0
0
0
0
0
0
0
0
0
0
0
0
0
0
0
0
0
0
0
0
0
0
0
0
0
1 10
1 11
1 12
1 13
1 14
1 15
1 16
0
0
0
0
0
0
0
0
0
0
0
0
0
0
0
0
0
0
0
0
0
0
0
0
0
0
0
0
0
0
0
0
0
0
0
0
0
0
0
0
0
0
1 17
1 18
1 19
1 20
1 21
1 22
1 23
1 24
0
0
0
0
0
0
0
0
0
0
0
0
0
0
0
0
0
0
0
0
0
0
0
0
0
0
0
0
0
0
0
0
0
0
0
0
0
0
0
0
0
1 25
1 26
1 27
1 28
1 29
1 30
1 31
1 32
0
0
0
0
0
0
0
0
0
0
0
0
0
0
0
0
0
0
0
0
0
0
0
0
0
0
0
0
0
0
0
0
0
0
0
0
0
0
0
0
0
1 33
1 34
1 35
1 36
1 37
1 38
1 39
1 40
1 41
0
0
0
0
0
0
0
0
0
0
0
0
0
0
0
0
0
0
0
0
0
0
0
0
0
0
0
0
0
0
0
0
0
0
0
0
0
0
0
0
0
1 42
1 43
0
1 44
1 45
1 46
1 47
1 48
1 49
0
0
0
0
0
0
0
0
0
0
0
0
0
0
0
0
0
0
0
0
0
0
0
0
0
0
0
0
0
0
0
0
0
0
0
0
0
0
0
0
1 50
1 51
0
1 52
1 53
1 54
1 55
1 56
1 57
1 58
0
0
0
0
0
0
0
0
0
0
0
0
0
0
0
0
0
0
0
0
0
0
0
0
0
0
0
0
0
0
0
0
0
0
0
0
0
0
0
0
1 59
0
1 60
1 61
1 62
1 63
1 64
1 65
1 66
1 67
0
0
0
0
0
0
0
0
0
0
0
0
0
0
0
0
0
0
0
0
0
0
0
0
0
0
0
0
0
0
0
0
0
0
0
0
0
0
0
1 68
0
0
1 69
1 70
1 71
1 72
1 73
1 74
1 75
1 76
1 77
0
0
0
0
0
0
0
0
0
0
0
0
0
0
0
0
0
0
0
0
0
0
0
0
0
0
0
0
0
0
0
0
0
0
0
0
0
0
0
0
1 78
1 79
1 80
1 81
1 82
1 83
1 84
1 85
1 86
1 87
0
0
0
0
0
0
0
0
0
0
0
0
0
0
0
0
0
0
0
0
0
0
0
0
0
0
0
0
0
0
0
0
0
0
0
0
0
0
0
1 88
1 89
1 90
1 91
1 92
1 93
1 94
1 95
1 96
0
0
0
0
0
0
0
0
0
0
0
0
0
0
0
0
0
0
0
0
0
0
0
0
0
0
0
0
0
0
0
0
0
0
0
0
0
0
0
1 97
0
1 98
1 99
1 100
1 101
1 102
1 103
1 104
1 105
1 106
1 107
0
0
0
0
0
0
0
0
0
0
0
0
0
0
0
0
0
0
0
0
0
0
0
0
0
0
0
0
0
0
0
0
0
0
0
0
0
0
0
0
1 108
1 109
1 110
1 111
1 112
1 113
0
1 114
1 115
1 116
0
0
0
0
0
0
0
0
0
0
0
0
0
0
0
0
0
0
0
0
0
0
0
0
0
0
0
0
0
0
0
0
0
0
0
0
0
0
0
1 117
1 118
0
1 119
1 120
1 121
1 122
1 123
1 124
0
1 125
0
0
0
0
0
0
0
0
0
0
0
0
0
0
0
0
0
0
0
0
0
0
0
0
0
0
0
0
0
0
0
0
0
0
0
0
0
0
1 126
1 127
1 128
1 129
0
1 130
1 131
0
1 132
1 133
1 134
0
0
0
0
0
0
0
0
0
0
0
0
0
0
0
0
0
0
0
0
0
0
0
0
0
0
0
0
0
0
0
0
0
0
0
0
0
0
0
1 135
1 136
1 137
1 138
0
1 139
1 140
1 141
1 142
1 143
1 144
0
0
0
0
0
0
0
0
0
0
0
0
0
0
0
0
0
0
0
0
0
0
0
0
0
0
0
0
0
0
0
0
0
0
0
0
0
1 145
1 146
1 147
1 148
1 149
1 150
1 151
1 152
0
1 153
1 154
0
1 155
0
0
0
0
0
0
0
0
0
0
0
0
0
0
0
0
0
0
0
0
0
0
0
0
0
0
0
0
0
0
0
0
0
0
0
0
0
0
0
1 156
0
0
1 157
1 158
1 159
0
1 160
1 161
1 162
0
0
0
0
0
0
0
0
0
0
0
0
0
0
0
0
0
0
0
0
0
0
0
0
0
0
0
0
0
0
0
0
0
0
0
0
0
1 163
1 164
1 165
1 166
1 167
1 168
1 169
1 170
0
1 171
1 172
1 173
1 174
0
0
0
0
0
0
0
0
0
0
0
0
0
0
0
0
0
0
0
0
0
0
0
0
0
0
0
0
0
0
0
0
0
0
0
0
0
1 175
1 176
1 177
1 178
1 179
1 180
1 181
1 182
0
1 183
1 184
0
1 185
0
0
0
0
0
0
0
0
0
0
0
0
0
0
0
0
0
0
0
0
0
0
0
0
0
0
0
0
0
0
0
0
0
0
0
0
0
1 186
1 187
1 188
1 189
1 190
1 191
1 192
1 193
0
1 194
1 195
1 196
0
0
0
0
0
0
0
0
0
0
0
0
0
0
0
0
0
0
0
0
0
0
0
0
0
0
0
0
0
0
0
0
0
0
0
0
1 197
1 198
0
0
1 199
1 200
1 201
1 202
1 203
1 204
1 205
1 206
1 207
1 208
0
0
0
0
0
0
0
0
0
0
0
0
0
0
0
0
0
0
0
0
0
0
0
0
0
0
0
0
0
0
0
0
0
0
0
0
1 209
1 210
1 211
1 212
0
0
0
0
0
1 213
1 214
1 215
0
1 216
0
0
0
0
0
0
0
0
0
0
0
0
0
0
0
0
0
0
0
0
0
0
0
0
0
0
0
0
0
0
0
0
0
0
0
0
1 217
1 218
1 219
1 220
1 221
0
0
1 222
1 223
1 224
1 225
1 226
1 227
0
0
0
0
0
0
0
0
0
0
0
0
0
0
0
0
0
0
0
0
0
0
0
0
0
0
0
0
0
0
0
0
0
0
0
0
0
0
0
1 228
1 229
1 230
1 231
1 232
1 233
1 234
1 235
1 236
1 237
1 238
0
0
0
0
0
0
0
0
0
0
0
0
0
0
0
0
0
0
0
0
0
0
0
0
0
0
0
0
0
0
0
0
0
0
0
0
1 239
1 240
1 241
1 242
0
0
1 243
1 244
1 245
1 246
0
1 247
1 248
1 249
0
0
0
0
0
0
0
0
0
0
0
0
0
0
0
0
0
0
0
0
0
0
0
0
0
0
0
0
0
0
0
0
0
0
0
0
1 250
1 251
1 252
1 253
1 254
1 255
1 256
0
0
1 257
1 258
1 259
0
0
0
0
0
0
0
0
0
0
0
0
0
0
0
0
0
0
0
0
0
0
0
0
0
0
0
0
0
0
0
0
0
0
0
0
0
0
1 260
1 261
1 262
1 263
1 264
1 265
1 266
1 267
1 268
1 269
1 270
1 271
0
0
0
0
0
0
0
0
0
0
0
0
0
0
0
0
0
0
0
0
0
0
0
0
0
0
0
0
0
0
0
0
0
0
0
0
0
1 272
1 273
1 274
1 275
1 276
1 277
1 278
1 279
1 280
1 281
1 282
1 283
1 284
1 285
0
0
0
0
0
0
0
0
0
0
0
0
0
0
0
0
0
0
0
0
0
0
0
0
0
0
0
0
0
0
0
0
0
0
0
0
0
1 286
1 287
1 288
1 289
1 290
1 291
1 292
1 293
1 294
1 295
1 296
1 297
0
0
0
0
0
0
0
0
0
0
0
0
0
0
0
0
0
0
0
0
0
0
0
0
0
0
0
0
0
0
0
0
0
0
0
0
0
0
0
1 298
1 299
1 300
1 301
1 302
1 303
1 304
1 305
1 306
1 307
0
0
0
0
0
0
0
0
0
0
0
0
0
0
0
0
0
0
0
0
0
0
0
0
0
0
0
0
0
0
0
0
0
0
0
0
0
0
0
0
0
0
0
1 308
1 309
1 310
1 311
1 312
1 313
1 314
1 315
0
0
0
0
0
0
0
0
0
0
0
0
0
0
0
0
0
0
0
0
0
0
0
0
0
0
0
0
0
0
0
0
0
0
0
0
0
0
0
0
0
0
0
0
0
0
1 316
1 317
1 318
0
0
0
0
0
0
0
0
0
0
0
0
0
0
0
0
0
0
0
0
0
0
0
0
0
0
0
0
0
0
0
0
0
0
0
0
0
0
0
0
0
0
0
0
0
0
0
0
0
0
0
0
0
0
0
0
0
0
0
0
0
0
0
0
0
0
0
0
0
0
0
0
0
0
0
0
0
0
0
0
0
0
0
0
0
0
0
0
0
0
0
0
0
0
0
0
0
0
0
0
0
0
0
0
0
0
0
0
0
0
0
0
0
0
0
0
0
0
0
0
0
0
0
0
0
0
0
0
0
0
0
0
0
0
0
0
0
0
0
0
0
0
0
0
0
0
0
0
0
0
0
0
0
0
0
0
0
0
0
0
0
0
0
0
0
0
0
0
0
0
0
0
0
0
0
0
