ply
format ascii 1.0
obj_info num_cols 50
obj_info num_rows 50
element vertex 257
property float x
property float y
property float z
element range_grid 2500
property list uchar int vertex_indices
end_header
2.7100700 13.9135612 21.8354198
-3.5284619 13.9760074 22.3962212
-1.9416055 13.8681363 21.4485851
-0.2218970 13.5537819 20.7343570
1.7914184 12.8027846 20.5047786
1.3855803 10.8724943 20.0839710
3.8206657 9.5085081 20.4572929
-2.4883975 6.5228944 25.6321978
-1.1074872 9.7795170 19.8271619
0.7907037 9.2105704 19.3316853
2.2066024 11.9191125 14.3149427
-4.9802892 5.2090294 25.5546387
-4.2665298 9.9632812 18.2257997
-3.5019084 11.3411687 15.7079664
-2.2821082 11.8294753 14.1458112
-0.7577812 11.7734972 13.1500059
1.0766805 11.2187870 12.6511988
2.8821162 10.7463440 12.0547858
-7.0517674 6.4404495 21.6457537
-4.0412665 9.6426130 15.0704613
-3.1771061 10.8068843 12.8425179
-1.7523286 10.9149641 11.6859694
-0.1931490 10.7907035 10.7572811
1.4646738 10.5151609 9.9690951
3.3394484 9.9167942 9.4761709
6.8783729 6.8203520 11.2783985
-8.7347435 -0.3654183 28.4983063
-6.9998317 6.6054248 17.8993964
-3.9289319 9.5305562 11.7961340
-2.8621903 10.2894928 10.0218222
-1.3952207 10.3006405 8.9701334
0.1516959 10.1774524 8.0425716
1.7729753 9.9420927 7.2132817
3.4745544 9.5958022 6.4764000
6.8081857 6.7796682 7.9070577
-10.5724127 0.6361757 24.8223891
-8.2616678 -0.9778781 25.2889216
-6.9324512 6.7282653 14.3214650
-4.7036917 8.2936182 10.7087429
-3.9063508 9.5831820 8.4669476
-2.6261954 9.9132734 7.1323073
-1.0799726 9.7589940 6.2398397
0.4995702 9.5596289 5.3824819
1.9904838 9.5179727 4.3825679
6.3242656 4.9964676 7.2020916
6.8759569 6.5325053 4.8132522
-10.3767004 0.7293188 21.0516929
-8.1003213 -0.8581162 21.4405134
-6.8158431 6.7392522 10.9647251
-4.8702708 8.7571317 7.0474449
-3.7265049 9.3396286 5.5048724
-2.3415599 9.4485201 4.3881026
-0.8534055 9.3714091 3.4325563
1.8095296 7.3241393 4.1270057
3.5118430 6.9713900 3.3670791
5.8903192 5.5731448 3.4454381
10.4703816 0.8850565 6.1093298
-10.1541058 0.7370381 17.4812370
-7.9010166 -0.8447519 17.8143526
-6.6428028 6.6248583 7.8215689
-3.9956726 7.2052619 5.2410088
-2.5235871 7.1893492 4.2186536
-1.0642910 7.1982885 3.1750645
0.5337861 6.9661320 2.3270617
2.1833613 6.6629239 1.5291980
3.9786183 6.1417371 0.8938667
6.2569830 4.8887332 0.8084404
10.3295582 0.9556564 2.7192192
-9.2946575 -0.8378765 15.4292291
-7.7581201 -0.7134681 14.1947111
-6.4736670 6.5118785 4.7657506
-4.8672281 6.2064543 3.9885719
-3.6463697 6.6667241 2.5815223
-2.1780638 6.6355906 1.5787140
-0.6716691 6.5388691 0.6262766
0.9420148 6.2626901 -0.1905153
2.6075845 5.9173179 -0.9624531
4.3904703 5.4023477 -1.6174698
9.6896832 -0.6487024 1.7657982
10.2680255 0.9089833 -0.4803616
-9.0831328 -0.8259585 12.0028268
-7.7030003 -0.3921506 10.5304199
-5.6686331 5.0760447 2.8512154
-4.6439256 5.9411406 1.1385141
-3.2556825 6.0464280 0.0351516
-1.8050097 6.0293023 -0.9727741
-0.2618903 5.8480382 -1.8589213
1.3385283 5.5795360 -2.6861270
3.0162240 5.1983028 -3.4394577
5.3298826 3.8021390 -3.4853475
9.6171803 -0.6402853 -1.4538080
10.1772254 0.9114413 -3.6207393
-8.8833438 -0.8010592 8.6667723
-6.7735000 4.6005101 1.2102743
-5.5269650 5.0111212 -0.1261426
-4.3050226 5.4417565 -1.4672343
-2.8851165 5.4629694 -2.4967260
-1.3957003 5.3545297 -3.4323754
0.1552183 5.1435122 -4.2983901
1.8677227 4.6657169 -4.9844620
3.8556170 3.7539818 -5.3867353
6.6384685 1.5978531 -4.9788760
9.5022717 -0.5614151 -4.6249103
10.1166733 0.8712804 -6.6414726
-8.7222059 -0.6977469 5.3675328
-7.5666390 0.1417728 3.6521769
-6.2845552 3.8301430 -1.1942289
-5.1550669 4.4660762 -2.6737550
-3.8418501 4.6927894 -3.8466392
-2.3901745 4.6392386 -4.8184639
-0.8325517 4.3936156 -5.6603352
0.8438981 3.9513573 -6.3765112
2.6920101 3.2390442 -6.9260624
4.7376824 2.2375449 -7.3069217
7.9799620 -0.6618617 -6.5098102
9.4886591 -0.6403333 -7.6022063
9.9789991 0.9540125 -9.6518639
-10.5802456 0.7053508 2.2527275
-8.5401770 -0.6596724 2.2155120
-6.9304755 2.4011323 -2.0862486
-5.8110403 3.0900128 -3.5913204
-4.6172861 3.5771667 -4.9408068
-3.2313552 3.6502647 -5.9990486
-1.7289600 3.4962313 -6.9053598
-0.1213213 3.1581395 -7.6962568
1.5893610 2.6574402 -8.3923283
3.3465087 2.1074492 -9.0704542
5.3293702 1.2104005 -9.5502930
7.9161952 -0.6227394 -9.4918788
9.3784446 -0.5628801 -10.5905692
9.8422053 1.0393408 -12.5737353
-10.4145384 0.8150943 -0.8259813
-8.3392252 -0.6804450 -0.8049466
-7.5061178 0.7923626 -2.8664189
-6.5172500 1.8095824 -4.5835100
-5.3488140 2.3711429 -5.9730369
-4.0396768 2.6053419 -7.1355250
-2.6113013 2.5884192 -8.1318694
-1.0817220 2.3799247 -9.0087334
0.4885888 2.1102374 -9.8533940
2.0619062 1.8526949 -10.7123133
3.7972323 1.3299227 -11.4213428
6.2671370 -0.4002831 -11.4459196
7.9051803 -0.6681465 -12.3404486
8.9605467 0.0075520 -13.7637266
-10.2106644 0.8146323 -3.7392867
-8.1701264 -0.6379554 -3.7851270
-7.2042605 0.4770637 -5.5468432
-6.1438943 1.3012850 -7.0949146
-4.9487619 1.7811515 -8.4062167
-3.5941999 1.9025028 -9.4845820
-2.1474357 1.8344334 -10.4455300
-0.6688536 1.7108167 -11.3754373
0.8856398 1.4554688 -12.2320540
2.4898032 1.1275579 -13.0538732
4.2801628 0.4963861 -13.7150865
6.3848889 -0.6278664 -14.1234148
7.8257709 -0.5997326 -15.1730528
8.4600160 0.7136248 -16.8908979
-9.4367939 -0.6028178 -5.6596288
-7.9988379 -0.6131214 -6.6707768
-6.8823882 0.1088719 -8.1369712
-5.8003606 0.8535108 -9.5998600
-4.5700314 1.2327649 -10.8270991
-3.2026309 1.3073250 -11.8673445
-1.7686406 1.2464885 -12.8285274
-0.2861100 1.0977716 -13.7421702
1.2715574 0.8203267 -14.5890400
2.9253258 0.3883523 -15.3599442
4.9005646 -0.5760278 -15.8622864
6.3690943 -0.6294383 -16.8549167
7.6941095 -0.4438083 -17.9687084
8.1948340 1.0480621 -19.7161564
-9.1943655 -0.7162616 -8.3951546
-7.7902464 -0.6877656 -9.4179309
-6.4808751 -0.4461827 -10.5655641
-5.4268561 0.3354193 -12.0187980
-4.1944475 0.6875113 -13.2114239
-2.8279303 0.7438406 -14.2325958
-1.3767683 0.6307853 -15.1611426
0.1269602 0.4255644 -16.0439128
1.7978151 -0.0745901 -16.7794228
3.5070187 -0.6127750 -17.5078732
4.9381924 -0.6360391 -18.5031898
6.3334667 -0.5967697 -19.5293998
7.1009845 0.4715567 -21.0377221
-9.6536765 0.8673297 -12.0467943
-7.6246805 -0.6719759 -12.1471104
-6.2401400 -0.6436931 -13.1552542
-4.9935114 -0.3169730 -14.3254183
-3.7691578 0.0346216 -15.5014290
-2.3743480 0.0177722 -16.4775503
-0.8771757 -0.1981473 -17.3529634
0.6955305 -0.5434180 -18.1693466
2.1863247 -0.7160895 -19.0779047
3.5327707 -0.6197776 -20.1182523
4.9130603 -0.5871636 -21.1271496
6.1869467 -0.3760885 -22.2159313
6.6844091 1.0996618 -23.8549121
-9.5171502 0.9790478 -14.7208357
-7.4658255 -0.6512117 -14.8067197
-6.0920193 -0.6407352 -15.7917301
-4.7102106 -0.6475820 -16.7678506
-3.3379224 -0.6333232 -17.7549647
-1.9561689 -0.6384555 -18.7324885
-0.5838637 -0.6240784 -19.7197143
0.7775141 -0.5891926 -20.7164319
2.1674985 -0.6084345 -21.6879323
3.5510720 -0.6144781 -22.6659825
4.8787386 -0.5224681 -23.6868114
5.5603710 0.6563392 -25.1630410
-9.1709246 0.5730316 -17.0526105
-7.3164693 -0.6186617 -17.4025530
-5.9539305 -0.6240076 -18.3667030
-4.5996013 -0.6105354 -19.3403065
-3.2362051 -0.6161825 -20.3048211
-1.8805356 -0.6051865 -21.2773654
-0.5172464 -0.6091234 -22.2431936
0.8400831 -0.6008845 -23.2146778
2.1973269 -0.5923565 -24.1863361
3.5340774 -0.5470989 -25.1732690
4.6625328 -0.1419938 -26.3045081
5.2954014 1.0790511 -27.7464038
-7.8627540 1.0105291 -20.6912049
-5.8195684 -0.6073809 -20.8751186
-4.4648264 -0.6327454 -21.8184731
-3.1374432 -0.5988230 -22.7888700
-1.8044991 -0.5776105 -23.7532534
-0.4605760 -0.5785037 -24.7081067
0.8738177 -0.5606798 -25.6708632
2.2354770 -0.5934127 -26.6133574
3.5282325 -0.5006366 -27.6052887
4.0427596 0.9392351 -29.1003308
-6.4048732 0.9987444 -24.0130959
-4.3642787 -0.5881215 -24.2636019
-3.0298666 -0.6054533 -25.1995611
-1.7272610 -0.5571125 -26.1625948
-0.4057989 -0.5478499 -27.1094683
0.9497725 -0.6030383 -28.0318293
2.2297944 -0.5156992 -29.0083120
3.0407066 0.4048409 -30.2816566
-6.1519967 0.7318627 -26.2355841
-4.9524798 0.9229459 -27.2284377
-2.9555647 -0.5485382 -27.5750761
-1.6416141 -0.5579351 -28.5030110
-0.3444976 -0.5334045 -29.4437333
0.9701703 -0.5428732 -30.3721261
1.9982193 -0.0251974 -31.4813722
2.6459320 1.1431875 -32.7949879
-3.6326261 1.0548212 -30.4450975
-1.5982619 -0.4782671 -30.8139373
-0.2882874 -0.5123967 -31.7221483
0.9441578 -0.3977020 -32.6799199
1.4547032 1.0350316 -34.0515146
-2.3130626 1.1121765 -33.5516875
-0.6089652 0.2365223 -34.1708483
0.4719516 0.5857700 -35.1771475
0
0
0
0
0
0
0
0
0
0
0
0
0
0
0
0
0
0
0
0
0
0
0
0
0
0
0
0
0
0
0
0
0
0
0
0
0
0
0
0
0
0
0
0
0
0
0
0
0
0
0
0
0
0
0
0
0
0
0
0
0
0
0
0
0
0
0
0
0
0
0
0
0
0
0
0
0
0
0
0
0
0
0
0
0
0
0
0
0
0
0
0
0
0
0
0
0
0
0
0
0
0
0
0
0
0
0
0
0
0
0
0
0
0
0
0
0
0
0
0
0
0
0
0
0
0
0
0
0
0
0
0
0
0
0
0
0
0
0
0
0
0
0
0
0
0
0
0
0
0
0
0
0
0
0
0
0
0
0
0
0
0
0
0
0
0
0
0
0
0
0
0
0
0
0
0
0
0
0
0
0
0
0
0
0
0
0
0
0
0
0
0
0
0
0
0
0
0
0
0
0
0
0
0
0
0
0
0
0
0
0
0
0
0
0
0
0
0
0
0
0
0
0
0
0
0
0
0
0
0
0
0
0
0
0
0
0
0
0
0
0
0
0
0
0
0
0
0
0
0
0
0
0
0
0
0
0
0
0
0
0
0
0
0
0
0
0
0
0
0
0
0
0
0
0
0
0
0
0
0
0
0
0
0
0
0
0
0
0
0
0
0
0
0
0
0
0
0
0
0
0
0
0
0
0
0
0
0
0
0
0
0
0
0
0
0
0
0
0
0
0
0
0
0
0
0
0
0
0
0
0
0
0
0
0
0
0
0
0
0
0
0
0
0
0
0
0
0
0
0
0
0
0
0
0
0
0
0
0
0
0
0
0
0
0
0
0
0
0
0
0
0
0
0
0
0
0
0
0
0
0
0
0
0
0
0
0
0
0
0
0
0
0
0
0
0
0
0
0
0
0
0
0
0
0
0
0
0
0
0
0
0
0
0
0
0
0
0
0
0
0
0
0
0
0
0
0
0
0
0
0
0
0
0
0
0
0
0
0
0
0
0
0
0
0
0
0
0
0
0
0
0
0
0
0
0
0
0
0
0
0
0
0
0
0
0
0
0
0
0
0
0
0
0
0
0
0
0
0
0
0
0
0
0
0
0
0
0
0
0
0
0
0
0
0
0
0
0
0
0
0
0
0
0
0
0
0
0
0
0
0
0
0
0
0
0
0
0
0
0
0
0
0
0
0
0
0
0
0
0
0
0
0
0
0
0
0
0
0
0
0
0
0
0
0
0
0
0
0
0
0
0
0
0
0
0
0
0
0
0
0
0
0
0
0
0
0
0
0
0
0
0
0
0
0
0
0
0
0
0
0
0
0
0
0
0
0
0
0
0
0
0
0
0
0
0
0
0
0
0
0
0
0
0
0
0
0
0
0
0
0
0
0
0
0
0
0
0
0
1 0
0
0
0
0
0
0
0
0
0
0
0
0
0
0
0
0
0
0
0
0
0
0
0
0
0
0
0
0
0
0
0
0
0
0
0
0
0
0
0
0
0
0
0
0
0
0
1 1
1 2
1 3
1 4
0
0
0
0
0
0
0
0
0
0
0
0
0
0
0
0
0
0
0
0
0
0
0
0
0
0
0
0
0
0
0
0
0
0
0
0
0
0
0
0
0
0
0
0
0
0
0
0
0
1 5
1 6
0
0
0
0
0
0
0
0
0
0
0
0
0
0
0
0
0
0
0
0
0
0
0
0
0
0
0
0
0
0
0
0
0
0
0
0
0
0
0
0
0
0
0
0
0
1 7
0
1 8
1 9
0
1 10
0
0
0
0
0
0
0
0
0
0
0
0
0
0
0
0
0
0
0
0
0
0
0
0
0
0
0
0
0
0
0
0
0
0
0
0
0
0
0
0
0
0
0
1 11
0
1 12
1 13
1 14
1 15
1 16
1 17
0
0
0
0
0
0
0
0
0
0
0
0
0
0
0
0
0
0
0
0
0
0
0
0
0
0
0
0
0
0
0
0
0
0
0
0
0
0
0
0
0
0
1 18
0
0
1 19
1 20
1 21
1 22
1 23
1 24
1 25
0
0
0
0
0
0
0
0
0
0
0
0
0
0
0
0
0
0
0
0
0
0
0
0
0
0
0
0
0
0
0
0
0
0
0
0
0
0
1 26
0
0
1 27
0
0
1 28
1 29
1 30
1 31
1 32
1 33
1 34
0
0
0
0
0
0
0
0
0
0
0
0
0
0
0
0
0
0
0
0
0
0
0
0
0
0
0
0
0
0
0
0
0
0
0
0
0
1 35
1 36
0
0
1 37
0
1 38
1 39
1 40
1 41
1 42
1 43
1 44
1 45
0
0
0
0
0
0
0
0
0
0
0
0
0
0
0
0
0
0
0
0
0
0
0
0
0
0
0
0
0
0
0
0
0
0
0
0
0
1 46
1 47
0
0
1 48
0
1 49
1 50
1 51
1 52
1 53
1 54
1 55
1 56
0
0
0
0
0
0
0
0
0
0
0
0
0
0
0
0
0
0
0
0
0
0
0
0
0
0
0
0
0
0
0
0
0
0
0
0
0
1 57
1 58
0
0
1 59
0
1 60
1 61
1 62
1 63
1 64
1 65
1 66
1 67
0
0
0
0
0
0
0
0
0
0
0
0
0
0
0
0
0
0
0
0
0
0
0
0
0
0
0
0
0
0
0
0
0
0
0
0
0
1 68
1 69
0
0
1 70
1 71
1 72
1 73
1 74
1 75
1 76
1 77
1 78
1 79
0
0
0
0
0
0
0
0
0
0
0
0
0
0
0
0
0
0
0
0
0
0
0
0
0
0
0
0
0
0
0
0
0
0
0
0
0
1 80
1 81
0
0
1 82
1 83
1 84
1 85
1 86
1 87
1 88
1 89
1 90
1 91
0
0
0
0
0
0
0
0
0
0
0
0
0
0
0
0
0
0
0
0
0
0
0
0
0
0
0
0
0
0
0
0
0
0
0
0
0
1 92
0
0
1 93
1 94
1 95
1 96
1 97
1 98
1 99
1 100
1 101
1 102
1 103
0
0
0
0
0
0
0
0
0
0
0
0
0
0
0
0
0
0
0
0
0
0
0
0
0
0
0
0
0
0
0
0
0
0
0
0
0
1 104
1 105
0
1 106
1 107
1 108
1 109
1 110
1 111
1 112
1 113
1 114
1 115
1 116
0
0
0
0
0
0
0
0
0
0
0
0
0
0
0
0
0
0
0
0
0
0
0
0
0
0
0
0
0
0
0
0
0
0
0
0
1 117
1 118
0
1 119
1 120
1 121
1 122
1 123
1 124
1 125
1 126
1 127
1 128
1 129
1 130
0
0
0
0
0
0
0
0
0
0
0
0
0
0
0
0
0
0
0
0
0
0
0
0
0
0
0
0
0
0
0
0
0
0
0
0
1 131
1 132
1 133
1 134
1 135
1 136
1 137
1 138
1 139
1 140
1 141
1 142
1 143
1 144
0
0
0
0
0
0
0
0
0
0
0
0
0
0
0
0
0
0
0
0
0
0
0
0
0
0
0
0
0
0
0
0
0
0
0
0
0
1 145
1 146
1 147
1 148
1 149
1 150
1 151
1 152
1 153
1 154
1 155
1 156
1 157
1 158
0
0
0
0
0
0
0
0
0
0
0
0
0
0
0
0
0
0
0
0
0
0
0
0
0
0
0
0
0
0
0
0
0
0
0
0
0
1 159
1 160
1 161
1 162
1 163
1 164
1 165
1 166
1 167
1 168
1 169
1 170
1 171
1 172
0
0
0
0
0
0
0
0
0
0
0
0
0
0
0
0
0
0
0
0
0
0
0
0
0
0
0
0
0
0
0
0
0
0
0
0
0
1 173
1 174
1 175
1 176
1 177
1 178
1 179
1 180
1 181
1 182
1 183
1 184
1 185
0
0
0
0
0
0
0
0
0
0
0
0
0
0
0
0
0
0
0
0
0
0
0
0
0
0
0
0
0
0
0
0
0
0
0
0
0
0
1 186
1 187
1 188
1 189
1 190
1 191
1 192
1 193
1 194
1 195
1 196
1 197
1 198
0
0
0
0
0
0
0
0
0
0
0
0
0
0
0
0
0
0
0
0
0
0
0
0
0
0
0
0
0
0
0
0
0
0
0
0
0
0
1 199
1 200
1 201
1 202
1 203
1 204
1 205
1 206
1 207
1 208
1 209
1 210
0
0
0
0
0
0
0
0
0
0
0
0
0
0
0
0
0
0
0
0
0
0
0
0
0
0
0
0
0
0
0
0
0
0
0
0
0
0
0
1 211
1 212
1 213
1 214
1 215
1 216
1 217
1 218
1 219
1 220
1 221
1 222
0
0
0
0
0
0
0
0
0
0
0
0
0
0
0
0
0
0
0
0
0
0
0
0
0
0
0
0
0
0
0
0
0
0
0
0
0
0
0
0
1 223
1 224
1 225
1 226
1 227
1 228
1 229
1 230
1 231
1 232
0
0
0
0
0
0
0
0
0
0
0
0
0
0
0
0
0
0
0
0
0
0
0
0
0
0
0
0
0
0
0
0
0
0
0
0
0
0
0
0
0
0
1 233
1 234
1 235
1 236
1 237
1 238
1 239
1 240
0
0
0
0
0
0
0
0
0
0
0
0
0
0
0
0
0
0
0
0
0
0
0
0
0
0
0
0
0
0
0
0
0
0
0
0
0
0
0
0
0
0
0
1 241
1 242
1 243
1 244
1 245
1 246
1 247
1 248
0
0
0
0
0
0
0
0
0
0
0
0
0
0
0
0
0
0
0
0
0
0
0
0
0
0
0
0
0
0
0
0
0
0
0
0
0
0
0
0
0
0
0
0
0
1 249
1 250
1 251
1 252
1 253
0
0
0
0
0
0
0
0
0
0
0
0
0
0
0
0
0
0
0
0
0
0
0
0
0
0
0
0
0
0
0
0
0
0
0
0
0
0
0
0
0
0
0
0
0
0
0
1 254
1 255
1 256
0
0
0
0
0
0
0
0
0
0
0
0
0
0
0
0
0
0
0
0
0
0
0
0
0
0
0
0
0
0
0
0
0
0
0
0
0
0
0
0
0
0
0
0
0
0
0
0
0
0
0
0
0
0
0
0
0
0
0
0
0
0
0
0
0
0
0
0
0
0
0
0
0
0
0
0
0
0
0
0
0
0
0
0
0
0
0
0
0
0
0
0
0
0
0
0
0
0
0
0
0
0
0
0
0
0
0
0
0
0
0
0
0
0
0
0
0
0
0
0
0
0
0
0
0
0
0
0
0
0
0
0
0
0
0
0
0
0
0
0
0
0
0
0
0
0
0
0
0
0
0
0
0
0
0
0
0
0
0
0
0
0
0
0
0
0
0
0
0
0
0
0
0
0
0
0
0
0
0
0
0
0
0
0
0
0
0
0
0
0
0
0
0
0
0
0
0
0
0
0
0
0
0
0
0
0
0
0
0
0
0
0
0
0
0
0
0
0
0
0
0
0
0
0
0
0
0
0
0
0
0
0
0
0
0
0
0
0
0
0
0
0
0
0
0
0
0
0
0
0
0
0
0
0
0
0
0
0
0
0
0
0
0
0
0
0
0
0
0
0
0
0
0
0
0
0
0
0
0
0
0
0
0
0
0
0
0
0
0
0
0
0
0
0
0
0
0
0
0
0
0
0
0
0
0
0
0
0
0
0
0
0
0
0
0
0
0
0
0
0
0
0
0
0
0
0
0
0
0
0
0
0
0
0
0
0
0
0
0
0
0
0
0
0
0
0
0
0
0
0
0
0
0
0
0
0
0
0
0
0
0
0
0
0
0
0
0
0
0
0
0
0
0
0
0
0
0
0
0
0
0
0
0
0
0
0
0
0
0
0
0
0
0
0
0
0
0
0
0
0
0
0
0
0
0
0
0
0
0
0
0
0
0
0
0
0
0
0
0
0
0
0
0
0
0
0
0
0
0
0
0
0
0
0
0
0
0
0
0
0
0
0
0
0
0
0
0
0
0
0
0
0
0
0
0
0
0
0
0
0
0
0
0
0
0
0
0
0
0
0
0
0
0
0
0
0
0
0
0
0
0
0
0
0
0
0
0
0
0
0
0
0
0
0
0
0
0
0
0
0
0
0
0
0
0
0
0
0
0
0
0
0
0
0
0
0
0
0
0
0
0
0
0
0
0
0
0
0
0
0
0
0
0
0
0
0
0
0
0
0
0
0
0
0
0
0
0
0
0
0
0
0
0
0
0
0
0
0
0
0
0
