ply
format ascii 1.0
obj_info num_cols 50
obj_info num_rows 50
element vertex 217
property float x
property float y
property float z
element range_grid 2500
property list uchar int vertex_indices
end_header
4.0082559 13.6112171 23.2042732
2.5655615 13.6029178 22.7369328
1.1519503 13.6025012 22.2057051
-0.3872546 13.5663277 21.9666728
-2.1149146 13.4711415 22.2170025
-3.7380827 13.4009947 22.2689799
1.4841020 12.1690580 21.4806529
-1.8167289 12.0530662 21.5021596
1.5796103 10.6616171 21.2895029
2.1011365 11.0578616 16.1451945
-1.7144482 10.5665505 21.2716507
3.2238845 9.1658201 21.3905743
-0.1899003 9.0734989 21.5705826
-1.7689461 9.0439676 21.4284694
-3.3874997 9.0055054 21.4229714
-4.6639438 9.0268345 20.5346857
-4.7331665 9.2821629 16.1375467
-4.0519933 9.7139487 9.0288201
3.1952600 7.6237222 21.4774533
1.4830208 7.5884309 21.5555834
-0.1383600 7.5617452 21.4723124
-1.6376910 7.5485727 21.1266063
-3.3841311 7.5027696 21.4353543
-4.6748872 7.5151100 20.5846475
-4.8461262 7.6875858 16.4815935
-4.8557352 7.9013602 11.4843809
5.9269484 5.9962827 26.1202983
4.2550380 5.9724353 26.1766230
2.6459062 5.9517416 26.1477182
1.0363140 5.9299739 26.1581152
-0.5421616 5.9093625 26.1412430
-2.1180624 5.8878227 26.1598087
-3.7231257 5.8626848 26.2964701
-5.2384940 5.8434473 26.2600321
-6.6104990 5.8355524 25.8765718
-7.2753973 5.8920120 23.4719571
-7.2291265 6.0224296 18.6947398
-7.0981436 6.1750665 13.1413670
-7.1815975 6.3219052 7.6960511
6.4117056 4.5674949 21.9239123
-7.2640579 4.4399665 23.4576894
-7.0711457 4.5610755 13.0722279
-7.1288270 4.6243803 7.5330222
6.5949623 3.0158822 21.5872424
4.1129404 2.9846815 15.7079781
3.1326822 2.9742462 13.8395701
-6.2560477 2.9568450 15.7835120
-7.0959381 2.9436871 13.1691684
-7.2448389 2.9215439 7.9444321
-7.2868777 2.8955456 1.7234402
4.2060120 1.4203091 19.4003827
4.1154499 1.3476599 15.7282375
3.0276357 1.3184235 14.1122410
-7.2449997 1.4382018 18.7965740
-7.2136547 1.3342617 13.5639439
-7.4554426 1.2379067 8.6775629
-7.4822743 1.1143060 2.4467398
-10.6413644 0.9188760 -7.8147695
7.2806097 0.1822260 29.7455965
5.6452304 0.1968095 29.7906532
4.0540970 0.2094696 29.7914829
2.4761092 0.2224261 29.8035862
0.9270561 0.2344207 29.7950933
-0.5789754 0.2441427 29.7322811
-2.1025056 0.2566302 29.7433501
-3.6273697 0.2707430 29.7998431
-5.1123052 0.2827408 29.8057568
-6.5843779 0.2950307 29.8227600
-7.9792259 0.3009087 29.6766418
-9.1990394 0.2886671 29.0599193
-10.2308273 0.2539755 27.8536807
-10.6857594 0.1457771 24.7085552
-10.7206971 -0.0283750 19.8019820
-10.7067966 -0.2296999 14.1419626
-10.6571949 -0.4614252 7.6347745
-10.6824435 -0.7124767 0.5672405
-10.5687991 -1.0226159 -8.1313761
9.0646035 -1.5955743 23.5544535
-1.9634116 -1.1468409 29.4524345
-3.5715450 -1.1133426 29.6895329
-5.0803170 -1.0903717 29.7470052
-6.5385336 -1.0722356 29.7232609
-7.9585552 -1.0577347 29.6384952
-9.1550036 -1.0771121 28.9507848
-10.1724779 -1.1280821 27.6931645
-10.3377355 -1.3352829 23.6087522
-10.7389421 -1.5211889 19.8786311
-10.7488650 -1.8066479 14.3079403
-10.4962466 -2.1834106 7.0242577
-10.5741810 -2.5359082 0.1283123
10.3316479 -3.1061378 24.4200036
9.0063345 -3.1304516 23.6889492
7.3598419 -3.1090941 23.5503605
5.5347119 -3.0587650 23.7945764
3.9918373 -3.0485723 23.5181274
-0.9066009 -2.9624937 23.4422231
-2.6146685 -2.9140617 23.6906419
-4.0642433 -2.9104040 23.3425682
-5.8061646 -2.8471580 23.8026952
-7.2722723 -2.8352802 23.5727222
-8.8040087 -2.8070795 23.5681516
-10.4954264 -2.7379947 24.1294568
-10.6742061 -3.0332349 19.6730728
-10.4334141 -3.4727869 13.1792556
-10.4584317 -3.8936650 6.8903280
-10.6839652 -4.3112773 0.5944447
9.9521163 -4.5789143 25.1170813
8.8065155 -4.6370823 24.0824303
7.1039607 -4.5978016 24.0642619
5.3418900 -4.5441475 24.2025740
1.3037155 -4.3194408 25.7492094
-0.2766850 -4.2852451 25.7049509
-1.8626570 -4.2465695 25.7132205
-2.6822513 -4.3787148 23.8788922
-4.0662300 -4.3877969 23.3684610
-6.0020463 -4.2598112 24.3548120
-7.3776744 -4.2650688 23.8930199
-10.6912119 -4.1129649 24.7719960
-10.6716602 -4.5348402 19.6790535
-10.6211457 -5.0164838 13.8727413
-10.6918594 -5.5167893 7.8057933
-10.7253658 -6.0975964 0.7767090
10.1706828 -5.8573842 27.7148840
9.8029161 -6.0738478 25.4079576
8.5606923 -6.1209893 24.5598381
0.6923150 -5.6413372 27.0885008
-0.9174309 -5.5863364 27.1679884
-2.2331423 -5.6031012 26.6063890
-2.6614917 -5.8621161 23.8494632
-6.2339121 -5.6436563 25.0045076
-7.5725414 -5.6571348 24.4694521
-10.5289013 -5.5903904 24.2675620
-10.6226034 -6.0546138 19.5269291
-10.6963616 -6.5812400 14.1587204
-10.7203697 -7.1942469 7.9283818
10.0165764 -6.6932954 33.3879897
9.9389155 -6.9746340 30.9025671
8.9813647 -7.0718728 29.7612780
7.5049228 -7.0525448 29.4826507
6.1071481 -7.0507417 29.0745276
1.6839962 -6.9799712 28.3524052
-0.0116606 -6.8899257 28.6261143
-1.4256936 -6.8744647 28.3325750
-2.0458234 -7.0980374 26.1881225
-3.4686689 -7.0863511 25.8588803
-10.5819335 -6.4813138 28.9960657
-10.6250258 -6.9832499 24.5907747
-10.6326189 -7.5561064 19.5756566
-10.7214812 -8.1601139 14.2633030
-10.2841290 -9.0906269 6.2534277
7.4943518 -7.4710250 37.4004214
5.9501522 -7.4017213 37.4581713
4.4466142 -7.3384240 37.4822526
2.9852871 -7.2821294 37.4654807
1.5419826 -7.2268137 37.4467277
0.1157871 -7.1723199 37.4269190
-1.3181743 -7.1113456 37.4545458
-2.7392732 -7.0495466 37.4924696
-4.1330051 -6.9914737 37.5101663
-5.4922635 -6.9399309 37.4882626
-6.8400702 -6.8877641 37.4746805
-8.0954586 -6.8640671 37.2706465
-9.2026255 -6.8935998 36.7029672
-10.1396665 -6.9923402 35.6555393
-10.6689013 -7.2683228 33.3708836
-10.6185565 -7.8228871 29.1227189
-10.6288932 -8.4083208 24.6185527
-10.0472313 -9.3443611 17.6009498
-8.6840715 -10.7902923 6.9035857
7.7022528 -8.8495402 37.0975869
4.6647259 -8.7059880 37.1367385
3.1352244 -8.6236380 37.2254619
1.6179531 -8.5393723 37.3311223
0.1309328 -8.4588164 37.4207611
-1.2786403 -8.3981230 37.3983295
-2.6879562 -8.3327577 37.4080055
-4.0921004 -8.2639643 37.4427912
-5.4726050 -8.1982354 37.4639223
-6.8324054 -8.1348126 37.4756860
-8.0812966 -8.1104744 37.2540138
-9.1929947 -8.1414895 36.6955568
-10.1380870 -8.2484938 35.6679990
-10.6672671 -8.5578834 33.3824101
-9.9045175 -9.5264179 26.9800758
-8.6849963 -10.8315361 18.4124483
7.0461125 -10.3717192 35.7157295
6.5646008 -10.6343757 33.9401667
5.0177590 -10.5562717 33.9377229
3.4617830 -10.4695436 33.9857493
1.9679450 -10.3988286 33.9542432
0.4725867 -10.3222365 33.9586072
-1.0033197 -10.2471842 33.9595539
-2.4659849 -10.1713790 33.9693125
-7.8193703 -9.4698578 36.6277663
-8.9153777 -9.5163801 35.9960515
-9.6187979 -9.7590519 34.2744389
-8.6636946 -10.8762418 27.6647863
-7.1287311 -12.4187107 18.6069292
6.5797362 -12.0123770 33.9402169
5.0391138 -11.9285700 33.9252597
3.4952546 -11.8377016 33.9490568
1.9828102 -11.7526873 33.9498086
0.4793177 -11.6650069 33.9684087
-0.9871726 -11.5862053 33.9486920
-2.4596951 -11.4984630 33.9774317
-3.8789569 -11.4276904 33.9274179
-7.2719118 -10.9936977 35.2994808
-8.2969568 -11.0928400 34.4169574
-7.3576300 -12.2577451 28.1519664
3.5285619 -13.2085691 33.9127145
2.0258458 -13.1201708 33.8919308
0.4832741 -13.0075550 33.9837086
-0.9876691 -12.9193329 33.9721180
-2.4541533 -12.8262324 33.9871743
-3.8568419 -12.7570805 33.8986728
-5.2691520 -12.6769567 33.8638510
-6.6099237 -12.6280675 33.6902557
0
0
0
0
0
0
0
0
0
0
0
0
0
0
0
0
0
0
0
0
0
0
0
0
0
0
0
0
0
0
0
0
0
0
0
0
0
0
0
0
0
0
0
0
0
0
0
0
0
0
0
0
0
0
0
0
0
0
0
0
0
0
0
0
0
0
0
0
0
0
0
0
0
0
0
0
0
0
0
0
0
0
0
0
0
0
0
0
0
0
0
0
0
0
0
0
0
0
0
0
0
0
0
0
0
0
0
0
0
0
0
0
0
0
0
0
0
0
0
0
0
0
0
0
0
0
0
0
0
0
0
0
0
0
0
0
0
0
0
0
0
0
0
0
0
0
0
0
0
0
0
0
0
0
0
0
0
0
0
0
0
0
0
0
0
0
0
0
0
0
0
0
0
0
0
0
0
0
0
0
0
0
0
0
0
0
0
0
0
0
0
0
0
0
0
0
0
0
0
0
0
0
0
0
0
0
0
0
0
0
0
0
0
0
0
0
0
0
0
0
0
0
0
0
0
0
0
0
0
0
0
0
0
0
0
0
0
0
0
0
0
0
0
0
0
0
0
0
0
0
0
0
0
0
0
0
0
0
0
0
0
0
0
0
0
0
0
0
0
0
0
0
0
0
0
0
0
0
0
0
0
0
0
0
0
0
0
0
0
0
0
0
0
0
0
0
0
0
0
0
0
0
0
0
0
0
0
0
0
0
0
0
0
0
0
0
0
0
0
0
0
0
0
0
0
0
0
0
0
0
0
0
0
0
0
0
0
0
0
0
0
0
0
0
0
0
0
0
0
0
0
0
0
0
0
0
0
0
0
0
0
0
0
0
0
0
0
0
0
0
0
0
0
0
0
0
0
0
0
0
0
0
0
0
0
0
0
0
0
0
0
0
0
0
0
0
0
0
0
0
0
0
0
0
0
0
0
0
0
0
0
0
0
0
0
0
0
0
0
0
0
0
0
0
0
0
0
0
0
0
0
0
0
0
0
0
0
0
0
0
0
0
0
0
0
0
0
0
0
0
0
0
0
0
0
0
0
0
0
0
0
0
0
0
0
0
0
0
0
0
0
0
0
0
0
0
0
0
0
0
0
0
0
0
0
0
0
0
0
0
0
0
0
0
0
0
0
0
0
0
0
0
0
0
0
0
0
0
0
0
0
0
0
0
0
0
0
0
0
0
0
0
0
0
0
0
0
0
0
0
0
0
0
0
0
0
0
0
0
0
0
0
0
0
0
0
0
0
0
0
0
0
0
0
0
0
0
0
0
0
0
0
0
0
0
0
0
0
0
0
0
0
0
0
0
0
0
0
0
0
0
0
0
0
0
0
0
0
0
0
0
0
0
0
0
0
0
0
0
0
0
0
0
0
0
0
0
0
0
0
0
0
0
0
0
0
0
0
0
0
0
0
0
0
0
0
0
0
0
0
0
0
0
0
0
0
0
0
0
0
0
0
0
0
0
0
0
0
0
0
0
0
0
0
0
0
0
0
0
0
0
0
0
0
0
0
0
0
0
0
0
0
0
0
0
0
0
0
0
0
0
0
0
0
0
0
0
0
0
0
0
0
0
0
0
0
0
0
0
0
0
0
0
0
0
0
0
0
0
0
0
0
0
0
0
0
0
0
0
0
0
0
0
0
0
0
0
0
0
0
0
0
0
0
0
0
0
0
0
0
0
0
0
0
0
0
0
0
0
0
0
0
0
0
0
0
0
0
0
0
0
0
0
0
0
0
0
0
0
0
0
0
0
0
0
0
0
0
0
0
0
0
0
0
0
0
0
0
0
0
0
0
0
0
0
0
0
0
0
0
0
0
0
0
0
0
0
0
0
0
0
0
0
0
0
0
0
1 0
1 1
1 2
1 3
1 4
1 5
0
0
0
0
0
0
0
0
0
0
0
0
0
0
0
0
0
0
0
0
0
0
0
0
0
0
0
0
0
0
0
0
0
0
0
0
0
0
0
0
0
0
0
0
0
0
1 6
0
1 7
0
0
0
0
0
0
0
0
0
0
0
0
0
0
0
0
0
0
0
0
0
0
0
0
0
0
0
0
0
0
0
0
0
0
0
0
0
0
0
0
0
0
0
0
0
0
0
1 8
1 9
1 10
0
0
0
0
0
0
0
0
0
0
0
0
0
0
0
0
0
0
0
0
0
0
0
0
0
0
0
0
0
0
0
0
0
0
0
0
0
0
0
0
0
0
0
0
0
0
1 11
0
1 12
1 13
1 14
1 15
1 16
1 17
0
0
0
0
0
0
0
0
0
0
0
0
0
0
0
0
0
0
0
0
0
0
0
0
0
0
0
0
0
0
0
0
0
0
0
0
0
0
0
0
0
0
1 18
1 19
1 20
1 21
1 22
1 23
1 24
1 25
0
0
0
0
0
0
0
0
0
0
0
0
0
0
0
0
0
0
0
0
0
0
0
0
0
0
0
0
0
0
0
0
0
0
0
0
0
0
0
1 26
1 27
1 28
1 29
1 30
1 31
1 32
1 33
1 34
1 35
1 36
1 37
1 38
0
0
0
0
0
0
0
0
0
0
0
0
0
0
0
0
0
0
0
0
0
0
0
0
0
0
0
0
0
0
0
0
0
0
0
0
0
0
1 39
0
0
0
0
0
0
0
1 40
0
1 41
1 42
0
0
0
0
0
0
0
0
0
0
0
0
0
0
0
0
0
0
0
0
0
0
0
0
0
0
0
0
0
0
0
0
0
0
0
0
0
0
1 43
0
0
1 44
1 45
0
0
0
0
1 46
1 47
1 48
1 49
0
0
0
0
0
0
0
0
0
0
0
0
0
0
0
0
0
0
0
0
0
0
0
0
0
0
0
0
0
0
0
0
0
0
0
0
0
0
0
1 50
1 51
1 52
0
0
0
0
1 53
1 54
1 55
1 56
0
0
1 57
0
0
0
0
0
0
0
0
0
0
0
0
0
0
0
0
0
0
0
0
0
0
0
0
0
0
0
0
0
0
0
1 58
1 59
1 60
1 61
1 62
1 63
1 64
1 65
1 66
1 67
1 68
1 69
1 70
1 71
1 72
1 73
1 74
1 75
1 76
0
0
0
0
0
0
0
0
0
0
0
0
0
0
0
0
0
0
0
0
0
0
0
0
0
0
0
0
0
0
0
0
1 77
0
0
0
0
1 78
1 79
1 80
1 81
1 82
1 83
1 84
1 85
1 86
1 87
1 88
1 89
0
0
0
0
0
0
0
0
0
0
0
0
0
0
0
0
0
0
0
0
0
0
0
0
0
0
0
0
0
0
0
0
1 90
1 91
1 92
1 93
1 94
0
0
1 95
1 96
1 97
1 98
1 99
1 100
1 101
1 102
1 103
1 104
1 105
0
0
0
0
0
0
0
0
0
0
0
0
0
0
0
0
0
0
0
0
0
0
0
0
0
0
0
0
0
0
0
0
1 106
1 107
1 108
1 109
0
1 110
1 111
1 112
1 113
1 114
1 115
1 116
0
1 117
1 118
1 119
1 120
1 121
0
0
0
0
0
0
0
0
0
0
0
0
0
0
0
0
0
0
0
0
0
0
0
0
0
0
0
0
0
0
0
1 122
1 123
1 124
0
0
0
1 125
1 126
1 127
1 128
0
1 129
1 130
0
1 131
1 132
1 133
1 134
0
0
0
0
0
0
0
0
0
0
0
0
0
0
0
0
0
0
0
0
0
0
0
0
0
0
0
0
0
0
1 135
1 136
1 137
1 138
1 139
0
0
1 140
1 141
1 142
1 143
1 144
0
0
0
1 145
1 146
1 147
1 148
1 149
0
0
0
0
0
0
0
0
0
0
0
0
0
0
0
0
0
0
0
0
0
0
0
0
0
0
0
0
0
0
1 150
1 151
1 152
1 153
1 154
1 155
1 156
1 157
1 158
1 159
1 160
1 161
1 162
1 163
1 164
1 165
1 166
1 167
1 168
0
0
0
0
0
0
0
0
0
0
0
0
0
0
0
0
0
0
0
0
0
0
0
0
0
0
0
0
0
0
0
1 169
0
1 170
1 171
1 172
1 173
1 174
1 175
1 176
1 177
1 178
1 179
1 180
1 181
1 182
1 183
1 184
0
0
0
0
0
0
0
0
0
0
0
0
0
0
0
0
0
0
0
0
0
0
0
0
0
0
0
0
0
0
0
0
0
0
1 185
1 186
1 187
1 188
1 189
1 190
1 191
1 192
0
0
1 193
1 194
1 195
1 196
1 197
0
0
0
0
0
0
0
0
0
0
0
0
0
0
0
0
0
0
0
0
0
0
0
0
0
0
0
0
0
0
0
0
0
0
0
0
1 198
1 199
1 200
1 201
1 202
1 203
1 204
1 205
0
1 206
1 207
1 208
0
0
0
0
0
0
0
0
0
0
0
0
0
0
0
0
0
0
0
0
0
0
0
0
0
0
0
0
0
0
0
0
0
0
0
0
0
0
0
0
1 209
1 210
1 211
1 212
1 213
1 214
1 215
1 216
0
0
0
0
0
0
0
0
0
0
0
0
0
0
0
0
0
0
0
0
0
0
0
0
0
0
0
0
0
0
0
0
0
0
0
0
0
0
0
0
0
0
0
0
0
0
0
0
0
0
0
0
0
0
0
0
0
0
0
0
0
0
0
0
0
0
0
0
0
0
0
0
0
0
0
0
0
0
0
0
0
0
0
0
0
0
0
0
0
0
0
0
0
0
0
0
0
0
0
0
0
0
0
0
0
0
0
0
0
0
0
0
0
0
0
0
0
0
0
0
0
0
0
0
0
0
0
0
0
0
0
0
0
0
0
0
0
0
0
0
0
0
0
0
0
0
0
0
0
0
0
0
0
0
0
0
0
0
0
0
0
0
0
0
0
0
0
0
0
0
0
0
0
0
0
0
0
0
0
0
0
0
0
0
0
0
0
0
0
0
0
0
0
0
0
0
0
0
0
0
0
0
0
0
0
0
0
0
0
0
0
0
0
0
0
0
0
0
0
0
0
0
0
0
0
0
0
0
0
0
0
0
0
0
0
0
0
0
0
0
0
0
0
0
0
0
0
0
0
0
0
0
0
0
0
0
0
0
0
0
0
0
0
0
0
0
0
0
0
0
0
0
0
0
0
0
0
0
0
0
0
0
0
0
0
0
0
0
0
0
0
0
0
0
0
0
0
0
0
0
0
0
0
0
0
0
0
0
0
0
0
0
0
0
0
0
0
0
0
0
0
0
0
0
0
0
0
0
0
0
0
0
0
0
0
0
0
0
0
0
0
0
0
0
0
0
0
0
0
0
0
0
0
0
0
0
0
0
0
0
0
0
0
0
0
0
0
0
0
0
0
0
0
0
0
0
0
0
0
0
0
0
0
0
0
0
0
0
0
0
0
0
0
0
0
0
0
0
0
0
0
0
0
0
0
0
0
0
0
0
0
0
0
0
0
0
0
0
0
0
0
0
0
0
0
0
0
0
0
0
0
0
0
0
0
0
0
0
0
0
0
0
0
0
0
0
0
0
0
0
0
0
0
0
0
0
0
0
0
0
0
0
0
0
0
0
0
0
0
0
0
0
0
0
0
0
0
0
0
0
0
0
0
0
0
0
0
0
0
0
0
0
0
0
0
0
0
0
0
0
0
0
0
0
0
0
0
0
0
0
0
0
0
0
0
0
0
0
0
0
0
0
0
0
0
0
0
0
0
0
0
0
0
0
0
0
0
0
0
0
0
0
0
0
0
0
0
0
0
0
0
0
0
0
0
0
0
0
0
0
0
0
0
0
0
0
0
0
0
0
0
0
0
0
0
0
0
0
0
0
0
0
0
0
0
0
0
0
0
0
0
0
0
0
0
0
0
0
0
0
0
0
0
0
0
0
0
0
0
0
0
0
0
0
0
0
0
0
0
0
0
0
0
0
0
0
0
0
0
0
0
0
0
0
0
0
0
0
0
0
0
0
0
0
0
0
0
0
0
0
0
0
0
0
0
0
0
0
0
0
0
0
0
0
0
0
0
0
0
0
0
0
0
0
0
0
0
0
0
0
0
0
0
0
0
0
0
0
0
0
0
0
0
0
0
0
0
0
0
0
0
0
0
0
0
0
0
0
0
0
0
0
0
0
0
0
0
0
0
0
0
0
0
0
0
0
0
0
