ply
format ascii 1.0
obj_info num_cols 50
obj_info num_rows 50
element vertex 225
property float x
property float y
property float z
element range_grid 2500
property list uchar int vertex_indices
end_header
-3.4189543 10.6006257 13.8986762
-4.0799201 9.0107656 5.7146433
-2.7344550 8.9498395 4.2970340
-1.2947909 8.9293247 3.0251144
1.1005184 9.2801712 3.0195306
-4.6657296 8.6476554 15.6546740
-4.7355716 7.9793149 11.7491865
-4.7397154 7.3692271 8.1359421
-4.6571948 6.8213183 4.8212773
-2.3720032 6.5770798 1.5272084
2.4375242 7.7782472 4.7620524
-4.3706708 0.9492158 -30.2199518
-3.7517468 0.8101078 -31.5446164
-3.0967529 0.6859926 -32.8095448
-2.3684532 0.5863630 -33.9885478
-1.6191541 0.4958654 -35.1303813
-0.8649653 0.4097687 -36.2500774
-7.0388199 6.2486858 15.5165663
-6.8839051 5.7136767 11.9404913
-6.9538216 5.1220298 8.1814540
-6.9753684 4.5764963 4.6805951
-7.1059639 4.0182605 1.1862414
-6.4378030 3.7613106 -1.0127215
-8.9737007 0.8177293 -17.9405409
-8.5387948 0.5863920 -19.7851754
-7.9461595 0.4113151 -21.3948686
-7.3322544 0.2494081 -22.9368719
-6.7019387 0.0985301 -24.4210531
-6.0174691 -0.0313171 -25.8135124
-5.3264964 -0.1544409 -27.1678838
-4.6504256 -0.2770121 -28.5066072
-3.9495490 -0.3884778 -29.7938221
-3.2055873 -0.4846217 -31.0171584
-2.4583204 -0.5764694 -32.2154683
-1.6531098 -0.6503911 -33.3451523
-0.8826855 -0.7303807 -34.4857628
-7.0411436 5.3613614 23.6760989
-10.8109611 0.5544037 -7.2277119
-10.5869938 0.2258388 -9.7323104
-10.1753249 -0.0315975 -11.8870640
-9.7137522 -0.2631099 -13.8992382
-9.2023088 -0.4703298 -15.7803371
-8.6441308 -0.6556328 -17.5445967
-8.0669239 -0.8280249 -19.2331037
-7.4234967 -0.9754209 -20.7988772
-6.7694186 -1.1140966 -22.3116931
-6.1159808 -1.2475065 -23.7867712
-5.4530064 -1.3733286 -25.2159870
-4.7087777 -1.4738590 -26.5326252
-4.0018684 -1.5798701 -27.8576057
-3.2621789 -1.6739853 -29.1252068
-2.5058444 -1.7606846 -30.3539506
-1.7300394 -1.8396779 -31.5440877
-0.9198497 -1.9078904 -32.6860338
-10.6620895 0.5281397 5.6066207
-10.6513734 0.0964889 2.2254200
-10.6670776 -0.3222816 -1.0335185
-10.7224309 -1.1089741 -7.1345196
-10.2936418 -1.3483391 -9.3556910
-9.8235069 -1.5657851 -11.4394616
-9.2967224 -1.7586148 -13.3772868
-8.7433216 -1.9362314 -15.2180451
-8.1791841 -2.1036432 -16.9878649
-7.5511253 -2.2480772 -18.6304937
-6.8750936 -2.3748121 -20.1741177
-6.2412492 -2.5066962 -21.7234323
-5.5457637 -2.6187723 -23.1684556
-4.7919694 -2.7129081 -24.5210506
-4.0850879 -2.8141850 -25.8910305
-3.3556993 -2.9066024 -27.2102190
-2.5924052 -2.9881015 -28.4718628
-1.8181395 -3.0642299 -29.7005282
-1.0207492 -3.1326601 -30.8879804
-0.0485836 -3.1618656 -31.9120624
-10.4748083 0.4975476 21.3299927
-10.6082639 -0.0230587 16.8959167
-10.6163942 -0.4789595 12.9233533
-10.6502673 -0.9187129 9.1129405
-10.5758191 -1.3058199 5.6727949
-10.5629960 -1.6907960 2.3020232
-10.5565543 -2.0590032 -0.9171253
-10.6882465 -2.4461496 -4.1877694
-10.4169925 -2.7123707 -6.7349346
-9.9556336 -2.9189666 -8.9183032
-9.4305430 -3.1007717 -10.9377982
-8.9050954 -3.2745713 -12.8877137
-8.2579587 -3.4123355 -14.6233622
-7.7080630 -3.5666963 -16.4237523
-6.9841903 -3.6754081 -17.9690469
-6.3498192 -3.7994980 -19.5748229
-5.6937787 -3.9139331 -21.1141837
-4.8719855 -3.9885106 -22.4422214
-4.1539992 -4.0818835 -23.8487822
-3.4469269 -4.1739363 -25.2348288
-2.6795396 -4.2503412 -26.5339899
-1.8842217 -4.3183440 -27.7828277
-1.0895720 -4.3839613 -29.0102932
-0.2051680 -4.4299404 -30.1403006
-10.4120767 -1.1039498 25.7292475
-10.5712582 -1.5949713 21.0101210
-10.4756570 -1.9908117 17.0197886
-10.4313240 -2.3791116 13.1465363
-10.6105011 -2.8044750 9.0927231
-10.3810454 -3.4498356 2.5259441
-10.7431317 -3.8625600 -1.2510863
-10.4370934 -4.1010191 -3.8612508
-10.0595672 -4.3122856 -6.2621214
-9.5169936 -4.4773832 -8.3439157
-9.0220487 -4.6454835 -10.4158199
-8.4170259 -4.7828590 -12.2755820
-7.7829750 -4.9082911 -14.0414510
-7.1349425 -5.0255773 -15.7384508
-6.4579635 -5.1322066 -17.3541991
-5.8074842 -5.2396909 -18.9563861
-5.0285831 -5.3181256 -20.3782184
-4.2927613 -5.4015719 -21.8137873
-3.5662745 -5.4834939 -23.2265431
-2.8001777 -5.5550443 -24.5697229
-1.9921694 -5.6163557 -25.8465491
-1.1598490 -5.6710591 -27.0782791
-0.3169738 -5.7218750 -28.2803670
-10.6021409 -4.6877228 9.0198128
-10.5546244 -5.2846371 2.1912226
-10.5522680 -5.5661558 -1.0124737
-10.2116398 -5.7661152 -3.5724241
-9.7331874 -5.9296121 -5.8333280
-9.1497740 -6.0653904 -7.8670554
-8.5985298 -6.2012050 -9.8742037
-7.9309251 -6.3095037 -11.6660474
-7.3093450 -6.4214908 -13.4612211
-6.5982733 -6.5128058 -15.0963793
-5.9175985 -6.6056114 -16.7229850
-5.2023897 -6.6886985 -18.2680384
-4.4261759 -6.7581637 -19.7093565
-3.6546735 -6.8256140 -21.1238056
-2.8701672 -6.8882893 -22.4948595
-2.0883306 -6.9489442 -23.8406952
-1.2472584 -6.9979923 -25.1042298
-0.4062015 -7.0451504 -26.3462554
-10.5148577 -5.3390118 25.2168423
-10.3569538 -5.6330800 21.1463706
-10.5457626 -5.9804835 16.6568998
-10.4648387 -6.2571735 12.8845160
-10.6400931 -6.5682954 8.8691519
-10.7039097 -6.8432872 5.2426109
-10.6116276 -7.0766661 2.0402945
-10.2874246 -7.2579407 -0.6618607
-9.8512347 -7.4113646 -3.0864799
-9.2856580 -7.5358518 -5.2338285
-8.7128291 -7.6534692 -7.2953918
-8.0940029 -7.7583914 -9.2261510
-7.4656346 -7.8571899 -11.0830600
-6.7585557 -7.9394993 -12.7862082
-6.0528913 -8.0185027 -14.4439006
-5.3318209 -8.0918864 -16.0394764
-4.5676321 -8.1559145 -17.5465004
-3.7664120 -8.2119875 -18.9785427
-2.9934696 -8.2697673 -20.4093779
-2.1743258 -8.3188359 -21.7629093
-1.3234432 -8.3616250 -23.0593851
-0.4675961 -8.4020483 -24.3284163
-10.4897257 -7.1316217 29.7205215
-10.4842866 -7.4142859 25.1240664
-10.5216635 -7.6885924 20.7004946
-10.6894375 -7.9697290 16.2790174
-10.6206558 -8.1980285 12.5107760
-10.5498249 -8.4143282 8.9356882
-10.6843353 -8.6513688 5.2016919
-10.3200656 -8.8021335 2.4367993
-9.8356257 -8.9280389 -0.0284463
-9.2754946 -9.0371378 -2.2862969
-8.6923716 -9.1379289 -4.4291228
-8.0299489 -9.2232305 -6.3890759
-7.4203973 -9.3117753 -8.3558800
-6.7034132 -9.3822784 -10.1227399
-5.9444638 -9.4442703 -11.7877210
-5.2305222 -9.5092572 -13.4623349
-4.4356155 -9.5614439 -14.9992079
-3.6278375 -9.6098457 -16.4857555
-2.7640547 -9.6495196 -17.8790735
-1.9097881 -9.6886324 -19.2550285
-0.9806522 -9.7174850 -20.5292158
-10.1421777 -9.2102668 30.2585501
-9.9632574 -9.4091369 25.9965571
-9.8750946 -9.6092343 21.7902016
-9.5798239 -9.7713527 18.1825555
-9.4844348 -9.9505305 14.4012947
-9.2651720 -10.1050720 11.0177495
-9.1669341 -10.2666542 7.5969186
-9.0644541 -10.4198772 4.3447425
-8.7210168 -10.5377379 1.6071006
-8.1240317 -10.6211560 -0.6462054
-7.5437235 -10.7025139 -2.8421349
-6.9730469 -10.7811846 -4.9740428
-6.3011810 -10.8454890 -6.8998547
-5.6634669 -10.9104922 -8.8096207
-4.9498137 -10.9648459 -10.5674398
-4.1996309 -11.0131454 -12.2329535
-3.3470845 -11.0492258 -13.7377148
-2.3697536 -11.0715900 -15.0708398
-1.3585837 -11.0896577 -16.3455187
-0.3788531 -11.1097758 -17.6344511
-8.1973831 -11.2987626 29.3117466
-8.0564083 -11.4437472 25.0912948
-7.9715852 -11.5864200 20.9885559
-7.7525777 -11.7088634 17.3307848
-7.7099097 -11.8414208 13.5527336
-7.6488489 -11.9657368 9.9898867
-7.4981386 -12.0760778 6.7372854
-7.3271286 -12.1794140 3.6632350
-6.8824992 -12.2547118 1.1239497
-6.4261335 -12.3255291 -1.2999588
-5.8327061 -12.3819528 -3.4461648
-5.2030626 -12.4329094 -5.4720686
-4.4744913 -12.4738256 -7.3073618
-3.8276988 -12.5191546 -9.1906073
-2.8727611 -12.5392973 -10.6518093
-1.7994400 -12.5496739 -11.9483308
-0.7447973 -12.5607639 -13.2474999
-1.8031245 -13.8811840 2.0115938
-1.0703675 -13.9107594 -0.0555725
-0.8786953 -13.9669144 -2.7471644
-0.7263623 -14.0227090 -5.3823001
-0.6993484 -14.0824682 -8.0647078
-0.0334078 -14.1085388 -9.9074879
0
0
0
0
0
0
0
0
0
0
0
0
0
0
0
0
0
0
0
0
0
0
0
0
0
0
0
0
0
0
0
0
0
0
0
0
0
0
0
0
0
0
0
0
0
0
0
0
0
0
0
0
0
0
0
0
0
0
0
0
0
0
0
0
0
0
0
0
0
0
0
0
0
0
0
0
0
0
0
0
0
0
0
0
0
0
0
0
0
0
0
0
0
0
0
0
0
0
0
0
0
0
0
0
0
0
0
0
0
0
0
0
0
0
0
0
0
0
0
0
0
0
0
0
0
0
0
0
0
0
0
0
0
0
0
0
0
0
0
0
0
0
0
0
0
0
0
0
0
0
0
0
0
0
0
0
0
0
0
0
0
0
0
0
0
0
0
0
0
0
0
0
0
0
0
0
0
0
0
0
0
0
0
0
0
0
0
0
0
0
0
0
0
0
0
0
0
0
0
0
0
0
0
0
0
0
0
0
0
0
0
0
0
0
0
0
0
0
0
0
0
0
0
0
0
0
0
0
0
0
0
0
0
0
0
0
0
0
0
0
0
0
0
0
0
0
0
0
0
0
0
0
0
0
0
0
0
0
0
0
0
0
0
0
0
0
0
0
0
0
0
0
0
0
0
0
0
0
0
0
0
0
0
0
0
0
0
0
0
0
0
0
0
0
0
0
0
0
0
0
0
0
0
0
0
0
0
0
0
0
0
0
0
0
0
0
0
0
0
0
0
0
0
0
0
0
0
0
0
0
0
0
0
0
0
0
0
0
0
0
0
0
0
0
0
0
0
0
0
0
0
0
0
0
0
0
0
0
0
0
0
0
0
0
0
0
0
0
0
0
0
0
0
0
0
0
0
0
0
0
0
0
0
0
0
0
0
0
0
0
0
0
0
0
0
0
0
0
0
0
0
0
0
0
0
0
0
0
0
0
0
0
0
0
0
0
0
0
0
0
0
0
0
0
0
0
0
0
0
0
0
0
0
0
0
0
0
0
0
0
0
0
0
0
0
0
0
0
0
0
0
0
0
0
0
0
0
0
0
0
0
0
0
0
0
0
0
0
0
0
0
0
0
0
0
0
0
0
0
0
0
0
0
0
0
0
0
0
0
0
0
0
0
0
0
0
0
0
0
0
0
0
0
0
0
0
0
0
0
0
0
0
0
0
0
0
0
0
0
0
0
0
0
0
0
0
0
0
0
0
0
0
0
0
0
0
0
0
0
0
0
0
0
0
0
0
0
0
0
0
0
0
0
0
0
0
0
0
0
0
0
0
0
0
0
0
0
0
0
0
0
0
0
0
0
0
0
0
0
0
0
0
0
0
0
0
0
0
0
0
0
0
0
0
0
0
0
0
0
0
0
0
0
0
0
0
0
0
0
0
0
0
0
0
0
0
0
0
0
0
0
0
0
0
0
0
0
0
0
0
0
0
0
0
0
0
0
0
0
0
0
0
0
0
0
0
0
0
0
0
0
0
0
0
0
0
0
0
0
0
0
0
0
0
0
0
0
0
0
0
0
0
0
0
0
0
0
0
0
0
0
0
0
0
0
0
0
0
0
0
0
0
0
0
0
0
0
0
0
0
0
0
0
0
0
0
0
0
0
0
0
0
0
0
0
0
0
0
0
0
0
0
0
0
0
0
0
0
0
0
0
0
0
0
0
0
0
0
0
0
0
0
0
0
0
0
0
0
0
0
0
0
0
0
0
0
0
0
0
0
0
0
0
0
0
0
0
0
0
0
0
0
0
0
0
0
0
0
0
0
0
0
0
0
0
0
0
0
0
0
0
0
0
0
0
0
0
0
0
0
0
0
0
0
0
0
0
0
0
0
0
0
0
0
0
0
0
0
0
0
0
0
0
0
0
0
0
0
0
0
0
0
0
0
0
0
0
0
0
0
0
0
0
0
0
0
0
0
0
0
0
0
0
0
0
0
0
0
0
0
0
0
0
0
0
0
0
0
0
0
0
0
0
0
0
0
0
0
0
0
0
0
0
0
0
0
0
0
0
0
0
0
0
0
0
0
0
0
0
0
0
0
0
0
0
0
0
0
0
0
0
0
0
0
0
0
0
0
0
0
0
0
0
0
0
0
0
0
0
0
0
0
0
0
0
0
0
0
0
0
0
0
0
0
0
0
0
0
0
0
0
0
0
0
0
0
0
0
0
0
0
0
0
0
0
0
0
0
0
0
0
0
0
0
0
0
0
0
0
0
0
0
0
0
0
0
0
0
0
0
0
0
0
0
0
0
0
0
0
0
0
0
0
0
0
0
0
0
0
0
0
0
0
0
0
0
0
0
0
1 0
0
1 1
1 2
1 3
1 4
0
0
0
0
0
0
0
0
0
0
0
0
0
0
0
0
0
0
0
0
0
0
0
0
0
0
0
0
0
0
0
0
0
0
0
0
0
0
0
0
0
0
0
1 5
1 6
1 7
1 8
0
1 9
1 10
0
0
0
0
0
0
0
0
0
0
1 11
1 12
1 13
1 14
1 15
1 16
0
0
0
0
0
0
0
0
0
0
0
0
0
0
0
0
0
0
0
0
0
0
0
0
0
0
1 17
1 18
1 19
1 20
1 21
1 22
0
0
0
0
1 23
1 24
1 25
1 26
1 27
1 28
1 29
1 30
1 31
1 32
1 33
1 34
1 35
0
0
0
0
0
0
0
0
0
0
0
0
0
0
0
0
0
0
0
0
0
0
0
0
0
1 36
0
0
0
0
0
0
1 37
1 38
1 39
1 40
1 41
1 42
1 43
1 44
1 45
1 46
1 47
1 48
1 49
1 50
1 51
1 52
1 53
0
0
0
0
0
0
0
0
0
0
0
0
0
0
0
0
0
0
0
0
0
0
0
0
0
0
0
0
0
1 54
1 55
1 56
0
1 57
1 58
1 59
1 60
1 61
1 62
1 63
1 64
1 65
1 66
1 67
1 68
1 69
1 70
1 71
1 72
1 73
0
0
0
0
0
0
0
0
0
0
0
0
0
0
0
0
0
0
0
0
0
0
0
0
0
1 74
1 75
1 76
1 77
1 78
1 79
1 80
1 81
1 82
1 83
1 84
1 85
1 86
1 87
1 88
1 89
1 90
1 91
1 92
1 93
1 94
1 95
1 96
1 97
0
0
0
0
0
0
0
0
0
0
0
0
0
0
0
0
0
0
0
0
0
0
0
0
0
1 98
1 99
1 100
1 101
1 102
0
1 103
1 104
1 105
1 106
1 107
1 108
1 109
1 110
1 111
1 112
1 113
1 114
1 115
1 116
1 117
1 118
1 119
1 120
0
0
0
0
0
0
0
0
0
0
0
0
0
0
0
0
0
0
0
0
0
0
0
0
0
0
0
0
0
0
1 121
0
1 122
1 123
1 124
1 125
1 126
1 127
1 128
1 129
1 130
1 131
1 132
1 133
1 134
1 135
1 136
1 137
1 138
0
0
0
0
0
0
0
0
0
0
0
0
0
0
0
0
0
0
0
0
0
0
0
0
0
0
0
1 139
1 140
1 141
1 142
1 143
1 144
1 145
1 146
1 147
1 148
1 149
1 150
1 151
1 152
1 153
1 154
1 155
1 156
1 157
1 158
1 159
1 160
0
0
0
0
0
0
0
0
0
0
0
0
0
0
0
0
0
0
0
0
0
0
0
0
0
0
0
1 161
1 162
1 163
1 164
1 165
1 166
1 167
1 168
1 169
1 170
1 171
1 172
1 173
1 174
1 175
1 176
1 177
1 178
1 179
1 180
1 181
0
0
0
0
0
0
0
0
0
0
0
0
0
0
0
0
0
0
0
0
0
0
0
0
0
0
0
0
0
1 182
1 183
1 184
1 185
1 186
1 187
1 188
1 189
1 190
1 191
1 192
1 193
1 194
1 195
1 196
1 197
1 198
1 199
1 200
1 201
0
0
0
0
0
0
0
0
0
0
0
0
0
0
0
0
0
0
0
0
0
0
0
0
0
0
0
0
0
0
0
1 202
1 203
1 204
1 205
1 206
1 207
1 208
1 209
1 210
1 211
1 212
1 213
1 214
1 215
1 216
1 217
1 218
0
0
0
0
0
0
0
0
0
0
0
0
0
0
0
0
0
0
0
0
0
0
0
0
0
0
0
0
0
0
0
0
0
0
0
0
0
0
0
0
0
0
0
1 219
1 220
1 221
1 222
1 223
1 224
0
0
0
0
0
0
0
0
0
0
0
0
0
0
0
0
0
0
0
0
0
0
0
0
0
0
0
0
0
0
0
0
0
0
0
0
0
0
0
0
0
0
0
0
0
0
0
0
0
0
0
0
0
0
0
0
0
0
0
0
0
0
0
0
0
0
0
0
0
0
0
0
0
0
0
0
0
0
0
0
0
0
0
0
0
0
0
0
0
0
0
0
0
0
0
0
0
0
0
0
0
0
0
0
0
0
0
0
0
0
0
0
0
0
0
0
0
0
0
0
0
0
0
0
0
0
0
0
0
0
0
0
0
0
0
0
0
0
0
0
0
0
0
0
0
0
0
0
0
0
0
0
0
0
0
0
0
0
0
0
0
0
0
0
0
0
0
0
0
0
0
0
0
0
0
0
0
0
0
0
0
0
0
0
0
0
0
0
0
0
0
0
0
0
0
0
0
0
0
0
0
0
0
0
0
0
0
0
0
0
0
0
0
0
0
0
0
0
0
0
0
0
0
0
0
0
0
0
0
0
0
0
0
0
0
0
0
0
0
0
0
0
0
0
0
0
0
0
0
0
0
0
0
0
0
0
0
0
0
0
0
0
0
0
0
0
0
0
0
0
0
0
0
0
0
0
0
0
0
0
0
0
0
0
0
0
0
0
0
0
0
0
0
0
0
0
0
0
0
0
0
0
0
0
0
0
0
0
0
0
0
0
0
0
0
0
0
0
0
0
0
0
0
0
0
0
0
0
0
0
0
0
0
0
0
0
0
0
0
0
0
0
0
0
0
0
0
0
0
0
0
0
0
0
0
0
0
0
0
0
0
0
0
0
0
0
0
0
0
0
0
0
0
0
0
0
0
0
0
0
0
0
0
0
0
0
0
0
0
0
0
0
0
0
0
0
0
0
0
0
0
0
0
0
0
0
0
0
0
0
0
0
0
0
0
0
0
0
0
0
0
0
0
0
0
0
0
0
0
0
0
0
0
0
0
0
0
0
0
0
0
0
0
0
0
0
0
0
0
0
0
0
0
0
0
0
0
0
0
0
0
0
0
0
0
0
0
0
0
0
0
0
0
0
0
0
0
0
0
0
0
0
0
0
0
0
0
0
0
0
0
0
0
0
0
0
0
0
0
0
0
0
0
0
0
0
0
0
0
0
0
0
0
0
0
0
0
0
0
0
0
0
0
0
0
0
0
0
0
0
0
0
0
0
0
0
0
0
0
0
0
0
0
0
0
0
0
0
0
0
0
0
0
0
0
0
0
0
0
0
0
0
0
0
0
0
0
0
0
0
0
0
0
0
0
0
0
0
0
0
0
0
0
0
0
0
0
0
0
0
0
0
0
0
0
0
0
0
0
0
0
0
0
0
0
0
0
0
0
0
0
0
0
0
0
0
0
0
0
0
0
0
0
0
0
0
0
0
0
0
0
0
0
0
0
0
0
0
0
0
0
0
0
0
0
0
0
0
0
0
0
0
0
0
0
0
0
0
0
0
0
0
0
0
0
0
0
0
0
0
0
0
0
0
0
0
0
0
0
0
0
0
0
0
0
0
0
0
0
0
0
0
0
0
0
0
0
0
0
0
0
0
0
0
0
0
0
0
0
0
0
0
0
0
0
0
0
0
0
0
0
0
0
0
0
0
0
0
0
0
0
0
0
0
0
0
0
0
0
0
0
0
0
0
0
0
0
0
0
0
0
0
0
0
0
0
0
0
0
0
0
0
0
0
0
0
0
0
0
0
0
0
0
0
0
0
0
0
0
0
0
0
0
0
0
0
0
0
0
0
0
0
0
0
0
0
0
0
0
0
0
0
0
0
0
0
0
0
0
0
0
0
0
0
0
0
0
0
0
0
0
0
0
0
0
0
0
0
0
0
0
0
0
0
0
0
0
0
0
0
0
0
0
0
0
0
0
0
0
0
0
0
0
0
0
0
0
0
0
0
0
0
0
0
0
0
0
0
0
0
0
