ply
format ascii 1.0
obj_info num_cols 50
obj_info num_rows 50
element vertex 413
property float x
property float y
property float z
element range_grid 2500
property list uchar int vertex_indices
end_header
-10.4774057 -7.9378897 34.5196420
-10.5540276 -7.3017769 33.0989289
-9.3947163 -1.1864457 27.7982396
-9.7786976 -1.1898715 26.1114336
-10.1872870 -1.2525190 24.4169743
-10.6026479 -1.3328338 22.7227431
-10.6360525 -0.4802118 21.1239403
-10.5990662 0.5626033 19.5116343
-9.1454887 -9.5744527 35.5358930
-9.5675425 -9.7236424 33.9424006
-9.8157506 -9.4965105 32.4425931
-10.0497402 -9.2342607 30.9426932
-10.2921452 -8.9861711 29.4310092
-10.4924077 -8.6395093 27.9289069
-10.5201047 -7.8972963 26.4804833
-10.5367937 -7.1168174 25.0121922
-10.4689449 -6.1280920 23.5443387
-10.5238235 -5.4059975 22.0120707
-10.5926281 -4.7032991 20.4530892
-10.4526417 -3.4945855 18.9100389
-10.3807226 -2.4255862 17.3166721
-10.6056741 -2.0507839 15.6554711
-10.5655801 -1.0251127 13.9992716
-10.6488205 -0.2822519 12.3048963
-10.6802364 0.6032862 10.5839565
-8.0130888 -10.8175326 35.0887053
-8.4638255 -11.0242411 33.4897529
-8.6782902 -10.7401582 32.0126622
-8.9192142 -10.5072051 30.5147467
-9.1659535 -10.2827596 29.0071418
-9.3928807 -10.0120614 27.5002061
-9.6170205 -9.7307581 25.9856895
-9.8726939 -9.5134753 24.4521328
-10.1140795 -9.2610179 22.9156526
-10.3408744 -8.9717867 21.3745878
-10.5332058 -8.6002818 19.8312854
-10.6819065 -8.1235750 18.2831956
-10.6314697 -7.1841397 16.7459003
-10.5831485 -6.2325357 15.1764909
-10.5788556 -5.3657804 13.5719963
-10.4696481 -4.2370775 11.9391731
-10.6155031 -3.6908463 10.2734048
-10.5817527 -2.7053768 8.5763624
-10.5722878 -1.7597495 6.8469323
-10.6527723 -1.0149767 5.0973471
-10.6779451 -0.1198396 3.3098575
-4.9309646 -8.8809772 37.0858975
-7.3302052 -12.2214294 33.0644967
-7.5480730 -11.9589199 31.5900826
-7.7930708 -11.7471855 30.0956840
-8.0109180 -11.4766018 28.6055322
-8.2560302 -11.2577744 27.0967246
-8.4792396 -10.9899012 25.5882637
-8.7176326 -10.7494010 24.0665719
-8.9489806 -10.4900342 22.5389318
-9.1899015 -10.2467047 21.0005565
-9.4175713 -9.9708096 19.4567198
-9.6645763 -9.7320903 17.9005792
-9.9026336 -9.4697220 16.3374978
-10.1464888 -9.2155838 14.7650071
-10.4033233 -8.9858645 13.1832058
-10.6049268 -8.6281806 11.5938704
-10.7085208 -8.0422195 9.9888150
-10.7276283 -7.2526359 8.3567957
-10.7170179 -6.3800859 6.6930562
-10.7463679 -5.5843986 5.0039481
-10.6070409 -4.3777032 3.2522315
-10.4561201 -3.1207791 1.4531261
-10.6610062 -2.6915833 -0.2908574
-10.7759661 -2.0368778 -2.0807466
-10.7935818 -1.1319825 -3.9322424
-10.8103085 -0.2072012 -5.8188052
-5.9382588 -12.8879943 32.7721275
-6.2332515 -12.7839724 31.2596631
-6.5439444 -12.7089522 29.7374744
-6.8327371 -12.5898131 28.2213407
-7.1040452 -12.4342370 26.7075554
-7.3387193 -12.2031524 25.2004011
-7.5873532 -11.9964535 23.6817284
-7.8058565 -11.7253629 22.1638216
-8.0510574 -11.5044344 20.6311118
-8.2719283 -11.2297642 19.0954416
-8.5275459 -11.0227615 17.5453871
-8.7504762 -10.7438345 15.9919233
-9.0025894 -10.5218969 14.4267003
-9.2260766 -10.2352019 12.8548664
-9.4670143 -9.9811264 11.2730122
-9.7083450 -9.7235341 9.6822205
-9.9541383 -9.4712357 8.0826207
-10.1886158 -9.1895481 6.4726402
-10.4531189 -8.9697442 4.8572172
-10.6332187 -8.5563814 3.2169278
-10.5971859 -7.6454719 1.5090729
-10.5680616 -6.7336767 -0.2310261
-10.5183764 -5.7575299 -2.0124276
-10.4313507 -4.6761068 -3.8450846
-10.3906568 -3.6833275 -5.7001706
-10.3465325 -2.6635110 -7.5955502
-10.2746256 -1.5574641 -9.5452561
-10.2144882 -0.4584671 -11.5323546
-4.4003612 -13.2900495 32.5447456
-4.7149704 -13.2237933 31.0175774
-5.0134470 -13.1263529 29.4947356
-5.3161355 -13.0354257 27.9672807
-5.6273142 -12.9593038 26.4341127
-5.9264141 -12.8588896 24.9021637
-6.2499602 -12.8042025 23.3603917
-6.5461240 -12.6953669 21.8233561
-6.8437404 -12.5877057 20.2824359
-7.1129479 -12.4221423 18.7427427
-7.3715226 -12.2327390 17.1988696
-7.5990229 -11.9777914 15.6516112
-7.8469364 -11.7601076 14.0941825
-8.0713850 -11.4908842 12.5298209
-8.3034457 -11.2329126 10.9560108
-8.5506386 -11.0021167 9.3737035
-8.7845076 -10.7395114 7.7820173
-9.0218707 -10.4798525 6.1812478
-9.2786057 -10.2570933 4.5741142
-9.4688905 -9.8874960 2.9454584
-9.6295264 -9.4470822 1.2958605
-9.7839718 -8.9853487 -0.3720877
-9.8473268 -8.3140893 -2.0871657
-9.7566845 -7.2873352 -3.8846405
-9.6723603 -6.2561284 -5.7194634
-9.5879716 -5.2058530 -7.5947978
-9.4771883 -4.0756249 -9.5249505
-9.4173579 -3.0421580 -11.4724705
-9.3207515 -1.9033002 -13.4835150
-9.2202369 -0.7335335 -15.5434759
-9.1457111 0.3968584 -17.6336432
-2.8357650 -13.6688530 32.3220628
-3.1352836 -13.5752620 30.7945615
-3.4682636 -13.5407172 29.2514825
-3.7694044 -13.4478337 27.7184171
-4.0804677 -13.3717829 26.1792229
-4.3793929 -13.2722381 24.6410496
-4.6984740 -13.2087089 23.0944938
-4.9981673 -13.1079344 21.5501950
-5.3187910 -13.0451764 19.9985680
-5.6206327 -12.9457571 18.4478349
-5.9400809 -12.8785989 16.8915656
-6.2305646 -12.7544474 15.3356554
-6.5444828 -12.6740323 13.7741548
-6.8577403 -12.5910847 12.2099125
-7.1279718 -12.4216605 10.6421550
-7.3945634 -12.2422609 9.0681660
-7.6256476 -11.9885028 7.4845975
-7.8774421 -11.7726179 5.8943500
-8.1119536 -11.5178114 4.2933533
-8.2755677 -11.1124586 2.6685993
-8.4367315 -10.6951645 1.0279902
-8.5729051 -10.2183099 -0.6354855
-8.6955881 -9.7046950 -2.3215849
-8.8146445 -9.1744242 -4.0288795
-8.8693308 -8.4961825 -5.7829232
-8.7834348 -7.5003588 -7.6266096
-8.6631097 -6.4112263 -9.5269044
-8.5378469 -5.2915204 -11.4736749
-8.3589018 -4.0315449 -13.4970658
-8.2879653 -2.9918551 -15.5044873
-8.1667256 -1.8184671 -17.5887447
-8.0484834 -0.6300064 -19.7198285
-7.9465695 0.5430523 -21.8884362
-0.9709319 -14.1635291 33.6233788
-1.2894528 -14.1046272 32.0844219
-1.5881709 -14.0107488 30.5513282
-1.8959067 -13.9312524 29.0119722
-2.2133328 -13.8676285 27.4668582
-2.5213902 -13.7866016 25.9225290
-2.8280340 -13.7019255 24.3759393
-3.1316607 -13.6106483 22.8272861
-3.4356224 -13.5186689 21.2755255
-3.7587543 -13.4601976 19.7172735
-4.0716926 -13.3822330 18.1585787
-4.3547808 -13.2480665 16.6006329
-4.6799705 -13.1901625 15.0346418
-4.9957534 -13.1137960 13.4671403
-5.3033587 -13.0208558 11.8971083
-5.6083430 -12.9215245 10.3237573
-5.9401361 -12.8720953 8.7483993
-6.2431355 -12.7662697 7.1686891
-6.5674094 -12.7002596 5.5878866
-6.8686701 -12.5880262 4.0009342
-7.0930149 -12.3216708 2.3942851
-7.2537271 -11.9239084 0.7622713
-7.3798134 -11.4498714 -0.8946312
-7.4825880 -10.9206157 -2.5772786
-7.5991410 -10.4106903 -4.2756415
-7.6805509 -9.8195619 -6.0080714
-7.7399897 -9.1725737 -7.7736383
-7.7416956 -8.3931410 -9.5929501
-7.6258057 -7.3509247 -11.5054839
-7.4870374 -6.2414761 -13.4735954
-7.3154938 -5.0416555 -15.5075110
-7.1642934 -3.8646367 -17.5779683
-7.0127766 -2.6656717 -19.6980467
-6.8599022 -1.4418545 -21.8699193
-6.7403589 -0.2700846 -24.0675210
0.6671231 -14.4699895 33.4241187
0.3087573 -14.4759336 31.8614269
0.0147983 -14.3747663 30.3230218
-0.3316611 -14.3602651 28.7632601
-0.6319756 -14.2676917 27.2176789
-0.9357749 -14.1797826 25.6680471
-1.2574194 -14.1212332 24.1109171
-1.5561750 -14.0224100 22.5570747
-1.8671124 -13.9433736 20.9974968
-2.1656606 -13.8415533 19.4373161
-2.4810435 -13.7679704 17.8713692
-2.7909062 -13.6835475 16.3034883
-3.0990897 -13.5949150 14.7328122
-3.4208405 -13.5294649 13.1585185
-3.7339179 -13.4473243 11.5820124
-4.0342205 -13.3406044 10.0022570
-4.3599042 -13.2791132 8.4202342
-4.6785213 -13.2035922 6.8353648
-5.0009605 -13.1341090 5.2482842
-5.3029134 -13.0249143 3.6552785
-5.5911488 -12.8879444 2.0554386
-5.8777394 -12.7456895 0.4500510
-6.1311395 -12.5370281 -1.1699413
-6.2788332 -12.1189927 -2.8313166
-6.3834076 -11.6094383 -4.5243605
-6.4468894 -11.0101161 -6.2537549
-6.5043049 -10.3887656 -8.0097499
-6.5393188 -9.7119236 -9.8014196
-6.5560077 -8.9864660 -11.6300688
-6.4941964 -8.0878507 -13.5322048
-6.3081722 -6.9171395 -15.5460342
-6.1343710 -5.7516615 -17.6009922
-5.9578290 -4.5600908 -19.7070188
-5.7722181 -3.3283147 -21.8704104
-5.5810024 -2.0626758 -24.0910658
-5.3911138 -0.7772336 -26.3654745
-5.1955736 0.5437547 -28.7010136
2.9159207 -13.8379848 33.4664563
2.5482458 -13.8492075 31.8770182
2.1011161 -13.9883225 30.2597779
1.6686977 -14.1055796 28.6522690
1.2806845 -14.1521539 27.0622926
0.8419350 -14.2826486 25.4602343
0.4424983 -14.3500727 23.8724562
0.0449868 -14.4152901 22.2875958
-0.2938721 -14.3832317 20.7160451
-0.5765948 -14.2560713 19.1522011
-0.8960688 -14.1895861 17.5793208
-1.2083367 -14.1098653 16.0048443
-1.5253550 -14.0372297 14.4272940
-1.8195945 -13.9240377 12.8479238
-2.1388465 -13.8529815 11.2645197
-2.4441558 -13.7563605 9.6781381
-2.7598297 -13.6767505 8.0889550
-3.0659881 -13.5789807 6.4959470
-3.4034978 -13.5362810 4.9035586
-3.7072139 -13.4316244 3.3039691
-3.9844141 -13.2768975 1.6950655
-4.2712194 -13.1375409 0.0825735
-4.5341435 -12.9516864 -1.5418365
-4.8043309 -12.7765686 -3.1711896
-5.0803350 -12.6097122 -4.8053485
-5.2274990 -12.1950776 -6.4960577
-5.2693395 -11.5717841 -8.2483580
-5.2914566 -10.9002830 -10.0351719
-5.3057136 -10.2025203 -11.8534776
-5.2870310 -9.4285467 -13.7186051
-5.2340676 -8.5738020 -15.6361269
-5.0636840 -7.4700781 -17.6634646
-4.8169711 -6.1938807 -19.7889184
-4.6190488 -4.9951497 -21.9341319
-4.3695878 -3.6701750 -24.1702189
-4.1847996 -2.4560180 -26.4120309
-3.9630522 -1.1435585 -28.7385622
-3.7724201 0.1265276 -31.0953809
5.2214566 -13.2124499 33.5031358
4.8155208 -13.2731043 31.8761001
4.4220440 -13.3152713 30.2555377
3.9516287 -13.4782512 28.6123788
3.5329654 -13.5620651 26.9899028
3.0828447 -13.6968645 25.3623434
2.6203068 -13.8533335 23.7368140
2.2159870 -13.9185502 22.1288141
1.7803762 -14.0352776 20.5178351
1.3438487 -14.1551610 18.9110741
0.9525624 -14.2026396 17.3140326
0.4938988 -14.3620010 15.7131067
0.1067128 -14.4049000 14.1221294
-0.2179133 -14.3437772 12.5343967
-0.5441028 -14.2844678 10.9445277
-0.8467581 -14.1844090 9.3516505
-1.1761384 -14.1286456 7.7570162
-1.4729918 -14.0161017 6.1570206
-1.7869005 -13.9315455 4.5551700
-2.1035953 -13.8506601 2.9506604
-2.3648321 -13.6709684 1.3317913
-2.6501680 -13.5313826 -0.2882362
-2.8990618 -13.3245949 -1.9236479
-3.1592622 -13.1350706 -3.5636633
-3.4357587 -12.9722650 -5.2055111
-3.6970195 -12.7791241 -6.8596459
-3.9477935 -12.5636908 -8.5259293
-4.0212358 -12.0154475 -10.2822284
-4.0037918 -11.2883558 -12.1062981
-3.9654717 -10.5102819 -13.9718196
-3.9177207 -9.7017731 -15.8754216
-3.8684372 -8.8772410 -17.8141713
-3.7124895 -7.8329567 -19.8582221
-3.4660384 -6.5949896 -22.0105085
-3.2237053 -5.3445593 -24.2134906
-2.9746499 -4.0598599 -26.4764917
-2.7084943 -2.7192706 -28.8103832
-2.4354072 -1.3418702 -31.2100192
-2.1972237 -0.0118070 -33.6394348
7.2823940 -12.4889413 31.9201033
6.7477880 -12.7312353 30.2267047
6.3028843 -12.8413148 28.5689319
5.8253673 -13.0024262 26.9062467
5.4179938 -13.0584346 25.2667594
4.9634096 -13.1879041 23.6190431
4.5400197 -13.2708070 21.9821180
4.1111533 -13.3634118 20.3474417
3.6588517 -13.4941161 18.7131152
3.2135113 -13.6156368 17.0844751
2.7749622 -13.7280559 15.4609977
2.3404466 -13.8356057 13.8420425
1.8986370 -13.9564659 12.2271373
1.4669043 -14.0626854 10.6168092
1.0225014 -14.1911804 9.0112222
0.5990873 -14.2869526 7.4091208
0.2022557 -14.3400202 5.8080117
-0.1607076 -14.3372870 4.2043903
-0.4775116 -14.2568530 2.5928666
-0.7447043 -14.0911715 0.9681388
-1.0234880 -13.9429221 -0.6602484
-1.2956635 -13.7811723 -2.2962177
-1.5800706 -13.6382827 -3.9347871
-1.8875542 -13.5336181 -5.5710897
-2.1714573 -13.3859387 -7.2204432
-2.4533896 -13.2325815 -8.8765408
-2.5229613 -12.6975295 -10.6347415
-2.5380689 -12.0562375 -12.4417833
-2.5201517 -11.3451318 -14.2930817
-2.4991995 -10.6174129 -16.1761243
-2.4603915 -9.8453757 -18.1009320
-2.4130570 -9.0452956 -20.0643574
-2.2583061 -8.0313318 -22.1359237
-1.9938643 -6.7940141 -24.3313323
-1.7071857 -5.4943135 -26.5982712
-1.4176993 -4.1679727 -28.9251688
-1.1130912 -2.7905140 -31.3243110
-0.8070562 -1.3873738 -33.7868832
-0.5062158 0.0290685 -36.3084043
6.8951068 -12.6722950 21.8218443
6.4403543 -12.7916650 20.1585952
6.0149703 -12.8681117 18.5036001
5.5336648 -13.0309876 16.8461168
5.1135026 -13.1021183 15.1991104
4.6403182 -13.2562775 13.5527876
4.2399635 -13.2991375 11.9132591
3.7842965 -13.4293591 10.2765469
3.3391256 -13.5448400 8.6444735
2.8764688 -13.6897544 7.0184037
2.4487176 -13.7808589 5.3942764
2.0258752 -13.8653740 3.7731759
1.6328844 -13.9026795 2.1503826
1.2641614 -13.9009011 0.5242288
0.8372258 -13.9949727 -1.0879576
0.2968538 -14.2785065 -2.6653699
-0.1094934 -14.3423895 -4.2720456
-0.4455317 -14.2890003 -5.8998292
-0.7175718 -14.1264563 -7.5536086
-0.9785432 -13.9426806 -9.2185102
-0.9738462 -13.2994407 -11.0091842
-0.9829495 -12.6705411 -12.8201520
-0.9646718 -11.9844330 -14.6718313
-0.9366973 -11.2709133 -16.5580662
-0.9244716 -10.5744445 -18.4655288
-0.9022893 -9.8495208 -20.4093429
-0.8693444 -9.0940303 -22.3919120
-0.7393453 -8.1507560 -24.4765559
-0.4137615 -6.8351488 -26.7497497
2.0639564 -1.5334588 -30.7853345
7.1441729 -12.4644358 13.2585470
6.6070977 -12.7009795 11.5883733
6.1661663 -12.7951529 9.9251604
5.7065181 -12.9191531 8.2667546
5.2309743 -13.0692506 6.6146689
4.8074370 -13.1411015 4.9627429
4.3757447 -13.2266598 3.3149895
3.9496372 -13.3046960 1.6698239
3.6067963 -13.2526049 0.0107593
3.2367393 -13.2430436 -1.6437708
2.8821201 -13.2087291 -3.3027098
2.5157802 -13.1928512 -4.9593423
2.0454581 -13.3453444 -6.5814814
1.4892252 -13.6403031 -8.1653226
1.1170963 -13.6368602 -9.8110978
1.2267297 -12.8356425 -11.6683348
1.2768441 -12.1221095 -13.5311987
1.3580474 -11.3459482 -15.4402510
1.4521114 -10.5366274 -17.3895814
1.5600883 -9.6916155 -19.3819562
1.8580386 -8.5076506 -21.5288536
6.8356092 -12.5207925 2.8368367
6.4175323 -12.5738996 1.1602422
5.9743520 -12.6659579 -0.5088469
5.6359350 -12.5988702 -2.1989512
5.2594136 -12.5896763 -3.8813840
4.9484335 -12.4786652 -5.5837806
4.7090156 -12.2543249 -7.3145051
4.7164889 -11.6383533 -9.1449058
5.0109584 -10.5589967 -11.1157882
5.4296059 -9.2663506 -13.1861467
0
0
0
0
0
0
0
0
0
0
0
0
0
0
0
0
0
0
0
0
0
0
0
0
0
0
0
0
0
0
0
0
0
0
0
0
0
0
0
0
0
0
0
0
0
0
0
0
0
0
0
0
0
0
0
0
0
0
0
0
0
0
0
0
0
0
0
0
0
0
0
0
0
0
0
0
0
0
0
0
0
0
0
0
0
0
0
0
0
0
0
0
0
0
0
0
0
0
0
0
0
0
0
0
0
0
0
0
0
0
0
0
0
0
0
0
0
0
0
0
0
0
0
0
0
0
0
0
0
0
0
0
0
0
0
0
0
0
0
0
0
0
0
0
0
0
0
0
0
0
0
0
0
0
0
0
0
0
0
0
0
0
0
0
0
0
0
0
0
0
0
0
0
0
0
0
0
0
0
0
0
0
0
0
0
0
0
0
0
0
0
0
0
0
0
0
0
0
0
0
0
0
0
0
0
0
0
0
0
0
0
0
0
0
0
0
0
0
0
0
0
0
0
0
0
0
0
0
0
0
0
0
0
0
0
0
0
0
0
0
0
0
0
0
0
0
0
0
0
0
0
0
0
0
0
0
0
0
0
0
0
0
0
0
0
0
0
0
0
0
0
0
0
0
0
0
0
0
0
0
0
0
0
0
0
0
0
0
0
0
0
0
0
0
0
0
0
0
0
0
0
0
0
0
0
0
0
0
0
0
0
0
0
0
0
0
0
0
0
0
0
0
0
0
0
0
0
0
0
0
0
0
0
0
0
0
0
0
0
0
0
0
0
0
0
0
0
0
0
0
0
0
0
0
0
0
0
0
0
0
0
0
0
0
0
0
0
0
0
0
0
0
0
0
0
0
0
0
0
0
0
0
0
0
0
0
0
0
0
0
0
0
0
0
0
0
0
0
0
0
0
0
0
0
0
0
0
0
0
0
0
0
0
0
0
0
0
0
0
0
0
0
0
0
0
0
0
0
0
0
0
0
0
0
0
0
0
0
0
0
0
0
0
0
0
0
0
0
0
0
0
0
0
0
0
0
0
0
0
0
0
0
0
0
0
0
0
0
0
0
0
0
0
0
0
0
0
0
0
0
0
0
0
0
0
0
0
0
0
0
0
0
0
0
0
0
0
0
0
0
0
0
0
0
0
0
0
0
0
0
0
0
0
0
0
0
0
0
0
0
0
0
0
0
0
0
0
0
0
0
0
0
0
0
0
0
0
0
0
0
0
0
0
0
0
0
0
0
0
0
0
0
0
0
0
0
0
0
0
0
0
0
0
0
0
0
0
0
0
0
0
0
0
0
0
0
0
0
0
0
0
0
0
0
0
0
0
0
0
0
0
0
0
0
0
0
0
0
0
0
0
0
0
0
0
0
0
0
0
0
0
0
0
0
0
0
0
0
0
0
0
0
0
0
0
0
0
0
0
0
0
0
0
0
0
0
0
0
0
0
0
0
0
0
0
0
0
0
0
0
0
0
0
0
0
0
0
0
0
0
0
0
0
0
0
0
0
0
0
0
0
0
0
0
0
0
0
0
0
0
0
0
0
0
0
0
0
0
0
0
0
0
0
0
0
0
0
0
0
0
0
0
0
0
0
0
0
0
0
0
0
0
0
0
0
0
0
0
0
0
0
0
0
0
0
0
0
0
0
0
0
0
0
0
0
0
0
0
0
0
0
0
0
0
0
0
0
0
0
0
0
0
0
0
0
0
0
0
0
0
0
0
0
0
0
0
0
0
0
0
0
0
0
0
0
0
0
0
0
0
0
0
0
0
0
0
0
0
0
0
0
0
0
0
0
0
0
0
0
0
0
0
0
0
0
0
0
0
0
0
0
0
0
0
0
0
0
0
0
0
0
0
0
0
0
0
0
0
0
0
0
0
0
0
0
0
0
0
0
0
0
0
0
0
0
0
0
0
0
0
0
0
0
0
0
1 0
1 1
0
0
0
1 2
1 3
1 4
1 5
1 6
1 7
0
0
0
0
0
0
0
0
0
0
0
0
0
0
0
0
0
0
0
0
0
0
0
0
0
0
0
0
0
0
0
0
0
0
0
0
0
0
1 8
1 9
1 10
1 11
1 12
1 13
1 14
1 15
1 16
1 17
1 18
1 19
1 20
1 21
1 22
1 23
1 24
0
0
0
0
0
0
0
0
0
0
0
0
0
0
0
0
0
0
0
0
0
0
0
0
0
0
0
0
0
0
0
0
0
1 25
1 26
1 27
1 28
1 29
1 30
1 31
1 32
1 33
1 34
1 35
1 36
1 37
1 38
1 39
1 40
1 41
1 42
1 43
1 44
1 45
0
0
0
0
0
0
0
0
0
0
0
0
0
0
0
0
0
0
0
0
0
0
0
0
0
0
0
0
1 46
0
1 47
1 48
1 49
1 50
1 51
1 52
1 53
1 54
1 55
1 56
1 57
1 58
1 59
1 60
1 61
1 62
1 63
1 64
1 65
1 66
1 67
1 68
1 69
1 70
1 71
0
0
0
0
0
0
0
0
0
0
0
0
0
0
0
0
0
0
0
0
0
0
0
0
0
1 72
1 73
1 74
1 75
1 76
1 77
1 78
1 79
1 80
1 81
1 82
1 83
1 84
1 85
1 86
1 87
1 88
1 89
1 90
1 91
1 92
1 93
1 94
1 95
1 96
1 97
1 98
1 99
0
0
0
0
0
0
0
0
0
0
0
0
0
0
0
0
0
0
0
0
0
0
1 100
1 101
1 102
1 103
1 104
1 105
1 106
1 107
1 108
1 109
1 110
1 111
1 112
1 113
1 114
1 115
1 116
1 117
1 118
1 119
1 120
1 121
1 122
1 123
1 124
1 125
1 126
1 127
1 128
1 129
1 130
0
0
0
0
0
0
0
0
0
0
0
0
0
0
0
0
0
0
0
1 131
1 132
1 133
1 134
1 135
1 136
1 137
1 138
1 139
1 140
1 141
1 142
1 143
1 144
1 145
1 146
1 147
1 148
1 149
1 150
1 151
1 152
1 153
1 154
1 155
1 156
1 157
1 158
1 159
1 160
1 161
1 162
1 163
0
0
0
0
0
0
0
0
0
0
0
0
0
0
0
0
1 164
1 165
1 166
1 167
1 168
1 169
1 170
1 171
1 172
1 173
1 174
1 175
1 176
1 177
1 178
1 179
1 180
1 181
1 182
1 183
1 184
1 185
1 186
1 187
1 188
1 189
1 190
1 191
1 192
1 193
1 194
1 195
1 196
1 197
1 198
0
0
0
0
0
0
0
0
0
0
0
0
0
0
0
1 199
1 200
1 201
1 202
1 203
1 204
1 205
1 206
1 207
1 208
1 209
1 210
1 211
1 212
1 213
1 214
1 215
1 216
1 217
1 218
1 219
1 220
1 221
1 222
1 223
1 224
1 225
1 226
1 227
1 228
1 229
1 230
1 231
1 232
1 233
1 234
1 235
0
0
0
0
0
0
0
0
0
0
0
0
0
1 236
1 237
1 238
1 239
1 240
1 241
1 242
1 243
1 244
1 245
1 246
1 247
1 248
1 249
1 250
1 251
1 252
1 253
1 254
1 255
1 256
1 257
1 258
1 259
1 260
1 261
1 262
1 263
1 264
1 265
1 266
1 267
1 268
1 269
1 270
1 271
1 272
1 273
0
0
0
0
0
0
0
0
0
0
0
0
1 274
1 275
1 276
1 277
1 278
1 279
1 280
1 281
1 282
1 283
1 284
1 285
1 286
1 287
1 288
1 289
1 290
1 291
1 292
1 293
1 294
1 295
1 296
1 297
1 298
1 299
1 300
1 301
1 302
1 303
1 304
1 305
1 306
1 307
1 308
1 309
1 310
1 311
1 312
0
0
0
0
0
0
0
0
0
0
0
0
1 313
1 314
1 315
1 316
1 317
1 318
1 319
1 320
1 321
1 322
1 323
1 324
1 325
1 326
1 327
1 328
1 329
1 330
1 331
1 332
1 333
1 334
1 335
1 336
1 337
1 338
1 339
1 340
1 341
1 342
1 343
1 344
1 345
1 346
1 347
1 348
1 349
1 350
1 351
0
0
0
0
0
0
0
0
0
0
0
0
0
0
0
0
0
1 352
1 353
1 354
1 355
1 356
1 357
1 358
1 359
1 360
1 361
1 362
1 363
1 364
1 365
1 366
1 367
1 368
1 369
1 370
1 371
1 372
1 373
1 374
1 375
1 376
1 377
1 378
1 379
1 380
1 381
0
0
0
0
0
0
0
0
0
0
0
0
0
0
0
0
0
0
0
0
0
0
0
0
0
1 382
1 383
1 384
1 385
1 386
1 387
1 388
1 389
1 390
1 391
1 392
1 393
1 394
1 395
1 396
1 397
1 398
1 399
1 400
1 401
1 402
0
0
0
0
0
0
0
0
0
0
0
0
0
0
0
0
0
0
0
0
0
0
0
0
0
0
0
0
0
0
0
0
0
0
0
1 403
1 404
1 405
1 406
1 407
1 408
1 409
1 410
1 411
1 412
0
0
0
0
0
0
0
0
0
0
0
0
0
0
0
0
0
0
0
0
0
0
0
0
0
0
0
0
0
0
0
0
0
0
0
0
0
0
0
0
0
0
0
0
0
0
0
0
0
0
0
0
0
0
0
0
0
0
0
0
0
0
0
0
0
0
0
0
0
0
0
0
0
0
0
0
0
0
0
0
0
0
0
0
0
0
0
0
0
0
0
0
0
0
0
0
0
0
0
0
0
0
0
0
0
0
0
0
0
0
0
0
0
0
0
0
0
0
0
0
0
0
0
0
0
0
0
0
0
0
0
0
0
0
0
0
0
0
0
0
0
0
0
0
0
0
0
0
0
0
0
0
0
0
0
0
0
0
0
0
0
0
0
0
0
0
0
0
0
0
0
0
0
0
0
0
0
0
0
0
0
0
0
0
0
0
0
0
0
0
0
0
0
0
0
0
0
0
0
0
0
0
0
0
0
0
0
0
0
0
0
0
0
0
0
0
0
0
0
0
0
0
0
0
0
0
0
0
0
0
0
0
0
0
0
0
0
0
0
0
0
0
0
0
0
0
0
0
0
0
0
0
0
0
0
0
0
0
0
0
0
0
0
0
0
0
0
0
0
0
0
0
0
0
0
0
0
0
0
0
0
0
0
0
0
0
0
0
0
0
0
0
0
0
0
0
0
0
0
0
0
0
0
0
0
0
0
0
0
0
0
0
0
0
0
0
0
0
0
0
0
0
0
0
0
0
0
0
0
0
0
0
0
0
0
0
0
0
0
0
0
0
0
0
0
0
0
0
0
0
0
0
0
0
0
0
0
0
0
0
0
0
0
0
0
0
0
0
0
0
0
0
0
0
0
0
0
0
0
0
0
0
0
0
0
0
0
0
0
0
0
0
0
0
0
0
0
0
0
0
0
0
0
0
0
0
0
0
0
0
0
0
0
0
0
0
0
0
0
0
0
0
0
0
0
0
0
0
0
0
0
0
0
0
0
0
0
0
0
0
0
0
0
0
0
0
0
0
0
0
0
0
0
0
0
0
0
0
0
0
0
0
0
0
0
0
0
0
0
0
0
0
0
0
0
0
0
0
0
0
0
0
0
0
0
0
0
0
0
0
0
0
0
0
0
0
0
0
0
0
0
0
0
0
0
0
0
0
0
0
0
0
0
0
0
0
0
0
0
0
0
0
0
0
0
0
0
0
0
0
0
0
0
0
0
0
0
0
0
0
0
0
0
0
0
0
0
0
0
0
0
0
0
0
0
0
0
0
0
0
0
0
0
0
0
0
0
0
0
0
0
0
0
0
0
0
0
0
0
0
0
0
0
0
0
0
0
0
0
0
0
0
0
0
0
0
0
0
0
0
0
0
0
0
0
0
0
0
0
0
0
0
0
0
0
0
0
0
0
0
0
0
0
0
0
0
0
0
0
0
0
0
0
0
0
0
0
0
0
0
0
0
0
0
0
0
0
0
0
0
0
0
0
0
0
0
0
0
0
0
0
0
0
0
0
0
0
0
0
0
0
0
0
0
0
0
0
0
0
0
0
0
0
0
0
0
0
0
0
0
0
0
0
0
0
0
0
0
0
0
0
0
0
0
0
0
0
0
0
0
0
0
0
0
0
0
0
0
0
0
0
0
0
0
0
0
0
0
0
0
0
0
0
0
0
0
0
0
0
0
0
0
0
0
0
0
0
0
0
0
0
0
0
0
0
0
0
0
0
0
0
0
0
0
0
0
0
0
0
0
0
0
0
0
0
0
0
0
0
0
0
0
0
0
0
0
0
0
0
0
0
0
0
0
0
0
0
0
0
0
0
0
0
0
0
0
0
0
0
0
0
0
0
0
0
0
0
0
0
0
0
0
0
0
0
0
0
0
0
0
0
0
0
0
0
0
0
0
0
0
0
0
0
0
0
0
0
0
0
0
0
0
0
0
0
0
0
0
0
0
0
0
0
0
0
0
0
0
0
0
0
0
0
0
0
0
0
0
0
0
0
0
0
0
0
0
0
0
0
0
0
0
0
0
0
0
0
0
0
0
0
0
0
0
0
0
0
0
0
0
0
0
0
0
0
0
0
0
