ply
format ascii 1.0
obj_info num_cols 50
obj_info num_rows 50
element vertex 121
property float x
property float y
property float z
element range_grid 2500
property list uchar int vertex_indices
end_header
-1.6650308 12.4203610 20.3283753
-3.0406355 10.2088824 10.3666835
-1.6249080 10.2069820 8.5239769
0.3564156 10.2194677 8.1787962
-4.4559323 8.2596454 6.5096034
-2.8312058 8.2704787 5.3900188
-1.1261400 8.2794562 4.5025863
0.9348607 8.2816873 4.4663805
3.6181348 8.2733646 5.7691408
-5.1366876 6.3892992 4.6558789
-4.0912769 6.4429715 2.1167856
-2.4415442 6.4542464 1.2402595
-0.7710272 6.4639605 0.4252958
1.3236275 6.4487019 0.5732456
3.8719468 6.4097224 1.6236642
-6.5197049 4.6615921 0.8864803
-5.4249038 4.7345157 -1.3470259
-4.2431221 4.7925657 -3.2230422
-2.7538528 4.8147414 -4.2676794
-1.0897461 4.8184032 -4.8883699
0.8401452 4.7969552 -4.9431256
3.1376682 4.7437754 -4.2927347
-7.0154972 2.9147505 -0.4629540
-6.0213558 3.0272040 -2.8982488
-4.9747873 3.1229366 -5.0413751
-3.6716774 3.1741712 -6.4478464
-2.1069297 3.1853337 -7.2016223
-0.3893324 3.1755791 -7.6203876
1.5867245 3.1334346 -7.5279958
4.1413930 3.0221103 -6.3531323
-6.7711007 1.4016238 -4.8470082
-5.8099593 1.5339498 -7.1151348
-4.7189774 1.6318272 -8.9326149
-3.4684115 1.6938171 -10.2895728
-1.9283785 1.7012431 -10.9635735
-0.2619458 1.6873836 -11.3761122
1.6156542 1.6406926 -11.3913191
4.0014806 1.5178782 -10.4921205
10.0522668 0.8472710 -3.0155827
-9.4534333 0.6905324 -16.1272620
-8.7433047 0.8625290 -18.4343727
-4.7530527 0.2929740 -13.2031649
-3.6529015 0.3844608 -14.7047220
-2.2222261 0.4016963 -15.4522612
-0.6808344 0.3961498 -15.9719850
1.1099014 0.3434118 -16.0273989
3.2978776 0.2205164 -15.4026308
-9.1064972 -0.9707061 -15.2790529
-8.4913835 -0.7376022 -17.8543156
-7.8332736 -0.5331663 -20.1589070
-7.1924689 -0.3389609 -22.3542355
-6.5304137 -0.1633505 -24.3714209
-5.8277490 -0.0090103 -26.1911622
-5.1634139 0.1441880 -27.9845817
-4.4995201 0.2879660 -29.6834042
-3.7910149 0.4135503 -31.2171732
-3.0739575 0.5300674 -32.6633739
-2.3395132 0.6365288 -34.0155279
-1.5855202 0.7333669 -35.2788076
-0.8355729 0.8258636 -36.4970005
-8.7118346 -2.6826499 -14.3131447
-8.0830152 -2.4126438 -16.9058125
-7.3817467 -2.1848502 -19.1604526
-6.6584406 -1.9798419 -21.2259054
-5.9828860 -1.7754647 -23.2670544
-5.2923111 -1.5888272 -25.1600683
-4.5800187 -1.4199480 -26.9074235
-3.8543835 -1.2649875 -28.5391648
-3.1417705 -1.1161282 -30.1127883
-2.4215394 -0.9777849 -31.5980910
-1.6818984 -0.8517881 -32.9838228
-0.9500718 -0.7309269 -34.3218766
-0.1652218 -0.6281659 -35.5236427
-8.9132979 -4.7853852 -10.4184495
-8.2417762 -4.4622078 -13.1612303
-7.5320434 -4.1778891 -15.6216623
-6.8211477 -3.9151913 -17.9169812
-6.1531508 -3.6570713 -20.1601322
-5.4633419 -3.4238653 -22.2211871
-4.6143817 -3.2556507 -23.8479971
-3.9965838 -3.0288635 -25.8311746
-3.2461948 -2.8547965 -27.4634915
-2.5069569 -2.6880965 -29.0349419
-1.7221673 -2.5435733 -30.4547257
-1.0176905 -2.3859640 -31.9426941
-0.2086471 -2.2639404 -33.1998442
-8.4728275 -6.6455308 -9.2797319
-7.7637628 -6.2913914 -11.9899332
-7.0699998 -5.9586497 -14.5474653
-6.3335516 -5.6673549 -16.8383915
-5.6167507 -5.3896973 -19.0280351
-4.8555370 -5.1473048 -20.9940955
-4.0682794 -4.9301822 -22.7976153
-3.3679350 -4.6978780 -24.6701000
-2.5938352 -4.5041201 -26.3083457
-1.8002972 -4.3282054 -27.8322430
-1.0477779 -4.1500595 -29.3549062
-0.2559566 -3.9937048 -30.7441851
-7.9921217 -8.5709680 -8.0367673
-7.3032864 -8.1596113 -10.8622132
-6.5684909 -7.8008576 -13.3807048
-5.8274619 -7.4716702 -15.7187219
-5.0533426 -7.1799098 -17.8384995
-4.2602200 -6.9159978 -19.7936129
-3.4852569 -6.6627861 -21.6751323
-2.7251045 -6.4204738 -23.4831831
-1.9126335 -6.2121965 -25.1017872
-1.1289457 -6.0064955 -26.6927728
-0.3148015 -5.8231883 -28.1575011
-5.0201466 -9.4636754 -13.9220341
-4.3333376 -9.0898626 -16.3127710
-3.5628795 -8.7787245 -18.3837736
-2.7752943 -8.4957435 -20.3027884
-2.0079535 -8.2228810 -22.1564161
-1.1977063 -7.9841230 -23.8349939
-0.3794080 -7.7629562 -25.4175373
-3.8588024 -11.7083214 -11.3300326
-2.9770709 -11.3753378 -13.4194377
-2.1833536 -11.0236538 -15.5697893
-1.3560984 -10.7110868 -17.5309146
-0.4723806 -10.4439438 -19.2794864
0
0
0
0
0
0
0
0
0
0
0
0
0
0
0
0
0
0
0
0
0
0
0
0
0
0
0
0
0
0
0
0
0
0
0
0
0
0
0
0
0
0
0
0
0
0
0
0
0
0
0
0
0
0
0
0
0
0
0
0
0
0
0
0
0
0
0
0
0
0
0
0
0
0
0
0
0
0
0
0
0
0
0
0
0
0
0
0
0
0
0
0
0
0
0
0
0
0
0
0
0
0
0
0
0
0
0
0
0
0
0
0
0
0
0
0
0
0
0
0
0
0
0
0
0
0
0
0
0
0
0
0
0
0
0
0
0
0
0
0
0
0
0
0
0
0
0
0
0
0
0
0
0
0
0
0
0
0
0
0
0
0
0
0
0
0
0
0
0
0
0
0
0
0
0
0
0
0
0
0
0
0
0
0
0
0
0
0
0
0
0
0
0
0
0
0
0
0
0
0
0
0
0
0
0
0
0
0
0
0
0
0
0
0
0
0
0
0
0
0
0
0
0
0
0
0
0
0
0
0
0
0
0
0
0
0
0
0
0
0
0
0
0
0
0
0
0
0
0
0
0
0
0
0
0
0
0
0
0
0
0
0
0
0
0
0
0
0
0
0
0
0
0
0
0
0
0
0
0
0
0
0
0
0
0
0
0
0
0
0
0
0
0
0
0
0
0
0
0
0
0
0
0
0
0
0
0
0
0
0
0
0
0
0
0
0
0
0
0
0
0
0
0
0
0
0
0
0
0
0
0
0
0
0
0
0
0
0
0
0
0
0
0
0
0
0
0
0
0
0
0
0
0
0
0
0
0
0
0
0
0
0
0
0
0
0
0
0
0
0
0
0
0
0
0
0
0
0
0
0
0
0
0
0
0
0
0
0
0
0
0
0
0
0
0
0
0
0
0
0
0
0
0
0
0
0
0
0
0
0
0
0
0
0
0
0
0
0
0
0
0
0
0
0
0
0
0
0
0
0
0
0
0
0
0
0
0
0
0
0
0
0
0
0
0
0
0
0
0
0
0
0
0
0
0
0
0
0
0
0
0
0
0
0
0
0
0
0
0
0
0
0
0
0
0
0
0
0
0
0
0
0
0
0
0
0
0
0
0
0
0
0
0
0
0
0
0
0
0
0
0
0
0
0
0
0
0
0
0
0
0
0
0
0
0
0
0
0
0
0
0
0
0
0
0
0
0
0
0
0
0
0
0
0
0
0
0
0
0
0
0
0
0
0
0
0
0
0
0
0
0
0
0
0
0
0
0
0
0
0
0
0
0
0
0
0
0
0
0
0
0
0
0
0
0
0
0
0
0
0
0
0
0
0
0
0
0
0
0
0
0
0
0
0
0
0
0
0
0
0
0
0
0
0
0
0
0
0
0
0
0
0
0
0
0
0
0
0
0
0
0
0
0
0
0
0
0
0
0
0
0
0
0
0
0
0
0
0
0
0
0
0
0
0
0
0
0
0
0
0
0
0
0
0
0
0
0
0
0
0
0
0
0
0
0
0
0
0
0
0
0
0
0
0
0
0
0
0
0
0
0
0
0
0
0
0
0
0
0
0
0
0
0
0
0
0
0
0
0
0
0
0
0
0
0
0
0
0
0
0
0
0
0
0
0
0
0
0
0
0
0
0
0
0
0
0
0
0
0
0
0
0
0
0
0
0
0
0
0
0
0
0
0
0
0
0
0
0
0
0
0
0
0
0
0
0
0
0
0
0
0
0
0
0
0
0
0
0
0
0
0
0
0
0
0
0
0
0
0
0
0
0
0
0
0
0
0
0
0
0
0
0
0
0
0
0
0
0
0
0
0
0
0
0
0
0
0
0
0
0
0
0
0
0
0
0
0
0
0
0
0
0
0
0
0
0
0
0
0
0
0
0
0
0
0
0
0
0
0
0
0
0
0
0
0
0
0
0
0
0
0
0
0
0
0
0
0
0
0
0
0
0
0
0
0
0
0
0
0
0
0
0
0
0
0
0
0
0
0
0
0
0
0
0
0
0
0
0
0
0
0
0
0
0
0
0
0
0
0
0
0
0
0
0
0
0
0
0
0
0
0
0
0
0
0
0
0
0
0
0
1 0
0
0
0
0
0
0
0
0
0
0
0
0
0
0
0
0
0
0
0
0
0
0
0
0
0
0
0
0
0
0
0
0
0
0
0
0
0
0
0
0
0
0
0
0
0
0
0
0
0
0
1 1
1 2
1 3
0
0
0
0
0
0
0
0
0
0
0
0
0
0
0
0
0
0
0
0
0
0
0
0
0
0
0
0
0
0
0
0
0
0
0
0
0
0
0
0
0
0
0
0
0
0
0
1 4
1 5
1 6
1 7
1 8
0
0
0
0
0
0
0
0
0
0
0
0
0
0
0
0
0
0
0
0
0
0
0
0
0
0
0
0
0
0
0
0
0
0
0
0
0
0
0
0
0
0
0
0
0
1 9
1 10
1 11
1 12
1 13
1 14
0
0
0
0
0
0
0
0
0
0
0
0
0
0
0
0
0
0
0
0
0
0
0
0
0
0
0
0
0
0
0
0
0
0
0
0
0
0
0
0
0
0
0
0
1 15
1 16
1 17
1 18
1 19
1 20
1 21
0
0
0
0
0
0
0
0
0
0
0
0
0
0
0
0
0
0
0
0
0
0
0
0
0
0
0
0
0
0
0
0
0
0
0
0
0
0
0
0
0
0
0
1 22
1 23
1 24
1 25
1 26
1 27
1 28
1 29
0
0
0
0
0
0
0
0
0
0
0
0
0
0
0
0
0
0
0
0
0
0
0
0
0
0
0
0
0
0
0
0
0
0
0
0
0
0
0
0
0
0
0
1 30
1 31
1 32
1 33
1 34
1 35
1 36
1 37
1 38
0
0
0
0
0
0
0
0
0
0
0
0
0
0
0
0
0
0
0
0
0
0
0
0
0
0
0
0
0
0
0
0
0
0
0
0
0
0
0
0
0
0
1 39
1 40
1 41
1 42
1 43
1 44
1 45
1 46
0
0
0
0
0
0
0
0
0
0
0
0
0
0
0
0
0
0
0
0
0
0
0
0
0
0
0
0
0
0
0
0
0
0
0
0
0
0
0
0
0
0
1 47
1 48
1 49
1 50
1 51
1 52
1 53
1 54
1 55
1 56
1 57
1 58
1 59
0
0
0
0
0
0
0
0
0
0
0
0
0
0
0
0
0
0
0
0
0
0
0
0
0
0
0
0
0
0
0
0
0
0
0
0
0
1 60
1 61
1 62
1 63
1 64
1 65
1 66
1 67
1 68
1 69
1 70
1 71
1 72
0
0
0
0
0
0
0
0
0
0
0
0
0
0
0
0
0
0
0
0
0
0
0
0
0
0
0
0
0
0
0
0
0
0
0
0
1 73
1 74
1 75
1 76
1 77
1 78
1 79
1 80
1 81
1 82
1 83
1 84
1 85
0
0
0
0
0
0
0
0
0
0
0
0
0
0
0
0
0
0
0
0
0
0
0
0
0
0
0
0
0
0
0
0
0
0
0
0
0
1 86
1 87
1 88
1 89
1 90
1 91
1 92
1 93
1 94
1 95
1 96
1 97
0
0
0
0
0
0
0
0
0
0
0
0
0
0
0
0
0
0
0
0
0
0
0
0
0
0
0
0
0
0
0
0
0
0
0
0
0
0
1 98
1 99
1 100
1 101
1 102
1 103
1 104
1 105
1 106
1 107
1 108
0
0
0
0
0
0
0
0
0
0
0
0
0
0
0
0
0
0
0
0
0
0
0
0
0
0
0
0
0
0
0
0
0
0
0
0
0
0
0
0
0
0
1 109
1 110
1 111
1 112
1 113
1 114
1 115
0
0
0
0
0
0
0
0
0
0
0
0
0
0
0
0
0
0
0
0
0
0
0
0
0
0
0
0
0
0
0
0
0
0
0
0
0
0
0
0
0
0
0
1 116
1 117
1 118
1 119
1 120
0
0
0
0
0
0
0
0
0
0
0
0
0
0
0
0
0
0
0
0
0
0
0
0
0
0
0
0
0
0
0
0
0
0
0
0
0
0
0
0
0
0
0
0
0
0
0
0
0
0
0
0
0
0
0
0
0
0
0
0
0
0
0
0
0
0
0
0
0
0
0
0
0
0
0
0
0
0
0
0
0
0
0
0
0
0
0
0
0
0
0
0
0
0
0
0
0
0
0
0
0
0
0
0
0
0
0
0
0
0
0
0
0
0
0
0
0
0
0
0
0
0
0
0
0
0
0
0
0
0
0
0
0
0
0
0
0
0
0
0
0
0
0
0
0
0
0
0
0
0
0
0
0
0
0
0
0
0
0
0
0
0
0
0
0
0
0
0
0
0
0
0
0
0
0
0
0
0
0
0
0
0
0
0
0
0
0
0
0
0
0
0
0
0
0
0
0
0
0
0
0
0
0
0
0
0
0
0
0
0
0
0
0
0
0
0
0
0
0
0
0
0
0
0
0
0
0
0
0
0
0
0
0
0
0
0
0
0
0
0
0
0
0
0
0
0
0
0
0
0
0
0
0
0
0
0
0
0
0
0
0
0
0
0
0
0
0
0
0
0
0
0
0
0
0
0
0
0
0
0
0
0
0
0
0
0
0
0
0
0
0
0
0
0
0
0
0
0
0
0
0
0
0
0
0
0
0
0
0
0
0
0
0
0
0
0
0
0
0
0
0
0
0
0
0
0
0
0
0
0
0
0
0
0
0
0
0
0
0
0
0
0
0
0
0
0
0
0
0
0
0
0
0
0
0
0
0
0
0
0
0
0
0
0
0
0
0
0
0
0
0
0
0
0
0
0
0
0
0
0
0
0
0
0
0
0
0
0
0
0
0
0
0
0
0
0
0
0
0
0
0
0
0
0
0
0
0
0
0
0
0
0
0
0
0
0
0
0
0
0
0
0
0
0
0
0
0
0
0
0
0
0
0
0
0
0
0
0
0
0
0
0
0
0
0
0
0
0
0
0
0
0
0
0
0
0
0
0
0
0
0
0
0
0
0
0
0
0
0
0
0
0
0
0
0
0
0
0
0
0
0
0
0
0
0
0
0
0
0
0
0
0
0
0
0
0
0
0
0
0
0
0
0
0
0
0
0
0
0
0
0
0
0
0
0
0
0
0
0
0
0
0
0
0
0
0
0
0
0
0
0
0
0
0
0
0
0
0
0
0
0
0
0
0
0
0
0
0
0
0
0
0
0
0
0
0
0
0
0
0
0
0
0
0
0
0
0
0
0
0
0
0
0
0
0
0
0
0
0
0
0
0
0
0
0
0
0
0
0
0
0
0
0
0
0
0
0
0
0
0
0
0
0
0
0
0
0
0
0
0
0
0
0
0
0
0
0
0
0
0
0
0
0
0
0
0
0
0
0
0
0
0
0
0
0
0
0
0
0
0
0
0
0
0
0
0
0
0
0
0
0
0
0
0
0
0
0
0
0
0
0
0
0
0
0
0
0
0
0
0
0
0
0
0
0
0
0
0
0
0
0
0
0
0
0
0
0
0
0
0
0
0
0
0
0
0
0
0
0
0
0
0
0
0
0
0
0
0
0
0
0
0
0
0
0
0
0
0
0
0
0
0
0
0
0
0
0
0
0
0
0
0
0
0
0
0
0
0
0
0
0
0
0
0
0
0
0
0
0
0
0
0
0
0
0
0
0
0
0
0
0
0
0
0
0
0
0
0
0
0
0
0
0
0
0
0
0
0
0
0
0
0
0
0
0
0
0
0
0
0
0
0
0
0
0
0
0
0
0
0
0
0
0
0
0
0
0
0
0
0
0
0
0
0
0
0
0
0
0
0
0
0
0
0
0
0
0
0
0
0
0
0
0
0
0
0
0
0
0
0
0
0
0
0
0
0
0
0
0
0
0
0
0
0
0
0
0
0
0
0
0
0
0
0
0
0
0
0
0
0
