ply
format ascii 1.0
obj_info num_cols 50
obj_info num_rows 50
element vertex 341
property float x
property float y
property float z
element range_grid 2500
property list uchar int vertex_indices
end_header
-4.6637297 13.6828168 22.0863631
-1.1049203 13.7599423 20.8810729
-2.0694547 11.9596830 20.7638391
-2.9884955 11.9817439 15.3111986
-1.4535396 11.9948327 13.6646692
-2.0320454 10.1712950 20.7964321
-3.9478027 10.2111573 16.9933860
-3.7966521 10.2162155 15.2473785
-3.6101557 10.2208363 13.4971781
-3.4202319 10.2254456 11.7388566
-3.1076816 10.2284879 9.9784072
-1.6084459 10.2161647 8.2474482
-4.6188829 8.4538253 20.4350659
-4.7329854 8.4631184 18.6709739
-4.7195120 8.4686179 16.9233783
-4.7735791 8.4761283 15.1662860
-4.7631970 8.4817336 13.4141976
-4.7713839 8.4878959 11.6582667
-4.4751260 8.4850915 9.9161709
-4.7443710 8.4989640 8.1420346
-4.2901326 8.4915703 6.3882541
-1.7759941 8.4238637 4.6223881
-6.9682545 6.7995022 21.8194161
-6.6867818 6.7958691 18.4325967
-6.8741079 6.8092132 16.6903943
-6.8826108 6.8143058 14.9702556
-6.8861031 6.8191729 13.2486291
-6.8809868 6.8236498 11.5255103
-7.0160361 6.8345736 9.7927354
-6.9438964 6.8359806 8.0695641
-6.8762118 6.8376044 6.3417215
-4.7775928 6.7461969 4.6144981
-3.9667907 6.7139260 2.8337207
-1.8167652 6.6205020 0.9828309
-6.9719563 5.0681296 25.2692547
-7.1290498 5.0815667 23.5307817
-6.9582834 5.0744343 21.8500241
-6.8117998 5.0688404 20.1578433
-6.9019547 5.0780868 18.4269022
-7.0543932 5.0912315 16.6893835
-6.9707118 5.0895934 14.9786331
-6.9675599 5.0930026 13.2560884
-7.0045914 5.0989287 11.5284831
-6.9931118 5.1018259 9.8024185
-7.0129843 5.1066862 8.0726502
-6.9981943 5.1093866 6.3419844
-6.9738603 5.1114973 4.6086350
-6.9267591 5.1121950 2.8719360
-6.2291821 5.0723724 1.1114983
-5.5126842 5.0314247 -0.6752422
-4.7450912 4.9873517 -2.4913347
-2.6742687 4.8622744 -4.4402619
-7.1485912 3.3590195 21.8472304
-7.0493967 3.3536482 20.1481590
-4.7047808 3.1730305 16.9870901
-7.0032706 3.3574814 14.9926851
-6.9477025 3.3555872 13.2722020
-6.9984128 3.3621044 11.5403796
-7.0913028 3.3719574 9.8058180
-7.1651536 3.3803042 8.0727887
-7.1779878 3.3838293 6.3411481
-7.1515715 3.3842565 4.6078082
-7.2066846 3.3911265 2.8725153
-7.2543320 3.3974077 1.1365936
-6.8683598 3.3694679 -0.6205167
-6.2463150 3.3229245 -2.4078421
-5.5011935 3.2667069 -4.2281066
-4.3252799 3.1765612 -6.1174994
2.2748160 0.7184638 29.0560207
2.0803187 0.7386032 27.1525790
-7.1865784 1.6307833 20.1536242
-7.1204534 1.6258334 18.4440063
-6.7490909 1.5916566 16.7661126
-6.8297396 1.6007715 15.0277642
-7.1518115 1.6329991 13.2692675
-7.1907553 1.6381179 11.5386637
-7.2055826 1.6409292 9.8083904
-7.3349372 1.6547019 8.0723018
-7.2946242 1.6522385 6.3415173
-7.3002689 1.6541748 4.6070535
-7.3373937 1.6591239 2.8709909
-7.3554639 1.6622515 1.1333419
-7.4112398 1.6689861 -0.6041546
-7.3345717 1.6630573 -2.3505285
-6.9810288 1.6306622 -4.1240995
-6.4555520 1.5818435 -5.9285343
-5.8155698 1.5220967 -7.7659358
-5.0250369 1.4479821 -9.6468319
-3.8501645 1.3371675 -11.6134384
-1.0482789 1.0709491 -13.8899273
7.9654881 0.2114381 -17.3911296
7.4146307 0.2656748 -19.3006698
6.8292379 0.3231965 -21.1867882
6.1945580 0.3854103 -23.0442758
5.5026685 0.4530706 -24.8686219
4.7773843 0.5239018 -26.6632182
4.0629378 0.5936809 -28.4388453
3.1279915 0.6844840 -30.1265906
2.2757498 0.7673725 -31.8113033
1.4035607 0.8521426 -33.4628530
-0.8267194 1.0679582 -36.5052538
-9.9342376 0.1987063 28.1128654
-10.5616920 0.2695180 26.3111373
-10.6143293 0.2756973 24.6431859
-10.5582432 0.2696527 22.9948764
-10.5802671 0.2723906 21.3294911
-10.5776149 0.2723544 19.6664383
-10.4870000 0.2624294 18.0130370
-10.5938370 0.2747032 16.3311216
-10.5881799 0.2743302 14.6620609
-10.6328429 0.2796144 12.9863707
-10.6244126 0.2789303 11.3136680
-10.6471010 0.2817447 9.6369070
-10.6487934 0.2821991 7.9594934
-10.6558278 0.2832544 6.2798748
-10.6899408 0.2873537 4.5982599
-10.6696121 0.2853338 2.9148424
-10.7164465 0.2908634 1.2306481
-10.7304886 0.2927074 -0.4557167
-10.7584116 0.2961118 -2.1428984
-10.7610643 0.2966763 -3.8333747
-10.7756861 0.2985862 -5.5247780
-10.8073030 0.3024065 -7.2159339
-10.7333936 0.2943676 -8.9220832
-10.5112736 0.2696735 -10.6548808
-10.2075473 0.2358103 -12.4108353
-9.8630534 0.1973678 -14.1866671
-9.4450882 0.1506713 -15.9909680
-8.8853711 0.0880489 -17.8422227
-8.2880563 0.0212051 -19.7234339
-7.6265061 -0.0528528 -21.6432048
-6.9488978 -0.1287112 -23.5920080
-5.9958371 -0.2355150 -25.6442747
-4.9334687 -0.3545947 -27.7641764
-3.8242791 -0.4789289 -29.9375215
-2.3469581 -0.6446164 -32.2743386
-0.5742256 -0.8434845 -34.7679979
-10.6063627 -1.4113291 23.0171606
-10.6135510 -1.4112199 21.3522243
-10.6376339 -1.4089301 19.6828283
-10.5488712 -1.4212128 18.0273420
-10.5949734 -1.4160818 16.3507795
-10.6207240 -1.4135794 14.6756721
-10.6313965 -1.4130250 13.0005566
-10.6355905 -1.4133084 11.3240873
-10.6472245 -1.4126316 9.6452088
-10.6589419 -1.4119450 7.9645515
-10.6451934 -1.4145491 6.2826050
-10.6683267 -1.4123896 4.5979385
-10.6593269 -1.4143825 2.9114125
-10.6926180 -1.4109121 1.2237144
-10.6270558 -1.4202160 -0.4697624
-10.6635482 -1.4163338 -2.1610509
-10.7853588 -1.4014258 -3.8463837
-10.7539835 -1.4063154 -5.5448256
-10.6258170 -1.4237170 -7.2576278
-10.3578795 -1.4591889 -8.9953411
-10.0254193 -1.5030070 -10.7538756
-9.6055687 -1.5581294 -12.5403012
-9.1915015 -1.6125121 -14.3420957
-8.6210990 -1.6871161 -16.1912843
-7.9983083 -1.7685047 -18.0733830
-7.3104747 -1.8583155 -19.9940500
-6.4430533 -1.9713631 -21.9852886
-5.4996176 -2.0942571 -24.0286529
-4.3679128 -2.2415181 -26.1599811
-3.1617385 -2.3984315 -28.3547025
-1.6050143 -2.6007109 -30.7045707
-10.6211190 -3.1013614 23.0456907
-10.4007415 -3.1354110 21.4164820
-10.5812271 -3.1109961 19.7169626
-10.2978852 -3.1542457 18.0840572
-10.3607588 -3.1469918 16.3984781
-10.6696504 -3.1038365 14.6876548
-10.3903117 -3.1465237 13.0353310
-10.3942123 -3.1478801 11.3519958
-10.6637891 -3.1104534 9.6526765
-10.4336016 -3.1459877 7.9780654
-10.3802885 -3.1557051 6.2902172
-10.6224573 -3.1222736 4.5976757
-10.5313190 -3.1375193 2.9062943
-10.4478285 -3.1516538 1.2099123
-10.6746277 -3.1204601 -0.4766512
-10.7942074 -3.1049273 -2.1647204
-10.6474772 -3.1283110 -3.8726231
-10.5054368 -3.1510173 -5.5872025
-10.1889969 -3.1992252 -7.3288250
-9.8024604 -3.2576958 -9.0925772
-9.4172178 -3.3159947 -10.8714181
-8.9268429 -3.3896853 -12.6829390
-8.2635790 -3.4886835 -14.5448792
-7.7019229 -3.5728473 -16.4113031
-6.7587554 -3.7128488 -18.3816730
-6.0606685 -3.8170307 -20.3291861
-4.9408312 -3.9829588 -22.4084384
-3.8678091 -4.1420818 -24.5156814
-2.4949827 -4.3451325 -26.7472477
-0.8348526 -4.5902988 -29.1148096
2.0999473 -6.8476797 36.6572993
-10.5893243 -4.8012918 24.7504920
-10.4115029 -4.8332087 23.1158734
-10.4988282 -4.8220130 21.4285104
-10.5939364 -4.8095498 19.7406963
-10.5222216 -4.8242291 18.0764995
-10.5485972 -4.8229531 16.3960907
-10.5833132 -4.8203218 14.7135393
-10.5593143 -4.8272512 13.0350152
-10.5977864 -4.8240137 11.3491984
-10.6700973 -4.8152667 9.6607094
-10.6081336 -4.8283916 7.9772725
-10.5834710 -4.8354469 6.2888694
-10.6829778 -4.8222740 4.5971485
-10.6538984 -4.8300563 2.9047327
-10.6834759 -4.8282825 1.2109688
-10.7598363 -4.8188833 -0.4817633
-10.6563940 -4.8388044 -2.1857508
-10.3733490 -4.8880294 -3.9100539
-10.0560797 -4.9428587 -5.6494713
-9.6558466 -5.0112479 -7.4113720
-9.2209530 -5.0853219 -9.1936064
-8.6843764 -5.1760235 -11.0079497
-8.0924604 -5.2757963 -12.8519126
-7.3956423 -5.3927383 -14.7374150
-6.5291882 -5.5374313 -16.6827831
-5.6991240 -5.6762373 -18.6520405
-4.5340705 -5.8698279 -20.7302555
-3.3526221 -6.0661733 -22.8546714
-1.8472872 -6.3155312 -25.1086240
-10.0705113 -6.5728067 34.9182539
-6.5634695 -7.2054530 34.2491204
-10.3914792 -6.5275406 29.8329037
-10.5137785 -6.5096994 28.1369404
-10.5738628 -6.5030141 26.4564563
-10.5295457 -6.5150619 24.7968998
-10.5402040 -6.5172521 23.1235324
-10.5388936 -6.5215953 21.4503862
-10.5728424 -6.5196130 19.7696645
-10.5527500 -6.5273387 18.0952478
-10.6266870 -6.5181806 16.4067856
-10.6025432 -6.5266442 14.7286772
-10.6723438 -6.5182321 13.0395142
-10.6587232 -6.5248149 11.3562835
-10.7314810 -6.5158737 9.6658707
-10.7040891 -6.5249425 7.9793037
-10.6887263 -6.5318552 6.2894019
-10.7510670 -6.5247942 4.5966018
-10.7113157 -6.5361060 2.9022355
-10.7141575 -6.5397595 1.2056590
-10.5545180 -6.5726718 -0.5008113
-10.2553930 -6.6307218 -2.2238972
-9.9443017 -6.6909574 -3.9602615
-9.4921045 -6.7766469 -5.7232525
-9.0372041 -6.8628664 -7.5040799
-8.4456378 -6.9737633 -9.3206400
-7.8473963 -7.0859184 -11.1605131
-7.0960655 -7.2257361 -13.0484202
-6.2302269 -7.3862763 -14.9851397
-5.2651158 -7.5648049 -16.9735199
-4.1048998 -7.7786283 -19.0395168
-2.7975956 -8.0191041 -21.1819321
-1.1523904 -8.3207007 -23.4563539
-10.4035178 -8.2185572 34.8696915
-10.6047050 -8.1842908 33.1489616
-10.5199172 -8.2060949 31.5094371
-10.5554837 -8.2043046 29.8346708
-10.5344094 -8.2136314 28.1722641
-10.5509383 -8.2155867 26.4987831
-10.5412857 -8.2226870 24.8289937
-10.5809144 -8.2201174 23.1475708
-10.5546132 -8.2305008 21.4764591
-10.5922191 -8.2283373 19.7925534
-10.6559539 -8.2210417 18.1041720
-10.6611760 -8.2252487 16.4227269
-10.6826722 -8.2262619 14.7376074
-10.6962713 -8.2288328 13.0517053
-10.6828637 -8.2367224 11.3659494
-10.6809908 -8.2423502 9.6769500
-10.7092466 -8.2420546 7.9846118
-10.7099721 -8.2471833 6.2915542
-10.7387742 -8.2467893 4.5962521
-10.6679537 -8.2660244 2.8982855
-10.4084003 -8.3224635 1.1898480
-10.0960311 -8.3893467 -0.5320817
-9.7118656 -8.4704245 -2.2714284
-9.2644721 -8.5640187 -4.0311538
-8.7086814 -8.6790494 -5.8189518
-8.0446485 -8.8155031 -7.6403443
-7.3232860 -8.9633488 -9.4941294
-6.4529388 -9.1406902 -11.3969799
-5.4552932 -9.3432686 -13.3529344
-4.2422357 -9.5885088 -15.3847278
-2.5945632 -9.9197549 -17.5474134
-9.2400194 -10.1839199 33.5870197
-9.1872176 -10.2015381 31.9136370
-9.2082537 -10.2034373 30.2177102
-9.2606181 -10.1986644 28.5129107
-9.2062061 -10.2166592 26.8310690
-9.2612368 -10.2113279 25.1230543
-9.2195702 -10.2266269 23.4326697
-9.2853566 -10.2190091 21.7204882
-9.2133555 -10.2408036 20.0293641
-9.2036487 -10.2493142 18.3251501
-9.1790209 -10.2610213 16.6201884
-9.1924843 -10.2646017 14.9082687
-9.2369671 -10.2615595 13.1919035
-9.1729231 -10.2817205 11.4823513
-9.1441055 -10.2943652 9.7665678
-9.1985619 -10.2892095 8.0445841
-9.1707752 -10.3016525 6.3237757
-9.2012153 -10.3016453 4.5996499
-9.0168857 -10.3476233 2.8712170
-8.6976070 -10.4225334 1.1301095
-8.2559311 -10.5237125 -0.6299162
-7.7718154 -10.6340508 -2.4098928
-7.2185301 -10.7592858 -4.2141972
-6.5793522 -10.9030166 -6.0480339
-5.8318779 -11.0700649 -7.9184091
-5.0451192 -11.2456459 -9.8217235
-3.7758568 -11.5248839 -11.8264273
-0.9440979 -12.1397120 -14.1373918
-7.2298475 -12.3917799 32.4873889
-7.1980504 -12.4067547 30.7695943
-7.2053424 -12.4127482 29.0392865
-7.1810023 -12.4260326 27.3139326
-7.1833052 -12.4331950 25.5801231
-7.1743899 -12.4429513 23.8462379
-7.0900857 -12.4700907 22.1226119
-7.1793966 -12.4572336 20.3673309
-7.0816886 -12.4874958 18.6383012
-7.1093774 -12.4888594 16.8887214
-7.0261535 -12.5158195 15.1492387
-6.9504550 -12.5410652 13.4040500
-6.9741330 -12.5433887 11.6471243
-6.8974606 -12.5688946 9.8940170
-6.8525083 -12.5870940 8.1349016
-6.9091095 -12.5818415 6.3700214
-0.7517712 -14.0380353 -1.0010531
-0.7258454 -14.0523738 -2.8813229
-0.7881679 -14.0462933 -4.7576873
-0.7532220 -14.0627441 -6.6440312
-0.6681128 -14.0908339 -8.5398486
0
0
0
0
0
0
0
0
0
0
0
0
0
0
0
0
0
0
0
0
0
0
0
0
0
0
0
0
0
0
0
0
0
0
0
0
0
0
0
0
0
0
0
0
0
0
0
0
0
0
0
0
0
0
0
0
0
0
0
0
0
0
0
0
0
0
0
0
0
0
0
0
0
0
0
0
0
0
0
0
0
0
0
0
0
0
0
0
0
0
0
0
0
0
0
0
0
0
0
0
0
0
0
0
0
0
0
0
0
0
0
0
0
0
0
0
0
0
0
0
0
0
0
0
0
0
0
0
0
0
0
0
0
0
0
0
0
0
0
0
0
0
0
0
0
0
0
0
0
0
0
0
0
0
0
0
0
0
0
0
0
0
0
0
0
0
0
0
0
0
0
0
0
0
0
0
0
0
0
0
0
0
0
0
0
0
0
0
0
0
0
0
0
0
0
0
0
0
0
0
0
0
0
0
0
0
0
0
0
0
0
0
0
0
0
0
0
0
0
0
0
0
0
0
0
0
0
0
0
0
0
0
0
0
0
0
0
0
0
0
0
0
0
0
0
0
0
0
0
0
0
0
0
0
0
0
0
0
0
0
0
0
0
0
0
0
0
0
0
0
0
0
0
0
0
0
0
0
0
0
0
0
0
0
0
0
0
0
0
0
0
0
0
0
0
0
0
0
0
0
0
0
0
0
0
0
0
0
0
0
0
0
0
0
0
0
0
0
0
0
0
0
0
0
0
0
0
0
0
0
0
0
0
0
0
0
0
0
0
0
0
0
0
0
0
0
0
0
0
0
0
0
0
0
0
0
0
0
0
0
0
0
0
0
0
0
0
0
0
0
0
0
0
0
0
0
0
0
0
0
0
0
0
0
0
0
0
0
0
0
0
0
0
0
0
0
0
0
0
0
0
0
0
0
0
0
0
0
0
0
0
0
0
0
0
0
0
0
0
0
0
0
0
0
0
0
0
0
0
0
0
0
0
0
0
0
0
0
0
0
0
0
0
0
0
0
0
0
0
0
0
0
0
0
0
0
0
0
0
0
0
0
0
0
0
0
0
0
0
0
0
0
0
0
0
0
0
0
0
0
0
0
0
0
0
0
0
0
0
0
0
0
0
0
0
0
0
0
0
0
0
0
0
0
0
0
0
0
0
0
0
0
0
0
0
0
0
0
0
0
0
0
0
0
0
0
0
0
0
0
0
0
0
0
0
0
0
0
0
0
0
0
0
0
0
0
0
0
0
0
0
0
0
0
0
0
0
0
0
0
0
0
0
0
0
0
0
0
0
0
0
0
0
0
0
0
0
0
0
0
0
0
0
0
0
0
0
0
0
0
0
0
0
0
0
0
0
0
0
0
0
0
0
0
0
0
0
0
0
0
0
0
0
0
0
0
0
0
0
0
0
0
0
0
0
0
0
0
0
0
0
0
0
0
0
0
0
0
0
0
0
0
0
0
0
0
0
0
0
0
0
0
0
0
0
0
0
0
0
0
0
0
0
0
0
0
0
0
0
0
0
0
0
0
0
0
0
0
0
0
0
0
0
0
0
0
0
0
0
0
0
0
0
0
0
0
0
0
0
0
0
0
0
0
0
0
0
0
0
0
0
0
0
0
0
0
0
0
0
0
0
0
0
0
0
0
0
0
0
0
0
0
0
0
0
0
0
0
0
0
0
0
0
0
0
0
0
0
0
0
0
0
0
0
0
0
0
0
0
0
0
0
0
0
0
0
0
0
0
0
0
0
0
0
0
0
0
0
0
0
0
0
0
0
0
0
0
0
0
0
0
0
0
0
0
0
0
0
0
0
0
0
0
0
0
0
0
0
0
0
0
0
0
0
0
0
0
0
0
0
0
0
0
0
0
0
0
0
0
0
0
0
0
0
0
0
0
0
0
0
0
0
0
0
0
0
0
0
0
0
0
0
0
0
0
0
0
0
0
0
0
0
1 0
1 1
0
0
0
0
0
0
0
0
0
0
0
0
0
0
0
0
0
0
0
0
0
0
0
0
0
0
0
0
0
0
0
0
0
0
0
0
0
0
0
0
0
0
0
0
0
0
0
0
0
1 2
0
0
1 3
1 4
0
0
0
0
0
0
0
0
0
0
0
0
0
0
0
0
0
0
0
0
0
0
0
0
0
0
0
0
0
0
0
0
0
0
0
0
0
0
0
0
0
0
0
0
0
1 5
0
1 6
1 7
1 8
1 9
1 10
1 11
0
0
0
0
0
0
0
0
0
0
0
0
0
0
0
0
0
0
0
0
0
0
0
0
0
0
0
0
0
0
0
0
0
0
0
0
0
0
0
0
0
0
1 12
1 13
1 14
1 15
1 16
1 17
1 18
1 19
1 20
1 21
0
0
0
0
0
0
0
0
0
0
0
0
0
0
0
0
0
0
0
0
0
0
0
0
0
0
0
0
0
0
0
0
0
0
0
0
0
0
0
1 22
0
1 23
1 24
1 25
1 26
1 27
1 28
1 29
1 30
1 31
1 32
1 33
0
0
0
0
0
0
0
0
0
0
0
0
0
0
0
0
0
0
0
0
0
0
0
0
0
0
0
0
0
0
0
0
0
0
0
1 34
1 35
1 36
1 37
1 38
1 39
1 40
1 41
1 42
1 43
1 44
1 45
1 46
1 47
1 48
1 49
1 50
1 51
0
0
0
0
0
0
0
0
0
0
0
0
0
0
0
0
0
0
0
0
0
0
0
0
0
0
0
0
0
0
0
0
0
0
1 52
1 53
0
1 54
1 55
1 56
1 57
1 58
1 59
1 60
1 61
1 62
1 63
1 64
1 65
1 66
1 67
0
0
0
0
0
0
0
0
0
0
0
0
0
0
0
0
0
0
0
0
0
0
0
0
0
0
0
0
0
0
1 68
1 69
0
0
1 70
1 71
1 72
1 73
1 74
1 75
1 76
1 77
1 78
1 79
1 80
1 81
1 82
1 83
1 84
1 85
1 86
1 87
1 88
1 89
1 90
1 91
1 92
1 93
1 94
1 95
1 96
1 97
1 98
1 99
0
1 100
0
0
0
0
0
0
0
0
0
0
0
0
0
1 101
1 102
1 103
1 104
1 105
1 106
1 107
1 108
1 109
1 110
1 111
1 112
1 113
1 114
1 115
1 116
1 117
1 118
1 119
1 120
1 121
1 122
1 123
1 124
1 125
1 126
1 127
1 128
1 129
1 130
1 131
1 132
1 133
1 134
1 135
1 136
0
0
0
0
0
0
0
0
0
0
0
0
0
0
0
0
0
1 137
1 138
1 139
1 140
1 141
1 142
1 143
1 144
1 145
1 146
1 147
1 148
1 149
1 150
1 151
1 152
1 153
1 154
1 155
1 156
1 157
1 158
1 159
1 160
1 161
1 162
1 163
1 164
1 165
1 166
1 167
0
0
0
0
0
0
0
0
0
0
0
0
0
0
0
0
0
0
0
1 168
1 169
1 170
1 171
1 172
1 173
1 174
1 175
1 176
1 177
1 178
1 179
1 180
1 181
1 182
1 183
1 184
1 185
1 186
1 187
1 188
1 189
1 190
1 191
1 192
1 193
1 194
1 195
1 196
1 197
0
0
0
0
0
0
0
0
0
0
0
0
0
0
1 198
0
0
0
0
1 199
1 200
1 201
1 202
1 203
1 204
1 205
1 206
1 207
1 208
1 209
1 210
1 211
1 212
1 213
1 214
1 215
1 216
1 217
1 218
1 219
1 220
1 221
1 222
1 223
1 224
1 225
1 226
1 227
0
0
0
0
0
0
0
0
0
0
0
0
0
0
0
1 228
1 229
0
1 230
1 231
1 232
1 233
1 234
1 235
1 236
1 237
1 238
1 239
1 240
1 241
1 242
1 243
1 244
1 245
1 246
1 247
1 248
1 249
1 250
1 251
1 252
1 253
1 254
1 255
1 256
1 257
1 258
1 259
1 260
0
0
0
0
0
0
0
0
0
0
0
0
0
0
0
0
1 261
1 262
1 263
1 264
1 265
1 266
1 267
1 268
1 269
1 270
1 271
1 272
1 273
1 274
1 275
1 276
1 277
1 278
1 279
1 280
1 281
1 282
1 283
1 284
1 285
1 286
1 287
1 288
1 289
1 290
1 291
0
0
0
0
0
0
0
0
0
0
0
0
0
0
0
0
0
0
0
0
1 292
1 293
1 294
1 295
1 296
1 297
1 298
1 299
1 300
1 301
1 302
1 303
1 304
1 305
1 306
1 307
1 308
1 309
1 310
1 311
1 312
1 313
1 314
1 315
1 316
1 317
1 318
1 319
0
0
0
0
0
0
0
0
0
0
0
0
0
0
0
0
0
0
0
0
0
0
0
1 320
1 321
1 322
1 323
1 324
1 325
1 326
1 327
1 328
1 329
1 330
1 331
1 332
1 333
1 334
1 335
0
0
0
1 336
1 337
1 338
1 339
1 340
0
0
0
0
0
0
0
0
0
0
0
0
0
0
0
0
0
0
0
0
0
0
0
0
0
0
0
0
0
0
0
0
0
0
0
0
0
0
0
0
0
0
0
0
0
0
0
0
0
0
0
0
0
0
0
0
0
0
0
0
0
0
0
0
0
0
0
0
0
0
0
0
0
0
0
0
0
0
0
0
0
0
0
0
0
0
0
0
0
0
0
0
0
0
0
0
0
0
0
0
0
0
0
0
0
0
0
0
0
0
0
0
0
0
0
0
0
0
0
0
0
0
0
0
0
0
0
0
0
0
0
0
0
0
0
0
0
0
0
0
0
0
0
0
0
0
0
0
0
0
0
0
0
0
0
0
0
0
0
0
0
0
0
0
0
0
0
0
0
0
0
0
0
0
0
0
0
0
0
0
0
0
0
0
0
0
0
0
0
0
0
0
0
0
0
0
0
0
0
0
0
0
0
0
0
0
0
0
0
0
0
0
0
0
0
0
0
0
0
0
0
0
0
0
0
0
0
0
0
0
0
0
0
0
0
0
0
0
0
0
0
0
0
0
0
0
0
0
0
0
0
0
0
0
0
0
0
0
0
0
0
0
0
0
0
0
0
0
0
0
0
0
0
0
0
0
0
0
0
0
0
0
0
0
0
0
0
0
0
0
0
0
0
0
0
0
0
0
0
0
0
0
0
0
0
0
0
0
0
0
0
0
0
0
0
0
0
0
0
0
0
0
0
0
0
0
0
0
0
0
0
0
0
0
0
0
0
0
0
0
0
0
0
0
0
0
0
0
0
0
0
0
0
0
0
0
0
0
0
0
0
0
0
0
0
0
0
0
0
0
0
0
0
0
0
0
0
0
0
0
0
0
0
0
0
0
0
0
0
0
0
0
0
0
0
0
0
0
0
0
0
0
0
0
0
0
0
0
0
0
0
0
0
0
0
0
0
0
0
0
0
0
0
0
0
0
0
0
0
0
0
0
0
0
0
0
0
0
0
0
0
0
0
0
0
0
0
0
0
0
0
0
0
0
0
0
0
0
0
0
0
0
0
0
0
0
0
0
0
0
0
0
0
0
0
0
0
0
0
0
0
0
0
0
0
0
0
0
0
0
0
0
0
0
0
0
0
0
0
0
0
0
0
0
0
0
0
0
0
0
0
0
0
0
0
0
0
0
0
0
0
0
0
0
0
0
0
0
0
0
0
0
0
0
0
0
0
0
0
0
0
0
0
0
0
0
0
0
0
0
0
0
0
0
0
0
0
0
0
0
0
0
0
0
0
0
0
0
0
0
0
0
0
0
0
0
0
0
0
0
0
0
0
0
0
0
0
0
0
0
0
0
0
0
0
0
0
0
0
0
0
0
0
0
0
0
0
0
0
0
0
0
0
0
0
0
0
0
0
0
0
0
0
0
0
0
0
0
0
0
0
0
0
0
0
0
0
0
0
0
0
0
0
0
0
0
0
0
0
0
0
0
0
0
0
0
0
0
0
0
0
0
0
0
0
0
0
0
0
0
0
0
0
0
0
0
0
0
0
0
0
0
0
0
0
0
0
0
0
0
0
0
0
0
0
0
0
0
0
0
0
0
0
0
0
0
0
0
0
0
0
0
0
0
0
0
0
0
0
0
0
0
0
0
0
0
0
0
0
0
0
0
0
0
0
0
0
0
0
0
0
0
0
0
0
0
0
0
0
0
0
0
0
0
0
0
0
0
0
0
0
0
0
0
0
0
0
0
0
0
0
0
0
0
0
0
0
0
0
0
0
0
0
0
0
0
0
0
0
0
0
0
0
0
0
0
0
0
0
0
0
0
0
0
0
0
0
0
0
0
0
0
0
0
0
0
0
0
0
0
0
0
0
0
0
0
0
0
0
0
0
0
0
0
0
0
0
0
0
0
0
0
0
0
0
0
0
0
0
0
0
0
0
0
0
0
0
0
0
0
0
0
0
0
0
0
0
0
0
0
