ply
format ascii 1.0
obj_info num_cols 50
obj_info num_rows 50
element vertex 312
property float x
property float y
property float z
element range_grid 2500
property list uchar int vertex_indices
end_header
-5.2893485 13.6287636 23.0471452
-2.1757355 11.6090244 20.4963887
-3.5378593 11.5054766 15.7951540
-2.8584948 11.3320844 13.7638883
-1.2947453 11.0475413 11.3162256
-0.0436952 9.7775753 21.6047059
-2.1518993 9.9602101 20.5470358
-3.4812137 10.0397407 19.2774877
-4.2509117 10.0437808 17.8318261
-4.0915483 9.9194705 16.0426489
-3.9644216 9.7976206 14.2316776
-3.9453212 9.6889332 12.4308570
-3.9997485 9.5888465 10.6308815
-4.2076405 9.5089834 8.8711142
-4.4785903 9.4368355 7.1178093
-3.2661057 9.1481289 4.6194451
-4.0431691 8.5919614 21.2015885
-4.7820953 8.5927695 19.7637155
-4.7963705 8.4814513 18.0709824
-4.7924024 8.3654728 16.3443541
-4.8176608 8.2521830 14.6005852
-4.8153292 8.1326419 12.8174685
-4.8031526 8.0095301 11.0002717
-4.5737661 7.8493463 9.0548972
-4.8867234 7.7745662 7.3224883
-2.9370903 7.3277772 4.4665947
-1.2036620 6.9090715 1.6064291
6.4722960 5.5812719 23.4115601
-3.9123761 6.9361250 21.2182024
-4.8018184 6.9619983 19.8227674
-4.7899908 6.8328445 18.1162641
-4.7803141 6.7019529 16.3822750
-7.0745904 6.8424058 13.7700135
-7.1453125 6.7225789 12.0267475
-7.1818701 6.5945864 10.2410363
-7.1755010 6.4566346 8.4060165
-7.1559920 6.3139104 6.5328164
-7.2579991 6.1910984 4.6883033
-4.8232655 5.5947465 1.4701036
-4.8260492 5.4448657 -0.5425989
-4.0942219 5.1534076 -3.0126404
-6.9388765 6.1212183 25.4315508
-7.1198091 6.0236357 23.8952817
-7.1922329 5.9041633 22.3059326
-7.0925444 5.7502717 20.6360435
-7.1252895 5.6190787 18.9822535
-7.1994559 5.4936773 17.3176505
-7.0559500 5.3241042 15.5434171
-7.0245078 5.1735582 13.7806226
-7.0154797 5.0248878 11.9967276
-7.0936325 4.8909787 10.2212367
-7.0820530 4.7368365 8.3760246
-7.0409032 4.5740728 6.4841618
-7.0033507 4.4092094 4.5598202
-7.1915626 4.2877613 2.7201219
-7.0062180 4.0868596 0.6480662
-6.2258878 3.7581769 -1.8089883
-5.3226430 3.3977148 -4.4107927
-2.4746546 2.6174822 -8.2965723
7.9764068 0.1927564 -17.2430613
7.3467687 0.1213103 -19.3399994
6.5651176 0.0816975 -21.3484338
5.7789760 0.0422906 -23.3631533
5.0137029 -0.0025475 -25.4028796
4.1230089 -0.0201113 -27.3573495
3.1174989 -0.0120199 -29.2254425
2.1354181 -0.0091825 -31.1113901
-3.8896304 0.9448333 -31.3320781
-7.0436342 4.4214131 23.9339134
-7.2128838 4.3097765 22.3689146
-4.7734916 3.3451264 16.4653655
-7.1312145 3.6840660 15.6092334
-7.0265596 3.5031201 13.8126858
-7.0307143 3.3425380 12.0288407
-7.1658616 3.2076463 10.2732808
-7.1945828 3.0471445 8.4423498
-7.2640709 2.8928598 6.6005591
-7.2447235 2.7161021 4.6837367
-7.2996903 2.5529178 2.7718912
-7.3006947 2.3746068 0.7981499
-7.3060519 2.1940924 -1.2084567
-6.9551137 1.9281572 -3.4638815
-6.4433628 1.6199660 -5.8725428
-5.9266010 1.3049408 -8.3469890
-5.2185842 0.9387619 -11.0136151
-4.2988086 0.5150982 -13.9023914
-0.7089131 -0.5610921 -18.7926610
-8.8883170 1.0031111 -17.4682855
-8.4824508 0.6911901 -20.1249623
-7.0026750 0.1038006 -23.7306666
-4.1576597 -0.8409889 -28.6224939
8.5866539 0.2628950 28.4612409
9.9359161 -0.1990765 26.3980138
9.9963429 -0.3900588 24.5748818
2.2007308 0.9541767 23.0303540
-7.2043271 2.5375712 20.7770307
-7.1700028 2.3651889 19.0920180
-6.8524755 1.9545691 15.5381605
-7.1581248 1.8518129 13.8976142
-7.2066968 1.6871790 12.1296509
-7.2914422 1.5282634 10.3492438
-7.3937114 1.3707755 8.5491642
-7.4267626 1.1939410 6.6874787
-7.4478749 1.0111169 4.7882074
-7.5260118 0.8389798 2.8863173
-7.5714573 0.6557179 0.9351320
-7.6147969 0.4686324 -1.0508064
-10.6790463 0.8374050 -3.2800863
-10.7673168 0.6582065 -5.2735102
-10.8127358 0.4646176 -7.3295997
-10.6873930 0.2229711 -9.5410192
-10.1885780 -0.1213051 -12.0669850
-9.4695080 -0.5305391 -14.8234980
-8.3648771 -1.0508324 -17.9566492
-6.6807836 -1.7378015 -21.6534542
-3.9111807 -2.7343951 -26.3796274
-2.8762447 0.9170861 29.3756487
-2.5221768 0.6645566 27.6924863
-2.5608857 0.5003319 26.0737408
-2.5656926 0.3254659 24.4210604
-2.5298873 0.1381032 22.7300852
-2.5084413 -0.0488323 21.0151419
-7.1688048 0.7179569 19.1391039
-7.1169653 0.5235956 17.4136062
-6.9069522 0.2866792 15.5964385
-10.5696727 0.8325428 13.5884177
-10.7172694 0.6832633 11.8979235
-10.7256020 0.4956022 10.1181300
-10.7228866 0.3018052 8.3022032
-10.6887946 0.0963948 6.4382858
-10.6579577 -0.1117997 4.5418607
-10.6613233 -0.3146166 2.6293183
-10.6943050 -0.5131442 0.6993703
-10.6752196 -0.7293998 -1.2957095
-10.7548993 -0.9226274 -3.2668542
-10.7807300 -1.1343050 -5.3064450
-10.5763470 -1.4140660 -7.5372184
-10.1132545 -1.7718369 -9.9969282
-9.3866362 -2.2112010 -12.7098640
-8.2096069 -2.7880403 -15.8369817
-6.5143483 -3.5259541 -19.4678968
-3.6657625 -4.6151509 -24.1524416
-8.7527000 0.5682250 29.2738131
-10.0051183 0.7097007 28.0709273
-10.5633537 0.6767315 26.6959684
-10.6407363 0.5198692 25.1751135
-10.6415489 0.3406618 23.6081714
-10.6322860 0.1558984 22.0123164
-10.6523751 -0.0241967 20.4000849
-10.6810766 -0.2050040 18.7648632
-10.6509901 -0.4045479 17.0804488
-10.6036949 -0.6120989 15.3596018
-10.6497099 -0.7978367 13.6476004
-10.6752679 -0.9923742 11.8985669
-10.6330947 -1.2090025 10.0884570
-10.7201226 -1.3934064 8.3082477
-10.6515860 -1.6248074 6.4204329
-10.6801501 -1.8327831 4.5481659
-10.5890544 -2.0787391 2.5771403
-10.5372957 -2.3177912 0.5898251
-10.6931150 -2.5007333 -1.3115636
-10.7850781 -2.7058353 -3.2821781
-10.5319491 -3.0171678 -5.5087550
-10.0133964 -3.4138423 -7.9639637
-9.2935357 -3.8788867 -10.6243977
-8.1088397 -4.4946837 -13.6965304
-6.4641308 -5.2640909 -17.2147146
-3.6175841 -6.4223797 -21.7895687
-8.6722636 -1.0116394 29.3289417
-10.0082785 -0.8385517 28.1410516
-10.5647596 -0.8749990 26.7610155
-10.5261762 -1.0753777 25.2018355
-10.2988935 -1.3312225 23.5574471
-10.6599475 -1.4271544 22.0725189
-10.6592697 -1.6264090 20.4487519
-10.6838302 -1.8218301 18.8071423
-10.5395654 -2.0688045 17.0735665
-10.6210251 -2.2548848 15.3974268
-10.5717698 -2.4821553 13.6396866
-10.4072876 -2.7471321 11.7986246
-10.6041936 -2.9098283 10.0885712
-10.5283491 -3.1567593 8.2222194
-10.4524490 -3.4080764 6.3202039
-10.6760977 -3.5729309 4.5405123
-10.4722016 -3.8717393 2.5002156
-10.5955336 -4.0748281 0.6038842
-10.7756267 -4.2639460 -1.2889465
-10.4828293 -4.6054334 -3.5043452
-9.9835635 -5.0188892 -5.9049687
-9.2416905 -5.5179263 -8.5315220
-8.0872740 -6.1599843 -11.5218200
-6.4061783 -6.9864621 -14.9914224
-3.4061113 -8.2641159 -19.5743371
9.7338292 -6.4609824 35.5308211
10.0613318 -6.7719087 33.7904883
10.0575980 -6.9958420 32.0711594
9.7848366 -7.1481485 30.3763190
8.6843991 -7.0700543 28.8335597
-1.6188076 -4.8126604 26.0575247
-10.6692763 -2.8154003 23.7286280
-10.6197098 -3.0396251 22.1107139
-10.4464610 -3.3046414 20.4214336
-10.4638161 -3.5164768 18.7681111
-10.4084173 -3.7540594 17.0594116
-10.6687013 -3.8986610 15.4477407
-10.4540856 -4.1929511 13.6150886
-10.5118548 -4.4071744 11.8649234
-10.6331887 -4.6050971 10.1157816
-10.6594377 -4.8367551 8.2936119
-10.6620794 -5.0801059 6.4279514
-10.7171076 -5.3108603 4.5567289
-10.6755244 -5.5773490 2.6001647
-10.7542089 -5.8090604 0.6756254
-10.4802166 -6.1623503 -1.4926476
-9.9718719 -6.6008662 -3.8568076
-9.2041700 -7.1354636 -6.4512274
-8.0927421 -7.7977096 -9.3531941
-6.1682784 -8.7532713 -12.9167232
5.5586496 -7.0662157 36.2347189
4.8204592 -7.0769815 34.7226733
4.1626142 -7.1115726 33.1954167
3.4628643 -7.1343037 31.6720205
2.4411681 -7.0612551 30.2118142
-10.4724965 -4.4738622 23.7241849
-10.5880969 -4.6612049 22.1521170
-10.6005588 -4.8845107 20.5218360
-10.6033390 -5.1146734 18.8610548
-10.5947794 -5.3524033 17.1678868
-10.5654873 -5.6009601 15.4371410
-10.6269016 -5.8239264 13.7141669
-10.6523010 -6.0627291 11.9472863
-10.6982916 -6.2988180 10.1599063
-10.7064487 -6.5518676 8.3240684
-10.7334845 -6.8029931 6.4653797
-10.7345249 -7.0675801 4.5603924
-10.7140661 -7.3444330 2.6089683
-10.4361905 -7.7165179 0.4728858
-9.9281626 -8.1768217 -1.8504023
-8.9551040 -8.8115895 -4.5247218
-7.0493405 -9.7941199 -7.8875830
-0.6346988 -7.1473290 35.6775720
-1.3717988 -7.1472162 34.2465654
-1.9544122 -7.1956068 32.7864455
-2.5600417 -7.2374985 31.3257263
-3.5387538 -7.1611697 29.9426846
-4.4006766 -7.1211802 28.5398618
-10.4358477 -5.6322564 26.9222967
-10.4863701 -5.8459853 25.3735728
-10.5365283 -6.0633475 23.8008978
-10.5341214 -6.3018901 22.1865744
-10.5634930 -6.5337004 20.5562154
-10.6206438 -6.7599702 18.9095011
-10.6531657 -6.9985296 17.2272168
-10.6563613 -7.2513172 15.5053299
-10.7028047 -7.4933888 13.7721663
-10.6883221 -7.7611132 11.9832415
-10.7139415 -8.0193131 10.1810633
-10.6793585 -8.3036443 8.3184712
-10.6764441 -8.5816245 6.4374693
-10.4095643 -8.9608108 4.3823141
-9.6244213 -9.5374545 1.9937015
-8.4627764 -10.2643668 -0.6834579
-6.9993371 -11.1177296 -3.6326244
-4.9420790 -12.2114469 -7.0596305
-7.6578111 -6.5287090 36.8627496
-6.4695757 -7.1448206 35.2126885
-7.0451859 -7.1861127 33.8299039
-7.6758968 -7.2096775 32.4539944
-10.4221840 -6.5217251 31.5404219
-10.5695185 -6.7044059 30.0810637
-10.5598061 -6.9437216 28.5628732
-10.5921657 -7.1724169 27.0312094
-10.5747150 -7.4221565 25.4610938
-10.5852094 -7.6662221 23.8731640
-10.5875855 -7.9172101 22.2565356
-10.5926081 -8.1714607 20.6138145
-10.6311438 -8.4179728 18.9557273
-10.5945752 -8.6958841 17.2417927
-10.3034266 -9.0715469 15.3943129
-9.9196836 -9.4878175 13.4657994
-9.4864056 -9.9297559 11.4686050
-9.1153585 -10.3561463 9.4504455
-8.7269861 -10.7966604 7.3752124
-8.2689852 -11.2716312 5.2138620
-7.6241854 -11.8270941 2.8982175
-8.2901704 -7.8725450 37.0566565
-9.8687758 -7.5625503 35.8818423
-10.4967504 -7.5794686 34.5600094
-10.5974750 -7.7820858 33.1299307
-10.5788291 -8.0302310 31.6541072
-10.5731208 -8.2777244 30.1571467
-10.5500834 -8.5354501 28.6314703
-10.4454388 -8.8269902 27.0581339
-10.1923373 -9.1776361 25.4127697
-9.8246726 -9.5763387 23.6969234
-9.3905327 -10.0064026 21.9189968
-9.0725166 -10.4001159 20.1371961
-8.6457673 -10.8416226 18.2752024
-8.2935513 -11.2622248 16.3959341
-7.7961008 -11.7459470 14.4139251
-7.3966406 -12.2000319 12.4223279
-9.1262715 -9.3772993 35.8490482
-9.9693360 -9.3191570 34.5503517
-9.7202066 -9.6637219 33.0372746
-9.3402246 -10.0625000 31.4639471
-9.0206275 -10.4449949 29.8678156
-8.6722320 -10.8445649 28.2286206
-8.2576046 -11.2759074 26.5338296
-7.8536671 -11.7102164 24.8011117
-7.4206367 -12.1629938 23.0178298
-7.5717618 -11.8062210 34.1994858
-7.4495583 -12.1265253 32.6681294
0
0
0
0
0
0
0
0
0
0
0
0
0
0
0
0
0
0
0
0
0
0
0
0
0
0
0
0
0
0
0
0
0
0
0
0
0
0
0
0
0
0
0
0
0
0
0
0
0
0
0
0
0
0
0
0
0
0
0
0
0
0
0
0
0
0
0
0
0
0
0
0
0
0
0
0
0
0
0
0
0
0
0
0
0
0
0
0
0
0
0
0
0
0
0
0
0
0
0
0
0
0
0
0
0
0
0
0
0
0
0
0
0
0
0
0
0
0
0
0
0
0
0
0
0
0
0
0
0
0
0
0
0
0
0
0
0
0
0
0
0
0
0
0
0
0
0
0
0
0
0
0
0
0
0
0
0
0
0
0
0
0
0
0
0
0
0
0
0
0
0
0
0
0
0
0
0
0
0
0
0
0
0
0
0
0
0
0
0
0
0
0
0
0
0
0
0
0
0
0
0
0
0
0
0
0
0
0
0
0
0
0
0
0
0
0
0
0
0
0
0
0
0
0
0
0
0
0
0
0
0
0
0
0
0
0
0
0
0
0
0
0
0
0
0
0
0
0
0
0
0
0
0
0
0
0
0
0
0
0
0
0
0
0
0
0
0
0
0
0
0
0
0
0
0
0
0
0
0
0
0
0
0
0
0
0
0
0
0
0
0
0
0
0
0
0
0
0
0
0
0
0
0
0
0
0
0
0
0
0
0
0
0
0
0
0
0
0
0
0
0
0
0
0
0
0
0
0
0
0
0
0
0
0
0
0
0
0
0
0
0
0
0
0
0
0
0
0
0
0
0
0
0
0
0
0
0
0
0
0
0
0
0
0
0
0
0
0
0
0
0
0
0
0
0
0
0
0
0
0
0
0
0
0
0
0
0
0
0
0
0
0
0
0
0
0
0
0
0
0
0
0
0
0
0
0
0
0
0
0
0
0
0
0
0
0
0
0
0
0
0
0
0
0
0
0
0
0
0
0
0
0
0
0
0
0
0
0
0
0
0
0
0
0
0
0
0
0
0
0
0
0
0
0
0
0
0
0
0
0
0
0
0
0
0
0
0
0
0
0
0
0
0
0
0
0
0
0
0
0
0
0
0
0
0
0
0
0
0
0
0
0
0
0
0
0
0
0
0
0
0
0
0
0
0
0
0
0
0
0
0
0
0
0
0
0
0
0
0
0
0
0
0
0
0
0
0
0
0
0
0
0
0
0
0
0
0
0
0
0
0
0
0
0
0
0
0
0
0
0
0
0
0
0
0
0
0
0
0
0
0
0
0
0
0
0
0
0
0
0
0
0
0
0
0
0
0
0
0
0
0
0
0
0
0
0
0
0
0
0
0
0
0
0
0
0
0
0
0
0
0
0
0
0
0
0
0
0
0
0
0
0
0
0
0
0
0
0
0
0
0
0
0
0
0
0
0
0
0
0
0
0
0
0
0
0
0
0
0
0
0
0
0
0
0
0
0
0
0
0
0
0
0
0
0
0
0
0
0
0
0
0
0
0
0
0
0
0
0
0
0
0
0
0
0
0
0
0
0
0
0
0
0
0
0
0
0
0
0
0
0
0
0
0
0
0
0
0
0
0
0
0
0
0
0
0
0
0
0
0
0
0
0
0
0
0
0
0
0
0
0
0
0
0
0
0
0
0
0
0
0
0
0
0
0
0
0
0
0
0
0
0
0
0
0
0
0
0
0
0
0
0
0
0
0
0
0
0
0
0
0
0
0
0
0
0
0
0
0
0
0
0
0
0
0
0
0
0
0
0
0
0
0
0
0
0
0
0
0
0
0
0
0
0
0
0
0
0
0
0
0
0
0
0
0
0
0
0
0
0
0
0
0
0
0
0
0
0
0
0
0
0
0
0
0
0
0
0
0
0
0
0
0
0
0
0
0
0
0
0
0
0
0
0
0
0
0
0
0
0
0
0
0
0
0
0
0
0
0
0
0
0
0
0
0
0
0
0
0
0
0
0
0
0
0
0
0
0
0
0
0
0
0
0
0
0
0
0
0
0
0
0
0
0
0
0
0
0
0
0
0
0
0
0
0
0
0
0
0
0
0
0
0
1 0
0
0
0
0
0
0
0
0
0
0
0
0
0
0
0
0
0
0
0
0
0
0
0
0
0
0
0
0
0
0
0
0
0
0
0
0
0
0
0
0
0
0
0
0
0
0
0
0
0
0
1 1
0
0
1 2
1 3
1 4
0
0
0
0
0
0
0
0
0
0
0
0
0
0
0
0
0
0
0
0
0
0
0
0
0
0
0
0
0
0
0
0
0
0
0
0
0
0
0
0
0
0
0
1 5
1 6
1 7
1 8
1 9
1 10
1 11
1 12
1 13
1 14
1 15
0
0
0
0
0
0
0
0
0
0
0
0
0
0
0
0
0
0
0
0
0
0
0
0
0
0
0
0
0
0
0
0
0
0
0
0
0
0
0
0
1 16
1 17
1 18
1 19
1 20
1 21
1 22
1 23
1 24
1 25
1 26
0
0
0
0
0
0
0
0
0
0
0
0
0
0
0
0
0
0
0
0
0
0
0
0
0
0
0
0
0
0
0
0
0
0
0
0
1 27
0
0
1 28
1 29
1 30
1 31
0
1 32
1 33
1 34
1 35
1 36
1 37
1 38
1 39
1 40
0
0
0
0
0
0
0
0
0
0
0
0
0
0
0
0
0
0
0
0
0
0
0
0
0
0
0
0
0
0
0
0
0
0
1 41
1 42
1 43
1 44
1 45
1 46
1 47
1 48
1 49
1 50
1 51
1 52
1 53
1 54
1 55
1 56
1 57
1 58
1 59
1 60
1 61
1 62
1 63
1 64
1 65
1 66
0
1 67
0
0
0
0
0
0
0
0
0
0
0
0
0
0
0
0
0
0
0
0
0
0
0
1 68
1 69
0
0
1 70
1 71
1 72
1 73
1 74
1 75
1 76
1 77
1 78
1 79
1 80
1 81
1 82
1 83
1 84
1 85
1 86
0
1 87
1 88
1 89
1 90
0
0
0
0
0
0
0
0
0
0
0
0
0
0
0
0
0
0
0
1 91
1 92
1 93
0
1 94
0
0
1 95
1 96
0
1 97
1 98
1 99
1 100
1 101
1 102
1 103
1 104
1 105
1 106
0
1 107
1 108
1 109
1 110
1 111
1 112
1 113
1 114
1 115
0
0
0
0
0
0
0
0
0
0
0
0
0
0
0
0
0
0
0
0
0
1 116
1 117
1 118
1 119
1 120
1 121
0
1 122
1 123
1 124
0
1 125
1 126
1 127
1 128
1 129
1 130
1 131
1 132
1 133
1 134
1 135
1 136
1 137
1 138
1 139
1 140
1 141
0
0
0
0
0
0
0
0
0
0
0
0
0
0
0
0
0
0
0
0
0
0
0
1 142
1 143
1 144
1 145
1 146
1 147
1 148
1 149
1 150
1 151
1 152
1 153
1 154
1 155
1 156
1 157
1 158
1 159
1 160
1 161
1 162
1 163
1 164
1 165
1 166
1 167
0
0
0
0
0
0
0
0
0
0
0
0
0
0
0
0
0
0
0
0
0
0
0
0
1 168
1 169
1 170
1 171
1 172
1 173
1 174
1 175
1 176
1 177
1 178
1 179
1 180
1 181
1 182
1 183
1 184
1 185
1 186
1 187
1 188
1 189
1 190
1 191
1 192
0
0
0
0
0
0
0
0
0
0
0
0
0
0
0
0
0
0
0
1 193
1 194
1 195
1 196
1 197
0
0
1 198
0
0
1 199
1 200
1 201
1 202
1 203
1 204
1 205
1 206
1 207
1 208
1 209
1 210
1 211
1 212
1 213
1 214
1 215
1 216
1 217
0
0
0
0
0
0
0
0
0
0
0
0
0
0
0
0
0
0
0
0
0
1 218
1 219
1 220
1 221
1 222
0
0
0
0
0
1 223
1 224
1 225
1 226
1 227
1 228
1 229
1 230
1 231
1 232
1 233
1 234
1 235
1 236
1 237
1 238
1 239
0
0
0
0
0
0
0
0
0
0
0
0
0
0
0
0
0
0
0
0
0
0
0
0
1 240
1 241
1 242
1 243
1 244
1 245
0
1 246
1 247
1 248
1 249
1 250
1 251
1 252
1 253
1 254
1 255
1 256
1 257
1 258
1 259
1 260
1 261
1 262
1 263
0
0
0
0
0
0
0
0
0
0
0
0
0
0
0
0
0
0
0
0
0
0
0
0
0
1 264
1 265
1 266
1 267
1 268
1 269
1 270
1 271
1 272
1 273
1 274
1 275
1 276
1 277
1 278
1 279
1 280
1 281
1 282
1 283
1 284
0
0
0
0
0
0
0
0
0
0
0
0
0
0
0
0
0
0
0
0
0
0
0
0
0
0
0
0
0
1 285
1 286
1 287
1 288
1 289
1 290
1 291
1 292
1 293
1 294
1 295
1 296
1 297
1 298
1 299
1 300
0
0
0
0
0
0
0
0
0
0
0
0
0
0
0
0
0
0
0
0
0
0
0
0
0
0
0
0
0
0
0
0
0
0
0
1 301
1 302
1 303
1 304
1 305
1 306
1 307
1 308
1 309
0
0
0
0
0
0
0
0
0
0
0
0
0
0
0
0
0
0
0
0
0
0
0
0
0
0
0
0
0
0
0
0
0
0
0
0
0
0
0
0
0
0
1 310
1 311
0
0
0
0
0
0
0
0
0
0
0
0
0
0
0
0
0
0
0
0
0
0
0
0
0
0
0
0
0
0
0
0
0
0
0
0
0
0
0
0
0
0
0
0
0
0
0
0
0
0
0
0
0
0
0
0
0
0
0
0
0
0
0
0
0
0
0
0
0
0
0
0
0
0
0
0
0
0
0
0
0
0
0
0
0
0
0
0
0
0
0
0
0
0
0
0
0
0
0
0
0
0
0
0
0
0
0
0
0
0
0
0
0
0
0
0
0
0
0
0
0
0
0
0
0
0
0
0
0
0
0
0
0
0
0
0
0
0
0
0
0
0
0
0
0
0
0
0
0
0
0
0
0
0
0
0
0
0
0
0
0
0
0
0
0
0
0
0
0
0
0
0
0
0
0
0
0
0
0
0
0
0
0
0
0
0
0
0
0
0
0
0
0
0
0
0
0
0
0
0
0
0
0
0
0
0
0
0
0
0
0
0
0
0
0
0
0
0
0
0
0
0
0
0
0
0
0
0
0
0
0
0
0
0
0
0
0
0
0
0
0
0
0
0
0
0
0
0
0
0
0
0
0
0
0
0
0
0
0
0
0
0
0
0
0
0
0
0
0
0
0
0
0
0
0
0
0
0
0
0
0
0
0
0
0
0
0
0
0
0
0
0
0
0
0
0
0
0
0
0
0
0
0
0
0
0
0
0
0
0
0
0
0
0
0
0
0
0
0
0
0
0
0
0
0
0
0
0
0
0
0
0
0
0
0
0
0
0
0
0
0
0
0
0
0
0
0
0
0
0
0
0
0
0
0
0
0
0
0
0
0
0
0
0
0
0
0
0
0
0
0
0
0
0
0
0
0
0
0
0
0
0
0
0
0
0
0
0
0
0
0
0
0
0
0
0
0
0
0
0
0
0
0
0
0
0
0
0
0
0
0
0
0
0
0
0
0
0
0
0
0
0
0
0
0
0
0
0
0
0
0
0
0
0
0
0
0
0
0
0
0
0
0
0
0
0
0
0
0
0
0
0
0
0
0
0
0
0
0
0
0
0
0
0
0
0
0
0
0
0
0
0
0
0
0
0
0
0
0
0
0
0
0
0
0
0
0
0
0
0
0
0
0
0
0
0
0
0
0
0
0
0
0
0
0
0
0
0
0
0
0
0
0
0
0
0
0
0
0
0
0
0
0
0
0
0
0
0
0
0
0
0
0
0
0
0
0
0
0
0
0
0
0
0
0
0
0
0
0
0
0
0
0
0
0
0
0
0
0
0
0
0
0
0
0
0
0
0
0
0
0
0
0
0
0
0
0
0
0
0
0
0
0
0
0
0
0
0
0
0
0
0
0
0
0
0
0
0
0
0
0
0
0
0
0
0
0
0
0
0
0
0
0
0
0
0
0
0
0
0
0
0
0
0
0
0
0
0
0
0
0
0
0
0
0
0
0
0
0
0
0
0
0
0
0
0
0
0
0
0
0
0
0
0
0
0
0
0
0
0
0
0
0
0
0
0
0
0
0
0
0
0
0
0
0
0
0
0
0
0
0
0
0
0
0
0
0
0
0
0
0
0
0
0
0
0
0
0
0
0
0
0
0
0
0
0
0
0
0
0
0
0
0
0
0
0
0
0
0
0
0
0
0
0
0
0
0
0
0
0
0
0
0
0
0
0
0
0
0
0
0
