ply
format ascii 1.0
obj_info num_cols 50
obj_info num_rows 50
element vertex 287
property float x
property float y
property float z
element range_grid 2500
property list uchar int vertex_indices
end_header
-4.0562771 14.0561657 22.4994781
-0.7015356 13.9803143 20.9447966
0.8469723 14.0554281 22.0240622
1.9142203 13.0478854 20.5407337
-2.9225159 10.0989493 17.8788679
-1.7370416 9.6413415 19.6223282
2.1338096 10.8279196 20.5751091
-1.6762840 11.3082307 12.7167729
0.2276884 11.9176512 13.1754071
1.7610716 12.0363091 14.1806838
3.1688823 11.9774819 15.3903130
3.4657733 10.2284888 18.6128419
1.8963253 5.4321886 25.5721782
4.1400859 6.4911648 25.5303174
-4.2396054 9.3986257 10.0006920
-1.9082178 10.5552409 9.9263105
-0.2248207 10.8787482 10.7176626
1.3440434 11.0573577 11.6581443
2.8011059 11.0815072 12.7657005
3.7614136 10.3492755 14.7313607
4.5753598 9.3369726 17.0443491
3.5309809 5.2248270 23.0138508
7.2160990 6.1935702 24.3158430
-3.7718993 9.5540553 6.3108978
-2.0313485 9.9573563 7.0370831
-0.4128773 10.2129246 7.9030601
1.1171690 10.3559696 8.8791012
2.5722119 10.3960035 9.9605830
3.6782259 9.9034341 11.6177456
4.6655346 9.1901040 13.5339639
4.7785132 6.9972176 17.1243967
5.6517555 5.9368627 19.5049349
7.2074157 5.9964573 20.6343887
5.3570401 -0.1465212 28.9865927
7.5424731 0.8693354 29.0848885
-2.0894900 9.4571083 4.1243245
-0.5698621 9.5982128 5.1022759
0.9964196 9.8147241 6.0005215
2.5370332 10.0056387 6.9180866
3.7730250 9.7393328 8.3018305
4.6654771 8.9095111 10.2852345
4.7982891 6.7763434 13.6830657
7.2282590 5.8571281 17.0143565
7.2838585 3.2287599 21.1159512
6.7974774 -0.6316520 26.6931688
8.4313101 -0.6216352 27.9633698
6.9786703 -6.9559420 36.5995946
-6.1756061 5.4534372 3.3551917
-3.6974742 6.8351911 3.2417033
0.9187564 9.3440095 3.1274778
2.3897685 9.4559181 4.1175315
3.7133841 9.3464929 5.3220709
4.7378706 8.7525438 7.0146589
4.6971993 6.3641228 10.5483530
7.1758094 5.5943009 13.6473402
6.8036193 -0.7068308 22.7615638
8.4821170 -0.5530272 23.8522836
10.7285839 0.7797999 23.6296067
8.6507887 -7.0413775 33.6714577
10.6460613 -6.4446769 34.3501545
-3.9179217 6.1169616 0.5714529
-2.1538168 6.5859064 1.2815926
-0.4653895 6.9706866 2.0537383
1.0953565 7.1855217 2.9708451
2.5370649 7.2282645 4.0428098
3.9619123 7.2462105 5.1373169
4.7715513 6.2479885 7.2151754
7.1731627 5.4244510 10.2926636
7.2042191 2.8246372 14.0706246
7.3180680 0.1868596 17.9685000
8.4385878 -0.6694694 20.0859559
10.7379024 0.8255420 19.7355465
8.6065982 -7.0391864 29.4144927
10.6048936 -6.3675575 30.0161564
-10.5881435 0.6475266 -0.4779705
-4.2266516 5.2825972 -1.9496198
-2.3919388 5.8678373 -1.3246061
-0.7271859 6.2360850 -0.5301926
0.8144867 6.4392300 0.3980148
2.3283069 6.6107389 1.3485038
3.7641901 6.6672041 2.3983717
4.8593476 6.1618412 3.9649227
6.5096585 6.5734476 4.6874391
7.1517415 5.2264233 7.0731086
7.1543041 2.6099017 10.7287529
7.3042770 0.0805103 14.3786072
8.4504456 -0.6755388 16.3353072
10.7072565 0.7882529 16.0653399
10.5490050 -2.7920442 20.9403585
10.7750412 -5.8252436 25.3535063
-10.1410988 0.7703795 -3.8655571
-2.6752836 5.0906697 -3.8337717
-0.9896609 5.5057103 -3.0697305
0.5834458 5.7733190 -2.1949845
2.0689303 5.9193007 -1.2248237
3.5206642 6.0193347 -0.2191276
4.7389163 5.7368784 1.1196870
5.8166319 5.1941013 2.6996558
7.1541858 5.0754811 3.9109423
7.1979593 2.5706961 7.3283161
7.5562489 0.4827526 10.4298549
8.4685873 -0.6681775 12.7012415
10.7163487 0.8316754 12.4418697
10.5086893 -2.7926446 17.1737122
10.7523946 -5.7198632 21.3187377
-9.9723673 0.5390734 -6.8769821
-9.3944811 -0.6755287 -4.8362572
-3.4032123 3.6768267 -5.8155812
-1.4572147 4.4761687 -5.3311155
0.2646731 4.9787099 -4.6349647
1.8089416 5.2313560 -3.7518847
3.2724695 5.3681858 -2.7809301
4.6172377 5.3149541 -1.6549742
5.7934043 4.9674986 -0.2770940
6.8803402 4.4376732 1.2689363
7.2119979 2.4809347 4.0857558
7.5504089 0.3970427 7.0739934
8.4908766 -0.6516457 9.1828036
10.6858306 0.7929423 9.0198951
10.6290505 -2.4532450 13.2161007
10.7553020 -5.5633415 17.3783024
-9.7769918 0.3562584 -9.8333939
-9.1475858 -0.7649402 -7.9222775
-4.1146785 2.2855593 -7.8245791
-2.1736565 3.0779565 -7.3015543
-0.3293792 3.7662879 -6.7230018
1.3085618 4.1688043 -5.9453171
2.8151002 4.3815797 -5.0310581
4.2070857 4.4153159 -3.9805153
5.4264687 4.1527865 -2.6911420
6.4794480 3.5759229 -1.1352375
7.2105714 2.3662783 0.9675275
7.5588439 0.3409020 3.8004399
8.5263199 -0.6081775 5.7595530
10.6798486 0.8037710 5.6665598
10.7361602 -2.1455161 9.4377014
10.7334133 -5.4673892 13.6332870
-9.3354751 0.5185172 -12.9237007
-8.8167447 -0.7249215 -10.9965357
-7.4063408 -0.7666703 -9.8381917
-4.5058404 1.3599205 -10.1604218
-2.6871654 1.9822556 -9.4932808
-0.9671968 2.4869248 -8.7598065
0.7034967 2.9420426 -8.0044495
2.2550546 3.2294908 -7.1376765
3.6884381 3.3356415 -6.1420748
4.9985134 3.2346107 -4.9900362
6.1014695 2.7566488 -3.5398685
7.1358291 2.1196745 -1.9491886
7.5612509 0.2755290 0.6389891
8.5459261 -0.5951258 2.4762993
10.6610591 0.7875662 2.4467738
10.4765212 -2.6221627 6.4697495
10.7489137 -5.2936653 9.9490972
-8.8383438 0.7721174 -15.9608037
-8.5061036 -0.6990254 -13.9606224
-7.1146196 -0.7341657 -12.8269268
-4.8326728 0.5316366 -12.5325004
-2.9437789 1.2740022 -11.9276856
-1.2867346 1.6987410 -11.1292971
0.2778341 2.0002165 -10.2577500
1.7634838 2.1898433 -9.3159000
3.2256126 2.3507846 -8.3585947
4.5663276 2.3106333 -7.2588217
5.7773994 2.0354697 -5.9829352
6.8699545 1.5226781 -4.5191094
7.6028516 0.2872058 -2.4831069
8.5832016 -0.5462798 -0.7281745
10.6633870 0.8139475 -0.7037506
10.6515210 -2.1754568 2.8214722
10.7117349 -5.2415205 6.4939077
-8.4331038 0.9164242 -18.8260318
-8.0462448 -0.4512740 -16.9583238
-6.8684025 -0.7543125 -15.6875475
-5.4158199 -0.6694818 -14.6447754
-3.2236509 0.5351990 -14.3023822
-1.5341601 1.0258133 -13.5377871
0.0200908 1.3279320 -12.6637389
1.5111678 1.5434272 -11.7401946
2.9334640 1.6551783 -10.7519743
4.2785136 1.6390102 -9.6780730
5.5008085 1.4013121 -8.4471424
6.6259411 0.9679148 -7.0686419
7.4722067 -0.0283648 -5.2652235
8.5866748 -0.5635003 -3.7787393
10.6627146 0.8334767 -3.7473860
10.7144466 -1.9701955 -0.5004027
10.6959856 -5.1464813 3.1176385
10.7141082 -8.4951450 6.9615237
-7.3829279 0.0971160 -20.0142125
-6.5924716 -0.7201379 -18.4901406
-5.2267468 -0.7301005 -17.4077733
-3.7568220 -0.5831586 -16.4172238
-1.8325395 0.2778442 -15.8601021
-0.2475157 0.6436717 -15.0213806
1.2681024 0.9157229 -14.1333752
2.6746351 1.0187124 -13.1439366
4.0253423 1.0301942 -12.0970702
5.2541698 0.8230686 -10.9040028
6.3422226 0.3413840 -9.5176666
7.2303586 -0.5552387 -7.8291767
10.6443091 0.8159996 -6.6678708
10.7294177 -1.8693970 -3.6306875
10.7483915 -4.9054913 -0.2574637
10.7821009 -8.1485624 3.3562644
-6.6797381 0.7188061 -22.9860302
-6.3142740 -0.6711442 -21.2124551
-4.9952883 -0.7178800 -20.1280429
-3.6685110 -0.7555675 -19.0471998
-2.2615812 -0.6705572 -18.0347585
-0.6191516 -0.2038127 -17.2460033
0.9575861 0.1803341 -16.4204044
2.4056374 0.3679769 -15.4855092
3.7479291 0.3816895 -14.4474865
4.9789080 0.1955665 -13.2829781
6.0201215 -0.3548137 -11.8776131
7.2016793 -0.6726198 -10.6109894
10.6089775 0.7632281 -9.4748765
10.5061248 -2.2766471 -6.3034999
10.4440650 -5.4546007 -2.9524160
-5.7330413 -0.1708876 -24.0729320
-4.7743868 -0.7111885 -22.7623260
-3.4521278 -0.7244639 -21.7118709
-2.0935843 -0.6820000 -20.6906320
-0.7710061 -0.6954934 -19.6397011
0.5593804 -0.6972406 -18.5948001
1.9667853 -0.5686294 -17.6243751
3.3473897 -0.4798152 -16.6337912
4.6214315 -0.5780905 -15.5332040
5.9130883 -0.6502078 -14.4458675
7.2572801 -0.6267118 -13.4162578
10.1588916 -0.1396667 -11.6451148
9.7947273 -3.7205276 -8.2260475
9.5621674 -7.2759109 -4.7301534
-4.9665920 0.6139990 -26.9552143
-4.5145633 -0.6366223 -25.3498051
-3.2569236 -0.7165960 -24.2839863
-1.9274420 -0.6881957 -23.2702672
-0.6120058 -0.6813345 -22.2460109
0.6931372 -0.6915554 -21.2127345
1.9724312 -0.7467917 -20.1546884
3.2740268 -0.7665547 -19.1146471
4.6064726 -0.7322593 -18.1045018
5.9364031 -0.7009934 -17.0932975
9.3694450 0.8979179 -16.0017666
9.2008876 -2.0828436 -13.1520346
8.7349976 -5.9023455 -9.6963214
-4.5312018 0.9303927 -29.5124633
-3.9654923 -0.1183827 -28.0547648
-3.0638258 -0.7033018 -26.7824221
-1.7575588 -0.6806339 -25.7806560
-0.4692917 -0.6862772 -24.7656135
0.8061291 -0.7139564 -23.7393257
2.0969683 -0.7172449 -22.7245450
3.3926379 -0.7126524 -21.7136015
4.7204073 -0.6502016 -20.7334621
5.9904333 -0.6919287 -19.6978149
8.1530316 0.9768943 -19.6171076
8.4352925 -0.9734581 -17.5095445
7.6724413 -5.1935926 -14.0256995
-3.2077915 0.7267035 -30.7921217
-2.8182791 -0.6007518 -29.2458000
-1.6004153 -0.6855900 -28.2122868
-0.3224890 -0.6777471 -27.2183696
0.9477039 -0.6827473 -26.2185034
2.2186005 -0.6872075 -25.2185908
3.4810543 -0.7071721 -24.2107969
4.8022063 -0.6224591 -23.2548843
6.9664085 1.0382768 -23.1119905
7.4029986 -0.5184960 -21.3143770
6.0799899 -5.6619860 -17.5419040
-2.1538404 0.1587469 -31.8950691
-1.4306927 -0.6633445 -30.5856994
-0.1874470 -0.6817112 -29.5952413
1.0191755 -0.7625638 -28.5770031
2.3267342 -0.6750770 -27.6318256
5.7521524 0.9824993 -26.4465529
5.7082239 -1.3940902 -24.3332711
-1.4880265 0.9329910 -34.4400458
-1.0929096 -0.3665671 -32.9957320
-0.0619220 -0.6948935 -31.9015924
1.1899957 -0.6708459 -30.9421521
3.3678159 0.9452085 -30.6478575
4.5315192 0.8590188 -29.6612345
-0.3272038 0.6215615 -35.5693191
1.0888405 0.9749742 -34.7587581
2.2296745 0.8844534 -33.7891273
0
0
0
0
0
0
0
0
0
0
0
0
0
0
0
0
0
0
0
0
0
0
0
0
0
0
0
0
0
0
0
0
0
0
0
0
0
0
0
0
0
0
0
0
0
0
0
0
0
0
0
0
0
0
0
0
0
0
0
0
0
0
0
0
0
0
0
0
0
0
0
0
0
0
0
0
0
0
0
0
0
0
0
0
0
0
0
0
0
0
0
0
0
0
0
0
0
0
0
0
0
0
0
0
0
0
0
0
0
0
0
0
0
0
0
0
0
0
0
0
0
0
0
0
0
0
0
0
0
0
0
0
0
0
0
0
0
0
0
0
0
0
0
0
0
0
0
0
0
0
0
0
0
0
0
0
0
0
0
0
0
0
0
0
0
0
0
0
0
0
0
0
0
0
0
0
0
0
0
0
0
0
0
0
0
0
0
0
0
0
0
0
0
0
0
0
0
0
0
0
0
0
0
0
0
0
0
0
0
0
0
0
0
0
0
0
0
0
0
0
0
0
0
0
0
0
0
0
0
0
0
0
0
0
0
0
0
0
0
0
0
0
0
0
0
0
0
0
0
0
0
0
0
0
0
0
0
0
0
0
0
0
0
0
0
0
0
0
0
0
0
0
0
0
0
0
0
0
0
0
0
0
0
0
0
0
0
0
0
0
0
0
0
0
0
0
0
0
0
0
0
0
0
0
0
0
0
0
0
0
0
0
0
0
0
0
0
0
0
0
0
0
0
0
0
0
0
0
0
0
0
0
0
0
0
0
0
0
0
0
0
0
0
0
0
0
0
0
0
0
0
0
0
0
0
0
0
0
0
0
0
0
0
0
0
0
0
0
0
0
0
0
0
0
0
0
0
0
0
0
0
0
0
0
0
0
0
0
0
0
0
0
0
0
0
0
0
0
0
0
0
0
0
0
0
0
0
0
0
0
0
0
0
0
0
0
0
0
0
0
0
0
0
0
0
0
0
0
0
0
0
0
0
0
0
0
0
0
0
0
0
0
0
0
0
0
0
0
0
0
0
0
0
0
0
0
0
0
0
0
0
0
0
0
0
0
0
0
0
0
0
0
0
0
0
0
0
0
0
0
0
0
0
0
0
0
0
0
0
0
0
0
0
0
0
0
0
0
0
0
0
0
0
0
0
0
0
0
0
0
0
0
0
0
0
0
0
0
0
0
0
0
0
0
0
0
0
0
0
0
0
0
0
0
0
0
0
0
0
0
0
0
0
0
0
0
0
0
0
0
0
0
0
0
0
0
0
0
0
0
0
0
0
0
0
0
0
0
0
0
0
0
0
0
0
0
0
0
0
0
0
0
0
0
0
0
0
0
0
0
0
0
0
0
0
0
0
0
0
0
0
0
0
0
0
0
0
0
0
0
0
0
0
0
0
0
0
0
0
0
0
0
0
0
0
0
0
0
0
0
1 0
0
0
0
0
0
0
0
0
0
0
0
0
0
0
0
0
0
0
0
0
0
0
0
0
0
0
0
0
0
0
0
0
0
0
0
0
0
0
0
0
0
0
0
0
0
0
0
0
0
0
1 1
1 2
0
0
0
0
0
0
0
0
0
0
0
0
0
0
0
0
0
0
0
0
0
0
0
0
0
0
0
0
0
0
0
0
0
0
0
0
0
0
0
0
0
0
0
0
0
0
0
0
0
1 3
0
0
0
0
0
0
0
0
0
0
0
0
0
0
0
0
0
0
0
0
0
0
0
0
0
0
0
0
0
0
0
0
0
0
0
0
0
0
0
0
0
0
0
0
0
0
1 4
1 5
0
1 6
0
0
0
0
0
0
0
0
0
0
0
0
0
0
0
0
0
0
0
0
0
0
0
0
0
0
0
0
0
0
0
0
0
0
0
0
0
0
0
0
0
0
0
0
0
1 7
1 8
1 9
1 10
1 11
1 12
1 13
0
0
0
0
0
0
0
0
0
0
0
0
0
0
0
0
0
0
0
0
0
0
0
0
0
0
0
0
0
0
0
0
0
0
0
0
0
0
0
0
0
1 14
1 15
1 16
1 17
1 18
1 19
1 20
1 21
0
1 22
0
0
0
0
0
0
0
0
0
0
0
0
0
0
0
0
0
0
0
0
0
0
0
0
0
0
0
0
0
0
0
0
0
0
0
0
0
0
0
1 23
1 24
1 25
1 26
1 27
1 28
1 29
1 30
1 31
1 32
1 33
1 34
0
0
0
0
0
0
0
0
0
0
0
0
0
0
0
0
0
0
0
0
0
0
0
0
0
0
0
0
0
0
0
0
0
0
0
0
0
0
1 35
1 36
1 37
1 38
1 39
1 40
1 41
0
1 42
1 43
1 44
1 45
1 46
0
0
0
0
0
0
0
0
0
0
0
0
0
0
0
0
0
0
0
0
0
0
0
0
0
0
0
0
0
0
0
0
0
0
0
1 47
1 48
0
1 49
1 50
1 51
1 52
1 53
0
1 54
0
1 55
1 56
1 57
1 58
1 59
0
0
0
0
0
0
0
0
0
0
0
0
0
0
0
0
0
0
0
0
0
0
0
0
0
0
0
0
0
0
0
0
0
0
1 60
1 61
1 62
1 63
1 64
1 65
1 66
0
1 67
1 68
1 69
1 70
1 71
1 72
1 73
0
0
0
0
0
0
0
0
0
0
0
0
0
0
0
0
0
0
0
0
0
0
0
0
0
0
0
0
0
0
0
0
1 74
0
1 75
1 76
1 77
1 78
1 79
1 80
1 81
1 82
1 83
1 84
1 85
1 86
1 87
1 88
1 89
0
0
0
0
0
0
0
0
0
0
0
0
0
0
0
0
0
0
0
0
0
0
0
0
0
0
0
0
0
0
0
0
1 90
0
0
1 91
1 92
1 93
1 94
1 95
1 96
1 97
1 98
1 99
1 100
1 101
1 102
1 103
1 104
0
0
0
0
0
0
0
0
0
0
0
0
0
0
0
0
0
0
0
0
0
0
0
0
0
0
0
0
0
0
0
0
1 105
1 106
0
1 107
1 108
1 109
1 110
1 111
1 112
1 113
1 114
1 115
1 116
1 117
1 118
1 119
1 120
0
0
0
0
0
0
0
0
0
0
0
0
0
0
0
0
0
0
0
0
0
0
0
0
0
0
0
0
0
0
0
0
1 121
1 122
0
1 123
1 124
1 125
1 126
1 127
1 128
1 129
1 130
1 131
1 132
1 133
1 134
1 135
1 136
0
0
0
0
0
0
0
0
0
0
0
0
0
0
0
0
0
0
0
0
0
0
0
0
0
0
0
0
0
0
0
0
1 137
1 138
1 139
1 140
1 141
1 142
1 143
1 144
1 145
1 146
1 147
1 148
1 149
1 150
1 151
1 152
1 153
0
0
0
0
0
0
0
0
0
0
0
0
0
0
0
0
0
0
0
0
0
0
0
0
0
0
0
0
0
0
0
0
1 154
1 155
1 156
1 157
1 158
1 159
1 160
1 161
1 162
1 163
1 164
1 165
1 166
1 167
1 168
1 169
1 170
0
0
0
0
0
0
0
0
0
0
0
0
0
0
0
0
0
0
0
0
0
0
0
0
0
0
0
0
0
0
0
0
1 171
1 172
1 173
1 174
1 175
1 176
1 177
1 178
1 179
1 180
1 181
1 182
1 183
1 184
1 185
1 186
1 187
1 188
0
0
0
0
0
0
0
0
0
0
0
0
0
0
0
0
0
0
0
0
0
0
0
0
0
0
0
0
0
0
0
0
1 189
1 190
1 191
1 192
1 193
1 194
1 195
1 196
1 197
1 198
1 199
1 200
0
1 201
1 202
1 203
1 204
0
0
0
0
0
0
0
0
0
0
0
0
0
0
0
0
0
0
0
0
0
0
0
0
0
0
0
0
0
0
0
0
1 205
1 206
1 207
1 208
1 209
1 210
1 211
1 212
1 213
1 214
1 215
1 216
0
1 217
1 218
1 219
0
0
0
0
0
0
0
0
0
0
0
0
0
0
0
0
0
0
0
0
0
0
0
0
0
0
0
0
0
0
0
0
0
0
1 220
1 221
1 222
1 223
1 224
1 225
1 226
1 227
1 228
1 229
1 230
0
1 231
1 232
1 233
0
0
0
0
0
0
0
0
0
0
0
0
0
0
0
0
0
0
0
0
0
0
0
0
0
0
0
0
0
0
0
0
0
0
1 234
1 235
1 236
1 237
1 238
1 239
1 240
1 241
1 242
1 243
0
1 244
1 245
1 246
0
0
0
0
0
0
0
0
0
0
0
0
0
0
0
0
0
0
0
0
0
0
0
0
0
0
0
0
0
0
0
0
0
0
0
1 247
1 248
1 249
1 250
1 251
1 252
1 253
1 254
1 255
1 256
1 257
1 258
1 259
0
0
0
0
0
0
0
0
0
0
0
0
0
0
0
0
0
0
0
0
0
0
0
0
0
0
0
0
0
0
0
0
0
0
0
0
0
1 260
1 261
1 262
1 263
1 264
1 265
1 266
1 267
1 268
1 269
1 270
0
0
0
0
0
0
0
0
0
0
0
0
0
0
0
0
0
0
0
0
0
0
0
0
0
0
0
0
0
0
0
0
0
0
0
0
0
0
0
1 271
1 272
1 273
1 274
1 275
0
1 276
1 277
0
0
0
0
0
0
0
0
0
0
0
0
0
0
0
0
0
0
0
0
0
0
0
0
0
0
0
0
0
0
0
0
0
0
0
0
0
0
0
0
0
1 278
1 279
1 280
1 281
1 282
1 283
0
0
0
0
0
0
0
0
0
0
0
0
0
0
0
0
0
0
0
0
0
0
0
0
0
0
0
0
0
0
0
0
0
0
0
0
0
0
0
0
0
0
0
0
1 284
1 285
1 286
0
0
0
0
0
0
0
0
0
0
0
0
0
0
0
0
0
0
0
0
0
0
0
0
0
0
0
0
0
0
0
0
0
0
0
0
0
0
0
0
0
0
0
0
0
0
0
0
0
0
0
0
0
0
0
0
0
0
0
0
0
0
0
0
0
0
0
0
0
0
0
0
0
0
0
0
0
0
0
0
0
0
0
0
0
0
0
0
0
0
0
0
0
0
0
0
0
0
0
0
0
0
0
0
0
0
0
0
0
0
0
0
0
0
0
0
0
0
0
0
0
0
0
0
0
0
0
0
0
0
0
0
0
0
0
0
0
0
0
0
0
0
0
0
0
0
0
0
0
0
0
0
0
0
0
0
0
0
0
0
0
0
0
0
0
0
0
0
0
0
0
0
0
0
0
0
0
0
0
0
0
0
0
0
0
0
0
0
0
0
0
0
0
0
0
0
0
0
0
0
0
0
0
0
0
0
0
0
0
0
0
0
0
0
0
0
0
0
0
0
0
0
0
0
0
0
0
0
0
0
0
0
0
0
0
0
0
0
0
0
0
0
0
0
0
0
0
0
0
0
0
0
0
0
0
0
0
0
0
0
0
0
0
0
0
0
0
0
0
0
0
0
0
0
0
0
0
0
0
0
0
0
0
0
0
0
0
0
0
0
0
0
0
0
0
0
0
0
0
0
0
0
0
0
0
0
0
0
0
0
0
0
0
0
0
0
0
0
0
0
0
0
0
0
0
0
0
0
0
0
0
0
0
0
0
0
0
0
0
0
0
0
0
0
0
0
0
0
0
0
0
0
0
0
0
0
0
0
0
0
0
0
0
0
0
0
0
0
0
0
0
0
0
0
0
0
0
0
0
0
0
0
0
0
0
0
0
0
0
0
0
0
0
0
0
0
0
0
0
0
0
0
0
0
0
0
0
0
0
0
0
0
0
0
0
0
0
0
0
0
0
0
0
0
0
0
0
0
0
0
0
0
0
0
0
0
0
0
0
0
0
0
0
0
0
0
0
0
0
0
0
0
0
0
0
0
0
0
0
0
0
0
0
0
0
0
0
0
0
0
0
0
0
0
0
0
0
0
0
0
0
0
0
0
0
0
0
0
0
0
0
0
0
0
0
0
0
0
0
0
0
0
0
0
0
0
0
0
0
0
0
0
0
0
0
0
0
0
0
0
0
0
0
0
0
0
0
0
0
0
0
0
0
0
0
0
0
0
0
0
0
0
0
0
0
0
0
0
0
0
0
0
0
0
0
0
0
0
0
0
0
0
0
0
0
0
0
0
0
0
0
0
0
0
0
0
0
0
0
0
0
0
0
0
0
0
0
0
0
0
0
0
0
0
0
0
0
0
0
0
0
0
0
0
0
0
0
0
0
0
0
0
0
0
0
0
0
0
0
0
0
0
0
0
0
0
0
0
0
0
0
0
0
0
0
0
0
