ply
format ascii 1.0
obj_info num_cols 50
obj_info num_rows 50
element vertex 330
property float x
property float y
property float z
element range_grid 2500
property list uchar int vertex_indices
end_header
-1.9486691 13.5248498 20.8908373
-2.1266324 11.7206744 20.8793028
-3.4218640 11.6614515 15.5120720
-2.2878957 11.7806612 13.7720342
-2.0916676 9.9365595 20.8860211
-4.2711396 9.7950707 18.9660650
-4.2183540 9.8141314 17.2300577
-4.0475547 9.8417928 15.4909013
-3.8640236 9.8704770 13.7405851
-3.6997399 9.8978681 11.9782782
-3.5339631 9.9254673 10.2046236
-3.2799973 9.9595950 8.4170503
-4.4708920 8.0160345 20.6855986
-4.7686286 8.0116956 18.9345441
-4.7424795 8.0254116 17.2046526
-4.8033823 8.0343048 15.4648533
-4.7730727 8.0483385 13.7231107
-4.7933525 8.0595790 11.9742715
-4.5637073 8.0849248 10.2172719
-4.7711316 8.0857126 8.4590914
-4.7579279 8.0989648 6.6919334
-2.1905989 8.2569290 4.7620422
-6.7432498 6.1490454 25.5429221
-7.1142377 6.1435659 23.8218710
-7.1673757 6.1505155 22.1394950
-7.1614427 6.1598075 20.4582934
-7.1325485 6.1700350 18.7728725
-7.1488104 6.1785158 17.0784417
-7.0478214 6.1916625 15.3832266
-7.0140695 6.2021921 13.6775933
-7.0763760 6.2089418 11.9646562
-7.0498743 6.2192482 10.2469425
-7.1314413 6.2252775 8.5255918
-7.1479199 6.2339272 6.7981899
-7.1820317 6.2418986 5.0665503
-4.7753176 6.3479643 3.1402031
-3.4378547 6.4114373 1.2287231
-6.9844038 4.4438209 23.8417082
-7.1624437 4.4459419 22.1440367
-6.9864331 4.4749954 15.3876034
-6.9895323 4.4812307 13.6796970
-7.0273458 4.4866785 11.9659721
-7.0586340 4.4922954 10.2476254
-7.0697786 4.4984015 8.5239288
-7.0483066 4.5052932 6.7933032
-6.9507186 4.5140001 5.0514373
-7.0654401 4.5177325 3.3169519
-7.0338668 4.5249326 1.5665298
-6.2483508 4.5500366 -0.2747833
-5.4630453 4.5752552 -2.1484419
-3.7812495 4.6219633 -4.1845223
-7.2048637 2.7432613 20.4616752
-4.7061321 2.7668283 17.2145090
-6.7717023 2.7563423 15.3977122
-7.0235242 2.7580530 13.6805696
-7.0666981 2.7611829 11.9668726
-7.1605410 2.7639740 10.2493970
-7.2113169 2.7670673 8.5279843
-7.2408735 2.7703158 6.8014628
-7.2138783 2.7739675 5.0665932
-7.2496345 2.7771942 3.3298178
-7.2568405 2.7806308 1.5856114
-7.3210347 2.7836767 -0.1579659
-6.7956507 2.7909105 -1.9808761
-6.0222868 2.7999584 -3.8634441
-5.0567621 2.8104462 -5.8093397
2.1935027 0.9418143 26.7556632
-7.1487553 1.0343144 18.7809514
-6.7991262 1.0314509 17.1049265
-6.8250435 1.0322181 15.3978112
-7.1214224 1.0355964 13.6800949
-7.2523023 1.0373775 11.9670815
-7.3852669 1.0391791 10.2526022
-7.4455149 1.0402806 8.5346473
-7.4435675 1.0407843 6.8100760
-7.4605884 1.0414724 5.0807461
-7.4616352 1.0420085 3.3448531
-7.4530224 1.0424535 1.6021671
-7.5397866 1.0438168 -0.1361371
-7.4997480 1.0439633 -1.8937445
-7.3970391 1.0435104 -3.6677880
-7.0580778 1.0407940 -5.4895840
-6.5437041 1.0364009 -7.3603315
-5.8225127 1.0300330 -9.2952368
-4.8668338 1.0214285 -11.3109199
-2.1067225 0.9955622 -13.7808885
8.0703989 0.8987631 -18.1866982
7.4989977 0.9048546 -20.1064603
6.8796608 0.9114003 -22.0000934
6.1636067 0.9188656 -23.8504292
5.5192687 0.9256409 -25.7056850
4.6952776 0.9341256 -27.4855055
-3.0747653 1.0105909 -32.5741115
-1.6761764 0.9978714 -35.1038225
-9.8056898 -0.5965637 28.3968138
-10.5652756 -0.5791318 26.6633953
-10.5903494 -0.5807288 25.0472498
-10.5810892 -0.5832237 23.4305826
-10.6097059 -0.5847422 21.8043499
-10.6175712 -0.5868067 20.1753912
-10.6573382 -0.5880480 18.5390022
-10.6414340 -0.5907457 16.9014040
-10.5784696 -0.5946789 15.2595400
-10.6594257 -0.5948664 13.6070496
-10.6375690 -0.5977437 11.9521256
-10.6820785 -0.5988947 10.2916661
-10.6870091 -0.6010871 8.6259363
-10.6562271 -0.6042226 6.9531259
-10.6401780 -0.6069812 5.2745200
-10.6314210 -0.6095571 3.5902403
-10.6754592 -0.6107550 1.9049232
-10.6564647 -0.6136157 0.2082969
-10.6791427 -0.6153890 -1.4894234
-10.7064087 -0.6170485 -3.1915392
-10.7785869 -0.6175313 -4.8913147
-10.7890262 -0.6196474 -6.6055665
-10.6718598 -0.6251404 -8.3503737
-10.4025853 -0.6346669 -10.1375297
-10.0635747 -0.6460591 -11.9559542
-9.6655663 -0.6590379 -13.8066713
-9.2087300 -0.6736031 -15.6927856
-8.6892568 -0.6898603 -17.6185342
-8.0442248 -0.7094844 -19.6061397
-7.3589295 -0.7302185 -21.6352775
-6.5324114 -0.7547507 -23.7419731
-5.5365490 -0.7838402 -25.9437308
-4.4865659 -0.8144298 -28.2071121
-3.2193489 -0.8508738 -30.5983846
-1.6689340 -0.8949495 -33.1560757
-10.6062945 -2.2323466 23.4319878
-10.6378644 -2.2360289 21.8053903
-10.4752374 -2.2479511 20.1910786
-10.5285401 -2.2507487 18.5509725
-10.4319334 -2.2599232 16.9151442
-10.6133976 -2.2573036 15.2602524
-10.5569779 -2.2648073 13.6107479
-10.3979209 -2.2767075 11.9543143
-10.5792524 -2.2741195 10.2910282
-10.6299120 -2.2771118 8.6243997
-10.4265705 -2.2909785 6.9424425
-10.5451055 -2.2911025 5.2677728
-10.7237915 -2.2886534 3.5960092
-10.4935909 -2.3037524 1.8857897
-10.5539542 -2.3064075 0.1944431
-10.7040766 -2.3052127 -1.4891795
-10.7938014 -2.3066218 -3.1823314
-10.7381403 -2.3143096 -4.9018476
-10.4994903 -2.3299227 -6.6618795
-10.2679147 -2.3452735 -8.4345750
-9.8739711 -2.3676951 -10.2557492
-9.4606011 -2.3910190 -12.1009220
-8.9586863 -2.4182477 -13.9883029
-8.4061492 -2.4477482 -15.9125481
-7.7908562 -2.4800567 -17.8798359
-6.9551083 -2.5220519 -19.9408041
-6.1551803 -2.5625949 -22.0259192
-5.0950440 -2.6146049 -24.2324981
-4.0218661 -2.6673204 -26.4874309
-2.6363571 -2.7338436 -28.9022868
-0.9810131 -2.8123642 -31.4774284
-10.5777839 -3.8847553 23.4397412
-10.5174226 -3.8960749 21.8216080
-10.5367259 -3.9027520 20.1892405
-10.4145371 -3.9177716 18.5619181
-10.3636011 -3.9286415 16.9213165
-10.6483945 -3.9197536 15.2609619
-10.4287744 -3.9406238 13.6149944
-10.3858497 -3.9511109 11.9554256
-10.6038486 -3.9461880 10.2918777
-10.5285367 -3.9586413 8.6216172
-10.4326577 -3.9723543 6.9422881
-10.6129087 -3.9697006 5.2710012
-10.6022726 -3.9784043 3.5851165
-10.5066954 -3.9921986 1.8850942
-10.6452293 -3.9920674 0.2021644
-10.7755985 -3.9924296 -1.4829640
-10.6294954 -4.0093392 -3.2096307
-10.3817438 -4.0323901 -4.9635671
-10.0808027 -4.0587003 -6.7413367
-9.6372920 -4.0936525 -8.5632553
-9.2769516 -4.1237031 -10.3886101
-8.7553922 -4.1635529 -12.2695117
-8.0972972 -4.2117536 -14.2082774
-7.4516122 -4.2593431 -16.1726696
-6.5777144 -4.3208730 -18.2300885
-5.8104448 -4.3761206 -20.2922920
-4.6227125 -4.4570286 -22.5209930
-3.5156941 -4.5332649 -24.7707983
-2.0844082 -4.6294408 -27.1803182
-10.4648435 -5.5243736 26.6944049
-10.4943991 -5.5326486 25.0746722
-10.4040744 -5.5499292 23.4646648
-10.5413091 -5.5502002 21.8230909
-10.5904697 -5.5570913 20.1880669
-10.5812875 -5.5683947 18.5532409
-10.5176184 -5.5838386 16.9155498
-10.5571673 -5.5915485 15.2663992
-10.5773793 -5.6007462 13.6133938
-10.5581053 -5.6129617 11.9556585
-10.6478504 -5.6169623 10.2929535
-10.6724901 -5.6259173 8.6257380
-10.7008983 -5.6346176 6.9538454
-10.7311388 -5.6432094 5.2773199
-10.6801775 -5.6580155 3.5897588
-10.6762729 -5.6692813 1.8992047
-10.7295940 -5.6762150 0.2091189
-10.5233002 -5.7030302 -1.5182644
-10.3043801 -5.7308954 -3.2602758
-9.9479533 -5.7693936 -5.0378573
-9.5553965 -5.8107840 -6.8399395
-9.0835818 -5.8583966 -8.6769205
-8.5192028 -5.9132834 -10.5558066
-7.9085331 -5.9719065 -12.4708215
-7.2161499 -6.0370188 -14.4332612
-6.3310255 -6.1172387 -16.4769160
-5.4221912 -6.1995358 -18.5642689
-4.2491358 -6.3025813 -20.7688216
-3.0444805 -6.4083902 -23.0308530
-1.5202775 -6.5393831 -25.4486385
-10.3920027 -7.1148844 34.7175606
-10.5489825 -7.1137176 33.0932611
-10.5166595 -7.1296958 31.5060614
-10.5867980 -7.1364340 29.8939167
-10.5158162 -7.1560132 28.3021196
-10.5376256 -7.1672158 26.6887946
-10.5400660 -7.1802206 25.0733997
-10.5166102 -7.1956308 23.4557542
-10.5628695 -7.2047240 21.8248119
-10.5355335 -7.2205813 20.1962500
-10.6454712 -7.2239162 18.5517305
-10.6357972 -7.2382394 16.9117029
-10.6299902 -7.2522552 15.2656933
-10.6510263 -7.2638484 13.6133754
-10.6559978 -7.2769617 11.9562439
-10.6938711 -7.2870838 10.2940526
-10.6732225 -7.3026495 8.6258288
-10.7287485 -7.3112180 6.9546641
-10.7040505 -7.3272528 5.2747353
-10.6996514 -7.3414572 3.5898486
-10.6897778 -7.3562187 1.8985488
-10.4663271 -7.3909114 0.1773442
-10.1537010 -7.4340266 -1.5686242
-9.8239181 -7.4788779 -3.3334903
-9.3876936 -7.5338216 -5.1326810
-8.9173325 -7.5921320 -6.9587656
-8.3074923 -7.6637034 -8.8342593
-7.6477820 -7.7401793 -10.7473304
-6.9148376 -7.8237795 -12.7060724
-6.0549030 -7.9196003 -14.7277352
-5.0690285 -8.0275977 -16.8187942
-3.8798959 -8.1551327 -19.0078234
-2.4642401 -8.3044955 -21.3126289
-0.8522100 -8.4729280 -23.7357755
-10.2902272 -8.7636769 34.7484798
-10.4384723 -8.7636296 33.1239911
-10.3997579 -8.7835470 31.5358694
-10.4087928 -8.7984240 29.9325424
-10.4379851 -8.8111926 28.3208312
-10.3625612 -8.8352222 26.7204190
-10.4278131 -8.8442228 25.0933350
-10.4006309 -8.8631965 23.4738709
-10.4010010 -8.8792652 21.8452893
-10.3996804 -8.8955701 20.2114094
-10.3721916 -8.9147563 18.5738345
-10.4129679 -8.9266210 16.9261865
-10.4149720 -8.9427280 15.2757786
-10.4265177 -8.9578541 13.6196678
-10.3506859 -8.9825265 11.9587594
-10.3786703 -8.9959813 10.2909450
-10.3500772 -9.0156492 8.6168067
-10.3559644 -9.0316191 6.9375806
-10.3373118 -9.0503261 5.2513331
-10.3040615 -9.0706943 3.5575844
-9.9876446 -9.1221787 1.8301457
-9.6482822 -9.1763451 0.0837307
-9.2804224 -9.2338166 -1.6836156
-8.8319952 -9.3003435 -3.4809846
-8.2650073 -9.3801584 -5.3187261
-7.6188508 -9.4689702 -7.1959425
-6.9042717 -9.5656312 -9.1147093
-6.0583189 -9.6771538 -11.0921149
-5.1319650 -9.7979491 -13.1233418
-3.8913567 -9.9540553 -15.2706648
-2.2724119 -10.1527701 -17.5675787
-8.7262245 -10.6147240 33.4968430
-8.7587337 -10.6295457 31.8672308
-8.8005048 -10.6432775 30.2315737
-8.7707133 -10.6658823 28.6037237
-8.7866477 -10.6829133 26.9626180
-8.7440778 -10.7072387 25.3244167
-8.6611840 -10.7366390 23.6841341
-8.7205614 -10.7484827 22.0211159
-8.6524702 -10.7762073 20.3654431
-8.6385763 -10.7972776 18.6981967
-8.6896515 -10.8103209 17.0213955
-8.6314643 -10.8370486 15.3447173
-8.6505712 -10.8542014 13.6588369
-8.6167221 -10.8780431 11.9681407
-8.6131569 -10.8981667 10.2709600
-8.5892376 -10.9209145 8.5673339
-8.5527686 -10.9453170 6.8565705
-8.5677989 -10.9633138 5.1419371
-8.4426056 -10.9990631 3.4110252
-8.1831198 -11.0518972 1.6573345
-7.7809963 -11.1229514 -0.1268770
-7.3539169 -11.1973946 -1.9337903
-6.8051360 -11.2875235 -3.7788179
-6.1956642 -11.3856544 -5.6583619
-5.5264885 -11.4916990 -7.5754701
-4.7444467 -11.6124742 -9.5437710
-3.5144648 -11.7908476 -11.6407061
-0.9802625 -12.1366314 -14.0869575
-6.8275809 -12.5701019 32.2562314
-6.8282373 -12.5920713 30.5970910
-6.6622263 -12.6373806 28.9601662
-6.5899248 -12.6697321 27.2983286
-6.4892312 -12.7061640 25.6324205
-6.1857195 -12.7711559 23.9816892
-5.9593579 -12.8482093 20.6011462
-5.7235934 -12.9041924 18.9054072
-5.5170645 -12.9562288 17.1946851
-5.3934204 -12.9967192 15.4683261
-4.9179718 -13.1104358 11.9870119
-3.4518268 -13.4375847 3.0203976
-2.4765902 -13.6012216 1.1149168
-1.2209547 -13.8055556 -0.8607659
-1.0652799 -13.8526727 -2.7438753
-1.0069062 -13.8859586 -4.6245112
-1.0484391 -13.9049732 -6.4973609
-0.9211629 -13.9483962 -8.4055230
0
0
0
0
0
0
0
0
0
0
0
0
0
0
0
0
0
0
0
0
0
0
0
0
0
0
0
0
0
0
0
0
0
0
0
0
0
0
0
0
0
0
0
0
0
0
0
0
0
0
0
0
0
0
0
0
0
0
0
0
0
0
0
0
0
0
0
0
0
0
0
0
0
0
0
0
0
0
0
0
0
0
0
0
0
0
0
0
0
0
0
0
0
0
0
0
0
0
0
0
0
0
0
0
0
0
0
0
0
0
0
0
0
0
0
0
0
0
0
0
0
0
0
0
0
0
0
0
0
0
0
0
0
0
0
0
0
0
0
0
0
0
0
0
0
0
0
0
0
0
0
0
0
0
0
0
0
0
0
0
0
0
0
0
0
0
0
0
0
0
0
0
0
0
0
0
0
0
0
0
0
0
0
0
0
0
0
0
0
0
0
0
0
0
0
0
0
0
0
0
0
0
0
0
0
0
0
0
0
0
0
0
0
0
0
0
0
0
0
0
0
0
0
0
0
0
0
0
0
0
0
0
0
0
0
0
0
0
0
0
0
0
0
0
0
0
0
0
0
0
0
0
0
0
0
0
0
0
0
0
0
0
0
0
0
0
0
0
0
0
0
0
0
0
0
0
0
0
0
0
0
0
0
0
0
0
0
0
0
0
0
0
0
0
0
0
0
0
0
0
0
0
0
0
0
0
0
0
0
0
0
0
0
0
0
0
0
0
0
0
0
0
0
0
0
0
0
0
0
0
0
0
0
0
0
0
0
0
0
0
0
0
0
0
0
0
0
0
0
0
0
0
0
0
0
0
0
0
0
0
0
0
0
0
0
0
0
0
0
0
0
0
0
0
0
0
0
0
0
0
0
0
0
0
0
0
0
0
0
0
0
0
0
0
0
0
0
0
0
0
0
0
0
0
0
0
0
0
0
0
0
0
0
0
0
0
0
0
0
0
0
0
0
0
0
0
0
0
0
0
0
0
0
0
0
0
0
0
0
0
0
0
0
0
0
0
0
0
0
0
0
0
0
0
0
0
0
0
0
0
0
0
0
0
0
0
0
0
0
0
0
0
0
0
0
0
0
0
0
0
0
0
0
0
0
0
0
0
0
0
0
0
0
0
0
0
0
0
0
0
0
0
0
0
0
0
0
0
0
0
0
0
0
0
0
0
0
0
0
0
0
0
0
0
0
0
0
0
0
0
0
0
0
0
0
0
0
0
0
0
0
0
0
0
0
0
0
0
0
0
0
0
0
0
0
0
0
0
0
0
0
0
0
0
0
0
0
0
0
0
0
0
0
0
0
0
0
0
0
0
0
0
0
0
0
0
0
0
0
0
0
0
0
0
0
0
0
0
0
0
0
0
0
0
0
0
0
0
0
0
0
0
0
0
0
0
0
0
0
0
0
0
0
0
0
0
0
0
0
0
0
0
0
0
0
0
0
0
0
0
0
0
0
0
0
0
0
0
0
0
0
0
0
0
0
0
0
0
0
0
0
0
0
0
0
0
0
0
0
0
0
0
0
0
0
0
0
0
0
0
0
0
0
0
0
0
0
0
0
0
0
0
0
0
0
0
0
0
0
0
0
0
0
0
0
0
0
0
0
0
0
0
0
0
0
0
0
0
0
0
0
0
0
0
0
0
0
0
0
0
0
0
0
0
0
0
0
0
0
0
0
0
0
0
0
0
0
0
0
0
0
0
0
0
0
0
0
0
0
0
0
0
0
0
0
0
0
0
0
0
0
0
0
0
0
0
0
0
0
0
0
0
0
0
0
0
0
0
0
0
0
0
0
0
0
0
0
0
0
0
0
0
0
0
0
0
0
0
0
0
0
0
0
0
0
0
0
0
0
0
0
0
0
0
0
0
0
0
0
0
0
0
0
0
0
0
0
0
0
0
0
0
0
0
0
0
0
0
0
0
0
0
0
0
0
0
0
0
0
0
0
0
0
1 0
0
0
0
0
0
0
0
0
0
0
0
0
0
0
0
0
0
0
0
0
0
0
0
0
0
0
0
0
0
0
0
0
0
0
0
0
0
0
0
0
0
0
0
0
0
0
0
0
0
1 1
0
0
1 2
1 3
0
0
0
0
0
0
0
0
0
0
0
0
0
0
0
0
0
0
0
0
0
0
0
0
0
0
0
0
0
0
0
0
0
0
0
0
0
0
0
0
0
0
0
0
0
1 4
1 5
1 6
1 7
1 8
1 9
1 10
1 11
0
0
0
0
0
0
0
0
0
0
0
0
0
0
0
0
0
0
0
0
0
0
0
0
0
0
0
0
0
0
0
0
0
0
0
0
0
0
0
0
0
0
1 12
1 13
1 14
1 15
1 16
1 17
1 18
1 19
1 20
1 21
0
0
0
0
0
0
0
0
0
0
0
0
0
0
0
0
0
0
0
0
0
0
0
0
0
0
0
0
0
0
0
0
0
0
0
0
0
1 22
1 23
1 24
1 25
1 26
1 27
1 28
1 29
1 30
1 31
1 32
1 33
1 34
1 35
1 36
0
0
0
0
0
0
0
0
0
0
0
0
0
0
0
0
0
0
0
0
0
0
0
0
0
0
0
0
0
0
0
0
0
0
0
0
1 37
1 38
0
0
0
1 39
1 40
1 41
1 42
1 43
1 44
1 45
1 46
1 47
1 48
1 49
1 50
0
0
0
0
0
0
0
0
0
0
0
0
0
0
0
0
0
0
0
0
0
0
0
0
0
0
0
0
0
0
0
0
0
0
0
1 51
0
1 52
1 53
1 54
1 55
1 56
1 57
1 58
1 59
1 60
1 61
1 62
1 63
1 64
1 65
0
0
0
0
0
0
0
0
0
0
0
0
0
0
0
0
0
0
0
0
0
0
0
0
0
0
0
0
0
0
0
1 66
0
0
0
1 67
1 68
1 69
1 70
1 71
1 72
1 73
1 74
1 75
1 76
1 77
1 78
1 79
1 80
1 81
1 82
1 83
1 84
1 85
1 86
1 87
1 88
1 89
1 90
1 91
0
0
0
1 92
1 93
0
0
0
0
0
0
0
0
0
0
0
0
0
0
1 94
1 95
1 96
1 97
1 98
1 99
1 100
1 101
1 102
1 103
1 104
1 105
1 106
1 107
1 108
1 109
1 110
1 111
1 112
1 113
1 114
1 115
1 116
1 117
1 118
1 119
1 120
1 121
1 122
1 123
1 124
1 125
1 126
1 127
1 128
0
0
0
0
0
0
0
0
0
0
0
0
0
0
0
0
0
0
1 129
1 130
1 131
1 132
1 133
1 134
1 135
1 136
1 137
1 138
1 139
1 140
1 141
1 142
1 143
1 144
1 145
1 146
1 147
1 148
1 149
1 150
1 151
1 152
1 153
1 154
1 155
1 156
1 157
1 158
1 159
0
0
0
0
0
0
0
0
0
0
0
0
0
0
0
0
0
0
0
1 160
1 161
1 162
1 163
1 164
1 165
1 166
1 167
1 168
1 169
1 170
1 171
1 172
1 173
1 174
1 175
1 176
1 177
1 178
1 179
1 180
1 181
1 182
1 183
1 184
1 185
1 186
1 187
1 188
0
0
0
0
0
0
0
0
0
0
0
0
0
0
0
0
0
0
0
1 189
1 190
1 191
1 192
1 193
1 194
1 195
1 196
1 197
1 198
1 199
1 200
1 201
1 202
1 203
1 204
1 205
1 206
1 207
1 208
1 209
1 210
1 211
1 212
1 213
1 214
1 215
1 216
1 217
1 218
0
0
0
0
0
0
0
0
0
0
0
0
0
0
0
1 219
1 220
1 221
1 222
1 223
1 224
1 225
1 226
1 227
1 228
1 229
1 230
1 231
1 232
1 233
1 234
1 235
1 236
1 237
1 238
1 239
1 240
1 241
1 242
1 243
1 244
1 245
1 246
1 247
1 248
1 249
1 250
1 251
1 252
0
0
0
0
0
0
0
0
0
0
0
0
0
0
0
0
1 253
1 254
1 255
1 256
1 257
1 258
1 259
1 260
1 261
1 262
1 263
1 264
1 265
1 266
1 267
1 268
1 269
1 270
1 271
1 272
1 273
1 274
1 275
1 276
1 277
1 278
1 279
1 280
1 281
1 282
1 283
0
0
0
0
0
0
0
0
0
0
0
0
0
0
0
0
0
0
0
0
1 284
1 285
1 286
1 287
1 288
1 289
1 290
1 291
1 292
1 293
1 294
1 295
1 296
1 297
1 298
1 299
1 300
1 301
1 302
1 303
1 304
1 305
1 306
1 307
1 308
1 309
1 310
1 311
0
0
0
0
0
0
0
0
0
0
0
0
0
0
0
0
0
0
0
0
0
0
0
1 312
1 313
1 314
1 315
1 316
1 317
0
1 318
1 319
1 320
1 321
0
1 322
0
0
0
0
1 323
1 324
1 325
1 326
1 327
1 328
1 329
0
0
0
0
0
0
0
0
0
0
0
0
0
0
0
0
0
0
0
0
0
0
0
0
0
0
0
0
0
0
0
0
0
0
0
0
0
0
0
0
0
0
0
0
0
0
0
0
0
0
0
0
0
0
0
0
0
0
0
0
0
0
0
0
0
0
0
0
0
0
0
0
0
0
0
0
0
0
0
0
0
0
0
0
0
0
0
0
0
0
0
0
0
0
0
0
0
0
0
0
0
0
0
0
0
0
0
0
0
0
0
0
0
0
0
0
0
0
0
0
0
0
0
0
0
0
0
0
0
0
0
0
0
0
0
0
0
0
0
0
0
0
0
0
0
0
0
0
0
0
0
0
0
0
0
0
0
0
0
0
0
0
0
0
0
0
0
0
0
0
0
0
0
0
0
0
0
0
0
0
0
0
0
0
0
0
0
0
0
0
0
0
0
0
0
0
0
0
0
0
0
0
0
0
0
0
0
0
0
0
0
0
0
0
0
0
0
0
0
0
0
0
0
0
0
0
0
0
0
0
0
0
0
0
0
0
0
0
0
0
0
0
0
0
0
0
0
0
0
0
0
0
0
0
0
0
0
0
0
0
0
0
0
0
0
0
0
0
0
0
0
0
0
0
0
0
0
0
0
0
0
0
0
0
0
0
0
0
0
0
0
0
0
0
0
0
0
0
0
0
0
0
0
0
0
0
0
0
0
0
0
0
0
0
0
0
0
0
0
0
0
0
0
0
0
0
0
0
0
0
0
0
0
0
0
0
0
0
0
0
0
0
0
0
0
0
0
0
0
0
0
0
0
0
0
0
0
0
0
0
0
0
0
0
0
0
0
0
0
0
0
0
0
0
0
0
0
0
0
0
0
0
0
0
0
0
0
0
0
0
0
0
0
0
0
0
0
0
0
0
0
0
0
0
0
0
0
0
0
0
0
0
0
0
0
0
0
0
0
0
0
0
0
0
0
0
0
0
0
0
0
0
0
0
0
0
0
0
0
0
0
0
0
0
0
0
0
0
0
0
0
0
0
0
0
0
0
0
0
0
0
0
0
0
0
0
0
0
0
0
0
0
0
0
0
0
0
0
0
0
0
0
0
0
0
0
0
0
0
0
0
0
0
0
0
0
0
0
0
0
0
0
0
0
0
0
0
0
0
0
0
0
0
0
0
0
0
0
0
0
0
0
0
0
0
0
0
0
0
0
0
0
0
0
0
0
0
0
0
0
0
0
0
0
0
0
0
0
0
0
0
0
0
0
0
0
0
0
0
0
0
0
0
0
0
0
0
0
0
0
0
0
0
0
0
0
0
0
0
0
0
0
0
0
0
0
0
0
0
0
0
0
0
0
0
0
0
0
0
0
0
0
0
0
0
0
0
0
0
0
0
0
0
0
0
0
0
0
0
0
0
0
0
0
0
0
0
0
0
0
0
0
0
0
0
0
0
0
0
0
0
0
0
0
0
0
0
0
0
0
0
0
0
0
0
0
0
0
0
0
0
0
0
0
0
0
0
0
0
0
0
0
0
0
0
0
0
0
0
0
0
0
0
0
0
0
0
0
0
0
0
0
0
0
0
0
0
0
0
0
0
0
0
0
0
0
0
0
0
0
0
0
0
0
0
0
0
0
0
0
0
0
0
0
0
0
0
0
0
0
0
0
0
0
0
0
0
0
0
0
0
0
0
0
0
0
0
0
0
0
0
0
0
0
0
0
0
0
0
0
0
0
0
0
0
0
0
0
0
0
0
0
0
0
0
0
0
0
0
0
0
0
0
0
0
0
0
0
0
0
0
0
0
0
0
0
0
0
0
0
0
0
0
0
0
0
0
0
0
0
0
0
0
0
0
0
0
0
0
0
0
0
0
0
0
0
0
0
0
0
0
0
0
0
0
0
0
0
0
0
0
0
0
0
0
0
0
0
0
0
0
0
0
0
0
0
0
0
0
0
0
0
0
0
0
0
0
0
0
0
