ply
format ascii 1.0
obj_info num_cols 50
obj_info num_rows 50
element vertex 418
property float x
property float y
property float z
element range_grid 2500
property list uchar int vertex_indices
end_header
-10.7370799 0.2798972 -0.3630121
-10.7074001 -0.2920036 -2.1670579
-10.7649920 -1.1251592 -3.9557752
-10.7483942 -1.7207460 -5.7153908
-10.5497595 -1.7554439 -7.4635656
-10.3014236 -1.6394867 -9.2153770
-10.0340670 -1.4677750 -10.9737572
-9.7222082 -1.1653222 -12.7467039
-9.4105663 -0.8671226 -14.5294238
-9.0710790 -0.4904000 -16.3301956
-8.7469559 -0.1631441 -18.1377235
-8.3847908 0.2710294 -19.9708917
-10.6849059 -0.0350892 14.1914927
-10.6811078 -0.6870546 12.2836721
-10.6730505 -1.3175419 10.4021773
-10.6519464 -1.9002070 8.5496053
-10.5354536 -2.1868484 6.7542127
-10.5735760 -3.5591071 3.1228324
-10.7617090 -5.3399211 -0.4344987
-10.5715823 -5.3803631 -2.1348517
-10.3311180 -5.2734817 -3.8306182
-10.0492898 -5.0479439 -5.5295323
-9.7832359 -4.8704501 -7.2352871
-9.4349750 -4.4596196 -8.9544406
-9.1549705 -4.2478251 -10.6777108
-8.8033674 -3.8358572 -12.4214348
-8.4352182 -3.3820775 -14.1826849
-8.0946052 -3.0104875 -15.9510451
-7.7390364 -2.6015216 -17.7364475
-7.3479934 -2.0991046 -19.5484641
-6.9305008 -1.5296412 -21.3878941
-6.5275797 -1.0063777 -23.2388781
-6.0941136 -0.4059283 -25.1222169
-5.6625788 0.1826509 -27.0236243
-10.5746143 -0.8394313 26.9184435
-10.4594183 -1.1441560 25.0330940
-10.7066387 -2.5430804 22.8478610
-10.4705030 -2.4688319 21.1045777
-10.5500743 -3.3400433 19.1234814
-10.4022678 -3.5241924 17.3322557
-10.6138857 -4.7680584 15.3208701
-10.5557037 -5.2041560 13.5120750
-10.6339437 -6.0330100 11.6484517
-10.7475293 -6.9542250 9.7991504
-10.7144828 -7.4413922 8.0448922
-10.7752139 -8.1913988 6.2746314
-10.6815125 -8.4923679 4.5798822
-10.5407423 -8.6563690 2.9084752
-10.3199959 -8.5931776 1.2599300
-10.0876935 -8.4982955 -0.3887630
-9.8343854 -8.3459816 -2.0382514
-9.5353378 -8.0688077 -3.6900679
-9.2287955 -7.7741264 -5.3512248
-8.9257945 -7.4924187 -7.0222390
-8.5849813 -7.1110118 -8.7058648
-8.2245128 -6.6806917 -10.4048843
-7.8814969 -6.3020530 -12.1152765
-7.4952236 -5.8119124 -13.8478508
-7.1023013 -5.3094617 -15.5984917
-6.6799685 -4.7347218 -17.3748999
-6.2632660 -4.1810236 -19.1682386
-5.8693970 -3.6930089 -20.9705911
-5.4078344 -3.0341532 -22.8187312
-4.9613246 -2.4212775 -24.6809453
-4.4939188 -1.7611455 -26.5739258
-4.0169161 -1.0834296 -28.4935416
-3.5610911 -0.4667472 -30.4218609
-3.0540453 0.2731909 -32.4030752
-10.5986654 -6.9938508 23.6582448
-10.5675656 -7.4883599 21.8185744
-10.6043391 -8.1704029 19.9458972
-10.6089500 -8.7530053 18.1226549
-10.4739470 -8.9351257 16.4143717
-10.3443354 -9.1301076 14.7099699
-10.1884564 -9.2495527 13.0277992
-10.0417416 -9.3928887 11.3457419
-9.9045343 -9.5606443 9.6649715
-9.7562084 -9.6959475 7.9951421
-9.6251977 -9.8767283 6.3244470
-9.4931838 -10.0526470 4.6609188
-9.3043860 -10.0737253 3.0184432
-9.1023862 -10.0591667 1.3797025
-8.8687037 -9.9604114 -0.2543129
-8.6377248 -9.8698269 -1.8918816
-8.3889238 -9.7332831 -3.5312753
-8.1232931 -9.5541361 -5.1749383
-7.8491673 -9.3547703 -6.8248657
-7.5528365 -9.1000412 -8.4831330
-7.2326747 -8.7866638 -10.1528095
-6.8764391 -8.3842494 -11.8389266
-6.5091393 -7.9579006 -13.5408692
-6.0830765 -7.3872105 -15.2718206
-5.6689815 -6.8526377 -17.0183394
-5.2188403 -6.2333046 -18.7947355
-4.7607581 -5.6005949 -20.5946383
-4.2989731 -4.9652254 -22.4169332
-3.8381382 -4.3387128 -24.2596034
-3.3548665 -3.6635294 -26.1339341
-2.8600154 -2.9669297 -28.0364338
-2.3305258 -2.1932335 -29.9815566
-1.7938530 -1.4099594 -31.9560018
-1.2649456 -0.6531909 -33.9503608
-0.7303172 0.1097350 -35.9727728
-10.5742276 -8.5562245 33.6636808
-10.4951443 -8.9018274 31.8428558
-10.3547043 -9.0711637 30.1016888
-10.1988037 -9.1953058 28.3832085
-10.0691075 -9.3905108 26.6448715
-9.9196424 -9.5288803 24.9323442
-9.7754819 -9.6800793 23.2210217
-9.6286533 -9.8221761 21.5179893
-9.4797393 -9.9569057 19.8222853
-9.3615963 -10.1728381 18.1108001
-9.2057363 -10.2852808 16.4319471
-9.0684256 -10.4457341 14.7467360
-8.9249353 -10.5879465 13.0711866
-8.7932429 -10.7595339 11.3954929
-8.6455752 -10.8873253 9.7334945
-8.5118264 -11.0498470 8.0710757
-8.3751137 -11.2028305 6.4159411
-8.2566770 -11.4011063 4.7612968
-8.0812002 -11.4511198 3.1283075
-7.8648971 -11.3965591 1.5056318
-7.6349475 -11.3079456 -0.1166236
-7.4022939 -11.2133891 -1.7414982
-7.1390239 -11.0430455 -3.3674860
-6.8783062 -10.8807865 -4.9993132
-6.6090804 -10.6990616 -6.6368063
-6.3107773 -10.4474450 -8.2823605
-5.9964617 -10.1590817 -9.9382021
-5.6789923 -9.8659269 -11.6042849
-5.3277889 -9.4937968 -13.2868035
-4.9652790 -9.0980848 -14.9845287
-4.5693293 -8.6259515 -16.7048103
-4.1475507 -8.0967575 -18.4491207
-3.6848616 -7.4754803 -20.2257647
-3.2130379 -6.8387296 -22.0267113
-2.7174072 -6.1521732 -23.8591676
-2.1925779 -5.4039130 -25.7281942
-1.6674467 -4.6622582 -27.6219236
-1.1428063 -3.9289500 -29.5395831
-0.5915363 -3.1412280 -31.4968442
0.4463457 -1.2426920 -33.7865710
-9.3778009 -9.6203802 35.3573283
-9.3779018 -10.1610389 33.4533193
-9.2198151 -10.2717898 31.7423042
-9.0909425 -10.4589807 30.0060591
-8.9401419 -10.5859084 28.2989252
-8.7961647 -10.7292855 26.5908465
-8.6534976 -10.8744024 24.8875842
-8.5145807 -11.0275827 23.1872454
-8.3807373 -11.1921187 21.4892868
-8.2583516 -11.3842610 19.7897961
-8.1175193 -11.5269837 18.1102983
-7.9761132 -11.6666105 16.4369142
-7.8347317 -11.8047074 14.7691253
-7.7009105 -11.9602839 13.1029195
-7.5623619 -12.1022697 11.4450984
-7.4231127 -12.2409188 9.7931798
-7.2734068 -12.3520977 8.1506783
-7.1306705 -12.4792158 6.5102507
-6.9614566 -12.5399714 4.8824121
-6.7810985 -12.5728213 3.2597800
-6.5872666 -12.5725445 1.6412870
-6.3714202 -12.5190257 0.0264450
-6.1576167 -12.4708901 -1.5902943
-5.9193521 -12.3646951 -3.2068523
-5.6582231 -12.2051230 -4.8263828
-5.3824499 -12.0124339 -6.4515888
-5.0836159 -11.7673097 -8.0847276
-4.7663131 -11.4812937 -9.7281038
-4.4260715 -11.1445751 -11.3844984
-4.0569007 -10.7440105 -13.0576533
-3.6704337 -10.3073922 -14.7482949
-3.2683044 -9.8390023 -16.4578564
-2.8952456 -9.4415493 -18.1744594
-2.4978381 -8.9924926 -19.9126854
-2.0516496 -8.4372719 -21.6844388
-1.5525284 -7.7680612 -23.4968363
-1.0230207 -7.0370417 -25.3453482
-0.4869796 -6.2983184 -27.2213039
0.7207989 -4.0746974 -29.4780344
-8.0331709 -10.7828604 35.3198664
-8.0933418 -11.4476716 33.3692032
-7.9598174 -11.6117604 31.6471377
-7.8303138 -11.7841620 29.9280097
-7.6874666 -11.9209942 28.2285962
-7.5543451 -12.0806396 26.5263001
-7.4170060 -12.2279800 24.8341558
-7.2865326 -12.3906888 23.1426945
-7.1309904 -12.4897761 21.4764486
-6.9773071 -12.5922989 19.8130654
-6.8015249 -12.6397482 18.1681808
-6.6344794 -12.7078306 16.5201901
-6.4555242 -12.7463726 14.8816510
-6.2804364 -12.7937305 13.2429096
-6.1037510 -12.8367084 11.6069764
-5.9342557 -12.8962667 9.9699645
-5.7542397 -12.9302586 8.3393497
-5.5876813 -12.9955047 6.7059005
-5.3979373 -13.0057286 5.0816740
-5.2189410 -13.0408180 3.4555346
-5.0191611 -13.0273029 1.8350147
-4.8016706 -12.9729948 0.2169764
-4.6023777 -12.9609214 -1.4047932
-4.3829255 -12.9028480 -3.0253363
-4.1514539 -12.8179501 -4.6473693
-3.9281398 -12.7522578 -6.2720828
-3.7022739 -12.6813860 -7.8990139
-3.4774547 -12.6134701 -9.5281042
-3.0931743 -12.1906165 -11.1804374
-2.6918222 -11.7338398 -12.8503035
-2.2933921 -11.2877746 -14.5352738
-1.8932387 -10.8420586 -16.2359407
-1.5051996 -10.4269571 -17.9483136
-1.0930186 -9.9630953 -19.6825716
-0.6744068 -9.4895373 -21.4348115
-0.2322091 -8.9694083 -23.2123683
1.0014572 -6.7544342 -25.3520274
4.0174152 -0.7500029 -28.4072317
-6.8351882 -12.7392110 33.2766339
-6.6524960 -12.7725337 31.6192845
-6.4535181 -12.7661179 29.9791061
-6.2879309 -12.8398750 28.3087548
-6.1158134 -12.8971912 26.6472435
-5.9297825 -12.9207744 24.9995648
-5.7569901 -12.9753417 23.3430204
-5.5757798 -13.0094758 21.6949381
-5.3983797 -13.0521066 20.0459293
-5.2116726 -13.0725605 18.4046754
-5.0494018 -13.1493530 16.7503527
-4.8666941 -13.1781908 15.1101920
-4.6865326 -13.2125099 13.4701712
-4.5134689 -13.2626185 11.8285727
-4.3402623 -13.3118379 10.1892126
-4.1398638 -13.2990433 8.5617781
-3.9695435 -13.3539557 6.9245870
-3.8011616 -13.4126041 5.2891893
-3.6304441 -13.4654143 3.6567924
-3.4321299 -13.4564683 2.0319367
-3.2129552 -13.4015132 0.4101863
-2.9959839 -13.3518487 -1.2135562
-2.7542178 -13.2483959 -2.8370773
-2.5388412 -13.2032497 -4.4649221
-2.3695795 -13.2582972 -6.0937777
-2.2016231 -13.3155769 -7.7203296
-2.0400872 -13.3860296 -9.3440228
-1.6388796 -12.9440493 -10.9945204
-1.2457105 -12.5231432 -12.6591287
-0.8384972 -12.0763037 -14.3411171
-0.4437967 -11.6598119 -16.0355841
0.0517397 -11.0356284 -17.7718404
0.7026476 -10.0927450 -19.5775767
1.5128963 -8.8271997 -21.4707089
4.8109645 -2.4272172 -24.3551578
-5.2359913 -13.1785589 33.5493946
-5.0361729 -13.1714316 31.9048857
-4.8606256 -13.2202209 30.2380316
-4.6794483 -13.2555416 28.5783696
-4.4977140 -13.2891665 26.9208844
-4.3232497 -13.3388864 25.2593456
-4.1508588 -13.3927262 23.5985469
-3.9586675 -13.4014653 21.9538953
-3.7896594 -13.4618963 20.2948322
-3.5958132 -13.4663887 18.6534560
-3.4432004 -13.5620944 16.9893749
-3.2447882 -13.5558556 15.3530557
-3.0829823 -13.6299106 13.6993401
-2.9039889 -13.6656655 12.0562141
-2.7362415 -13.7254494 10.4103193
-2.5425043 -13.7283922 8.7761066
-2.3717897 -13.7807965 7.1351367
-2.2135700 -13.8594143 5.4930435
-2.0157386 -13.8527582 3.8632713
-1.8259732 -13.8632181 2.2319917
-1.5967222 -13.7900823 0.6073195
-1.3993128 -13.7845216 -1.0233367
-1.2082634 -13.7922606 -2.6543917
-1.0404403 -13.8482717 -4.2857002
-0.9035556 -13.9679030 -5.9146003
-0.7402134 -14.0317457 -7.5399812
-0.5956228 -14.1335105 -9.1613296
-0.1816528 -13.6828533 -10.8097577
0.3907115 -12.9133091 -12.4980534
1.0706137 -11.9322857 -14.2336754
1.7704197 -10.9196009 -16.0082360
2.6227848 -9.6088544 -17.8578191
5.2165739 -4.8221070 -20.2664244
-3.4012839 -13.5515753 32.2009747
-3.2313829 -13.6116338 30.5242692
-3.0576389 -13.6626206 28.8535527
-2.8820452 -13.7090136 27.1866762
-2.7024291 -13.7461621 25.5250109
-2.5319170 -13.8025562 23.8586128
-2.3472930 -13.8280050 22.2042388
-2.1801429 -13.8905408 20.5401578
-2.0080486 -13.9418910 18.8817352
-1.8303102 -13.9807287 17.2286951
-1.6540839 -14.0223294 15.5766937
-1.4796795 -14.0673058 13.9257476
-1.2963772 -14.0931966 12.2805886
-1.1188829 -14.1308729 10.6344832
-0.9424689 -14.1703784 8.9897299
-0.7667618 -14.2109182 7.3465462
-0.6005077 -14.2704372 5.7026755
-0.4158865 -14.2918121 4.0654773
-0.2263349 -14.3028972 2.4302824
-0.0419955 -14.3243788 0.7949967
0.1704218 -14.2889712 -0.8360754
0.4084651 -14.2023488 -2.4662769
0.6497008 -14.1100376 -4.0992809
0.9465102 -13.9078381 -5.7353562
1.2011528 -13.7909051 -7.3770511
1.5020360 -13.5836637 -9.0260395
2.1176984 -12.7596021 -10.7160360
2.8536665 -11.7071440 -12.4526353
3.7890737 -10.2750363 -14.2621940
5.2704538 -7.7958413 -16.2387230
-1.8030311 -14.0327528 32.4565938
-1.6285711 -14.0811150 30.7811300
-1.4302105 -14.0788181 29.1275530
-1.2645136 -14.1446830 27.4487659
-1.0775501 -14.1656691 25.7885882
-0.9026708 -14.2113990 24.1211603
-0.7507875 -14.3040100 22.4408391
-0.5636523 -14.3234353 20.7860716
-0.3854508 -14.3608535 19.1272605
-0.2138270 -14.4112352 17.4667204
-0.0074610 -14.3908208 15.8255199
0.1989923 -14.3703463 14.1838507
0.4116920 -14.3374636 12.5442522
0.6334355 -14.2867528 10.9070511
0.8621080 -14.2226511 9.2705083
1.1140740 -14.1129533 7.6387240
1.3340727 -14.0671239 5.9947315
1.5633304 -14.0034646 4.3513393
1.8108779 -13.9045669 2.7092105
2.1170869 -13.6923707 1.0723538
2.4250864 -13.4784555 -0.5719754
2.7174940 -13.2963601 -2.2251926
3.0313992 -13.0744656 -3.8840322
3.3365841 -12.8710509 -5.5508422
3.6261264 -12.6990628 -7.2243886
3.9813620 -12.4038928 -8.9082616
5.1188320 -10.6341507 -10.6808665
-0.1742655 -14.4665323 32.7345688
0.0335093 -14.4462766 31.0831394
0.2392446 -14.4302365 29.4295616
0.4549261 -14.3943629 27.7831491
0.6735819 -14.3528142 26.1377112
0.9077371 -14.2808143 24.5013566
1.1652321 -14.1632768 22.8772295
1.3753545 -14.1398713 21.2204924
1.6057203 -14.0769645 19.5743832
1.8485019 -13.9903316 17.9325030
2.0740363 -13.9378633 16.2792378
2.3299272 -13.8271044 14.6375922
2.5673563 -13.7527617 12.9844659
2.7931025 -13.7013780 11.3244651
3.0073863 -13.6722402 9.6589974
3.2636693 -13.5634749 8.0049497
3.5029634 -13.4877086 6.3426756
3.7376798 -13.4211393 4.6767883
3.9916082 -13.3190102 3.0121726
4.2774403 -13.1580461 1.3486806
4.5690210 -12.9876507 -0.3199577
4.8747501 -12.7923725 -1.9936225
5.1844056 -12.5913841 -3.6741458
5.8318703 -11.7709914 -5.3590706
7.0415380 -9.9279190 -7.0886675
1.8521864 -14.1444475 33.3465717
2.1323729 -13.9886529 31.7336941
2.3608678 -13.9338699 30.0747139
2.6047331 -13.8499666 28.4250894
2.8583864 -13.7479951 26.7791597
3.0837220 -13.7007638 25.1108082
3.3315164 -13.6112754 23.4547360
3.5676362 -13.5445273 21.7885990
3.8097540 -13.4669979 20.1233449
4.0546382 -13.3848741 18.4566988
4.3066171 -13.2901417 16.7904112
4.5373162 -13.2356527 15.1115160
4.7680175 -13.1815476 13.4307767
5.0097446 -13.1075180 11.7521618
5.2465857 -13.0429955 10.0693827
5.4889250 -12.9688939 8.3859674
5.7300821 -12.8974837 6.6996839
5.9603342 -12.8463502 5.0085883
6.2094469 -12.7615299 3.3192424
6.5114427 -12.5822759 1.6347104
7.2152057 -11.6851331 -0.0111113
8.2677505 -10.1731571 -1.6631767
4.3566609 -13.3859310 32.4576243
4.5975904 -13.3152706 30.7812800
4.8447276 -13.2336785 29.1067800
5.0876665 -13.1604149 27.4264092
5.3277452 -13.0929275 25.7415335
5.5820088 -13.0000766 24.0627714
5.7961838 -12.9806940 22.3578977
6.0717253 -12.8504642 20.6850072
6.3057493 -12.7959822 18.9867503
6.5582587 -12.7087290 17.2950666
6.7905975 -12.6581417 15.5917272
7.0495147 -12.5606176 13.8969394
7.4636747 -12.1887509 12.2530319
8.0272330 -11.5561254 10.6419986
8.6349696 -10.8507882 9.0189514
9.3557415 -9.9530392 7.3966579
10.0185061 -9.1634375 5.7274855
10.3642317 -8.9306951 3.9712445
6.6270932 -12.7986960 33.1883720
6.8669249 -12.7375268 31.4843250
7.1770658 -12.5520155 29.8270190
7.5793771 -12.2050188 28.2231914
8.2845779 -11.3275129 26.7942693
8.8375300 -10.7238870 25.2403776
9.3328056 -10.2257138 23.6304225
9.9609724 -9.5002328 22.0692260
0
0
0
0
0
0
0
0
0
0
0
0
0
0
0
0
0
0
0
0
0
0
0
0
0
0
0
0
0
0
0
0
0
0
0
0
0
0
0
0
0
0
0
0
0
0
0
0
0
0
0
0
0
0
0
0
0
0
0
0
0
0
0
0
0
0
0
0
0
0
0
0
0
0
0
0
0
0
0
0
0
0
0
0
0
0
0
0
0
0
0
0
0
0
0
0
0
0
0
0
0
0
0
0
0
0
0
0
0
0
0
0
0
0
0
0
0
0
0
0
0
0
0
0
0
0
0
0
0
0
0
0
0
0
0
0
0
0
0
0
0
0
0
0
0
0
0
0
0
0
0
0
0
0
0
0
0
0
0
0
0
0
0
0
0
0
0
0
0
0
0
0
0
0
0
0
0
0
0
0
0
0
0
0
0
0
0
0
0
0
0
0
0
0
0
0
0
0
0
0
0
0
0
0
0
0
0
0
0
0
0
0
0
0
0
0
0
0
0
0
0
0
0
0
0
0
0
0
0
0
0
0
0
0
0
0
0
0
0
0
0
0
0
0
0
0
0
0
0
0
0
0
0
0
0
0
0
0
0
0
0
0
0
0
0
0
0
0
0
0
0
0
0
0
0
0
0
0
0
0
0
0
0
0
0
0
0
0
0
0
0
0
0
0
0
0
0
0
0
0
0
0
0
0
0
0
0
0
0
0
0
0
0
0
0
0
0
0
0
0
0
0
0
0
0
0
0
0
0
0
0
0
0
0
0
0
0
0
0
0
0
0
0
0
0
0
0
0
0
0
0
0
0
0
0
0
0
0
0
0
0
0
0
0
0
0
0
0
0
0
0
0
0
0
0
0
0
0
0
0
0
0
0
0
0
0
0
0
0
0
0
0
0
0
0
0
0
0
0
0
0
0
0
0
0
0
0
0
0
0
0
0
0
0
0
0
0
0
0
0
0
0
0
0
0
0
0
0
0
0
0
0
0
0
0
0
0
0
0
0
0
0
0
0
0
0
0
0
0
0
0
0
0
0
0
0
0
0
0
0
0
0
0
0
0
0
0
0
0
0
0
0
0
0
0
0
0
0
0
0
0
0
0
0
0
0
0
0
0
0
0
0
0
0
0
0
0
0
0
0
0
0
0
0
0
0
0
0
0
0
0
0
0
0
0
0
0
0
0
0
0
0
0
0
0
0
0
0
0
0
0
0
0
0
0
0
0
0
0
0
0
0
0
0
0
0
0
0
0
0
0
0
0
0
0
0
0
0
0
0
0
0
0
0
0
0
0
0
0
0
0
0
0
0
0
0
0
0
0
0
0
0
0
0
0
0
0
0
0
0
0
0
0
0
0
0
0
0
0
0
0
0
0
0
0
0
0
0
0
0
0
0
0
0
0
0
0
0
0
0
0
0
0
0
0
0
0
0
0
0
0
0
0
0
0
0
0
0
0
0
0
0
0
0
0
0
0
0
0
0
0
0
0
0
0
0
0
0
0
0
0
0
0
0
0
0
0
0
0
0
0
0
0
0
0
0
0
0
0
0
0
0
0
0
0
0
0
0
0
0
0
0
0
0
0
0
0
0
0
0
0
0
0
0
0
0
0
0
0
0
0
0
0
0
0
0
0
0
0
0
0
0
0
0
0
0
0
0
0
0
0
0
0
0
0
0
0
0
0
0
0
0
0
0
0
0
0
0
0
0
0
0
0
0
0
0
0
0
0
0
0
0
0
0
0
0
0
0
0
0
0
0
0
0
0
0
0
0
0
0
0
0
0
0
0
0
0
0
0
0
0
0
0
0
0
0
0
0
0
0
0
0
0
0
0
0
0
0
0
0
0
0
0
0
0
0
0
0
0
0
0
0
0
0
0
0
0
0
0
0
0
0
0
0
0
0
0
0
0
0
0
0
0
0
0
0
0
0
0
0
0
0
0
0
0
0
0
0
0
0
0
0
0
0
0
0
0
0
0
0
0
0
0
0
0
0
0
0
0
0
0
0
0
0
0
0
0
0
0
0
0
0
0
0
0
0
0
0
0
0
0
0
0
0
0
0
0
0
0
0
0
0
0
0
0
0
0
0
0
0
0
0
0
0
0
0
0
0
0
0
0
0
0
0
0
0
0
0
0
0
0
0
0
0
0
0
0
0
0
0
0
0
0
0
0
0
0
0
0
0
0
0
0
0
0
0
0
0
0
0
0
0
0
0
1 0
1 1
1 2
1 3
1 4
1 5
1 6
1 7
1 8
1 9
1 10
1 11
0
0
0
0
0
0
0
0
0
0
0
0
0
0
0
0
0
0
0
0
0
0
0
0
0
0
0
0
0
0
1 12
1 13
1 14
1 15
1 16
0
1 17
0
1 18
1 19
1 20
1 21
1 22
1 23
1 24
1 25
1 26
1 27
1 28
1 29
1 30
1 31
1 32
1 33
0
0
0
0
0
0
0
0
0
0
0
0
0
0
0
0
0
0
0
1 34
1 35
1 36
1 37
1 38
1 39
1 40
1 41
1 42
1 43
1 44
1 45
1 46
1 47
1 48
1 49
1 50
1 51
1 52
1 53
1 54
1 55
1 56
1 57
1 58
1 59
1 60
1 61
1 62
1 63
1 64
1 65
1 66
1 67
0
0
0
0
0
0
0
0
0
0
0
0
0
0
0
0
0
1 68
1 69
1 70
1 71
1 72
1 73
1 74
1 75
1 76
1 77
1 78
1 79
1 80
1 81
1 82
1 83
1 84
1 85
1 86
1 87
1 88
1 89
1 90
1 91
1 92
1 93
1 94
1 95
1 96
1 97
1 98
1 99
1 100
1 101
1 102
0
0
0
0
0
0
0
0
0
1 103
1 104
1 105
1 106
1 107
1 108
1 109
1 110
1 111
1 112
1 113
1 114
1 115
1 116
1 117
1 118
1 119
1 120
1 121
1 122
1 123
1 124
1 125
1 126
1 127
1 128
1 129
1 130
1 131
1 132
1 133
1 134
1 135
1 136
1 137
1 138
1 139
1 140
1 141
1 142
0
0
0
0
0
0
0
0
0
1 143
1 144
1 145
1 146
1 147
1 148
1 149
1 150
1 151
1 152
1 153
1 154
1 155
1 156
1 157
1 158
1 159
1 160
1 161
1 162
1 163
1 164
1 165
1 166
1 167
1 168
1 169
1 170
1 171
1 172
1 173
1 174
1 175
1 176
1 177
1 178
1 179
1 180
1 181
0
0
0
0
0
0
0
0
0
0
0
1 182
1 183
1 184
1 185
1 186
1 187
1 188
1 189
1 190
1 191
1 192
1 193
1 194
1 195
1 196
1 197
1 198
1 199
1 200
1 201
1 202
1 203
1 204
1 205
1 206
1 207
1 208
1 209
1 210
1 211
1 212
1 213
1 214
1 215
1 216
1 217
1 218
1 219
0
0
0
0
0
0
0
0
0
0
0
0
0
1 220
1 221
1 222
1 223
1 224
1 225
1 226
1 227
1 228
1 229
1 230
1 231
1 232
1 233
1 234
1 235
1 236
1 237
1 238
1 239
1 240
1 241
1 242
1 243
1 244
1 245
1 246
1 247
1 248
1 249
1 250
1 251
1 252
1 253
1 254
0
0
0
0
0
0
0
0
0
0
0
0
0
0
0
1 255
1 256
1 257
1 258
1 259
1 260
1 261
1 262
1 263
1 264
1 265
1 266
1 267
1 268
1 269
1 270
1 271
1 272
1 273
1 274
1 275
1 276
1 277
1 278
1 279
1 280
1 281
1 282
1 283
1 284
1 285
1 286
1 287
0
0
0
0
0
0
0
0
0
0
0
0
0
0
0
0
0
0
1 288
1 289
1 290
1 291
1 292
1 293
1 294
1 295
1 296
1 297
1 298
1 299
1 300
1 301
1 302
1 303
1 304
1 305
1 306
1 307
1 308
1 309
1 310
1 311
1 312
1 313
1 314
1 315
1 316
1 317
0
0
0
0
0
0
0
0
0
0
0
0
0
0
0
0
0
0
0
0
1 318
1 319
1 320
1 321
1 322
1 323
1 324
1 325
1 326
1 327
1 328
1 329
1 330
1 331
1 332
1 333
1 334
1 335
1 336
1 337
1 338
1 339
1 340
1 341
1 342
1 343
1 344
0
0
0
0
0
0
0
0
0
0
0
0
0
0
0
0
0
0
0
0
0
0
0
1 345
1 346
1 347
1 348
1 349
1 350
1 351
1 352
1 353
1 354
1 355
1 356
1 357
1 358
1 359
1 360
1 361
1 362
1 363
1 364
1 365
1 366
1 367
1 368
1 369
0
0
0
0
0
0
0
0
0
0
0
0
0
0
0
0
0
0
0
0
0
0
0
0
0
1 370
1 371
1 372
1 373
1 374
1 375
1 376
1 377
1 378
1 379
1 380
1 381
1 382
1 383
1 384
1 385
1 386
1 387
1 388
1 389
1 390
1 391
0
0
0
0
0
0
0
0
0
0
0
0
0
0
0
0
0
0
0
0
0
0
0
0
0
0
0
0
0
1 392
1 393
1 394
1 395
1 396
1 397
1 398
1 399
1 400
1 401
1 402
1 403
1 404
1 405
1 406
1 407
1 408
1 409
0
0
0
0
0
0
0
0
0
0
0
0
0
0
0
0
0
0
0
0
0
0
0
0
0
0
0
0
0
0
0
0
1 410
1 411
1 412
1 413
1 414
1 415
1 416
1 417
0
0
0
0
0
0
0
0
0
0
0
0
0
0
0
0
0
0
0
0
0
0
0
0
0
0
0
0
0
0
0
0
0
0
0
0
0
0
0
0
0
0
0
0
0
0
0
0
0
0
0
0
0
0
0
0
0
0
0
0
0
0
0
0
0
0
0
0
0
0
0
0
0
0
0
0
0
0
0
0
0
0
0
0
0
0
0
0
0
0
0
0
0
0
0
0
0
0
0
0
0
0
0
0
0
0
0
0
0
0
0
0
0
0
0
0
0
0
0
0
0
0
0
0
0
0
0
0
0
0
0
0
0
0
0
0
0
0
0
0
0
0
0
0
0
0
0
0
0
0
0
0
0
0
0
0
0
0
0
0
0
0
0
0
0
0
0
0
0
0
0
0
0
0
0
0
0
0
0
0
0
0
0
0
0
0
0
0
0
0
0
0
0
0
0
0
0
0
0
0
0
0
0
0
0
0
0
0
0
0
0
0
0
0
0
0
0
0
0
0
0
0
0
0
0
0
0
0
0
0
0
0
0
0
0
0
0
0
0
0
0
0
0
0
0
0
0
0
0
0
0
0
0
0
0
0
0
0
0
0
0
0
0
0
0
0
0
0
0
0
0
0
0
0
0
0
0
0
0
0
0
0
0
0
0
0
0
0
0
0
0
0
0
0
0
0
0
0
0
0
0
0
0
0
0
0
0
0
0
0
0
0
0
0
0
0
0
0
0
0
0
0
0
0
0
0
0
0
0
0
0
0
0
0
0
0
0
0
0
0
0
0
0
0
0
0
0
0
0
0
0
0
0
0
0
0
0
0
0
0
0
0
0
0
0
0
0
0
0
0
0
0
0
0
0
0
0
0
0
0
0
0
0
0
0
0
0
0
0
0
0
0
0
0
0
0
0
0
0
0
0
0
0
0
0
0
0
0
0
0
0
0
0
0
0
0
0
0
0
0
0
0
0
0
0
0
0
0
0
0
0
0
0
0
0
0
0
0
0
0
0
0
0
0
0
0
0
0
0
0
0
0
0
0
0
0
0
0
0
0
0
0
0
0
0
0
0
0
0
0
0
0
0
0
0
0
0
0
0
0
0
0
0
0
0
0
0
0
0
0
0
0
0
0
0
0
0
0
0
0
0
0
0
0
0
0
0
0
0
0
0
0
0
0
0
0
0
0
0
0
0
0
0
0
0
0
0
0
0
0
0
0
0
0
0
0
0
0
0
0
0
0
0
0
0
0
0
0
0
0
0
0
0
0
0
0
0
0
0
0
0
0
0
0
0
0
0
0
0
0
0
0
0
0
0
0
0
0
0
0
0
0
0
0
0
0
0
0
0
0
0
0
0
0
0
0
0
0
0
0
0
0
0
0
0
0
0
0
0
0
0
0
0
0
0
0
0
0
0
0
0
0
0
0
0
0
0
0
0
0
0
0
0
0
0
0
0
0
0
0
0
0
0
0
0
0
0
0
0
0
0
0
0
0
0
0
0
0
0
0
0
0
0
0
0
0
0
0
0
0
0
0
0
0
0
0
0
0
0
0
0
0
0
0
0
0
0
0
0
0
0
0
0
0
0
0
0
0
0
0
0
0
0
0
0
0
0
0
0
0
0
0
0
0
0
0
0
0
0
0
0
0
0
0
0
0
0
0
0
0
0
0
0
0
0
0
0
0
0
0
0
0
0
0
0
0
0
0
0
0
0
0
0
0
0
0
0
0
0
0
0
0
0
0
0
0
0
0
0
0
0
0
0
0
0
0
0
0
0
0
0
0
0
0
0
0
0
0
0
0
0
0
0
0
0
0
0
0
0
0
0
0
0
0
0
0
0
0
0
0
0
0
0
0
0
0
0
0
0
0
0
0
0
0
0
0
0
0
0
0
0
0
0
0
0
0
