ply
format ascii 1.0
obj_info num_cols 50
obj_info num_rows 50
element vertex 294
property float x
property float y
property float z
element range_grid 2500
property list uchar int vertex_indices
end_header
-1.3276589 12.6578329 20.7699270
5.1172610 13.5900689 22.3187750
-3.4653695 10.7492982 17.3433873
-1.3041607 10.5895445 20.8769660
2.0635168 11.3699310 20.1183668
-1.1150235 10.5140463 9.6708883
0.7755678 10.7648206 10.4839897
2.2177742 10.8507565 11.7045448
3.2870208 10.7935486 13.2983913
3.7248043 10.4835326 15.5837964
4.1517149 10.1590773 17.9385744
-1.0338456 9.5130979 4.5388851
0.5029596 9.6452127 5.6551995
2.1580061 9.8284612 6.6381712
3.4098301 9.8544839 7.9840973
3.9104324 9.5730626 10.0839505
4.3895975 9.2738152 12.2537610
4.7584097 8.9182055 14.5942521
4.7994853 8.4098393 17.3633388
4.7388842 7.8400470 20.3404968
2.8731593 6.4471799 25.5804486
-6.7600488 6.2472034 4.4118611
-3.3046409 7.1364338 4.0307011
-0.7219647 7.6941617 4.2847403
1.7128812 8.2072053 4.5885635
3.2382579 8.3515706 5.6713825
4.6634117 8.4574611 6.8291917
4.4113958 7.8354698 9.6655041
4.7425719 7.4519803 11.9917597
4.7634285 6.9163669 14.7165315
4.7781986 6.3603197 17.5370857
6.9066431 6.7692621 18.0019944
7.1589833 6.3042731 20.6455123
7.1953576 5.7191814 23.6381218
-1.6237816 6.3702691 0.1844676
0.1588417 6.6246340 1.0901021
1.8713987 6.8562203 2.0209951
3.2550815 6.9498641 3.2181741
4.5328357 6.9990226 4.5013828
4.7684285 6.5758568 6.7960306
7.1386707 6.5802338 9.5897456
7.2065711 6.0495966 12.1969881
7.1654402 5.4484652 15.0104162
7.1869190 4.8579269 17.8477524
6.9157460 4.1002738 21.1332899
-2.3707417 5.1350531 -3.9230889
-0.4046767 5.4835346 -3.1586554
1.3211094 5.7351873 -2.2431162
2.7463410 5.8584561 -1.1058125
4.0510323 5.9301691 0.1207304
4.7266725 5.7110321 1.9112623
5.6018449 5.5795805 3.5435068
7.1353884 5.7604677 4.5497130
7.1604981 5.2106733 7.0581829
7.1570019 4.6289004 9.6768403
7.1806363 4.0416821 12.3522761
7.2055513 3.4354906 15.1147701
2.7274245 0.4599276 23.2099398
2.6637358 -0.2763243 26.4535331
3.1778383 -0.7264773 29.0936652
5.8853384 0.0130300 28.9759877
8.5373973 0.7486544 28.8099563
-2.2844246 3.7775669 -6.2960207
0.0603162 4.3172222 -5.8183473
1.8894207 4.6339063 -4.9995545
3.3984170 4.8096201 -3.9580888
4.6169079 4.8521716 -2.6921750
5.5933581 4.7789681 -1.2186888
6.4000708 4.6201971 0.4191479
7.1030301 4.4047771 2.1760341
7.1144720 3.8321445 4.6393133
7.1503064 3.2537167 7.1563699
7.1647450 2.6452487 9.7765112
7.1582705 2.0055033 12.5056040
6.8968062 1.2062528 15.6140413
7.2361971 0.7102849 18.1390595
5.8116139 -0.7907027 22.8673322
10.7223025 0.5470641 22.9798845
10.7410626 -0.1868050 26.1416182
-9.8035886 0.5867132 -10.1105248
-2.2819412 2.4057820 -8.5685403
0.0013057 2.9406300 -8.0299214
1.8051304 3.2608562 -7.1882315
3.3467957 3.4628470 -6.1772558
4.5873223 3.5221073 -4.9436972
5.5947796 3.4663467 -3.5193486
6.3457798 3.2784101 -1.8622337
7.0767830 3.0743918 -0.1634785
7.1984232 2.5441285 2.1379053
7.2850876 1.9783717 4.5420795
7.3675199 1.3920627 7.0248175
7.4954380 0.8115795 9.5379278
7.5774271 0.1860138 12.1798116
10.6996238 0.5844728 14.2704247
10.6947326 -0.1291591 17.1672356
10.7025746 -0.8606552 20.1518426
10.7111342 -1.6183337 23.2437975
3.1763347 -7.1006833 36.5861996
5.4606547 -6.5613169 37.1077160
-8.4653492 0.8444776 -17.3432515
-8.7255775 0.1993727 -15.1533715
-9.0261242 -0.4815175 -12.8727901
-3.2106854 1.1565516 -12.3043735
-1.1382284 1.6064359 -11.5831332
0.5934319 1.9021660 -10.6698769
2.0952680 2.0922582 -9.6206198
3.4805340 2.2291808 -8.5039755
4.6779193 2.2741528 -7.2544862
5.6100143 2.1829247 -5.7927608
6.4194549 2.0244280 -4.2162593
7.1484228 1.8181208 -2.5502119
7.3310470 1.3088722 -0.3601104
7.4353675 0.7404204 1.9662539
7.5709998 0.1713332 4.3323103
10.6777650 0.6181011 6.2954438
10.6445095 -0.0810252 8.9644923
10.6866302 -0.7589196 11.6409074
10.6966122 -1.4799590 14.4462633
10.5323673 -2.3345232 17.5617677
10.5048465 -3.1335895 20.6248278
10.7195360 -3.8062893 23.4863068
6.7867814 -7.2198349 32.0350905
8.1403555 -7.2360939 33.7075162
10.4512825 -6.6016212 33.9971620
-6.8705418 0.7470087 -22.2446446
-7.3168240 0.0219421 -20.0952750
-7.4751733 -0.5857931 -18.0371615
-6.5237777 -0.6777867 -16.5655811
-1.7716744 0.5331254 -15.3897522
-0.0073996 0.8584030 -14.4937910
1.5381292 1.0821444 -13.4826733
2.9617053 1.2497001 -12.4089128
4.1492070 1.2992769 -11.1798258
5.1348319 1.2437854 -9.8024621
5.9573190 1.0993307 -8.2902795
6.7259341 0.9213248 -6.7181497
7.2769396 0.6178715 -4.9411257
7.6132515 0.1848049 -2.9403402
10.6555614 0.6477928 -1.0333955
10.6393614 -0.0127234 1.3888827
10.6431898 -0.6829049 3.8707088
10.6749045 -1.3584614 6.4055690
10.6854146 -2.0699772 9.0481306
10.4690718 -2.9484937 12.0381915
10.6938910 -3.5758096 14.6244015
10.6299993 -4.4133266 17.6442273
10.7260338 -5.1753083 20.5750495
10.7348967 -6.0242806 23.7237490
10.7389586 -6.9085382 26.9971681
10.7813188 -7.7999130 30.3424444
10.6769773 -8.8309990 34.0296742
-5.0289777 0.8265467 -26.9627561
-5.4732563 0.1096070 -24.9589416
-5.7014346 -0.5214443 -23.0014185
-4.8455667 -0.6396021 -21.5658998
-3.7551499 -0.6448134 -20.2502986
-2.6860495 -0.6607927 -18.9220218
-1.3219114 -0.5273234 -17.7706345
0.6043701 -0.1008071 -16.9855916
2.3424069 0.2393096 -16.1193133
3.5706843 0.3192634 -14.9405254
4.6193612 0.3051558 -13.6431560
5.5136270 0.2066346 -12.2313174
6.2309618 0.0075601 -10.6747914
6.8125772 -0.2734396 -8.9903489
10.5917340 0.6501408 -7.7567745
10.6473259 0.0576205 -5.5977671
10.6164002 -0.6050694 -3.2938338
10.6380715 -1.2570727 -0.9650764
10.5314772 -2.0091450 1.5645517
10.6713803 -2.6318521 3.9304830
10.4658426 -3.4951176 6.7351565
10.7120320 -4.0956390 9.1491659
10.6491781 -4.9203564 11.9874227
10.7204511 -5.6843641 14.7708050
10.6990687 -6.5389975 17.7640654
10.7183760 -7.3966574 20.8164217
10.7578303 -8.2720385 23.9553396
9.7840932 -9.9109302 28.5857710
-3.0840884 1.0173781 -31.4218834
-3.4892679 0.3276686 -29.5728166
-3.8482768 -0.3566060 -27.6871810
-3.2808416 -0.5979452 -26.1962726
-2.2415603 -0.6080244 -24.9255638
-1.1286190 -0.5807738 -23.6933798
-0.1600620 -0.6273153 -22.3835847
0.9116495 -0.6210700 -21.1294632
1.8650195 -0.6773684 -19.8047615
2.9581036 -0.6600449 -18.5626524
4.0297673 -0.6538642 -17.3083695
9.0874625 0.9931834 -16.8571681
9.6170791 0.7154426 -15.2882241
9.8808313 0.2761401 -13.4895607
10.1407094 -0.1784892 -11.6437027
10.3618194 -0.6698898 -9.7196898
10.4779937 -1.2397076 -7.6554927
10.6198187 -1.8115366 -5.5539764
10.6908802 -2.4455310 -3.3265447
10.6557531 -3.1671184 -0.9294063
10.5191683 -3.9775570 1.6473209
10.6705814 -4.6265497 4.0210567
10.6719941 -5.3972258 6.6275915
10.6872820 -6.1849904 9.3083949
10.7165397 -6.9906731 12.0663837
10.7329808 -7.8339992 14.9363549
10.6624734 -8.7699055 18.0157835
8.4605116 -11.2891747 23.9106955
-1.3058464 0.7051826 -33.9609880
-1.8147430 -0.0424644 -32.1453593
-1.7835370 -0.5358550 -30.5103489
-0.8252211 -0.5674684 -29.2674267
0.1117087 -0.6109179 -28.0116252
5.3677342 1.0964501 -27.2855578
6.1498940 0.9901026 -26.0102578
6.7541033 0.7838340 -24.6231462
7.2342671 0.5033865 -23.1434353
7.6641381 0.1870525 -21.6073601
7.9799368 -0.2029378 -19.9685087
8.3430467 -0.5766487 -18.3260713
8.6508000 -0.9934340 -16.6100183
8.9897208 -1.4038249 -14.8775798
9.2939456 -1.8472040 -13.0796004
9.5497213 -2.3334639 -11.2004115
9.8418742 -2.8119170 -9.3032110
10.1215151 -3.3130113 -7.3475768
10.2917015 -3.8998717 -5.2444522
10.5558537 -4.4443040 -3.1668997
10.6952313 -5.0888147 -0.9137388
10.6801268 -5.8583132 1.5603444
10.7005605 -6.6292800 4.0814786
10.7073337 -7.4359685 6.7020411
10.7405467 -8.2518908 9.3839751
9.6660982 -9.8932913 13.4209774
0.4929403 0.4695029 -36.4069174
1.1969577 0.3374951 -35.1587417
1.7683595 0.1333940 -33.8444483
2.4347387 -0.0258167 -32.5565618
3.0316005 -0.2260302 -31.2240394
3.5896154 -0.4522795 -29.8568715
4.1633859 -0.6757456 -28.4795948
4.6289103 -0.9649550 -27.0269200
5.1328445 -1.2402760 -25.5716718
5.6399340 -1.5211858 -24.0953040
6.0795048 -1.8486371 -22.5547133
6.5577438 -2.1625287 -21.0102202
7.0085251 -2.5014625 -19.4206106
7.4525809 -2.8540510 -17.7965843
7.8316226 -3.2564164 -16.0953020
8.1026878 -3.7373212 -14.2785451
8.5250899 -4.1374960 -12.5324532
8.9053699 -4.5765521 -10.7157053
9.2432227 -5.0564754 -8.8224948
9.5805048 -5.5516722 -6.8825119
9.8315102 -6.1200722 -4.8178023
10.1576630 -6.6557262 -2.7653742
10.4169913 -7.2548863 -0.5951907
10.6057730 -7.9233238 1.7062474
10.4756120 -8.8415492 4.4040673
8.5899541 -11.0636834 9.0631821
0.5443580 -2.6977805 -31.8910705
1.2158415 -2.8806911 -30.5458307
1.8999509 -3.0611836 -29.1927734
2.5746309 -3.2516969 -27.8210427
3.2005133 -3.4752962 -26.4086883
3.7902158 -3.7259473 -24.9586922
4.1731010 -4.1056722 -23.3698017
4.8321262 -4.3302284 -21.9151322
5.4595170 -4.5802292 -20.4222048
5.9157678 -4.9427634 -18.7972586
6.3625020 -5.3215974 -17.1350077
6.8141049 -5.7083142 -15.4434393
7.3255784 -6.0678488 -13.7616952
7.7637687 -6.4859934 -11.9923214
8.1545492 -6.9482561 -10.1477536
8.5628737 -7.4129213 -8.2751293
8.9439228 -7.9107683 -6.3359712
9.2501176 -8.4764566 -4.2835092
9.1613776 -9.3393905 -1.8143334
8.6198368 -10.5557946 1.1704247
7.5309185 -12.2124556 4.8171163
0.6434343 -6.1194722 -26.9978880
1.3858611 -6.3006277 -25.5941251
2.1179661 -6.4928720 -24.1708431
2.8250310 -6.7057059 -22.7183142
3.4032329 -7.0046860 -21.1721105
4.0366969 -7.2770807 -19.6363652
4.6245411 -7.5864130 -18.0489819
5.2003420 -7.9124506 -16.4280181
5.7416714 -8.2707222 -14.7556341
6.1477998 -8.7301031 -12.9541981
6.4448694 -9.2774007 -11.0304255
6.4918359 -10.0139747 -8.8615040
6.4927890 -10.8056377 -6.5893428
6.3848430 -11.6997601 -4.1529364
0
0
0
0
0
0
0
0
0
0
0
0
0
0
0
0
0
0
0
0
0
0
0
0
0
0
0
0
0
0
0
0
0
0
0
0
0
0
0
0
0
0
0
0
0
0
0
0
0
0
0
0
0
0
0
0
0
0
0
0
0
0
0
0
0
0
0
0
0
0
0
0
0
0
0
0
0
0
0
0
0
0
0
0
0
0
0
0
0
0
0
0
0
0
0
0
0
0
0
0
0
0
0
0
0
0
0
0
0
0
0
0
0
0
0
0
0
0
0
0
0
0
0
0
0
0
0
0
0
0
0
0
0
0
0
0
0
0
0
0
0
0
0
0
0
0
0
0
0
0
0
0
0
0
0
0
0
0
0
0
0
0
0
0
0
0
0
0
0
0
0
0
0
0
0
0
0
0
0
0
0
0
0
0
0
0
0
0
0
0
0
0
0
0
0
0
0
0
0
0
0
0
0
0
0
0
0
0
0
0
0
0
0
0
0
0
0
0
0
0
0
0
0
0
0
0
0
0
0
0
0
0
0
0
0
0
0
0
0
0
0
0
0
0
0
0
0
0
0
0
0
0
0
0
0
0
0
0
0
0
0
0
0
0
0
0
0
0
0
0
0
0
0
0
0
0
0
0
0
0
0
0
0
0
0
0
0
0
0
0
0
0
0
0
0
0
0
0
0
0
0
0
0
0
0
0
0
0
0
0
0
0
0
0
0
0
0
0
0
0
0
0
0
0
0
0
0
0
0
0
0
0
0
0
0
0
0
0
0
0
0
0
0
0
0
0
0
0
0
0
0
0
0
0
0
0
0
0
0
0
0
0
0
0
0
0
0
0
0
0
0
0
0
0
0
0
0
0
0
0
0
0
0
0
0
0
0
0
0
0
0
0
0
0
0
0
0
0
0
0
0
0
0
0
0
0
0
0
0
0
0
0
0
0
0
0
0
0
0
0
0
0
0
0
0
0
0
0
0
0
0
0
0
0
0
0
0
0
0
0
0
0
0
0
0
0
0
0
0
0
0
0
0
0
0
0
0
0
0
0
0
0
0
0
0
0
0
0
0
0
0
0
0
0
0
0
0
0
0
0
0
0
0
0
0
0
0
0
0
0
0
0
0
0
0
0
0
0
0
0
0
0
0
0
0
0
0
0
0
0
0
0
0
0
0
0
0
0
0
0
0
0
0
0
0
0
0
0
0
0
0
0
0
0
0
0
0
0
0
0
0
0
0
0
0
0
0
0
0
0
0
0
0
0
0
0
0
0
0
0
0
0
0
0
0
0
0
0
0
0
0
0
0
0
0
0
0
0
0
0
0
0
0
0
0
0
0
0
0
0
0
0
0
0
0
0
0
0
0
0
0
0
0
0
0
0
0
0
0
0
0
0
0
0
0
0
0
0
0
0
0
0
0
0
0
0
0
0
0
0
0
0
0
0
0
0
0
0
0
0
0
0
0
0
0
0
0
0
0
0
0
0
0
0
0
0
0
0
0
0
0
0
0
0
0
0
0
0
0
0
0
0
0
0
0
0
0
0
0
0
0
0
0
0
0
0
0
0
0
0
0
0
0
0
0
0
0
0
0
0
0
0
0
0
0
0
0
0
0
0
0
0
0
0
0
0
0
0
0
0
0
0
0
0
0
0
0
0
0
0
0
0
0
0
0
0
0
0
0
0
0
0
0
0
0
0
0
0
0
0
0
0
0
0
0
0
0
0
0
0
0
0
0
0
0
0
0
0
0
0
0
0
0
0
0
0
0
0
0
0
0
0
0
0
0
0
0
0
0
0
0
0
0
0
0
0
0
0
0
0
0
0
0
0
0
0
0
0
0
0
0
0
0
0
0
0
0
0
0
0
0
0
0
0
0
0
0
0
0
0
0
0
1 0
0
0
1 1
0
0
0
0
0
0
0
0
0
0
0
0
0
0
0
0
0
0
0
0
0
0
0
0
0
0
0
0
0
0
0
0
0
0
0
0
0
0
0
0
0
0
0
0
1 2
0
1 3
1 4
0
0
0
0
0
0
0
0
0
0
0
0
0
0
0
0
0
0
0
0
0
0
0
0
0
0
0
0
0
0
0
0
0
0
0
0
0
0
0
0
0
0
0
0
1 5
1 6
1 7
1 8
1 9
1 10
0
0
0
0
0
0
0
0
0
0
0
0
0
0
0
0
0
0
0
0
0
0
0
0
0
0
0
0
0
0
0
0
0
0
0
0
0
0
0
0
0
0
1 11
1 12
1 13
1 14
1 15
1 16
1 17
1 18
1 19
1 20
0
0
0
0
0
0
0
0
0
0
0
0
0
0
0
0
0
0
0
0
0
0
0
0
0
0
0
0
0
0
0
0
0
0
0
0
0
0
1 21
1 22
1 23
1 24
1 25
1 26
1 27
1 28
1 29
1 30
1 31
1 32
1 33
0
0
0
0
0
0
0
0
0
0
0
0
0
0
0
0
0
0
0
0
0
0
0
0
0
0
0
0
0
0
0
0
0
0
0
0
0
1 34
1 35
1 36
1 37
1 38
1 39
0
1 40
1 41
1 42
1 43
1 44
0
0
0
0
0
0
0
0
0
0
0
0
0
0
0
0
0
0
0
0
0
0
0
0
0
0
0
0
0
0
0
0
0
0
0
0
1 45
1 46
1 47
1 48
1 49
1 50
1 51
1 52
1 53
1 54
1 55
1 56
1 57
1 58
1 59
1 60
1 61
0
0
0
0
0
0
0
0
0
0
0
0
0
0
0
0
0
0
0
0
0
0
0
0
0
0
0
0
0
0
0
0
1 62
1 63
1 64
1 65
1 66
1 67
1 68
1 69
1 70
1 71
1 72
1 73
1 74
1 75
1 76
0
1 77
1 78
0
0
0
0
0
0
0
0
0
0
0
0
0
0
0
0
0
0
0
0
0
0
0
0
0
0
0
0
1 79
0
0
1 80
1 81
1 82
1 83
1 84
1 85
1 86
1 87
1 88
1 89
1 90
1 91
1 92
0
1 93
1 94
1 95
1 96
1 97
1 98
0
0
0
0
0
0
0
0
0
0
0
0
0
0
0
0
0
0
0
0
0
0
0
0
1 99
1 100
1 101
0
1 102
1 103
1 104
1 105
1 106
1 107
1 108
1 109
1 110
1 111
1 112
1 113
0
1 114
1 115
1 116
1 117
1 118
1 119
1 120
1 121
1 122
1 123
0
0
0
0
0
0
0
0
0
0
0
0
0
0
0
0
0
0
0
0
0
1 124
1 125
1 126
1 127
0
1 128
1 129
1 130
1 131
1 132
1 133
1 134
1 135
1 136
1 137
0
1 138
1 139
1 140
1 141
1 142
1 143
1 144
1 145
1 146
1 147
1 148
1 149
1 150
0
0
0
0
0
0
0
0
0
0
0
0
0
0
0
0
0
0
0
1 151
1 152
1 153
1 154
1 155
1 156
1 157
1 158
1 159
1 160
1 161
1 162
1 163
1 164
0
1 165
1 166
1 167
1 168
1 169
1 170
1 171
1 172
1 173
1 174
1 175
1 176
1 177
1 178
0
0
0
0
0
0
0
0
0
0
0
0
0
0
0
0
0
0
0
1 179
1 180
1 181
1 182
1 183
1 184
1 185
1 186
1 187
1 188
1 189
0
1 190
1 191
1 192
1 193
1 194
1 195
1 196
1 197
1 198
1 199
1 200
1 201
1 202
1 203
1 204
1 205
1 206
0
0
0
0
0
0
0
0
0
0
0
0
0
0
0
0
0
0
0
0
1 207
1 208
1 209
1 210
1 211
0
1 212
1 213
1 214
1 215
1 216
1 217
1 218
1 219
1 220
1 221
1 222
1 223
1 224
1 225
1 226
1 227
1 228
1 229
1 230
1 231
1 232
0
0
0
0
0
0
0
0
0
0
0
0
0
0
0
0
0
0
0
0
0
0
1 233
1 234
1 235
1 236
1 237
1 238
1 239
1 240
1 241
1 242
1 243
1 244
1 245
1 246
1 247
1 248
1 249
1 250
1 251
1 252
1 253
1 254
1 255
1 256
1 257
1 258
0
0
0
0
0
0
0
0
0
0
0
0
0
0
0
0
0
0
0
0
0
0
0
0
0
0
0
1 259
1 260
1 261
1 262
1 263
1 264
1 265
1 266
1 267
1 268
1 269
1 270
1 271
1 272
1 273
1 274
1 275
1 276
1 277
1 278
1 279
0
0
0
0
0
0
0
0
0
0
0
0
0
0
0
0
0
0
0
0
0
0
0
0
0
0
0
0
0
0
0
0
1 280
1 281
1 282
1 283
1 284
1 285
1 286
1 287
1 288
1 289
1 290
1 291
1 292
1 293
0
0
0
0
0
0
0
0
0
0
0
0
0
0
0
0
0
0
0
0
0
0
0
0
0
0
0
0
0
0
0
0
0
0
0
0
0
0
0
0
0
0
0
0
0
0
0
0
0
0
0
0
0
0
0
0
0
0
0
0
0
0
0
0
0
0
0
0
0
0
0
0
0
0
0
0
0
0
0
0
0
0
0
0
0
0
0
0
0
0
0
0
0
0
0
0
0
0
0
0
0
0
0
0
0
0
0
0
0
0
0
0
0
0
0
0
0
0
0
0
0
0
0
0
0
0
0
0
0
0
0
0
0
0
0
0
0
0
0
0
0
0
0
0
0
0
0
0
0
0
0
0
0
0
0
0
0
0
0
0
0
0
0
0
0
0
0
0
0
0
0
0
0
0
0
0
0
0
0
0
0
0
0
0
0
0
0
0
0
0
0
0
0
0
0
0
0
0
0
0
0
0
0
0
0
0
0
0
0
0
0
0
0
0
0
0
0
0
0
0
0
0
0
0
0
0
0
0
0
0
0
0
0
0
0
0
0
0
0
0
0
0
0
0
0
0
0
0
0
0
0
0
0
0
0
0
0
0
0
0
0
0
0
0
0
0
0
0
0
0
0
0
0
0
0
0
0
0
0
0
0
0
0
0
0
0
0
0
0
0
0
0
0
0
0
0
0
0
0
0
0
0
0
0
0
0
0
0
0
0
0
0
0
0
0
0
0
0
0
0
0
0
0
0
0
0
0
0
0
0
0
0
0
0
0
0
0
0
0
0
0
0
0
0
0
0
0
0
0
0
0
0
0
0
0
0
0
0
0
0
0
0
0
0
0
0
0
0
0
0
0
0
0
0
0
0
0
0
0
0
0
0
0
0
0
0
0
0
0
0
0
0
0
0
0
0
0
0
0
0
0
0
0
0
0
0
0
0
0
0
0
0
0
0
0
0
0
0
0
0
0
0
0
0
0
0
0
0
0
0
0
0
0
0
0
0
0
0
0
0
0
0
0
0
0
0
0
0
0
0
0
0
0
0
0
0
0
0
0
0
0
0
0
0
0
0
0
0
0
0
0
0
0
0
0
0
0
0
0
0
0
0
0
0
0
0
0
0
0
0
0
0
0
0
0
0
0
0
0
0
0
0
0
0
0
0
0
0
0
0
0
0
0
0
0
0
0
0
0
0
0
0
0
0
0
0
0
0
0
0
0
0
0
0
0
0
0
0
0
0
0
0
0
0
0
0
0
0
0
0
0
0
0
0
0
0
0
0
0
0
0
0
0
0
0
0
0
0
0
0
0
0
0
0
0
0
0
0
0
0
0
0
0
0
0
0
0
0
0
0
0
0
0
0
0
0
0
0
0
0
0
0
0
0
0
0
0
0
0
0
0
0
0
0
0
0
0
0
0
0
0
0
0
0
0
0
0
0
0
0
0
0
0
0
0
0
0
0
0
0
0
0
0
0
0
0
0
0
0
0
0
0
0
0
0
0
0
0
0
0
0
0
0
0
0
0
0
0
0
0
0
0
0
0
0
0
0
0
0
0
0
0
0
0
0
0
0
0
0
0
0
0
0
0
0
0
0
0
0
0
0
0
0
0
0
0
0
0
0
0
0
0
0
0
0
0
0
0
0
0
0
0
0
0
0
0
0
0
0
0
0
0
0
0
0
0
0
0
0
0
0
0
0
0
0
0
0
0
0
0
0
0
0
0
0
0
0
0
0
0
0
0
0
0
0
0
0
0
0
0
0
0
0
0
0
0
0
0
0
0
0
0
0
0
0
0
0
0
0
0
0
0
0
0
0
0
0
0
0
0
0
0
0
0
0
0
0
0
0
0
0
0
0
0
0
0
0
0
0
0
0
0
0
0
0
0
0
0
0
0
0
0
0
0
0
0
0
0
0
0
0
0
0
0
0
0
0
0
0
0
0
0
0
0
0
0
0
0
0
0
0
0
0
0
0
0
0
0
0
0
0
0
0
0
