ply
format ascii 1.0
obj_info num_cols 50
obj_info num_rows 50
element vertex 369
property float x
property float y
property float z
element range_grid 2500
property list uchar int vertex_indices
end_header
4.2464884 13.3930696 23.1131888
2.0487950 12.8282453 20.8876767
-0.5872665 13.7292024 22.2261097
3.3991769 11.2021018 15.7013902
2.0533362 10.9177602 20.7786862
-4.7412281 13.2951965 23.2861237
3.7993675 9.6985024 12.0809289
4.6704840 9.0331354 14.1283279
4.7167095 8.7310275 15.9263325
4.7119677 8.4545903 17.6885011
4.7414493 8.1672037 19.4349184
6.9725964 6.6950100 23.2099542
7.1272473 6.3724544 24.8678797
7.1319320 6.6751852 11.1434442
7.1973719 6.3792033 12.9406016
7.1253066 6.1438883 14.6772122
7.1387326 5.8765409 16.4138227
7.1334452 5.6202660 18.1235496
7.0918814 5.3819513 19.8043596
7.1284929 5.1152334 21.4792907
7.0749218 4.8879077 23.1171343
7.0423981 4.6550757 24.7392235
5.8247492 4.8921919 26.1898568
7.1288270 5.6273667 5.6322541
7.0741030 5.3836866 7.4570460
7.0696865 5.1230072 9.2752041
7.0750953 4.8618370 11.0724511
7.1045986 4.5945345 12.8525899
7.0432440 4.3664741 14.5855015
7.0479966 4.1154981 16.3136984
4.7029840 4.7801834 17.5083674
7.1572657 3.3452409 21.3833222
3.0174470 4.6845282 22.3424136
2.6109395 4.5944339 23.9729263
7.0466948 4.3157458 1.8300517
7.1122487 4.0309069 3.7397694
7.0908933 3.7835737 5.5912155
7.1048665 3.5259207 7.4305227
7.1143600 3.2733804 9.2437038
7.1082555 3.0300708 11.0282494
7.1007614 2.7904496 12.7894003
7.1316514 2.5395527 14.5378232
10.5533446 0.8062461 18.6986850
10.6726891 0.5406799 20.3354864
10.6599331 0.3266400 21.9235826
10.6356196 0.1194626 23.4902951
10.5954255 -0.0794296 25.0359455
10.6528978 -0.3107752 26.5765766
10.1267566 -0.3320425 28.0297523
8.6880253 -0.0312309 29.3928543
6.1303016 3.2944399 -2.4036126
7.1876827 2.6424809 -0.0225180
10.6534815 0.6322004 6.8139468
10.6501718 0.4036393 8.5690665
10.6244221 0.1862170 10.2942694
10.6682871 -0.0534603 12.0182638
10.6425319 -0.2651096 13.6993550
10.5968236 -0.4669503 15.3545777
10.6192807 -0.6902861 17.0063497
10.6052514 -0.8979850 18.6283909
10.6009840 -1.1064659 20.2323868
10.6444901 -1.3288634 21.8251887
10.5958399 -1.5167998 23.3813758
9.3669104 -1.2993573 24.7436022
8.8563356 -1.3286039 26.2235956
7.9528101 -1.2251555 27.6563487
10.5824635 0.7514301 -8.1099093
10.6048478 0.5010676 -6.1494853
10.5924911 0.2667903 -4.2333201
10.6340415 0.0162575 -2.3185400
10.5915277 -0.2007351 -0.4675345
10.5961106 -0.4315676 1.3793481
10.5991752 -0.6587682 3.2007184
10.5983750 -0.8815866 4.9962947
10.5994156 -1.1020990 6.7687925
10.6007628 -1.3198193 8.5180632
10.6202280 -1.5409216 10.2501137
10.6416531 -1.7598199 11.9596149
10.5997697 -1.9544370 13.6289585
10.6649704 -2.1826170 15.3057911
10.4699133 -2.3208636 16.8971136
10.5509807 -2.5491118 18.5355726
10.4729676 -2.7219926 20.1185747
10.6590280 -2.9792752 21.7331985
10.6024014 -3.1543107 23.2810833
4.0172493 -1.2156209 23.8289509
3.5654774 -1.2731387 25.4001664
2.8229022 -1.2372183 26.9325893
2.2599603 -1.2588883 28.4879464
-0.8827070 -0.4673200 29.8251894
8.5624988 0.8287953 -19.4429534
9.0958230 0.3870157 -16.9929194
9.5371962 -0.0155924 -14.6509490
9.8573093 -0.3695305 -12.4261030
10.1786106 -0.7188473 -10.2434289
10.4608609 -1.0496185 -8.1228751
10.5816189 -1.3198935 -6.1215866
10.7124334 -1.5898859 -4.1472820
10.6019682 -1.7739143 -2.3136015
10.6366800 -2.0046224 -0.4381697
10.4260026 -2.1497544 1.3099795
10.5812554 -2.4151173 3.1852100
10.5564800 -2.6172691 4.9634173
10.4225042 -2.7808327 6.6806834
10.5386347 -3.0240213 8.4631355
10.6008846 -3.2465352 10.2016271
10.4166448 -3.3867139 11.8430634
10.4382151 -3.5910251 13.5263296
10.6198341 -3.8436169 15.2285956
10.4757221 -3.9900909 16.8254314
10.4934242 -4.1855208 18.4426906
10.6185986 -4.4119951 20.0610176
10.6265165 -4.5993246 21.6333654
10.6254165 -4.7815651 23.1845171
10.6401708 -4.9664131 24.7190695
-2.0745908 -1.2847660 24.5173807
-2.4724152 -1.3656133 26.1767854
-3.7979758 -1.1675593 27.7342222
-4.0843502 -1.2816161 29.4033677
5.3010637 0.7530672 -28.1439782
6.1541752 0.2037044 -25.2817792
6.9356075 -0.3129015 -22.5395721
7.7127954 -0.8204500 -19.8684679
8.2064481 -1.2247318 -17.4354724
8.7732416 -1.6477110 -15.0124569
9.2772547 -2.0437022 -12.6792308
9.6694182 -2.3970742 -10.4568597
10.0426124 -2.7392326 -8.2891234
10.2990141 -3.0385497 -6.2222023
10.5131311 -3.3200435 -4.2125745
10.6397776 -3.5695844 -2.2772596
10.6549471 -3.7801978 -0.4205124
10.4954992 -3.9327208 1.3391107
10.5073162 -4.1370897 3.1478747
10.6319543 -4.3739731 4.9742740
10.5559790 -4.5455448 6.7019178
10.6383785 -4.7636496 8.4623218
10.6784075 -4.9659621 10.1839019
10.5970826 -5.1288234 11.8462544
10.6408772 -5.3273535 13.5246572
10.6499526 -5.5129565 15.1713675
10.6393818 -5.6903735 16.7923121
10.6497809 -5.8717676 18.3979565
10.6681432 -6.0532391 19.9849062
10.6111141 -6.2104762 21.5375315
10.6471724 -6.3927615 23.0887100
10.6402868 -6.5604511 24.6132202
10.6395778 -6.7278720 26.1202750
10.6479292 -6.8958463 27.6102435
10.6516438 -7.0604942 29.0815943
10.6757990 -7.2289110 30.5370597
10.6261701 -7.3747606 31.9692778
10.6624510 -7.5426959 33.3908895
10.5063563 -7.6557088 34.7871018
9.8049398 -7.6182897 36.1585636
0.9906966 0.6388056 -35.8559295
2.5726887 -0.1391749 -32.2685480
3.8279372 -0.7985071 -29.0210435
4.7045067 -1.3250393 -26.1225264
5.7150336 -1.8869316 -23.2114008
6.6669603 -2.4218091 -20.4159546
7.3703134 -2.8699858 -17.8450866
7.9291997 -3.2661780 -15.4199615
8.5505010 -3.6762088 -13.0141206
9.0635649 -4.0468066 -10.7221017
9.4319680 -4.3676070 -8.5544883
9.8314018 -4.6934193 -6.4142871
10.2012264 -5.0057173 -4.3312413
10.5391330 -5.3040899 -2.3036780
10.6574258 -5.5326503 -0.4097664
10.6435658 -5.7188676 1.4005357
10.6689362 -5.9142058 3.2027515
10.6525993 -6.0947528 4.9649588
10.6625025 -6.2805864 6.7139892
10.5907799 -6.4404216 8.4128600
10.6529116 -6.6366352 10.1343057
10.6285416 -6.8056675 11.8061262
10.6494922 -6.9853895 13.4700629
10.6212644 -7.1490081 15.0995842
10.6316354 -7.3213627 16.7188772
10.6395991 -7.4908982 18.3171095
10.6438535 -7.6573089 19.8945218
10.6470243 -7.8213730 21.4521710
10.6821626 -7.9921243 22.9961224
10.6954791 -8.1548933 24.5168180
10.6969671 -8.3125154 26.0170840
10.6666842 -8.4597674 27.4954344
10.6556137 -8.6103600 28.9590781
10.6222704 -8.7533008 30.4037142
10.5580278 -8.8864754 31.8300818
10.4948248 -9.0183720 33.2417361
10.2336964 -9.0975946 34.6306720
9.5886673 -9.0773642 36.0014432
7.5486183 -8.7014649 37.3608222
2.0393211 -2.2937883 -30.1144585
3.1357466 -2.8569202 -27.0405848
4.2931505 -3.4300931 -24.0118494
5.4768535 -4.0026967 -21.0523445
6.2615356 -4.4484761 -18.4181825
6.9897628 -4.8711839 -15.8821318
7.7893784 -5.3087123 -13.3677934
8.3270106 -5.6639428 -11.0572073
8.8750128 -6.0171603 -8.7920837
9.3364120 -6.3406565 -6.6198686
9.7411911 -6.6435837 -4.5199501
10.0975125 -6.9286793 -2.4842192
10.3797322 -7.1891375 -0.5199268
10.5867164 -7.4251602 1.3777134
10.6684961 -7.6234623 3.1943326
10.6286289 -7.7858049 4.9392344
10.6486744 -7.9623628 6.6839603
10.6805772 -8.1398459 8.4094773
10.6622317 -8.3015559 10.0960316
10.6678762 -8.4676105 11.7688317
10.6061924 -8.6137303 13.4016112
10.5648540 -8.7633818 15.0211737
10.4719209 -8.8976914 16.6094015
10.3756723 -9.0294959 18.1801867
10.2808755 -9.1600721 19.7349956
10.1834763 -9.2884037 21.2732857
10.0891213 -9.4159694 22.7964543
9.9613489 -9.5335633 24.2989724
9.8562509 -9.6554673 25.7905599
9.7764442 -9.7822493 27.2706716
9.6455914 -9.8948833 28.7302490
9.5608620 -10.0175805 30.1807516
9.4686962 -10.1370341 31.6162535
9.3686559 -10.2531968 33.0373318
9.1099798 -10.3296781 34.4381298
8.1163425 -10.2287445 35.8102695
2.0242708 -8.9117851 37.1329270
1.4630837 -4.4030129 -28.0253216
2.8431968 -5.0029794 -24.8281457
4.0794060 -5.5540148 -21.8165104
5.0436099 -6.0217728 -19.0556577
6.0471778 -6.4935799 -16.3453243
6.8326071 -6.8991651 -13.8299943
7.5662029 -7.2849631 -11.4049540
8.1416098 -7.6228379 -9.1202479
8.7138212 -7.9551430 -6.8882948
9.1754286 -8.2535638 -4.7585505
9.5011055 -8.5121657 -2.7346298
9.8254240 -8.7669032 -0.7493698
9.9914560 -8.9771985 1.1335513
10.0805323 -9.1649052 2.9560677
9.9506768 -9.2942246 4.6704722
9.8341506 -9.4252880 6.3718165
9.7294072 -9.5576675 8.0591670
9.6382008 -9.6917724 9.7327563
9.5268027 -9.8191837 11.3821782
9.4579621 -9.9555220 13.0263346
9.4063648 -10.0943989 14.6566589
9.2689696 -10.2106703 16.2476088
9.2176807 -10.3463654 17.8426774
9.0861086 -10.4611167 19.4031674
8.9732599 -10.5789680 20.9523636
8.8674954 -10.6970963 22.4875683
8.7582305 -10.8130007 24.0070452
8.6383662 -10.9250606 25.5102487
8.5549295 -11.0442844 27.0037685
8.4424566 -11.1554067 28.4790668
8.3478626 -11.2693513 29.9420853
8.2375052 -11.3783877 31.3896812
8.1422264 -11.4895986 32.8246881
7.9758776 -11.5835345 34.2428111
-4.3474386 -8.9549169 35.2943574
-4.9220050 -8.9728603 36.8675315
0.9290358 -6.4931248 -25.9417408
2.2973408 -7.0420641 -22.8181676
3.6134409 -7.5696028 -19.8190832
4.8969139 -8.0811907 -16.9277665
5.7261182 -8.4705973 -14.3747429
6.3832456 -8.8113022 -11.9780078
7.0517419 -9.1500534 -9.6311069
7.5254232 -9.4359032 -7.4351388
7.8396282 -9.6786625 -5.3602294
8.1367298 -9.9139505 -3.3314551
8.4187063 -10.1424004 -1.3461686
8.6515429 -10.3559790 0.5832767
8.8035253 -10.5474281 2.4480585
8.7888080 -10.6968679 4.2215823
8.6642155 -10.8185396 5.9340381
8.6017136 -10.9531967 7.6495197
8.4911648 -11.0750114 9.3301569
8.4145598 -11.2031405 11.0033227
8.2839845 -11.3173289 12.6429897
8.1869310 -11.4377488 14.2752264
8.0911561 -11.5569909 15.8907128
8.0073920 -11.6774839 17.4921163
7.9093332 -11.7933388 19.0736445
7.7959264 -11.9044118 20.6361372
7.7025945 -12.0185851 22.1868344
7.5865013 -12.1264368 23.7182594
7.5247206 -12.2448183 25.2426871
7.3889977 -12.3458632 26.7417278
7.3129852 -12.4585427 28.2337556
7.1665532 -12.5549256 29.7040947
7.0846540 -12.6638711 31.1667193
6.9017194 -12.7503326 32.6086717
5.5086374 -12.5830333 33.9837933
-6.7514932 -10.1619692 35.0495218
0.5106809 -8.5799750 -23.8198565
1.6798847 -9.0352367 -20.8823121
2.7709753 -9.4655760 -18.0721885
3.7453147 -9.8625236 -15.4041608
4.6216187 -10.2311373 -12.8591481
5.4223433 -10.5771885 -10.4179812
5.8599950 -10.8355717 -8.2160345
6.3487244 -11.1019762 -6.0344686
6.7138142 -11.3369352 -3.9543081
6.9223809 -11.5337725 -1.9813798
7.1997261 -11.7432387 -0.0129885
7.4235732 -11.9381466 1.8995947
7.4856246 -12.0951246 3.7198286
7.4190735 -12.2221651 5.4692999
7.3118569 -12.3388417 7.1851518
7.1826451 -12.4493626 8.8759252
7.0273560 -12.5529835 10.5419572
6.8135109 -12.6429842 12.1759095
6.6242213 -12.7370712 13.8029465
6.3505946 -12.8124739 15.3954661
6.0853078 -12.8887441 16.9791162
5.8301099 -12.9662225 18.5540275
5.5432119 -13.0363500 20.1118546
5.2786442 -13.1102311 21.6638648
5.0541825 -13.1913734 23.2119384
4.7686418 -13.2593734 24.7398939
4.5740130 -13.3447210 26.2700543
4.2623745 -13.4059835 27.7753509
4.0053196 -13.4773207 29.2777013
3.8049351 -13.5589462 30.7748439
3.5434571 -13.6278287 32.2569032
3.2289728 -13.6857657 33.7272639
0.5593344 -11.0545794 -17.0998441
2.0160862 -11.5211048 -14.1887595
3.1244126 -11.9075773 -11.5461295
4.1831329 -12.2782413 -9.0015724
4.5150874 -12.4927948 -6.8695059
4.6229649 -12.6582415 -4.8778440
4.6871889 -12.8125640 -2.9346676
4.5468378 -12.9232849 -1.1029683
4.5503095 -13.0616416 0.7661620
4.4374184 -13.1749044 2.5679037
4.3180658 -13.2854675 4.3481799
3.9973249 -13.3548590 6.0424706
3.7442386 -13.4367352 7.7473765
3.5074367 -13.5208240 9.4440868
3.2043803 -13.5910988 11.1088570
3.0048029 -13.6804767 12.7899684
2.7768397 -13.7633847 14.4499112
2.5464262 -13.8448710 16.0963168
2.2490974 -13.9128142 17.7160089
1.9805789 -13.9854016 19.3311004
1.7942273 -14.0724625 20.9497324
1.4877679 -14.1363413 22.5357070
1.2490096 -14.2119603 24.1220867
1.0142473 -14.2874732 25.6976475
0.7889751 -14.3638757 27.2630075
0.5762602 -14.4417014 28.8182060
0.2626846 -14.5006361 30.3537973
0.8705574 -13.4545527 -10.5894099
1.4549458 -13.7026097 -8.2810186
1.2292743 -13.7952283 -6.3877266
0.9618888 -13.8789262 -4.5293552
0.8380134 -13.9881631 -2.6269819
0.6485466 -14.0839791 -0.7705605
0.5159582 -14.1889961 1.0896886
0.3795580 -14.2920248 2.9294078
0.2035325 -14.3866618 4.7371722
0
0
0
0
0
0
0
0
0
0
0
0
0
0
0
0
0
0
0
0
0
0
0
0
0
0
0
0
0
0
0
0
0
0
0
0
0
0
0
0
0
0
0
0
0
0
0
0
0
0
0
0
0
0
0
0
0
0
0
0
0
0
0
0
0
0
0
0
0
0
0
0
0
0
0
0
0
0
0
0
0
0
0
0
0
0
0
0
0
0
0
0
0
0
0
0
0
0
0
0
0
0
0
0
0
0
0
0
0
0
0
0
0
0
0
0
0
0
0
0
0
0
0
0
0
0
0
0
0
0
0
0
0
0
0
0
0
0
0
0
0
0
0
0
0
0
0
0
0
0
0
0
0
0
0
0
0
0
0
0
0
0
0
0
0
0
0
0
0
0
0
0
0
0
0
0
0
0
0
0
0
0
0
0
0
0
0
0
0
0
0
0
0
0
0
0
0
0
0
0
0
0
0
0
0
0
0
0
0
0
0
0
0
0
0
0
0
0
0
0
0
0
0
0
0
0
0
0
0
0
0
0
0
0
0
0
0
0
0
0
0
0
0
0
0
0
0
0
0
0
0
0
0
0
0
0
0
0
0
0
0
0
0
0
0
0
0
0
0
0
0
0
0
0
0
0
0
0
0
0
0
0
0
0
0
0
0
0
0
0
0
0
0
0
0
0
0
0
0
0
0
0
0
0
0
0
0
0
0
0
0
0
0
0
0
0
0
0
0
0
0
0
0
0
0
0
0
0
0
0
0
0
0
0
0
0
0
0
0
0
0
0
0
0
0
0
0
0
0
0
0
0
0
0
0
0
0
0
0
0
0
0
0
0
0
0
0
0
0
0
0
0
0
0
0
0
0
0
0
0
0
0
0
0
0
0
0
0
0
0
0
0
0
0
0
0
0
0
0
0
0
0
0
0
0
0
0
0
0
0
0
0
0
0
0
0
0
0
0
0
0
0
0
0
0
0
0
0
0
0
0
0
0
0
0
0
0
0
0
0
0
0
0
0
0
0
0
0
0
0
0
0
0
0
0
0
0
0
0
0
0
0
0
0
0
0
0
0
0
0
0
0
0
0
0
0
0
0
0
0
0
0
0
0
0
0
0
0
0
0
0
0
0
0
0
0
0
0
0
0
0
0
0
0
0
0
0
0
0
0
0
0
0
0
0
0
0
0
0
0
0
0
0
0
0
0
0
0
0
0
0
0
0
0
0
0
0
0
0
0
0
0
0
0
0
0
0
0
0
0
0
0
0
0
0
0
0
0
0
0
0
0
0
0
0
0
0
0
0
0
0
0
0
0
0
0
0
0
0
0
0
0
0
0
0
0
0
0
0
0
0
0
0
0
0
0
0
0
0
0
0
0
0
0
0
0
0
0
0
0
0
0
0
0
0
0
0
0
0
0
0
0
0
0
0
0
0
0
0
0
0
0
0
0
0
0
0
0
0
0
0
0
0
0
0
0
0
0
0
0
0
0
0
0
0
0
0
0
0
0
0
0
0
0
0
0
0
0
0
0
0
0
0
0
0
0
0
0
0
0
0
0
0
0
0
0
0
0
0
0
0
0
0
0
0
0
0
0
0
0
0
0
0
0
0
0
0
0
0
0
0
0
0
0
0
0
0
0
0
0
0
0
0
0
0
0
0
0
0
0
0
0
0
0
0
0
0
0
0
0
0
0
0
0
0
0
0
0
0
0
0
0
0
0
0
0
0
0
0
0
0
0
0
0
0
0
0
0
0
0
0
0
0
0
0
0
0
0
0
0
0
0
0
0
0
0
1 0
0
0
0
0
0
0
0
0
0
0
0
0
0
0
0
0
0
0
0
0
0
0
0
0
0
0
0
0
0
0
0
0
0
0
0
0
0
0
0
0
0
0
0
0
0
0
0
0
1 1
1 2
0
0
0
0
0
0
0
0
0
0
0
0
0
0
0
0
0
0
0
0
0
0
0
0
0
0
0
0
0
0
0
0
0
0
0
0
0
0
0
0
0
0
0
0
0
1 3
0
0
1 4
0
1 5
0
0
0
0
0
0
0
0
0
0
0
0
0
0
0
0
0
0
0
0
0
0
0
0
0
0
0
0
0
0
0
0
0
0
0
0
0
0
0
0
0
0
1 6
1 7
1 8
1 9
1 10
0
1 11
1 12
0
0
0
0
0
0
0
0
0
0
0
0
0
0
0
0
0
0
0
0
0
0
0
0
0
0
0
0
0
0
0
0
0
0
0
0
0
0
0
0
0
1 13
1 14
1 15
1 16
1 17
1 18
1 19
1 20
1 21
1 22
0
0
0
0
0
0
0
0
0
0
0
0
0
0
0
0
0
0
0
0
0
0
0
0
0
0
0
0
0
0
0
0
0
0
0
0
0
1 23
1 24
1 25
1 26
1 27
1 28
1 29
1 30
0
1 31
1 32
1 33
0
0
0
0
0
0
0
0
0
0
0
0
0
0
0
0
0
0
0
0
0
0
0
0
0
0
0
0
0
0
0
0
0
0
0
0
1 34
1 35
1 36
1 37
1 38
1 39
1 40
1 41
0
1 42
1 43
1 44
1 45
1 46
1 47
1 48
1 49
0
0
0
0
0
0
0
0
0
0
0
0
0
0
0
0
0
0
0
0
0
0
0
0
0
0
0
0
0
0
0
1 50
1 51
0
0
1 52
1 53
1 54
1 55
1 56
1 57
1 58
1 59
1 60
1 61
1 62
1 63
1 64
1 65
0
0
0
0
0
0
0
0
0
0
0
0
0
0
0
0
0
0
0
0
0
0
0
0
0
0
0
0
1 66
1 67
1 68
1 69
1 70
1 71
1 72
1 73
1 74
1 75
1 76
1 77
1 78
1 79
1 80
1 81
1 82
1 83
1 84
1 85
1 86
1 87
1 88
1 89
0
0
0
0
0
0
0
0
0
0
0
0
0
0
0
0
0
0
0
0
0
1 90
1 91
1 92
1 93
1 94
1 95
1 96
1 97
1 98
1 99
1 100
1 101
1 102
1 103
1 104
1 105
1 106
1 107
1 108
1 109
1 110
1 111
1 112
1 113
1 114
1 115
1 116
1 117
1 118
0
0
0
0
0
0
0
0
0
0
0
0
0
0
0
0
0
0
1 119
1 120
1 121
1 122
1 123
1 124
1 125
1 126
1 127
1 128
1 129
1 130
1 131
1 132
1 133
1 134
1 135
1 136
1 137
1 138
1 139
1 140
1 141
1 142
1 143
1 144
1 145
1 146
1 147
1 148
1 149
1 150
1 151
1 152
1 153
1 154
0
0
0
0
0
0
0
0
0
0
0
0
1 155
1 156
1 157
1 158
1 159
1 160
1 161
1 162
1 163
1 164
1 165
1 166
1 167
1 168
1 169
1 170
1 171
1 172
1 173
1 174
1 175
1 176
1 177
1 178
1 179
1 180
1 181
1 182
1 183
1 184
1 185
1 186
1 187
1 188
1 189
1 190
1 191
1 192
1 193
0
0
0
0
0
0
0
0
0
0
0
0
0
1 194
1 195
1 196
1 197
1 198
1 199
1 200
1 201
1 202
1 203
1 204
1 205
1 206
1 207
1 208
1 209
1 210
1 211
1 212
1 213
1 214
1 215
1 216
1 217
1 218
1 219
1 220
1 221
1 222
1 223
1 224
1 225
1 226
1 227
1 228
1 229
1 230
0
0
0
0
0
0
0
0
0
0
0
0
0
0
1 231
1 232
1 233
1 234
1 235
1 236
1 237
1 238
1 239
1 240
1 241
1 242
1 243
1 244
1 245
1 246
1 247
1 248
1 249
1 250
1 251
1 252
1 253
1 254
1 255
1 256
1 257
1 258
1 259
1 260
1 261
1 262
1 263
1 264
1 265
1 266
0
0
0
0
0
0
0
0
0
0
0
0
0
0
0
1 267
1 268
1 269
1 270
1 271
1 272
1 273
1 274
1 275
1 276
1 277
1 278
1 279
1 280
1 281
1 282
1 283
1 284
1 285
1 286
1 287
1 288
1 289
1 290
1 291
1 292
1 293
1 294
1 295
1 296
1 297
1 298
1 299
1 300
0
0
0
0
0
0
0
0
0
0
0
0
0
0
0
0
0
1 301
1 302
1 303
1 304
1 305
1 306
1 307
1 308
1 309
1 310
1 311
1 312
1 313
1 314
1 315
1 316
1 317
1 318
1 319
1 320
1 321
1 322
1 323
1 324
1 325
1 326
1 327
1 328
1 329
1 330
1 331
1 332
0
0
0
0
0
0
0
0
0
0
0
0
0
0
0
0
0
0
0
0
0
1 333
1 334
1 335
1 336
1 337
1 338
1 339
1 340
1 341
1 342
1 343
1 344
1 345
1 346
1 347
1 348
1 349
1 350
1 351
1 352
1 353
1 354
1 355
1 356
1 357
1 358
1 359
0
0
0
0
0
0
0
0
0
0
0
0
0
0
0
0
0
0
0
0
0
0
0
0
0
0
1 360
1 361
1 362
1 363
1 364
1 365
1 366
1 367
1 368
0
0
0
0
0
0
0
0
0
0
0
0
0
0
0
0
0
0
0
0
0
0
0
0
0
0
0
0
0
0
0
0
0
0
0
0
0
0
0
0
0
0
0
0
0
0
0
0
0
0
0
0
0
0
0
0
0
0
0
0
0
0
0
0
0
0
0
0
0
0
0
0
0
0
0
0
0
0
0
0
0
0
0
0
0
0
0
0
0
0
0
0
0
0
0
0
0
0
0
0
0
0
0
0
0
0
0
0
0
0
0
0
0
0
0
0
0
0
0
0
0
0
0
0
0
0
0
0
0
0
0
0
0
0
0
0
0
0
0
0
0
0
0
0
0
0
0
0
0
0
0
0
0
0
0
0
0
0
0
0
0
0
0
0
0
0
0
0
0
0
0
0
0
0
0
0
0
0
0
0
0
0
0
0
0
0
0
0
0
0
0
0
0
0
0
0
0
0
0
0
0
0
0
0
0
0
0
0
0
0
0
0
0
0
0
0
0
0
0
0
0
0
0
0
0
0
0
0
0
0
0
0
0
0
0
0
0
0
0
0
0
0
0
0
0
0
0
0
0
0
0
0
0
0
0
0
0
0
0
0
0
0
0
0
0
0
0
0
0
0
0
0
0
0
0
0
0
0
0
0
0
0
0
0
0
0
0
0
0
0
0
0
0
0
0
0
0
0
0
0
0
0
0
0
0
0
0
0
0
0
0
0
0
0
0
0
0
0
0
0
0
0
0
0
0
0
0
0
0
0
0
0
0
0
0
0
0
0
0
0
0
0
0
0
0
0
0
0
0
0
0
0
0
0
0
0
0
0
0
0
0
0
0
0
0
0
0
0
0
0
0
0
0
0
0
0
0
0
0
0
0
0
0
0
0
0
0
0
0
0
0
0
0
0
0
0
0
0
0
0
0
0
0
0
0
0
0
0
0
0
0
0
0
0
0
0
0
0
0
0
0
0
0
0
0
0
0
0
0
0
0
0
0
0
0
0
0
0
0
0
0
0
0
0
0
0
0
0
0
0
0
0
0
0
0
0
0
0
0
0
0
0
0
0
0
0
0
0
0
0
0
0
0
0
0
0
0
0
0
0
0
0
0
0
0
0
0
0
0
0
0
0
0
0
0
0
0
0
0
0
0
0
0
0
0
0
0
0
0
0
0
0
0
0
0
0
0
0
0
0
0
0
0
0
0
0
0
0
0
0
0
0
0
0
0
0
0
0
0
0
0
0
0
0
0
0
0
0
0
0
0
0
0
0
0
0
0
0
0
0
0
0
0
0
0
0
0
0
0
0
0
0
0
0
0
0
0
0
0
0
0
0
0
0
0
0
0
0
0
0
0
0
0
0
0
0
0
0
0
0
0
0
0
0
0
0
0
0
0
0
0
0
0
0
0
0
0
0
0
0
0
0
0
0
0
0
0
0
0
0
0
0
0
0
0
0
0
0
0
0
0
0
0
0
0
0
0
0
0
0
0
0
0
0
0
0
0
0
0
0
0
0
0
0
0
0
0
0
0
0
0
0
0
0
0
0
0
0
0
0
0
0
0
0
0
0
0
0
0
0
0
0
0
0
0
0
0
0
0
0
0
0
0
0
0
0
0
0
0
0
0
0
0
0
0
0
0
0
0
0
0
0
0
0
0
0
0
0
0
0
0
0
0
0
0
0
0
0
0
0
0
0
0
0
0
0
0
0
0
0
0
0
0
0
0
0
0
0
0
0
0
0
0
0
0
0
0
0
0
0
0
0
0
0
0
0
0
0
0
0
0
0
0
0
0
0
0
0
0
0
0
0
0
0
0
0
0
0
0
0
0
0
0
0
0
0
0
0
0
0
0
0
0
0
0
0
0
0
0
0
0
0
0
0
0
0
0
0
0
0
0
0
0
0
0
0
0
0
0
0
0
0
0
0
0
0
0
0
0
0
0
0
0
0
0
0
0
0
0
0
0
0
0
0
0
0
0
0
0
0
0
0
