ply
format ascii 1.0
obj_info num_cols 50
obj_info num_rows 50
element vertex 131
property float x
property float y
property float z
element range_grid 2500
property list uchar int vertex_indices
end_header
-1.2009770 0.5139530 -35.8390778
-0.0636516 0.1345918 -36.8091669
-2.1826108 0.0291945 -33.6218429
-1.0278521 -0.4085188 -34.7611433
0.1769267 -0.6384812 -35.4425290
1.8031449 0.1102422 -33.9924731
-4.4013807 0.1264063 -29.7167232
-3.1998497 -0.4407428 -31.2103133
-2.0104397 -0.9061741 -32.4643081
-0.8539368 -1.3560874 -33.6774319
0.4374505 -1.4032315 -33.9672665
2.1039227 -0.6417298 -32.4178988
3.9179582 0.2874476 -30.4968700
-5.4946959 -0.2438234 -26.8101846
-4.2434147 -0.8395993 -28.4438455
-3.0286237 -1.3875285 -29.9552455
-1.8427142 -1.8836898 -31.3358454
-0.6779105 -2.3253943 -32.5801467
0.7036298 -2.1971939 -32.4591639
2.4213678 -1.4047845 -30.7586541
4.2777149 -0.4784119 -28.7494605
-6.6446837 -0.5818058 -23.5833563
-5.3530511 -1.2780369 -25.5525752
-4.0969116 -1.8793721 -27.2731140
-2.8644795 -2.3887783 -28.7542460
-1.6701003 -2.8766180 -30.1746539
-0.5062415 -3.3320335 -31.5075114
0.9793716 -3.0132413 -30.8972988
2.7430767 -2.2071416 -29.0746691
4.6939680 -1.1933679 -26.7449848
6.9461741 0.1714036 -23.5561954
-5.1993374 -2.2990443 -24.1749654
-3.9402789 -2.9156685 -26.0163125
-2.7156400 -3.4642052 -27.6690930
-1.4958622 -3.8945710 -29.0023425
-0.3123771 -4.3145742 -30.3025124
1.2648465 -3.8533845 -29.2806070
3.0689510 -3.0496177 -27.3663700
5.0951568 -1.9932228 -24.8018253
7.4926276 -0.5039475 -21.1216604
-5.0568448 -3.3987724 -22.9173478
-3.7907855 -4.0066743 -24.8237246
-2.5451071 -4.5069213 -26.4214072
-1.3305269 -4.9628082 -27.8886703
-0.1104334 -5.3101689 -29.0484371
1.5564132 -4.7270317 -27.6284101
3.4155200 -3.9036190 -25.5531294
5.5082572 -2.8297902 -22.7996578
8.1449754 -1.0931276 -18.2405069
-4.9174237 -4.5414052 -21.6952827
-3.6338436 -5.1053002 -23.5685396
-2.3830691 -5.6028606 -25.2383002
-1.1466707 -6.0156407 -26.6519101
0.1200287 -6.2796945 -27.6240894
1.8630021 -5.6190592 -25.8928089
3.7886818 -4.7642811 -23.6057276
5.9577105 -3.6676898 -20.6286250
8.8755122 -1.6590723 -15.0249031
-4.7686402 -5.6837585 -20.3813915
-3.4755335 -6.2315264 -22.3036369
-2.2048517 -6.6883287 -23.9342931
-0.9581069 -7.0889969 -25.3835614
0.3828657 -7.2246458 -26.0062380
2.1792630 -6.5426120 -24.1022356
4.1794384 -5.6524129 -21.5676119
6.5009645 -4.4311816 -18.0297625
9.9702311 -1.8307582 -10.2846764
-4.6214412 -6.8642540 -19.0878688
-3.3271061 -7.4148528 -21.1263565
-2.0216547 -7.7950766 -22.5936425
-0.7776776 -8.2100230 -24.1687701
0.6592709 -8.1890000 -24.3060728
2.5125736 -7.4878318 -22.2169490
4.5714416 -6.5965788 -19.5185017
7.0166125 -5.3101400 -15.5473295
-4.4710233 -8.0673902 -17.7656584
-3.1441408 -8.5408266 -19.6525187
-1.8367847 -8.9316883 -21.2412043
-0.5316416 -9.2355641 -22.5184655
1.0099176 -9.0733118 -22.1631390
2.8552801 -8.4708613 -20.2777957
4.9620344 -7.6002282 -17.4714536
7.5307068 -6.2632328 -13.0645943
-5.6788796 -8.7260735 -14.0453153
-4.2856320 -9.2086547 -16.0927218
-2.9161234 -9.6010784 -17.7924625
-1.5636666 -9.9247789 -19.2273455
-0.2076028 -10.1665830 -20.3501259
1.4458412 -9.8829589 -19.5109152
3.3119793 -9.3423387 -17.7219627
5.4221951 -8.5683031 -15.0779089
8.1819134 -7.1199194 -9.9552301
-5.4917941 -9.8790667 -12.1097756
-4.0619044 -10.2983236 -14.0373901
-2.6734773 -10.6811425 -15.8097954
-1.2613654 -10.9197580 -16.9958972
0.1587721 -11.0891600 -17.9000929
1.9104726 -10.7283075 -16.6847503
3.8338446 -10.2000837 -14.8103604
6.0474239 -9.3998619 -11.8666113
8.9073658 -7.9839032 -6.5005184
-3.8365204 -11.4418302 -11.9726441
-2.3804715 -11.7157044 -13.3973087
-0.9461607 -11.9556058 -14.6691646
0.5758872 -12.0042588 -15.1124166
2.3975046 -11.6260486 -13.7218548
4.3910161 -11.0991870 -11.7028539
6.8725256 -10.0964297 -7.6625764
10.2105020 -8.3360432 -0.4163902
-3.5679404 -12.5495630 -9.4798627
-2.0814141 -12.8081286 -10.9374772
-0.6124345 -13.0273539 -12.2051365
1.0477872 -12.9226787 -11.9600408
2.9171409 -12.5689487 -10.5612204
5.0900034 -11.9243390 -7.8239618
8.0152448 -10.5821575 -1.8806749
-4.6074656 -12.8907812 -2.4558225
-2.9910125 -13.1205512 -3.8959621
-0.2705685 -14.1564884 -9.6817303
1.7382533 -13.6471585 -7.3552401
4.0054604 -12.9329133 -4.0076173
6.1616032 -12.4660901 -1.9240563
-2.3496629 -13.7532173 2.3117200
1.0698492 -14.0097773 0.3178030
3.2100227 -13.5760803 2.4402491
5.6095215 -12.9469434 5.6302598
0.3240056 -14.3949833 9.3371506
2.7657067 -13.7519989 12.9705868
5.4245086 -13.0125202 17.1733234
2.2841460 -13.9004181 25.9801453
5.1637122 -13.1322826 30.8679821
0
0
0
0
0
0
0
0
0
0
0
0
0
0
0
0
0
0
0
0
0
0
0
0
0
0
0
0
0
0
0
0
0
0
0
0
0
0
0
0
0
0
0
0
0
0
0
0
0
0
0
0
0
0
0
0
0
0
0
0
0
0
0
0
0
0
0
0
0
0
0
0
0
0
0
0
0
0
0
0
0
0
0
0
0
0
0
0
0
0
0
0
0
0
0
0
0
0
0
0
0
0
0
0
0
0
0
0
0
0
0
0
0
0
0
0
0
0
0
0
0
0
0
0
0
0
0
0
0
0
0
0
0
0
0
0
0
0
0
0
0
0
0
0
0
0
0
0
0
0
0
0
0
0
0
0
0
0
0
0
0
0
0
0
0
0
0
0
0
0
0
0
0
0
0
0
0
0
0
0
0
0
0
0
0
0
0
0
0
0
0
0
0
0
0
0
0
0
0
0
0
0
0
0
0
0
0
0
0
0
0
0
0
0
0
0
0
0
0
0
0
0
0
0
0
0
0
0
0
0
0
0
0
0
0
0
0
0
0
0
0
0
0
0
0
0
0
0
0
0
0
0
0
0
0
0
0
0
0
0
0
0
0
0
0
0
0
0
0
0
0
0
0
0
0
0
0
0
0
0
0
0
0
0
0
0
0
0
0
0
0
0
0
0
0
0
0
0
0
0
0
0
0
0
0
0
0
0
0
0
0
0
0
0
0
0
0
0
0
0
0
0
0
0
0
0
0
0
0
0
0
0
0
0
0
0
0
0
0
0
0
0
0
0
0
0
0
0
0
0
0
0
0
0
0
0
0
0
0
0
0
0
0
0
0
0
0
0
0
0
0
0
0
0
0
0
0
0
0
0
0
0
0
0
0
0
0
0
0
0
0
0
0
0
0
0
0
0
0
0
0
0
0
0
0
0
0
0
0
0
0
0
0
0
0
0
0
0
0
0
0
0
0
0
0
0
0
0
0
0
0
0
0
0
0
0
0
0
0
0
0
0
0
0
0
0
0
0
0
0
0
0
0
0
0
0
0
0
0
0
0
0
0
0
0
0
0
0
0
0
0
0
0
0
0
0
0
0
0
0
0
0
0
0
0
0
0
0
0
0
0
0
0
0
0
0
0
0
0
0
0
0
0
0
0
0
0
0
0
0
0
0
0
0
0
0
0
0
0
0
0
0
0
0
0
0
0
0
0
0
0
0
0
0
0
0
0
0
0
0
0
0
0
0
0
0
0
0
0
0
0
0
0
0
0
0
0
0
0
0
0
0
0
0
0
0
0
0
0
0
0
0
0
0
0
0
0
0
0
0
0
0
0
0
0
0
0
0
0
0
0
0
0
0
0
0
0
0
0
0
0
0
0
0
0
0
0
0
0
0
0
0
0
0
0
0
0
0
0
0
0
0
0
0
0
0
0
0
0
0
0
0
0
0
0
0
0
0
0
0
0
0
0
0
0
0
0
0
0
0
0
0
0
0
0
0
0
0
0
0
0
0
0
0
0
0
0
0
0
0
0
0
0
0
0
0
0
0
0
0
0
0
0
0
0
0
0
0
0
0
0
0
0
0
0
0
0
0
0
0
0
0
0
0
0
0
0
0
0
0
0
0
0
0
0
0
0
0
0
0
0
0
0
0
0
0
0
0
0
0
0
0
0
0
0
0
0
0
0
0
0
0
0
0
0
0
0
0
0
0
0
0
0
0
0
0
0
0
0
0
0
0
0
0
0
0
0
0
0
0
0
0
0
0
0
0
0
0
0
0
0
0
0
0
0
0
0
0
0
0
0
0
0
0
0
0
0
0
0
0
0
0
0
0
0
0
0
0
0
0
0
0
0
0
0
0
0
0
0
0
0
0
0
0
0
0
0
1 0
1 1
0
0
0
0
0
0
0
0
0
0
0
0
0
0
0
0
0
0
0
0
0
0
0
0
0
0
0
0
0
0
0
0
0
0
0
0
0
0
0
0
0
0
0
0
0
0
0
1 2
1 3
1 4
1 5
0
0
0
0
0
0
0
0
0
0
0
0
0
0
0
0
0
0
0
0
0
0
0
0
0
0
0
0
0
0
0
0
0
0
0
0
0
0
0
0
0
0
0
0
1 6
1 7
1 8
1 9
1 10
1 11
1 12
0
0
0
0
0
0
0
0
0
0
0
0
0
0
0
0
0
0
0
0
0
0
0
0
0
0
0
0
0
0
0
0
0
0
0
0
0
0
0
0
0
0
1 13
1 14
1 15
1 16
1 17
1 18
1 19
1 20
0
0
0
0
0
0
0
0
0
0
0
0
0
0
0
0
0
0
0
0
0
0
0
0
0
0
0
0
0
0
0
0
0
0
0
0
0
0
0
0
0
1 21
1 22
1 23
1 24
1 25
1 26
1 27
1 28
1 29
1 30
0
0
0
0
0
0
0
0
0
0
0
0
0
0
0
0
0
0
0
0
0
0
0
0
0
0
0
0
0
0
0
0
0
0
0
0
0
0
0
0
0
1 31
1 32
1 33
1 34
1 35
1 36
1 37
1 38
1 39
0
0
0
0
0
0
0
0
0
0
0
0
0
0
0
0
0
0
0
0
0
0
0
0
0
0
0
0
0
0
0
0
0
0
0
0
0
0
0
0
0
1 40
1 41
1 42
1 43
1 44
1 45
1 46
1 47
1 48
0
0
0
0
0
0
0
0
0
0
0
0
0
0
0
0
0
0
0
0
0
0
0
0
0
0
0
0
0
0
0
0
0
0
0
0
0
0
0
0
0
1 49
1 50
1 51
1 52
1 53
1 54
1 55
1 56
1 57
0
0
0
0
0
0
0
0
0
0
0
0
0
0
0
0
0
0
0
0
0
0
0
0
0
0
0
0
0
0
0
0
0
0
0
0
0
0
0
0
0
1 58
1 59
1 60
1 61
1 62
1 63
1 64
1 65
1 66
0
0
0
0
0
0
0
0
0
0
0
0
0
0
0
0
0
0
0
0
0
0
0
0
0
0
0
0
0
0
0
0
0
0
0
0
0
0
0
0
0
1 67
1 68
1 69
1 70
1 71
1 72
1 73
1 74
0
0
0
0
0
0
0
0
0
0
0
0
0
0
0
0
0
0
0
0
0
0
0
0
0
0
0
0
0
0
0
0
0
0
0
0
0
0
0
0
0
0
1 75
1 76
1 77
1 78
1 79
1 80
1 81
1 82
0
0
0
0
0
0
0
0
0
0
0
0
0
0
0
0
0
0
0
0
0
0
0
0
0
0
0
0
0
0
0
0
0
0
0
0
0
0
0
0
0
1 83
1 84
1 85
1 86
1 87
1 88
1 89
1 90
1 91
0
0
0
0
0
0
0
0
0
0
0
0
0
0
0
0
0
0
0
0
0
0
0
0
0
0
0
0
0
0
0
0
0
0
0
0
0
0
0
0
0
1 92
1 93
1 94
1 95
1 96
1 97
1 98
1 99
1 100
0
0
0
0
0
0
0
0
0
0
0
0
0
0
0
0
0
0
0
0
0
0
0
0
0
0
0
0
0
0
0
0
0
0
0
0
0
0
0
0
0
0
1 101
1 102
1 103
1 104
1 105
1 106
1 107
1 108
0
0
0
0
0
0
0
0
0
0
0
0
0
0
0
0
0
0
0
0
0
0
0
0
0
0
0
0
0
0
0
0
0
0
0
0
0
0
0
0
0
0
1 109
1 110
1 111
1 112
1 113
1 114
1 115
0
0
0
0
0
0
0
0
0
0
0
0
0
0
0
0
0
0
0
0
0
0
0
0
0
0
0
0
0
0
0
0
0
0
0
0
0
0
0
0
0
0
1 116
1 117
0
1 118
1 119
1 120
1 121
0
0
0
0
0
0
0
0
0
0
0
0
0
0
0
0
0
0
0
0
0
0
0
0
0
0
0
0
0
0
0
0
0
0
0
0
0
0
0
0
0
0
0
0
1 122
0
1 123
1 124
1 125
0
0
0
0
0
0
0
0
0
0
0
0
0
0
0
0
0
0
0
0
0
0
0
0
0
0
0
0
0
0
0
0
0
0
0
0
0
0
0
0
0
0
0
0
0
0
1 126
1 127
1 128
0
0
0
0
0
0
0
0
0
0
0
0
0
0
0
0
0
0
0
0
0
0
0
0
0
0
0
0
0
0
0
0
0
0
0
0
0
0
0
0
0
0
0
0
0
0
0
1 129
1 130
0
0
0
0
0
0
0
0
0
0
0
0
0
0
0
0
0
0
0
0
0
0
0
0
0
0
0
0
0
0
0
0
0
0
0
0
0
0
0
0
0
0
0
0
0
0
0
0
0
0
0
0
0
0
0
0
0
0
0
0
0
0
0
0
0
0
0
0
0
0
0
0
0
0
0
0
0
0
0
0
0
0
0
0
0
0
0
0
0
0
0
0
0
0
0
0
0
0
0
0
0
0
0
0
0
0
0
0
0
0
0
0
0
0
0
0
0
0
0
0
0
0
0
0
0
0
0
0
0
0
0
0
0
0
0
0
0
0
0
0
0
0
0
0
0
0
0
0
0
0
0
0
0
0
0
0
0
0
0
0
0
0
0
0
0
0
0
0
0
0
0
0
0
0
0
0
0
0
0
0
0
0
0
0
0
0
0
0
0
0
0
0
0
0
0
0
0
0
0
0
0
0
0
0
0
0
0
0
0
0
0
0
0
0
0
0
0
0
0
0
0
0
0
0
0
0
0
0
0
0
0
0
0
0
0
0
0
0
0
0
0
0
0
0
0
0
0
0
0
0
0
0
0
0
0
0
0
0
0
0
0
0
0
0
0
0
0
0
0
0
0
0
0
0
0
0
0
0
0
0
0
0
0
0
0
0
0
0
0
0
0
0
0
0
0
0
0
0
0
0
0
0
0
0
0
0
0
0
0
0
0
0
0
0
0
0
0
0
0
0
0
0
0
0
0
0
0
0
0
0
0
0
0
0
0
0
0
0
0
0
0
0
0
0
0
0
0
0
0
0
0
0
0
0
0
0
0
0
0
0
0
0
0
0
0
0
0
0
0
0
0
0
0
0
0
0
0
0
0
0
0
0
0
0
0
0
0
0
0
0
0
0
0
0
0
0
0
0
0
0
0
0
0
0
0
0
0
0
0
0
0
0
0
0
0
0
0
0
0
0
0
0
0
0
0
0
0
0
0
0
0
0
0
0
0
0
0
0
0
0
0
0
0
0
0
0
0
0
0
0
0
0
0
0
0
0
0
0
0
0
0
0
0
0
0
0
0
0
0
0
0
0
0
0
0
0
0
0
0
0
0
0
0
0
0
0
0
0
0
0
0
0
0
0
0
0
0
0
0
0
0
0
0
0
0
0
0
0
0
0
0
0
0
0
0
0
0
0
0
0
0
0
0
0
0
0
0
0
0
0
0
0
0
0
0
0
0
0
0
0
0
0
0
0
0
0
0
0
0
0
0
0
0
0
0
0
0
0
0
0
0
0
0
0
0
0
0
0
0
0
0
0
0
0
0
0
0
0
0
0
0
0
0
0
0
0
0
0
0
0
0
0
0
0
0
0
0
0
0
0
0
0
0
0
0
0
0
0
0
0
0
0
0
0
0
0
0
0
0
0
0
0
0
0
0
0
0
0
0
0
0
0
0
0
0
0
0
0
0
0
0
0
0
0
0
0
0
0
0
0
0
0
0
0
0
0
0
0
0
0
0
0
0
0
0
0
0
0
0
0
0
0
0
0
0
0
0
0
0
0
0
0
0
0
0
0
0
0
0
0
0
0
0
0
0
0
0
0
0
0
0
0
0
0
0
0
0
0
0
0
0
0
0
0
0
0
0
0
0
0
0
0
0
0
0
0
0
0
0
0
0
0
0
0
0
0
0
0
0
0
0
0
0
0
0
0
0
0
0
0
0
0
0
0
0
0
0
0
0
0
0
0
0
0
0
0
0
0
0
0
0
0
0
0
