ply
format ascii 1.0
obj_info num_cols 50
obj_info num_rows 50
element vertex 231
property float x
property float y
property float z
element range_grid 2500
property list uchar int vertex_indices
end_header
0.0416817 0.1289439 -36.6066434
-1.3718327 -0.0600120 -34.9454987
0.0192467 -0.6320683 -35.5032449
1.3688288 0.1451899 -34.6962117
-2.8705033 0.2107206 -32.7429690
-1.4101710 -0.7293208 -33.7028239
-0.0032530 -1.4096603 -34.3922260
1.3545635 -0.6119102 -33.5385067
2.7513673 0.3357342 -32.5276354
-2.9120782 -0.6003923 -31.5877889
-1.4406772 -1.5520465 -32.5920367
-0.0256873 -2.2073452 -33.2775416
1.3404367 -1.4082051 -32.3953269
2.7460088 -0.4898738 -31.3839877
4.2010451 0.5885315 -30.1992868
-2.9654795 -1.2902184 -30.2708763
-1.4766071 -2.3021612 -31.3757804
-0.0487788 -3.0050523 -32.1374041
1.3264792 -2.2438699 -31.2692937
2.7409739 -1.2936466 -30.1900699
4.2049515 -0.2526709 -29.0090428
-4.5760193 -0.9589924 -27.7647006
-3.0125054 -2.0759116 -29.0267009
-1.5096252 -3.1188926 -30.2045288
-0.0714124 -3.8334947 -31.0055172
1.3124637 -3.0985880 -30.1396888
2.7352687 -2.1576642 -29.0362716
4.2097566 -1.0819873 -27.7770656
5.7457790 0.1249809 -26.3659084
-4.6482165 -1.6625286 -26.3476147
-3.0571853 -2.9073390 -27.8043335
-1.5444800 -3.9247153 -28.9918089
-0.0941428 -4.6771338 -29.8651986
1.2978741 -3.9326718 -28.9598788
2.7296521 -3.0193499 -27.8532316
4.2143043 -1.9313870 -26.5381936
5.7638423 -0.6896591 -25.0394079
-4.7043566 -2.5271993 -25.0851418
-3.1036226 -3.7378348 -26.5498291
-1.5778702 -4.7717897 -27.7984723
-0.1181077 -5.5072530 -28.6812462
1.2834008 -4.8003510 -27.7923160
2.7240147 -3.8878817 -26.6501972
4.2196047 -2.7744339 -25.2603005
5.7795584 -1.5576500 -23.7424842
7.4306726 -0.0304081 -21.8418272
-4.7743855 -3.2951579 -23.6673670
-3.1498882 -4.5891826 -25.2886248
-1.6153129 -5.5764572 -26.5213496
-0.1417029 -6.3654362 -27.5029516
1.2687710 -5.6804424 -26.6123394
2.7181641 -4.7788703 -25.4459456
4.2245240 -3.6413234 -23.9788636
5.7928568 -2.4781004 -22.4782682
7.4639740 -0.8693147 -20.4099880
-4.8309114 -4.1961000 -22.3808865
-3.1907522 -5.5153768 -24.0920688
-1.6492846 -6.4519195 -25.3014991
-0.1659574 -7.2261369 -26.2983561
1.2540452 -6.5773417 -25.4254051
2.7121665 -5.6868837 -24.2342245
4.2279885 -4.5586835 -22.7296922
5.8065081 -3.4076453 -21.1942519
7.4868708 -1.8382373 -19.1073827
9.3321591 0.3876208 -16.1552121
-4.8899363 -5.0956629 -21.0583628
-3.2458915 -6.3131270 -22.6917785
-1.6849604 -7.3212211 -24.0415076
-0.1903182 -8.1032373 -25.0845843
1.2390949 -7.4823829 -24.2199778
2.7062219 -6.5961351 -22.9937797
4.2302541 -5.5183922 -21.5062607
5.8209966 -4.3396542 -19.8804078
7.5135922 -2.7825928 -17.7384287
9.3838414 -0.4913940 -14.5951838
-4.9434672 -6.0566999 -19.7855362
-3.2954839 -7.1887305 -21.3574064
-1.7249709 -8.1500298 -22.6898521
-0.2190907 -8.8995652 -23.7248982
1.2238900 -8.3943969 -22.9934380
2.7001224 -7.5232182 -21.7459582
4.2334656 -6.4671061 -20.2371947
5.8367896 -5.2683347 -18.5265174
7.5431113 -3.7154836 -16.3156653
9.4404926 -1.3537319 -12.9627650
-3.3477578 -8.0588044 -19.9759466
-1.7678683 -8.9623074 -21.2727573
-0.2582373 -9.4927380 -22.0261766
1.2060080 -9.1661152 -21.5296934
2.6940898 -8.4509258 -20.4659317
4.2358625 -7.4480609 -18.9816950
5.8497136 -6.2534293 -17.2166729
7.5733610 -4.6594336 -14.8674489
9.4857436 -2.3281215 -11.4398463
-3.4033218 -8.9196114 -18.5378929
-1.8235124 -9.6330557 -19.5955485
-0.2969087 -10.1331402 -20.3312843
1.1857288 -9.8312588 -19.8549127
2.6901162 -9.2269107 -18.9208727
4.2395087 -8.4123465 -17.6683498
5.8634108 -7.2425703 -15.8776921
7.5982466 -5.6741883 -13.4827931
9.5336303 -3.3030590 -9.8713263
-5.1496782 -8.7176125 -15.4087047
-3.4791910 -9.6189765 -16.7999681
-1.8800981 -10.3249698 -17.8858352
-0.3366630 -10.7872176 -18.5902472
1.1649423 -10.5115194 -18.1381198
2.6868922 -9.9554680 -17.2461326
4.2503141 -9.2275141 -16.0840562
5.8789207 -8.2226972 -14.4870004
7.6242461 -6.6948174 -12.0682454
9.5798341 -4.3117421 -8.3057749
-5.2523860 -9.4156608 -13.5458272
-3.5541638 -10.3594740 -15.0591633
-1.9442618 -10.9574790 -16.0110804
-0.3785475 -11.4355677 -16.7684901
1.1435147 -11.2012889 -16.3675747
2.6838049 -10.6848523 -15.5074028
4.2645234 -9.9877867 -14.3528550
5.9060528 -9.0674647 -12.8343190
7.6498418 -7.7362182 -10.6459544
9.6223761 -5.3675251 -6.7668789
-5.3634762 -10.0933494 -11.5700050
-3.6416579 -11.0251529 -13.1217145
-2.0078211 -11.6358334 -14.1322075
-0.4196801 -12.1375758 -14.9593001
1.1215734 -11.9096876 -14.5547279
2.6806916 -11.4280525 -13.7213773
4.2793022 -10.7601860 -12.5729983
5.9424414 -9.8181187 -10.9607003
7.6872804 -8.6877808 -9.0293905
9.6585128 -6.4876569 -5.2884392
-5.4751297 -10.8063208 -9.5680661
-3.7241108 -11.7714976 -11.2394779
-2.0729114 -12.3344412 -12.2064342
-0.4641946 -12.8137212 -13.0271379
1.0985651 -12.6103643 -12.6507495
2.6776695 -12.1769827 -11.8705839
4.2945598 -11.5478493 -10.7465029
5.9830056 -10.5468137 -8.9690316
7.7539755 -9.4047758 -6.9431403
9.7038944 -7.5624182 -3.6863116
-3.8099638 -12.5263388 -9.2901863
-2.1394284 -13.0557999 -10.2353194
-0.5083932 -13.5368854 -11.0927069
1.0755519 -13.3595433 -10.7497778
2.6749602 -12.9164215 -9.9219071
4.3127068 -12.3017917 -8.7807545
6.0292967 -11.2389821 -6.8212043
7.8371247 -10.0171851 -4.5705576
9.7612828 -8.5786758 -1.9232223
-3.9674832 -12.7580666 -6.2603832
-2.2496528 -13.3435185 -7.3505830
-0.5602514 -14.1659145 -8.8907178
1.0487610 -13.9802163 -8.5189987
2.6790900 -13.1787716 -6.9786668
4.3496256 -12.7048252 -6.0592670
6.0814790 -11.8984548 -4.5083669
7.9275722 -10.6129074 -2.0468716
9.8955435 -9.1260465 0.7980756
-5.9140586 -12.5619191 -2.2274840
-4.1391024 -12.9560285 -2.9852193
-2.3902131 -13.3835737 -3.8093169
1.0069487 -13.9912258 -4.9698563
2.6856448 -13.2966134 -3.5778470
4.3983662 -12.9234584 -2.8205081
6.1447421 -12.4716489 -1.9073841
8.0326170 -11.1382714 0.7490271
10.1044090 -9.2610363 4.4820443
-6.1504732 -12.7339340 1.3352221
-4.3176313 -13.1829757 0.4317721
-2.5308188 -13.5138699 -0.2289723
-0.7618067 -13.9695819 -1.1468861
0.9626856 -14.0114385 -1.2132955
2.6909417 -13.5362252 -0.2151570
4.4498619 -13.1512006 0.5976592
6.2403251 -12.7326845 1.4797866
8.1647235 -11.5059068 4.0274372
10.3738725 -9.1099280 8.9854146
-6.4295591 -12.7553747 5.4491606
-4.5308493 -13.2470249 4.4145791
-2.6703136 -13.7450331 3.3659193
-0.8559415 -14.1348543 2.5490592
0.9188195 -14.1668996 2.5000241
2.6971067 -13.7489856 3.4172437
4.5110705 -13.2630090 4.4810141
6.3599242 -12.8034183 5.4885140
8.3786549 -11.3179011 8.7009191
10.6999395 -8.7300876 14.2836999
-6.7529052 -12.6418230 10.1455673
-4.7741111 -13.2051034 8.9040741
-2.8531675 -13.6561978 7.9134769
-0.9654976 -14.1621308 6.7995719
0.8701541 -14.2483858 6.6260239
2.7065791 -13.7733763 7.7108405
4.5841799 -13.2353865 8.9373040
6.4974732 -12.7717289 9.9975001
8.6136795 -11.0811364 13.8106796
-5.0418731 -13.1152897 13.8250305
-3.0410304 -13.6397032 12.6170414
-1.0868600 -14.1298485 11.4888672
0.8175019 -14.3076612 11.0920789
2.7170163 -13.7789238 12.3509378
4.6590472 -13.2676937 13.5692147
6.6445645 -12.7416348 14.8226950
8.8680366 -10.8238697 19.3399220
-5.3291082 -13.0267967 19.1075878
-3.2448109 -13.6045282 17.7118746
-1.2179837 -14.0856620 16.5524535
0.7598012 -14.3232108 15.9898421
2.7284289 -13.7707824 17.3642674
4.7414192 -13.2657090 18.6230179
6.8018785 -12.7167724 19.9898043
9.1443590 -10.5424532 25.3450802
-5.6338489 -12.9651532 24.7273754
-3.4747663 -13.4799985 23.4254560
-1.3572496 -14.0665011 21.9390350
0.6980877 -14.3511932 21.2274208
2.7392696 -13.8556178 22.5203194
4.8324751 -13.2235333 24.1644363
6.9715637 -12.6878364 25.5613579
9.4382166 -10.2829909 31.7636200
-5.9696145 -12.8632522 30.9031913
-3.7095834 -13.4633858 29.3063076
-1.5070338 -14.0538702 27.7349048
0.6323295 -14.4055773 26.8065421
2.7526150 -13.8391127 28.3529210
4.9278066 -13.2277803 30.0207449
7.1541766 -12.6631440 31.5631707
0.5610201 -14.4545803 32.8573406
0
0
0
0
0
0
0
0
0
0
0
0
0
0
0
0
0
0
0
0
0
0
0
0
0
0
0
0
0
0
0
0
0
0
0
0
0
0
0
0
0
0
0
0
0
0
0
0
0
0
0
0
0
0
0
0
0
0
0
0
0
0
0
0
0
0
0
0
0
0
0
0
0
0
0
0
0
0
0
0
0
0
0
0
0
0
0
0
0
0
0
0
0
0
0
0
0
0
0
0
0
0
0
0
0
0
0
0
0
0
0
0
0
0
0
0
0
0
0
0
0
0
0
0
0
0
0
0
0
0
0
0
0
0
0
0
0
0
0
0
0
0
0
0
0
0
0
0
0
0
0
0
0
0
0
0
0
0
0
0
0
0
0
0
0
0
0
0
0
0
0
0
0
0
0
0
0
0
0
0
0
0
0
0
0
0
0
0
0
0
0
0
0
0
0
0
0
0
0
0
0
0
0
0
0
0
0
0
0
0
0
0
0
0
0
0
0
0
0
0
0
0
0
0
0
0
0
0
0
0
0
0
0
0
0
0
0
0
0
0
0
0
0
0
0
0
0
0
0
0
0
0
0
0
0
0
0
0
0
0
0
0
0
0
0
0
0
0
0
0
0
0
0
0
0
0
0
0
0
0
0
0
0
0
0
0
0
0
0
0
0
0
0
0
0
0
0
0
0
0
0
0
0
0
0
0
0
0
0
0
0
0
0
0
0
0
0
0
0
0
0
0
0
0
0
0
0
0
0
0
0
0
0
0
0
0
0
0
0
0
0
0
0
0
0
0
0
0
0
0
0
0
0
0
0
0
0
0
0
0
0
0
0
0
0
0
0
0
0
0
0
0
0
0
0
0
0
0
0
0
0
0
0
0
0
0
0
0
0
0
0
0
0
0
0
0
0
0
0
0
0
0
0
0
0
0
0
0
0
0
0
0
0
0
0
0
0
0
0
0
0
0
0
0
0
0
0
0
0
0
0
0
0
0
0
0
0
0
0
0
0
0
0
0
0
0
0
0
0
0
0
0
0
0
0
0
0
0
0
0
0
0
0
0
0
0
0
0
0
0
0
0
0
0
0
0
0
0
0
0
0
0
0
0
0
0
0
0
0
0
0
0
0
0
0
0
0
0
0
0
0
0
0
0
0
0
0
0
0
0
0
0
0
0
0
0
0
0
0
0
0
0
0
0
1 0
0
0
0
0
0
0
0
0
0
0
0
0
0
0
0
0
0
0
0
0
0
0
0
0
0
0
0
0
0
0
0
0
0
0
0
0
0
0
0
0
0
0
0
0
0
0
0
0
1 1
1 2
1 3
0
0
0
0
0
0
0
0
0
0
0
0
0
0
0
0
0
0
0
0
0
0
0
0
0
0
0
0
0
0
0
0
0
0
0
0
0
0
0
0
0
0
0
0
0
0
1 4
1 5
1 6
1 7
1 8
0
0
0
0
0
0
0
0
0
0
0
0
0
0
0
0
0
0
0
0
0
0
0
0
0
0
0
0
0
0
0
0
0
0
0
0
0
0
0
0
0
0
0
0
0
1 9
1 10
1 11
1 12
1 13
1 14
0
0
0
0
0
0
0
0
0
0
0
0
0
0
0
0
0
0
0
0
0
0
0
0
0
0
0
0
0
0
0
0
0
0
0
0
0
0
0
0
0
0
0
0
1 15
1 16
1 17
1 18
1 19
1 20
0
0
0
0
0
0
0
0
0
0
0
0
0
0
0
0
0
0
0
0
0
0
0
0
0
0
0
0
0
0
0
0
0
0
0
0
0
0
0
0
0
0
0
1 21
1 22
1 23
1 24
1 25
1 26
1 27
1 28
0
0
0
0
0
0
0
0
0
0
0
0
0
0
0
0
0
0
0
0
0
0
0
0
0
0
0
0
0
0
0
0
0
0
0
0
0
0
0
0
0
0
1 29
1 30
1 31
1 32
1 33
1 34
1 35
1 36
0
0
0
0
0
0
0
0
0
0
0
0
0
0
0
0
0
0
0
0
0
0
0
0
0
0
0
0
0
0
0
0
0
0
0
0
0
0
0
0
0
0
1 37
1 38
1 39
1 40
1 41
1 42
1 43
1 44
1 45
0
0
0
0
0
0
0
0
0
0
0
0
0
0
0
0
0
0
0
0
0
0
0
0
0
0
0
0
0
0
0
0
0
0
0
0
0
0
0
0
0
1 46
1 47
1 48
1 49
1 50
1 51
1 52
1 53
1 54
0
0
0
0
0
0
0
0
0
0
0
0
0
0
0
0
0
0
0
0
0
0
0
0
0
0
0
0
0
0
0
0
0
0
0
0
0
0
0
0
0
1 55
1 56
1 57
1 58
1 59
1 60
1 61
1 62
1 63
1 64
0
0
0
0
0
0
0
0
0
0
0
0
0
0
0
0
0
0
0
0
0
0
0
0
0
0
0
0
0
0
0
0
0
0
0
0
0
0
0
0
1 65
1 66
1 67
1 68
1 69
1 70
1 71
1 72
1 73
1 74
0
0
0
0
0
0
0
0
0
0
0
0
0
0
0
0
0
0
0
0
0
0
0
0
0
0
0
0
0
0
0
0
0
0
0
0
0
0
0
0
1 75
1 76
1 77
1 78
1 79
1 80
1 81
1 82
1 83
1 84
0
0
0
0
0
0
0
0
0
0
0
0
0
0
0
0
0
0
0
0
0
0
0
0
0
0
0
0
0
0
0
0
0
0
0
0
0
0
0
0
0
1 85
1 86
1 87
1 88
1 89
1 90
1 91
1 92
1 93
0
0
0
0
0
0
0
0
0
0
0
0
0
0
0
0
0
0
0
0
0
0
0
0
0
0
0
0
0
0
0
0
0
0
0
0
0
0
0
0
0
1 94
1 95
1 96
1 97
1 98
1 99
1 100
1 101
1 102
0
0
0
0
0
0
0
0
0
0
0
0
0
0
0
0
0
0
0
0
0
0
0
0
0
0
0
0
0
0
0
0
0
0
0
0
0
0
0
0
1 103
1 104
1 105
1 106
1 107
1 108
1 109
1 110
1 111
1 112
0
0
0
0
0
0
0
0
0
0
0
0
0
0
0
0
0
0
0
0
0
0
0
0
0
0
0
0
0
0
0
0
0
0
0
0
0
0
0
0
1 113
1 114
1 115
1 116
1 117
1 118
1 119
1 120
1 121
1 122
0
0
0
0
0
0
0
0
0
0
0
0
0
0
0
0
0
0
0
0
0
0
0
0
0
0
0
0
0
0
0
0
0
0
0
0
0
0
0
0
1 123
1 124
1 125
1 126
1 127
1 128
1 129
1 130
1 131
1 132
0
0
0
0
0
0
0
0
0
0
0
0
0
0
0
0
0
0
0
0
0
0
0
0
0
0
0
0
0
0
0
0
0
0
0
0
0
0
0
0
1 133
1 134
1 135
1 136
1 137
1 138
1 139
1 140
1 141
1 142
0
0
0
0
0
0
0
0
0
0
0
0
0
0
0
0
0
0
0
0
0
0
0
0
0
0
0
0
0
0
0
0
0
0
0
0
0
0
0
0
0
1 143
1 144
1 145
1 146
1 147
1 148
1 149
1 150
1 151
0
0
0
0
0
0
0
0
0
0
0
0
0
0
0
0
0
0
0
0
0
0
0
0
0
0
0
0
0
0
0
0
0
0
0
0
0
0
0
0
0
1 152
1 153
1 154
1 155
1 156
1 157
1 158
1 159
1 160
0
0
0
0
0
0
0
0
0
0
0
0
0
0
0
0
0
0
0
0
0
0
0
0
0
0
0
0
0
0
0
0
0
0
0
0
0
0
0
0
1 161
1 162
1 163
0
1 164
1 165
1 166
1 167
1 168
1 169
0
0
0
0
0
0
0
0
0
0
0
0
0
0
0
0
0
0
0
0
0
0
0
0
0
0
0
0
0
0
0
0
0
0
0
0
0
0
0
0
1 170
1 171
1 172
1 173
1 174
1 175
1 176
1 177
1 178
1 179
0
0
0
0
0
0
0
0
0
0
0
0
0
0
0
0
0
0
0
0
0
0
0
0
0
0
0
0
0
0
0
0
0
0
0
0
0
0
0
0
1 180
1 181
1 182
1 183
1 184
1 185
1 186
1 187
1 188
1 189
0
0
0
0
0
0
0
0
0
0
0
0
0
0
0
0
0
0
0
0
0
0
0
0
0
0
0
0
0
0
0
0
0
0
0
0
0
0
0
0
1 190
1 191
1 192
1 193
1 194
1 195
1 196
1 197
1 198
0
0
0
0
0
0
0
0
0
0
0
0
0
0
0
0
0
0
0
0
0
0
0
0
0
0
0
0
0
0
0
0
0
0
0
0
0
0
0
0
0
0
1 199
1 200
1 201
1 202
1 203
1 204
1 205
1 206
0
0
0
0
0
0
0
0
0
0
0
0
0
0
0
0
0
0
0
0
0
0
0
0
0
0
0
0
0
0
0
0
0
0
0
0
0
0
0
0
0
0
1 207
1 208
1 209
1 210
1 211
1 212
1 213
1 214
0
0
0
0
0
0
0
0
0
0
0
0
0
0
0
0
0
0
0
0
0
0
0
0
0
0
0
0
0
0
0
0
0
0
0
0
0
0
0
0
0
0
1 215
1 216
1 217
1 218
1 219
1 220
1 221
1 222
0
0
0
0
0
0
0
0
0
0
0
0
0
0
0
0
0
0
0
0
0
0
0
0
0
0
0
0
0
0
0
0
0
0
0
0
0
0
0
0
0
0
1 223
1 224
1 225
1 226
1 227
1 228
1 229
0
0
0
0
0
0
0
0
0
0
0
0
0
0
0
0
0
0
0
0
0
0
0
0
0
0
0
0
0
0
0
0
0
0
0
0
0
0
0
0
0
0
0
0
0
0
1 230
0
0
0
0
0
0
0
0
0
0
0
0
0
0
0
0
0
0
0
0
0
0
0
0
0
0
0
0
0
0
0
0
0
0
0
0
0
0
0
0
0
0
0
0
0
0
0
0
0
0
0
0
0
0
0
0
0
0
0
0
0
0
0
0
0
0
0
0
0
0
0
0
0
0
0
0
0
0
0
0
0
0
0
0
0
0
0
0
0
0
0
0
0
0
0
0
0
0
0
0
0
0
0
0
0
0
0
0
0
0
0
0
0
0
0
0
0
0
0
0
0
0
0
0
0
0
0
0
0
0
0
0
0
0
0
0
0
0
0
0
0
0
0
0
0
0
0
0
0
0
0
0
0
0
0
0
0
0
0
0
0
0
0
0
0
0
0
0
0
0
0
0
0
0
0
0
0
0
0
0
0
0
0
0
0
0
0
0
0
0
0
0
0
0
0
0
0
0
0
0
0
0
0
0
0
0
0
0
0
0
0
0
0
0
0
0
0
0
0
0
0
0
0
0
0
0
0
0
0
0
0
0
0
0
0
0
0
0
0
0
0
0
0
0
0
0
0
0
0
0
0
0
0
0
0
0
0
0
0
0
0
0
0
0
0
0
0
0
0
0
0
0
0
0
0
0
0
0
0
0
0
0
0
0
0
0
0
0
0
0
0
0
0
0
0
0
0
0
0
0
0
0
0
0
0
0
0
0
0
0
0
0
0
0
0
0
0
0
0
0
0
0
0
0
0
0
0
0
0
0
0
0
0
0
0
0
0
0
0
0
0
0
0
0
0
0
0
0
0
0
0
0
0
0
0
0
0
0
0
0
0
0
0
0
0
0
0
0
0
0
0
0
0
0
0
0
0
0
0
0
0
0
0
0
0
0
0
0
0
0
0
0
0
0
0
0
0
0
0
0
0
0
0
0
0
0
0
0
0
0
0
0
0
0
0
0
0
0
0
0
0
0
0
0
0
0
0
0
0
0
0
0
0
0
0
0
0
0
0
0
0
0
0
0
0
0
0
0
0
0
0
0
0
0
0
0
0
0
0
0
0
0
0
0
0
0
0
0
0
0
0
0
0
0
0
0
0
0
0
0
0
0
0
0
0
0
0
0
0
0
0
0
0
0
0
0
0
0
0
0
0
0
0
0
0
0
0
0
0
0
0
0
0
0
0
0
0
0
0
0
0
0
0
0
0
0
0
0
0
0
0
0
0
0
0
0
0
0
0
0
0
0
0
0
0
0
0
0
0
0
0
0
0
0
0
0
0
0
0
0
0
0
0
0
0
0
0
0
0
0
0
0
0
0
