ply
format ascii 1.0
obj_info num_cols 50
obj_info num_rows 50
element vertex 332
property float x
property float y
property float z
element range_grid 2500
property list uchar int vertex_indices
end_header
-0.1891932 0.5768362 -35.2325554
1.8678787 0.5796891 -32.3889941
-0.2328313 -0.3721591 -33.2824990
-2.3616573 0.9223391 -32.1724078
3.8619129 0.9320421 -29.3027632
1.8246135 -0.4085965 -30.5044726
-0.2896329 -0.4600695 -30.5937709
-2.4039028 -0.2163782 -30.4280013
-4.4768471 1.1376164 -29.3018788
5.8083883 1.1835173 -26.3773825
3.8352162 -0.3360026 -27.6908268
1.7485430 -0.4850574 -27.8600300
-0.3462340 -0.4873718 -27.9066290
-2.4408068 -0.5047027 -27.9657880
-4.5096022 0.4247310 -27.2322443
5.7475545 0.4423366 -24.3665913
3.7429884 -0.4484378 -25.1309154
1.6727731 -0.5277360 -25.2395190
-0.4021081 -0.4861115 -25.2503002
-2.4753400 -0.5171573 -25.3198940
-4.5476492 -0.4819559 -25.3358215
-6.5407419 1.1414804 -24.0639084
7.5938550 1.1789135 -21.1707501
5.6976042 -0.4336911 -22.4750053
3.6517862 -0.5473260 -22.6081380
1.5971067 -0.5299829 -22.6388488
-0.4565146 -0.5093391 -22.6669508
-2.5091201 -0.5204904 -22.7199405
-4.5619325 -0.5361528 -22.7764687
-6.5736087 0.2998146 -22.1649124
7.5352332 0.3933492 -19.2586621
5.5849957 -0.4694742 -19.9546152
3.5561934 -0.5332431 -20.0469019
1.5232900 -0.5421682 -20.0977273
-0.5100288 -0.5189903 -20.1242404
-2.5425628 -0.5692909 -20.2064043
-4.5742040 -0.5270800 -20.2184614
-6.6042404 -0.4952966 -20.2383838
-8.5326446 0.9829655 -19.1602407
7.4872942 -0.5000248 -17.4352724
5.4764112 -0.5299073 -17.5009696
3.4613875 -0.4981668 -17.5216311
1.4417561 -0.2765368 -17.4033390
-0.5699048 0.0580215 -17.2021768
-2.5743549 -0.4852793 -17.6437050
-4.5867000 -0.5349209 -17.7239034
-6.6000741 -0.5716503 -17.7946689
-8.5201840 0.7632921 -16.8589406
9.1859972 0.9538277 -13.9173734
7.3641117 -0.5803868 -15.0426836
5.3666080 -0.5448645 -15.0612979
3.3029432 0.7858280 -14.1650667
1.3263233 1.0950093 -13.9896180
-0.6333625 1.0655160 -14.0534006
-2.5951521 0.8784989 -14.2286727
-4.5900063 -0.2255554 -15.0534455
-6.5934964 -0.5952122 -15.3588429
9.1649664 -0.1607599 -12.3099877
7.2314862 -0.5320947 -12.6062127
5.1667626 0.7283547 -11.7906006
3.1726181 1.6038928 -11.2363807
1.2318376 1.9086337 -11.0709168
-0.6917117 1.8075901 -11.1822784
-2.6192973 1.6653960 -11.3218401
-4.5663567 1.0242169 -11.8027035
-6.5853697 -0.5836750 -12.9455439
-8.5555832 -0.5414220 -12.9600418
9.0626237 -0.5407880 -10.2125559
7.1071317 -0.5467046 -10.2597040
4.9952075 1.6688567 -8.8457705
3.0386215 2.5565463 -8.3038200
1.1315640 2.9891143 -8.0608197
-0.7529468 2.9628870 -8.1197881
-2.6417117 2.5274139 -8.4486518
-4.5549725 1.8246733 -8.9542572
-6.5705921 -0.4311712 -10.4860326
-8.5339437 -0.6115410 -10.6483653
-10.3458941 1.0104730 -9.6191022
8.9251605 -0.5822207 -7.9276636
4.7960278 3.0649936 -5.7003309
2.8519748 4.6323973 -4.7468940
1.0018012 5.1367707 -4.4673000
-0.8230515 5.1481723 -4.5005999
-2.6521887 4.5970160 -4.8916983
-4.5277923 3.1639961 -5.8445631
-6.4913464 1.0635294 -7.2237791
-8.5069224 -0.5953155 -8.3233454
-10.3077343 0.9456059 -7.3835643
10.5004333 1.0408526 -4.6262451
8.7807638 -0.5350394 -5.6304677
4.5539831 5.1587805 -2.2351955
2.7167210 5.7629535 -1.9059244
0.9152801 5.9592705 -1.8258205
-0.8760088 5.9365636 -1.8797254
-2.6695472 5.7328013 -2.0446458
-4.4806520 5.1814126 -2.4230117
-6.4349427 2.0905148 -4.3609891
-8.4851530 -0.6495383 -6.0860820
-10.2652775 0.9390714 -5.1521935
10.3473576 1.0479911 -2.4329038
4.4007968 6.0241233 0.3713526
2.6106714 6.3570149 0.5277285
0.8370572 6.5721530 0.6149601
-0.9260284 6.5852998 0.5831844
-2.6908738 6.3300085 0.3928997
-4.4713010 5.8638609 0.0777888
-6.3401661 3.9225294 -1.1101644
-8.4533343 -0.5476039 -3.7964472
-10.2271755 0.8914049 -2.9867216
10.1977027 1.0504770 -0.2831336
6.1350208 5.2214504 1.9953744
2.3852553 9.5260214 4.3568430
0.6938278 9.5545980 4.3349831
-0.9961182 9.5718481 4.3067208
-2.7109703 6.9663667 2.7876185
-4.4613746 6.5544792 2.5141513
-6.2765062 5.1134402 1.6544455
-8.4287497 -0.5460115 -1.6098246
-10.1866536 0.8805018 -0.8388511
3.9888668 9.5284010 6.3217251
2.2944151 9.9400160 6.5083422
0.6283333 9.8972360 6.4472742
-1.0392876 9.8780668 6.3990747
-2.7073961 9.8543540 6.3483811
-4.3913314 9.3061501 6.0106951
-6.2140145 6.2858679 4.3188798
-8.4065917 -0.5740306 0.5203471
-10.1465429 0.8735871 1.2721103
3.8907008 9.7242477 8.3146693
2.2126052 10.1992776 8.5260242
0.5604772 10.3809366 8.5838968
-1.0830366 10.3763717 8.5441641
-2.7294632 10.0820746 8.3522041
-4.3967132 9.4410544 7.9776794
-8.3846319 -0.5986544 2.6144445
-10.1165737 0.7562483 3.2866667
3.8086791 9.6958649 10.1525556
2.1227736 10.6742221 10.6074284
0.4932374 10.9011011 10.6846599
-1.1254534 10.8519370 10.6229460
-2.7488070 10.5117933 10.4144017
-4.4100034 9.2985560 9.7647432
-8.3664338 -0.6737971 4.6460116
-10.0794745 0.7303972 5.3149905
2.0323478 11.2068102 12.6641806
0.4273524 11.4299779 12.7353638
-1.1669790 11.3560750 12.6631040
-2.7668324 11.0018939 12.4551526
-4.4191655 9.2922868 11.5904065
-8.3476166 -0.7338123 6.6510074
-10.0441655 0.6914116 7.3015047
1.9553145 11.4765830 14.5459783
0.4292290 9.3307013 13.5163097
-2.7788130 11.9711319 14.6663407
-4.4278303 9.2975595 13.3892700
-8.3255276 -0.7383878 8.6481618
-10.0070178 0.6820973 9.2678693
7.0405988 6.8399916 14.3286631
3.4515796 11.5798749 16.3486222
1.9009588 11.2510657 16.1669578
0.3784854 9.3069582 15.2693325
-1.2268400 9.3320766 15.2434218
-4.4317520 9.4582617 15.2254266
-8.3037522 -0.7417788 10.6109085
6.9283638 6.8698957 16.1218831
3.4328357 10.6159254 17.6297443
1.9197069 9.3013254 17.0371082
0.3293672 9.2516885 16.9792078
-1.2628633 9.2621058 16.9467352
-4.4391826 9.4943174 16.9716326
-8.2807727 -0.7209115 12.5499123
6.8204970 6.8742999 17.8729297
3.3906144 10.0441592 19.0769021
1.8570120 9.2860198 18.7342052
0.2778940 9.3311229 18.7157483
-1.2990631 9.3223017 18.6755033
-4.4406052 9.7274837 18.7665372
-8.2605546 -0.7365650 14.4399542
4.5670293 14.0088898 22.2970462
3.0778390 14.1333028 22.3103310
1.6010721 14.0649289 22.2494612
0.1248369 13.8787385 22.1431092
-1.3594152 14.0100951 22.1591905
-2.8398633 14.0556707 22.1422363
-4.3245200 13.8983855 22.0468494
-6.3888630 1.6150289 17.2554625
-8.2425243 -0.7804130 16.2872011
6.6265034 6.7069488 21.2210375
5.1486782 5.1123303 20.6001841
3.3906047 7.4435507 21.4160456
0.2080736 8.1358511 21.5960169
-2.9366630 7.9076833 21.4384763
-4.5749430 5.7753660 20.6161873
-8.2213666 -0.7707566 18.1241895
6.5517727 6.4046870 22.7806895
5.0609630 5.0766509 22.2815881
3.4428262 5.1946316 22.2847816
1.8367432 5.1154001 22.2193458
0.2280033 5.0437794 22.1565070
-1.3831765 5.0185847 22.1098337
-2.9950354 4.9888391 22.0615542
-4.6110728 4.8456612 21.9735394
-8.2019998 -0.7834388 19.9221378
6.4915118 5.9531607 24.2741859
4.9735608 5.0564582 23.9410966
3.3666743 5.2096060 23.9539733
1.7715213 5.2007891 23.9134296
0.1767049 5.1735255 23.8667780
-1.4189461 5.1806831 23.8315186
-3.0155463 5.0764717 23.7593140
-4.6150285 4.9870501 23.6919447
-8.1818277 -0.7784450 21.6963535
10.1573737 0.8708753 24.3907682
4.7726976 6.6351359 26.0729498
3.2127101 6.6663367 26.0458305
1.6538755 6.7013853 26.0199464
0.0966020 6.7300988 25.9921105
-1.4594368 6.7532967 25.9625723
-3.0151360 6.7243416 25.9166694
-4.5708636 6.7192334 25.8782523
-6.1231994 6.7847336 25.8620818
-8.1589775 -0.7265394 23.4558609
10.0312988 0.8329390 26.0634593
8.5374626 -0.6024440 25.6022287
6.8678655 -0.5849977 25.5677661
5.2010502 -0.5949138 25.5252533
3.5350247 -0.6209641 25.4779735
1.9768635 -3.5631724 24.5682587
0.2595999 -3.5494348 24.5315644
-3.1348583 -0.6888915 25.2994765
-4.8018732 -0.6642811 25.2672002
-6.4737014 -0.7648614 25.1976754
-8.1473954 -0.8455456 25.1340079
9.8913808 0.9270086 27.7465386
8.4362124 -0.7536876 27.2419736
6.7852390 -0.8231720 27.1832250
5.1218193 -0.7445871 27.1655788
3.4594789 -0.6322545 27.1573939
1.7508049 0.8565935 27.5329663
0.1216117 0.8625115 27.4958183
-1.5069972 0.8228608 27.4459436
-3.1575012 -0.7472787 26.9676369
-4.8119305 -0.7232594 26.9349488
-6.4685898 -0.7689969 26.8827042
-8.1260443 -0.8071160 26.8325708
8.1547026 0.8715466 29.3221844
6.5364813 0.8901373 29.2884078
4.9230355 0.8520586 29.2398507
3.3085792 0.8137273 29.1912031
1.6924536 0.7931346 29.1471778
0.0764237 0.7447107 29.0958399
-1.5407447 0.6140777 29.0228673
-3.1785682 -0.7153043 28.6343284
-4.8213940 -0.7667759 28.5815492
-6.4648942 -0.8014592 28.5331664
-8.0104813 0.7186283 28.8957708
-9.7223794 -0.4685902 28.5428276
10.5012235 -6.3875173 29.1965351
8.8517610 -7.1187430 28.9768686
7.1144304 -7.0941007 28.9413022
5.3818277 -7.1230851 28.8926384
3.6495588 -7.1719996 28.8390728
1.9124986 -7.1236530 28.8093524
0.1778733 -7.1064308 28.7720229
-1.5557733 -7.1537251 28.7188235
-3.2907240 -7.2012736 28.6655301
-5.0255415 -7.2015140 28.6238942
-6.7610627 -7.2220301 28.5772465
-8.5009212 -7.3043744 28.5152637
-10.1606961 -6.3526543 28.7099391
10.3838616 -6.5098476 30.8643522
8.7441292 -7.2294815 30.6593317
7.0201697 -7.2209792 30.6198465
5.2966461 -7.2110831 30.5806924
3.5712015 -7.1522978 30.5527427
1.8498106 -7.1476960 30.5124216
0.1303336 -7.2252270 30.4532460
-1.5915458 -7.2437926 30.4075818
-3.3131032 -7.2148748 30.3728523
-5.0342555 -7.2118250 30.3321798
-6.7585857 -7.2840619 30.2741058
-8.4818781 -7.3065584 30.2275031
-10.1519324 -6.6533677 30.3376704
10.2593278 -6.5545029 32.5257373
8.6239196 -7.1966696 32.3487859
6.9095539 -7.1332179 32.3210403
5.2038656 -7.1655372 32.2729944
3.4951129 -7.1528626 32.2345102
1.7876677 -7.1591942 32.1919873
0.0812595 -7.2209441 32.1376214
-1.6268935 -7.2870704 32.0822763
-3.3362032 -7.3021910 32.0378262
-5.0443383 -7.2710842 32.0033041
-6.7513459 -7.2427040 31.9682253
-8.4633568 -7.3122365 31.9120577
-10.1232284 -6.6981326 32.0035493
10.1335845 -6.5716839 34.1677458
8.5055229 -7.1629436 34.0110532
6.8102534 -7.1619639 33.9702547
5.1168480 -7.1851601 33.9247041
3.4212276 -7.1738356 33.8859499
1.7270973 -7.1887918 33.8420168
0.0325306 -7.1923306 33.8003388
-1.6618282 -7.2507270 33.7477802
-3.3571990 -7.2667795 33.7035996
-5.0525223 -7.2724369 33.6614828
-6.7479571 -7.2818090 33.6186262
-8.4414538 -7.2594305 33.5821169
-10.0894950 -6.6731003 33.6586127
10.0072909 -6.5667575 35.7887133
8.3896286 -7.1358532 35.6453653
6.7081487 -7.1371653 35.6043492
5.0293937 -7.1774173 35.5562749
3.3478200 -7.1813936 35.5147692
1.6662090 -7.1808020 35.4740982
-0.0149874 -7.1893368 35.4317676
-1.6961637 -7.2455562 35.3807133
-3.3779648 -7.2393192 35.3410706
-5.0591307 -7.2267153 35.3026081
-6.7407453 -7.2374507 35.2598648
-8.4192024 -7.1961695 35.2267147
-10.0533873 -6.6113982 35.2940731
6.5679158 -6.6152725 37.2949821
4.9061898 -6.5905716 37.2587144
3.2442175 -6.5396779 37.2268339
1.5854662 -6.5311976 37.1879181
-0.0727485 -6.5247077 37.1486815
-1.7304866 -6.5652440 37.1015694
-3.3881769 -6.5329934 37.0666661
-5.0463201 -6.5560856 37.0224698
-6.7037624 -6.5535508 36.9825887
-8.3649646 -6.6162205 36.9316802
0
0
0
0
0
0
0
0
0
0
0
0
0
0
0
0
0
0
0
0
0
0
0
0
0
0
0
0
0
0
0
0
0
0
0
0
0
0
0
0
0
0
0
0
0
0
0
0
0
0
0
0
0
0
0
0
0
0
0
0
0
0
0
0
0
0
0
0
0
0
0
0
0
0
0
0
0
0
0
0
0
0
0
0
0
0
0
0
0
0
0
0
0
0
0
0
0
0
0
0
0
0
0
0
0
0
0
0
0
0
0
0
0
0
0
0
0
0
0
0
0
0
0
0
0
0
0
0
0
0
0
0
0
0
0
0
0
0
0
0
0
0
0
0
0
0
0
0
0
0
0
0
0
0
0
0
0
0
0
0
0
0
0
0
0
0
0
0
0
0
0
0
0
0
0
0
0
0
0
0
0
0
0
0
0
0
0
0
0
0
0
0
0
0
0
0
0
0
0
0
0
0
0
0
0
0
0
0
0
0
0
0
0
0
0
0
0
0
0
0
0
0
0
0
0
0
0
0
0
0
0
0
0
0
0
0
0
0
0
0
0
0
0
0
0
0
0
0
0
0
0
0
0
0
0
0
0
0
0
0
0
0
0
0
0
0
0
0
0
0
0
0
0
0
0
0
0
0
0
0
0
0
0
0
0
0
0
0
0
0
0
0
0
0
0
0
0
0
0
0
0
0
0
0
0
0
0
0
0
0
0
0
0
0
0
0
0
0
0
0
0
0
0
0
0
0
0
0
0
0
0
0
0
0
0
0
0
0
0
0
0
0
0
0
0
0
0
0
0
0
0
0
0
0
0
0
0
0
0
0
0
0
0
0
0
0
0
0
0
0
0
0
0
0
0
0
0
0
0
0
0
0
0
0
0
0
0
0
0
0
0
0
0
0
0
0
0
0
0
0
0
0
0
0
0
0
0
0
0
0
0
0
0
0
0
0
0
0
0
0
0
0
0
0
0
0
0
0
0
0
0
0
0
0
0
0
0
0
0
0
0
0
0
0
0
0
0
0
0
0
0
0
0
0
0
0
0
0
0
0
0
0
0
0
0
0
0
0
0
0
0
0
0
0
0
0
0
0
0
0
0
0
0
0
0
0
0
0
0
0
0
0
0
0
0
0
0
0
0
0
0
0
0
0
0
0
0
0
0
0
0
0
0
0
0
0
0
0
0
0
0
0
0
0
0
1 0
0
0
0
0
0
0
0
0
0
0
0
0
0
0
0
0
0
0
0
0
0
0
0
0
0
0
0
0
0
0
0
0
0
0
0
0
0
0
0
0
0
0
0
0
0
0
0
0
1 1
1 2
1 3
0
0
0
0
0
0
0
0
0
0
0
0
0
0
0
0
0
0
0
0
0
0
0
0
0
0
0
0
0
0
0
0
0
0
0
0
0
0
0
0
0
0
0
0
0
0
1 4
1 5
1 6
1 7
1 8
0
0
0
0
0
0
0
0
0
0
0
0
0
0
0
0
0
0
0
0
0
0
0
0
0
0
0
0
0
0
0
0
0
0
0
0
0
0
0
0
0
0
0
0
1 9
1 10
1 11
1 12
1 13
1 14
0
0
0
0
0
0
0
0
0
0
0
0
0
0
0
0
0
0
0
0
0
0
0
0
0
0
0
0
0
0
0
0
0
0
0
0
0
0
0
0
0
0
0
0
1 15
1 16
1 17
1 18
1 19
1 20
1 21
0
0
0
0
0
0
0
0
0
0
0
0
0
0
0
0
0
0
0
0
0
0
0
0
0
0
0
0
0
0
0
0
0
0
0
0
0
0
0
0
0
0
1 22
1 23
1 24
1 25
1 26
1 27
1 28
1 29
0
0
0
0
0
0
0
0
0
0
0
0
0
0
0
0
0
0
0
0
0
0
0
0
0
0
0
0
0
0
0
0
0
0
0
0
0
0
0
0
0
0
1 30
1 31
1 32
1 33
1 34
1 35
1 36
1 37
1 38
0
0
0
0
0
0
0
0
0
0
0
0
0
0
0
0
0
0
0
0
0
0
0
0
0
0
0
0
0
0
0
0
0
0
0
0
0
0
0
0
0
1 39
1 40
1 41
1 42
1 43
1 44
1 45
1 46
1 47
0
0
0
0
0
0
0
0
0
0
0
0
0
0
0
0
0
0
0
0
0
0
0
0
0
0
0
0
0
0
0
0
0
0
0
0
0
0
0
0
1 48
1 49
1 50
1 51
1 52
1 53
1 54
1 55
1 56
0
0
0
0
0
0
0
0
0
0
0
0
0
0
0
0
0
0
0
0
0
0
0
0
0
0
0
0
0
0
0
0
0
0
0
0
0
0
0
0
0
1 57
1 58
1 59
1 60
1 61
1 62
1 63
1 64
1 65
1 66
0
0
0
0
0
0
0
0
0
0
0
0
0
0
0
0
0
0
0
0
0
0
0
0
0
0
0
0
0
0
0
0
0
0
0
0
0
0
0
0
1 67
1 68
1 69
1 70
1 71
1 72
1 73
1 74
1 75
1 76
1 77
0
0
0
0
0
0
0
0
0
0
0
0
0
0
0
0
0
0
0
0
0
0
0
0
0
0
0
0
0
0
0
0
0
0
0
0
0
0
0
1 78
0
1 79
1 80
1 81
1 82
1 83
1 84
1 85
1 86
1 87
0
0
0
0
0
0
0
0
0
0
0
0
0
0
0
0
0
0
0
0
0
0
0
0
0
0
0
0
0
0
0
0
0
0
0
0
0
0
1 88
1 89
0
1 90
1 91
1 92
1 93
1 94
1 95
1 96
1 97
1 98
0
0
0
0
0
0
0
0
0
0
0
0
0
0
0
0
0
0
0
0
0
0
0
0
0
0
0
0
0
0
0
0
0
0
0
0
0
0
1 99
0
0
1 100
1 101
1 102
1 103
1 104
1 105
1 106
1 107
1 108
0
0
0
0
0
0
0
0
0
0
0
0
0
0
0
0
0
0
0
0
0
0
0
0
0
0
0
0
0
0
0
0
0
0
0
0
0
0
1 109
0
1 110
0
1 111
1 112
1 113
1 114
1 115
1 116
1 117
1 118
0
0
0
0
0
0
0
0
0
0
0
0
0
0
0
0
0
0
0
0
0
0
0
0
0
0
0
0
0
0
0
0
0
0
0
0
0
0
0
0
0
1 119
1 120
1 121
1 122
1 123
1 124
1 125
1 126
1 127
0
0
0
0
0
0
0
0
0
0
0
0
0
0
0
0
0
0
0
0
0
0
0
0
0
0
0
0
0
0
0
0
0
0
0
0
0
0
0
0
0
1 128
1 129
1 130
1 131
1 132
1 133
0
1 134
1 135
0
0
0
0
0
0
0
0
0
0
0
0
0
0
0
0
0
0
0
0
0
0
0
0
0
0
0
0
0
0
0
0
0
0
0
0
0
0
0
0
0
1 136
1 137
1 138
1 139
1 140
1 141
0
1 142
1 143
0
0
0
0
0
0
0
0
0
0
0
0
0
0
0
0
0
0
0
0
0
0
0
0
0
0
0
0
0
0
0
0
0
0
0
0
0
0
0
0
0
0
1 144
1 145
1 146
1 147
1 148
0
1 149
1 150
0
0
0
0
0
0
0
0
0
0
0
0
0
0
0
0
0
0
0
0
0
0
0
0
0
0
0
0
0
0
0
0
0
0
0
0
0
0
0
0
0
0
1 151
1 152
0
1 153
1 154
0
1 155
1 156
0
0
0
0
0
0
0
0
0
0
0
0
0
0
0
0
0
0
0
0
0
0
0
0
0
0
0
0
0
0
0
0
0
0
0
0
0
0
0
1 157
0
1 158
1 159
1 160
1 161
0
1 162
0
1 163
0
0
0
0
0
0
0
0
0
0
0
0
0
0
0
0
0
0
0
0
0
0
0
0
0
0
0
0
0
0
0
0
0
0
0
0
0
0
0
0
1 164
0
1 165
1 166
1 167
1 168
0
1 169
0
1 170
0
0
0
0
0
0
0
0
0
0
0
0
0
0
0
0
0
0
0
0
0
0
0
0
0
0
0
0
0
0
0
0
0
0
0
0
0
0
0
0
1 171
0
1 172
1 173
1 174
1 175
0
1 176
0
1 177
0
0
0
0
0
0
0
0
0
0
0
0
0
0
0
0
0
0
0
0
0
0
0
0
0
0
0
0
0
0
0
0
0
0
0
0
0
0
0
0
0
1 178
1 179
1 180
1 181
1 182
1 183
1 184
1 185
1 186
0
0
0
0
0
0
0
0
0
0
0
0
0
0
0
0
0
0
0
0
0
0
0
0
0
0
0
0
0
0
0
0
0
0
0
0
0
0
0
0
1 187
1 188
1 189
0
1 190
0
1 191
1 192
0
1 193
0
0
0
0
0
0
0
0
0
0
0
0
0
0
0
0
0
0
0
0
0
0
0
0
0
0
0
0
0
0
0
0
0
0
0
0
0
0
0
0
1 194
1 195
1 196
1 197
1 198
1 199
1 200
1 201
0
1 202
0
0
0
0
0
0
0
0
0
0
0
0
0
0
0
0
0
0
0
0
0
0
0
0
0
0
0
0
0
0
0
0
0
0
0
0
0
0
0
0
1 203
1 204
1 205
1 206
1 207
1 208
1 209
1 210
0
1 211
0
0
0
0
0
0
0
0
0
0
0
0
0
0
0
0
0
0
0
0
0
0
0
0
0
0
0
0
0
0
0
0
0
0
0
0
0
0
1 212
0
0
1 213
1 214
1 215
1 216
1 217
1 218
1 219
1 220
1 221
0
0
0
0
0
0
0
0
0
0
0
0
0
0
0
0
0
0
0
0
0
0
0
0
0
0
0
0
0
0
0
0
0
0
0
0
0
0
1 222
1 223
1 224
1 225
1 226
1 227
1 228
0
1 229
1 230
1 231
1 232
0
0
0
0
0
0
0
0
0
0
0
0
0
0
0
0
0
0
0
0
0
0
0
0
0
0
0
0
0
0
0
0
0
0
0
0
0
0
1 233
1 234
1 235
1 236
1 237
1 238
1 239
1 240
1 241
1 242
1 243
1 244
0
0
0
0
0
0
0
0
0
0
0
0
0
0
0
0
0
0
0
0
0
0
0
0
0
0
0
0
0
0
0
0
0
0
0
0
0
0
0
1 245
1 246
1 247
1 248
1 249
1 250
1 251
1 252
1 253
1 254
1 255
1 256
0
0
0
0
0
0
0
0
0
0
0
0
0
0
0
0
0
0
0
0
0
0
0
0
0
0
0
0
0
0
0
0
0
0
0
0
0
1 257
1 258
1 259
1 260
1 261
1 262
1 263
1 264
1 265
1 266
1 267
1 268
1 269
0
0
0
0
0
0
0
0
0
0
0
0
0
0
0
0
0
0
0
0
0
0
0
0
0
0
0
0
0
0
0
0
0
0
0
0
0
1 270
1 271
1 272
1 273
1 274
1 275
1 276
1 277
1 278
1 279
1 280
1 281
1 282
0
0
0
0
0
0
0
0
0
0
0
0
0
0
0
0
0
0
0
0
0
0
0
0
0
0
0
0
0
0
0
0
0
0
0
0
0
1 283
1 284
1 285
1 286
1 287
1 288
1 289
1 290
1 291
1 292
1 293
1 294
1 295
0
0
0
0
0
0
0
0
0
0
0
0
0
0
0
0
0
0
0
0
0
0
0
0
0
0
0
0
0
0
0
0
0
0
0
0
0
1 296
1 297
1 298
1 299
1 300
1 301
1 302
1 303
1 304
1 305
1 306
1 307
1 308
0
0
0
0
0
0
0
0
0
0
0
0
0
0
0
0
0
0
0
0
0
0
0
0
0
0
0
0
0
0
0
0
0
0
0
0
0
1 309
1 310
1 311
1 312
1 313
1 314
1 315
1 316
1 317
1 318
1 319
1 320
1 321
0
0
0
0
0
0
0
0
0
0
0
0
0
0
0
0
0
0
0
0
0
0
0
0
0
0
0
0
0
0
0
0
0
0
0
0
0
0
0
1 322
1 323
1 324
1 325
1 326
1 327
1 328
1 329
1 330
1 331
0
0
0
0
0
0
0
0
0
0
0
0
0
0
0
0
0
0
0
0
0
0
0
0
0
0
0
0
0
0
0
0
0
0
0
0
0
0
0
0
0
0
0
0
0
0
0
0
0
0
0
0
0
0
0
0
0
0
0
0
0
0
0
0
0
0
0
0
0
0
0
0
0
0
0
0
0
0
0
0
0
0
0
0
0
0
0
0
0
0
0
0
0
0
0
0
0
0
0
0
0
0
0
0
0
0
0
0
0
0
0
0
0
0
0
0
0
0
0
0
0
0
0
0
0
0
0
0
0
0
0
0
0
0
0
0
0
0
0
0
0
0
0
0
0
0
0
0
0
0
0
0
0
0
0
0
0
0
0
0
0
0
0
0
0
0
0
0
0
0
