ply
format ascii 1.0
obj_info num_cols 50
obj_info num_rows 50
element vertex 320
property float x
property float y
property float z
element range_grid 2500
property list uchar int vertex_indices
end_header
-1.2397111 13.8602574 22.2861421
-1.3269524 11.3880141 13.7080410
-2.8870742 11.1737737 15.0706792
2.1209021 12.7960262 21.4283572
2.1142894 9.4687469 3.8707309
2.5617166 9.7637028 5.9186075
2.9100520 10.0284614 7.8869693
2.8915730 10.1936729 9.6912797
3.2258936 10.4481524 11.5844203
3.4156832 10.6618750 13.3965908
3.5478318 10.8579110 15.1612197
3.7303705 11.0641005 16.9108871
-1.3368025 10.2652478 20.7810252
4.6799140 8.7543513 8.5495783
4.6295154 8.9203098 10.3184290
4.6080911 9.0919815 12.0733788
4.5339397 9.2466987 13.7885810
4.4546388 9.3978495 15.4809511
4.3648239 9.5440454 17.1497820
4.4131395 9.7256068 18.8329696
3.7870676 9.7234259 20.3361737
1.5899569 9.3016295 21.5036727
-0.6885594 0.8495768 -35.4008841
-1.7092020 0.7727115 -33.6342927
-2.6979797 0.7078077 -31.8341547
-3.6437065 0.6583662 -29.9951711
-4.5335758 0.6283226 -28.1119458
-5.3893672 0.6099727 -26.2030346
-6.1402573 0.6264525 -24.2258795
-6.9321028 0.6291307 -22.2772543
-7.6225640 0.6646498 -20.2702912
-8.2940155 0.7056606 -18.2585666
3.7163228 5.6854713 -1.2418693
4.3407797 6.0887820 0.9823695
4.6135071 6.3783024 3.0055446
4.8504407 6.6527405 4.9757673
4.7059967 6.8078166 6.7652704
4.6556404 6.9889307 8.5677322
4.4858530 7.1318105 10.3056668
4.7382455 7.3978076 12.1600288
4.7327325 7.5841672 13.9022044
4.7416852 7.7721601 15.6243884
4.7446256 7.9558066 17.3208582
4.7631668 8.1414319 18.9977826
4.5674225 8.2630978 20.6019866
1.4294667 7.5451848 21.5658274
-6.3992901 5.5093514 21.7001058
4.7960977 0.9451235 -28.8942483
-0.2342461 -0.6072862 -30.2167186
-1.0315557 -0.6113255 -28.3191286
-1.8580273 -0.6258369 -26.4420252
-2.6595181 -0.6313884 -24.5474656
-3.5816770 -0.6794032 -22.7301141
-4.2005104 -0.6209569 -20.7211180
4.4248005 3.5950791 -4.9215271
5.4549778 4.1691167 -2.4207460
6.0980799 4.6065295 -0.1712208
6.6657944 5.0127566 1.9895233
7.1211463 5.3764010 4.0518862
7.1120374 5.5842499 5.8836682
7.0857225 5.7835437 7.6826709
7.0930933 5.9907280 9.4687181
7.1916837 6.2239001 11.2599101
7.1705437 6.4160365 12.9840507
7.1305549 6.5995602 14.6788933
7.0450335 6.7663522 16.3384324
4.7796757 6.2576651 17.4008485
4.5520220 6.5714879 20.6850999
1.3864622 5.8014425 21.6540999
-1.2477620 5.5874882 26.1768685
8.1761861 0.9987743 -19.7080459
3.0843439 -0.6478125 -20.8878266
2.1100029 -0.7328456 -19.2276990
4.1199278 0.5547371 -13.5349185
4.7416882 1.0439850 -11.0283705
5.2122324 1.4710374 -8.6658542
5.6347419 1.8743447 -6.3817870
6.1293790 2.2972653 -4.1114299
6.6852010 2.7354982 -1.8635700
7.0650364 3.1054204 0.2500537
7.0760934 3.3413091 2.1570770
7.0299247 3.5538996 4.0115512
7.0493661 3.7859061 5.8664643
7.0539080 4.0094464 7.6880192
7.1042000 4.2452500 9.4994240
7.1313968 4.4698994 11.2752621
7.0959162 4.6704040 13.0048007
7.1004116 4.8813256 14.7230232
7.2108310 5.1241847 16.4468018
7.2087671 5.3268479 18.1131913
7.1494266 5.5080773 19.7424394
7.1660106 5.7113181 21.3684489
7.1644333 5.9059527 22.9678446
7.1937833 6.1077956 24.5515105
6.3851259 6.0416302 25.9654750
8.5001791 -0.5696163 -17.4308279
9.4914193 0.1014880 -14.6300301
10.1656990 0.6379040 -12.1063243
10.3221153 0.9646875 -9.9546331
6.4734992 -0.2580724 -10.1249958
6.8851659 0.1680333 -7.8209330
7.1238302 0.5219030 -5.6582100
7.3152489 0.8525676 -3.5610069
7.3176913 1.1075159 -1.5935061
7.2725858 1.3409520 0.3223078
7.2512237 1.5796346 2.2213922
7.2507134 1.8223931 4.1016697
7.2299296 2.0541971 5.9461151
7.1606721 2.2651090 7.7459098
7.1235891 2.4844661 9.5333734
7.1127155 2.7099701 11.3051211
7.1027880 2.9325702 13.0521065
7.1790640 3.1822351 14.8004062
5.3848765 2.7767745 15.9948839
4.7530348 2.7789250 17.5374052
-4.1299743 -0.0544351 17.0582549
7.2339639 4.0610022 21.4698231
7.1977051 4.2561944 23.0682507
-8.2945122 -0.7566257 21.6802408
-8.9353378 -0.7346539 23.3978829
-9.7733792 -0.7786090 25.0814940
8.2986365 -2.3374791 -15.5144011
9.2740712 -1.6408478 -12.7619725
10.0792638 -1.0249833 -10.1908635
10.5871247 -0.5397313 -7.8598760
10.5148405 -0.2963022 -5.9019755
10.5547617 -0.0116989 -3.9129231
10.5454808 0.2489475 -1.9807744
10.6150416 0.5367277 -0.0399077
10.5997501 0.7868940 1.8299436
10.3631822 0.9472126 3.5749863
7.5582747 0.1133561 4.2280649
7.4942265 0.3421838 6.0591221
7.4659299 0.5812343 7.8788836
7.4691584 0.8286935 9.6842474
7.2920466 1.0048944 11.4023084
7.1664101 1.1977060 13.1179675
6.8743414 1.3261666 14.7633995
6.8931076 1.5669578 16.4824448
7.2290859 2.1465647 19.9191948
2.4586914 0.8847599 22.1755732
-1.8075329 -0.4015575 23.0367634
-1.8425341 -0.1783546 24.7565738
-1.9981978 0.4558037 29.7784024
7.9788363 -4.1571417 -13.6707610
9.2662093 -3.2937431 -10.7679973
10.0747943 -2.6490588 -8.2329931
10.4511905 -2.1982078 -6.0049693
10.6144791 -1.8442850 -3.9377075
10.5497549 -1.5913234 -2.0233592
10.5817293 -1.3020737 -0.0895477
10.5682030 -1.0360107 1.7926183
10.5944349 -0.7577041 3.6641811
10.5727952 -0.5030416 5.4866272
10.5979343 -0.2333106 7.3012052
10.5903471 0.0193142 9.0756548
10.6123637 0.2799934 10.8348250
10.6936894 0.5602867 12.5875594
10.6287040 0.7791590 14.2655569
10.4572458 0.9534176 15.8897450
7.3528142 -0.0087633 16.6748573
7.2220879 0.1840099 18.3296921
7.1777668 0.4069942 19.9865250
3.5770734 -0.7199236 20.8211839
2.9439550 -0.7154642 22.3764226
2.7783229 -0.5364980 24.0193110
2.6615764 -0.3418654 25.6534149
2.6639690 -0.1059790 27.2874764
8.1150755 -5.7745051 -11.5495205
9.1207476 -5.0019008 -8.8609544
9.8814485 -4.3508757 -6.3869810
10.2963558 -3.8633277 -4.1621152
10.5591774 -3.4502582 -2.0638554
10.5359587 -3.1684751 -0.1456052
10.3521091 -2.9606538 1.6700006
10.5999148 -2.5703163 3.6541173
10.4736235 -2.3456086 5.4429466
10.4763263 -2.0696122 7.2606280
10.6508698 -1.7254161 9.1159189
10.6562892 -1.4569457 10.8773262
10.6758106 -1.1865693 12.6174261
10.6587765 -0.9351876 14.3198710
10.6523808 -0.6830975 16.0014201
10.7010710 -0.4122648 17.6744063
10.6996394 -0.1655002 19.3088223
10.7109804 0.0828819 20.9232203
10.7191998 0.3265294 22.5138299
10.7275858 0.5668394 24.0819808
10.6915256 0.7863807 25.6197229
10.3899008 0.8994162 27.0920115
9.6603483 0.8452390 28.4879743
7.7015743 0.3190964 29.7198977
8.0048522 -7.4960971 -9.5845052
9.1176225 -6.6417245 -6.8775200
9.9554537 -5.9286005 -4.3996161
10.4814877 -5.3704745 -2.1488507
10.6933346 -4.9648888 -0.1040119
10.5637994 -4.7207395 1.7441950
10.6436911 -4.3858587 3.6607444
10.5639302 -4.1275627 5.4784946
10.4101366 -3.9060897 7.2421848
10.6328874 -3.5218002 9.1267605
10.5095491 -3.2948051 10.8520845
10.4306737 -3.0518433 12.5711647
10.6411766 -2.6875085 14.3595177
10.5195191 -2.4708453 16.0157563
10.5086300 -2.2101785 17.6830508
10.7797245 -1.8340620 19.4000812
10.7626238 -1.5842346 21.0140469
10.6976006 -1.3579191 22.5950598
10.6545467 -1.1256957 24.1605131
10.6979544 -0.8611671 25.7217381
10.6056349 -0.6557245 27.2368827
9.7271187 -0.7720291 28.6142236
-6.8090983 -7.1958093 27.8789695
-7.6540136 -7.2539491 29.5418270
-8.3539653 -7.2537716 31.2237451
-8.8821105 -7.1858165 32.9198272
-9.4759001 -7.1445945 34.6052310
-8.6583855 -6.5536734 36.3625380
8.9761589 -8.3421272 -4.9754021
9.8296728 -7.5934419 -2.5246671
10.5435677 -6.9233293 -0.2110939
10.6066350 -6.5733312 1.7403568
10.6638409 -6.2314911 3.6568550
10.6450091 -5.9305268 5.5101620
10.6095170 -5.6418900 7.3293686
10.6348180 -5.3295260 9.1453061
10.6563799 -5.0235466 10.9318548
10.6290055 -4.7443855 12.6746627
10.6722499 -4.4374276 14.4150826
10.6343270 -4.1713758 16.1044331
10.5110579 -3.9472172 17.7468074
10.6574582 -3.6070146 19.4395277
10.5061871 -3.4024219 21.0315189
10.7356076 -3.0346947 22.6904704
10.4525329 -2.8941426 24.2138594
3.1567910 -5.7726807 24.4196002
1.6711510 -5.8509035 27.5130865
-2.0595641 -7.1489540 28.6630796
-2.8492973 -7.1982261 30.2613044
-3.6198105 -7.2389368 31.8648640
-4.3001612 -7.2419379 33.4787126
-4.7540319 -7.1520027 35.1076744
10.3448952 -8.5971427 1.5957106
10.6574421 -8.1105005 3.6411516
10.6355439 -7.7952288 5.5039292
10.6717844 -7.4564930 7.3621343
10.6626698 -7.1447867 9.1738087
10.6752722 -6.8273622 10.9662812
10.6781098 -6.5193218 12.7282674
10.6471226 -6.2318231 14.4533486
10.6652967 -5.9255055 16.1686948
10.7298451 -5.6020687 17.8712243
10.7506233 -5.3035460 19.5355724
10.6874510 -5.0478513 21.1551513
10.7006528 -4.7610087 22.7705847
10.7181882 -4.4762733 24.3635349
6.4745337 -6.1109650 25.1451487
3.5569986 -7.1313334 26.2767619
2.9442605 -7.1159869 27.8330479
2.3013006 -7.1142414 29.3836487
1.6339695 -7.1232643 30.9308129
0.8897516 -7.1656597 32.4705761
0.2796020 -7.1497057 34.0241473
-0.4073715 -7.1669872 35.5709547
0.5977860 -6.4632361 37.2035023
8.9361945 -10.5461117 4.7906645
9.3125792 -10.0110650 6.8304034
10.6560454 -8.6695935 10.9874427
10.7060351 -8.3225604 12.7751337
10.6869109 -8.0147610 14.5126307
10.6992566 -7.6961172 16.2344000
10.6787284 -7.3981220 17.9213724
10.6930919 -7.0876427 19.5934375
10.6674786 -6.8008013 21.2312792
10.7182632 -6.4817515 22.8632661
10.7040952 -6.1979200 24.4571676
10.8153979 -5.8592682 26.0520259
7.5101235 -7.1166067 27.0534705
6.9326625 -7.0950568 28.5542085
6.1872308 -7.1510495 30.0308386
5.5810274 -7.1428362 31.5270789
4.9558536 -7.1434120 33.0204223
4.3500527 -7.1353379 34.5149339
3.7156212 -7.1402555 36.0065747
2.9493769 -7.2037567 37.4917571
7.5064295 -12.1654542 9.8963341
8.1816819 -11.4657927 11.9672333
8.6750639 -10.8699607 13.9261165
9.2614077 -10.2355082 15.8661270
9.7287403 -9.6705997 17.7244044
10.4892773 -8.9665138 19.6146455
10.7266847 -8.5336629 21.3271291
10.7575114 -8.2094062 22.9615933
10.7720782 -7.8977963 24.5683207
10.7368585 -7.6149491 26.1425948
10.7568266 -7.3093249 27.7048719
10.7485699 -7.0215905 29.2404075
10.7633901 -6.7268230 30.7578030
10.5376034 -6.5505137 32.2265921
8.7808065 -7.0995645 33.5357244
8.1334328 -7.1210065 34.9710207
8.9943749 -6.4395151 36.5021058
7.9435965 -11.7595472 20.7508294
8.4872991 -11.1452626 22.5572637
9.0333876 -10.5385375 24.3197782
9.6637002 -9.8975921 26.0540407
10.2536182 -9.2860690 27.7360784
10.6918703 -8.7591543 29.3527768
10.7736178 -8.4171174 30.8866807
10.7730183 -8.1205610 32.3874227
10.8252406 -7.8021519 33.8724238
10.5121074 -7.6663919 35.3070477
9.3951091 -7.9221714 36.6830566
7.7393466 -12.0262206 29.0484234
8.1845474 -11.4700702 30.6870353
8.8123062 -10.8277869 32.3081611
9.3669325 -10.2316825 33.8795822
8.5713201 -10.3284815 35.3090529
0
0
0
0
0
0
0
0
0
0
0
0
0
0
0
0
0
0
0
0
0
0
0
0
0
0
0
0
0
0
0
0
0
0
0
0
0
0
0
0
0
0
0
0
0
0
0
0
0
0
0
0
0
0
0
0
0
0
0
0
0
0
0
0
0
0
0
0
0
0
0
0
0
0
0
0
0
0
0
0
0
0
0
0
0
0
0
0
0
0
0
0
0
0
0
0
0
0
0
0
0
0
0
0
0
0
0
0
0
0
0
0
0
0
0
0
0
0
0
0
0
0
0
0
0
0
0
0
0
0
0
0
0
0
0
0
0
0
0
0
0
0
0
0
0
0
0
0
0
0
0
0
0
0
0
0
0
0
0
0
0
0
0
0
0
0
0
0
0
0
0
0
0
0
0
0
0
0
0
0
0
0
0
0
0
0
0
0
0
0
0
0
0
0
0
0
0
0
0
0
0
0
0
0
0
0
0
0
0
0
0
0
0
0
0
0
0
0
0
0
0
0
0
0
0
0
0
0
0
0
0
0
0
0
0
0
0
0
0
0
0
0
0
0
0
0
0
0
0
0
0
0
0
0
0
0
0
0
0
0
0
0
0
0
0
0
0
0
0
0
0
0
0
0
0
0
0
0
0
0
0
0
0
0
0
0
0
0
0
0
0
0
0
0
0
0
0
0
0
0
0
0
0
0
0
0
0
0
0
0
0
0
0
0
0
0
0
0
0
0
0
0
0
0
0
0
0
0
0
0
0
0
0
0
0
0
0
0
0
0
0
0
0
0
0
0
0
0
0
0
0
0
0
0
0
0
0
0
0
0
0
0
0
0
0
0
0
0
0
0
0
0
0
0
0
0
0
0
0
0
0
0
0
0
0
0
0
0
0
0
0
0
0
0
0
0
0
0
0
0
0
0
0
0
0
0
0
0
0
0
0
0
0
0
0
0
0
0
0
0
0
0
0
0
0
0
0
0
0
0
0
0
0
0
0
0
0
0
0
0
0
0
0
0
0
0
0
0
0
0
0
0
0
0
0
0
0
0
0
0
0
0
0
0
0
0
0
0
0
0
0
0
0
0
0
0
0
0
0
0
0
0
0
0
0
0
0
0
0
0
0
0
0
0
0
0
0
0
0
0
0
0
0
0
0
0
0
0
0
0
0
0
0
0
0
0
0
0
0
0
0
0
0
0
0
0
0
0
0
0
0
0
0
0
0
0
0
0
0
0
0
0
0
0
0
0
0
0
0
0
0
0
0
0
0
0
0
0
0
0
0
0
0
0
0
0
0
0
0
0
0
0
0
0
0
0
0
0
0
0
0
0
0
0
0
0
0
0
0
0
0
0
0
0
0
0
0
0
0
0
0
0
0
0
0
0
0
0
0
0
0
0
0
0
0
0
0
0
0
0
0
0
0
0
0
0
0
0
0
0
0
0
0
0
0
0
0
0
0
0
0
0
0
0
0
0
0
0
0
0
0
0
0
0
0
0
0
0
0
0
0
0
0
0
0
0
0
0
0
0
0
0
0
0
0
0
0
0
0
0
0
0
0
0
0
0
0
0
0
0
0
0
0
0
0
0
0
0
0
0
0
0
0
0
0
0
0
0
0
0
0
0
0
0
0
0
0
0
0
0
0
0
0
0
0
0
0
0
0
0
0
0
0
0
0
0
0
0
0
0
0
0
0
0
0
0
0
0
0
0
0
0
0
0
0
0
0
0
0
0
0
0
0
0
0
0
0
0
0
0
0
0
0
0
0
0
0
0
0
0
0
0
0
0
0
0
0
0
0
0
0
0
0
0
0
0
0
0
0
0
0
0
0
0
0
0
0
0
0
0
0
0
0
0
0
0
0
0
0
0
0
0
0
0
0
0
0
0
0
0
0
0
0
0
0
0
0
0
0
0
0
0
0
0
0
0
0
0
0
0
0
0
0
0
0
0
0
0
0
0
0
0
0
0
0
0
0
0
0
0
0
0
0
0
0
0
0
0
0
0
0
0
0
0
0
0
0
0
0
0
0
0
0
0
0
0
0
0
0
0
0
0
0
0
0
0
0
0
0
0
0
0
0
0
0
0
0
0
0
0
0
0
0
0
0
0
0
0
0
0
0
0
0
0
0
0
0
1 0
0
0
0
0
0
0
0
0
0
0
0
0
0
0
0
0
0
0
0
0
0
0
0
0
0
0
0
0
0
0
0
0
0
0
0
0
0
0
0
0
0
0
0
0
1 1
1 2
0
0
1 3
0
0
0
0
0
0
0
0
0
0
0
0
0
0
0
0
0
0
0
0
0
0
0
0
0
0
0
0
0
0
0
0
0
0
0
0
0
0
0
1 4
1 5
1 6
1 7
1 8
1 9
1 10
1 11
0
0
1 12
0
0
0
0
0
0
0
0
0
0
0
0
0
0
0
0
0
0
0
0
0
0
0
0
0
0
0
0
0
0
0
0
0
0
0
0
0
0
0
0
0
1 13
1 14
1 15
1 16
1 17
1 18
1 19
1 20
1 21
0
0
0
0
0
0
0
0
0
0
0
0
0
0
0
0
0
0
0
0
0
0
1 22
1 23
1 24
1 25
1 26
1 27
1 28
1 29
1 30
1 31
0
0
0
0
1 32
1 33
1 34
1 35
1 36
1 37
1 38
1 39
1 40
1 41
1 42
1 43
1 44
1 45
1 46
0
0
0
0
0
0
0
0
0
0
0
0
0
0
0
0
0
0
0
0
0
0
1 47
1 48
1 49
1 50
1 51
1 52
1 53
0
0
0
0
1 54
1 55
1 56
1 57
1 58
1 59
1 60
1 61
1 62
1 63
1 64
1 65
1 66
0
1 67
1 68
0
0
1 69
0
0
0
0
0
0
0
0
0
0
0
0
0
0
0
0
0
0
0
0
0
0
0
1 70
1 71
1 72
0
1 73
1 74
1 75
1 76
1 77
1 78
1 79
1 80
1 81
1 82
1 83
1 84
1 85
1 86
1 87
1 88
1 89
1 90
1 91
1 92
1 93
1 94
0
0
0
0
0
0
0
0
0
0
0
0
0
0
0
0
0
0
0
0
0
0
0
0
0
1 95
1 96
1 97
1 98
1 99
1 100
1 101
1 102
1 103
1 104
1 105
1 106
1 107
1 108
1 109
1 110
1 111
1 112
1 113
1 114
1 115
1 116
1 117
1 118
1 119
1 120
0
0
0
0
0
0
0
0
0
0
0
0
0
0
0
0
0
0
0
0
0
0
0
0
0
1 121
1 122
1 123
1 124
1 125
1 126
1 127
1 128
1 129
1 130
1 131
1 132
1 133
1 134
1 135
1 136
1 137
1 138
0
1 139
0
1 140
1 141
1 142
0
0
1 143
0
0
0
0
0
0
0
0
0
0
0
0
0
0
0
0
0
0
0
0
0
0
0
0
1 144
1 145
1 146
1 147
1 148
1 149
1 150
1 151
1 152
1 153
1 154
1 155
1 156
1 157
1 158
1 159
1 160
1 161
1 162
1 163
1 164
1 165
1 166
1 167
0
0
0
0
0
0
0
0
0
0
0
0
0
0
0
0
0
0
0
0
0
0
0
0
0
0
0
1 168
1 169
1 170
1 171
1 172
1 173
1 174
1 175
1 176
1 177
1 178
1 179
1 180
1 181
1 182
1 183
1 184
1 185
1 186
1 187
1 188
1 189
1 190
1 191
0
0
0
0
0
0
0
0
0
0
0
0
0
0
0
0
0
0
0
0
0
0
0
0
0
0
0
1 192
1 193
1 194
1 195
1 196
1 197
1 198
1 199
1 200
1 201
1 202
1 203
1 204
1 205
1 206
1 207
1 208
1 209
1 210
1 211
1 212
1 213
1 214
1 215
1 216
1 217
1 218
1 219
0
0
0
0
0
0
0
0
0
0
0
0
0
0
0
0
0
0
0
0
0
0
0
0
1 220
1 221
1 222
1 223
1 224
1 225
1 226
1 227
1 228
1 229
1 230
1 231
1 232
1 233
1 234
1 235
1 236
1 237
0
1 238
1 239
1 240
1 241
1 242
1 243
0
0
0
0
0
0
0
0
0
0
0
0
0
0
0
0
0
0
0
0
0
0
0
0
0
0
0
0
1 244
1 245
1 246
1 247
1 248
1 249
1 250
1 251
1 252
1 253
1 254
1 255
1 256
1 257
1 258
1 259
1 260
1 261
1 262
1 263
1 264
1 265
1 266
0
0
0
0
0
0
0
0
0
0
0
0
0
0
0
0
0
0
0
0
0
0
0
0
0
0
0
0
0
1 267
1 268
0
1 269
1 270
1 271
1 272
1 273
1 274
1 275
1 276
1 277
1 278
1 279
1 280
1 281
1 282
1 283
1 284
1 285
1 286
0
0
0
0
0
0
0
0
0
0
0
0
0
0
0
0
0
0
0
0
0
0
0
0
0
0
0
0
0
0
0
0
1 287
1 288
1 289
1 290
1 291
1 292
1 293
1 294
1 295
1 296
1 297
1 298
1 299
1 300
1 301
1 302
1 303
0
0
0
0
0
0
0
0
0
0
0
0
0
0
0
0
0
0
0
0
0
0
0
0
0
0
0
0
0
0
0
0
0
0
0
0
0
0
0
1 304
1 305
1 306
1 307
1 308
1 309
1 310
1 311
1 312
1 313
1 314
0
0
0
0
0
0
0
0
0
0
0
0
0
0
0
0
0
0
0
0
0
0
0
0
0
0
0
0
0
0
0
0
0
0
0
0
0
0
0
0
0
0
0
0
1 315
1 316
1 317
1 318
1 319
0
0
0
0
0
0
0
0
0
0
0
0
0
0
0
0
0
0
0
0
0
0
0
0
0
0
0
0
0
0
0
0
0
0
0
0
0
0
0
0
0
0
0
0
0
0
0
0
0
0
0
0
0
0
0
0
0
0
0
0
0
0
0
0
0
0
0
0
0
0
0
0
0
0
0
0
0
0
0
0
0
0
0
0
0
0
0
0
0
0
0
0
0
0
0
0
0
0
0
0
0
0
0
0
0
0
0
0
0
0
0
0
0
0
0
0
0
0
0
0
0
0
0
0
0
0
0
0
0
0
0
0
0
0
0
0
0
0
0
0
0
0
0
0
0
0
0
0
0
0
0
0
0
0
0
0
0
0
0
0
0
0
0
0
0
0
0
0
0
0
0
0
0
0
0
0
0
0
0
0
0
0
0
0
0
0
0
0
0
0
0
0
0
0
0
0
0
0
0
0
0
0
0
0
0
0
0
0
0
0
0
0
0
0
0
0
0
0
0
0
0
0
0
0
0
0
0
0
0
0
0
0
0
0
0
0
0
0
0
0
0
0
0
0
0
0
0
0
0
0
0
0
0
0
0
0
0
0
0
0
0
0
0
0
0
0
0
0
0
0
0
0
0
0
0
0
0
0
0
0
0
0
0
0
0
0
0
0
0
0
0
0
0
0
0
0
0
0
0
0
0
0
0
0
0
0
0
0
0
0
0
0
0
0
0
0
0
0
0
0
0
0
0
0
0
0
0
0
0
0
0
0
0
0
0
0
0
0
0
0
0
0
0
0
0
0
0
0
0
0
0
0
0
0
0
0
0
0
0
0
0
0
0
0
0
0
0
0
0
0
0
0
0
0
0
0
0
0
0
0
0
0
0
0
0
0
0
0
0
0
0
0
0
0
0
0
0
0
0
0
0
0
0
0
0
0
0
0
0
0
0
0
0
0
0
0
0
0
0
0
0
0
0
0
0
0
0
0
0
0
0
0
0
0
0
0
0
0
0
0
0
0
0
0
0
0
0
0
0
0
0
0
0
0
0
0
0
0
0
0
0
0
0
0
0
0
0
0
0
0
0
0
0
0
0
0
0
0
0
0
0
0
0
0
0
0
0
0
0
0
0
0
0
0
0
0
0
0
0
0
0
0
0
0
0
0
0
0
0
0
0
0
0
0
0
0
0
0
0
0
0
0
0
0
0
0
0
0
0
0
0
0
0
0
0
0
0
0
0
0
0
0
0
0
0
0
0
0
0
0
0
0
0
0
0
0
0
0
0
0
0
0
0
0
0
0
0
0
0
0
0
0
0
0
0
0
0
0
0
0
0
0
0
0
0
0
0
0
0
0
0
0
0
0
0
0
0
0
0
0
0
0
0
0
0
0
0
0
0
0
0
0
0
0
0
0
0
0
0
0
0
0
0
0
0
0
0
0
0
0
0
0
0
0
0
0
0
0
0
0
0
0
0
0
0
0
0
0
0
0
0
0
0
0
0
0
0
0
0
0
0
0
0
0
0
0
0
0
0
0
0
0
0
0
0
0
0
0
0
0
0
0
0
0
0
0
0
0
0
0
0
0
0
0
0
0
0
0
0
0
0
0
0
0
0
0
