ply
format ascii 1.0
obj_info num_cols 50
obj_info num_rows 50
element vertex 411
property float x
property float y
property float z
element range_grid 2500
property list uchar int vertex_indices
end_header
4.8331211 13.3011339 22.5975456
7.9434913 0.6600008 -21.2106140
8.3527504 0.4647490 -19.4676245
8.7794947 0.2494962 -17.7312579
9.1443912 0.0997318 -16.0080362
9.5520859 -0.0972973 -14.2892620
9.8485083 -0.1745914 -12.5808312
10.1485594 -0.2562837 -10.8754962
10.4268951 -0.3146957 -9.1727822
10.6652040 -0.3295109 -7.4701316
10.5840906 0.0072541 -5.7424748
10.5822895 0.2586533 -4.0075945
10.5961014 0.4944335 -2.2630466
10.6197256 0.7208904 -0.5089939
7.1110935 5.1567812 3.7581431
7.1096127 5.4291124 5.6410355
7.1105848 5.7005311 7.5361678
7.0758364 6.0141615 9.4542317
7.1811704 6.1711235 11.3440586
7.1721337 6.4592768 13.2797446
3.7156219 10.6837929 16.4716544
2.1055342 13.1256639 21.2555007
4.2922803 0.7545900 -29.9870526
4.9496446 0.3182218 -28.1412153
5.5045974 -0.0156480 -26.3345370
6.1171393 -0.4107836 -24.5319481
6.5928909 -0.6670473 -22.7675162
7.1324393 -0.9909070 -21.0056441
7.6177295 -1.2603433 -19.2636606
8.0352678 -1.4607913 -17.5390988
8.4854616 -1.6965671 -15.8210822
8.8703104 -1.8652413 -14.1158097
9.2893224 -2.0708521 -12.4172239
9.6317689 -2.1969149 -10.7269180
9.9693538 -2.3185744 -9.0417985
10.2608072 -2.3919706 -7.3592577
10.4835048 -2.3925489 -5.6741923
10.6615961 -2.3454204 -3.9841408
10.6076988 -2.0492774 -2.2616772
10.6378782 -1.8416026 -0.5381570
10.6088645 -1.5686929 1.2058498
10.6172065 -1.3344058 2.9552507
10.5970902 -1.0676597 4.7223890
10.6134331 -0.8388483 6.4930710
10.6256791 -0.6040228 8.2759599
10.6162614 -0.3438651 10.0768348
10.6452245 -0.1241691 11.8776428
10.6450973 0.1291223 13.6995731
10.6659424 0.3609150 15.5258624
10.7257628 0.5509988 17.3476186
7.1511219 4.7929443 20.7614609
7.1697309 5.0452292 22.7182677
7.1878046 5.2998566 24.6878718
1.1325713 0.7055846 -35.4627294
1.9168803 0.1654228 -33.5295097
2.6320662 -0.3098152 -31.6377004
3.3056118 -0.7466969 -29.7764555
3.9733879 -1.1804156 -27.9354667
4.6078295 -1.5835555 -26.1198884
5.2360376 -1.9828503 -24.3230117
5.7627427 -2.2830389 -22.5588701
6.2784898 -2.5740034 -20.8092484
6.8305810 -2.9032279 -19.0685643
7.3263699 -3.1776130 -17.3470313
7.8006999 -3.4319103 -15.6388569
8.1756567 -3.5868677 -13.9455045
8.6702298 -3.8644874 -12.2572934
9.0407378 -4.0170891 -10.5801804
9.3899923 -4.1488164 -8.9090081
9.7699261 -4.3128302 -7.2453055
10.0565089 -4.3816105 -5.5812740
10.3430792 -4.4507584 -3.9200752
10.6006149 -4.4901814 -2.2579939
10.6360655 -4.2987781 -0.5633858
10.4759032 -3.9019939 1.1752765
10.4962635 -3.6916311 2.8964853
10.6152668 -3.5834754 4.6056184
10.3987412 -3.1211104 6.4046593
10.4949244 -2.9862289 8.1395315
10.6533451 -2.9164195 9.8624224
10.4529146 -2.4644282 11.7064310
10.5973728 -2.3774877 13.4508712
10.6990392 -2.2441252 15.2160706
10.6358762 -1.9328230 17.0547290
10.7504571 -1.8109564 18.8323870
10.6980374 -1.5077149 20.6925988
10.6871166 -1.2474399 22.5479682
10.6872467 -0.9974241 24.4108541
10.7556935 -0.8202855 26.2497968
-0.0866466 -0.6048519 -35.3001888
0.7382820 -1.1668027 -33.3593012
1.5806944 -1.7486466 -31.4387981
2.2934013 -2.2097991 -29.5742789
3.0021829 -2.6698393 -27.7310296
3.6222561 -3.0472025 -25.9250401
4.2107880 -3.3963119 -24.1411067
4.8449608 -3.7916004 -22.3660665
5.4986557 -4.2081317 -20.6063151
6.0029715 -4.4816922 -18.8804205
6.5475455 -4.7961413 -17.1635699
7.0513255 -5.0724806 -15.4631642
7.5738254 -5.3688183 -13.7745571
8.0235134 -5.5951680 -12.1001424
8.4496241 -5.7995429 -10.4356277
8.8758553 -6.0052300 -8.7803085
9.2444882 -6.1548642 -7.1309110
9.5979077 -6.2901953 -5.4869483
9.8946070 -6.3695786 -3.8430403
10.2436276 -6.5018937 -2.2092771
10.5167182 -6.5585664 -0.5698365
10.6507959 -6.4752163 1.0918379
10.6207841 -6.2251484 2.7908267
10.6383260 -6.0217780 4.4914694
10.6313185 -5.7920761 6.2083977
10.5992731 -5.5352956 7.9436566
10.6656388 -5.3777539 9.6623057
10.6009670 -5.0843917 11.4314379
10.6065309 -4.8615926 13.1907458
10.6580620 -4.6849084 14.9441357
10.6005353 -4.3938054 16.7501778
10.5118404 -4.0683229 18.5842083
10.5507651 -3.8740688 20.3771604
10.6884896 -3.7820953 22.1330175
10.7123112 -3.5696743 23.9511511
8.7524828 -1.2626743 26.8303774
9.0069500 -1.2847413 28.5949222
0.5026428 -3.1532785 -31.2483483
1.2388395 -3.6221059 -29.3838103
1.9711301 -4.0899598 -27.5412403
2.6512339 -4.5118719 -25.7294883
3.3454519 -4.9493646 -23.9345668
3.9634124 -5.3179279 -22.1703428
4.5429309 -5.6524827 -20.4274910
5.2089997 -6.0704901 -18.6914269
5.7722817 -6.3937821 -16.9823357
6.2984220 -6.6837335 -15.2900439
6.8312331 -6.9816917 -13.6108367
7.3322345 -7.2510458 -11.9456199
7.8253276 -7.5143937 -10.2926969
8.2261153 -7.6907480 -8.6485509
8.6621701 -7.9020329 -7.0145533
9.0497993 -8.0678226 -5.3863072
9.4217699 -8.2194130 -3.7640023
9.7490986 -8.3285462 -2.1428766
10.0538389 -8.4163053 -0.5232167
10.3176441 -8.4645810 1.0997600
10.5676384 -8.4995784 2.7235138
10.6363963 -8.3566930 4.3864671
10.6436136 -8.1522400 6.0720301
10.6541625 -7.9497745 7.7671004
10.6500815 -7.7315052 9.4768564
10.6729453 -7.5386349 11.1891360
10.6648411 -7.3136209 12.9220607
10.6600009 -7.0904216 14.6653573
10.6647528 -6.8754065 16.4163920
10.6357024 -6.6249500 18.1927993
10.6739930 -6.4408987 19.9521677
10.6876881 -6.2307074 21.7328030
10.6905631 -6.0081321 23.5298482
10.6747111 -5.7649897 25.3483836
6.5002775 -1.2652694 29.4616818
0.0412298 -4.8976232 -29.2266258
0.9170372 -5.4798004 -27.3576991
1.6146623 -5.9046173 -25.5477555
2.3224483 -6.3409965 -23.7558182
3.0503205 -6.7980364 -21.9813498
3.6938951 -7.1810087 -20.2379151
4.3221653 -7.5521846 -18.5137423
4.9223191 -7.8997468 -16.8089232
5.4973432 -8.2262300 -15.1216194
6.0055733 -8.4931297 -13.4515147
6.5071379 -8.7553912 -11.7939218
6.9429959 -8.9583527 -10.1475819
7.3549271 -9.1402590 -8.5097854
7.7515798 -9.3089726 -6.8795263
8.1097878 -9.4427553 -5.2539142
8.4397837 -9.5508760 -3.6314771
8.7356867 -9.6275850 -2.0095713
9.0514851 -9.7234411 -0.3940938
9.2983658 -9.7547334 1.2291100
9.5116210 -9.7543142 2.8578188
9.6508746 -9.6835337 4.5033667
9.7378343 -9.5624429 6.1656736
9.8342623 -9.4496245 7.8318541
9.9893267 -9.3922967 9.4868487
10.1213228 -9.3123880 11.1524376
10.2243424 -9.2039914 12.8323521
10.3548579 -9.1214897 14.5080613
10.4538023 -9.0077901 16.2006928
10.5426998 -8.8835599 17.9036835
10.6378968 -8.7646652 19.6106395
10.6999585 -8.6125228 21.3395191
10.7222819 -8.4203324 23.0961336
10.7528461 -8.2350153 24.8588150
10.7409720 -8.0065198 26.6544947
10.7307466 -7.7781720 28.4615204
10.7617083 -7.5893189 30.2564197
10.7073948 -7.3140893 32.1144415
10.8032070 -7.1874051 33.8903867
0.5676662 -7.2797878 -25.3691911
1.3025764 -7.7264717 -23.5778959
2.0703264 -8.2044403 -21.8033195
2.7203625 -8.5814814 -20.0646188
3.2611838 -8.8642387 -18.3537052
3.8954542 -9.2312539 -16.6496437
4.3818095 -9.4690478 -14.9701594
4.9121969 -9.7473445 -13.3007528
5.4117340 -9.9996572 -11.6447381
5.8256593 -10.1767451 -9.9992495
6.2303945 -10.3465604 -8.3617497
6.6335527 -10.5158946 -6.7321718
6.9921032 -10.6458914 -5.1068676
7.3385860 -10.7656734 -3.4863692
7.6552596 -10.8590390 -1.8676244
7.9606358 -10.9426175 -0.2514615
8.1885642 -10.9558941 1.3744091
8.4241469 -10.9762175 2.9984762
8.6039661 -10.9453753 4.6342095
8.6917300 -10.8294642 6.2943591
8.7770407 -10.7105509 7.9614422
8.8993093 -10.6251475 9.6242169
8.9906728 -10.5104483 11.3014800
9.0981327 -10.4100277 12.9795685
9.2307439 -10.3324855 14.6540962
9.3273352 -10.2206292 16.3469611
9.4331256 -10.1167061 18.0422363
9.5421549 -10.0151618 19.7419022
9.6505174 -9.9123193 21.4475726
9.7581227 -9.8080806 23.1593952
9.8571149 -9.6949476 24.8814898
9.9941518 -9.6174290 26.5895878
10.0985128 -9.5080580 28.3205068
10.2072505 -9.4021689 30.0550723
10.3035343 -9.2835586 31.8033012
10.4284463 -9.1918608 33.5400322
10.2493220 -8.8044154 35.4837476
0.0223143 -8.8827586 -23.4403650
0.7385186 -9.3015395 -21.6722754
1.3471985 -9.6310439 -19.9360532
1.9387609 -9.9477239 -18.2171839
2.5543327 -10.2866886 -16.5119866
3.1209225 -10.5854501 -14.8254296
3.6887367 -10.8869021 -13.1533178
4.2506109 -11.1848815 -11.4958751
4.7043825 -11.3908905 -9.8508903
5.1212556 -11.5659820 -8.2143547
5.5252385 -11.7308009 -6.5854433
5.8909195 -11.8630654 -4.9612279
6.2440016 -11.9850092 -3.3419837
6.5402956 -12.0577281 -1.7212216
6.8528271 -12.1451265 -0.1062423
7.0949189 -12.1707555 1.5169095
7.3166179 -12.1784210 3.1431423
7.5133161 -12.1638717 4.7748535
7.6041991 -12.0548915 6.4333512
7.6906924 -11.9413059 8.0990456
7.8102928 -11.8566874 9.7614734
7.9165188 -11.7595016 11.4328760
8.0048536 -11.6455640 13.1157561
8.1308039 -11.5649255 14.7914971
8.2240251 -11.4540744 16.4844123
8.3234978 -11.3482042 18.1810342
8.4238918 -11.2424956 19.8832667
8.5318097 -11.1429928 21.5880934
8.6229858 -11.0274756 23.3066580
8.7141517 -10.9112047 25.0318119
8.8469508 -10.8326338 26.7415956
8.9320751 -10.7093731 28.4824164
9.0581439 -10.6233594 30.2066122
9.1547435 -10.5093050 31.9536787
9.2744101 -10.4160683 33.6928487
8.9082470 -9.8665969 35.7555813
0.3539195 -10.8238001 -18.1017552
0.9897906 -11.1678422 -16.3874381
1.5941687 -11.4875768 -14.6914546
2.2455919 -11.8482275 -13.0102606
2.8350277 -12.1590558 -11.3470364
3.4680261 -12.5080624 -9.7001724
3.7954857 -12.6023205 -8.0578695
4.0925370 -12.6714490 -6.4180730
4.3791442 -12.7321009 -4.7805502
4.6951453 -12.8179514 -3.1489172
4.9674553 -12.8671289 -1.5156938
5.1955863 -12.8789059 0.1220483
5.4340134 -12.8995031 1.7577859
5.6648582 -12.9136784 3.3943263
5.8814029 -12.9156048 5.0336393
6.0178472 -12.8484780 6.6925294
6.1943181 -12.8155106 8.3448135
6.3878689 -12.7971115 9.9943521
6.5383843 -12.7411571 11.6585785
6.7046814 -12.6985903 13.3209404
6.8945699 -12.6763554 14.9775892
7.0270744 -12.6036327 16.6575890
7.1649246 -12.5351395 18.3397520
7.3016158 -12.4651764 20.0265108
7.4203590 -12.3788794 21.7255445
7.5231622 -12.2778848 23.4372313
7.6236125 -12.1741512 25.1560021
7.7455950 -12.0889701 26.8696008
7.8188388 -11.9596068 28.6149471
7.9059856 -11.8419036 30.3598756
7.9786978 -11.7104473 32.1203250
8.1079469 -11.6292164 33.8533449
-0.0934479 -12.2811743 -14.5620484
0.6511236 -12.7041599 -12.8688185
1.2493979 -13.0112082 -11.1968954
1.9012908 -13.3633375 -9.5417251
2.1134455 -13.3601079 -7.8853802
2.2614852 -13.3045869 -6.2243172
2.4286300 -13.2643239 -4.5615873
2.6665062 -13.2817362 -2.9039455
2.9554944 -13.3411889 -1.2534199
3.2642308 -13.4171978 0.3913856
3.5285002 -13.4568574 2.0402452
3.7170270 -13.4339544 3.7021499
3.9207163 -13.4234749 5.3623972
4.0835275 -13.3788401 7.0333882
4.2427106 -13.3308783 8.7081361
4.4325949 -13.3083213 10.3771623
4.6028612 -13.2691098 12.0538365
4.7635628 -13.2215717 13.7362022
4.9516304 -13.1968405 15.4119294
5.1242991 -13.1588740 17.0952041
5.2920454 -13.1164609 18.7829383
5.4663402 -13.0793391 20.4706599
5.6652797 -13.0630230 22.1498744
5.8128421 -13.0025232 23.8545074
6.0083114 -12.9828139 25.5393166
6.1836640 -12.9455975 27.2360417
6.3520936 -12.9021298 28.9390149
6.5156049 -12.8540943 30.6476294
6.7073866 -12.8303225 32.3427174
2.4444580 -8.9195189 36.7732104
0.2877209 -14.2050824 -9.3808119
0.4941859 -14.1967364 -7.7143197
0.6187760 -14.1238069 -6.0415959
0.7632499 -14.0661448 -4.3662876
0.8739088 -13.9813431 -2.6838271
1.0429513 -13.9424042 -1.0039354
1.2495091 -13.9330860 0.6728222
1.5168451 -13.9722104 2.3400391
1.7738358 -14.0032238 4.0075576
1.9446292 -13.9651494 5.6923922
2.0809649 -13.8990740 7.3879101
2.2484996 -13.8577799 9.0793705
2.4562981 -13.8488149 10.7621801
2.6187659 -13.8029475 12.4596910
2.7871573 -13.7616021 14.1582299
2.9682917 -13.7303857 15.8550419
3.1414982 -13.6924566 17.5569670
3.3159082 -13.6552566 19.2609647
3.4863255 -13.6145124 20.9691442
3.6521429 -13.5696922 22.6820722
3.8587049 -13.5583182 24.3790613
4.0167866 -13.5065641 26.1007523
4.1759684 -13.4553831 27.8252530
4.3562260 -13.4214691 29.5418410
4.5431975 -13.3929386 31.2570583
4.7121628 -13.3490658 32.9848350
-3.8879270 -12.7880830 -5.6671924
-3.2104919 -13.1327334 -3.9686700
-2.7400558 -13.3206949 -2.2661460
-2.1232696 -13.6219860 -0.5924018
-1.6457426 -13.8176567 1.0861470
-1.0515064 -14.1044334 2.7343184
-0.5921693 -14.2883128 4.3930865
-0.3135639 -14.3328830 6.0808342
0.0180255 -14.4188880 7.7540351
0.2162541 -14.4012510 9.4572388
0.4129185 -14.3822499 11.1623049
0.5825816 -14.3419136 12.8770182
0.7643002 -14.3107967 14.5905428
0.9241437 -14.2622036 16.3138326
1.1038266 -14.2289938 18.0330154
1.2924595 -14.2026560 19.7510352
1.4677801 -14.1655348 21.4765054
1.6415225 -14.1269017 23.2052355
1.8369209 -14.1053344 24.9266945
2.0003764 -14.0579699 26.6652404
2.1768751 -14.0207877 28.4003862
2.3610382 -13.9895342 30.1340909
2.5065159 -13.9267510 31.8914139
2.7220827 -13.9204458 33.6125277
-5.7950330 -12.8592611 1.6867228
-5.3280943 -13.0358128 3.4190809
-4.9165320 -13.1718446 5.1525730
-4.5044572 -13.3089468 6.8787193
-4.2112247 -13.3573727 8.6254127
-3.8151069 -13.4835952 10.3434847
-3.4921409 -13.5551486 12.0751069
-3.1578808 -13.6356088 13.7997181
-2.8075428 -13.7286851 15.5150150
-2.3999800 -13.8658460 17.2058037
-2.0926520 -13.9270993 18.9256941
-1.7040782 -14.0509156 20.6110687
-1.2783258 -14.2039439 22.2745024
-0.9440910 -14.2872420 23.9689791
-0.6366221 -14.3502721 25.6712080
-0.2819728 -14.4501717 27.3477158
0.0106049 -14.5023458 29.0498254
0.2560035 -14.5180003 30.7739781
0.4679682 -14.5075694 32.5159166
-6.6049954 -12.7595466 20.2804457
-6.1547701 -12.9184319 22.0150293
-5.8338074 -12.9821881 23.7930629
-5.3783491 -13.1463463 25.5103388
-5.0027074 -13.2517874 27.2541940
-4.6562234 -13.3359400 29.0059947
-4.3111223 -13.4194709 30.7539279
-3.8887109 -13.5615887 32.4573798
0
0
0
0
0
0
0
0
0
0
0
0
0
0
0
0
0
0
0
0
0
0
0
0
0
0
0
0
0
0
0
0
0
0
0
0
0
0
0
0
0
0
0
0
0
0
0
0
0
0
0
0
0
0
0
0
0
0
0
0
0
0
0
0
0
0
0
0
0
0
0
0
0
0
0
0
0
0
0
0
0
0
0
0
0
0
0
0
0
0
0
0
0
0
0
0
0
0
0
0
0
0
0
0
0
0
0
0
0
0
0
0
0
0
0
0
0
0
0
0
0
0
0
0
0
0
0
0
0
0
0
0
0
0
0
0
0
0
0
0
0
0
0
0
0
0
0
0
0
0
0
0
0
0
0
0
0
0
0
0
0
0
0
0
0
0
0
0
0
0
0
0
0
0
0
0
0
0
0
0
0
0
0
0
0
0
0
0
0
0
0
0
0
0
0
0
0
0
0
0
0
0
0
0
0
0
0
0
0
0
0
0
0
0
0
0
0
0
0
0
0
0
0
0
0
0
0
0
0
0
0
0
0
0
0
0
0
0
0
0
0
0
0
0
0
0
0
0
0
0
0
0
0
0
0
0
0
0
0
0
0
0
0
0
0
0
0
0
0
0
0
0
0
0
0
0
0
0
0
0
0
0
0
0
0
0
0
0
0
0
0
0
0
0
0
0
0
0
0
0
0
0
0
0
0
0
0
0
0
0
0
0
0
0
0
0
0
0
0
0
0
0
0
0
0
0
0
0
0
0
0
0
0
0
0
0
0
0
0
0
0
0
0
0
0
0
0
0
0
0
0
0
0
0
0
0
0
0
0
0
0
0
0
0
0
0
0
0
0
0
0
0
0
0
0
0
0
0
0
0
0
0
0
0
0
0
0
0
0
0
0
0
0
0
0
0
0
0
0
0
0
0
0
0
0
0
0
0
0
0
0
0
0
0
0
0
0
0
0
0
0
0
0
0
0
0
0
0
0
0
0
0
0
0
0
0
0
0
0
0
0
0
0
0
0
0
0
0
0
0
0
0
0
0
0
0
0
0
0
0
0
0
0
0
0
0
0
0
0
0
0
0
0
0
0
0
0
0
0
0
0
0
0
0
0
0
0
0
0
0
0
0
0
0
0
0
0
0
0
0
0
0
0
0
0
0
0
0
0
0
0
0
0
0
0
0
0
0
0
0
0
0
0
0
0
0
0
0
0
0
0
0
0
0
0
0
0
0
0
0
0
0
0
0
0
0
0
0
0
0
0
0
0
0
0
0
0
0
0
0
0
0
0
0
0
0
0
0
0
0
0
0
0
0
0
0
0
0
0
0
0
0
0
0
0
0
0
0
0
0
0
0
0
0
0
0
0
0
0
0
0
0
0
0
0
0
0
0
0
0
0
0
0
0
0
0
0
0
0
0
0
0
0
0
0
0
0
0
0
0
0
0
0
0
0
0
0
0
0
0
0
0
0
0
0
0
0
0
0
0
0
0
0
0
0
0
0
0
0
0
0
0
0
0
0
0
0
0
0
0
0
0
0
0
0
0
0
0
0
0
0
0
0
0
0
0
0
0
0
0
0
0
0
0
0
0
0
0
0
0
0
0
0
0
0
0
0
0
0
0
0
0
0
0
0
0
0
0
0
0
0
0
0
0
0
0
0
0
0
0
0
0
0
0
0
0
0
0
0
0
0
0
0
0
0
0
0
0
0
0
0
0
0
0
0
0
0
0
0
0
0
0
0
0
0
0
0
0
0
0
0
0
0
0
0
0
0
0
0
0
0
0
0
0
0
0
0
0
0
0
0
0
0
0
0
0
0
0
0
0
0
0
0
0
0
0
0
0
0
0
0
0
0
0
0
0
0
0
0
0
0
0
0
0
0
0
0
0
0
0
0
0
0
0
0
0
0
0
0
0
0
0
0
0
0
0
0
0
0
0
0
0
0
0
0
0
0
0
0
0
0
0
0
0
0
0
0
0
0
0
0
0
0
0
0
0
0
0
0
0
0
0
0
0
0
0
0
0
0
0
0
0
0
0
0
0
0
0
0
0
0
0
0
0
0
0
0
0
0
0
0
0
0
0
0
0
0
0
0
0
0
0
0
0
0
0
0
0
0
0
0
0
0
0
0
0
0
0
0
0
0
0
0
0
0
0
0
0
0
0
0
0
0
0
0
0
0
0
0
0
0
0
0
0
0
0
0
0
0
0
0
0
0
0
0
0
0
0
0
0
0
0
0
0
0
0
1 0
0
0
0
0
0
0
0
0
0
0
0
0
0
0
0
0
0
0
0
0
0
0
0
0
0
0
1 1
1 2
1 3
1 4
1 5
1 6
1 7
1 8
1 9
1 10
1 11
1 12
1 13
0
1 14
1 15
1 16
1 17
1 18
1 19
1 20
0
1 21
0
0
0
0
0
0
0
0
0
0
0
0
0
0
0
0
0
0
0
0
0
0
1 22
1 23
1 24
1 25
1 26
1 27
1 28
1 29
1 30
1 31
1 32
1 33
1 34
1 35
1 36
1 37
1 38
1 39
1 40
1 41
1 42
1 43
1 44
1 45
1 46
1 47
1 48
1 49
1 50
1 51
1 52
0
0
0
0
0
0
0
0
0
0
0
0
0
0
0
0
1 53
1 54
1 55
1 56
1 57
1 58
1 59
1 60
1 61
1 62
1 63
1 64
1 65
1 66
1 67
1 68
1 69
1 70
1 71
1 72
1 73
1 74
1 75
1 76
1 77
1 78
1 79
1 80
1 81
1 82
1 83
1 84
1 85
1 86
1 87
1 88
0
0
0
0
0
0
0
0
0
0
0
0
0
0
1 89
1 90
1 91
1 92
1 93
1 94
1 95
1 96
1 97
1 98
1 99
1 100
1 101
1 102
1 103
1 104
1 105
1 106
1 107
1 108
1 109
1 110
1 111
1 112
1 113
1 114
1 115
1 116
1 117
1 118
1 119
1 120
1 121
1 122
1 123
1 124
1 125
0
0
0
0
0
0
0
0
0
0
0
0
0
0
0
1 126
1 127
1 128
1 129
1 130
1 131
1 132
1 133
1 134
1 135
1 136
1 137
1 138
1 139
1 140
1 141
1 142
1 143
1 144
1 145
1 146
1 147
1 148
1 149
1 150
1 151
1 152
1 153
1 154
1 155
1 156
1 157
1 158
1 159
1 160
0
0
0
0
0
0
0
0
0
0
0
0
0
0
0
0
1 161
1 162
1 163
1 164
1 165
1 166
1 167
1 168
1 169
1 170
1 171
1 172
1 173
1 174
1 175
1 176
1 177
1 178
1 179
1 180
1 181
1 182
1 183
1 184
1 185
1 186
1 187
1 188
1 189
1 190
1 191
1 192
1 193
1 194
1 195
1 196
1 197
1 198
0
0
0
0
0
0
0
0
0
0
0
0
0
0
1 199
1 200
1 201
1 202
1 203
1 204
1 205
1 206
1 207
1 208
1 209
1 210
1 211
1 212
1 213
1 214
1 215
1 216
1 217
1 218
1 219
1 220
1 221
1 222
1 223
1 224
1 225
1 226
1 227
1 228
1 229
1 230
1 231
1 232
1 233
1 234
1 235
0
0
0
0
0
0
0
0
0
0
0
0
0
0
1 236
1 237
1 238
1 239
1 240
1 241
1 242
1 243
1 244
1 245
1 246
1 247
1 248
1 249
1 250
1 251
1 252
1 253
1 254
1 255
1 256
1 257
1 258
1 259
1 260
1 261
1 262
1 263
1 264
1 265
1 266
1 267
1 268
1 269
1 270
1 271
0
0
0
0
0
0
0
0
0
0
0
0
0
0
0
0
0
1 272
1 273
1 274
1 275
1 276
1 277
1 278
1 279
1 280
1 281
1 282
1 283
1 284
1 285
1 286
1 287
1 288
1 289
1 290
1 291
1 292
1 293
1 294
1 295
1 296
1 297
1 298
1 299
1 300
1 301
1 302
1 303
0
0
0
0
0
0
0
0
0
0
0
0
0
0
0
0
0
0
0
0
1 304
1 305
1 306
1 307
1 308
1 309
1 310
1 311
1 312
1 313
1 314
1 315
1 316
1 317
1 318
1 319
1 320
1 321
1 322
1 323
1 324
1 325
1 326
1 327
1 328
1 329
1 330
1 331
1 332
1 333
0
0
0
0
0
0
0
0
0
0
0
0
0
0
0
0
0
0
0
0
0
0
0
1 334
1 335
1 336
1 337
1 338
1 339
1 340
1 341
1 342
1 343
1 344
1 345
1 346
1 347
1 348
1 349
1 350
1 351
1 352
1 353
1 354
1 355
1 356
1 357
1 358
1 359
0
0
0
0
0
0
0
0
0
0
0
0
0
0
0
0
0
0
0
0
0
0
0
0
0
0
1 360
1 361
1 362
1 363
1 364
1 365
1 366
1 367
1 368
1 369
1 370
1 371
1 372
1 373
1 374
1 375
1 376
1 377
1 378
1 379
1 380
1 381
1 382
1 383
0
0
0
0
0
0
0
0
0
0
0
0
0
0
0
0
0
0
0
0
0
0
0
0
0
0
0
0
0
0
1 384
1 385
1 386
1 387
1 388
1 389
1 390
1 391
1 392
1 393
1 394
1 395
1 396
1 397
1 398
1 399
1 400
1 401
1 402
0
0
0
0
0
0
0
0
0
0
0
0
0
0
0
0
0
0
0
0
0
0
0
0
0
0
0
0
0
0
0
0
0
0
0
0
0
0
0
0
0
1 403
1 404
1 405
1 406
1 407
1 408
1 409
1 410
0
0
0
0
0
0
0
0
0
0
0
0
0
0
0
0
0
0
0
0
0
0
0
0
0
0
0
0
0
0
0
0
0
0
0
0
0
0
0
0
0
0
0
0
0
0
0
0
0
0
0
0
0
0
0
0
0
0
0
0
0
0
0
0
0
0
0
0
0
0
0
0
0
0
0
0
0
0
0
0
0
0
0
0
0
0
0
0
0
0
0
0
0
0
0
0
0
0
0
0
0
0
0
0
0
0
0
0
0
0
0
0
0
0
0
0
0
0
0
0
0
0
0
0
0
0
0
0
0
0
0
0
0
0
0
0
0
0
0
0
0
0
0
0
0
0
0
0
0
0
0
0
0
0
0
0
0
0
0
0
0
0
0
0
0
0
0
0
0
0
0
0
0
0
0
0
0
0
0
0
0
0
0
0
0
0
0
0
0
0
0
0
0
0
0
0
0
0
0
0
0
0
0
0
0
0
0
0
0
0
0
0
0
0
0
0
0
0
0
0
0
0
0
0
0
0
0
0
0
0
0
0
0
0
0
0
0
0
0
0
0
0
0
0
0
0
0
0
0
0
0
0
0
0
0
0
0
0
0
0
0
0
0
0
0
0
0
0
0
0
0
0
0
0
0
0
0
0
0
0
0
0
0
0
0
0
0
0
0
0
0
0
0
0
0
0
0
0
0
0
0
0
0
0
0
0
0
0
0
0
0
0
0
0
0
0
0
0
0
0
0
0
0
0
0
0
0
0
0
0
0
0
0
0
0
0
0
0
0
0
0
0
0
0
0
0
0
0
0
0
0
0
0
0
0
0
0
0
0
0
0
0
0
0
0
0
0
0
0
0
0
0
0
0
0
0
0
0
0
0
0
0
0
0
0
0
0
0
0
0
0
0
0
0
0
0
0
0
0
0
0
0
0
0
0
0
0
0
0
0
0
0
0
0
0
0
0
0
0
0
0
0
0
0
0
0
0
0
0
0
0
0
0
0
0
0
0
0
0
0
0
0
0
0
0
0
0
0
0
0
0
0
0
0
0
0
0
0
0
0
0
0
0
0
0
0
0
0
0
0
0
0
0
0
0
0
0
0
0
0
0
0
0
0
0
0
0
0
0
0
0
0
0
0
0
0
0
0
0
0
0
0
0
0
0
0
0
0
0
0
0
0
0
0
0
0
0
0
0
0
0
0
0
0
0
0
0
0
0
0
0
0
0
0
0
0
0
0
0
0
0
0
0
0
0
0
0
0
0
0
0
0
0
0
0
0
0
0
0
0
0
0
0
0
0
0
0
0
0
0
0
0
0
0
0
0
0
0
0
0
0
0
0
0
0
0
0
0
0
0
0
0
0
0
0
0
0
0
0
0
0
0
0
0
0
0
0
0
0
0
0
0
0
0
0
0
0
0
0
0
0
0
0
0
0
0
0
0
0
0
0
0
0
0
0
0
0
0
0
0
0
0
0
0
0
0
0
0
0
0
0
0
0
0
0
0
0
0
0
0
0
0
0
0
0
0
0
0
0
0
0
0
0
0
0
0
0
0
0
0
0
0
0
0
0
0
0
0
0
0
0
0
0
0
0
0
0
0
0
0
0
0
0
0
0
0
0
0
0
0
0
0
0
0
0
0
0
0
0
0
0
0
0
0
0
0
0
0
0
0
0
0
0
0
0
0
0
0
0
0
0
0
0
0
0
0
0
0
0
0
0
0
0
0
0
0
0
0
0
0
0
0
0
0
0
0
0
0
0
0
0
0
0
0
0
0
0
0
0
0
0
0
0
0
0
0
0
0
0
0
0
0
0
0
0
0
0
0
0
0
0
0
0
0
0
0
0
