ply
format ascii 1.0
obj_info num_cols 50
obj_info num_rows 50
element vertex 413
property float x
property float y
property float z
element range_grid 2500
property list uchar int vertex_indices
end_header
10.6830056 0.3642528 25.7856858
10.5513963 -0.4437230 27.3123534
9.5330902 0.0323593 28.7755744
10.7515851 0.5845161 20.6385136
10.6772451 -0.3249400 22.2476685
10.5069856 -1.0755481 23.8105064
9.9533574 -1.2661901 25.3075756
9.2200035 -1.2012235 26.7848166
8.5280644 -1.1951776 28.2666585
10.7103215 -6.8683802 32.6011628
10.8192616 -7.8591359 33.9447814
10.5097284 -8.2814806 35.2848452
9.3834166 -7.6388140 36.6887342
10.6250914 0.0615474 16.9909873
10.6463438 -0.9846039 18.6707957
10.6099790 -1.9240774 20.2987991
10.7207567 -3.0479044 21.9138160
10.6572533 -3.9039716 23.4627228
10.7051320 -4.8930382 24.9909949
10.7706432 -5.8835300 26.4836218
10.7071927 -6.6790450 27.9325352
10.7714526 -7.6260601 29.3561446
10.7333874 -8.4182517 30.7448737
10.5346823 -8.9851572 32.1081577
10.2135208 -9.3830203 33.4564877
9.7462005 -9.5872260 34.8003384
8.9675774 -9.3968099 36.1640874
10.6359687 0.3672405 11.5659431
10.6081531 -0.6292047 13.3270840
10.6923532 -1.7611380 15.0782334
10.4424941 -2.3958599 16.7001425
10.4342855 -3.3517149 18.3497459
10.6776557 -4.6310161 20.0096047
10.6493918 -5.5117872 21.5742220
10.6746016 -6.4442856 23.1119579
10.6932447 -7.3470416 24.6130610
10.7508107 -8.2807588 26.0831746
10.5739622 -8.8896209 27.5036514
10.2354806 -9.2777652 28.8954954
9.9072288 -9.6706076 30.2733227
9.5699968 -10.0438652 31.6370588
9.2245367 -10.3990959 32.9877432
8.8298206 -10.6864207 34.3286016
7.9670634 -10.3984044 35.6954585
6.0139660 -8.8035012 37.1799342
10.6128067 -0.3250596 7.8095823
10.5531151 -1.2726771 9.6122461
10.4907207 -2.1934779 11.3733547
10.4538854 -3.1278537 13.1034019
10.6166884 -4.3152487 14.8505097
10.6858240 -5.3471963 16.5247158
10.6223092 -6.1766568 18.1268706
10.6741293 -7.1406052 19.7182361
10.7061590 -8.0566854 21.2676550
10.5979959 -8.7699205 22.7606332
10.2823564 -9.2005675 24.2011931
9.9350346 -9.5815666 25.6222727
9.5940681 -9.9623918 27.0293584
9.2421281 -10.3214831 28.4216801
8.9132494 -10.7014343 29.8011895
8.5793656 -11.0673951 31.1667619
8.2249397 -11.4010768 32.5195473
7.9275825 -11.7960535 33.8577175
4.8031409 -8.8455940 35.3740124
4.1467549 -8.8392501 36.7763853
10.5406132 0.1016010 2.0608030
10.5357155 -0.9475543 3.9888282
10.5180547 -1.9527087 5.8639130
10.3994782 -2.7921094 7.6533216
10.6751964 -4.1564116 9.5531826
10.5711198 -4.9693852 11.2630750
10.6562686 -6.0186417 12.9974233
10.6303589 -6.8953279 14.6554735
10.6550553 -7.8185760 16.2896717
10.6400407 -8.6690708 17.8763974
10.3362734 -9.1283921 19.3698550
9.9797523 -9.5103652 20.8355221
9.6258248 -9.8872939 22.2863860
9.2819409 -10.2686254 23.7236735
8.9463420 -10.6520462 25.1469428
8.5852875 -10.9963454 26.5535156
8.2512224 -11.3660368 27.9483903
7.9413641 -11.7569956 29.3300192
7.6312281 -12.1396325 30.6970367
7.3160085 -12.5085840 32.0499866
6.8849632 -12.7361189 33.3938395
2.8621498 -8.8448752 34.9427800
2.2017147 -8.8446386 36.3642029
10.5423041 0.4327946 -3.8619764
10.4611153 -0.5292883 -1.8685974
10.5712856 -1.7393107 0.1816201
10.3188256 -2.4100856 1.9929464
10.5937607 -3.7958684 4.0207980
10.5632514 -4.7295974 5.8515056
10.5958754 -5.7264301 7.6656231
10.6273357 -6.6981254 9.4347273
10.6657562 -7.6563001 11.1632936
10.6501640 -8.5217862 12.8328957
10.3669062 -9.0219495 14.3879952
10.0134157 -9.4212508 15.9035890
9.6619102 -9.8142288 17.4029577
9.3157784 -10.2053210 18.8871961
8.9688381 -10.5869574 20.3553002
8.6351893 -10.9766564 21.8100393
8.3131646 -11.3721417 23.2506985
7.9669236 -11.7304089 24.6731224
7.6401386 -12.1042566 26.0831249
7.2908744 -12.4441437 27.4773110
6.8760934 -12.7013027 28.8561208
6.3688112 -12.8473567 30.2239895
5.8415162 -12.9678933 31.5866938
5.3499250 -13.1262341 32.9440178
0.8872195 -8.8674595 34.4982750
0.2290228 -8.8799605 35.9384859
-0.6508510 -8.6507599 37.3989008
10.5854664 -0.3866708 -7.8159960
10.5301124 -1.3815021 -5.7522511
10.6114326 -2.5437906 -3.6552237
10.5821968 -3.5232585 -1.6777042
10.5900089 -4.5295091 0.2724604
10.5506835 -5.4473006 2.1511258
10.5758187 -6.4294580 4.0169235
10.5974287 -7.3836074 5.8355569
10.6174477 -8.3132683 7.6097441
10.4257058 -8.9474133 9.2618748
10.0352421 -9.3129638 10.8165194
9.6741145 -9.7074038 12.3645193
9.3224975 -10.1049742 13.8981763
8.9933633 -10.5215979 15.4207057
8.6676791 -10.9333800 16.9263486
8.3180007 -11.3073048 18.4096135
7.9868694 -11.6954631 19.8807967
7.6439930 -12.0615646 21.3341346
7.3124558 -12.4333238 22.7741351
6.8761450 -12.6761031 24.1874325
6.3645753 -12.8277423 25.5844930
5.8434281 -12.9655455 26.9751133
5.3322604 -13.1118895 28.3609581
4.8096132 -13.2426676 29.7410736
4.2940583 -13.3787783 31.1163537
3.7868603 -13.5214401 32.4864599
3.2062208 -13.5822256 33.8545275
-1.8245397 -8.8882444 35.5026391
-2.5041265 -8.8879492 36.9641943
9.8391964 -0.0817245 -12.3914614
9.9910586 -1.3796067 -10.0950306
10.1032630 -2.5891514 -7.8918375
10.1660042 -3.7001815 -5.7813606
10.2806725 -4.8543698 -3.6953434
10.3991785 -5.9854681 -1.6642456
10.4894962 -7.0517845 0.2965531
10.5450373 -8.0470059 2.1884635
10.4212268 -8.7862473 3.9487759
10.0647688 -9.2102516 5.5723578
9.6555710 -9.5577993 7.1548500
9.3369495 -10.0109026 8.7558641
8.9992781 -10.4303081 10.3297460
8.6806959 -10.8638125 11.8910655
8.3235992 -11.2412468 13.4219020
7.9953263 -11.6450360 14.9440088
7.6489110 -12.0187278 16.4443086
7.3081934 -12.3912054 17.9298996
6.8710146 -12.6441631 19.3814039
6.3657963 -12.8139540 20.8111634
5.8233300 -12.9381039 22.2287932
5.3062137 -13.0882942 23.6445290
4.7970006 -13.2443409 25.0551031
4.2595119 -13.3662753 26.4575496
3.7483079 -13.5145272 27.8566522
3.2562131 -13.6805774 29.2506259
2.7441810 -13.8222218 30.6381557
2.2183389 -13.9466489 32.0205908
1.7527270 -14.1318629 33.3963366
-3.9694273 -8.8635495 35.0559815
-4.6434928 -8.8795391 36.5380562
8.9181040 0.4436359 -17.2549714
9.0913413 -0.8944605 -14.8318721
9.2054822 -2.1166743 -12.5238174
9.3050981 -3.2882507 -10.2903260
9.4253678 -4.4585040 -8.1040046
9.6266908 -5.7078827 -5.9266399
9.7566527 -6.8330518 -3.8553473
9.8772915 -7.9190993 -1.8457431
9.8661056 -8.8101801 0.0399602
9.6278290 -9.3923562 1.7685457
9.3863856 -9.9571503 3.4676253
9.0127494 -10.3452788 5.0818304
8.6756256 -10.7694495 6.6928326
8.3464822 -11.1938821 8.2872241
8.0006442 -11.5890127 9.8562915
7.6635758 -11.9859700 11.4103201
7.2953935 -12.3379676 12.9373140
6.8739296 -12.6207714 14.4343040
6.3581934 -12.7896047 15.8958728
5.8138604 -12.9225807 17.3440117
5.2977007 -13.0845462 18.7921429
4.7391599 -13.1962265 20.2263377
4.2297308 -13.3597569 21.6632670
3.7159380 -13.5153621 23.0930211
3.1898734 -13.6547609 24.5153015
2.6825648 -13.8115301 25.9335462
2.1632856 -13.9527059 27.3449503
1.6579323 -14.1058253 28.7513662
1.1448900 -14.2481563 30.1517741
0.6324678 -14.3885306 31.5467609
0.0995673 -14.5055687 32.9370222
-6.1662201 -8.8511062 34.5952121
-6.6833486 -9.0335851 36.0882826
7.8885641 -0.0208422 -19.9915298
8.0046447 -1.2607975 -17.5634668
8.2006198 -2.5773445 -15.1417248
8.4263992 -3.9007205 -12.7692928
8.6018581 -5.1250432 -10.5026048
8.7974814 -6.3457236 -8.2871201
9.0152543 -7.5654384 -6.1213253
9.1236768 -8.6171153 -4.0833698
8.9843846 -9.3329899 -2.2381444
8.7534402 -9.9185268 -0.4773866
8.5298176 -10.4996477 1.2580992
8.3263865 -11.0921046 2.9746674
8.0195323 -11.5473276 4.6171750
7.6655516 -11.9366553 6.2186750
7.3051898 -12.3100361 7.7994540
6.8720341 -12.5910001 9.3371206
6.3480015 -12.7618173 10.8322532
5.8034249 -12.9058194 12.3136358
5.2526406 -13.0399506 13.7870449
4.7211935 -13.1928901 15.2595083
4.1834813 -13.3359133 16.7240235
3.6795161 -13.5128454 18.1892312
3.1516501 -13.6605860 19.6427715
2.6360955 -13.8186098 21.0920571
2.1008524 -13.9528462 22.5322916
1.5749861 -14.0943624 23.9680929
1.0529616 -14.2372182 25.3985303
0.5393849 -14.3860918 26.8238060
-0.0703647 -14.4346766 28.2392178
-0.9260190 -14.2353937 29.6478941
-1.8371952 -13.9847510 31.0649948
-2.7334142 -13.7536822 32.4922163
-4.0565608 -13.1100001 33.9460142
-6.9732035 -10.9360230 35.5201123
6.6819782 -0.2799584 -22.9175595
7.0022407 -1.7780211 -20.2624565
7.2198559 -3.1027368 -17.7736740
7.3737762 -4.3114253 -15.4069798
7.6408728 -5.6363292 -13.0240851
7.8752671 -6.8874690 -10.7355478
8.0898088 -8.0836647 -8.5269751
8.1210196 -9.0237095 -6.4961685
7.9730766 -9.7217762 -4.6204736
7.8071702 -10.3819647 -2.7907169
7.6255440 -11.0082700 -1.0028028
7.4254744 -11.5986140 0.7444826
7.2310200 -12.1824234 2.4651207
6.8753500 -12.5664288 4.0862264
6.3478027 -12.7449999 5.6181406
5.7958495 -12.8921541 7.1323776
5.2419348 -13.0340947 8.6391939
4.6886568 -13.1738723 10.1398153
4.1463148 -13.3228692 11.6375152
3.6096945 -13.4751267 13.1301994
3.0946917 -13.6476442 14.6216529
2.5601402 -13.7959639 16.1011044
2.0402095 -13.9568360 17.5771567
1.5196011 -14.1139185 19.0462080
0.9721413 -14.2402845 20.5043990
0.4539686 -14.3942640 21.9612922
-0.2125197 -14.3951517 23.3951840
-1.0981201 -14.1763651 24.8095866
-2.0135473 -13.9322717 26.2315941
-2.9471156 -13.6750925 27.6633736
-3.8528041 -13.4500622 29.1070004
-4.7463497 -13.2410858 30.5603660
-5.6852028 -12.9927473 32.0232288
-6.5725240 -12.7979443 33.4948516
5.3395717 -0.4039320 -26.0110199
5.5922765 -1.7942163 -23.3475813
5.8980253 -3.2182994 -20.7201168
6.2581259 -4.6765804 -18.1305151
6.4220833 -5.8521918 -15.7715407
6.7188882 -7.1648693 -13.3817819
6.9636839 -8.3823565 -11.0998470
6.9812758 -9.2951292 -9.0326709
6.9172671 -10.0887363 -7.0650574
6.8172689 -10.8214493 -5.1605809
6.6420053 -11.4492608 -3.3363777
6.5123177 -12.1159287 -1.5204468
6.2025209 -12.5612255 0.1717827
5.7287525 -12.8108022 1.7648081
5.2222730 -13.0183757 3.3312203
4.6705909 -13.1714431 4.8690134
4.1191688 -13.3216780 6.3997157
3.5822389 -13.4846321 7.9286265
3.0487015 -13.6479713 9.4511394
2.5143649 -13.8072229 10.9659423
1.9753798 -13.9584588 12.4722434
1.4057496 -14.0748281 13.9639522
0.8801255 -14.2344047 15.4607932
0.3336194 -14.3696146 16.9462888
-0.3645867 -14.3488775 18.3979466
-1.2631945 -14.1280006 19.8184456
-2.1961940 -13.8774435 21.2443590
-3.1138921 -13.6468718 22.6834997
-4.0387911 -13.4138252 24.1323974
-4.9924584 -13.1575907 25.5896045
-5.9153230 -12.9356911 27.0598395
-6.9792437 -12.5846224 28.5351306
3.8608608 -0.4034886 -29.2835524
4.1151810 -1.7803212 -26.5487381
4.3990714 -3.1603609 -23.8697622
4.8579914 -4.7248068 -21.1271231
5.1738423 -6.0752017 -18.5873982
5.5593619 -7.4780755 -16.0721866
5.7123209 -8.5682236 -13.8028984
5.7585033 -9.5060932 -11.6672419
5.7633458 -10.3738198 -9.6099782
5.7099328 -11.1541791 -7.6358363
5.6009323 -11.8532032 -5.7361700
5.4322468 -12.4689781 -3.9067438
4.9696384 -12.7414474 -2.2643776
4.4759906 -12.9736523 -0.6513208
4.0063706 -13.2273489 0.9613651
3.5037470 -13.4399149 2.5468943
3.0085789 -13.6561266 4.1251056
2.4543242 -13.8051360 5.6700292
1.8652302 -13.9145491 7.1953930
1.3463018 -14.0949032 8.7391689
0.7951836 -14.2385579 10.2645998
0.2288936 -14.3639836 11.7791642
-0.4843340 -14.3386797 13.2500040
-1.4350661 -14.0765914 14.6664905
-2.3883770 -13.8172496 16.0950575
-3.3297891 -13.5747674 17.5382545
-4.2320304 -13.3751345 18.9994642
-5.2241054 -13.0930834 20.4571360
-6.1821804 -12.8488978 21.9320453
2.0798199 -0.0797388 -32.9066153
2.4163767 -1.5479844 -30.0140545
2.8546726 -3.1055679 -27.1198681
3.2563039 -4.5806132 -24.3502096
3.6371914 -5.9952591 -21.6847390
4.0824432 -7.4528500 -19.0516580
4.3428214 -8.6590125 -16.6408666
4.4379962 -9.6453795 -14.4166960
4.4495384 -10.5131799 -12.3049662
4.5055019 -11.4117724 -10.2127503
4.4714488 -12.1892773 -8.2254828
4.1546882 -12.6359657 -6.4460144
3.6823300 -12.9022489 -4.7768022
3.1665534 -13.1157699 -3.1443174
2.6923875 -13.3695135 -1.5020984
2.2115964 -13.6109617 0.1240669
1.7139206 -13.8297228 1.7306103
1.2340137 -14.0625394 3.3336273
0.7046427 -14.2397915 4.9059913
0.1242809 -14.3616335 6.4513579
-0.6445626 -14.2911524 7.9276930
-1.6252253 -14.0108623 9.3420265
-2.5799245 -13.7619606 10.7779222
-3.5362277 -13.5165525 12.2258608
-4.5094504 -13.2597011 13.6819343
-5.4357182 -13.0530158 15.1607546
-6.4483931 -12.7683465 16.6330016
0.0302965 0.5001196 -36.8715201
0.5378664 -1.1664032 -33.7212950
1.0467438 -2.7937739 -30.6734617
1.4876132 -4.3009207 -27.7855523
2.0049932 -5.8620697 -24.9243981
2.4136974 -7.2601452 -22.2449280
2.8982823 -8.7127673 -19.5894772
2.8992112 -9.5830461 -17.3778327
2.9759486 -10.5186157 -15.1627239
3.0324257 -11.4106981 -13.0147710
3.0056954 -12.1917149 -10.9708441
2.9283542 -12.9007056 -9.0015629
2.4737122 -13.1896145 -7.2914919
1.9590661 -13.4087617 -5.6301582
1.4591170 -13.6387988 -3.9726499
0.9932841 -13.8995431 -2.3102138
0.5053129 -14.1322210 -0.6716809
0.0012931 -14.3438992 0.9478615
-0.9506135 -14.1006387 2.3709377
-1.8028622 -13.9617682 3.8457749
-2.7952318 -13.6876956 5.2772706
-3.7587190 -13.4474554 6.7328697
-4.7075551 -13.2262895 8.2055598
-5.7225205 -12.9463291 9.6705473
-6.7224306 -12.6862306 11.1537618
0.0801561 -5.4558058 -28.4854063
0.6302096 -7.0016957 -25.6023993
1.0968531 -8.4182342 -22.8804710
1.2072656 -9.4073711 -20.5179060
1.2205580 -10.2677234 -18.2855352
1.2843364 -11.1636148 -16.0680183
1.2544207 -11.9393229 -13.9654384
1.2464075 -12.7213411 -11.8932365
1.2808413 -13.5309970 -9.8394163
0.9341489 -13.9280954 -8.0525744
0.4743313 -14.2008185 -6.3500242
-0.0919670 -14.3598485 -4.7179399
-1.5000214 -13.6700834 -3.5115791
-2.4484550 -13.4517155 -2.0519156
-3.3036464 -13.3297373 -0.5388725
-4.1183328 -13.2498490 0.9979311
-5.0342030 -13.0741564 2.4999205
-5.9961940 -12.8580859 3.9946890
-7.0909405 -12.5209368 5.4559176
-1.9705345 -12.5698572 -11.6508206
-1.8341317 -13.4609390 -9.5239991
-3.1093572 -12.9327603 -8.2249858
-4.0868827 -12.7080563 -6.7400870
-4.9000846 -12.6478440 -5.1607810
0
0
0
0
0
0
0
0
0
0
0
0
0
0
0
0
0
0
0
0
0
0
0
0
0
0
0
0
0
0
0
0
0
0
0
0
0
0
0
0
0
0
0
0
0
0
0
0
0
0
0
0
0
0
0
0
0
0
0
0
0
0
0
0
0
0
0
0
0
0
0
0
0
0
0
0
0
0
0
0
0
0
0
0
0
0
0
0
0
0
0
0
0
0
0
0
0
0
0
0
0
0
0
0
0
0
0
0
0
0
0
0
0
0
0
0
0
0
0
0
0
0
0
0
0
0
0
0
0
0
0
0
0
0
0
0
0
0
0
0
0
0
0
0
0
0
0
0
0
0
0
0
0
0
0
0
0
0
0
0
0
0
0
0
0
0
0
0
0
0
0
0
0
0
0
0
0
0
0
0
0
0
0
0
0
0
0
0
0
0
0
0
0
0
0
0
0
0
0
0
0
0
0
0
0
0
0
0
0
0
0
0
0
0
0
0
0
0
0
0
0
0
0
0
0
0
0
0
0
0
0
0
0
0
0
0
0
0
0
0
0
0
0
0
0
0
0
0
0
0
0
0
0
0
0
0
0
0
0
0
0
0
0
0
0
0
0
0
0
0
0
0
0
0
0
0
0
0
0
0
0
0
0
0
0
0
0
0
0
0
0
0
0
0
0
0
0
0
0
0
0
0
0
0
0
0
0
0
0
0
0
0
0
0
0
0
0
0
0
0
0
0
0
0
0
0
0
0
0
0
0
0
0
0
0
0
0
0
0
0
0
0
0
0
0
0
0
0
0
0
0
0
0
0
0
0
0
0
0
0
0
0
0
0
0
0
0
0
0
0
0
0
0
0
0
0
0
0
0
0
0
0
0
0
0
0
0
0
0
0
0
0
0
0
0
0
0
0
0
0
0
0
0
0
0
0
0
0
0
0
0
0
0
0
0
0
0
0
0
0
0
0
0
0
0
0
0
0
0
0
0
0
0
0
0
0
0
0
0
0
0
0
0
0
0
0
0
0
0
0
0
0
0
0
0
0
0
0
0
0
0
0
0
0
0
0
0
0
0
0
0
0
0
0
0
0
0
0
0
0
0
0
0
0
0
0
0
0
0
0
0
0
0
0
0
0
0
0
0
0
0
0
0
0
0
0
0
0
0
0
0
0
0
0
0
0
0
0
0
0
0
0
0
0
0
0
0
0
0
0
0
0
0
0
0
0
0
0
0
0
0
0
0
0
0
0
0
0
0
0
0
0
0
0
0
0
0
0
0
0
0
0
0
0
0
0
0
0
0
0
0
0
0
0
0
0
0
0
0
0
0
0
0
0
0
0
0
0
0
0
0
0
0
0
0
0
0
0
0
0
0
0
0
0
0
0
0
0
0
0
0
0
0
0
0
0
0
0
0
0
0
0
0
0
0
0
0
0
0
0
0
0
0
0
0
0
0
0
0
0
0
0
0
0
0
0
0
0
0
0
0
0
0
0
0
0
0
0
0
0
0
0
0
0
0
0
0
0
0
0
0
0
0
0
0
0
0
0
0
0
0
0
0
0
0
0
0
0
0
0
0
0
0
0
0
0
0
0
0
0
0
0
0
0
0
0
0
0
0
0
0
0
0
0
0
0
0
0
0
0
0
0
0
0
0
0
0
0
0
0
0
0
0
0
0
0
0
0
0
0
0
0
0
0
0
0
0
0
0
0
0
0
0
0
0
0
0
0
0
0
0
0
0
0
0
0
0
0
0
0
0
0
0
0
0
0
0
0
0
0
0
0
0
0
0
0
1 0
1 1
1 2
0
0
0
0
0
0
0
0
0
0
0
0
0
0
0
0
0
0
0
0
0
0
0
0
0
0
0
0
0
0
0
0
0
0
0
0
0
0
0
0
0
0
0
0
1 3
1 4
1 5
1 6
1 7
1 8
0
0
1 9
1 10
1 11
1 12
0
0
0
0
0
0
0
0
0
0
0
0
0
0
0
0
0
0
0
0
0
0
0
0
0
0
0
0
0
0
0
0
0
0
0
0
1 13
1 14
1 15
1 16
1 17
1 18
1 19
1 20
1 21
1 22
1 23
1 24
1 25
1 26
0
0
0
0
0
0
0
0
0
0
0
0
0
0
0
0
0
0
0
0
0
0
0
0
0
0
0
0
0
0
0
0
0
1 27
1 28
1 29
1 30
1 31
1 32
1 33
1 34
1 35
1 36
1 37
1 38
1 39
1 40
1 41
1 42
1 43
1 44
0
0
0
0
0
0
0
0
0
0
0
0
0
0
0
0
0
0
0
0
0
0
0
0
0
0
0
0
0
0
1 45
1 46
1 47
1 48
1 49
1 50
1 51
1 52
1 53
1 54
1 55
1 56
1 57
1 58
1 59
1 60
1 61
1 62
1 63
1 64
0
0
0
0
0
0
0
0
0
0
0
0
0
0
0
0
0
0
0
0
0
0
0
0
0
0
0
1 65
1 66
1 67
1 68
1 69
1 70
1 71
1 72
1 73
1 74
1 75
1 76
1 77
1 78
1 79
1 80
1 81
1 82
1 83
1 84
1 85
1 86
1 87
0
0
0
0
0
0
0
0
0
0
0
0
0
0
0
0
0
0
0
0
0
0
0
0
1 88
1 89
1 90
1 91
1 92
1 93
1 94
1 95
1 96
1 97
1 98
1 99
1 100
1 101
1 102
1 103
1 104
1 105
1 106
1 107
1 108
1 109
1 110
1 111
1 112
1 113
1 114
0
0
0
0
0
0
0
0
0
0
0
0
0
0
0
0
0
0
0
0
0
1 115
1 116
1 117
1 118
1 119
1 120
1 121
1 122
1 123
1 124
1 125
1 126
1 127
1 128
1 129
1 130
1 131
1 132
1 133
1 134
1 135
1 136
1 137
1 138
1 139
1 140
1 141
1 142
1 143
0
0
0
0
0
0
0
0
0
0
0
0
0
0
0
0
0
0
0
1 144
1 145
1 146
1 147
1 148
1 149
1 150
1 151
1 152
1 153
1 154
1 155
1 156
1 157
1 158
1 159
1 160
1 161
1 162
1 163
1 164
1 165
1 166
1 167
1 168
1 169
1 170
1 171
1 172
1 173
1 174
0
0
0
0
0
0
0
0
0
0
0
0
0
0
0
0
0
1 175
1 176
1 177
1 178
1 179
1 180
1 181
1 182
1 183
1 184
1 185
1 186
1 187
1 188
1 189
1 190
1 191
1 192
1 193
1 194
1 195
1 196
1 197
1 198
1 199
1 200
1 201
1 202
1 203
1 204
1 205
1 206
1 207
0
0
0
0
0
0
0
0
0
0
0
0
0
0
0
0
1 208
1 209
1 210
1 211
1 212
1 213
1 214
1 215
1 216
1 217
1 218
1 219
1 220
1 221
1 222
1 223
1 224
1 225
1 226
1 227
1 228
1 229
1 230
1 231
1 232
1 233
1 234
1 235
1 236
1 237
1 238
1 239
1 240
1 241
0
0
0
0
0
0
0
0
0
0
0
0
0
0
0
1 242
1 243
1 244
1 245
1 246
1 247
1 248
1 249
1 250
1 251
1 252
1 253
1 254
1 255
1 256
1 257
1 258
1 259
1 260
1 261
1 262
1 263
1 264
1 265
1 266
1 267
1 268
1 269
1 270
1 271
1 272
1 273
1 274
1 275
0
0
0
0
0
0
0
0
0
0
0
0
0
0
0
1 276
1 277
1 278
1 279
1 280
1 281
1 282
1 283
1 284
1 285
1 286
1 287
1 288
1 289
1 290
1 291
1 292
1 293
1 294
1 295
1 296
1 297
1 298
1 299
1 300
1 301
1 302
1 303
1 304
1 305
1 306
1 307
0
0
0
0
0
0
0
0
0
0
0
0
0
0
0
0
0
1 308
1 309
1 310
1 311
1 312
1 313
1 314
1 315
1 316
1 317
1 318
1 319
1 320
1 321
1 322
1 323
1 324
1 325
1 326
1 327
1 328
1 329
1 330
1 331
1 332
1 333
1 334
1 335
1 336
0
0
0
0
0
0
0
0
0
0
0
0
0
0
0
0
0
0
0
0
1 337
1 338
1 339
1 340
1 341
1 342
1 343
1 344
1 345
1 346
1 347
1 348
1 349
1 350
1 351
1 352
1 353
1 354
1 355
1 356
1 357
1 358
1 359
1 360
1 361
1 362
1 363
0
0
0
0
0
0
0
0
0
0
0
0
0
0
0
0
0
0
0
0
0
0
1 364
1 365
1 366
1 367
1 368
1 369
1 370
1 371
1 372
1 373
1 374
1 375
1 376
1 377
1 378
1 379
1 380
1 381
1 382
1 383
1 384
1 385
1 386
1 387
1 388
0
0
0
0
0
0
0
0
0
0
0
0
0
0
0
0
0
0
0
0
0
0
0
0
0
0
0
0
1 389
1 390
1 391
1 392
1 393
1 394
1 395
1 396
1 397
1 398
1 399
1 400
1 401
1 402
1 403
1 404
1 405
1 406
1 407
0
0
0
0
0
0
0
0
0
0
0
0
0
0
0
0
0
0
0
0
0
0
0
0
0
0
0
0
0
0
0
0
0
0
0
0
0
0
0
1 408
1 409
1 410
1 411
1 412
0
0
0
0
0
0
0
0
0
0
0
0
0
0
0
0
0
0
0
0
0
0
0
0
0
0
0
0
0
0
0
0
0
0
0
0
0
0
0
0
0
0
0
0
0
0
0
0
0
0
0
0
0
0
0
0
0
0
0
0
0
0
0
0
0
0
0
0
0
0
0
0
0
0
0
0
0
0
0
0
0
0
0
0
0
0
0
0
0
0
0
0
0
0
0
0
0
0
0
0
0
0
0
0
0
0
0
0
0
0
0
0
0
0
0
0
0
0
0
0
0
0
0
0
0
0
0
0
0
0
0
0
0
0
0
0
0
0
0
0
0
0
0
0
0
0
0
0
0
0
0
0
0
0
0
0
0
0
0
0
0
0
0
0
0
0
0
0
0
0
0
0
0
0
0
0
0
0
0
0
0
0
0
0
0
0
0
0
0
0
0
0
0
0
0
0
0
0
0
0
0
0
0
0
0
0
0
0
0
0
0
0
0
0
0
0
0
0
0
0
0
0
0
0
0
0
0
0
0
0
0
0
0
0
0
0
0
0
0
0
0
0
0
0
0
0
0
0
0
0
0
0
0
0
0
0
0
0
0
0
0
0
0
0
0
0
0
0
0
0
0
0
0
0
0
0
0
0
0
0
0
0
0
0
0
0
0
0
0
0
0
0
0
0
0
0
0
0
0
0
0
0
0
0
0
0
0
0
0
0
0
0
0
0
0
0
0
0
0
0
0
0
0
0
0
0
0
0
0
0
0
0
0
0
0
0
0
0
0
0
0
0
0
0
0
0
0
0
0
0
0
0
0
0
0
0
0
0
0
0
0
0
0
0
0
0
0
0
0
0
0
0
0
0
0
0
0
0
0
0
0
0
0
0
0
0
0
0
0
0
0
0
0
0
0
0
0
0
0
0
0
0
0
0
0
0
0
0
0
0
0
0
0
0
0
0
0
0
0
0
0
0
0
0
0
0
0
0
0
0
0
0
0
0
0
0
0
0
0
0
0
0
0
0
0
0
0
0
0
0
0
0
0
0
0
0
0
0
0
0
0
0
0
0
0
0
0
0
0
0
0
0
0
0
0
0
0
0
0
0
0
0
0
0
0
0
0
0
0
0
0
0
0
0
0
0
0
0
0
0
0
0
0
0
0
0
0
0
0
0
0
0
0
0
0
0
0
0
0
0
0
0
0
0
0
0
0
0
0
0
0
0
0
0
0
0
0
0
0
0
0
0
0
0
0
0
0
0
0
0
0
0
0
0
0
0
0
0
0
0
0
0
0
0
0
0
0
0
0
0
0
0
0
0
0
0
0
0
0
0
0
0
0
0
0
0
0
0
0
0
0
0
0
0
0
0
0
0
0
0
0
0
0
0
0
0
0
0
0
0
0
0
0
0
0
0
0
0
0
0
0
0
0
0
0
0
0
0
0
0
0
0
0
0
0
0
0
0
0
0
0
0
0
0
0
0
0
0
0
0
0
0
0
0
0
0
0
0
0
0
0
0
0
0
0
0
0
0
0
0
0
0
0
0
0
0
0
0
0
0
0
0
0
0
0
0
0
0
0
0
0
0
0
0
0
0
0
0
0
0
0
0
0
0
0
0
0
0
0
0
0
0
0
0
0
0
0
0
0
0
0
0
0
0
0
0
0
0
0
0
0
0
0
0
0
0
0
0
0
0
0
0
0
0
0
0
0
0
0
0
0
0
0
0
0
0
0
0
0
0
0
0
0
0
0
0
0
0
0
0
0
0
0
0
0
0
0
0
0
0
0
0
0
0
0
0
0
0
0
0
0
0
0
0
0
0
0
0
0
0
0
0
0
0
0
0
0
0
0
0
0
0
0
0
0
0
0
0
0
0
0
0
0
0
0
0
0
0
0
0
0
0
0
0
0
0
0
0
0
0
0
0
0
0
0
0
0
0
0
0
0
0
0
0
0
0
0
0
0
0
0
0
0
0
0
0
0
0
0
0
0
0
0
0
0
0
