ply
format ascii 1.0
obj_info num_cols 50
obj_info num_rows 50
element vertex 209
property float x
property float y
property float z
element range_grid 2500
property list uchar int vertex_indices
end_header
-4.3118772 13.6172586 23.2679086
2.4464172 13.4524841 21.6622222
0.8437984 13.4580655 21.4222510
-0.7574449 13.4709223 21.1714006
-1.6351420 6.5905399 26.1470117
-3.1790909 6.3507690 26.3154656
-4.6797670 6.2473209 26.2674605
-6.1648133 6.1962771 26.1361003
6.0459778 5.5881880 26.0305919
4.4709647 5.3988063 26.1235363
2.9212088 5.2451089 26.1596778
1.3907299 5.1195633 26.1509128
-0.1369893 4.9779627 26.1697483
-1.6538098 4.8437940 26.1775694
-3.1544047 4.7411755 26.1342849
-4.6455532 4.6527678 26.0682906
-6.1218179 4.6148963 25.9188298
6.3664784 4.7088273 24.5833410
4.8447703 4.6924852 24.3917224
3.3478292 4.7373553 24.0960526
1.8187482 4.7008693 23.9387880
0.2960230 4.6771217 23.7600443
-4.2630553 4.6091857 23.2193157
-6.5423992 0.6624655 29.8293074
-7.9341128 0.6157259 29.7099652
7.8906291 0.3390351 29.6147562
6.3783511 0.1470660 29.7462695
4.9040377 0.0086288 29.7854989
3.4453558 -0.1149970 29.7999377
1.9985376 -0.2294476 29.7993355
0.5624970 -0.3351615 29.7843360
-0.8707945 -0.4533725 29.7925632
-2.2962870 -0.5715792 29.8019128
-3.7147144 -0.6925083 29.8172592
-5.1255632 -0.8151525 29.8368366
-6.5244451 -0.9186713 29.8232123
-7.9064997 -0.9627992 29.7035382
-9.2450424 -0.7054251 29.0394216
-10.5372194 0.1818312 27.2314297
7.8632299 -1.1759649 29.4278810
6.4733971 -1.1395768 29.1571976
5.0790305 -1.1069866 28.8930700
3.6703823 -1.1005545 28.6765554
2.2497714 -1.1212422 28.5098163
-0.5823631 -1.1476075 28.1491462
-1.9993754 -1.1674115 27.9812506
-3.3733245 -1.0378317 27.5358650
-4.7906727 -1.0478138 27.3492651
-7.6342749 -1.1275497 27.0883025
-9.0556405 -1.1920838 27.0047346
-10.4603796 -1.1411411 26.7042446
8.0165583 -6.7134835 37.2486013
6.6272953 -6.9281484 37.4713273
5.3302093 -7.0097976 37.4444670
4.0256620 -7.1157274 37.4645251
2.7326063 -7.2136871 37.4704950
1.4468710 -7.3107180 37.4756911
0.1826611 -7.3739349 37.4171631
-1.0968563 -7.4865158 37.4540034
-2.3709131 -7.6059099 37.5051058
-3.6284394 -7.7005452 37.5096605
-4.8782635 -7.7915724 37.5082004
-6.1248277 -7.8948556 37.5314428
-7.3535561 -7.9500676 37.4622396
-8.5524423 -7.8637518 37.1175740
-9.7171995 -7.5039356 36.2371638
-10.2451448 -1.2290777 23.7554125
7.9006829 -8.1664336 37.3159763
6.5571307 -8.3174905 37.4319466
5.2722156 -8.3893167 37.3932250
3.9877470 -8.4695482 37.3718829
2.7158713 -8.5368865 37.3258110
1.4491255 -8.6036548 37.2793101
0.1831505 -8.6793563 37.2513234
-1.0781920 -8.7570845 37.2281844
-2.3220574 -8.8034488 37.1429766
-3.5426198 -8.7911076 36.9402244
-4.7661076 -8.7849081 36.7496985
-5.9976266 -8.8065728 36.6154049
-7.2935275 -9.1152848 37.0630590
-8.4955894 -9.0544149 36.7630281
-9.6748920 -8.8167508 36.1021173
-10.6585029 -6.7694119 31.7418059
9.5806850 -8.8430227 36.0247332
8.0524098 -9.2171120 36.6063717
6.8255199 -9.1795451 36.3472209
5.8208057 -8.7812034 35.3451019
4.5638771 -8.7608690 35.1186140
3.2989566 -8.7519964 34.9155943
2.0257286 -8.7578021 34.7429091
0.7550860 -8.7587325 34.5601234
-0.5200401 -8.7698468 34.3985698
-1.7928001 -8.7767279 34.2282638
-3.0696716 -8.7962395 34.0845017
-4.3609077 -8.8653584 34.0452532
-7.1803821 -10.0566937 36.1953183
-8.3866890 -9.9821341 35.8596660
-9.5535182 -9.6289304 34.9309694
-10.6461125 -8.4587277 32.2573981
8.3007222 -10.1446993 35.6116830
6.9396576 -10.2889622 35.7373501
6.1684156 -9.5429413 33.9505775
4.8295593 -9.6297942 33.9506169
3.4901887 -9.7294131 33.9792355
2.1700890 -9.8073622 33.9620199
0.8622929 -9.8725671 33.9179905
-0.4579992 -9.9767058 33.9595314
-1.7699764 -10.0804354 34.0013648
-3.0623224 -10.1530943 33.9763153
-4.3528313 -10.2372461 33.9773301
-5.6416442 -10.3381105 34.0161045
-7.0641961 -11.0034556 35.3024260
-8.2684859 -10.8853159 34.8619349
-9.3675213 -10.0958593 32.9299483
-10.4726989 -8.8713768 30.0206211
7.1176406 -11.3149283 34.9271481
6.1074100 -10.9428222 33.9063381
4.7625588 -11.0482345 33.9578093
3.4396549 -11.1311324 33.9596232
2.1221003 -11.2164734 33.9679523
0.8163328 -11.2922695 33.9555909
-0.4923398 -11.3872494 33.9878432
-1.7861087 -11.4654395 33.9828508
-3.0704752 -11.5356586 33.9605157
-4.3531157 -11.6172412 33.9651096
-5.6360067 -11.7213278 34.0224988
-6.9509059 -11.9793603 34.4366352
-8.0785857 -11.4878539 33.1183972
-9.1326404 -10.3598533 30.3166196
-10.2693488 -9.1518290 27.3149280
-10.7732823 -0.3867791 6.6641574
6.0189421 -12.3652870 33.9566748
4.6947241 -12.4497541 33.9711596
3.4007182 -12.4970026 33.8985290
2.0879474 -12.5834814 33.9196308
0.7798742 -12.6747942 33.9533054
-0.5152537 -12.7554359 33.9626278
-1.8050191 -12.8392427 33.9805162
-3.0889737 -12.9261220 34.0068078
-4.3483473 -12.9653477 33.9195017
-5.5824904 -12.9355612 33.6661705
-6.7504648 -12.6560124 32.8083069
-7.8102536 -11.8072915 30.5665854
-8.8832417 -10.6409914 27.5419827
-10.0460927 -9.3997432 24.3199636
-10.6762521 -1.9621784 5.9383882
2.1048575 -13.8502086 33.6631286
0.7524887 -14.0235404 33.9127166
-0.5214253 -14.0743479 33.8576651
-1.7362194 -14.0086420 33.5106561
-2.8365673 -13.6592170 32.4483959
-3.9913164 -13.3698532 31.5331406
-5.1718671 -13.0793214 30.6111022
-6.3701120 -12.7590997 29.6098805
-7.5178192 -12.1143374 27.7787543
-8.6183614 -10.9430075 24.5960170
-9.8073043 -9.6611012 21.1150853
-10.7934156 -5.4875248 10.2035110
1.5118901 -14.0155850 30.3536103
0.0054268 -14.3924843 31.1551110
-1.1440518 -14.1165651 30.2387955
-2.3081436 -13.8149428 29.2506504
-3.4921399 -13.4917954 28.2012298
-4.7164096 -13.1963317 27.2209782
-5.9529047 -12.8494231 26.0994503
-7.1950650 -12.3976122 24.6926617
-8.3360465 -11.2655790 21.4563252
-9.5539138 -9.9534092 17.7203173
-10.8313213 -8.0972769 12.5006998
-0.5293788 -14.2851301 26.8382023
-1.7300738 -13.9667740 25.7533436
-2.9522714 -13.6247272 24.5976970
-4.2178111 -13.3084187 23.5091812
-5.5073151 -12.9694189 22.3523705
-6.8216439 -12.5986073 21.1010995
-8.0348575 -11.6123005 18.1074157
-9.2802059 -10.2540804 14.0472152
-10.6471814 -8.7999800 9.6954541
0.2229642 -14.3085002 22.6901582
-1.1107758 -14.1463205 22.0058138
-2.3693911 -13.7764973 20.7069828
-3.6706561 -13.4178077 19.4354301
-5.0258435 -13.1083950 18.3044059
-6.3908490 -12.7218948 16.9397187
-7.7069482 -11.9607821 14.4537101
-8.9935321 -10.6181030 10.2200964
-10.3971570 -9.1156036 5.4878517
-0.4191073 -14.3055342 17.8222942
-1.7371299 -13.9471216 16.4865902
-3.0846902 -13.5658772 15.0738021
-4.4876279 -13.2231673 13.7756368
-5.9205761 -12.8565865 12.3970076
-7.3533819 -12.3312849 10.5127327
-8.6764935 -10.9648691 5.9648938
-1.0324307 -14.1057650 11.7829914
-2.4516069 -13.7470651 10.3621979
-3.9080332 -13.3781993 8.9015759
-5.3976083 -12.9812214 7.3411094
-6.9308732 -12.5774141 5.7511352
-8.1893061 -10.6587290 -0.9154041
-0.2714851 -14.3065284 6.7036686
-1.7610774 -13.9556514 5.2234452
-3.2590447 -13.5210051 3.4411231
-4.8040497 -13.0702713 1.5940742
-6.3704507 -12.5040836 -0.6707936
-0.8973317 -13.9798950 -1.2126226
-2.3786338 -13.3085441 -4.0038041
-3.9769902 -12.7207339 -6.4922923
-0.0978176 -14.3293388 -7.1586358
0
0
0
0
0
0
0
0
0
0
0
0
0
0
0
0
0
0
0
0
0
0
0
0
0
0
0
0
0
0
0
0
0
0
0
0
0
0
0
0
0
0
0
0
0
0
0
0
0
0
0
0
0
0
0
0
0
0
0
0
0
0
0
0
0
0
0
0
0
0
0
0
0
0
0
0
0
0
0
0
0
0
0
0
0
0
0
0
0
0
0
0
0
0
0
0
0
0
0
0
0
0
0
0
0
0
0
0
0
0
0
0
0
0
0
0
0
0
0
0
0
0
0
0
0
0
0
0
0
0
0
0
0
0
0
0
0
0
0
0
0
0
0
0
0
0
0
0
0
0
0
0
0
0
0
0
0
0
0
0
0
0
0
0
0
0
0
0
0
0
0
0
0
0
0
0
0
0
0
0
0
0
0
0
0
0
0
0
0
0
0
0
0
0
0
0
0
0
0
0
0
0
0
0
0
0
0
0
0
0
0
0
0
0
0
0
0
0
0
0
0
0
0
0
0
0
0
0
0
0
0
0
0
0
0
0
0
0
0
0
0
0
0
0
0
0
0
0
0
0
0
0
0
0
0
0
0
0
0
0
0
0
0
0
0
0
0
0
0
0
0
0
0
0
0
0
0
0
0
0
0
0
0
0
0
0
0
0
0
0
0
0
0
0
0
0
0
0
0
0
0
0
0
0
0
0
0
0
0
0
0
0
0
0
0
0
0
0
0
0
0
0
0
0
0
0
0
0
0
0
0
0
0
0
0
0
0
0
0
0
0
0
0
0
0
0
0
0
0
0
0
0
0
0
0
0
0
0
0
0
0
0
0
0
0
0
0
0
0
0
0
0
0
0
0
0
0
0
0
0
0
0
0
0
0
0
0
0
0
0
0
0
0
0
0
0
0
0
0
0
0
0
0
0
0
0
0
0
0
0
0
0
0
0
0
0
0
0
0
0
0
0
0
0
0
0
0
0
0
0
0
0
0
0
0
0
0
0
0
0
0
0
0
0
0
0
0
0
0
0
0
0
0
0
0
0
0
0
0
0
0
0
0
0
0
0
0
0
0
0
0
0
0
0
0
0
0
0
0
0
0
0
0
0
0
0
0
0
0
0
0
0
0
0
0
0
0
0
0
0
0
0
0
0
0
0
0
0
0
0
0
0
0
0
0
0
0
0
0
0
0
0
0
0
0
0
0
0
0
0
0
0
0
0
0
0
0
0
0
0
0
0
0
0
0
0
0
0
0
0
0
0
0
0
0
0
0
0
0
0
0
0
0
0
0
0
0
0
0
0
0
0
0
0
0
1 0
0
0
0
0
0
0
0
0
0
0
0
0
0
0
0
0
0
0
0
0
0
0
0
0
0
0
0
0
0
0
0
0
0
0
0
0
0
0
0
0
0
0
0
0
0
1 1
1 2
1 3
0
0
0
0
0
0
0
0
0
0
0
0
0
0
0
0
0
0
0
0
0
0
0
0
0
0
0
0
0
0
0
0
0
0
0
0
0
0
0
0
0
0
0
0
0
0
0
0
0
0
0
0
0
0
0
0
0
0
0
0
0
0
0
0
0
0
0
0
0
0
0
0
0
0
0
0
0
0
0
0
0
0
0
0
0
0
0
0
0
0
0
0
0
0
0
0
0
0
0
1 4
1 5
1 6
1 7
0
0
0
0
0
0
0
0
0
0
0
0
0
0
0
0
0
0
0
0
0
0
0
0
0
0
0
0
0
0
0
0
0
0
0
0
0
0
0
0
0
1 8
1 9
1 10
1 11
1 12
1 13
1 14
1 15
1 16
0
0
0
0
0
0
0
0
0
0
0
0
0
0
0
0
0
0
0
0
0
0
0
0
0
0
0
0
0
0
0
0
0
0
0
0
0
0
0
0
0
1 17
1 18
1 19
1 20
1 21
0
0
1 22
1 23
1 24
0
0
0
0
0
0
0
0
0
0
0
0
0
0
0
0
0
0
0
0
0
0
0
0
0
0
0
0
0
0
0
0
0
0
0
0
0
0
1 25
1 26
1 27
1 28
1 29
1 30
1 31
1 32
1 33
1 34
1 35
1 36
1 37
1 38
0
0
0
0
0
0
0
0
0
0
0
0
0
0
0
0
0
0
0
0
0
0
0
0
0
0
0
0
0
0
0
0
0
0
0
0
1 39
1 40
1 41
1 42
1 43
0
1 44
1 45
1 46
1 47
0
1 48
1 49
1 50
0
0
0
0
0
0
0
0
0
0
0
0
0
0
0
0
0
0
0
0
0
0
0
0
0
0
0
0
0
0
0
0
0
0
1 51
1 52
1 53
1 54
1 55
1 56
1 57
1 58
1 59
1 60
1 61
1 62
1 63
1 64
1 65
1 66
0
0
0
0
0
0
0
0
0
0
0
0
0
0
0
0
0
0
0
0
0
0
0
0
0
0
0
0
0
0
0
0
0
0
1 67
1 68
1 69
1 70
1 71
1 72
1 73
1 74
1 75
1 76
1 77
1 78
1 79
1 80
1 81
1 82
0
0
0
0
0
0
0
0
0
0
0
0
0
0
0
0
0
0
0
0
0
0
0
0
0
0
0
0
0
0
0
0
0
1 83
1 84
1 85
1 86
1 87
1 88
1 89
1 90
1 91
1 92
1 93
1 94
0
1 95
1 96
1 97
1 98
0
0
0
0
0
0
0
0
0
0
0
0
0
0
0
0
0
0
0
0
0
0
0
0
0
0
0
0
0
0
0
0
0
0
1 99
1 100
1 101
1 102
1 103
1 104
1 105
1 106
1 107
1 108
1 109
1 110
1 111
1 112
1 113
1 114
0
0
0
0
0
0
0
0
0
0
0
0
0
0
0
0
0
0
0
0
0
0
0
0
0
0
0
0
0
0
0
0
0
0
0
1 115
1 116
1 117
1 118
1 119
1 120
1 121
1 122
1 123
1 124
1 125
1 126
1 127
1 128
1 129
1 130
0
0
0
0
0
0
0
0
0
0
0
0
0
0
0
0
0
0
0
0
0
0
0
0
0
0
0
0
0
0
0
0
0
0
0
1 131
1 132
1 133
1 134
1 135
1 136
1 137
1 138
1 139
1 140
1 141
1 142
1 143
1 144
1 145
0
0
0
0
0
0
0
0
0
0
0
0
0
0
0
0
0
0
0
0
0
0
0
0
0
0
0
0
0
0
0
0
0
0
0
0
0
0
1 146
1 147
1 148
1 149
1 150
1 151
1 152
1 153
1 154
1 155
1 156
1 157
0
0
0
0
0
0
0
0
0
0
0
0
0
0
0
0
0
0
0
0
0
0
0
0
0
0
0
0
0
0
0
0
0
0
0
0
0
0
0
1 158
1 159
1 160
1 161
1 162
1 163
1 164
1 165
1 166
1 167
1 168
0
0
0
0
0
0
0
0
0
0
0
0
0
0
0
0
0
0
0
0
0
0
0
0
0
0
0
0
0
0
0
0
0
0
0
0
0
0
0
0
0
1 169
1 170
1 171
1 172
1 173
1 174
1 175
1 176
1 177
0
0
0
0
0
0
0
0
0
0
0
0
0
0
0
0
0
0
0
0
0
0
0
0
0
0
0
0
0
0
0
0
0
0
0
0
0
0
0
0
0
1 178
1 179
1 180
1 181
1 182
1 183
1 184
1 185
1 186
0
0
0
0
0
0
0
0
0
0
0
0
0
0
0
0
0
0
0
0
0
0
0
0
0
0
0
0
0
0
0
0
0
0
0
0
0
0
0
0
0
0
1 187
1 188
1 189
1 190
1 191
1 192
1 193
0
0
0
0
0
0
0
0
0
0
0
0
0
0
0
0
0
0
0
0
0
0
0
0
0
0
0
0
0
0
0
0
0
0
0
0
0
0
0
0
0
0
0
0
1 194
1 195
1 196
1 197
1 198
1 199
0
0
0
0
0
0
0
0
0
0
0
0
0
0
0
0
0
0
0
0
0
0
0
0
0
0
0
0
0
0
0
0
0
0
0
0
0
0
0
0
0
0
0
0
1 200
1 201
1 202
1 203
1 204
0
0
0
0
0
0
0
0
0
0
0
0
0
0
0
0
0
0
0
0
0
0
0
0
0
0
0
0
0
0
0
0
0
0
0
0
0
0
0
0
0
0
0
0
0
0
1 205
1 206
1 207
0
0
0
0
0
0
0
0
0
0
0
0
0
0
0
0
0
0
0
0
0
0
0
0
0
0
0
0
0
0
0
0
0
0
0
0
0
0
0
0
0
0
0
0
0
0
0
1 208
0
0
0
0
0
0
0
0
0
0
0
0
0
0
0
0
0
0
0
0
0
0
0
0
0
0
0
0
0
0
0
0
0
0
0
0
0
0
0
0
0
0
0
0
0
0
0
0
0
0
0
0
0
0
0
0
0
0
0
0
0
0
0
0
0
0
0
0
0
0
0
0
0
0
0
0
0
0
0
0
0
0
0
0
0
0
0
0
0
0
0
0
0
0
0
0
0
0
0
0
0
0
0
0
0
0
0
0
0
0
0
0
0
0
0
0
0
0
0
0
0
0
0
0
0
0
0
0
0
0
0
0
0
0
0
0
0
0
0
0
0
0
0
0
0
0
0
0
0
0
0
0
0
0
0
0
0
0
0
0
0
0
0
0
0
0
0
0
0
0
0
0
0
0
0
0
0
0
0
0
0
0
0
0
0
0
0
0
0
0
0
0
0
0
0
0
0
0
0
0
0
0
0
0
0
0
0
0
0
0
0
0
0
0
0
0
0
0
0
0
0
0
0
0
0
0
0
0
0
0
0
0
0
0
0
0
0
0
0
0
0
0
0
0
0
0
0
0
0
0
0
0
0
0
0
0
0
0
0
0
0
0
0
0
0
0
0
0
0
0
0
0
0
0
0
0
0
0
0
0
0
0
0
0
0
0
0
0
0
0
0
0
0
0
0
0
0
0
0
0
0
0
0
0
0
0
0
0
0
0
0
0
0
0
0
0
0
0
0
0
0
0
0
0
0
0
0
0
0
0
0
0
0
0
0
0
0
0
0
0
0
0
0
0
0
0
0
0
0
0
0
0
0
0
0
0
0
0
0
0
0
0
0
0
0
0
0
0
0
0
0
0
0
0
0
0
0
0
0
0
0
0
0
0
0
0
0
0
0
0
0
0
0
0
0
0
0
0
0
0
0
0
0
0
0
0
0
0
0
0
0
0
0
0
0
0
0
0
0
0
0
0
0
0
0
0
0
0
0
0
0
0
0
0
0
0
0
0
0
0
0
0
0
0
0
0
0
0
0
0
0
0
0
0
0
0
0
0
0
0
0
0
0
0
0
0
0
0
0
0
0
0
0
0
0
0
0
0
0
0
0
0
0
0
0
0
0
0
0
0
0
0
0
0
0
0
0
0
0
0
0
0
0
0
0
0
0
0
0
0
0
0
0
0
0
0
0
0
0
0
0
0
0
0
0
0
0
0
0
0
0
0
0
0
0
0
0
0
0
0
0
0
0
0
0
0
0
0
0
0
0
0
0
0
0
0
0
0
0
0
0
0
0
0
0
0
0
0
0
0
0
0
0
0
0
0
0
0
0
0
0
0
0
0
0
0
0
0
0
0
0
0
0
0
0
0
0
0
0
0
0
0
0
0
0
0
0
0
0
0
0
0
0
0
0
0
0
0
0
0
0
0
0
0
0
0
0
0
0
0
0
0
0
0
0
0
0
0
0
0
0
0
0
0
0
0
0
0
0
0
0
0
0
0
0
0
0
0
0
0
0
0
0
0
0
0
0
0
0
0
0
0
0
0
0
0
0
0
0
0
0
0
0
0
0
0
0
0
0
0
0
0
0
0
0
0
0
0
0
0
0
0
0
0
0
0
0
0
0
0
0
0
0
0
0
0
0
0
0
0
0
0
0
0
0
0
0
0
0
0
0
0
0
0
0
0
0
0
0
0
0
0
0
0
0
0
0
0
0
0
0
0
0
0
0
0
0
0
0
0
0
0
0
0
0
0
0
0
0
0
0
0
0
0
0
0
0
0
0
0
0
0
0
0
0
0
0
0
0
0
0
0
0
0
0
0
0
0
0
0
0
0
0
0
0
0
0
0
0
0
0
0
0
0
0
0
0
0
0
0
0
0
0
0
