ply
format ascii 1.0
obj_info num_cols 50
obj_info num_rows 50
element vertex 357
property float x
property float y
property float z
element range_grid 2500
property list uchar int vertex_indices
end_header
7.5293241 -8.3052500 37.4602180
6.1302989 -7.8822325 37.4982721
4.7152215 -7.3539000 37.5100087
8.7908931 -9.4182583 36.2356137
7.3973761 -9.6945005 36.4637671
6.0053870 -8.8933797 36.3872900
4.6052479 -8.8707368 36.5316907
3.2060452 -8.8918912 36.6883679
1.8058589 -8.8841680 36.8369902
0.4062010 -8.8880507 36.9888353
-0.9925417 -8.9014803 37.1432799
-2.3999172 -8.8291332 37.2744135
-3.8162087 -8.7033496 37.3914061
-5.2460511 -8.5095349 37.4906324
-6.6981261 -8.2130422 37.5632361
10.0901435 -9.3494484 34.6651455
8.6595508 -10.4136740 35.1375957
7.2683625 -10.9386492 35.4444668
5.8725902 -8.8825978 34.9796257
4.4600052 -8.8735173 35.1290191
3.0467416 -8.8567431 35.2761838
1.6343561 -8.8656950 35.4309507
0.2215681 -8.8660781 35.5831974
-1.1891966 -8.8892128 35.7420331
-2.6036432 -8.8715524 35.8890600
-4.0165387 -8.8715828 36.0412127
-5.4262626 -8.8946001 36.1999012
-8.1556603 -9.4473681 36.6591888
9.9822003 -9.6433224 33.3330024
8.5367516 -11.0681248 33.9389554
7.1415581 -12.0605286 34.4028302
5.7516591 -10.2955461 33.9946120
4.3385071 -9.8637554 34.0102771
2.8961612 -9.0917871 33.9215658
1.4643409 -8.9247097 34.0229084
0.0347257 -8.8597809 34.1562995
-1.3893757 -8.8777592 34.3153013
-2.8146298 -8.8803650 34.4695685
-4.2435667 -8.8536877 34.6149767
-5.6670559 -8.8716508 34.7739078
-6.7966089 -10.7236537 35.4808760
-8.2399248 -10.4502771 35.5498583
-9.8800616 -9.2061202 35.3331974
9.8816468 -9.7186475 31.9110689
8.4269516 -11.1187338 32.5342432
7.0184516 -12.6750038 33.2044948
5.6488134 -13.0822961 33.4876548
4.2890021 -13.3558966 33.7252030
2.9329755 -13.5112289 33.9229296
1.5499358 -13.1482651 33.9508365
0.1591012 -12.8419202 33.9984512
-1.2585590 -12.3635132 33.9916119
-2.6896951 -11.9088255 33.9941279
-4.1339044 -11.4717294 34.0039136
-5.5862801 -11.0797360 34.0296092
-6.8488683 -11.9336796 34.4500977
-8.3825350 -11.1202753 34.3441039
-10.1365699 -9.3253358 33.9347236
9.7800609 -9.7782122 30.4594571
8.3128081 -11.2891806 31.1473579
6.8971298 -12.6966181 31.7933930
5.5150424 -13.0437277 32.0638830
4.1460845 -13.4375593 32.3493487
2.7876449 -13.7724462 32.6130065
1.4435049 -14.1540242 32.8915032
0.1116249 -14.5278686 33.1659678
-1.2790638 -14.1736458 33.1913778
-2.6813991 -13.8231816 33.2193596
-4.1010306 -13.4322481 33.2350072
-5.5318687 -13.0555406 33.2568510
-6.9813894 -12.6436609 33.2683680
-8.6829805 -10.9307601 32.8506539
-10.5138926 -8.8621154 32.3220729
9.6782935 -9.7958455 28.9669078
8.1981332 -11.4042421 29.7190240
6.7735587 -12.7444317 30.3662974
5.3801621 -13.1054981 30.6493078
3.9982407 -13.4407789 30.9215788
2.6302214 -13.8265037 31.2109479
1.2729535 -14.1760897 31.4858394
-0.0775700 -14.4637563 31.7371814
-1.4836087 -14.1020819 31.7551470
-2.9013538 -13.7467031 31.7766927
-4.3355174 -13.3602775 31.7885609
-5.7824511 -12.9773183 31.8030808
-7.2740768 -12.4079777 31.7537083
-9.0294438 -10.5273121 31.2493533
9.5715244 -9.9028346 27.4817133
8.0839685 -11.3904182 28.2170878
6.6478328 -12.7614418 28.9018487
5.2423755 -13.1334553 29.1969186
3.8485919 -13.4724089 29.4779460
2.4702510 -13.8853253 29.7859192
1.1021668 -14.2405181 30.0704630
-0.2680343 -14.4286380 30.2906152
-1.6896751 -14.0552295 30.2991162
-3.1282612 -13.6487998 30.2966684
-4.5732879 -13.2981105 30.3164722
-6.0360803 -12.9114146 30.3242607
-7.5855635 -12.0993621 30.1768577
-9.3811956 -10.1369724 29.6110127
9.4596493 -10.1104877 26.0126411
7.9612064 -11.7637794 26.8438530
6.5197776 -12.7816660 27.4114108
5.1019955 -13.1577930 27.7163277
3.6971149 -13.5294936 28.0180631
2.3051619 -13.9015873 28.3185675
0.9257168 -14.2678383 28.6153588
-0.4639542 -14.3738984 28.8077974
-1.9020208 -13.9873531 28.8057935
-3.3549563 -13.5901172 28.8010559
-4.8190506 -13.2125783 28.8055013
-6.2967043 -12.8330212 28.8105871
-7.9122495 -11.7433480 28.5427006
-9.7418592 -9.7414175 27.9281085
9.3506607 -10.1844122 24.4643858
7.8430769 -11.7523047 25.2915180
6.3893384 -12.8038836 25.8938623
4.9587824 -13.1711734 26.2034673
3.5407791 -13.5299737 26.5081217
2.1380370 -13.9372688 26.8317046
0.7462113 -14.2984257 27.1345439
-0.6660444 -14.2944126 27.2846901
-2.1172496 -13.9324256 27.2871868
-3.5873295 -13.5223133 27.2713003
-5.0667527 -13.1482488 27.2717082
-6.5677772 -12.7223122 27.2524369
-8.2498091 -11.3678505 26.8587865
-10.1136374 -9.3308581 26.1951825
9.2379030 -10.3188081 22.9154105
7.7198426 -11.9453322 23.7997859
6.2563620 -12.8056738 24.3385748
4.8130620 -13.1945829 24.6661648
3.3832684 -13.5769505 24.9894025
1.9669330 -13.9579909 25.3106050
0.5649223 -14.3501383 25.6351925
-0.8707598 -14.2314643 25.7369052
-2.3428865 -13.8227750 25.7139451
-3.8219926 -13.4733446 25.7180102
-5.3220273 -13.0663460 25.6987998
-6.8416379 -12.6287249 25.6681160
-8.5966042 -10.9841176 25.1275640
-10.4975436 -8.9021984 24.4088030
9.1267408 -10.3413997 21.2881137
7.5949245 -12.1302807 22.2809969
6.1210810 -12.8566641 22.7757110
4.6644831 -13.2142956 23.0978388
3.2226296 -13.6190536 23.4402017
1.7959675 -14.0358903 23.7865243
0.3778612 -14.3709734 24.0940754
-1.0785191 -14.1806389 24.1624703
-2.5672156 -13.7665723 24.1307500
-4.0690521 -13.3661965 24.1067807
-5.5819653 -12.9883844 24.0944488
-7.1281970 -12.4930733 24.0312955
-8.9565858 -10.5725186 23.3385753
9.0082760 -10.5443850 19.7170951
7.4691780 -12.2180581 20.6908478
5.9830324 -12.8723261 21.1665396
4.5132260 -13.2413402 21.5026984
3.0584545 -13.6496209 21.8562076
1.6175294 -14.0434716 22.2012593
0.1858109 -14.3747348 22.5150921
-1.2904218 -14.1310511 22.5560092
-2.7974316 -13.6993913 22.5094409
-4.3137397 -13.3155375 22.4869619
-5.8469653 -12.9125290 22.4570490
-7.4439021 -12.2224479 22.2953258
-9.3221059 -10.1763284 21.5088590
8.8918735 -10.6103059 18.0516340
7.3412920 -12.2975018 19.0675218
5.8422669 -12.8859877 19.5247877
4.3590590 -13.2688982 19.8768690
2.8916730 -13.6924704 20.2477197
1.4353611 -14.0479351 20.5830959
-0.0094954 -14.3852569 20.9081085
-1.5121524 -14.0274938 20.8894287
-3.0325833 -13.6311467 20.8532352
-4.5662705 -13.2445086 20.8233532
-6.1180381 -12.8331964 20.7829926
-7.7882293 -11.8287042 20.4567500
-9.7043246 -9.7380185 19.6101395
8.7707725 -10.7753989 16.4069754
7.2108416 -12.4111805 17.4319771
5.6988381 -12.9108849 17.8563012
4.2025296 -13.3184079 18.2306183
2.7223899 -13.7501375 18.6158881
1.2541353 -14.1214579 18.9682151
-0.2133988 -14.3404740 19.2406270
-1.7342430 -13.9669048 19.2081313
-3.2721058 -13.5677337 19.1640430
-4.8253006 -13.1650843 19.1197778
-6.3953996 -12.7502913 19.0709624
-8.1346612 -11.4695441 18.5863817
-10.0887006 -9.3354095 17.6775219
10.2860764 -9.1356259 13.5737554
8.6532182 -10.7184864 14.6124044
7.0784285 -12.4728199 15.7383448
5.5526056 -12.9379507 16.1558619
4.0424190 -13.3499423 16.5427166
2.5480972 -13.7726819 16.9337302
1.0666675 -14.1542451 17.3009009
-0.4186844 -14.3289694 17.5556772
-1.9627939 -13.8899304 17.4819989
-3.5211457 -13.4688329 17.4196356
-5.0899338 -13.0851790 17.3788156
-6.6805708 -12.6557365 17.3153670
-8.4966287 -11.0701641 16.6455366
-10.4890257 -8.8988718 15.6751717
10.1791538 -9.1241407 11.7306205
8.5248986 -11.0146313 12.9802661
6.9435756 -12.5180102 14.0025556
5.4035906 -12.9737730 14.4263145
3.8776649 -13.3378466 14.7965681
2.3706714 -13.8022756 15.2217002
0.8749768 -14.1802353 15.5965836
-0.6341766 -14.2514631 15.7989667
-2.1946388 -13.8281988 15.7264352
-3.7700174 -13.4138615 15.6605674
-5.3618829 -12.9943188 15.5935172
-6.9745152 -12.5455286 15.5121101
-8.8711959 -10.6501746 14.6408592
10.0657064 -9.2175009 9.9111103
8.3984178 -11.1497567 11.2285207
6.8060201 -12.5868112 12.2461199
5.2515201 -13.0043352 12.6589407
3.7128626 -13.4215985 13.0699078
2.1880316 -13.8019782 13.4576592
0.6792136 -14.2037265 13.8562826
-0.8541856 -14.1763435 14.0046980
-2.4343858 -13.7407432 13.9176122
-4.0254294 -13.3498319 13.8580210
-5.6413504 -12.8930498 13.7622880
-7.2985563 -12.2956944 13.5881590
-9.2582568 -10.2127893 12.5711986
9.9511520 -9.2868232 8.0416743
8.2730724 -11.1199407 9.3431673
6.6658640 -12.6030851 10.4229504
5.0967678 -13.0566142 10.8687457
3.5420468 -13.4297923 11.2638415
2.0043198 -13.8500873 11.6859394
0.4795516 -14.2288468 12.0812365
-1.0790980 -14.1009217 12.1701883
-2.6779409 -13.6665554 12.0759774
-4.2877309 -13.2760255 12.0097590
-5.9209164 -12.8316441 11.9131052
-7.6416543 -11.9798759 11.5766127
-9.6552455 -9.7738961 10.4430570
9.8378204 -9.2666117 6.0776978
8.1419967 -11.2500695 7.5187485
6.5228280 -12.6551177 8.5843825
4.9378067 -13.0542705 9.0077755
3.3705770 -13.5116452 9.4662216
1.8170102 -13.9003202 9.8795893
0.2791389 -14.2969957 10.2963527
-1.3061847 -14.0545588 10.3124738
-2.9259140 -13.6008910 10.1981880
-4.5614677 -13.1612982 10.0945347
-6.2104386 -12.7458968 10.0076780
-8.0087384 -11.5755170 9.4575495
-10.0674326 -9.3082200 8.2389862
9.7117570 -9.5254184 4.2557946
8.0071923 -11.4616440 5.7133421
6.3768430 -12.6808935 6.6908860
4.7765867 -13.1034720 7.1406873
3.1932181 -13.5338910 7.5938399
1.6247619 -13.9326481 8.0245478
0.0699410 -14.3070090 8.4377317
-1.5440079 -13.9517564 8.3768890
-3.1819503 -13.5143798 8.2645497
-4.8343963 -13.0969471 8.1668963
-6.5092680 -12.6426651 8.0473864
-8.3861503 -11.1654414 7.2760472
-10.4807536 -8.8893851 6.0021132
7.8737069 -11.4471302 3.7212741
6.2278726 -12.7248647 4.7696733
4.6108631 -13.1039233 5.2016878
3.0116550 -13.5461018 5.6748697
1.4268972 -13.9405180 6.1139077
-0.1444742 -14.3084102 6.5334096
-1.7837167 -13.8838708 6.4193973
-3.4401977 -13.4572621 6.3058206
-5.1137136 -13.0308681 6.1942164
-6.8140961 -12.5445748 6.0446142
-8.7712140 -10.7662149 5.0407698
6.0753414 -12.6966913 2.7569475
4.4423135 -13.1345308 3.2415061
2.8255477 -13.5451201 3.7050556
1.2294737 -14.0194574 4.2114592
-0.3685574 -14.2524719 4.5474507
-2.0290841 -13.8144343 4.4156868
-3.7105099 -13.3513229 4.2684345
-5.4037011 -12.9354678 4.1558544
-7.1367757 -12.3818108 3.9501185
-9.2300378 -10.0262408 2.5089776
5.9187443 -12.5976132 0.6468746
4.2681644 -13.0958869 1.1885105
2.6347830 -13.5331941 1.6836669
1.0191915 -13.9717215 2.1778110
-0.6054712 -14.1110181 2.4538431
-2.2884769 -13.6691702 2.3106368
-3.9882412 -13.2373396 2.1765600
-5.7098085 -12.7780034 2.0246805
-7.5761988 -11.5817319 1.3487637
-9.7844672 -8.8539727 -0.4118169
5.7585273 -12.5230907 -1.4952530
4.0878424 -12.9879942 -0.9640069
2.4351150 -13.4319038 -0.4505941
0.8064914 -13.9582389 0.1227032
-0.8521958 -13.9264925 0.2762798
-2.5611947 -13.4621674 0.1074162
-4.2898240 -12.9945665 -0.0618276
-6.0303690 -12.5750307 -0.1933695
-8.0946478 -10.4028198 -1.6185005
5.5925672 -12.2982258 -3.8061458
3.9035333 -12.8951763 -3.1572373
2.2280389 -13.2839871 -2.6729844
0.5948978 -14.0247496 -1.9172941
-1.0994459 -13.8022154 -1.9103902
-2.8455716 -13.2146386 -2.1841792
-4.5902714 -12.8165258 -2.3095585
-6.4373772 -11.8751989 -2.8499185
-8.6809648 -8.9344801 -4.9155911
3.7110942 -12.7015315 -5.4853353
2.0239972 -13.2839997 -4.8323955
0.3778181 -14.0796830 -4.0109194
-1.3578584 -13.6268183 -4.1924264
-3.1353835 -12.9839634 -4.5235348
-4.9143542 -12.5240290 -4.7061416
-7.0026971 -10.2695773 -6.3109754
3.5174285 -12.6134329 -7.7861896
1.8201191 -13.3669673 -6.9727653
0.1615159 -14.2043453 -6.0931804
-1.6146095 -13.5333809 -6.4657458
-3.4351161 -12.7343526 -6.9409426
-5.3506980 -11.5121553 -7.7607886
-9.1054642 0.5177351 -17.4459588
3.3034357 -12.1392687 -10.4770467
1.6082103 -13.3918061 -9.2102548
-0.0683357 -14.2210757 -8.3122751
-1.8872966 -13.3485722 -8.8738618
-3.7614724 -12.3370414 -9.5500276
-5.9882737 -9.2335868 -12.0013911
3.0489884 -10.8755959 -13.9524212
1.3248415 -12.3809718 -12.4201208
-0.3826877 -13.3181710 -11.3983597
-2.2910949 -12.0144550 -12.3617034
-4.3555780 -9.9457176 -13.9933830
1.0199906 -11.2109703 -15.8905479
-0.7756575 -11.6574466 -15.2856718
-2.7785592 -10.0622427 -16.5470471
-5.9130707 -0.4979280 -25.0583119
0.7000391 -9.9981561 -19.5297211
-1.2008823 -9.8227781 -19.4941347
-3.8260801 -3.3893436 -25.3584698
-2.0505371 -3.7233941 -28.0377331
-0.3716233 -2.3822926 -32.4604494
0
0
0
0
0
0
0
0
0
0
0
0
0
0
0
0
0
0
0
0
0
0
0
0
0
0
0
0
0
0
0
0
0
0
0
0
0
0
0
0
0
0
0
0
0
0
0
0
0
0
0
0
0
0
0
0
0
0
0
0
0
0
0
0
0
0
0
0
0
0
0
0
0
0
0
0
0
0
0
0
0
0
0
0
0
0
0
0
0
0
0
0
0
0
0
0
0
0
0
0
0
0
0
0
0
0
0
0
0
0
0
0
0
0
0
0
0
0
0
0
0
0
0
0
0
0
0
0
0
0
0
0
0
0
0
0
0
0
0
0
0
0
0
0
0
0
0
0
0
0
0
0
0
0
0
0
0
0
0
0
0
0
0
0
0
0
0
0
0
0
0
0
0
0
0
0
0
0
0
0
0
0
0
0
0
0
0
0
0
0
0
0
0
0
0
0
0
0
0
0
0
0
0
0
0
0
0
0
0
0
0
0
0
0
0
0
0
0
0
0
0
0
0
0
0
0
0
0
0
0
0
0
0
0
0
0
0
0
0
0
0
0
0
0
0
0
0
0
0
0
0
0
0
0
0
0
0
0
0
0
0
0
0
0
0
0
0
0
0
0
0
0
1 0
1 1
1 2
0
0
0
0
0
0
0
0
0
0
0
0
0
0
0
0
0
0
0
0
0
0
0
0
0
0
0
0
0
0
0
0
0
0
0
0
0
0
0
0
0
0
0
0
0
0
1 3
1 4
1 5
1 6
1 7
1 8
1 9
1 10
1 11
1 12
1 13
1 14
0
0
0
0
0
0
0
0
0
0
0
0
0
0
0
0
0
0
0
0
0
0
0
0
0
0
0
0
0
0
0
0
0
0
0
0
0
1 15
1 16
1 17
1 18
1 19
1 20
1 21
1 22
1 23
1 24
1 25
1 26
0
1 27
0
0
0
0
0
0
0
0
0
0
0
0
0
0
0
0
0
0
0
0
0
0
0
0
0
0
0
0
0
0
0
0
0
0
0
0
1 28
1 29
1 30
1 31
1 32
1 33
1 34
1 35
1 36
1 37
1 38
1 39
1 40
1 41
1 42
0
0
0
0
0
0
0
0
0
0
0
0
0
0
0
0
0
0
0
0
0
0
0
0
0
0
0
0
0
0
0
0
0
0
0
1 43
1 44
1 45
1 46
1 47
1 48
1 49
1 50
1 51
1 52
1 53
1 54
1 55
1 56
1 57
0
0
0
0
0
0
0
0
0
0
0
0
0
0
0
0
0
0
0
0
0
0
0
0
0
0
0
0
0
0
0
0
0
0
0
1 58
1 59
1 60
1 61
1 62
1 63
1 64
1 65
1 66
1 67
1 68
1 69
1 70
1 71
1 72
0
0
0
0
0
0
0
0
0
0
0
0
0
0
0
0
0
0
0
0
0
0
0
0
0
0
0
0
0
0
0
0
0
0
0
1 73
1 74
1 75
1 76
1 77
1 78
1 79
1 80
1 81
1 82
1 83
1 84
1 85
1 86
0
0
0
0
0
0
0
0
0
0
0
0
0
0
0
0
0
0
0
0
0
0
0
0
0
0
0
0
0
0
0
0
0
0
0
0
1 87
1 88
1 89
1 90
1 91
1 92
1 93
1 94
1 95
1 96
1 97
1 98
1 99
1 100
0
0
0
0
0
0
0
0
0
0
0
0
0
0
0
0
0
0
0
0
0
0
0
0
0
0
0
0
0
0
0
0
0
0
0
0
1 101
1 102
1 103
1 104
1 105
1 106
1 107
1 108
1 109
1 110
1 111
1 112
1 113
1 114
0
0
0
0
0
0
0
0
0
0
0
0
0
0
0
0
0
0
0
0
0
0
0
0
0
0
0
0
0
0
0
0
0
0
0
0
1 115
1 116
1 117
1 118
1 119
1 120
1 121
1 122
1 123
1 124
1 125
1 126
1 127
1 128
0
0
0
0
0
0
0
0
0
0
0
0
0
0
0
0
0
0
0
0
0
0
0
0
0
0
0
0
0
0
0
0
0
0
0
0
1 129
1 130
1 131
1 132
1 133
1 134
1 135
1 136
1 137
1 138
1 139
1 140
1 141
1 142
0
0
0
0
0
0
0
0
0
0
0
0
0
0
0
0
0
0
0
0
0
0
0
0
0
0
0
0
0
0
0
0
0
0
0
0
1 143
1 144
1 145
1 146
1 147
1 148
1 149
1 150
1 151
1 152
1 153
1 154
1 155
0
0
0
0
0
0
0
0
0
0
0
0
0
0
0
0
0
0
0
0
0
0
0
0
0
0
0
0
0
0
0
0
0
0
0
0
0
1 156
1 157
1 158
1 159
1 160
1 161
1 162
1 163
1 164
1 165
1 166
1 167
1 168
0
0
0
0
0
0
0
0
0
0
0
0
0
0
0
0
0
0
0
0
0
0
0
0
0
0
0
0
0
0
0
0
0
0
0
0
0
1 169
1 170
1 171
1 172
1 173
1 174
1 175
1 176
1 177
1 178
1 179
1 180
1 181
0
0
0
0
0
0
0
0
0
0
0
0
0
0
0
0
0
0
0
0
0
0
0
0
0
0
0
0
0
0
0
0
0
0
0
0
0
1 182
1 183
1 184
1 185
1 186
1 187
1 188
1 189
1 190
1 191
1 192
1 193
1 194
0
0
0
0
0
0
0
0
0
0
0
0
0
0
0
0
0
0
0
0
0
0
0
0
0
0
0
0
0
0
0
0
0
0
0
0
1 195
1 196
1 197
1 198
1 199
1 200
1 201
1 202
1 203
1 204
1 205
1 206
1 207
1 208
0
0
0
0
0
0
0
0
0
0
0
0
0
0
0
0
0
0
0
0
0
0
0
0
0
0
0
0
0
0
0
0
0
0
0
0
1 209
1 210
1 211
1 212
1 213
1 214
1 215
1 216
1 217
1 218
1 219
1 220
1 221
0
0
0
0
0
0
0
0
0
0
0
0
0
0
0
0
0
0
0
0
0
0
0
0
0
0
0
0
0
0
0
0
0
0
0
0
0
1 222
1 223
1 224
1 225
1 226
1 227
1 228
1 229
1 230
1 231
1 232
1 233
1 234
0
0
0
0
0
0
0
0
0
0
0
0
0
0
0
0
0
0
0
0
0
0
0
0
0
0
0
0
0
0
0
0
0
0
0
0
0
1 235
1 236
1 237
1 238
1 239
1 240
1 241
1 242
1 243
1 244
1 245
1 246
1 247
0
0
0
0
0
0
0
0
0
0
0
0
0
0
0
0
0
0
0
0
0
0
0
0
0
0
0
0
0
0
0
0
0
0
0
0
0
1 248
1 249
1 250
1 251
1 252
1 253
1 254
1 255
1 256
1 257
1 258
1 259
1 260
0
0
0
0
0
0
0
0
0
0
0
0
0
0
0
0
0
0
0
0
0
0
0
0
0
0
0
0
0
0
0
0
0
0
0
0
0
1 261
1 262
1 263
1 264
1 265
1 266
1 267
1 268
1 269
1 270
1 271
1 272
1 273
0
0
0
0
0
0
0
0
0
0
0
0
0
0
0
0
0
0
0
0
0
0
0
0
0
0
0
0
0
0
0
0
0
0
0
0
0
0
1 274
1 275
1 276
1 277
1 278
1 279
1 280
1 281
1 282
1 283
1 284
0
0
0
0
0
0
0
0
0
0
0
0
0
0
0
0
0
0
0
0
0
0
0
0
0
0
0
0
0
0
0
0
0
0
0
0
0
0
0
0
1 285
1 286
1 287
1 288
1 289
1 290
1 291
1 292
1 293
1 294
0
0
0
0
0
0
0
0
0
0
0
0
0
0
0
0
0
0
0
0
0
0
0
0
0
0
0
0
0
0
0
0
0
0
0
0
0
0
0
0
1 295
1 296
1 297
1 298
1 299
1 300
1 301
1 302
1 303
1 304
0
0
0
0
0
0
0
0
0
0
0
0
0
0
0
0
0
0
0
0
0
0
0
0
0
0
0
0
0
0
0
0
0
0
0
0
0
0
0
0
1 305
1 306
1 307
1 308
1 309
1 310
1 311
1 312
1 313
0
0
0
0
0
0
0
0
0
0
0
0
0
0
0
0
0
0
0
0
0
0
0
0
0
0
0
0
0
0
0
0
0
0
0
0
0
0
0
0
0
1 314
1 315
1 316
1 317
1 318
1 319
1 320
1 321
1 322
0
0
0
0
0
0
0
0
0
0
0
0
0
0
0
0
0
0
0
0
0
0
0
0
0
0
0
0
0
0
0
0
0
0
0
0
0
0
0
0
0
0
1 323
1 324
1 325
1 326
1 327
1 328
1 329
0
0
0
0
0
0
0
0
0
0
0
0
0
0
0
0
0
0
0
0
0
0
0
0
0
0
0
0
0
0
0
0
0
0
0
0
0
0
0
0
0
0
0
1 330
1 331
1 332
1 333
1 334
1 335
1 336
0
0
0
0
0
0
0
0
0
0
0
0
0
0
0
0
0
0
0
0
0
0
0
0
0
0
0
0
0
0
0
0
0
0
0
0
0
0
0
0
0
0
0
1 337
1 338
1 339
1 340
1 341
1 342
0
0
0
0
0
0
0
0
0
0
0
0
0
0
0
0
0
0
0
0
0
0
0
0
0
0
0
0
0
0
0
0
0
0
0
0
0
0
0
0
0
0
0
0
1 343
1 344
1 345
1 346
1 347
0
0
0
0
0
0
0
0
0
0
0
0
0
0
0
0
0
0
0
0
0
0
0
0
0
0
0
0
0
0
0
0
0
0
0
0
0
0
0
0
0
0
0
0
0
0
1 348
1 349
1 350
1 351
0
0
0
0
0
0
0
0
0
0
0
0
0
0
0
0
0
0
0
0
0
0
0
0
0
0
0
0
0
0
0
0
0
0
0
0
0
0
0
0
0
0
0
0
0
0
1 352
1 353
1 354
0
0
0
0
0
0
0
0
0
0
0
0
0
0
0
0
0
0
0
0
0
0
0
0
0
0
0
0
0
0
0
0
0
0
0
0
0
0
0
0
0
0
0
0
0
0
0
0
1 355
0
0
0
0
0
0
0
0
0
0
0
0
0
0
0
0
0
0
0
0
0
0
0
0
0
0
0
0
0
0
0
0
0
0
0
0
0
0
0
0
0
0
0
0
0
0
0
0
1 356
0
0
0
0
0
0
0
0
0
0
0
0
0
0
0
0
0
0
0
0
0
0
0
0
0
0
0
0
0
0
0
0
0
0
0
0
0
0
0
0
0
0
0
0
0
0
0
0
0
0
0
0
0
0
0
0
0
0
0
0
0
0
0
0
0
0
0
0
0
0
0
0
0
0
0
0
0
0
0
0
0
0
0
0
0
0
0
0
0
0
0
0
0
0
0
0
0
0
0
0
0
0
0
0
0
0
0
0
0
0
0
0
0
0
0
0
0
0
0
0
0
0
0
0
0
0
0
0
0
0
0
0
0
0
0
0
0
0
0
0
0
0
0
0
0
0
0
0
0
0
0
0
0
0
0
0
0
0
0
0
0
0
0
0
0
0
0
0
0
0
0
0
0
0
0
0
0
0
0
0
0
0
0
0
0
0
0
0
0
0
0
0
0
0
0
0
0
0
0
0
0
0
0
0
0
0
0
0
0
0
0
0
0
0
0
0
0
0
0
0
0
0
0
0
0
0
0
0
0
0
0
0
0
0
0
0
0
0
0
0
0
0
0
0
0
0
0
0
0
0
0
0
0
0
0
0
0
0
0
0
0
0
0
0
0
0
0
0
0
0
0
0
0
0
0
0
0
0
0
0
0
0
0
0
0
0
0
0
0
0
0
0
0
0
0
0
0
0
0
0
0
0
0
0
0
0
0
0
0
0
0
0
0
0
0
0
0
0
0
0
0
0
0
0
0
0
0
0
0
0
0
0
0
0
0
0
0
0
0
0
0
0
0
0
0
0
0
0
0
0
0
0
0
0
0
0
0
0
0
0
0
0
0
0
0
0
0
0
0
0
0
0
0
0
0
0
0
0
0
0
0
0
0
0
0
0
0
0
0
0
0
0
0
0
0
0
0
0
0
0
0
0
0
0
0
0
0
0
0
0
0
0
0
0
0
0
0
0
0
0
0
0
0
0
0
0
0
0
0
0
0
0
0
0
0
0
0
0
0
0
0
0
0
0
0
0
0
0
0
0
0
0
0
0
0
0
0
0
0
0
0
0
0
0
0
0
0
0
0
0
0
0
0
0
0
0
0
0
0
0
0
0
0
0
0
0
0
0
0
0
0
0
0
0
0
0
0
0
0
0
0
0
0
0
0
0
0
0
0
0
0
0
0
0
0
0
0
0
0
0
0
0
0
0
0
0
0
0
0
0
0
0
0
0
0
0
0
0
0
0
0
0
0
0
0
0
0
0
0
0
0
0
0
0
0
0
0
0
0
0
0
0
0
0
0
0
0
0
0
0
0
0
0
0
0
0
