ply
format ascii 1.0
obj_info num_cols 50
obj_info num_rows 50
element vertex 242
property float x
property float y
property float z
element range_grid 2500
property list uchar int vertex_indices
end_header
-0.5957520 0.3972317 -36.7119139
-3.0603304 0.5844541 -32.8704316
-2.0985508 0.1578283 -33.9262753
-1.1246186 -0.2251657 -34.9241080
-0.0567282 -0.4654481 -35.7567087
-4.5845176 0.4455114 -29.8035291
-3.6326675 -0.0509219 -30.9815915
-2.6685901 -0.4965893 -32.0887556
-1.6809675 -0.8817687 -33.1155047
-0.6845869 -1.2309097 -34.0919588
1.1119496 -0.5796956 -33.9243529
-6.0883063 0.4356509 -26.4267862
-5.1330445 -0.1248066 -27.7325342
-4.1801777 -0.6474254 -28.9782396
-3.1994100 -1.0952746 -30.1200746
-2.2147396 -1.5072701 -31.2078112
-1.2442818 -1.9098088 -32.2743783
-0.2216609 -2.2226607 -33.2248158
2.4618976 -0.5477974 -31.8300551
-7.5885031 0.5550719 -22.7016110
-6.6614734 -0.1322620 -24.2305876
-5.7105715 -0.7308243 -25.6271467
-4.7324157 -1.2458354 -26.9012436
-3.7627425 -1.7347253 -28.1293512
-2.7927438 -2.1887199 -29.3013032
-1.8080293 -2.5931708 -30.3999835
-0.8169798 -2.9631583 -31.4459273
0.7494287 -2.6284002 -31.6154247
4.2331127 -0.1133155 -29.1355652
-8.1564105 0.0440460 -20.2851423
-7.2232230 -0.6734457 -21.9077019
-6.2733966 -1.3084545 -23.3999094
-5.3131579 -1.8793100 -24.7895856
-4.3339659 -2.3815717 -26.0731789
-3.3560892 -2.8491421 -27.2981787
-2.3701316 -3.2737498 -28.4550169
-1.3765833 -3.6603035 -29.5516774
-0.3891753 -4.0287311 -30.6152510
2.1108051 -2.6411373 -29.4288174
-8.6967344 -0.4089959 -17.6770739
-7.7922395 -1.2153247 -19.4850573
-6.8368290 -1.8792499 -21.0693074
-5.9015912 -2.5183794 -22.6014264
-4.8990346 -3.0164801 -23.9196368
-3.9374644 -3.5311404 -25.2479558
-2.9547644 -3.9820571 -26.4753723
-1.9568965 -4.3830752 -27.6231793
-0.9535799 -4.7506403 -28.7154731
0.3365689 -4.7663104 -29.3279456
3.7912198 -2.3829379 -26.7640684
-10.0970826 0.1695613 -12.7034181
-9.2720644 -0.9028174 -15.0065094
-8.3449059 -1.7204519 -16.8978571
-7.4221421 -2.4739622 -18.6718918
-6.4703050 -3.1237060 -20.2725185
-5.4944274 -3.6888433 -21.7319086
-4.4507329 -4.1215133 -22.9838674
-3.5263891 -4.6731082 -24.3955057
-2.5366241 -5.1054760 -25.6224353
-1.5444541 -5.5051202 -26.7916086
-0.5298995 -5.8524881 -27.8769343
1.6799304 -4.8571431 -27.0902872
6.5557484 -1.0689013 -22.4914811
-10.5842318 -0.0951781 -9.4462457
-9.7926540 -1.2903475 -12.0375076
-8.9118823 -2.2348174 -14.2012046
-8.0122920 -3.0668566 -16.1635272
-7.0213854 -3.6973172 -17.7909656
-6.0988499 -4.3695016 -19.4652408
-5.1060520 -4.8961122 -20.8996346
-4.1169343 -5.3872328 -22.2660908
-3.1398368 -5.8569175 -23.5870607
-2.1208736 -6.2439528 -24.7727351
-1.0970578 -6.5988501 -25.9006082
0.0171310 -6.8306026 -26.8396162
3.2538374 -4.7839997 -24.4890584
-10.2775443 -1.5983661 -8.7789154
-9.4883159 -2.7498226 -11.3717948
-8.5412580 -3.5580477 -13.3705517
-7.6590287 -4.3876090 -15.3812190
-6.6794799 -5.0130727 -17.0401775
-5.7287338 -5.6254530 -18.6606534
-4.6880207 -6.0757602 -20.0076083
-3.7100376 -6.5684656 -21.4082904
-2.7098068 -6.9990516 -22.6985729
-1.6899421 -7.3769654 -23.8955956
-0.6645599 -7.7230086 -25.0332954
1.2449828 -7.1072130 -24.7070470
5.4245351 -4.1946018 -20.9571442
-10.0156118 -3.1712403 -8.2342748
-9.1697220 -4.1872009 -10.6691030
-8.2335016 -4.9798178 -12.6944414
-7.2855887 -5.6866890 -14.5521052
-6.2910845 -6.2724513 -16.1866333
-5.3141611 -6.8330592 -17.7624076
-4.3110829 -7.3180892 -19.1976050
-3.3035065 -7.7613884 -20.5506557
-2.2828507 -8.1577189 -21.8148980
-1.2428404 -8.5050832 -22.9891585
-0.1400481 -8.7624625 -24.0104480
2.7390902 -7.1849942 -22.1384424
-9.6901916 -4.6405246 -7.5151768
-8.8216196 -5.5830003 -9.8901330
-7.8864652 -6.3476973 -11.9220969
-6.9191423 -7.0032089 -13.7394321
-5.9288030 -7.5747127 -15.3908403
-4.9205556 -8.0784543 -16.9081096
-3.8895686 -8.5165389 -18.2978620
-2.8357160 -8.8960729 -19.5750787
-1.7384632 -9.2009114 -20.7152123
-0.6342345 -9.4770632 -21.7982831
1.0996373 -9.0936478 -21.7831829
4.7064215 -6.8889936 -18.7969406
-9.3748413 -6.1257192 -6.8237041
-8.4868435 -7.0019894 -9.1458934
-7.5528375 -7.7382654 -11.1827844
-6.5336084 -8.3026852 -12.8825555
-5.4930980 -8.7943138 -14.4327784
-4.4262133 -9.2157958 -15.8415625
-3.3394223 -9.5823948 -17.1393515
-2.2096475 -9.8750717 -18.2950176
-1.0732537 -10.1397200 -19.3923809
0.2714689 -10.1750924 -20.0831530
2.6266402 -9.2187086 -19.0650301
-9.9041389 -6.6219509 -3.4901282
-9.0596107 -7.6110259 -6.1325529
-8.1089427 -8.3665640 -8.2905855
-7.0907268 -8.9686681 -10.1293736
-5.9974521 -9.4276996 -11.6759886
-4.9493283 -9.9016016 -13.2359157
-3.8282470 -10.2559936 -14.5564729
-2.7219146 -10.5991617 -15.8446854
-1.5263930 -10.8240304 -16.9037025
-0.3132449 -11.0149571 -17.8933234
1.6388163 -10.4744051 -17.5513547
4.4757155 -9.1366494 -15.7944681
-9.6119763 -8.1835689 -2.8705139
-8.6457065 -8.9645836 -5.1728182
-7.5852922 -9.5533919 -7.0602915
-6.5012699 -10.0611684 -8.7655243
-5.4323406 -10.5432834 -10.4027258
-4.3568987 -10.9786675 -11.9315828
-3.2151574 -11.3084104 -13.2390931
-2.0083736 -11.5456253 -14.3559207
-0.7879305 -11.7516196 -15.4046195
0.7929259 -11.5951716 -15.7546881
3.1935558 -10.6843653 -14.6825224
7.4828972 -8.1280042 -10.5538287
-10.1479170 -8.7238024 0.6622135
-9.0945622 -9.4397870 -1.6028378
-8.0297213 -10.0722305 -3.6651242
-6.9432628 -10.6202123 -5.5269919
-5.8735071 -11.1393713 -7.3094427
-4.8380411 -11.6529531 -9.0623090
-3.7376206 -12.0553282 -10.5679981
-2.5086660 -12.2938096 -11.7244217
-1.2715199 -12.5059705 -12.8190555
0.0349136 -12.6361678 -13.7413131
2.2259735 -11.9394452 -13.0094511
5.2929410 -10.5059429 -10.8439325
-9.4424866 -9.7729169 2.5274805
-8.4012798 -10.4956966 0.1665181
-7.3615822 -11.1514523 -2.0190784
-6.3206621 -11.7460865 -4.0459442
-5.2497448 -12.2555266 -5.8645332
-4.0897133 -12.6273164 -7.3652373
-2.9225456 -12.9617425 -8.7718375
-1.7487150 -13.2635518 -10.0964881
-0.4904960 -13.4625978 -11.1920078
1.4081472 -13.0608452 -11.0153387
3.7818094 -12.2659870 -10.0319343
-9.5203555 -9.7338349 7.8503212
-8.7162619 -10.8439551 4.4489928
-7.7056002 -11.5935115 1.9376745
-6.6455644 -12.2151617 -0.2469481
-5.4958786 -12.6814266 -2.0483089
-4.2027737 -12.9551888 -3.3897101
-2.8431817 -13.1382902 -4.5140044
-1.7407272 -13.5576080 -6.1654505
-0.7641633 -14.0630237 -7.9942698
0.6149446 -14.1663945 -8.9097474
3.6719378 -12.7950082 -6.5673736
7.7638502 -10.6417137 -2.5644160
-9.6041410 -9.6905496 13.6253527
-8.7052854 -10.7715242 10.1129138
-7.8672125 -11.8153746 6.7348585
-6.8953156 -12.6025896 4.0310343
-5.5819623 -12.9398043 2.4603399
-4.2334557 -13.2094533 1.0671903
-2.8863104 -13.4569766 -0.2618997
-1.5570114 -13.7010461 -1.5728817
-0.5343892 -14.2109952 -3.5051163
1.6221290 -13.6659250 -2.9340297
3.8629785 -13.0866917 -2.3037760
6.2064812 -12.4615566 -1.5891250
-9.7247153 -9.6833551 19.8035786
-8.7420312 -10.7550202 16.1207259
-7.7804736 -11.7376251 12.7160491
-6.7811105 -12.5767549 9.7264206
-5.4619968 -12.9836173 7.8924470
-4.1418113 -13.3513359 6.1759670
-2.7896504 -13.6541077 4.6405207
-1.5422243 -14.0313263 2.9289202
-0.1925875 -14.2833815 1.5475065
1.8729175 -13.8811966 1.8083570
4.1908555 -13.2929077 2.5138857
6.5592060 -12.7046106 3.1962185
-9.7261260 -9.4981183 27.0422024
-8.7635341 -10.7131644 22.7406491
-7.8229993 -11.8192707 18.7951186
-6.7467989 -12.6523760 15.6536584
-5.3555397 -13.0574154 13.7257542
-3.9432169 -13.4012188 11.9825315
-2.5646450 -13.7465760 10.2499515
-1.2474099 -14.1195249 8.4580845
0.1698583 -14.3696535 7.0099627
2.4699946 -13.8268805 7.6715786
4.9781032 -13.1499628 8.6630778
-8.7700298 -10.6453012 30.0642318
-7.7089156 -11.7137840 25.9939498
-6.6403864 -12.6556739 22.3443444
-5.2268006 -13.1239679 20.1217883
-3.7049112 -13.4332656 18.3818098
-2.2898159 -13.8177130 16.4394542
-0.9298994 -14.2187013 14.4672013
0.7703066 -14.2782511 13.4814548
3.2914334 -13.6237289 14.5083298
5.9770685 -12.8837261 15.7455023
-7.7033814 -11.7431680 33.4859690
-6.6029467 -12.7499925 29.4087765
-5.0344147 -13.1412252 27.2956547
-3.4982567 -13.5244147 25.2260344
-2.0009294 -13.9070624 23.1763316
-0.5174636 -14.2660703 21.2168084
1.4560243 -14.1571497 20.6880264
4.2057196 -13.3966052 22.1081710
7.0644941 -12.6082056 23.5764488
-3.1729014 -13.5245339 33.0711187
-1.6543782 -13.9769003 30.6665519
-0.1495339 -14.3971134 28.3891025
2.2461112 -13.9979538 28.7751550
5.2004303 -13.1654468 30.5291927
0
0
0
0
0
0
0
0
0
0
0
0
0
0
0
0
0
0
0
0
0
0
0
0
0
0
0
0
0
0
0
0
0
0
0
0
0
0
0
0
0
0
0
0
0
0
0
0
0
0
0
0
0
0
0
0
0
0
0
0
0
0
0
0
0
0
0
0
0
0
0
0
0
0
0
0
0
0
0
0
0
0
0
0
0
0
0
0
0
0
0
0
0
0
0
0
0
0
0
0
0
0
0
0
0
0
0
0
0
0
0
0
0
0
0
0
0
0
0
0
0
0
0
0
0
0
0
0
0
0
0
0
0
0
0
0
0
0
0
0
0
0
0
0
0
0
0
0
0
0
0
0
0
0
0
0
0
0
0
0
0
0
0
0
0
0
0
0
0
0
0
0
0
0
0
0
0
0
0
0
0
0
0
0
0
0
0
0
0
0
0
0
0
0
0
0
0
0
0
0
0
0
0
0
0
0
0
0
0
0
0
0
0
0
0
0
0
0
0
0
0
0
0
0
0
0
0
0
0
0
0
0
0
0
0
0
0
0
0
0
0
0
0
0
0
0
0
0
0
0
0
0
0
0
0
0
0
0
0
0
0
0
0
0
0
0
0
0
0
0
0
0
0
0
0
0
0
0
0
0
0
0
0
0
0
0
0
0
0
0
0
0
0
0
0
0
0
0
0
0
0
0
0
0
0
0
0
0
0
0
0
0
0
0
0
0
0
0
0
0
0
0
0
0
0
0
0
0
0
0
0
0
0
0
0
0
0
0
0
0
0
0
0
0
0
0
0
0
0
0
0
0
0
0
0
0
0
0
0
0
0
0
0
0
0
0
0
0
0
0
0
0
0
0
0
0
0
0
0
0
0
0
0
0
0
0
0
0
0
0
0
0
0
0
0
0
0
0
0
0
0
0
0
0
0
0
0
0
0
0
0
0
0
0
0
0
0
0
0
0
0
0
0
0
0
0
0
0
0
0
0
0
0
0
0
0
0
0
0
0
0
0
0
0
0
0
0
0
0
0
0
0
0
0
0
0
0
0
0
0
0
0
0
0
0
0
0
0
0
0
0
0
0
0
0
0
0
0
0
0
0
0
0
0
0
0
0
0
0
0
0
0
0
0
0
0
0
0
0
0
0
0
0
0
0
0
0
0
0
0
0
0
0
0
0
0
0
0
0
0
0
0
0
0
0
0
0
0
0
0
0
0
0
0
0
0
0
0
0
0
0
0
0
0
0
0
0
0
0
0
0
0
0
0
0
0
0
0
0
0
0
0
0
0
0
0
0
0
0
0
0
0
0
0
0
0
0
0
0
0
0
0
0
0
0
0
0
0
0
0
0
0
0
0
0
0
0
0
0
0
0
0
0
0
0
0
0
0
0
0
0
0
0
0
0
0
0
0
0
0
0
0
0
0
0
0
0
0
0
0
0
0
0
0
0
0
0
0
0
0
0
0
0
0
0
0
0
0
0
0
0
0
0
0
0
0
0
0
0
0
0
0
0
0
0
0
0
0
0
0
0
0
0
0
0
0
0
0
0
0
0
0
0
0
0
1 0
0
0
0
0
0
0
0
0
0
0
0
0
0
0
0
0
0
0
0
0
0
0
0
0
0
0
0
0
0
0
0
0
0
0
0
0
0
0
0
0
0
0
0
0
0
0
1 1
1 2
1 3
1 4
0
0
0
0
0
0
0
0
0
0
0
0
0
0
0
0
0
0
0
0
0
0
0
0
0
0
0
0
0
0
0
0
0
0
0
0
0
0
0
0
0
0
0
0
1 5
1 6
1 7
1 8
1 9
1 10
0
0
0
0
0
0
0
0
0
0
0
0
0
0
0
0
0
0
0
0
0
0
0
0
0
0
0
0
0
0
0
0
0
0
0
0
0
0
0
0
0
0
1 11
1 12
1 13
1 14
1 15
1 16
1 17
1 18
0
0
0
0
0
0
0
0
0
0
0
0
0
0
0
0
0
0
0
0
0
0
0
0
0
0
0
0
0
0
0
0
0
0
0
0
0
0
0
0
1 19
1 20
1 21
1 22
1 23
1 24
1 25
1 26
1 27
1 28
0
0
0
0
0
0
0
0
0
0
0
0
0
0
0
0
0
0
0
0
0
0
0
0
0
0
0
0
0
0
0
0
0
0
0
0
0
0
0
1 29
1 30
1 31
1 32
1 33
1 34
1 35
1 36
1 37
1 38
0
0
0
0
0
0
0
0
0
0
0
0
0
0
0
0
0
0
0
0
0
0
0
0
0
0
0
0
0
0
0
0
0
0
0
0
0
0
0
1 39
1 40
1 41
1 42
1 43
1 44
1 45
1 46
1 47
1 48
1 49
0
0
0
0
0
0
0
0
0
0
0
0
0
0
0
0
0
0
0
0
0
0
0
0
0
0
0
0
0
0
0
0
0
0
0
0
0
1 50
1 51
1 52
1 53
1 54
1 55
1 56
1 57
1 58
1 59
1 60
1 61
1 62
0
0
0
0
0
0
0
0
0
0
0
0
0
0
0
0
0
0
0
0
0
0
0
0
0
0
0
0
0
0
0
0
0
0
0
0
1 63
1 64
1 65
1 66
1 67
1 68
1 69
1 70
1 71
1 72
1 73
1 74
1 75
0
0
0
0
0
0
0
0
0
0
0
0
0
0
0
0
0
0
0
0
0
0
0
0
0
0
0
0
0
0
0
0
0
0
0
0
0
1 76
1 77
1 78
1 79
1 80
1 81
1 82
1 83
1 84
1 85
1 86
1 87
1 88
0
0
0
0
0
0
0
0
0
0
0
0
0
0
0
0
0
0
0
0
0
0
0
0
0
0
0
0
0
0
0
0
0
0
0
0
0
1 89
1 90
1 91
1 92
1 93
1 94
1 95
1 96
1 97
1 98
1 99
1 100
0
0
0
0
0
0
0
0
0
0
0
0
0
0
0
0
0
0
0
0
0
0
0
0
0
0
0
0
0
0
0
0
0
0
0
0
0
0
1 101
1 102
1 103
1 104
1 105
1 106
1 107
1 108
1 109
1 110
1 111
1 112
0
0
0
0
0
0
0
0
0
0
0
0
0
0
0
0
0
0
0
0
0
0
0
0
0
0
0
0
0
0
0
0
0
0
0
0
0
0
1 113
1 114
1 115
1 116
1 117
1 118
1 119
1 120
1 121
1 122
1 123
0
0
0
0
0
0
0
0
0
0
0
0
0
0
0
0
0
0
0
0
0
0
0
0
0
0
0
0
0
0
0
0
0
0
0
0
0
0
1 124
1 125
1 126
1 127
1 128
1 129
1 130
1 131
1 132
1 133
1 134
1 135
0
0
0
0
0
0
0
0
0
0
0
0
0
0
0
0
0
0
0
0
0
0
0
0
0
0
0
0
0
0
0
0
0
0
0
0
0
0
1 136
1 137
1 138
1 139
1 140
1 141
1 142
1 143
1 144
1 145
1 146
1 147
0
0
0
0
0
0
0
0
0
0
0
0
0
0
0
0
0
0
0
0
0
0
0
0
0
0
0
0
0
0
0
0
0
0
0
0
0
1 148
1 149
1 150
1 151
1 152
1 153
1 154
1 155
1 156
1 157
1 158
1 159
0
0
0
0
0
0
0
0
0
0
0
0
0
0
0
0
0
0
0
0
0
0
0
0
0
0
0
0
0
0
0
0
0
0
0
0
0
0
1 160
1 161
1 162
1 163
1 164
1 165
1 166
1 167
1 168
1 169
1 170
0
0
0
0
0
0
0
0
0
0
0
0
0
0
0
0
0
0
0
0
0
0
0
0
0
0
0
0
0
0
0
0
0
0
0
0
0
0
1 171
1 172
1 173
1 174
1 175
1 176
1 177
1 178
1 179
1 180
1 181
1 182
0
0
0
0
0
0
0
0
0
0
0
0
0
0
0
0
0
0
0
0
0
0
0
0
0
0
0
0
0
0
0
0
0
0
0
0
0
1 183
1 184
1 185
1 186
1 187
1 188
1 189
1 190
1 191
1 192
1 193
1 194
0
0
0
0
0
0
0
0
0
0
0
0
0
0
0
0
0
0
0
0
0
0
0
0
0
0
0
0
0
0
0
0
0
0
0
0
0
1 195
1 196
1 197
1 198
1 199
1 200
1 201
1 202
1 203
1 204
1 205
1 206
0
0
0
0
0
0
0
0
0
0
0
0
0
0
0
0
0
0
0
0
0
0
0
0
0
0
0
0
0
0
0
0
0
0
0
0
0
1 207
1 208
1 209
1 210
1 211
1 212
1 213
1 214
1 215
1 216
1 217
0
0
0
0
0
0
0
0
0
0
0
0
0
0
0
0
0
0
0
0
0
0
0
0
0
0
0
0
0
0
0
0
0
0
0
0
0
0
0
1 218
1 219
1 220
1 221
1 222
1 223
1 224
1 225
1 226
1 227
0
0
0
0
0
0
0
0
0
0
0
0
0
0
0
0
0
0
0
0
0
0
0
0
0
0
0
0
0
0
0
0
0
0
0
0
0
0
0
0
1 228
1 229
1 230
1 231
1 232
1 233
1 234
1 235
1 236
0
0
0
0
0
0
0
0
0
0
0
0
0
0
0
0
0
0
0
0
0
0
0
0
0
0
0
0
0
0
0
0
0
0
0
0
0
0
0
0
0
0
0
1 237
1 238
1 239
1 240
1 241
0
0
0
0
0
0
0
0
0
0
0
0
0
0
0
0
0
0
0
0
0
0
0
0
0
0
0
0
0
0
0
0
0
0
0
0
0
0
0
0
0
0
0
0
0
0
0
0
0
0
0
0
0
0
0
0
0
0
0
0
0
0
0
0
0
0
0
0
0
0
0
0
0
0
0
0
0
0
0
0
0
0
0
0
0
0
0
0
0
0
0
0
0
0
0
0
0
0
0
0
0
0
0
0
0
0
0
0
0
0
0
0
0
0
0
0
0
0
0
0
0
0
0
0
0
0
0
0
0
0
0
0
0
0
0
0
0
0
0
0
0
0
0
0
0
0
0
0
0
0
0
0
0
0
0
0
0
0
0
0
0
0
0
0
0
0
0
0
0
0
0
0
0
0
0
0
0
0
0
0
0
0
0
0
0
0
0
0
0
0
0
0
0
0
0
0
0
0
0
0
0
0
0
0
0
0
0
0
0
0
0
0
0
0
0
0
0
0
0
0
0
0
0
0
0
0
0
0
0
0
0
0
0
0
0
0
0
0
0
0
0
0
0
0
0
0
0
0
0
0
0
0
0
0
0
0
0
0
0
0
0
0
0
0
0
0
0
0
0
0
0
0
0
0
0
0
0
0
0
0
0
0
0
0
0
0
0
0
0
0
0
0
0
0
0
0
0
0
0
0
0
0
0
0
0
0
0
0
0
0
0
0
0
0
0
0
0
0
0
0
0
0
0
0
0
0
0
0
0
0
0
0
0
0
0
0
0
0
0
0
0
0
0
0
0
0
0
0
0
0
0
0
0
0
0
0
0
0
0
0
0
0
0
0
0
0
0
0
0
0
0
0
0
0
0
0
0
0
0
0
0
0
0
0
0
0
0
0
0
0
0
0
0
0
0
0
0
0
0
0
0
0
0
0
0
0
0
0
0
0
0
0
0
0
0
0
0
0
0
0
0
0
0
0
0
0
0
0
0
0
0
0
0
0
0
0
0
0
0
0
0
0
0
0
0
0
0
0
0
0
0
0
0
0
0
0
0
0
0
0
0
0
0
0
0
0
0
0
0
0
0
0
0
0
0
0
0
0
0
0
0
0
0
0
0
0
0
0
0
0
0
0
0
0
0
0
0
0
0
0
0
0
0
0
0
0
0
0
0
0
0
0
0
0
0
0
0
0
0
0
0
0
0
0
0
0
0
0
0
0
0
0
0
0
0
0
0
0
0
0
0
0
0
0
0
0
0
0
0
0
0
0
0
0
0
0
0
0
0
0
0
0
0
0
0
0
0
0
0
0
0
0
0
0
0
0
0
0
0
0
0
0
0
0
0
0
0
0
0
0
0
0
0
0
0
0
0
0
0
0
0
0
0
0
0
0
0
0
0
0
0
0
0
0
0
0
0
0
0
0
0
0
0
0
0
0
0
0
0
0
0
0
0
0
0
0
0
0
0
0
0
0
0
0
0
0
0
0
0
0
0
0
0
0
0
0
0
0
0
0
0
0
0
0
0
0
0
0
0
0
0
0
0
0
0
0
0
0
