ply
format ascii 1.0
obj_info num_cols 50
obj_info num_rows 50
element vertex 299
property float x
property float y
property float z
element range_grid 2500
property list uchar int vertex_indices
end_header
-0.5492715 13.9322152 21.0451158
2.2109310 12.6682106 21.1569875
-0.1799558 11.7462990 13.1175754
-2.9059029 9.7214310 18.2393578
-1.6435081 9.7617668 19.7485037
-1.1186869 10.4055000 9.0501635
0.4890297 10.6651445 10.1244409
1.9099557 10.8308381 11.3369367
3.1335411 10.8926745 12.7144266
3.6804792 10.5780342 14.7416470
4.0811485 10.1710620 16.9544734
4.2750734 9.6327141 19.4332270
-1.2100635 9.5330551 4.3879807
0.1183613 9.6559749 5.6769942
1.6584569 9.8995658 6.7733661
2.8966289 9.9807097 8.1064176
3.6338723 9.7790613 9.8844128
4.1745053 9.4580063 11.8701713
4.6986397 9.1178229 13.9092294
4.8423255 8.5410445 16.3721266
4.8330186 7.8542478 19.0640356
1.4391509 5.0692494 25.5005165
4.0982631 5.9694658 25.5048893
6.5143353 6.7447396 25.6768557
-3.2207936 7.0201435 3.6075899
2.3977748 8.9440929 3.8659979
3.7144426 9.0825784 5.1025724
4.6472964 8.9996402 6.6603042
4.5201528 8.2825746 9.1901154
4.8128097 7.7983134 11.4039714
4.8382546 7.1355692 13.9330042
4.8226191 6.4271317 16.5792117
7.1914719 6.4866728 19.5178063
7.2357061 5.7733783 22.2622342
7.2276254 5.0023486 25.1541718
-3.9894054 5.8018555 -0.4684139
-1.9061917 6.3565337 0.3149052
-0.1575873 6.7322440 1.2962974
1.4764831 7.0510585 2.3297633
2.6836335 7.1241199 3.6786963
3.9103823 7.2112146 5.0032308
4.8033888 7.0959458 6.6113098
4.4249135 6.1850084 9.3886774
7.2452282 6.5774368 11.7411634
7.2055373 5.8376514 14.3542013
7.2703356 5.1440477 16.9403617
2.8005795 0.5468186 27.5382457
4.1170588 0.6022752 29.0966392
-2.6634408 5.1733254 -3.6531022
-0.8419517 5.6037349 -2.7061213
0.7512889 5.9095446 -1.6337526
2.1571335 6.1103405 -0.4490614
3.4635675 6.2557651 0.7940519
4.5626630 6.2762068 2.1918113
5.1604237 5.9804311 4.0118979
7.0132268 6.4809840 4.7584645
7.1785001 5.8981598 6.9921186
7.1853780 5.1932327 9.4358584
7.1765635 4.4563238 11.9690869
7.2255430 3.7360025 14.5222390
7.3105784 2.2173638 19.8806464
4.4415840 -0.6587977 25.9809323
5.4544309 -0.8110000 27.8597132
7.0063032 -0.5701935 29.1013116
-10.0897290 0.7460936 -5.6636805
-2.5065853 3.9027158 -5.9882945
-0.2752787 4.5983968 -5.3113842
1.5018364 5.0338773 -4.3793522
2.9315182 5.2649403 -3.2343486
4.1721956 5.3831219 -1.9679293
5.0262343 5.2570215 -0.4088542
5.7056357 5.0139018 1.3045452
6.9010542 5.1039941 2.6035468
7.1805204 4.5840520 4.6996435
7.1842412 3.8613926 7.0988788
7.1880921 3.1169482 9.5704641
7.1991178 2.3546458 12.1108033
6.9203676 1.3625375 15.0252788
7.0006480 0.5982555 17.6647243
6.2652838 -0.7892686 21.2790700
10.7013757 0.7769321 22.0181860
10.7854276 -0.0459215 24.8567271
3.6739207 -6.5431945 36.8796111
-9.6572756 0.8982125 -12.4872988
-9.6782487 0.2265512 -10.3784958
-2.4808291 2.5697464 -8.2124449
-0.3031433 3.2546027 -7.4803636
1.5139133 3.7303190 -6.5649704
3.0526205 4.0409733 -5.4965133
4.3017950 4.1724423 -4.2450085
5.3247397 4.1588229 -2.8343165
6.1389301 4.0055733 -1.2584421
6.9285985 3.8313697 0.3513171
7.1373890 3.2530895 2.4701590
7.2027703 2.5576912 4.7699084
7.3261813 1.8824341 7.0831481
7.4441829 1.1826623 9.4671491
7.5274695 0.4358467 11.9544123
7.6832693 -0.2807502 14.4424653
10.3620534 0.8801319 14.3299229
10.7288778 0.3091245 16.6368695
10.7457383 -0.5531076 19.4025304
10.7673346 -1.4406027 22.2548938
4.7331087 -7.2333001 32.6179950
6.0471925 -7.2096718 34.2993501
7.3241370 -7.2160415 36.0264980
-8.5344478 0.8276904 -17.2496150
-8.6887317 0.0862238 -15.1887117
-8.7752172 -0.6326647 -13.1061974
-3.4805725 1.2800047 -11.8755130
-1.7018527 1.7258218 -10.8605009
0.0023177 2.1358570 -9.8357527
1.5512984 2.4564116 -8.7448913
3.0075538 2.7248598 -7.6186802
4.3032376 2.8938668 -6.4030948
5.3029852 2.8678622 -4.9868954
6.1507353 2.7371149 -3.4536483
6.8938386 2.5299967 -1.8267968
7.2450130 2.0407033 0.1388452
7.3513024 1.3618672 2.3566356
7.4650330 0.6681185 4.6299731
7.6236557 -0.0136202 6.9266097
10.7029952 0.6585409 8.9884868
10.7196754 -0.1653842 11.5301065
10.6951585 -1.0483042 14.1970339
10.6912717 -1.9438080 16.9300216
10.6564370 -2.8943646 19.7899664
10.7855012 -3.7420287 22.5544331
7.8544745 -7.1875504 29.1709658
8.9737901 -7.2948918 30.9957339
10.7776893 -6.8106972 31.9270643
-7.2100327 0.9202545 -21.8563502
-7.4433419 0.1415044 -19.8778501
-7.5597354 -0.5845266 -17.8980557
-6.5987977 -0.6576429 -16.3979083
-2.4347311 0.6231806 -14.5964112
-0.6722351 1.0819037 -13.5885955
0.8590052 1.4011565 -12.4798260
2.2096123 1.6089856 -11.2848963
3.4793272 1.7680373 -10.0546790
4.5800892 1.8161831 -8.7242040
5.5147273 1.7507524 -7.2818333
6.3119933 1.5871222 -5.7343435
7.0598259 1.3836918 -4.1358994
7.4363413 0.9062191 -2.2279985
7.5580677 0.2280136 -0.0704265
10.5277595 0.8690217 2.0156624
10.6660864 0.1718974 4.2510804
10.6585074 -0.6605783 6.6894779
10.7037199 -1.4776417 9.1531439
10.5146397 -2.5093496 11.9348094
10.7403449 -3.2358608 14.3735158
10.6262766 -4.2687773 17.2590519
10.7869833 -5.1044683 19.9319606
10.7934668 -6.1014214 22.8729363
10.7961676 -7.1365574 25.9211596
10.8419089 -8.1702375 29.0226603
-5.9250674 1.0319744 -26.1998623
-5.8919776 0.4271521 -24.4430527
-6.1904464 -0.3988233 -22.5035513
-5.4807404 -0.6094377 -20.9578787
-4.5248612 -0.6680912 -19.5131943
-3.3864040 -0.6101360 -18.1544656
-1.7825511 -0.2459467 -17.0403108
0.1408962 0.3396851 -16.1256707
1.6087517 0.6346653 -14.9974646
2.9323231 0.8393338 -13.8065396
4.0377308 0.8990673 -12.4970538
5.0125385 0.8691683 -11.1084686
5.8753708 0.7591213 -9.6427259
6.6136047 0.5564768 -8.0814604
7.1572691 0.2062581 -6.3626011
7.5905388 -0.2356556 -4.5317747
10.2240922 0.9610539 -4.3975394
10.6668962 0.5246472 -2.5695530
10.6525245 -0.2783384 -0.3151317
10.6698378 -1.0809548 1.9806270
10.6833863 -1.9114439 4.3502708
10.4612892 -2.9589113 7.0190812
10.7020187 -3.6590614 9.3235547
10.6307612 -4.6428478 12.0138195
10.7199587 -5.5227359 14.6245264
10.7227921 -6.5068297 17.4147677
10.7509477 -7.5022808 20.2710386
10.8062247 -8.5080683 23.1928550
-4.2413558 0.8192257 -28.7814933
-4.5889441 -0.0247657 -26.9442795
-4.4544276 -0.5816276 -25.2452939
-3.5319968 -0.6433426 -23.8428261
-2.5199632 -0.6479503 -22.4762568
-1.4976056 -0.6457725 -21.1143848
-0.4532248 -0.6287078 -19.7636566
0.5735423 -0.6230927 -18.4052613
1.9280507 -0.3918315 -17.2239014
3.3150156 -0.1317623 -16.0777010
4.4245570 -0.0605843 -14.7874055
5.2649131 -0.1800976 -13.3370825
6.0030087 -0.3770397 -11.8123626
6.7686953 -0.5591023 -10.2913168
10.5740052 0.7826188 -8.8601574
10.6461947 0.0771239 -6.8391156
10.6283798 -0.7192885 -4.6904848
10.6414864 -1.5150497 -2.5022605
10.6447743 -2.3428437 -0.2397930
10.4779841 -3.3348418 2.2430452
10.6973680 -4.0380357 4.4547419
10.6969252 -4.9485525 6.9378704
10.7126871 -5.8746287 9.4851225
10.7348432 -6.8255560 12.1087186
10.7484133 -7.8158172 14.8281233
10.4349341 -9.1336589 18.0035473
-2.7705162 0.5308753 -31.1971444
-3.0774924 -0.2927104 -29.4421056
-2.5549587 -0.5946255 -27.9489104
-1.5736575 -0.6007265 -26.6197270
-0.6444792 -0.6417777 -25.2683820
0.3564116 -0.6352225 -23.9462670
1.3420019 -0.6389282 -22.6176428
2.3397067 -0.6342466 -21.2948643
3.2862849 -0.6653503 -19.9463947
4.3011346 -0.6485320 -18.6325898
5.3034761 -0.6402312 -17.3131240
9.3689037 0.9067761 -15.9411640
9.7875954 0.4980325 -14.3059941
9.9750003 -0.0986481 -12.4860968
10.1677562 -0.7081549 -10.6253094
10.3558514 -1.3389041 -8.7148964
10.4640191 -2.0517996 -6.6954152
10.6195755 -2.7475605 -4.6575803
10.6612694 -3.5577745 -2.4711287
10.7056612 -4.3905624 -0.2217034
10.6712696 -5.3159527 2.1658181
10.6934666 -6.2219347 4.5780251
10.6996530 -7.1710024 7.0821120
10.7604993 -8.1025055 9.6131523
8.7225029 -10.9599021 14.4002156
-1.0943541 1.0391301 -35.1408922
-1.2632460 0.3194104 -33.5411213
-1.5130759 -0.4707150 -31.8710701
-0.6930663 -0.5655942 -30.5328682
0.1836361 -0.6244126 -29.2102688
1.1294983 -0.6373126 -27.9115930
5.5264884 1.0927917 -26.4156296
6.3408344 1.0081172 -25.1108956
7.0509818 0.8463641 -23.7500856
7.5726938 0.5431168 -22.2825302
7.8337695 0.0394287 -20.6553254
8.1513815 -0.4354287 -19.0255911
8.4631007 -0.9276302 -17.3597444
8.7180073 -1.4770514 -15.6247786
8.9460437 -2.0627459 -13.8337566
9.2727843 -2.5869433 -12.0666364
9.4826925 -3.2199019 -10.1799754
9.7165791 -3.8517692 -8.2639899
9.9717844 -4.4846912 -6.3167959
10.2087240 -5.1519045 -4.3070571
10.4422710 -5.8423168 -2.2430065
10.6621537 -6.5658856 -0.1131316
10.6918962 -7.4791503 2.2434871
10.6582299 -8.4781474 4.7327288
0.8200774 0.5452494 -35.9700440
1.5603702 0.4243849 -34.6830941
2.1948032 0.2284742 -33.3540859
2.7377755 -0.0352638 -31.9814218
3.4040535 -0.2192223 -30.6390521
3.7745890 -0.6169303 -29.1691658
4.3036375 -0.9109934 -27.7408833
4.7185257 -1.2952911 -26.2444623
5.2438292 -1.6082740 -24.7748638
5.7353394 -1.9545066 -23.2690840
6.1245730 -2.3869593 -21.6890876
6.5069042 -2.8361917 -20.0772427
6.8608205 -3.3195509 -18.4198685
7.3208897 -3.7327567 -16.7921787
7.6998733 -4.2219755 -15.0869000
8.0138074 -4.7774777 -13.3063905
8.3575650 -5.3243967 -11.5069756
8.7220967 -5.8698766 -9.6832758
9.0684051 -6.4467382 -7.8071255
9.3441606 -7.1011797 -5.8354499
9.5943509 -7.7976439 -3.7950956
9.8180741 -8.5388690 -1.6805646
8.8303593 -10.3889043 1.5274371
0.5379094 -4.0882100 -29.8017577
1.4175965 -4.1580251 -28.4588628
2.0112956 -4.4413883 -26.9938296
2.7694555 -4.6085568 -25.5834041
3.3434590 -4.9199486 -24.0784535
3.8534051 -5.2887768 -22.5234312
4.3947085 -5.6428906 -20.9612248
4.9351985 -6.0071317 -19.3761565
5.5303880 -6.3374178 -17.7981560
5.9862006 -6.7900544 -16.1174056
6.4037315 -7.2868885 -14.3833829
6.8577925 -7.7672782 -12.6393420
7.3109870 -8.2622175 -10.8620514
7.4661622 -9.0280048 -8.8432179
6.9541247 -10.3991063 -6.2861345
6.3416936 -11.9005509 -3.5552053
0
0
0
0
0
0
0
0
0
0
0
0
0
0
0
0
0
0
0
0
0
0
0
0
0
0
0
0
0
0
0
0
0
0
0
0
0
0
0
0
0
0
0
0
0
0
0
0
0
0
0
0
0
0
0
0
0
0
0
0
0
0
0
0
0
0
0
0
0
0
0
0
0
0
0
0
0
0
0
0
0
0
0
0
0
0
0
0
0
0
0
0
0
0
0
0
0
0
0
0
0
0
0
0
0
0
0
0
0
0
0
0
0
0
0
0
0
0
0
0
0
0
0
0
0
0
0
0
0
0
0
0
0
0
0
0
0
0
0
0
0
0
0
0
0
0
0
0
0
0
0
0
0
0
0
0
0
0
0
0
0
0
0
0
0
0
0
0
0
0
0
0
0
0
0
0
0
0
0
0
0
0
0
0
0
0
0
0
0
0
0
0
0
0
0
0
0
0
0
0
0
0
0
0
0
0
0
0
0
0
0
0
0
0
0
0
0
0
0
0
0
0
0
0
0
0
0
0
0
0
0
0
0
0
0
0
0
0
0
0
0
0
0
0
0
0
0
0
0
0
0
0
0
0
0
0
0
0
0
0
0
0
0
0
0
0
0
0
0
0
0
0
0
0
0
0
0
0
0
0
0
0
0
0
0
0
0
0
0
0
0
0
0
0
0
0
0
0
0
0
0
0
0
0
0
0
0
0
0
0
0
0
0
0
0
0
0
0
0
0
0
0
0
0
0
0
0
0
0
0
0
0
0
0
0
0
0
0
0
0
0
0
0
0
0
0
0
0
0
0
0
0
0
0
0
0
0
0
0
0
0
0
0
0
0
0
0
0
0
0
0
0
0
0
0
0
0
0
0
0
0
0
0
0
0
0
0
0
0
0
0
0
0
0
0
0
0
0
0
0
0
0
0
0
0
0
0
0
0
0
0
0
0
0
0
0
0
0
0
0
0
0
0
0
0
0
0
0
0
0
0
0
0
0
0
0
0
0
0
0
0
0
0
0
0
0
0
0
0
0
0
0
0
0
0
0
0
0
0
0
0
0
0
0
0
0
0
0
0
0
0
0
0
0
0
0
0
0
0
0
0
0
0
0
0
0
0
0
0
0
0
0
0
0
0
0
0
0
0
0
0
0
0
0
0
0
0
0
0
0
0
0
0
0
0
0
0
0
0
0
0
0
0
0
0
0
0
0
0
0
0
0
0
0
0
0
0
0
0
0
0
0
0
0
0
0
0
0
0
0
0
0
0
0
0
0
0
0
0
0
0
0
0
0
0
0
0
0
0
0
0
0
0
0
0
0
0
0
0
0
0
0
0
0
0
0
0
0
0
0
0
0
0
0
0
0
0
0
0
0
0
0
0
0
0
0
0
0
0
0
0
0
0
0
0
0
0
0
0
0
0
0
0
0
0
0
0
0
0
0
0
0
0
0
0
0
0
0
0
0
0
0
0
0
0
0
0
0
0
0
0
0
0
0
0
0
0
0
0
0
0
0
0
0
0
0
0
0
0
0
0
0
0
0
0
0
0
0
0
0
0
0
0
0
0
0
0
0
0
0
0
0
0
0
0
0
0
0
0
0
0
0
0
0
0
0
0
0
0
0
0
0
0
0
0
0
0
0
0
0
0
0
0
0
0
0
0
0
0
0
0
0
0
0
0
0
0
0
0
0
0
0
0
0
0
0
0
0
0
0
0
0
0
0
0
0
0
0
0
0
0
0
0
0
0
0
0
0
0
0
0
0
0
0
0
0
0
0
0
0
0
0
0
1 0
0
0
0
0
0
0
0
0
0
0
0
0
0
0
0
0
0
0
0
0
0
0
0
0
0
0
0
0
0
0
0
0
0
0
0
0
0
0
0
0
0
0
0
0
0
0
0
0
0
0
1 1
0
0
0
0
0
0
0
0
0
0
0
0
0
0
0
0
0
0
0
0
0
0
0
0
0
0
0
0
0
0
0
0
0
0
0
0
0
0
0
0
0
0
0
0
0
1 2
1 3
1 4
0
0
0
0
0
0
0
0
0
0
0
0
0
0
0
0
0
0
0
0
0
0
0
0
0
0
0
0
0
0
0
0
0
0
0
0
0
0
0
0
0
0
0
0
0
1 5
1 6
1 7
1 8
1 9
1 10
1 11
0
0
0
0
0
0
0
0
0
0
0
0
0
0
0
0
0
0
0
0
0
0
0
0
0
0
0
0
0
0
0
0
0
0
0
0
0
0
0
0
0
1 12
1 13
1 14
1 15
1 16
1 17
1 18
1 19
1 20
1 21
1 22
1 23
0
0
0
0
0
0
0
0
0
0
0
0
0
0
0
0
0
0
0
0
0
0
0
0
0
0
0
0
0
0
0
0
0
0
0
0
0
1 24
0
1 25
1 26
1 27
1 28
1 29
1 30
1 31
0
1 32
1 33
1 34
0
0
0
0
0
0
0
0
0
0
0
0
0
0
0
0
0
0
0
0
0
0
0
0
0
0
0
0
0
0
0
0
0
0
0
1 35
1 36
1 37
1 38
1 39
1 40
1 41
1 42
0
1 43
1 44
1 45
0
1 46
1 47
0
0
0
0
0
0
0
0
0
0
0
0
0
0
0
0
0
0
0
0
0
0
0
0
0
0
0
0
0
0
0
0
0
0
1 48
1 49
1 50
1 51
1 52
1 53
1 54
1 55
1 56
1 57
1 58
1 59
0
1 60
1 61
1 62
1 63
0
0
0
0
0
0
0
0
0
0
0
0
0
0
0
0
0
0
0
0
0
0
0
0
0
0
0
0
0
0
1 64
0
1 65
1 66
1 67
1 68
1 69
1 70
1 71
1 72
1 73
1 74
1 75
1 76
1 77
1 78
1 79
0
1 80
1 81
1 82
0
0
0
0
0
0
0
0
0
0
0
0
0
0
0
0
0
0
0
0
0
0
0
0
0
0
1 83
1 84
0
0
1 85
1 86
1 87
1 88
1 89
1 90
1 91
1 92
1 93
1 94
1 95
1 96
1 97
1 98
1 99
1 100
1 101
1 102
1 103
1 104
1 105
0
0
0
0
0
0
0
0
0
0
0
0
0
0
0
0
0
0
0
0
0
0
0
1 106
1 107
1 108
0
1 109
1 110
1 111
1 112
1 113
1 114
1 115
1 116
1 117
1 118
1 119
1 120
1 121
0
1 122
1 123
1 124
1 125
1 126
1 127
1 128
1 129
1 130
0
0
0
0
0
0
0
0
0
0
0
0
0
0
0
0
0
0
0
0
0
1 131
1 132
1 133
1 134
0
1 135
1 136
1 137
1 138
1 139
1 140
1 141
1 142
1 143
1 144
1 145
0
1 146
1 147
1 148
1 149
1 150
1 151
1 152
1 153
1 154
1 155
1 156
0
0
0
0
0
0
0
0
0
0
0
0
0
0
0
0
0
0
0
0
1 157
1 158
1 159
1 160
1 161
1 162
1 163
1 164
1 165
1 166
1 167
1 168
1 169
1 170
1 171
1 172
1 173
1 174
1 175
1 176
1 177
1 178
1 179
1 180
1 181
1 182
1 183
1 184
0
0
0
0
0
0
0
0
0
0
0
0
0
0
0
0
0
0
0
0
0
1 185
1 186
1 187
1 188
1 189
1 190
1 191
1 192
1 193
1 194
1 195
1 196
1 197
1 198
0
1 199
1 200
1 201
1 202
1 203
1 204
1 205
1 206
1 207
1 208
1 209
1 210
0
0
0
0
0
0
0
0
0
0
0
0
0
0
0
0
0
0
0
0
0
0
1 211
1 212
1 213
1 214
1 215
1 216
1 217
1 218
1 219
1 220
1 221
0
1 222
1 223
1 224
1 225
1 226
1 227
1 228
1 229
1 230
1 231
1 232
1 233
1 234
1 235
0
0
0
0
0
0
0
0
0
0
0
0
0
0
0
0
0
0
0
0
0
0
1 236
1 237
1 238
1 239
1 240
1 241
0
1 242
1 243
1 244
1 245
1 246
1 247
1 248
1 249
1 250
1 251
1 252
1 253
1 254
1 255
1 256
1 257
1 258
1 259
0
0
0
0
0
0
0
0
0
0
0
0
0
0
0
0
0
0
0
0
0
0
0
0
0
1 260
1 261
1 262
1 263
1 264
1 265
1 266
1 267
1 268
1 269
1 270
1 271
1 272
1 273
1 274
1 275
1 276
1 277
1 278
1 279
1 280
1 281
1 282
0
0
0
0
0
0
0
0
0
0
0
0
0
0
0
0
0
0
0
0
0
0
0
0
0
0
0
0
0
0
0
1 283
1 284
1 285
1 286
1 287
1 288
1 289
1 290
1 291
1 292
1 293
1 294
1 295
1 296
1 297
1 298
0
0
0
0
0
0
0
0
0
0
0
0
0
0
0
0
0
0
0
0
0
0
0
0
0
0
0
0
0
0
0
0
0
0
0
0
0
0
0
0
0
0
0
0
0
0
0
0
0
0
0
0
0
0
0
0
0
0
0
0
0
0
0
0
0
0
0
0
0
0
0
0
0
0
0
0
0
0
0
0
0
0
0
0
0
0
0
0
0
0
0
0
0
0
0
0
0
0
0
0
0
0
0
0
0
0
0
0
0
0
0
0
0
0
0
0
0
0
0
0
0
0
0
0
0
0
0
0
0
0
0
0
0
0
0
0
0
0
0
0
0
0
0
0
0
0
0
0
0
0
0
0
0
0
0
0
0
0
0
0
0
0
0
0
0
0
0
0
0
0
0
0
0
0
0
0
0
0
0
0
0
0
0
0
0
0
0
0
0
0
0
0
0
0
0
0
0
0
0
0
0
0
0
0
0
0
0
0
0
0
0
0
0
0
0
0
0
0
0
0
0
0
0
0
0
0
0
0
0
0
0
0
0
0
0
0
0
0
0
0
0
0
0
0
0
0
0
0
0
0
0
0
0
0
0
0
0
0
0
0
0
0
0
0
0
0
0
0
0
0
0
0
0
0
0
0
0
0
0
0
0
0
0
0
0
0
0
0
0
0
0
0
0
0
0
0
0
0
0
0
0
0
0
0
0
0
0
0
0
0
0
0
0
0
0
0
0
0
0
0
0
0
0
0
0
0
0
0
0
0
0
0
0
0
0
0
0
0
0
0
0
0
0
0
0
0
0
0
0
0
0
0
0
0
0
0
0
0
0
0
0
0
0
0
0
0
0
0
0
0
0
0
0
0
0
0
0
0
0
0
0
0
0
0
0
0
0
0
0
0
0
0
0
0
0
0
0
0
0
0
0
0
0
0
0
0
0
0
0
0
0
0
0
0
0
0
0
0
0
0
0
0
0
0
0
0
0
0
0
0
0
0
0
0
0
0
0
0
0
0
0
0
0
0
0
0
0
0
0
0
0
0
0
0
0
0
0
0
0
0
0
0
0
0
0
0
0
0
0
0
0
0
0
0
0
0
0
0
0
0
0
0
0
0
0
0
0
0
0
0
0
0
0
0
0
0
0
0
0
0
0
0
0
0
0
0
0
0
0
0
0
0
0
0
0
0
0
0
0
0
0
0
0
0
0
0
0
0
0
0
0
0
0
0
0
0
0
0
0
0
0
0
0
0
0
0
0
0
0
0
0
0
0
0
0
0
0
0
0
0
0
0
0
0
0
0
0
0
0
0
0
0
0
0
0
0
0
0
0
0
0
0
0
0
0
0
0
0
0
0
0
0
0
0
0
0
0
0
0
0
0
0
0
0
0
0
0
0
0
0
0
0
0
0
0
0
0
0
0
0
0
0
0
0
0
0
0
0
0
0
0
0
0
0
0
0
0
0
0
0
0
0
0
0
0
0
0
0
0
0
0
0
0
0
0
0
0
0
0
0
0
0
0
0
0
0
0
0
0
0
0
0
0
0
0
0
0
0
0
0
0
0
0
0
0
0
0
0
0
0
0
0
0
0
0
0
0
0
0
0
0
0
0
0
0
0
0
0
0
0
0
0
0
0
0
0
0
0
0
0
0
0
0
0
0
0
0
0
0
0
0
0
0
0
0
0
0
0
0
0
0
0
0
0
0
0
0
0
0
0
0
0
0
0
0
0
0
0
0
0
0
0
0
0
0
0
0
0
0
0
0
0
0
0
0
0
0
0
0
0
0
0
0
0
0
0
0
0
0
0
0
0
0
0
0
0
0
0
0
0
0
0
0
0
0
0
0
0
0
0
0
0
0
0
0
0
0
0
0
0
0
0
0
0
0
0
0
0
0
0
0
0
0
0
0
0
0
0
0
0
0
0
0
0
0
0
0
0
0
0
0
0
0
0
0
0
0
0
0
0
0
0
0
0
0
0
0
0
0
0
0
0
0
0
