ply
format ascii 1.0
obj_info num_cols 50
obj_info num_rows 50
element vertex 353
property float x
property float y
property float z
element range_grid 2500
property list uchar int vertex_indices
end_header
-9.5610396 -6.7959091 36.3339537
-4.7528709 13.4827359 22.2285899
-7.1156874 -8.2455615 37.4298137
-8.5529038 -8.8260980 36.8706224
-9.6208816 -8.8224918 36.0617369
-10.3957341 -8.3170970 35.0202125
-10.6432404 -6.8556877 33.5119860
-8.1911269 -0.4243451 29.5460016
-9.5466821 -0.7056987 28.7778664
-10.3762133 0.0061438 27.5084091
-5.1354946 -8.7170831 37.2877997
-8.0181065 -9.8323605 36.1559558
-9.0756604 -9.8124919 35.3395519
-9.9082133 -9.4173983 34.3420431
-10.5513075 -8.6766376 33.1642538
-10.5936016 -6.8379305 31.4130981
-8.5824754 -1.1775859 27.6377067
-9.8515146 -1.2867558 26.7824116
-10.6603459 -0.5184285 25.4538134
-2.8644683 -8.8261409 36.9816483
-3.9636015 -8.8213918 36.1477937
-7.4646928 -10.8091175 35.4279005
-8.5131390 -10.7752223 34.6041115
-9.2172018 -10.1831271 33.5005259
-9.8758670 -9.4832572 32.3270033
-10.5125149 -8.7064213 31.0956875
-10.5794553 -6.8846224 29.2840111
-8.5872423 -1.2325561 25.3231041
-9.8476416 -1.2929363 24.4305408
-10.6492962 -0.4753906 23.0353773
0.8913571 -8.5334208 37.3359506
-0.4080123 -8.7711271 36.5930916
-1.5457647 -8.7954792 35.7589541
-2.6503168 -8.7737178 34.9037819
-7.8756599 -11.6247929 33.8104157
-8.5106758 -10.9375191 32.6444175
-9.1716664 -10.2549892 31.4635615
-9.8394490 -9.5458205 30.2509580
-10.4833422 -8.7554701 28.9752476
-10.6165417 -7.0232552 27.1435820
-10.6698248 -5.0420007 25.1233280
-10.7007429 -2.8956342 22.9549374
-10.7126257 -0.5746324 20.6263805
3.2441608 -8.7444813 37.0640027
2.0868156 -8.7694370 36.2164479
0.9443875 -8.7757168 35.3608558
-0.1848745 -8.7644025 34.4970225
-6.2210368 -12.5662266 33.8697423
-7.1744379 -12.3874805 32.9656421
-7.8045159 -11.7063516 31.7865159
-8.4730289 -11.0490970 30.6030509
-9.1214259 -10.3235132 29.3641752
-9.7835238 -9.5797516 28.0961814
-10.4749108 -8.8427479 26.8130675
-10.6011714 -7.0720200 24.8884697
-10.5592326 -4.8890523 22.6649149
-10.4896355 -2.5164556 20.2663272
-10.6919486 -0.5116907 18.0425587
5.8254220 -8.7571616 36.6952734
4.6902537 -8.7317879 35.8114975
3.4999449 -8.7745190 34.9588351
2.3610174 -8.7530310 34.0763716
-4.3223243 -13.1766854 33.7564988
-5.2857867 -13.0122621 32.8538186
-6.2233722 -12.8021656 31.9218940
-7.0765906 -12.4562489 30.9086014
-7.7576654 -11.8303952 29.7262863
-8.3999870 -11.1102457 28.4725221
-9.0713588 -10.3967511 27.2039410
-9.7575745 -9.6670355 25.9068359
-10.4494890 -8.9041398 24.5699981
-10.5978647 -7.1441931 22.5786392
-10.6666634 -5.1310846 20.3769925
-10.4449651 -2.4477380 17.6788526
-10.6689085 -0.4434232 15.3695129
8.0261690 -9.3022920 36.5527011
6.9056143 -9.2503604 35.6496485
6.1393446 -8.7718339 34.5431292
-2.3922845 -13.7841290 33.6363364
-3.2901207 -13.5312454 32.6795751
-4.2156300 -13.3040381 31.7302685
-5.1540989 -13.0837461 30.7788134
-6.0837156 -12.8395016 29.8076017
-6.9664201 -12.5132589 28.7812896
-7.6815340 -11.9156037 27.5818895
-8.3373457 -11.1929141 26.2892386
-9.0008726 -10.4419273 24.9595312
-9.7037468 -9.7122757 23.6236757
-10.4186631 -8.9595595 22.2532736
-10.6150848 -7.2545934 20.2231403
-10.6396717 -5.1320327 17.8617714
-10.7273036 -2.9882075 15.4293485
-10.7451127 -0.5652942 12.7415758
6.9988354 -10.9011850 35.1371090
-0.4041436 -14.3574929 33.4923480
-1.2815306 -14.0816029 32.5153301
-2.1859981 -13.8280644 31.5433709
-3.0967349 -13.5707534 30.5623758
-4.0531391 -13.3631283 29.6035944
-4.9856438 -13.1116547 28.6128281
-5.9199864 -12.8498690 27.6089098
-6.8681783 -12.5946286 26.6020051
-7.5923741 -11.9871768 25.3623550
-8.2690364 -11.2722364 24.0359552
-8.9625926 -10.5434927 22.6810560
-9.6568338 -9.7730959 21.2781196
-10.3807570 -9.0063574 19.8569524
-10.7138619 -7.5097149 17.8980678
-10.6321027 -5.1696007 15.2900521
-10.4767928 -2.5373115 12.4042249
-10.7901527 -0.6264458 9.9876760
5.7758596 -12.7152431 33.8673006
3.9948095 -13.4553958 33.3955724
2.5806134 -13.7930661 32.7261789
1.1142310 -14.2085063 32.1090954
-0.1253926 -14.3621233 31.3544529
-1.0490990 -14.1232193 30.3754395
-1.9901556 -13.8954756 29.3964885
-2.9108809 -13.6297643 28.3881148
-3.8645243 -13.3955768 27.3920637
-4.8187891 -13.1503437 26.3825187
-5.7689881 -12.8865152 25.3541156
-6.7380575 -12.6362258 24.3274324
-7.5120653 -12.0784942 23.0854688
-8.2083515 -11.3690889 21.7233255
-8.9001085 -10.6114381 20.3077107
-9.6046780 -9.8296740 18.8539898
-10.3463427 -9.0626111 17.3896014
-10.7096995 -7.5875361 15.3759182
-10.6583076 -5.2696197 12.6814600
-10.6892155 -2.9484555 9.9210445
-10.7139856 -0.4534017 6.9602142
6.0373197 -12.8463263 31.7257660
4.5788677 -13.1907658 31.0444840
3.0202683 -13.6677528 30.4491454
1.5637723 -14.0430272 29.8069225
0.1685079 -14.3599202 29.1397710
-0.8245064 -14.1856040 28.1776100
-1.7818985 -13.9570730 27.1762646
-2.7060086 -13.6734655 26.1329176
-3.6606118 -13.4168402 25.0994357
-4.6442431 -13.1872301 24.0769651
-5.6281236 -12.9458353 23.0399428
-6.6106067 -12.6892999 21.9855218
-7.4362948 -12.1832094 20.7453131
-8.1342871 -11.4511945 19.3261490
-8.8344874 -10.6797385 17.8572464
-9.5546925 -9.8943879 16.3563053
-10.3009181 -9.1039896 14.8295673
-10.7531198 -7.7508921 12.8389780
-10.7224004 -5.4394293 10.0449022
-10.4862668 -2.5872938 6.7469235
-10.7272833 -0.4516564 3.9619944
6.5511018 -12.7078621 29.3592276
5.0023484 -13.1272900 28.7182440
3.4885641 -13.5241048 28.0751752
1.9886928 -13.9219381 27.4438947
0.4813673 -14.3469627 26.8412424
-0.6032201 -14.2632972 25.9169130
-1.5452519 -13.9930291 24.8651317
-2.5191078 -13.7511131 23.8250405
-3.4828059 -13.4832429 22.7599210
-4.4711594 -13.2354226 21.7014448
-5.4752132 -12.9965662 20.6424072
-6.4607898 -12.7176979 19.5469122
-7.3461519 -12.2732491 18.3184799
-8.0603237 -11.5397331 16.8551275
-8.7729103 -10.7600419 15.3347986
-9.5029329 -9.9609819 13.7769030
-10.2690460 -9.1721237 12.2046097
-10.7690914 -7.8691346 10.1854897
-10.7458023 -5.5377328 7.2658813
-10.7337980 -3.0646448 4.1592504
-10.7603151 -0.4869852 0.8917902
5.5106564 -12.9831353 26.2550331
3.9667707 -13.3850175 25.6125546
2.4137811 -13.8157583 25.0007840
0.9174849 -14.1974845 24.3679932
-0.3505361 -14.3134879 23.5615305
-1.3260825 -14.0627229 22.4982834
-2.2967096 -13.7929592 21.4140090
-3.2829444 -13.5302027 20.3270740
-4.3004815 -13.2965460 19.2543982
-5.3131480 -13.0433428 18.1599449
-6.3170924 -12.7633938 17.0372468
-7.2506349 -12.3625373 15.8102538
-7.9795062 -11.6243104 14.2984576
-8.7045520 -10.8354455 12.7236043
-9.4483345 -10.0279612 11.1103539
-10.2346595 -9.2400690 9.4904928
-10.7906362 -7.9999196 7.4556007
-10.8060324 -5.7039886 4.4539750
-10.5282270 -2.6999153 0.7515411
-10.7534880 -0.4445070 -2.3557893
6.0858382 -12.7810926 23.6561745
4.4924505 -13.2079709 23.0275063
2.8572113 -13.7035788 22.4597609
1.3420234 -14.0774425 21.8187783
-0.0860570 -14.3615080 21.1226868
-1.1063289 -14.1433266 20.0584118
-2.0958130 -13.8741045 18.9486727
-3.0701927 -13.5707592 17.8044011
-4.1058438 -13.3349111 16.7047267
-5.1245168 -13.0622666 15.5683357
-6.1689520 -12.8113885 14.4417925
-7.1451437 -12.4446454 13.2108001
-7.8996325 -11.7172337 11.6616781
-8.6360534 -10.9167623 10.0278417
-9.4058162 -10.1198267 8.3735847
-10.1846949 -9.2861324 6.6629549
-10.8058185 -8.1226546 4.6274808
-10.7714516 -5.7019478 1.3944511
-10.8551933 -3.3258948 -1.8676603
-10.8717741 -0.6422113 -5.4932111
6.5905756 -12.6770357 21.0210645
4.9634253 -13.1115972 20.3969102
3.3107492 -13.5960134 19.8228683
1.8000729 -13.9330673 19.1509686
0.2632833 -14.3183920 18.5265330
-0.8487603 -14.1884473 17.5057148
-1.8550628 -13.9153567 16.3655209
-2.8815111 -13.6545262 15.2271752
-3.9069039 -13.3781242 14.0679528
-4.9409878 -13.0984735 12.8976440
-6.0000380 -12.8386724 11.7361063
-7.0389150 -12.5337284 10.5269716
-7.8213920 -11.8198439 8.9422981
-8.5674360 -11.0043087 7.2436560
-9.3514130 -10.1978478 5.5289927
-10.1351833 -9.3375132 3.7394992
-10.6099120 -7.8831234 1.3565675
-10.6290326 -5.5088048 -1.9626796
-10.6368514 -2.9388414 -5.5457076
-10.6926399 -0.2651744 -9.3093127
5.5362265 -12.9173349 17.5869402
3.8637049 -13.3900588 17.0038372
2.2105645 -13.8622257 16.4345733
0.6662908 -14.2246710 15.7896377
-0.6072339 -14.2667423 14.8881479
-1.6404197 -14.0026449 13.7275760
-2.6637525 -13.7114575 12.5354593
-3.7016375 -13.4239676 11.3376709
-4.7679042 -13.1597063 10.1518734
-5.8468999 -12.8982937 8.9605600
-6.8968498 -12.5784732 7.7071275
-7.7319200 -11.9129186 6.1184382
-8.5118852 -11.1190214 4.3866655
-9.2235644 -10.1629496 2.4730756
-9.8901192 -9.0670254 0.3922979
-10.1379831 -7.1709177 -2.5238178
-10.1311868 -4.6818122 -6.1010012
-10.1304127 -2.0174492 -9.9349641
6.0194569 -12.8441695 14.7579404
4.3957274 -13.2277124 14.1020192
2.7267892 -13.6831493 13.5189422
1.1072456 -14.1012390 12.9175994
-0.3121917 -14.2919167 12.1289825
-1.3701970 -14.0317236 10.9424012
-2.4310904 -13.7612116 9.7382804
-3.5026026 -13.4899231 8.5249812
-4.5682858 -13.1950411 7.2809717
-5.6597590 -12.9195061 6.0462718
-6.7496642 -12.6249472 4.7844432
-7.5981436 -11.9469922 3.1344066
-8.2615305 -10.9367197 1.1296219
-8.9031729 -9.8244302 -1.0105662
-9.4881589 -8.5414601 -3.3619737
-9.4873814 -6.1565350 -6.9108682
-9.4652137 -3.5580402 -10.7614578
-9.4572343 -0.7876165 -14.8786484
6.6847742 -12.5865544 11.6557046
4.9751674 -13.0308277 11.0477721
3.2197622 -13.5505007 10.5212966
1.5459224 -13.9980388 9.9454157
-0.0246149 -14.3410408 9.2866790
-1.1391062 -14.1243829 8.1110515
-2.1882889 -13.8108261 6.8356155
-3.2719314 -13.5256861 5.5778832
-4.3871855 -13.2674933 4.3377448
-5.4709026 -12.9491742 3.0288834
-6.5532532 -12.6092700 1.6878286
-7.2723983 -11.7008276 -0.2539347
-7.8859366 -10.5689376 -2.4598534
-8.4863683 -9.3397280 -4.8056729
-8.7593944 -7.4803395 -7.8741357
-8.6531893 -4.8333446 -11.8684099
-8.5906242 -2.0662320 -16.0805564
5.5175186 -12.8974173 7.9198154
3.7349694 -13.4113900 7.3911159
2.0691744 -13.8119227 6.7700172
0.3450915 -14.3046790 6.2517186
-0.8602502 -14.1708545 5.1277263
-1.9546761 -13.8860680 3.8471753
-3.0256704 -13.5538276 2.5087704
-4.1103440 -13.2207719 1.1587295
-5.1973521 -12.8708306 -0.2199629
-6.2254810 -12.4134568 -1.7252260
-6.8315509 -11.2935755 -3.9664544
-7.3827537 -10.0145005 -6.4197061
-7.8686260 -8.5431356 -9.1297729
-7.7736926 -6.0037886 -13.1014826
-7.6280866 -3.1907738 -17.4706644
-7.5143975 -0.2202690 -22.1147409
6.1234036 -12.7137833 4.6085060
4.3011744 -13.2338812 4.0880582
2.5738144 -13.6681528 3.4979185
0.8429303 -14.1295460 2.9497975
-0.5489884 -14.1920982 2.0007963
-1.5835499 -13.7987501 0.5708122
-2.6504263 -13.4253582 -0.8507190
-3.7568061 -13.0834763 -2.2501962
-4.8638878 -12.7215578 -3.6832137
-5.7460609 -12.0112883 -5.5201379
-6.2180726 -10.6419753 -8.1328072
-6.6856838 -9.1737119 -10.9051687
-6.6937351 -6.8689788 -14.7082437
-6.4540224 -3.9879682 -19.2734536
-6.3006341 -1.0397124 -24.0146949
5.0245422 -12.8983866 0.4727537
3.3473760 -13.2286476 -0.2320303
1.5875568 -13.6763327 -0.7990992
-0.2694814 -14.2692319 -1.1920851
-1.2647360 -13.7952730 -2.7524948
-2.2799610 -13.3197598 -4.3306507
-3.3795301 -12.9296748 -5.8269198
-4.4584826 -12.4864926 -7.3981293
-5.0332959 -11.2888737 -9.8744750
-5.4039677 -9.7083323 -12.8493449
-5.5462204 -7.6682868 -16.4349505
-5.2051415 -4.7139939 -21.2138828
-4.8954922 -1.5947902 -26.2977303
4.1230551 -12.8131546 -4.1201580
2.3594856 -13.2157592 -4.7430405
0.0403399 -14.3255758 -4.5379334
-1.0404319 -13.9285238 -6.0557578
-2.0682857 -13.4387254 -7.6972454
-3.0758816 -12.8916397 -9.4245136
-3.5749815 -11.6042911 -12.0736930
-3.9427570 -10.0449983 -15.1034918
-4.1683174 -8.1702426 -18.5824747
-3.7568061 -5.1888484 -23.5327129
-3.3105058 -1.9374601 -28.9331158
3.1746770 -12.7306235 -8.9157989
0.6455317 -14.0383049 -8.4389993
-0.7686706 -14.0179382 -9.5456165
-1.2277036 -12.7572034 -12.1962666
-1.7475720 -11.4996174 -14.8871662
-2.2378722 -10.1207168 -17.7773652
-2.5581679 -8.4082902 -21.1484060
-2.0435678 -5.3480390 -26.3507665
-1.4473526 -1.9467632 -32.1145093
-0.2255778 -9.8845818 -20.9783518
-0.7148648 -8.4151872 -24.1289067
0
0
0
0
0
0
0
0
0
0
0
0
0
0
0
0
0
0
0
0
0
0
0
0
0
0
0
0
0
0
0
0
0
0
0
0
0
0
0
0
0
0
0
0
0
0
0
0
0
0
0
0
0
0
0
0
0
0
0
0
0
0
0
0
0
0
0
0
0
0
0
0
0
0
0
0
0
0
0
0
0
0
0
0
0
0
0
0
0
0
0
0
0
0
0
0
0
0
0
0
0
0
0
0
0
0
0
0
0
0
0
0
0
0
0
0
0
0
0
0
0
0
0
0
0
0
0
0
0
0
0
0
0
0
0
0
0
0
0
0
0
0
0
0
0
0
0
0
0
0
0
0
0
0
0
0
0
0
0
0
0
0
0
0
0
0
0
0
0
0
0
0
0
0
0
0
0
0
0
0
0
0
0
0
0
0
0
0
0
0
0
0
0
0
0
0
0
0
0
0
0
0
0
0
0
0
0
0
0
0
0
0
0
0
0
0
0
0
0
0
0
0
0
0
0
0
0
0
0
0
0
0
0
0
0
0
0
0
0
0
0
0
0
0
0
0
0
0
0
0
0
0
0
0
0
0
0
0
0
0
0
0
0
0
0
0
0
0
0
0
0
0
0
0
0
0
0
0
0
0
0
0
0
0
0
0
0
0
0
0
0
0
0
0
0
0
0
0
0
0
0
0
0
0
0
0
0
0
0
0
0
0
0
0
0
0
0
0
0
0
0
0
0
0
0
0
0
0
0
0
0
0
0
0
0
0
0
0
0
0
0
0
0
0
0
0
0
0
0
0
0
0
0
0
0
0
0
0
0
0
0
0
0
0
0
0
0
0
0
0
0
0
0
0
0
0
0
0
0
0
0
0
0
0
0
0
0
0
0
0
0
0
0
0
0
0
0
0
0
0
0
0
0
0
0
0
0
0
0
0
0
0
0
0
0
0
0
0
0
0
0
0
0
0
0
0
0
0
0
0
0
0
0
0
0
0
0
0
0
0
0
0
0
0
0
0
0
0
0
0
0
0
0
0
0
0
0
0
0
0
0
0
0
0
0
0
0
0
0
0
0
0
0
0
0
0
0
0
0
0
0
0
0
0
0
0
0
0
0
0
0
0
0
0
0
0
0
0
0
0
0
0
0
0
0
0
0
0
0
0
0
0
0
0
0
0
0
0
0
0
0
0
0
0
0
0
0
0
0
0
0
0
0
0
0
0
0
0
0
0
0
0
0
0
0
0
0
0
0
0
0
0
0
0
0
0
0
0
0
0
0
0
0
0
1 0
0
0
0
0
1 1
0
0
0
0
0
0
0
0
0
0
0
0
0
0
0
0
0
0
0
0
0
0
0
0
0
0
0
0
0
0
0
0
0
0
0
0
0
0
0
0
0
0
1 2
1 3
1 4
1 5
1 6
1 7
1 8
1 9
0
0
0
0
0
0
0
0
0
0
0
0
0
0
0
0
0
0
0
0
0
0
0
0
0
0
0
0
0
0
0
0
0
0
0
0
0
0
0
0
0
1 10
0
1 11
1 12
1 13
1 14
1 15
1 16
1 17
1 18
0
0
0
0
0
0
0
0
0
0
0
0
0
0
0
0
0
0
0
0
0
0
0
0
0
0
0
0
0
0
0
0
0
0
0
0
0
0
0
1 19
1 20
0
1 21
1 22
1 23
1 24
1 25
1 26
1 27
1 28
1 29
0
0
0
0
0
0
0
0
0
0
0
0
0
0
0
0
0
0
0
0
0
0
0
0
0
0
0
0
0
0
0
0
0
0
0
0
1 30
1 31
1 32
1 33
0
0
1 34
1 35
1 36
1 37
1 38
1 39
1 40
1 41
1 42
0
0
0
0
0
0
0
0
0
0
0
0
0
0
0
0
0
0
0
0
0
0
0
0
0
0
0
0
0
0
0
0
0
0
1 43
1 44
1 45
1 46
0
0
1 47
1 48
1 49
1 50
1 51
1 52
1 53
1 54
1 55
1 56
1 57
0
0
0
0
0
0
0
0
0
0
0
0
0
0
0
0
0
0
0
0
0
0
0
0
0
0
0
0
0
0
0
0
1 58
1 59
1 60
1 61
0
0
1 62
1 63
1 64
1 65
1 66
1 67
1 68
1 69
1 70
1 71
1 72
1 73
1 74
0
0
0
0
0
0
0
0
0
0
0
0
0
0
0
0
0
0
0
0
0
0
0
0
0
0
0
0
0
0
1 75
1 76
1 77
0
0
0
1 78
1 79
1 80
1 81
1 82
1 83
1 84
1 85
1 86
1 87
1 88
1 89
1 90
1 91
1 92
0
0
0
0
0
0
0
0
0
0
0
0
0
0
0
0
0
0
0
0
0
0
0
0
0
0
0
0
0
0
1 93
0
0
0
1 94
1 95
1 96
1 97
1 98
1 99
1 100
1 101
1 102
1 103
1 104
1 105
1 106
1 107
1 108
1 109
1 110
0
0
0
0
0
0
0
0
0
0
0
0
0
0
0
0
0
0
0
0
0
0
0
0
0
0
0
0
0
0
1 111
1 112
1 113
1 114
1 115
1 116
1 117
1 118
1 119
1 120
1 121
1 122
1 123
1 124
1 125
1 126
1 127
1 128
1 129
1 130
1 131
0
0
0
0
0
0
0
0
0
0
0
0
0
0
0
0
0
0
0
0
0
0
0
0
0
0
0
0
0
0
1 132
1 133
1 134
1 135
1 136
1 137
1 138
1 139
1 140
1 141
1 142
1 143
1 144
1 145
1 146
1 147
1 148
1 149
1 150
1 151
1 152
0
0
0
0
0
0
0
0
0
0
0
0
0
0
0
0
0
0
0
0
0
0
0
0
0
0
0
0
0
0
1 153
1 154
1 155
1 156
1 157
1 158
1 159
1 160
1 161
1 162
1 163
1 164
1 165
1 166
1 167
1 168
1 169
1 170
1 171
1 172
1 173
0
0
0
0
0
0
0
0
0
0
0
0
0
0
0
0
0
0
0
0
0
0
0
0
0
0
0
0
0
0
0
1 174
1 175
1 176
1 177
1 178
1 179
1 180
1 181
1 182
1 183
1 184
1 185
1 186
1 187
1 188
1 189
1 190
1 191
1 192
1 193
0
0
0
0
0
0
0
0
0
0
0
0
0
0
0
0
0
0
0
0
0
0
0
0
0
0
0
0
0
0
0
1 194
1 195
1 196
1 197
1 198
1 199
1 200
1 201
1 202
1 203
1 204
1 205
1 206
1 207
1 208
1 209
1 210
1 211
1 212
1 213
0
0
0
0
0
0
0
0
0
0
0
0
0
0
0
0
0
0
0
0
0
0
0
0
0
0
0
0
0
0
0
1 214
1 215
1 216
1 217
1 218
1 219
1 220
1 221
1 222
1 223
1 224
1 225
1 226
1 227
1 228
1 229
1 230
1 231
1 232
1 233
0
0
0
0
0
0
0
0
0
0
0
0
0
0
0
0
0
0
0
0
0
0
0
0
0
0
0
0
0
0
0
0
1 234
1 235
1 236
1 237
1 238
1 239
1 240
1 241
1 242
1 243
1 244
1 245
1 246
1 247
1 248
1 249
1 250
1 251
0
0
0
0
0
0
0
0
0
0
0
0
0
0
0
0
0
0
0
0
0
0
0
0
0
0
0
0
0
0
0
0
0
1 252
1 253
1 254
1 255
1 256
1 257
1 258
1 259
1 260
1 261
1 262
1 263
1 264
1 265
1 266
1 267
1 268
1 269
0
0
0
0
0
0
0
0
0
0
0
0
0
0
0
0
0
0
0
0
0
0
0
0
0
0
0
0
0
0
0
0
0
1 270
1 271
1 272
1 273
1 274
1 275
1 276
1 277
1 278
1 279
1 280
1 281
1 282
1 283
1 284
1 285
1 286
0
0
0
0
0
0
0
0
0
0
0
0
0
0
0
0
0
0
0
0
0
0
0
0
0
0
0
0
0
0
0
0
0
0
0
1 287
1 288
1 289
1 290
1 291
1 292
1 293
1 294
1 295
1 296
1 297
1 298
1 299
1 300
1 301
1 302
0
0
0
0
0
0
0
0
0
0
0
0
0
0
0
0
0
0
0
0
0
0
0
0
0
0
0
0
0
0
0
0
0
0
0
1 303
1 304
1 305
1 306
1 307
1 308
1 309
1 310
1 311
1 312
1 313
1 314
1 315
1 316
1 317
0
0
0
0
0
0
0
0
0
0
0
0
0
0
0
0
0
0
0
0
0
0
0
0
0
0
0
0
0
0
0
0
0
0
0
0
0
1 318
1 319
1 320
1 321
1 322
1 323
1 324
1 325
1 326
1 327
1 328
1 329
1 330
0
0
0
0
0
0
0
0
0
0
0
0
0
0
0
0
0
0
0
0
0
0
0
0
0
0
0
0
0
0
0
0
0
0
0
0
0
0
0
1 331
1 332
1 333
1 334
1 335
1 336
1 337
1 338
1 339
1 340
1 341
0
0
0
0
0
0
0
0
0
0
0
0
0
0
0
0
0
0
0
0
0
0
0
0
0
0
0
0
0
0
0
0
0
0
0
0
0
0
0
0
0
1 342
1 343
1 344
1 345
1 346
1 347
1 348
1 349
1 350
0
0
0
0
0
0
0
0
0
0
0
0
0
0
0
0
0
0
0
0
0
0
0
0
0
0
0
0
0
0
0
0
0
0
0
0
0
0
0
0
0
0
0
0
0
0
1 351
1 352
0
0
0
0
0
0
0
0
0
0
0
0
0
0
0
0
0
0
0
0
0
0
0
0
0
0
0
0
0
0
0
0
0
0
0
0
0
0
0
0
0
0
0
0
0
0
0
0
0
0
0
0
0
0
0
0
0
0
0
0
0
0
0
0
0
0
0
0
0
0
0
0
0
0
0
0
0
0
0
0
0
0
0
0
0
0
0
0
0
0
0
0
0
0
0
0
0
0
0
0
0
0
0
0
0
0
0
0
0
0
0
0
0
0
0
0
0
0
0
0
0
0
0
0
0
0
0
0
0
0
0
0
0
0
0
0
0
0
0
0
0
0
0
0
0
0
0
0
0
0
0
0
0
0
0
0
0
0
0
0
0
0
0
0
0
0
0
0
0
0
0
0
0
0
0
0
0
0
0
0
0
0
0
0
0
0
0
0
0
0
0
0
0
0
0
0
0
0
0
0
0
0
0
0
0
0
0
0
0
0
0
0
0
0
0
0
0
0
0
0
0
0
0
0
0
0
0
0
0
0
0
0
0
0
0
0
0
0
0
0
0
0
0
0
0
0
0
0
0
0
0
0
0
0
0
0
0
0
0
0
0
0
0
0
0
0
0
0
0
0
0
0
0
0
0
0
0
0
0
0
0
0
0
0
0
0
0
0
0
0
0
0
0
0
0
0
0
0
0
0
0
0
0
0
0
0
0
0
0
0
0
0
0
0
0
0
0
0
0
0
0
0
0
0
0
0
0
0
0
0
0
0
0
0
0
0
0
0
0
0
0
0
0
0
0
0
0
0
0
0
0
0
0
0
0
0
0
0
0
0
0
0
0
0
0
0
0
0
0
0
0
0
0
0
0
0
0
0
0
0
0
0
0
0
0
0
0
0
0
0
0
0
0
0
0
0
0
0
0
0
0
0
0
0
0
0
0
0
0
0
0
0
0
0
0
0
0
0
0
0
0
0
0
0
0
0
0
0
0
0
0
0
0
0
0
0
0
0
0
0
0
0
0
0
0
0
0
0
0
0
0
0
0
0
0
0
0
0
0
0
0
0
0
0
0
0
0
0
0
0
0
0
0
0
0
0
0
0
0
0
0
0
0
0
0
0
0
0
0
0
0
0
0
0
0
0
0
0
0
0
0
0
0
0
0
0
0
0
0
0
0
0
0
0
0
0
0
0
0
0
0
0
0
0
0
0
0
0
0
0
0
0
0
0
0
0
0
0
0
0
0
0
0
0
0
0
0
0
0
0
0
0
0
0
0
0
0
0
0
0
0
0
0
0
0
0
0
0
0
0
0
0
0
0
0
0
0
0
0
0
0
0
0
0
0
0
0
0
0
0
0
0
0
0
0
0
0
0
0
0
0
0
0
0
0
0
0
0
0
0
0
0
0
0
0
0
0
0
0
0
0
0
0
0
0
0
0
0
0
0
0
0
0
0
0
0
0
0
0
0
0
0
0
0
0
0
0
0
0
0
0
0
0
0
0
0
0
0
0
0
0
0
0
0
0
0
0
0
0
0
0
0
0
0
0
0
0
0
0
0
0
0
0
0
0
0
0
0
0
0
0
0
0
0
0
0
0
0
0
0
0
0
0
0
0
0
0
0
0
0
0
0
0
0
0
0
0
0
0
0
0
0
0
0
0
0
0
0
0
0
0
0
0
0
0
0
0
0
0
0
0
0
0
0
0
0
0
0
0
0
0
0
0
0
0
0
0
0
0
0
0
0
0
0
0
0
0
