ply
format ascii 1.0
obj_info num_cols 50
obj_info num_rows 50
element vertex 563
property float x
property float y
property float z
element range_grid 2500
property list uchar int vertex_indices
end_header
37.5276884 -23.1690691 0.3493219
37.0898758 -23.4073239 -3.2133878
36.5679595 -23.3676524 -1.6977298
36.0358174 -23.3864153 -0.1769017
35.5141821 -23.3410626 1.3403024
36.3211805 -14.7977740 2.5608407
37.2329697 -23.3534135 -8.3382606
36.7001663 -23.3678058 -6.8132949
36.1733533 -23.3471558 -5.2926698
35.6386196 -23.3734379 -3.7665247
35.1106381 -23.3582999 -2.2445671
34.5791297 -23.3648893 -0.7204563
34.0450901 -23.3887729 0.8045755
34.7236798 -14.8674726 1.9838642
34.1445710 -14.8946232 3.6371385
33.5746954 -14.8531959 5.2890701
37.3893211 -23.2302850 -13.5071975
36.8321130 -23.3731263 -11.9527971
36.3001431 -23.3756507 -10.4260002
35.7726059 -23.3510086 -8.9032445
35.2377451 -23.3704470 -7.3735548
34.7090630 -23.3506533 -5.8490620
34.1724040 -23.3828236 -4.3182798
33.6413793 -23.3776103 -2.7917223
33.1146560 -23.3403858 -1.2672805
32.5774372 -23.3789446 0.2630662
32.7997509 -17.4530497 1.5196681
32.5545798 -14.8453330 3.0576033
31.9752729 -14.8637847 4.7152401
31.3949404 -14.8926432 6.3724941
30.8522404 -14.5692862 8.0343150
36.9701524 -23.3474537 -17.1240652
36.4470865 -23.2894955 -15.6065000
35.9109793 -23.3062705 -14.0718359
35.3725565 -23.3382517 -12.5346626
34.8392803 -23.3388413 -11.0037204
34.3047586 -23.3474178 -9.4713763
33.7729247 -23.3376159 -7.9417463
33.2421426 -23.3190998 -6.4127641
32.7043895 -23.3508016 -4.8774378
32.1691858 -23.3648371 -3.3446216
31.6355962 -23.3665195 -1.8130770
31.1001334 -23.3837618 -0.2803902
30.5663641 -23.3870869 1.2512232
30.9518273 -14.8241471 2.4755468
30.3656082 -14.8963768 4.1389925
29.7864050 -14.9033462 5.8000603
30.2095161 -3.9462895 7.5680279
37.1023859 -23.3585627 -22.3127559
36.5779608 -23.3017578 -20.7945667
36.0404258 -23.3195746 -19.2554914
35.5106795 -23.2899980 -17.7281378
34.9671625 -23.3461869 -16.1805022
34.4390390 -23.3039646 -14.6549691
33.8988582 -23.3410702 -13.1126275
33.3688102 -23.3083685 -11.5837066
32.8263369 -23.3647037 -10.0390997
32.2978767 -23.3171778 -8.5114100
31.7551555 -23.3797773 -6.9674974
31.2243137 -23.3477338 -5.4364454
30.6868641 -23.3702738 -3.8986752
30.1529787 -23.3616406 -2.3641403
29.6162015 -23.3796009 -0.8272722
29.0807660 -23.3852192 0.7085140
29.3290610 -14.9220634 1.8951442
28.7517707 -14.8918629 3.5591197
28.1730382 -14.8745995 5.2243317
25.8463376 -14.9591962 11.8844857
25.2662793 -14.9585061 13.5497839
36.8173062 -22.6923242 -26.2066978
36.2129390 -23.0804094 -24.5405207
35.6346072 -23.3336080 -22.9252753
35.1041848 -23.2994075 -21.3968399
34.5627010 -23.3351146 -19.8489884
34.0313553 -23.3040031 -18.3184477
33.4954650 -23.3022517 -16.7800428
32.9591143 -23.3033256 -15.2408144
32.4173983 -23.3450286 -13.6933541
31.8853674 -23.3127073 -12.1606336
31.3450299 -23.3461078 -10.6156652
30.8115114 -23.3227929 -9.0802638
30.2725470 -23.3463635 -7.5375022
29.7345557 -23.3624653 -5.9962162
29.1962355 -23.3830443 -4.4547762
28.6614516 -23.3676046 -2.9171319
28.1238999 -23.3809858 -1.3766278
27.5888080 -23.3657696 0.1618610
27.3120769 -20.0225560 1.5458804
27.1288618 -14.8942708 2.9763856
27.1333909 -6.1498676 4.5059284
24.2182043 -14.9239737 11.3252272
23.6360726 -14.9300263 12.9949762
23.0540679 -14.9325352 14.6649860
22.4712900 -14.9598618 16.3328371
36.1378120 -21.0699326 -28.9347242
35.3893525 -22.3246268 -26.9476523
34.7552553 -22.9210210 -25.2044118
34.1760888 -23.1891956 -23.5767477
33.6121752 -23.3701992 -21.9816846
33.0796428 -23.3365904 -20.4491758
32.5470374 -23.3003883 -18.9161254
32.0063847 -23.3241408 -17.3676642
31.4701500 -23.3131444 -15.8274283
30.9322173 -23.3152617 -14.2840004
30.3935952 -23.3232879 -12.7393511
29.8490412 -23.3878167 -11.1849193
29.3165507 -23.3381951 -9.6504790
28.7746523 -23.3816101 -8.1009626
28.2402209 -23.3461110 -6.5627619
27.7000510 -23.3736306 -5.0161690
27.1633871 -23.3596589 -3.4743203
26.6225237 -23.4000447 -1.9273858
26.0856104 -23.3879318 -0.3850597
25.5426303 -23.4694865 1.1626738
25.4966003 -14.9127249 2.3912121
24.9139044 -14.9021123 4.0647276
24.3288039 -14.9391810 5.7390339
23.7578653 -14.6422967 7.4154920
23.1620497 -14.9455233 9.0864425
22.5787933 -14.9433857 10.7604808
21.9959521 -14.9215302 12.4358539
21.4122069 -14.9300424 14.1099303
20.8280852 -14.9661496 15.7815508
20.2446706 -14.9612250 17.4564002
19.6610603 -14.9765391 19.1292177
33.9545585 -21.8750600 -27.7237134
33.2781274 -22.8118220 -25.8574917
32.6940498 -23.1309070 -24.2070634
32.1270110 -23.3431242 -22.5970124
31.5900231 -23.3284575 -21.0551159
31.0525515 -23.3160852 -19.5120144
30.5086883 -23.3590830 -17.9549836
29.9718974 -23.3395444 -16.4132644
29.4309433 -23.3584693 -14.8626634
28.8926402 -23.3512769 -13.3175888
28.3500027 -23.3904394 -11.7637692
28.0414203 -20.6883822 -10.6632086
26.7345805 -23.3694829 -7.1271229
26.1944145 -23.3831232 -5.5783622
25.6559488 -23.3715156 -4.0324693
25.1155729 -23.3894597 -2.4834489
24.5769576 -23.3767966 -0.9370429
24.0348057 -23.4341181 0.6139375
23.8499917 -15.0804403 1.8094398
23.2732566 -14.8852287 3.4797566
22.6880094 -14.8905576 5.1585264
22.1021776 -14.9178694 6.8372230
21.5172841 -14.9114390 8.5159143
20.9313882 -14.9607390 10.1930439
20.3467269 -14.9351868 11.8725919
19.7615827 -14.9394482 13.5511510
19.1764314 -14.9650456 15.2280318
18.5910881 -14.9211754 16.9109951
18.0061021 -14.9569719 18.5865893
17.4212461 -14.9811969 20.2627320
16.8357499 -14.9671846 21.9437564
32.5055396 -21.3714675 -28.5269953
31.8136927 -22.5106806 -26.5774693
31.2005295 -23.0887353 -24.8363314
30.6361742 -23.2898411 -23.2235666
30.0873155 -23.3666987 -21.6514190
29.5516486 -23.3222925 -20.1133697
29.0066597 -23.3683867 -18.5513735
28.4669068 -23.3621663 -17.0027818
27.9898137 -22.6290513 -15.6114912
27.9810578 -16.0167603 -15.3821306
24.6811906 -23.3916431 -6.1435362
24.1409282 -23.3834574 -4.5934225
23.5994708 -23.3994274 -3.0406268
23.0584106 -23.4079474 -1.4887403
22.5173143 -23.4186018 0.0631841
21.9907028 -22.9011981 1.5898662
21.6228300 -14.8967094 2.8924348
21.0361698 -14.8975620 4.5753718
20.4491870 -14.9224067 6.2584931
19.8624763 -14.9355967 7.9411938
19.2758363 -14.9665475 9.6231430
18.6892134 -14.9460676 11.3066319
18.1025182 -14.9460635 12.9896958
17.5158983 -14.9548879 14.6722707
16.9292896 -14.9627227 16.3548443
16.3429859 -14.9812944 18.0362111
15.7571982 -15.0117876 19.7157298
15.1661606 -14.8939300 21.4148908
14.5670710 -14.6181173 23.1420301
13.9546969 -14.1283727 24.9138866
30.3477698 -22.0681516 -27.3512155
29.7189160 -22.8432275 -25.5334891
29.1374808 -23.2199311 -23.8589808
28.5779894 -23.4033635 -22.2509104
28.0606971 -23.1264093 -20.7722095
28.6401506 -9.4574727 -22.6816186
28.0092562 -9.6429646 -20.8687107
27.9037546 -2.4933073 -20.6955141
23.1597329 -23.4130522 -6.7099259
22.6185295 -23.3877553 -5.1580876
22.0758090 -23.4043719 -3.6011395
21.5329875 -23.4306688 -2.0437261
20.9912243 -23.4094362 -0.4902088
20.4484767 -23.4456164 1.0671713
19.9638260 -14.9393183 2.3033004
19.3758071 -14.9130784 3.9893992
18.7876388 -14.9358094 5.6768130
18.1995029 -14.9426483 7.3638463
17.6110339 -14.9262589 9.0514144
17.0233247 -14.9594078 10.7376999
16.4344005 -14.9335386 12.4264020
15.8474225 -14.9815797 14.1108597
15.2594044 -14.9884979 15.7975564
14.6721877 -15.0143413 17.4822971
14.0819678 -14.9718988 19.1744158
13.4833315 -14.7791540 20.8879540
12.8718581 -14.4017708 22.6349702
12.2384511 -13.7432794 24.4398092
11.5819030 -12.8523296 26.3068146
10.8684580 -11.3242070 28.3254808
28.8729194 -21.4943323 -28.1780168
28.2197416 -22.6228003 -26.2288906
27.9400631 -19.4098471 -25.6431802
28.0186968 -11.1484278 -26.4249396
27.8971685 -4.4188653 -26.5295431
27.8600094 4.6521856 -27.0337529
21.6309499 -23.4313283 -7.2795111
21.0880636 -23.3995439 -5.7247945
20.5439352 -23.4319306 -4.1621952
20.0005619 -23.4040376 -2.6058200
19.4567899 -23.3930655 -1.0471623
18.9130080 -23.4359175 0.5151478
18.2990194 -15.1794044 1.7199794
17.7068880 -14.9115041 3.4000201
17.1177317 -14.9508272 5.0922146
16.5274601 -14.9304032 6.7835846
15.9372687 -14.9220786 8.4755395
15.3485083 -14.9583567 10.1663939
14.7584660 -14.9552898 11.8582750
14.1707193 -15.0038494 13.5470494
13.5794000 -14.9744468 15.2408194
12.9890515 -14.9687062 16.9333988
12.3963794 -14.9278309 18.6302759
11.7864431 -14.6403821 20.3600600
11.1577161 -14.1400842 22.1293993
10.5046989 -13.4009821 23.9523173
9.8125895 -12.2933090 25.8625250
9.0601018 -10.6462865 27.9095666
8.1569422 -7.6017734 30.2945998
27.8942547 -14.3150139 -31.2824395
19.5498159 -23.4172242 -6.2936410
19.0046538 -23.4047455 -4.7319844
18.4593198 -23.3951836 -3.1694945
17.9138283 -23.3859966 -1.6065090
17.3691430 -23.4291165 -0.0397252
16.8214480 -23.3289813 1.5189544
16.0289891 -14.9075562 2.8074164
15.4392500 -14.9610213 4.5045889
14.8470469 -14.9402073 6.2001499
14.2547259 -14.9231613 7.8964891
13.6655502 -14.9727275 9.5915907
13.0732295 -14.9581047 11.2882122
12.4817227 -14.9602541 12.9844589
11.8917839 -14.9863352 14.6790054
11.2976016 -14.9509828 16.3785429
10.6904703 -14.7554760 18.0965008
10.0708560 -14.4366113 19.8358408
9.4214906 -13.8227430 21.6260251
8.7371200 -12.9090722 23.4815576
7.9988747 -11.5553673 25.4401616
7.1607236 -9.3921109 27.5906557
18.0034457 -23.3954656 -6.8705211
17.4569707 -23.4132487 -5.3009520
16.9105160 -23.4260930 -3.7322638
16.3631159 -23.4028537 -2.1668744
15.8171108 -23.4300160 -0.5970902
15.2711114 -23.4513223 0.9717022
14.3426982 -14.9184278 2.2121832
13.7517791 -14.9639255 3.9137781
13.1568948 -14.9303592 5.6135729
12.5643723 -14.9425244 7.3142131
11.9721187 -14.9577125 9.0145859
11.3789516 -14.9587920 10.7152279
10.7846389 -14.9457366 12.4168001
10.1956129 -14.9990454 14.1142686
9.5941993 -14.9060741 15.8228883
8.9732172 -14.6156252 17.5547183
8.3353343 -14.1871399 19.3120108
7.6581149 -13.4275279 21.1269259
6.9346467 -12.3230765 23.0169963
6.1308262 -10.6270548 25.0388976
5.1501601 -7.6208947 27.3495842
16.4493183 -23.4159800 -7.4449025
15.9001649 -23.3876880 -5.8770160
15.3530893 -23.4229667 -4.3013207
14.8042561 -23.4108285 -2.7308545
14.2571902 -23.4383787 -1.1568606
13.7088063 -23.4374907 0.4147538
12.6839097 -15.5295621 1.6401850
12.0551046 -14.9625031 3.3197225
11.4602828 -14.9608077 5.0242648
10.8638964 -14.9397720 6.7291042
10.2716983 -14.9733610 8.4337659
9.6760473 -14.9640445 10.1390348
9.0812745 -14.9659628 11.8442192
8.4871867 -14.9752864 13.5490434
7.8742201 -14.8024840 15.2685462
7.2366614 -14.4225493 17.0136888
6.5704744 -13.8298451 18.7948200
5.8606484 -12.9284827 20.6342023
5.0796587 -11.5396536 22.5720142
4.1919879 -9.4533661 24.6645912
14.3357953 -23.3941843 -6.4523483
13.7872409 -23.4200175 -4.8734368
13.2367532 -23.4096103 -3.2986520
12.6889244 -23.4428162 -1.7198532
12.1393960 -23.4475802 -0.1437705
11.5892232 -23.4439542 1.4319207
10.3458063 -14.9180775 2.7210240
9.7533849 -14.9665487 4.4316859
9.1563366 -14.9598320 6.1408864
8.5626721 -14.9891558 7.8500033
7.9672906 -14.9993635 9.5589418
7.3695387 -14.9873285 11.2687398
6.7662599 -14.9285888 12.9819188
6.1349811 -14.6416486 14.7144675
5.4779237 -14.1742054 16.4727434
4.7766128 -13.4074225 18.2779920
4.0152490 -12.2612578 20.1541398
3.1708232 -10.6170967 22.1354854
2.0963986 -7.5306630 24.3912337
12.7649899 -23.4280535 -7.0270473
12.2135829 -23.4268862 -5.4474997
11.6615034 -23.4177393 -3.8685565
11.1142271 -23.4701675 -2.2838424
10.5614905 -23.4531948 -0.7054989
10.0120143 -23.4745176 0.8756511
8.6345418 -14.9621125 2.1220958
8.0352400 -14.9502172 3.8354705
7.4374220 -14.9538700 5.5495265
6.8485698 -15.0367484 7.2630252
6.2488774 -15.0214206 8.9764306
5.6421292 -14.9512746 10.6926625
5.0268303 -14.8217444 12.4145563
4.3753968 -14.4363555 14.1588196
3.6893345 -13.8356719 15.9340061
2.9498932 -12.9158157 17.7608868
2.1293823 -11.5290548 19.6719375
1.1738772 -9.3815549 21.7284540
10.6324332 -23.4426754 -6.0234759
10.0780305 -23.4258685 -4.4414393
9.5283371 -23.4604782 -2.8539743
8.9735618 -23.4420539 -1.2714654
8.4179167 -23.4179769 0.3114552
7.2829115 -18.2626295 1.6659685
6.3126805 -14.9790094 3.2371753
5.7112081 -14.9651717 4.9551469
5.1191523 -15.0258256 6.6735529
4.5201176 -15.0302609 8.3912649
3.9021222 -14.8997006 10.1136210
3.2654455 -14.6513326 11.8461451
2.5955626 -14.2020182 13.5998555
1.8679715 -13.4166688 15.3952358
1.0781356 -12.3015017 17.2475705
0.1805125 -10.6175986 19.1994131
-0.9927022 -7.4510174 21.3951819
9.0409682 -23.4359588 -6.6052946
8.4876989 -23.4474123 -5.0158034
7.9303820 -23.4222069 -3.4300775
7.3793590 -23.4533493 -1.8387712
6.8226897 -23.4363767 -0.2514511
6.2753110 -23.4935025 1.3403030
4.5738970 -14.9495093 2.6339555
3.9770798 -14.9839830 4.3578228
3.3862633 -15.0576042 6.0809037
2.7752927 -14.9926108 7.8036368
2.1460235 -14.8155451 9.5318276
1.4811679 -14.4310246 11.2750305
0.7796827 -13.8533295 13.0422168
0.0095820 -12.9158944 14.8552171
-0.8439965 -11.5687740 16.7356756
-1.8741787 -9.3423785 18.7535868
7.4468559 -23.4819582 -7.1832190
6.8866105 -23.4458995 -5.5957867
6.3290386 -23.4342958 -4.0045115
5.7747582 -23.4487390 -2.4104147
5.2181655 -23.4458592 -0.8178414
4.6683457 -23.4904302 0.7776483
2.8439735 -15.0477557 2.0322618
2.2303029 -14.9780620 3.7568733
1.6251964 -14.9666590 5.4843687
1.0170452 -14.9381568 7.2125432
0.3648292 -14.6561827 8.9477203
-0.3263650 -14.1729772 10.6998978
-1.0687161 -13.4403441 12.4812897
-1.8889598 -12.3386867 14.3122232
-2.8418028 -10.6181864 16.2318943
-4.1106573 -7.4131371 18.3584759
5.2762590 -23.4405563 -6.1794111
4.7210377 -23.4578373 -4.5806802
4.1627930 -23.4540493 -2.9842852
3.6031425 -23.4418705 -1.3882427
3.0507968 -23.4763559 0.2112309
2.0615690 -20.8817602 1.6899091
0.4735881 -14.9705451 3.1525508
-0.1295798 -14.9811146 4.8850612
-0.7608299 -14.8378937 6.6177390
-1.4400183 -14.4491054 8.3595536
-2.1588985 -13.8783140 10.1200569
-2.9669652 -12.8926885 11.9194871
-3.8599101 -11.5468975 13.7740308
-4.9489483 -9.3414762 15.7415324
3.6644615 -23.4835804 -6.7599440
3.0981129 -23.4382091 -5.1646828
2.5448553 -23.4752204 -3.5596497
1.9812186 -23.4496138 -1.9608166
1.4269259 -23.4787891 -0.3573143
0.8707852 -23.4963969 1.2448442
-1.2890729 -14.9834961 2.5455800
-1.9070517 -14.9253047 4.2812901
-2.5650150 -14.6699097 6.0183642
-3.2706706 -14.1957310 7.7664912
-4.0427972 -13.4308222 9.5381661
-4.9019774 -12.3022998 11.3505108
-5.9046533 -10.5826333 13.2346101
-7.2523797 -7.4272070 15.2830533
2.0423153 -23.5095528 -7.3454995
1.4715414 -23.4515921 -5.7481034
0.9171135 -23.4873477 -4.1388668
0.3497753 -23.4524737 -2.5368620
-0.2051508 -23.4842047 -0.9287172
-0.7655870 -23.4867375 0.6769334
-3.0410389 -15.0938811 1.9394240
-3.7042723 -14.8299781 3.6726258
-4.3835919 -14.5053820 5.4139019
-5.1399865 -13.8487325 7.1680604
-5.9567949 -12.9580889 8.9487558
-6.9147002 -11.5028004 10.7800748
-8.0713623 -9.2801001 12.7002071
-0.1651276 -23.4565454 -6.3356336
-0.7267954 -23.4609043 -4.7253807
-1.2883133 -23.4660663 -3.1150123
-1.8512371 -23.4645391 -1.5051552
-2.4093880 -23.4855783 0.1063407
-3.0272945 -23.2349925 1.7047081
-5.5327691 -14.6531719 3.0570941
-6.2572149 -14.1687395 4.8018210
-7.0454141 -13.4388841 6.5626215
-7.9371457 -12.3168620 8.3538554
-8.9986645 -10.5626444 10.2024112
-10.4543894 -7.3351259 12.1803321
-1.8065947 -23.4807340 -6.9237846
-2.3675177 -23.4952130 -5.3083355
-2.9355990 -23.4767397 -3.6964761
-3.4942165 -23.5013644 -2.0802125
-4.0576410 -23.5042997 -0.4660385
-4.6165274 -23.5265041 1.1492266
-7.3867896 -14.4356033 2.4347573
-8.1560030 -13.8150922 4.1823167
-9.0017733 -12.9207482 5.9488909
-9.9847134 -11.5367703 7.7502672
-11.2077002 -9.3062170 9.6200583
-4.0265082 -23.4848052 -5.8995806
-4.5977394 -23.4615021 -4.2837694
-5.1654793 -23.4539480 -2.6656093
-5.7210746 -23.4959659 -1.0433592
-6.2883711 -23.4902299 0.5749569
-9.1706039 -14.5548644 1.8206528
-10.0850408 -13.4290855 3.5546504
-11.0268628 -12.2491517 5.3245657
-12.1200555 -10.5693340 7.1359245
-13.7198155 -7.1588497 9.0407101
-5.6872249 -23.5057056 -6.4901913
-6.2546636 -23.5049617 -4.8678982
-6.8291785 -23.4771686 -3.2479917
-7.3948201 -23.4843380 -1.6242194
-7.9603154 -23.4919851 -0.0004660
-8.5456137 -23.4277659 1.6198130
-12.0811538 -12.8862859 2.9143189
-13.0986879 -11.5282054 4.6885766
-14.4054855 -9.2347857 6.5077867
-7.3634209 -23.5002627 -7.0873658
-7.9340480 -23.4940274 -5.4611838
-8.5040123 -23.4906849 -3.8343229
-9.0689638 -23.5055257 -2.2056159
-9.6354292 -23.5147284 -0.5775969
-10.1972379 -23.5397086 1.0511460
-14.1359648 -12.2418328 2.2606323
-15.2905015 -10.5259369 4.0351789
-16.9786642 -7.1492962 5.8578297
-9.6157151 -23.5088337 -6.0546956
-10.1919273 -23.4897499 -4.4253090
-10.7573401 -23.5078389 -2.7917239
-11.3310018 -23.4983071 -1.1606165
-11.9024682 -23.4964279 0.4714351
-14.7428985 -16.2940400 1.7965053
-17.6487388 -9.1428354 3.3568765
-11.3124594 -23.5032145 -6.6539917
-11.8888266 -23.4902142 -5.0194336
-12.4496317 -23.5272990 -3.3793991
-13.0242192 -23.5202868 -1.7439550
-13.6008047 -23.5075955 -0.1084649
-14.1589660 -23.5510230 1.5303392
-20.3367709 -6.9536039 2.6333930
-13.0126696 -23.5168666 -7.2540776
-13.5899846 -23.5065866 -5.6149667
-14.1553357 -23.5328988 -3.9715619
-14.7400345 -23.5012124 -2.3338627
-15.3147427 -23.4998663 -0.6928054
-15.8735487 -23.5443078 0.9509615
-23.1189586 -4.7399952 1.8803266
-15.3148232 -23.4801504 -6.2190130
-15.8782314 -23.5160551 -4.5694202
-16.4543177 -23.5152462 -2.9242169
-17.0265769 -23.5252617 -1.2779740
-17.5878718 -23.5650847 0.3699152
-19.8261146 -19.0949097 1.8201409
-17.0161241 -23.5482283 -6.8143281
-17.6061384 -23.5134034 -5.1691902
-18.1782785 -23.5278895 -3.5178606
-18.7567831 -23.5252572 -1.8682248
-19.3221508 -23.5571392 -0.2160445
-19.8870803 -23.5893755 1.4352953
-33.8069389 10.1978561 1.9715025
-19.3435523 -23.5115272 -5.7722697
-19.9154551 -23.5304356 -4.1157554
-20.5036773 -23.5076422 -2.4633468
-21.0570014 -23.5727560 -0.8037027
-21.6384102 -23.5670965 0.8500834
-28.6874602 -7.8731080 1.8969200
-21.0868042 -23.5196862 -6.3774974
-21.6602439 -23.5381546 -4.7164218
-22.2500955 -23.5164680 -3.0595403
-22.8328866 -23.5124255 -1.4003852
-23.4005619 -23.5443076 0.2612855
-24.7170835 -21.8327665 1.8444965
-22.8365616 -23.5352277 -6.9850729
-23.4107064 -23.5551726 -5.3193143
-23.9940011 -23.5534501 -3.6561906
-24.5901764 -23.5223614 -1.9952686
-25.1593537 -23.5533981 -0.3289710
-25.7177070 -23.6079817 1.3376762
-25.1779450 -23.5554255 -5.9274869
-25.7679156 -23.5427684 -4.2608540
-26.3508399 -23.5461301 -2.5921767
-26.9218921 -23.5754142 -0.9215313
-27.5119111 -23.5633131 0.7460087
-33.9484182 -11.1310957 1.9222554
-26.9501099 -23.5668217 -6.5376826
-27.5479839 -23.5413064 -4.8680470
-28.1101293 -23.5924264 -3.1900592
-28.7197292 -23.5429143 -1.5215030
-29.3640684 -23.4227622 0.1445081
-30.0687640 -23.1820574 1.8092332
-28.7941519 -23.4479677 -7.1687826
-29.4009768 -23.4099738 -5.4940575
-30.0151289 -23.3580383 -3.8192833
-30.6770629 -23.2108709 -2.1506485
-31.4073442 -22.9307202 -0.4859529
-32.1693297 -22.5945637 1.1854153
-31.4420364 -22.9329749 -6.1680955
-32.1874529 -22.6328778 -4.5075521
-33.0271049 -22.1559388 -2.8528120
-33.9654456 -21.4995725 -1.1951852
-35.2318422 -20.2323431 0.4496404
-33.9989283 -21.5148204 -6.9741882
-35.3295240 -20.1291816 -5.4101264
0
0
0
0
0
0
0
0
0
0
0
0
0
0
0
0
0
0
0
0
0
0
0
0
0
0
0
0
0
0
0
0
0
0
0
0
0
0
0
0
0
0
0
0
0
0
0
0
0
0
0
0
0
0
0
0
0
0
0
0
0
0
0
0
0
0
0
0
0
0
0
0
0
0
0
0
0
0
0
0
0
0
0
0
0
0
0
0
0
0
0
0
0
0
0
0
0
0
0
0
0
0
0
0
0
0
0
0
0
0
0
0
0
0
0
0
0
0
0
0
0
0
0
0
0
0
0
0
0
0
0
0
0
0
0
0
0
0
0
0
0
0
0
0
0
0
0
0
0
0
0
0
0
0
0
0
0
0
0
0
0
0
0
0
0
0
0
0
0
0
0
0
0
0
0
0
0
0
0
0
0
0
0
0
0
0
0
0
0
0
0
0
0
0
0
0
0
0
0
0
0
0
0
0
0
0
0
0
0
0
0
0
0
0
0
0
0
0
0
0
0
0
0
0
0
0
0
0
0
0
0
0
0
0
0
0
0
0
0
0
0
0
0
0
0
0
0
0
0
0
0
0
0
0
0
0
0
0
0
0
0
0
0
0
0
0
0
1 0
0
0
0
0
0
0
0
0
0
0
0
0
0
0
0
0
0
0
0
0
0
0
0
0
0
0
0
0
0
0
0
0
0
0
0
0
0
0
0
0
0
0
0
0
0
0
0
1 1
1 2
1 3
1 4
1 5
0
0
0
0
0
0
0
0
0
0
0
0
0
0
0
0
0
0
0
0
0
0
0
0
0
0
0
0
0
0
0
0
0
0
0
0
0
0
0
0
0
0
1 6
1 7
1 8
1 9
1 10
1 11
1 12
1 13
1 14
1 15
0
0
0
0
0
0
0
0
0
0
0
0
0
0
0
0
0
0
0
0
0
0
0
0
0
0
0
0
0
0
0
0
0
0
0
0
0
1 16
1 17
1 18
1 19
1 20
1 21
1 22
1 23
1 24
1 25
1 26
1 27
1 28
1 29
1 30
0
0
0
0
0
0
0
0
0
0
0
0
0
0
0
0
0
0
0
0
0
0
0
0
0
0
0
0
0
0
0
0
0
1 31
1 32
1 33
1 34
1 35
1 36
1 37
1 38
1 39
1 40
1 41
1 42
1 43
1 44
1 45
1 46
1 47
0
0
0
0
0
0
0
0
0
0
0
0
0
0
0
0
0
0
0
0
0
0
0
0
0
0
0
0
0
0
1 48
1 49
1 50
1 51
1 52
1 53
1 54
1 55
1 56
1 57
1 58
1 59
1 60
1 61
1 62
1 63
1 64
1 65
1 66
0
0
0
1 67
1 68
0
0
0
0
0
0
0
0
0
0
0
0
0
0
0
0
0
0
0
0
0
0
0
0
1 69
1 70
1 71
1 72
1 73
1 74
1 75
1 76
1 77
1 78
1 79
1 80
1 81
1 82
1 83
1 84
1 85
1 86
1 87
1 88
1 89
0
0
0
1 90
1 91
1 92
1 93
0
0
0
0
0
0
0
0
0
0
0
0
0
0
0
0
0
0
0
0
0
1 94
1 95
1 96
1 97
1 98
1 99
1 100
1 101
1 102
1 103
1 104
1 105
1 106
1 107
1 108
1 109
1 110
1 111
1 112
1 113
1 114
1 115
1 116
1 117
1 118
1 119
1 120
1 121
1 122
1 123
1 124
0
0
0
0
0
0
0
0
0
0
0
0
0
0
0
0
0
0
0
0
1 125
1 126
1 127
1 128
1 129
1 130
1 131
1 132
1 133
1 134
1 135
1 136
0
1 137
1 138
1 139
1 140
1 141
1 142
1 143
1 144
1 145
1 146
1 147
1 148
1 149
1 150
1 151
1 152
1 153
1 154
1 155
0
0
0
0
0
0
0
0
0
0
0
0
0
0
0
0
0
0
1 156
1 157
1 158
1 159
1 160
1 161
1 162
1 163
1 164
1 165
0
0
0
0
1 166
1 167
1 168
1 169
1 170
1 171
1 172
1 173
1 174
1 175
1 176
1 177
1 178
1 179
1 180
1 181
1 182
1 183
1 184
1 185
0
0
0
0
0
0
0
0
0
0
0
0
0
0
0
0
0
1 186
1 187
1 188
1 189
1 190
1 191
1 192
1 193
0
0
0
0
0
1 194
1 195
1 196
1 197
1 198
1 199
1 200
1 201
1 202
1 203
1 204
1 205
1 206
1 207
1 208
1 209
1 210
1 211
1 212
1 213
1 214
1 215
0
0
0
0
0
0
0
0
0
0
0
0
0
0
0
1 216
1 217
1 218
1 219
1 220
1 221
0
0
0
0
0
0
0
1 222
1 223
1 224
1 225
1 226
1 227
1 228
1 229
1 230
1 231
1 232
1 233
1 234
1 235
1 236
1 237
1 238
1 239
1 240
1 241
1 242
1 243
1 244
0
0
0
0
0
0
0
0
0
0
0
0
0
0
1 245
0
0
0
0
0
0
0
0
0
0
0
0
0
1 246
1 247
1 248
1 249
1 250
1 251
1 252
1 253
1 254
1 255
1 256
1 257
1 258
1 259
1 260
1 261
1 262
1 263
1 264
1 265
1 266
0
0
0
0
0
0
0
0
0
0
0
0
0
0
0
0
0
0
0
0
0
0
0
0
0
0
0
0
0
1 267
1 268
1 269
1 270
1 271
1 272
1 273
1 274
1 275
1 276
1 277
1 278
1 279
1 280
1 281
1 282
1 283
1 284
1 285
1 286
1 287
0
0
0
0
0
0
0
0
0
0
0
0
0
0
0
0
0
0
0
0
0
0
0
0
0
0
0
0
0
1 288
1 289
1 290
1 291
1 292
1 293
1 294
1 295
1 296
1 297
1 298
1 299
1 300
1 301
1 302
1 303
1 304
1 305
1 306
1 307
0
0
0
0
0
0
0
0
0
0
0
0
0
0
0
0
0
0
0
0
0
0
0
0
0
0
0
0
0
0
0
1 308
1 309
1 310
1 311
1 312
1 313
1 314
1 315
1 316
1 317
1 318
1 319
1 320
1 321
1 322
1 323
1 324
1 325
1 326
0
0
0
0
0
0
0
0
0
0
0
0
0
0
0
0
0
0
0
0
0
0
0
0
0
0
0
0
0
0
0
1 327
1 328
1 329
1 330
1 331
1 332
1 333
1 334
1 335
1 336
1 337
1 338
1 339
1 340
1 341
1 342
1 343
1 344
0
0
0
0
0
0
0
0
0
0
0
0
0
0
0
0
0
0
0
0
0
0
0
0
0
0
0
0
0
0
0
0
0
1 345
1 346
1 347
1 348
1 349
1 350
1 351
1 352
1 353
1 354
1 355
1 356
1 357
1 358
1 359
1 360
1 361
0
0
0
0
0
0
0
0
0
0
0
0
0
0
0
0
0
0
0
0
0
0
0
0
0
0
0
0
0
0
0
0
0
1 362
1 363
1 364
1 365
1 366
1 367
1 368
1 369
1 370
1 371
1 372
1 373
1 374
1 375
1 376
1 377
0
0
0
0
0
0
0
0
0
0
0
0
0
0
0
0
0
0
0
0
0
0
0
0
0
0
0
0
0
0
0
0
0
0
1 378
1 379
1 380
1 381
1 382
1 383
1 384
1 385
1 386
1 387
1 388
1 389
1 390
1 391
1 392
1 393
0
0
0
0
0
0
0
0
0
0
0
0
0
0
0
0
0
0
0
0
0
0
0
0
0
0
0
0
0
0
0
0
0
0
0
1 394
1 395
1 396
1 397
1 398
1 399
1 400
1 401
1 402
1 403
1 404
1 405
1 406
1 407
0
0
0
0
0
0
0
0
0
0
0
0
0
0
0
0
0
0
0
0
0
0
0
0
0
0
0
0
0
0
0
0
0
0
0
0
1 408
1 409
1 410
1 411
1 412
1 413
1 414
1 415
1 416
1 417
1 418
1 419
1 420
1 421
0
0
0
0
0
0
0
0
0
0
0
0
0
0
0
0
0
0
0
0
0
0
0
0
0
0
0
0
0
0
0
0
0
0
0
0
1 422
1 423
1 424
1 425
1 426
1 427
1 428
1 429
1 430
1 431
1 432
1 433
1 434
0
0
0
0
0
0
0
0
0
0
0
0
0
0
0
0
0
0
0
0
0
0
0
0
0
0
0
0
0
0
0
0
0
0
0
0
0
0
1 435
1 436
1 437
1 438
1 439
1 440
1 441
1 442
1 443
1 444
1 445
1 446
0
0
0
0
0
0
0
0
0
0
0
0
0
0
0
0
0
0
0
0
0
0
0
0
0
0
0
0
0
0
0
0
0
0
0
0
0
0
1 447
1 448
1 449
1 450
1 451
1 452
1 453
1 454
1 455
1 456
1 457
0
0
0
0
0
0
0
0
0
0
0
0
0
0
0
0
0
0
0
0
0
0
0
0
0
0
0
0
0
0
0
0
0
0
0
0
0
0
0
0
1 458
1 459
1 460
1 461
1 462
1 463
1 464
1 465
1 466
1 467
0
0
0
0
0
0
0
0
0
0
0
0
0
0
0
0
0
0
0
0
0
0
0
0
0
0
0
0
0
0
0
0
0
0
0
0
0
0
0
0
1 468
1 469
1 470
1 471
1 472
1 473
1 474
1 475
1 476
0
0
0
0
0
0
0
0
0
0
0
0
0
0
0
0
0
0
0
0
0
0
0
0
0
0
0
0
0
0
0
0
0
0
0
0
0
0
0
0
0
1 477
1 478
1 479
1 480
1 481
1 482
1 483
1 484
1 485
0
0
0
0
0
0
0
0
0
0
0
0
0
0
0
0
0
0
0
0
0
0
0
0
0
0
0
0
0
0
0
0
0
0
0
0
0
0
0
0
0
0
1 486
1 487
1 488
1 489
1 490
1 491
1 492
0
0
0
0
0
0
0
0
0
0
0
0
0
0
0
0
0
0
0
0
0
0
0
0
0
0
0
0
0
0
0
0
0
0
0
0
0
0
0
0
0
0
0
1 493
1 494
1 495
1 496
1 497
1 498
1 499
0
0
0
0
0
0
0
0
0
0
0
0
0
0
0
0
0
0
0
0
0
0
0
0
0
0
0
0
0
0
0
0
0
0
0
0
0
0
0
0
0
0
0
1 500
1 501
1 502
1 503
1 504
1 505
1 506
0
0
0
0
0
0
0
0
0
0
0
0
0
0
0
0
0
0
0
0
0
0
0
0
0
0
0
0
0
0
0
0
0
0
0
0
0
0
0
0
0
0
0
0
1 507
1 508
1 509
1 510
1 511
1 512
0
0
0
0
0
0
0
0
0
0
0
0
0
0
0
0
0
0
0
0
0
0
0
0
0
0
0
0
0
0
0
0
0
0
0
0
0
0
0
0
0
0
0
0
1 513
1 514
1 515
1 516
1 517
1 518
1 519
0
0
0
0
0
0
0
0
0
0
0
0
0
0
0
0
0
0
0
0
0
0
0
0
0
0
0
0
0
0
0
0
0
0
0
0
0
0
0
0
0
0
0
0
1 520
1 521
1 522
1 523
1 524
1 525
0
0
0
0
0
0
0
0
0
0
0
0
0
0
0
0
0
0
0
0
0
0
0
0
0
0
0
0
0
0
0
0
0
0
0
0
0
0
0
0
0
0
0
0
1 526
1 527
1 528
1 529
1 530
1 531
0
0
0
0
0
0
0
0
0
0
0
0
0
0
0
0
0
0
0
0
0
0
0
0
0
0
0
0
0
0
0
0
0
0
0
0
0
0
0
0
0
0
0
0
1 532
1 533
1 534
1 535
1 536
1 537
0
0
0
0
0
0
0
0
0
0
0
0
0
0
0
0
0
0
0
0
0
0
0
0
0
0
0
0
0
0
0
0
0
0
0
0
0
0
0
0
0
0
0
0
0
1 538
1 539
1 540
1 541
1 542
1 543
0
0
0
0
0
0
0
0
0
0
0
0
0
0
0
0
0
0
0
0
0
0
0
0
0
0
0
0
0
0
0
0
0
0
0
0
0
0
0
0
0
0
0
0
1 544
1 545
1 546
1 547
1 548
1 549
0
0
0
0
0
0
0
0
0
0
0
0
0
0
0
0
0
0
0
0
0
0
0
0
0
0
0
0
0
0
0
0
0
0
0
0
0
0
0
0
0
0
0
0
1 550
1 551
1 552
1 553
1 554
1 555
0
0
0
0
0
0
0
0
0
0
0
0
0
0
0
0
0
0
0
0
0
0
0
0
0
0
0
0
0
0
0
0
0
0
0
0
0
0
0
0
0
0
0
0
0
1 556
1 557
1 558
1 559
1 560
0
0
0
0
0
0
0
0
0
0
0
0
0
0
0
0
0
0
0
0
0
0
0
0
0
0
0
0
0
0
0
0
0
0
0
0
0
0
0
0
0
0
0
0
0
1 561
1 562
0
0
0
0
0
0
0
0
0
0
0
0
0
0
0
0
0
0
0
0
0
0
0
0
0
0
0
0
0
0
0
0
0
0
0
0
0
0
0
0
0
0
0
0
0
0
0
0
0
0
0
0
0
0
0
0
0
0
0
0
0
0
0
0
0
0
0
0
0
0
0
0
0
0
0
0
0
0
0
0
0
0
0
0
0
0
0
0
0
0
0
0
0
0
0
0
0
0
0
0
0
0
0
0
0
0
0
0
0
0
0
0
0
0
0
0
0
0
0
0
0
0
0
0
0
0
0
0
0
0
0
0
0
0
0
0
0
0
0
0
0
0
0
0
0
0
0
0
0
0
0
0
0
0
0
0
0
0
0
0
0
0
0
0
0
0
0
0
0
0
0
0
0
0
0
0
0
0
0
0
0
0
0
0
0
0
0
0
0
0
0
0
0
0
0
0
0
0
0
0
0
0
0
0
0
0
0
0
0
0
0
0
0
0
0
0
0
0
0
0
0
