ply
format ascii 1.0
obj_info num_cols 50
obj_info num_rows 50
element vertex 712
property float x
property float y
property float z
element range_grid 2500
property list uchar int vertex_indices
end_header
-29.6821312 23.1664012 -5.3277773
-29.0957709 23.2051103 -3.2267722
-28.4813701 23.2583569 -1.1340066
-27.8922941 23.2993734 0.9584928
-24.8310255 23.3318187 -6.0839129
-24.3244679 23.3386063 -4.0342733
-23.8860224 23.3099698 -1.9750926
-23.4389539 23.2857182 0.0837047
-20.5212875 23.3426008 -6.7648238
-20.0031565 23.3631828 -4.7710359
-19.5233856 23.3632352 -2.7733927
-19.1193238 23.3221398 -0.7631257
-18.5597428 23.3658996 1.2185731
-15.9822236 23.3400161 -5.4591748
-15.5188924 23.3378490 -3.5095144
-15.0848361 23.3192101 -1.5553151
-14.6177390 23.3192779 0.3928693
-12.0255076 23.3920178 -6.1321163
-11.6401072 23.3515064 -4.2207996
-11.2461298 23.3157695 -2.3090843
-10.7888307 23.3171308 -0.4081576
-10.3163881 23.3275701 1.4886608
-8.3303213 23.4002653 -6.7628457
-7.9511695 23.3614260 -4.8974096
-7.5414741 23.3409201 -3.0355611
-7.1413977 23.3144523 -1.1712334
-6.7274774 23.2963445 0.6911078
-4.8480614 23.3821789 -7.3586854
-4.4315964 23.3720799 -5.5429016
-4.0536285 23.3377129 -3.7204379
-3.6405130 23.3253966 -1.9033406
-3.1941613 23.3342169 -0.0932910
-1.0584964 23.3909359 -6.1611397
-0.7204949 23.3360547 -4.3748874
-0.3083374 23.3294410 -2.6003132
0.1554457 23.3569071 -0.8370603
0.5688721 23.3513673 0.9356550
2.1474155 23.3978321 -6.7492330
2.5256422 23.3749098 -5.0108764
2.9364115 23.3739972 -3.2780692
3.3373920 23.3664871 -1.5437406
3.7166637 23.3441058 0.1955102
5.1988959 23.3936513 -7.3094829
5.6166563 23.4041905 -5.6167364
5.9521830 23.3570278 -3.9093336
6.3711700 23.3685540 -2.2175964
6.7514670 23.3527881 -0.5180620
7.2138752 23.3956071 1.1607777
-6.2926693 13.4154980 6.7123153
8.5453868 23.4111941 -6.1914944
8.9212322 23.3983347 -4.5294898
9.2681900 23.3642920 -2.8611486
9.6624331 23.3648136 -1.2025151
10.0663439 23.3725849 0.4530265
-1.1429532 14.7519632 5.3364004
-1.0533830 14.4833623 7.3382789
-1.0826277 14.1231014 9.3936378
-1.8170983 13.2277023 11.7125526
11.3919930 23.4476394 -6.7491258
11.7012631 23.3907648 -5.1112239
12.1016512 23.4024991 -3.4900878
12.4934282 23.4078839 -1.8681537
12.8239604 23.3665411 -0.2313686
13.2981350 23.4353698 1.3672081
2.5910179 14.8625365 6.3247283
2.9397243 14.7926405 8.2052311
3.2443180 14.6877238 10.1044109
3.3834465 14.4520551 12.0700799
3.1860196 13.9487624 14.1807879
2.3349001 12.9224736 16.5918596
14.0645923 23.4394931 -7.2741139
14.3887290 23.3986220 -5.6732409
14.7238060 23.3660244 -4.0729607
15.1386601 23.3960790 -2.4901329
15.4594397 23.3520111 -0.8853549
15.8570731 23.3687775 0.6999051
5.6704341 14.9183838 5.4772849
6.0987602 14.9178523 7.2901185
6.5193950 14.9112104 9.1050312
6.8742566 14.8511930 10.9440728
7.1930680 14.7612478 12.8001469
7.4152093 14.5911783 14.7011672
7.5861335 14.3772341 16.6340577
7.3727729 13.8426374 18.7577343
6.2077669 12.5096370 21.3784209
16.9630410 23.4014772 -6.2117015
17.3297496 23.3998243 -4.6514138
17.6940217 23.3962618 -3.0909767
18.0440586 23.3810915 -1.5271976
18.3812504 23.3552828 0.0404952
18.7636232 23.3667103 1.5954233
8.9812899 14.9208372 6.4601667
9.3826141 14.9053151 8.2428252
9.8198687 14.9199465 10.0123696
10.1929674 14.8806318 11.8059065
10.5953396 14.8658828 13.5887655
10.9323203 14.7952643 15.4009226
11.2685201 14.7233482 17.2168819
11.4979463 14.5586714 19.0890846
11.5878736 14.2713803 21.0425622
11.2582103 13.6153088 23.2403700
19.4732151 23.4345321 -6.7360536
19.8255821 23.4272917 -5.2054822
20.1768668 23.4191584 -3.6747616
20.4932592 23.3814550 -2.1351121
20.8441651 23.3728696 -0.6036008
21.2207595 23.3862923 0.9200766
11.7488293 14.9214218 5.6634273
12.1540429 14.9161591 7.4073149
12.5774920 14.9268131 9.1440839
12.9664203 14.9075030 10.8934427
13.3556161 14.8883353 12.6431799
13.7924615 14.9111815 14.3720736
14.1424569 14.8572292 16.1401273
14.5186097 14.8261737 17.8976230
14.8530803 14.7574724 19.6780870
15.1381800 14.6435758 21.4889634
15.4076600 14.5143824 23.3147513
11.8090681 10.8541029 27.4711416
21.9091186 23.4871632 -7.2444206
22.1922986 23.4261864 -5.7312035
22.5151090 23.3992484 -4.2245610
22.8822010 23.4109538 -2.7283909
23.2047238 23.3835915 -1.2207912
23.5752590 23.3985755 0.2731598
14.4130563 14.9240401 4.8963367
14.8260815 14.9329819 6.6014043
15.2102761 14.9161794 8.3162888
15.6154683 14.9183057 10.0231054
15.9834118 14.8866832 11.7451053
16.4032755 14.9023114 13.4448700
16.7829529 14.8812718 15.1623355
17.1901091 14.8855164 16.8666140
17.5611575 14.8563607 18.5891254
17.9761140 14.8680297 20.2883928
15.8083755 12.4532001 23.4839535
10.6450675 7.1815583 28.6325161
24.4750692 23.4292800 -6.2382294
24.8144057 23.4226258 -4.7651879
25.1376318 23.4013863 -3.2881008
25.4565426 23.3760834 -1.8091525
25.8376410 23.4075909 -0.3483525
26.1967228 23.4192451 1.1175843
17.3890057 14.9418807 5.8288170
17.7837327 14.9417200 7.5046748
18.1468136 14.9120437 9.1927751
18.5234210 14.8948857 10.8761273
18.9203042 14.8968365 12.5506524
19.3125204 14.8944786 14.2267632
19.7062451 14.8936489 15.9016891
20.0813777 14.8750376 17.5859978
19.4524456 13.8851572 19.8315280
14.7394728 8.9120455 24.5216123
9.3314806 3.2034696 29.9136794
26.6866273 23.4442771 -6.7292984
26.9915117 23.4115850 -5.2770961
27.3496805 23.4285969 -3.8374482
27.6770245 23.4168281 -2.3904067
27.9867174 23.3883001 -0.9377925
28.3288480 23.3904622 0.5051025
19.8750270 14.9675857 5.0784366
20.2445727 14.9506353 6.7296447
20.6015098 14.9213990 8.3863443
20.9876011 14.9203357 10.0314759
21.3582128 14.9042156 11.6832214
21.7197307 14.8790746 13.3396962
22.1090805 14.8813145 14.9827921
22.3518739 14.7378017 16.7038883
18.5294590 10.5232899 20.7235256
13.7177128 5.2651698 25.5566478
8.0373914 -0.9321048 31.2141583
28.5165047 23.4899530 -8.6265704
28.8161171 23.4576048 -7.2021575
29.1393610 23.4477864 -5.7821086
29.4477269 23.4235325 -4.3581437
29.7912098 23.4333324 -2.9433353
30.1034724 23.4127402 -1.5198419
30.4242431 23.4003985 -0.0985670
30.8024615 23.4449223 1.3023456
22.5943003 14.9375750 5.9910933
22.9616086 14.9249772 7.6114276
23.3114666 14.8947725 9.2394989
23.7137038 14.9173872 10.8444853
24.0836476 14.9074758 12.4635241
24.4343604 14.8778651 14.0924657
22.0265292 12.0065328 17.2163365
11.1446700 0.3236921 25.3139297
12.4664092 1.2217680 26.7545697
28.3358111 23.5533152 -18.8125517
28.6509006 23.5415185 -17.4184876
28.9359071 23.5008013 -16.0221413
29.2500607 23.4878773 -14.6269806
29.5615859 23.4723550 -13.2312981
29.9010666 23.4840266 -11.8391723
30.1991913 23.4553553 -10.4412737
30.5530809 23.4814472 -9.0528010
30.8399090 23.4414356 -7.6518820
31.1775898 23.4517625 -6.2613572
31.4600854 23.4069943 -4.8574444
31.8102567 23.4300143 -3.4709540
32.1279924 23.4205194 -2.0759999
32.4389109 23.4040677 -0.6787119
32.7563761 23.3942324 0.7166256
24.9000363 14.9645512 5.2636311
23.7663515 13.4041074 7.4698154
23.8048571 13.0472553 9.2415203
25.0814869 13.9836006 10.4556084
26.1775922 14.7405489 11.7097398
25.3032211 13.4181766 13.9468162
21.2617067 8.7049983 17.9832812
11.6154041 -2.0712811 25.4856859
11.2817475 -2.9316590 27.9422890
28.8317828 23.3312449 -24.5511293
29.2677812 23.4404352 -23.1704023
29.7004709 23.5476339 -21.7950787
30.0037069 23.5296460 -20.4249951
30.3172139 23.5216366 -19.0546963
30.6174240 23.5005100 -17.6838070
30.9462497 23.5076304 -16.3142674
31.2432767 23.4832052 -14.9425454
31.5475880 23.4659091 -13.5708997
31.8757770 23.4725827 -12.2021228
32.2109358 23.4864811 -10.8351782
32.5174645 23.4714488 -9.4639636
32.8356562 23.4682906 -8.0948757
33.1261969 23.4367044 -6.7195397
33.4717557 23.4618488 -5.3573609
33.7770599 23.4454359 -3.9853389
34.0928186 23.4398817 -2.6161603
34.3958594 23.4209619 -1.2428423
34.7185958 23.4227836 0.1238775
35.0465859 23.4303160 1.4880607
23.3318743 10.5363389 7.8434430
23.9723267 10.8068455 9.3912421
25.2414446 11.7618733 10.6303936
26.4569157 12.6696279 11.8472822
24.6461468 10.2702796 14.6022221
11.5868494 -4.5617969 23.6858979
12.6444848 -3.9090422 25.3429994
10.0012063 -7.3781519 29.2190376
28.9284528 22.1095751 -27.5388076
29.9735596 22.8217863 -26.0922396
30.8012906 23.3257707 -24.6926907
31.2964822 23.5033429 -23.3318288
31.6522722 23.5430537 -21.9828399
31.9588247 23.5336241 -20.6361568
32.2523812 23.5110062 -19.2891619
32.5789848 23.5219119 -17.9429075
32.8836994 23.5105945 -16.5960842
33.1765210 23.4869905 -15.2480563
33.4970360 23.4919014 -13.9024326
33.8092111 23.4882692 -12.5562715
34.1121707 23.4750361 -11.2088370
34.4302302 23.4776452 -9.8639574
34.7394777 23.4710433 -8.5177312
35.0527757 23.4687706 -7.1725262
35.3739412 23.4749865 -5.8296427
35.6599338 23.4434933 -4.4773986
35.9719007 23.4398597 -3.1321191
36.2577711 23.4078582 -1.7782489
36.5890999 23.4253699 -0.4397582
36.9399812 23.4647150 0.8898498
29.5937976 14.9767737 5.4304466
29.9484336 14.9716880 6.9637605
25.4167432 9.4894311 10.8050131
26.6982247 10.4972002 12.0106584
23.9026290 6.8927223 15.3201950
13.0761872 -5.9177251 23.2849255
13.9541143 -5.4470799 25.0393059
30.8789991 22.1014997 -27.6324008
31.9161971 22.8344831 -26.2056120
32.6865486 23.3018740 -24.8308568
33.2190199 23.5292678 -23.4892550
33.5413727 23.5415625 -22.1642123
33.8426133 23.5320918 -20.8402082
34.1660249 23.5458153 -19.5164929
34.4800900 23.5499365 -18.1933739
34.7717405 23.5304677 -16.8693861
35.0686168 23.5164333 -15.5453336
35.3765549 23.5141681 -14.2222302
35.6820278 23.5093136 -12.8990525
35.9726254 23.4883993 -11.5736441
36.2731121 23.4780991 -10.2494635
36.5706638 23.4645612 -8.9245602
36.9130632 23.5003083 -7.6099258
37.2141446 23.4908300 -6.2865700
37.4171241 23.3721504 -4.9350521
37.5268713 23.1478326 -3.5491729
37.5237378 22.7939200 -2.1147608
37.4719593 22.3808904 -0.6460603
37.4735357 22.0238898 0.8210790
31.6401692 14.9773054 4.7587465
32.0039875 14.9899061 6.2594527
25.6100319 7.1676648 10.9783800
26.8313941 8.1340472 12.2361310
23.1321052 3.3383197 16.0711924
14.8631370 -6.9099835 22.7147684
13.2843107 -9.3371919 25.9078040
32.6707821 21.9947486 -27.7346270
33.7435159 22.7940365 -26.3202765
34.5250752 23.2939679 -24.9634024
35.0028293 23.4762548 -23.6454941
35.3996806 23.5740900 -22.3385031
35.6916975 23.5603583 -21.0372065
35.9845435 23.5474582 -19.7356634
36.2972169 23.5560561 -18.4346170
36.5691682 23.5203224 -17.1318439
36.9209827 23.5720631 -15.8345661
37.1890242 23.5318722 -14.5308314
37.4062290 23.4348072 -13.2188751
37.5135397 23.2138834 -11.8855252
37.5042597 22.8594564 -10.5211734
37.4444826 22.4439651 -9.1305509
37.4446540 22.0919538 -7.7354115
37.4620942 21.7557111 -6.3289982
37.4557173 21.3882474 -4.9006086
37.4621136 21.0313570 -3.4595612
37.4816424 20.6856464 -2.0067244
37.4925297 20.3258213 -0.5348756
37.5066925 19.9656674 0.9522617
33.6314918 14.9928496 4.1039050
33.4293390 14.3385903 5.8324100
25.8227181 4.7967816 11.1499724
26.5158629 5.1528718 12.6991118
16.5341386 -7.4451829 19.9816448
16.9451189 -7.5045478 21.9716762
34.4866828 21.9739581 -27.8239309
35.5159102 22.7574576 -26.4310883
36.2093683 23.1828947 -25.0996338
36.7605011 23.4567958 -23.7951174
37.1975508 23.6078377 -22.5068489
37.3794810 23.4773921 -21.2290548
37.5009886 23.2781218 -19.9454672
37.4852197 22.9225892 -18.6491132
37.4458605 22.5365083 -17.3363908
37.4651831 22.2127728 -16.0120474
37.4345142 21.8283600 -14.6685878
37.4633625 21.5079877 -13.3164390
37.4472813 21.1321281 -11.9434503
37.4562518 20.7811146 -10.5587128
37.4594845 20.4194075 -9.1574755
37.4587187 20.0488644 -7.7394330
37.4659222 19.6834793 -6.3071197
37.4736217 19.3144582 -4.8587404
37.4602068 18.9158869 -3.3872412
37.4857047 18.5594727 -1.9111615
37.4856081 18.1678841 -0.4095332
37.5081146 17.7991863 1.1008800
35.4618663 14.8911293 3.5113363
32.9424381 11.3642014 6.2736112
26.0576134 2.3788591 11.3185742
25.8288572 1.5900138 13.3668618
19.7904123 -6.5050320 18.6136635
16.5047880 -11.2224536 22.6682314
36.2176143 21.9228014 -27.9141831
37.1802307 22.6623728 -26.5444433
37.4639487 22.6448443 -25.2660312
37.4338796 22.2714830 -24.0079143
37.4393168 21.9345079 -22.7330983
37.4471152 21.5965368 -21.4444858
37.4340481 21.2307768 -20.1418925
37.4394487 20.8823596 -18.8247356
37.4344970 20.5179781 -17.4925573
37.4327348 20.1532401 -16.1454147
37.4559439 19.8138332 -14.7855660
37.4654038 19.4542630 -13.4096264
37.4559275 19.0679877 -12.0154813
37.4634394 18.6976596 -10.6079157
37.4540584 18.3026538 -9.1809370
37.4712764 17.9353576 -7.7431247
37.4651945 17.5352999 -6.2832739
37.4688814 17.1425398 -4.8087512
37.4974466 16.7758964 -3.3248380
37.5020816 16.3751224 -1.8164968
37.4824701 15.9391975 -0.2812896
37.5251429 15.5764574 1.2484572
35.5528127 12.6557875 3.6615625
32.4677628 8.2799610 6.7207814
26.2503960 -0.1697878 11.5157768
25.1135368 -2.1658094 14.0674933
20.5688266 -8.6152273 18.5860848
37.4785995 21.3921539 -28.0606488
37.4194833 20.9759395 -26.8168755
37.4289838 20.6349893 -25.5501135
37.4277453 20.2777066 -24.2705758
37.4440144 19.9370608 -22.9759415
37.4535209 19.5846090 -21.6677928
37.4534791 19.2168332 -20.3453989
37.4344265 18.8221390 -19.0075607
37.4564391 18.4724110 -17.6556863
37.4417668 18.0742542 -16.2866508
37.4781147 17.7336847 -14.9063620
37.4501801 17.3103996 -13.5037187
37.4685590 16.9392875 -12.0904945
37.4699669 16.5427917 -10.6586155
37.4660000 16.1349259 -9.2088502
37.4796960 15.7444050 -7.7458705
37.4733206 15.3238913 -6.2609290
37.4730002 14.9060341 -4.7596277
37.4809387 14.4937018 -3.2428505
37.4710037 14.0533829 -1.7019203
37.4823236 13.6352036 -0.1496458
37.5397300 13.2719243 1.4024312
35.1862315 9.7442668 4.0164300
32.0297732 5.1129401 7.1630589
26.4918529 -2.7384211 11.6977600
24.3799993 -6.1134858 14.7971486
19.6683201 -13.0274770 19.4968884
37.5091826 19.7898939 -29.6376482
37.4204631 19.3242035 -28.3962147
37.4352426 18.9769506 -27.1239000
37.4301155 18.6019097 -25.8400876
30.9222520 10.3656897 -25.0346645
30.7940779 9.7872967 -23.5698045
37.4552809 16.3302116 -17.8230077
37.4570795 15.9332038 -16.4330540
37.4513316 15.5220569 -15.0261917
37.4812592 15.1512510 -13.6070001
37.4718944 14.7260125 -12.1665644
37.4667312 14.3010973 -10.7092608
37.4738577 13.8869430 -9.2367916
37.4574379 13.4372547 -7.7414437
37.4688390 13.0184333 -6.2344187
37.4915414 12.6093565 -4.7129231
37.4980757 12.1739006 -3.1688249
37.5125450 11.7436290 -1.6087946
37.4985467 11.2699167 -0.0194324
37.4872514 10.7939237 1.5894461
34.7909053 6.6718985 4.3936897
31.5848715 1.8014141 7.6210483
26.7126319 -5.4202792 11.8988993
23.5438670 -10.3815408 15.6019211
37.4333362 17.6518117 -30.0070431
37.4249190 17.2632932 -28.7335898
37.4473394 16.9084114 -27.4413567
33.7651970 11.9551460 -26.5258685
32.9392616 10.5071197 -25.1847482
32.7714471 9.8679841 -23.7496707
33.0149756 9.7405842 -22.2766222
33.6476460 10.1058365 -20.7964232
37.4293269 14.0828843 -17.9949390
37.4681778 13.7136944 -16.5840668
37.4554819 13.2730941 -15.1534055
37.4686254 12.8610271 -13.7081822
37.4652743 12.4222925 -12.2437615
37.4713756 11.9907653 -10.7631259
37.4792271 11.5563166 -9.2651432
37.4805727 11.1078219 -7.7476979
37.4815145 10.6532528 -6.2115091
37.4905069 10.2039774 -4.6586622
37.4884527 9.7339992 -3.0833755
37.4909466 9.2643718 -1.4897806
37.5188146 8.8239335 0.1141718
37.3187370 8.0603146 1.8305642
34.3863716 3.4552468 4.7855949
25.5090176 -9.6017898 10.7512949
26.8862125 -8.2607984 12.1333603
37.4589408 15.9598138 -31.6491860
37.4161039 15.5140333 -30.3784551
37.4456513 15.1547500 -29.0795276
37.4799230 14.7973663 -27.7665382
35.7230148 12.1425836 -26.6390873
34.8764622 10.6288996 -25.3307484
34.6310291 9.8760787 -23.9270486
34.8635857 9.7373232 -22.4770575
35.4021179 9.9981934 -21.0187850
36.5516540 11.0683309 -19.5806903
37.5049841 11.8912219 -18.1773103
37.4646737 11.3974830 -16.7392731
37.4752628 10.9661438 -15.2865509
37.4639016 10.4998829 -13.8140210
37.4670582 10.0476567 -12.3250250
37.4845586 9.6094938 -10.8204014
37.4759407 9.1299250 -9.2926882
37.4765930 8.6572210 -7.7476191
37.4947405 8.2029908 -6.1877987
37.5089160 7.7374507 -4.6081107
37.5116741 7.2498605 -3.0054431
37.5012803 6.7373245 -1.3777849
37.5127945 6.2495514 0.2630291
36.9992814 4.9987832 2.1417458
33.9806353 0.0971082 5.1892928
25.7545265 -12.4753983 10.9328355
26.4109472 -12.1568718 12.7085399
37.4401305 13.3574323 -30.7545996
37.4400159 12.9414097 -29.4413628
37.4550391 12.5404229 -28.1106486
37.4238800 12.0736890 -26.7704891
36.7117064 10.6958351 -25.4754578
36.4609067 9.9186352 -24.0973955
36.6061576 9.6651477 -22.6736416
37.1415547 9.9370070 -21.2346931
37.5166773 9.9939375 -19.8047876
37.4753744 9.4807507 -18.3614649
37.4586595 8.9951897 -16.8998713
37.4739773 8.5481120 -15.4223463
37.4939227 8.1019638 -13.9278989
37.4629299 7.5786462 -12.4083435
37.4809243 7.1180616 -10.8766808
37.4881960 6.6363987 -9.3244677
37.4930708 6.1451823 -7.7523719
37.4931506 5.6407687 -6.1591776
37.4892783 5.1241248 -4.5443202
37.5085429 4.6346020 -2.9158248
37.5167020 4.1223643 -1.2632542
37.5154747 3.5895049 0.4141584
36.7122732 1.8538504 2.4484548
33.4908339 -3.5351929 5.6426686
37.4401404 11.0959875 -31.1481411
37.4405521 10.6601883 -29.8145954
37.4597989 10.2447657 -28.4624466
37.4648713 9.8050438 -27.0969013
37.4514813 9.3346897 -25.7170193
37.4603470 8.8893946 -24.3181556
37.4424115 8.4014306 -22.9039756
37.4473806 7.9395299 -21.4710974
37.4731564 7.5012323 -20.0210092
37.4756538 7.0245417 -18.5535468
37.4865969 6.5539501 -17.0684583
37.4813579 6.0542465 -15.5638877
37.4729133 5.5436071 -14.0396612
37.4961829 5.0725634 -12.5002642
37.4649371 4.5157754 -10.9329141
37.4884740 4.0324619 -9.3548733
37.4973961 3.5212426 -7.7543064
37.5127503 3.0129590 -6.1350933
37.5148926 2.4781749 -4.4916245
37.5181738 1.9380523 -2.8269518
37.5121610 1.3766075 -1.1370260
37.5429540 0.8640452 0.5615533
36.3503582 -1.5428142 2.7960572
33.0307909 -7.2867888 6.0958874
37.5222631 8.8696324 -31.5384761
37.4435508 8.3027380 -30.2004154
37.4554642 7.8558973 -28.8279774
37.4736161 7.4124215 -27.4386861
37.4647205 6.9251757 -26.0361783
37.4731138 6.4566021 -24.6146024
37.4786809 5.9781729 -23.1760272
37.4476257 5.4408678 -21.7207059
37.4735568 4.9796879 -20.2456435
37.4806991 4.4852016 -18.7528221
37.4737684 3.9637120 -17.2406176
37.4987185 3.4828242 -15.7114964
37.5104086 2.9759753 -14.1625806
37.4799964 2.3993305 -12.5881740
37.5141343 1.9127683 -11.0027999
37.5037182 1.3520228 -9.3894949
37.5006656 0.7951578 -7.7560284
37.4846217 0.2108536 -6.0972424
37.5099992 -0.3169341 -4.4276073
37.5225162 -0.8719290 -2.7327769
37.5192020 -1.4593690 -1.0100274
37.5435991 -2.0108893 0.7255697
35.9598743 -5.1374859 3.1662741
32.5448072 -11.2523678 6.5748587
37.4537182 5.8719092 -30.5985793
37.4674454 5.4050032 -29.2039742
37.4595987 4.9009292 -27.7957933
37.4472549 4.3839917 -26.3701486
37.4535928 3.8881086 -24.9244198
37.4466073 3.3662142 -23.4615613
37.4744571 2.8897018 -21.9787654
37.4720320 2.3616253 -20.4786180
37.4897053 1.8571597 -18.9596093
37.4787717 1.3026273 -17.4203615
37.4731428 0.7490027 -15.8609059
37.5092142 0.2524512 -14.2854441
37.4796242 -0.3526063 -12.6818703
37.4837271 -0.9130286 -11.0611337
37.5180267 -1.4334068 -9.4251320
37.4993090 -2.0447977 -7.7567025
37.5270754 -2.5902989 -6.0769211
37.5089777 -3.2169243 -4.3622480
37.5194592 -3.8059181 -2.6323617
37.5237335 -4.4131649 -0.8769460
37.5586792 -4.9785347 0.8905330
35.5492368 -8.9303807 3.5564722
37.4452577 3.3258837 -31.0147081
37.4722540 2.8546416 -29.5947759
37.4567363 2.3135716 -28.1645154
37.4770608 1.8198563 -26.7111033
37.4711645 1.2799263 -25.2426113
37.4610724 0.7266309 -23.7551888
37.4812420 0.2128622 -22.2469600
37.4680363 -0.3594067 -20.7204347
37.4893181 -0.8852653 -19.1739722
37.4841022 -1.4597431 -17.6069684
37.5189253 -1.9784149 -16.0221442
37.4942550 -2.5988900 -14.4115576
37.5058837 -3.1694257 -12.7830060
37.5223618 -3.7398392 -11.1339338
37.5040146 -4.3747190 -9.4562949
37.5122301 -4.9747693 -7.7607652
37.5132108 -5.5950514 -6.0403781
37.5289825 -6.1993714 -4.3005333
37.5285716 -6.8392490 -2.5319164
37.5115095 -7.5162360 -0.7322497
37.5613798 -8.0891570 1.0673922
35.1139028 -12.9430972 3.9695670
37.4873960 0.7632014 -31.4359555
37.4685013 0.1966765 -30.0015459
37.4573408 -0.3651172 -28.5465080
37.4581047 -0.9155361 -27.0705840
37.4774845 -1.4438257 -25.5737480
37.4813209 -2.0036351 -24.0594761
37.4883369 -2.5657479 -22.5253573
37.5023850 -3.1240255 -20.9712356
37.5126122 -3.6959232 -19.3971174
37.4895629 -4.3296364 -17.8008265
37.5038294 -4.9108076 -16.1845135
37.4901816 -5.5459289 -14.5439938
37.4994063 -6.1517774 -12.8833549
37.5222364 -6.7432336 -11.2026683
37.5102236 -7.4015902 -9.4929465
37.5086027 -8.0515417 -7.7609881
37.5286339 -8.6736676 -6.0102909
37.5274200 -9.3411771 -4.2296048
37.5205682 -10.0280050 -2.4214965
37.5544675 -10.6535826 -0.6018796
37.5767937 -11.3085779 1.2466359
37.5233240 -1.9037219 -31.8739630
37.4665384 -2.5590572 -30.4233926
37.4667528 -3.1315553 -28.9416422
37.4828482 -3.6859460 -27.4383430
37.4654758 -4.3020819 -25.9194490
37.5102206 -4.8247817 -24.3747553
37.4793008 -5.4791622 -22.8152740
37.4893636 -6.0744070 -21.2322783
37.4881094 -6.6966560 -19.6281657
37.5111919 -7.2864945 -18.0030901
37.4935508 -7.9534484 -16.3539072
37.5161798 -8.5609785 -14.6850229
37.5090235 -9.2281734 -12.9900680
37.5173833 -9.8779243 -11.2734198
37.5081816 -10.5674988 -9.5293856
37.5436788 -11.1884663 -7.7703325
37.5368160 -11.8932627 -5.9768534
37.5353410 -12.5986838 -4.1585580
37.5479734 -13.2890933 -2.3183442
37.5468828 -14.0144649 -0.4467894
37.5498254 -14.7432421 1.4509415
37.4557391 -5.4355834 -30.8632108
37.4577048 -6.0354501 -29.3550566
37.4777274 -6.6132351 -27.8243113
37.5023510 -7.1910892 -26.2735704
37.4842216 -7.8491221 -24.7065756
37.5092020 -8.4427363 -23.1148971
37.5378584 -9.0382215 -21.5027029
37.5226747 -9.7177007 -19.8694010
37.5081360 -10.4055647 -18.2123579
37.5082006 -11.0775320 -16.5321402
37.5352838 -11.7113455 -14.8309020
37.4971471 -12.4701386 -13.0982030
37.5243932 -13.1227871 -11.3491752
37.5064177 -13.8664512 -9.5674367
37.5311707 -14.5433337 -7.7685645
37.5364172 -15.2658689 -5.9396003
37.5342749 -16.0127320 -4.0816486
37.5552827 -16.7277194 -2.2036487
37.5472742 -17.5077826 -0.2879701
37.5174004 -8.3023181 -31.3058309
37.4955771 -8.9742247 -29.7767984
37.4755522 -9.6522342 -28.2252714
37.5196084 -10.2282937 -26.6437940
33.6690353 -17.6244922 -25.3752745
33.6960689 -18.2949747 -23.6390799
34.1528534 -18.2124611 -21.8693942
34.9775931 -17.4711235 -20.1051043
37.5279843 -14.3222541 -16.7180361
37.5302470 -15.0375775 -14.9802981
37.5115229 -15.8019443 -13.2145532
37.5326916 -16.5036094 -11.4283129
37.5485341 -17.2255983 -9.6159363
37.5449793 -17.9948434 -7.7730182
37.5490817 -18.7611305 -5.9042385
37.5513223 -19.5425729 -4.0068743
37.5638895 -20.3160539 -2.0842284
37.5392004 -21.1737010 -0.1188612
37.5758527 -11.2867121 -31.7662769
37.4774677 -12.1289291 -30.2253275
37.4804560 -12.8021733 -28.6414677
36.5497237 -15.1617970 -27.1494549
35.6638766 -17.4739970 -25.5745237
35.6097421 -18.3041812 -23.8708109
35.9968933 -18.3364581 -22.1258072
36.8053261 -17.5902380 -20.3804937
37.5874965 -16.8817405 -18.6604194
37.5319995 -17.7341833 -16.9106439
37.5008976 -18.5531431 -15.1337884
37.5317502 -19.2663227 -13.3365695
37.5259010 -20.0606312 -11.5083281
37.5416630 -20.8251665 -9.6563561
37.5254876 -21.6635861 -7.7697180
37.5650786 -22.4053717 -5.8680625
37.6519234 -23.0650945 -3.9541016
37.4865257 -15.3646469 -30.6873502
37.5193495 -16.0198218 -29.0694453
37.5159538 -16.7516680 -27.4350628
37.5026582 -17.5126227 -25.7778083
37.4554572 -18.3485759 -24.0978601
37.5424159 -18.9420525 -22.3853927
37.5290005 -19.7363005 -20.6536363
37.5407729 -20.4938297 -18.8959352
37.5345558 -21.2976605 -17.1115271
37.5307632 -22.1089003 -15.2999632
37.5896311 -22.8089165 -13.4686435
37.5166026 -19.4512579 -29.5221586
37.5120857 -20.2261105 -27.8563196
37.5466932 -20.9366652 -26.1614342
37.5031236 -21.8102749 -24.4493812
37.5336308 -22.5514066 -22.7056904
0
0
0
0
0
0
0
0
0
0
0
0
0
0
0
0
0
0
0
0
0
0
0
0
0
0
0
0
0
0
0
0
0
0
0
0
0
0
0
0
0
0
0
0
0
0
0
0
0
0
0
0
0
0
0
0
0
0
0
0
0
0
0
0
0
0
0
0
0
0
0
0
0
0
0
0
0
0
0
0
0
0
0
0
0
0
0
0
0
0
0
0
0
0
0
0
0
0
0
0
0
0
0
0
0
0
0
0
0
0
0
0
0
0
0
0
0
0
0
0
0
0
0
0
0
0
0
0
0
0
0
0
0
0
0
0
0
0
0
0
0
0
0
0
0
0
0
0
0
0
0
0
0
0
0
0
0
0
0
0
0
0
0
0
0
0
0
0
0
0
0
0
0
0
0
0
0
0
0
0
0
0
0
0
0
0
0
0
0
0
0
0
0
0
0
0
0
0
0
0
0
0
0
0
0
0
0
0
0
0
0
0
0
0
0
0
0
0
0
0
0
0
0
0
0
0
0
0
0
0
0
0
0
0
0
0
0
0
0
0
0
0
0
0
0
0
0
0
0
0
0
0
0
0
0
0
0
0
0
0
0
0
0
0
0
0
0
0
0
0
0
0
0
0
0
0
0
0
0
0
0
0
0
0
0
0
0
0
0
0
0
0
0
0
0
0
0
0
0
0
0
0
0
0
0
0
0
0
0
0
0
0
0
0
0
0
0
0
0
0
0
0
0
0
0
0
0
0
0
0
0
0
0
0
0
0
0
0
0
0
0
0
0
0
0
0
0
0
0
0
0
0
0
0
0
0
0
0
0
0
0
0
0
0
0
0
0
0
0
0
0
0
0
0
0
0
0
0
0
0
0
0
0
0
0
0
0
0
0
0
0
0
0
0
0
0
0
0
0
0
0
0
0
0
0
0
0
0
0
0
0
0
0
0
0
0
0
0
0
1 0
1 1
1 2
1 3
0
0
0
0
0
0
0
0
0
0
0
0
0
0
0
0
0
0
0
0
0
0
0
0
0
0
0
0
0
0
0
0
0
0
0
0
0
0
0
0
0
0
0
0
0
0
1 4
1 5
1 6
1 7
0
0
0
0
0
0
0
0
0
0
0
0
0
0
0
0
0
0
0
0
0
0
0
0
0
0
0
0
0
0
0
0
0
0
0
0
0
0
0
0
0
0
0
0
0
0
1 8
1 9
1 10
1 11
1 12
0
0
0
0
0
0
0
0
0
0
0
0
0
0
0
0
0
0
0
0
0
0
0
0
0
0
0
0
0
0
0
0
0
0
0
0
0
0
0
0
0
0
0
0
0
0
1 13
1 14
1 15
1 16
0
0
0
0
0
0
0
0
0
0
0
0
0
0
0
0
0
0
0
0
0
0
0
0
0
0
0
0
0
0
0
0
0
0
0
0
0
0
0
0
0
0
0
0
0
0
1 17
1 18
1 19
1 20
1 21
0
0
0
0
0
0
0
0
0
0
0
0
0
0
0
0
0
0
0
0
0
0
0
0
0
0
0
0
0
0
0
0
0
0
0
0
0
0
0
0
0
0
0
0
0
1 22
1 23
1 24
1 25
1 26
0
0
0
0
0
0
0
0
0
0
0
0
0
0
0
0
0
0
0
0
0
0
0
0
0
0
0
0
0
0
0
0
0
0
0
0
0
0
0
0
0
0
0
0
0
1 27
1 28
1 29
1 30
1 31
0
0
0
0
0
0
0
0
0
0
0
0
0
0
0
0
0
0
0
0
0
0
0
0
0
0
0
0
0
0
0
0
0
0
0
0
0
0
0
0
0
0
0
0
0
0
1 32
1 33
1 34
1 35
1 36
0
0
0
0
0
0
0
0
0
0
0
0
0
0
0
0
0
0
0
0
0
0
0
0
0
0
0
0
0
0
0
0
0
0
0
0
0
0
0
0
0
0
0
0
0
1 37
1 38
1 39
1 40
1 41
0
0
0
0
0
0
0
0
0
0
0
0
0
0
0
0
0
0
0
0
0
0
0
0
0
0
0
0
0
0
0
0
0
0
0
0
0
0
0
0
0
0
0
0
0
1 42
1 43
1 44
1 45
1 46
1 47
1 48
0
0
0
0
0
0
0
0
0
0
0
0
0
0
0
0
0
0
0
0
0
0
0
0
0
0
0
0
0
0
0
0
0
0
0
0
0
0
0
0
0
0
0
0
1 49
1 50
1 51
1 52
1 53
1 54
1 55
1 56
1 57
0
0
0
0
0
0
0
0
0
0
0
0
0
0
0
0
0
0
0
0
0
0
0
0
0
0
0
0
0
0
0
0
0
0
0
0
0
0
0
0
0
1 58
1 59
1 60
1 61
1 62
1 63
1 64
1 65
1 66
1 67
1 68
1 69
0
0
0
0
0
0
0
0
0
0
0
0
0
0
0
0
0
0
0
0
0
0
0
0
0
0
0
0
0
0
0
0
0
0
0
0
0
0
1 70
1 71
1 72
1 73
1 74
1 75
1 76
1 77
1 78
1 79
1 80
1 81
1 82
1 83
1 84
0
0
0
0
0
0
0
0
0
0
0
0
0
0
0
0
0
0
0
0
0
0
0
0
0
0
0
0
0
0
0
0
0
0
0
0
1 85
1 86
1 87
1 88
1 89
1 90
1 91
1 92
1 93
1 94
1 95
1 96
1 97
1 98
1 99
1 100
0
0
0
0
0
0
0
0
0
0
0
0
0
0
0
0
0
0
0
0
0
0
0
0
0
0
0
0
0
0
0
0
0
0
1 101
1 102
1 103
1 104
1 105
1 106
1 107
1 108
1 109
1 110
1 111
1 112
1 113
1 114
1 115
1 116
1 117
1 118
0
0
0
0
0
0
0
0
0
0
0
0
0
0
0
0
0
0
0
0
0
0
0
0
0
0
0
0
0
0
0
0
1 119
1 120
1 121
1 122
1 123
1 124
1 125
1 126
1 127
1 128
1 129
1 130
1 131
1 132
1 133
1 134
1 135
1 136
0
0
0
0
0
0
0
0
0
0
0
0
0
0
0
0
0
0
0
0
0
0
0
0
0
0
0
0
0
0
0
0
0
1 137
1 138
1 139
1 140
1 141
1 142
1 143
1 144
1 145
1 146
1 147
1 148
1 149
1 150
1 151
1 152
1 153
0
0
0
0
0
0
0
0
0
0
0
0
0
0
0
0
0
0
0
0
0
0
0
0
0
0
0
0
0
0
0
0
0
1 154
1 155
1 156
1 157
1 158
1 159
1 160
1 161
1 162
1 163
1 164
1 165
1 166
1 167
1 168
1 169
1 170
0
0
0
0
0
0
0
0
0
0
0
0
0
0
0
0
0
0
0
0
0
0
0
0
0
0
0
0
0
0
0
0
1 171
1 172
1 173
1 174
1 175
1 176
1 177
1 178
1 179
1 180
1 181
1 182
1 183
1 184
1 185
1 186
1 187
0
0
0
0
0
0
0
0
0
0
0
0
0
0
0
0
0
0
0
0
0
0
0
0
0
0
1 188
1 189
1 190
1 191
1 192
1 193
1 194
1 195
1 196
1 197
1 198
1 199
1 200
1 201
1 202
1 203
1 204
1 205
1 206
1 207
1 208
1 209
1 210
1 211
0
0
0
0
0
0
0
0
0
0
0
0
0
0
0
0
0
0
0
0
0
0
1 212
1 213
1 214
1 215
1 216
1 217
1 218
1 219
1 220
1 221
1 222
1 223
1 224
1 225
1 226
1 227
1 228
1 229
1 230
1 231
1 232
1 233
1 234
1 235
1 236
1 237
1 238
1 239
0
0
0
0
0
0
0
0
0
0
0
0
0
0
0
0
0
0
0
0
1 240
1 241
1 242
1 243
1 244
1 245
1 246
1 247
1 248
1 249
1 250
1 251
1 252
1 253
1 254
1 255
1 256
1 257
1 258
1 259
1 260
1 261
1 262
1 263
1 264
1 265
1 266
1 267
1 268
0
0
0
0
0
0
0
0
0
0
0
0
0
0
0
0
0
0
0
0
0
1 269
1 270
1 271
1 272
1 273
1 274
1 275
1 276
1 277
1 278
1 279
1 280
1 281
1 282
1 283
1 284
1 285
1 286
1 287
1 288
1 289
1 290
1 291
1 292
1 293
1 294
1 295
1 296
1 297
0
0
0
0
0
0
0
0
0
0
0
0
0
0
0
0
0
0
0
0
0
1 298
1 299
1 300
1 301
1 302
1 303
1 304
1 305
1 306
1 307
1 308
1 309
1 310
1 311
1 312
1 313
1 314
1 315
1 316
1 317
1 318
1 319
1 320
1 321
1 322
1 323
1 324
1 325
0
0
0
0
0
0
0
0
0
0
0
0
0
0
0
0
0
0
0
0
0
0
1 326
1 327
1 328
1 329
1 330
1 331
1 332
1 333
1 334
1 335
1 336
1 337
1 338
1 339
1 340
1 341
1 342
1 343
1 344
1 345
1 346
1 347
1 348
1 349
1 350
1 351
1 352
1 353
0
0
0
0
0
0
0
0
0
0
0
0
0
0
0
0
0
0
0
0
0
0
1 354
1 355
1 356
1 357
1 358
1 359
1 360
1 361
1 362
1 363
1 364
1 365
1 366
1 367
1 368
1 369
1 370
1 371
1 372
1 373
1 374
1 375
1 376
1 377
1 378
1 379
1 380
0
0
0
0
0
0
0
0
0
0
0
0
0
0
0
0
0
0
0
0
0
0
0
1 381
1 382
1 383
1 384
1 385
1 386
1 387
1 388
1 389
1 390
1 391
1 392
1 393
1 394
1 395
1 396
1 397
1 398
1 399
1 400
1 401
1 402
1 403
1 404
1 405
1 406
1 407
0
0
0
0
0
0
0
0
0
0
0
0
0
0
0
0
0
0
0
0
0
0
1 408
1 409
1 410
1 411
1 412
1 413
0
0
0
1 414
1 415
1 416
1 417
1 418
1 419
1 420
1 421
1 422
1 423
1 424
1 425
1 426
1 427
1 428
1 429
1 430
1 431
0
0
0
0
0
0
0
0
0
0
0
0
0
0
0
0
0
0
0
0
0
0
0
1 432
1 433
1 434
1 435
1 436
1 437
1 438
1 439
0
1 440
1 441
1 442
1 443
1 444
1 445
1 446
1 447
1 448
1 449
1 450
1 451
1 452
1 453
1 454
1 455
1 456
0
0
0
0
0
0
0
0
0
0
0
0
0
0
0
0
0
0
0
0
0
0
0
1 457
1 458
1 459
1 460
1 461
1 462
1 463
1 464
1 465
1 466
1 467
1 468
1 469
1 470
1 471
1 472
1 473
1 474
1 475
1 476
1 477
1 478
1 479
1 480
1 481
1 482
1 483
0
0
0
0
0
0
0
0
0
0
0
0
0
0
0
0
0
0
0
0
0
0
0
0
1 484
1 485
1 486
1 487
1 488
1 489
1 490
1 491
1 492
1 493
1 494
1 495
1 496
1 497
1 498
1 499
1 500
1 501
1 502
1 503
1 504
1 505
1 506
1 507
0
0
0
0
0
0
0
0
0
0
0
0
0
0
0
0
0
0
0
0
0
0
0
0
0
0
1 508
1 509
1 510
1 511
1 512
1 513
1 514
1 515
1 516
1 517
1 518
1 519
1 520
1 521
1 522
1 523
1 524
1 525
1 526
1 527
1 528
1 529
1 530
1 531
0
0
0
0
0
0
0
0
0
0
0
0
0
0
0
0
0
0
0
0
0
0
0
0
0
0
1 532
1 533
1 534
1 535
1 536
1 537
1 538
1 539
1 540
1 541
1 542
1 543
1 544
1 545
1 546
1 547
1 548
1 549
1 550
1 551
1 552
1 553
1 554
1 555
0
0
0
0
0
0
0
0
0
0
0
0
0
0
0
0
0
0
0
0
0
0
0
0
0
0
0
1 556
1 557
1 558
1 559
1 560
1 561
1 562
1 563
1 564
1 565
1 566
1 567
1 568
1 569
1 570
1 571
1 572
1 573
1 574
1 575
1 576
1 577
0
0
0
0
0
0
0
0
0
0
0
0
0
0
0
0
0
0
0
0
0
0
0
0
0
0
0
0
1 578
1 579
1 580
1 581
1 582
1 583
1 584
1 585
1 586
1 587
1 588
1 589
1 590
1 591
1 592
1 593
1 594
1 595
1 596
1 597
1 598
1 599
0
0
0
0
0
0
0
0
0
0
0
0
0
0
0
0
0
0
0
0
0
0
0
0
0
0
0
0
1 600
1 601
1 602
1 603
1 604
1 605
1 606
1 607
1 608
1 609
1 610
1 611
1 612
1 613
1 614
1 615
1 616
1 617
1 618
1 619
1 620
0
0
0
0
0
0
0
0
0
0
0
0
0
0
0
0
0
0
0
0
0
0
0
0
0
0
0
0
0
1 621
1 622
1 623
1 624
1 625
1 626
1 627
1 628
1 629
1 630
1 631
1 632
1 633
1 634
1 635
1 636
1 637
1 638
1 639
1 640
1 641
0
0
0
0
0
0
0
0
0
0
0
0
0
0
0
0
0
0
0
0
0
0
0
0
0
0
0
0
0
0
1 642
1 643
1 644
1 645
1 646
1 647
1 648
1 649
1 650
1 651
1 652
1 653
1 654
1 655
1 656
1 657
1 658
1 659
1 660
0
0
0
0
0
0
0
0
0
0
0
0
0
0
0
0
0
0
0
0
0
0
0
0
0
0
0
0
0
0
0
1 661
1 662
1 663
1 664
1 665
1 666
1 667
1 668
0
1 669
1 670
1 671
1 672
1 673
1 674
1 675
1 676
1 677
1 678
0
0
0
0
0
0
0
0
0
0
0
0
0
0
0
0
0
0
0
0
0
0
0
0
0
0
0
0
0
0
0
1 679
1 680
1 681
1 682
1 683
1 684
1 685
1 686
1 687
1 688
1 689
1 690
1 691
1 692
1 693
1 694
1 695
0
0
0
0
0
0
0
0
0
0
0
0
0
0
0
0
0
0
0
0
0
0
0
0
0
0
0
0
0
0
0
0
0
0
1 696
1 697
1 698
1 699
1 700
1 701
1 702
1 703
1 704
1 705
1 706
0
0
0
0
0
0
0
0
0
0
0
0
0
0
0
0
0
0
0
0
0
0
0
0
0
0
0
0
0
0
0
0
0
0
0
0
0
0
0
0
1 707
1 708
1 709
1 710
1 711
0
0
0
0
0
0
0
0
0
0
0
0
0
0
0
0
0
0
0
0
0
0
0
0
0
0
0
0
0
0
0
0
