ply
format ascii 1.0
obj_info num_cols 50
obj_info num_rows 50
element vertex 738
property float x
property float y
property float z
element range_grid 2500
property list uchar int vertex_indices
end_header
-27.5515624 23.1443411 1.7597266
-29.5789681 22.3919221 1.8039674
-31.5552699 21.6858454 1.8043412
-33.5000604 20.9733939 1.8322452
-21.1128494 22.9385830 1.7848010
-23.2417097 22.1952121 1.7973784
-25.3257589 21.4724908 1.8016139
-27.3626362 20.7801976 1.7830346
-29.3704784 20.0754910 1.8007001
-31.3344055 19.3986210 1.7979184
-33.2637805 18.7268593 1.8061661
-35.1487651 18.0944975 1.7755596
-14.3611475 22.7516755 1.7725865
-16.5931890 22.0220707 1.7456897
-18.7946913 21.2811175 1.7547994
-20.9482259 20.5627849 1.7528907
-23.0637310 19.8492487 1.7641954
-25.1337373 19.1583998 1.7629921
-27.1584666 18.4938359 1.7431460
-28.9303510 18.3973711 0.9152899
-33.0391460 16.4842632 1.8181528
-34.9185808 15.8592138 1.8133886
-36.7636850 15.2451753 1.8093906
-7.2843034 22.5568459 1.7583438
-9.6382530 21.8162520 1.7248977
-11.9726901 21.0455528 1.7544220
-14.2571758 20.2928447 1.7807200
-16.4835350 19.5752485 1.7787422
-18.6480981 18.9047491 1.7298072
-20.7861931 18.2187929 1.7223886
-22.9016114 17.5069748 1.7723672
-24.8947695 16.9838152 1.5642880
-26.2199807 17.9556273 -0.8567099
-27.8003126 18.4201749 -2.5427362
-34.6825297 13.6835215 1.8073047
-36.5129665 13.1090477 1.7788515
-37.5269455 15.4115100 -2.7700266
8.6780034 10.3843700 27.9598620
7.9716452 11.2585856 25.9986128
2.7390799 23.1977455 1.6798860
0.1481029 22.3614351 1.7310966
-2.3350022 21.6116031 1.6875989
-4.7980516 20.8346494 1.7039089
-7.2079005 20.0757229 1.7176347
-9.5424499 19.3704914 1.6772042
-11.8567784 18.6386681 1.6957239
-14.1364671 17.9005188 1.7449322
-16.3366602 17.2325195 1.7128404
-18.5104784 16.5487328 1.7237750
-20.6418758 15.8772158 1.7364208
-22.7330419 15.2155235 1.7539363
-24.1737870 15.8540736 -0.1952679
-25.2823719 17.3127772 -3.4286543
-32.5809007 12.1403692 1.7630712
-34.4467843 11.5447077 1.7881144
-36.2728358 10.9760507 1.7870174
-37.6299869 11.9359434 -0.6913448
6.8827973 6.7228946 29.7753164
5.7809698 7.1464168 28.3725955
4.6802866 7.5935681 26.9266129
3.5469752 8.0328847 25.4769497
2.4593684 8.5432884 23.9207577
1.4302166 9.1441764 22.2291247
0.3510009 9.7268304 20.5433870
-0.6463968 10.4356954 18.6688891
-1.4501830 11.4102641 16.4089490
5.3130600 21.3687701 1.6869712
2.7177991 20.5900699 1.6831625
0.1752671 19.8248172 1.6838413
-2.3233652 19.0629098 1.7028418
-4.7597121 18.3295754 1.7035690
-7.1330617 17.6290827 1.6784901
-9.4979108 16.8857267 1.7377992
-11.7859046 16.1981560 1.7364203
-14.0214722 15.5348231 1.7193120
-16.2286399 14.8591302 1.7410414
-18.3923929 14.1953977 1.7648152
-20.4891668 13.5884043 1.7206086
-22.5752868 12.9388616 1.7614104
-23.7779927 14.0093133 -0.8996426
-24.4458778 16.3544116 -5.6299671
-32.3575007 10.0065891 1.7417571
-34.2227750 9.4088591 1.8097325
-36.0336622 8.8780543 1.7837647
-37.6055301 9.0446010 0.5957643
7.2669058 3.7815278 31.6954697
6.1445380 4.1293881 30.3972496
4.9610729 4.4398742 29.1369097
3.7917273 4.7799814 27.8273647
2.6097041 5.1265200 26.4983323
1.4580653 5.5222510 25.0914625
0.2749006 5.9089321 23.6844085
-0.9189845 6.3073691 22.2486975
-2.1377000 6.7035479 20.8034541
-3.3440010 7.1383029 19.2907893
-4.5473556 7.6045714 17.7190231
-5.7776563 8.0703744 16.1330854
-6.9632536 8.6226919 14.4053717
-8.1750727 9.1815226 12.6504385
-9.3576789 9.8198507 10.7585936
-10.5076968 10.5513248 8.7054137
-11.3797263 11.7321531 5.9414628
-11.7072000 13.8082056 1.7563002
-13.9154590 13.1907670 1.7116530
-16.1181180 12.5274931 1.7584949
-18.2524763 11.9166614 1.7424379
-20.3433420 11.3225174 1.7185337
-22.4132660 10.7060484 1.7493765
-24.4341093 10.1183023 1.7522965
-26.4275982 9.5195362 1.7917569
-28.3607747 8.9796919 1.7513604
-30.2658421 8.4353701 1.7353145
-32.1467601 7.8757369 1.7622892
-33.9964354 7.3163017 1.8063535
-35.8008749 6.7976400 1.7971149
-37.5506037 6.3605113 1.6612989
6.9241108 1.6185287 31.8447177
5.7342857 1.8825254 30.6505359
4.5556335 2.1699188 29.4157707
3.3571032 2.4546846 28.1751433
2.1341366 2.7324225 26.9349118
0.9128795 3.0272903 25.6613467
-0.2833705 3.3633912 24.3192347
-1.5315384 3.6673461 23.0124225
-2.7679303 4.0019121 21.6509231
-4.0283289 4.3319177 20.2851205
-5.2656275 4.7085445 18.8389182
-6.5420092 5.0660236 17.4091774
-7.8157482 5.4512262 15.9254195
-9.1098828 5.8391836 14.4247356
-10.4008962 6.2597108 12.8606011
-11.7353608 6.6558676 11.3209387
-13.0402024 7.1236660 9.6544418
-14.3374885 7.6408101 7.8933941
-15.6770705 8.1404280 6.1437643
-17.0367597 8.6542206 4.3545100
-18.3355715 9.3141258 2.3068354
-20.2148495 9.0622742 1.7594979
-22.2367717 8.5329369 1.6878082
-24.2497341 7.9637962 1.7008085
-26.2413573 7.3724069 1.7702846
-28.1661309 6.8498654 1.7393474
-30.0691536 6.3090882 1.7570835
-31.9307762 5.7930380 1.7484861
-33.7568503 5.2922331 1.7292613
-35.5615116 4.7712705 1.7623681
-37.3280647 4.2749808 1.7674079
-37.6437398 8.4587501 -6.7841104
6.7620854 -0.3588799 31.7982852
5.5685621 -0.1173811 30.6276825
4.3848045 0.1447680 29.4195849
3.1732745 0.3967128 28.2171689
1.9335189 0.6372477 27.0226893
0.7219552 0.9168718 25.7626690
-0.5235053 1.1806910 24.5165534
-1.7801270 1.4492628 23.2543019
-3.0400759 1.7307886 21.9632373
-4.3144647 2.0150956 20.6583028
-5.6047842 2.3008803 19.3413753
-6.8837223 2.6180367 17.9655519
-8.1844944 2.9323459 16.5834286
-9.5130467 3.2365934 15.2066860
-10.8398918 3.5652817 13.7800510
-12.1569636 3.9312560 12.2813153
-13.5287239 4.2550462 10.8397257
-14.9060060 4.5980670 9.3550360
-16.2776622 4.9784759 7.7957116
-17.6792322 5.3489064 6.2404000
-19.0601883 5.7857890 4.5583779
-20.4829997 6.1979348 2.9043876
-22.1137034 6.3000305 1.7790598
-24.0944599 5.7884279 1.7345373
-26.0499517 5.2675027 1.7235541
-27.9833285 4.7292585 1.7609831
-29.8603004 4.2433205 1.7211684
-31.7211013 3.7289091 1.7496443
-33.5455917 3.2288697 1.7685478
-35.3333904 2.7475735 1.7689981
-37.0859083 2.2857720 1.7486416
-37.6029953 5.5969532 -5.4296280
6.7696116 -2.1758973 31.5666395
5.5525080 -1.9683041 30.4355625
4.3491712 -1.7388795 29.2649479
3.1294058 -1.5110862 28.0886614
1.8873461 -1.2900609 26.9145337
0.6499305 -1.0527055 25.7076650
-0.6069129 -0.8193680 24.4986089
-1.8593641 -0.5682901 23.2536183
-3.1054301 -0.2960002 21.9662956
-4.3992147 -0.0537938 20.7173514
-5.7070828 0.1896413 19.4578588
-6.9947831 0.4702992 18.1291030
-8.3347384 0.7135362 16.8520650
-9.6572741 0.9934856 15.5053287
-10.9857757 1.2869746 14.1259472
-12.3318353 1.5815780 12.7343184
-13.7032475 1.8676998 11.3468442
-15.0775868 2.1734541 9.9152400
-16.4863671 2.4586733 8.5087868
-17.8839454 2.7851227 7.0193748
-19.2942665 3.1231013 5.4978724
-20.7297499 3.4550647 3.9752932
-22.1634482 3.8238859 2.3739434
-23.9301983 3.6628998 1.7326789
-25.8757970 3.1618657 1.7271880
-27.8030729 2.6374731 1.7825150
-29.6771281 2.1562058 1.7743198
-31.5106436 1.6992152 1.7362920
-33.3209903 1.2313424 1.7347949
-35.1029084 0.7632026 1.7498007
-36.8494563 0.3135376 1.7446351
-37.5826242 2.7848650 -4.0147105
6.8997692 -3.8826467 31.2003321
5.6829149 -3.6865524 30.0763014
4.4729084 -3.4750867 28.9214663
3.2192431 -3.2875359 27.7960564
1.9886593 -3.0709041 26.6180439
0.7406974 -2.8570001 25.4364381
-0.5389697 -2.6584711 24.2717116
-1.7946747 -2.4269682 23.0461024
-3.0594340 -2.1899081 21.8028936
-4.3732484 -1.9846071 20.6037640
-5.6656451 -1.7453113 19.3400247
-6.9671823 -1.4994952 18.0564670
-8.2999620 -1.2694774 16.7910018
-9.6435592 -1.0349175 15.5092366
-10.9767553 -0.7717106 14.1687389
-12.3322086 -0.5143756 12.8289989
-13.7164992 -0.2714590 11.5055898
-15.0900481 0.0046240 10.1134538
-16.4756108 0.2884819 8.6970610
-17.8921327 0.5555001 7.3012668
-19.3276757 0.8202895 5.8998337
-20.7543938 1.1237728 4.4161417
-22.2101484 1.4128790 2.9485757
-23.7714956 1.5601978 1.7413719
-25.7057614 1.0811642 1.7367627
-27.6029028 0.6148486 1.7243001
-29.4696325 0.1505767 1.7242782
-31.3005878 -0.3001877 1.7138669
-33.1091465 -0.7642063 1.7458808
-34.8753190 -1.1969334 1.7311314
-36.6198916 -1.6442369 1.7613404
-37.5657881 0.0725214 -2.6379723
7.1751253 -5.4738188 30.6727471
5.9386287 -5.3009089 29.5729381
4.7168351 -5.1081370 28.4347126
3.4448101 -4.9439912 27.3355654
2.2150844 -4.7376002 26.1608940
0.9774134 -4.5263323 24.9703082
-0.3307899 -4.3619304 23.8502662
-1.6037277 -4.1577147 22.6564668
-2.9095665 -3.9703082 21.4837042
-4.1991568 -3.7565926 20.2582454
-5.5056956 -3.5451983 19.0287333
-6.8069552 -3.3148800 17.7577226
-8.1601260 -3.1207979 16.5427269
-9.4973302 -2.8966518 15.2660550
-10.8356310 -2.6574769 13.9534595
-12.2173786 -2.4484695 12.6873690
-13.5846057 -2.2064994 11.3519813
-14.9761757 -1.9740406 10.0252847
-16.3726538 -1.7281153 8.6641971
-17.8010072 -1.5019134 7.3315678
-19.2273155 -1.2521783 5.9447972
-20.6660617 -0.9961111 4.5361733
-22.1137113 -0.7275205 3.0931327
-23.6291204 -0.5363911 1.7940712
-25.5319521 -0.9618127 1.7262163
-27.4204205 -1.4103945 1.7208302
-29.2797646 -1.8591204 1.7321191
-31.1032817 -2.2948495 1.7329695
-32.8930221 -2.7192095 1.7260557
-34.6556252 -3.1446972 1.7370130
-36.3877255 -3.5633827 1.7490989
-37.5442984 -2.5232296 -1.3433729
7.5424170 -6.9985577 30.0422191
6.2790247 -6.8511089 28.9714970
5.0508555 -6.6707408 27.8398306
3.7894580 -6.5055660 26.7267649
2.5426093 -6.3205293 25.5731660
1.2826841 -6.1355505 24.4123688
-0.0132070 -5.9689300 23.2763958
-1.3051935 -5.7894360 22.1110499
-2.6045085 -5.6054506 20.9305772
-3.9198524 -5.4241438 19.7476751
-5.2296544 -5.2264037 18.5275901
-6.5688919 -5.0430414 17.3262355
-7.9050039 -4.8443401 16.0890250
-9.2509593 -4.6415555 14.8362773
-10.5992408 -4.4265702 13.5523082
-11.9947125 -4.2455751 12.3251915
-13.3676427 -4.0257578 11.0155386
-14.7752199 -3.8278679 9.7402018
-16.1877010 -3.6192299 8.4357585
-17.6054500 -3.3989235 7.0997479
-19.0315784 -3.1694180 5.7364779
-20.4651856 -2.9282105 4.3403174
-21.9214794 -2.6951596 2.9514214
-23.4762020 -2.5844042 1.8071356
-25.3549417 -2.9699702 1.6979186
-27.2390555 -3.4074906 1.7130745
-29.0829515 -3.8261365 1.7045266
-30.8997377 -4.2468477 1.7162605
-32.6799296 -4.6510949 1.7081671
-34.4464412 -5.0844914 1.7792256
-36.1614286 -5.4662596 1.7526166
-37.5271929 -5.0332013 -0.0758684
8.0370665 -8.4412969 29.2678565
6.7690820 -8.3006846 28.1952575
5.5147576 -8.1434814 27.0878241
4.2175838 -8.0084898 26.0132280
2.9709363 -7.8295410 24.8543915
1.7013879 -7.6579391 23.7015138
0.3903442 -7.5085223 22.5821663
-0.9123765 -7.3439054 21.4285499
-2.2212734 -7.1745251 20.2592590
-3.5392722 -7.0023957 19.0778112
-4.8737980 -6.8336417 17.8957270
-6.2123415 -6.6574913 16.6924353
-7.5751964 -6.4917849 15.5022449
-8.9200812 -6.2975971 14.2491762
-10.2873645 -6.1114466 13.0041171
-11.6759494 -5.9330799 11.7670345
-13.0598198 -5.7360248 10.4847180
-14.4673147 -5.5490345 9.2149172
-15.8837834 -5.3566855 7.9263453
-17.3136239 -5.1634986 6.6281146
-18.7477437 -4.9581332 5.2962764
-20.1892373 -4.7429044 3.9350245
-21.6432937 -4.5234040 2.5557707
-23.2852035 -4.5480398 1.6964982
-25.1942950 -4.9743640 1.7163147
-27.0605875 -5.3801198 1.7074756
-28.8952900 -5.7804269 1.7024226
-30.7009586 -6.1788235 1.7087856
-32.4826117 -6.5844801 1.7472410
-34.2200883 -6.9579235 1.7279787
-35.9358407 -7.3409506 1.7454758
-37.5531493 -7.5532615 1.3808760
8.6484821 -9.8193007 28.3603419
7.3672637 -9.6892806 27.2913906
6.0942423 -9.5472400 26.1948223
4.7890755 -9.4196566 25.1189383
3.5015112 -9.2730129 24.0018528
2.2174707 -9.1158639 22.8585845
0.9032250 -8.9720918 21.7341955
-0.4017882 -8.8130837 20.5741510
-1.7034423 -8.6420887 19.3838595
-3.0597600 -8.5043290 18.2519338
-4.4114967 -8.3541280 17.0892296
-5.7522725 -8.1849165 15.8817231
-7.1325437 -8.0389764 14.7143982
-8.4985150 -7.8700221 13.4934145
-9.8680320 -7.6923539 12.2470759
-11.2735265 -7.5364161 11.0387662
-12.6662501 -7.3557011 9.7712113
-14.0668686 -7.1688832 8.4828563
-15.4979637 -6.9996849 7.2246020
-16.9343239 -6.8218527 5.9402407
-18.3814101 -6.6406850 4.6409063
-19.8325548 -6.4475196 3.3071250
-21.2981444 -6.2540238 1.9643364
-23.1305939 -6.5368379 1.6922212
-25.0277488 -6.9407333 1.7083330
-26.8845062 -7.3279250 1.7023776
-28.7070807 -7.7053806 1.6895401
-30.5098182 -8.0955398 1.7219134
-32.2793626 -8.4768922 1.7493396
-34.0085601 -8.8337742 1.7338484
-35.7098127 -9.1863546 1.7225374
-37.3792253 -9.5248208 1.6912899
-37.5661855 -6.2846838 -7.1003494
10.7878365 -11.1888901 28.2442735
9.4088781 -11.1225919 27.2819750
8.1284109 -10.9919945 26.1944723
6.8253304 -10.8691307 25.1159690
5.5230176 -10.7394001 24.0186074
4.1912431 -10.6223883 22.9403954
2.8766898 -10.4872206 21.8208707
1.5427761 -10.3580750 20.7073679
0.2001219 -10.2277973 19.5857659
-1.1073668 -10.0637844 18.3891834
-2.4793976 -9.9390508 17.2666238
-3.8324957 -9.7916236 16.0909666
-5.1851680 -9.6343665 14.8879347
-6.5822973 -9.5037943 13.7348478
-7.9669121 -9.3534244 12.5331869
-9.3533581 -9.1940181 11.3051101
-10.7746757 -9.0551051 10.1149790
-12.1767845 -8.8871964 8.8542020
-13.5905889 -8.7176691 7.5822958
-15.0186057 -8.5489226 6.3045847
-16.4830843 -8.4049517 5.0759546
-17.9368359 -8.2360611 3.7833559
-19.3906962 -8.0515806 2.4468996
-21.0540196 -8.1058971 1.6634038
-22.9793957 -8.5019106 1.6923440
-24.8643891 -8.8836604 1.7039403
-26.7092120 -9.2491297 1.6924080
-28.5041532 -9.5808589 1.6141634
-30.3076086 -9.9661876 1.6817017
-32.0728509 -10.3359163 1.7269213
-33.7960148 -10.6797324 1.7230268
-35.4930988 -11.0232201 1.7328867
-37.1602956 -11.3582383 1.7357739
-37.5222360 -8.7332366 -5.8422194
11.6753104 -12.4458635 27.0398476
10.3672476 -12.3348210 25.9755631
9.0195764 -12.2416836 24.9417569
7.7069896 -12.1225813 23.8511605
6.3859940 -12.0025379 22.7530522
5.0469451 -11.8876032 21.6598361
3.7341926 -11.7492820 20.5124815
2.3376785 -11.6592997 19.4604624
0.9840467 -11.5346176 18.3302922
-0.3767728 -11.4076707 17.1893951
-1.7378695 -11.2732387 16.0262731
-3.1393122 -11.1606255 14.9047526
-4.5114900 -11.0181619 13.7117077
-5.9235669 -10.8980247 12.5620130
-7.3125657 -10.7506700 11.3450712
-8.7137422 -10.6032715 10.1211401
-10.1532861 -10.4788346 8.9432946
-11.5892757 -10.3416751 7.7299404
-13.0293531 -10.1975732 6.4938145
-14.4720748 -10.0442920 5.2291345
-15.9371455 -9.9008389 3.9808414
-17.3961614 -9.7382034 2.6794022
-18.9924425 -9.7132604 1.7066075
-20.9140691 -10.0641165 1.6585359
-22.8200596 -10.4294164 1.6618586
-24.7138878 -10.8158537 1.7343546
-25.8730781 -10.2496835 -0.5879599
-27.1371511 -9.7680943 -2.7199808
-33.5868940 -12.5050736 1.7163000
-35.2722410 -12.8248601 1.7097293
-36.9285612 -13.1367649 1.6962719
-37.5028054 -11.1473152 -4.4929068
12.9244982 -13.5372462 25.4326885
11.5988499 -13.4302208 24.3533312
10.1798958 -13.3704404 23.3678013
8.8215097 -13.2726186 22.2985103
7.4587854 -13.1722789 21.2189679
6.0698039 -13.0824911 20.1573257
4.7249208 -12.9604061 19.0204401
3.3359344 -12.8596434 17.9247757
1.9416505 -12.7565469 16.8188896
0.5549183 -12.6422792 15.6826345
-0.8596087 -12.5403237 14.5688692
-2.2597660 -12.4217437 13.4116760
-3.6846879 -12.3137321 12.2732758
-5.1071660 -12.1966902 11.1082623
-6.5218416 -12.0655497 9.9039469
-7.9513550 -11.9371699 8.6998211
-9.3948561 -11.8111229 7.4950380
-10.8710700 -11.7038614 6.3300368
-12.3216455 -11.5650975 5.0818449
-13.7989872 -11.4400336 3.8610247
-15.2753864 -11.3034398 2.6049961
-16.9058487 -11.3105573 1.7075518
-18.8517282 -11.6505866 1.6641702
-20.7851614 -12.0075090 1.6801716
-22.6830919 -12.3571062 1.6934890
-24.1068122 -12.1650304 0.2951886
-24.8752648 -11.1128190 -3.3997756
-33.3773741 -14.3037866 1.6966219
-35.0614519 -14.6187803 1.7232801
-36.7076555 -14.9110028 1.7007127
-37.5237191 -13.5546803 -2.9637700
14.6327910 -14.4409514 23.3114344
13.1871406 -14.3864329 22.3171842
11.7255631 -14.3376293 21.3326001
10.3021211 -14.2653113 20.2927741
8.8967043 -14.1790567 19.2176222
7.4716644 -14.0994862 18.1532145
6.0410422 -14.0188239 17.0820898
4.5843239 -13.9494034 16.0329354
3.1652040 -13.8525223 14.9153509
1.7243834 -13.7637937 13.8121318
0.2673812 -13.6802835 12.7168139
-1.1707446 -13.5787310 11.5732461
-2.6208709 -13.4790174 10.4289067
-4.0871965 -13.3843283 9.2918258
-5.5305959 -13.2661239 8.0909118
-7.0287408 -13.1815833 6.9689999
-8.4796659 -13.0533406 5.7310618
-9.9807084 -12.9566369 4.5678010
-11.4613314 -12.8349103 3.3343699
-12.9789908 -12.7360701 2.1547514
-14.7968876 -12.9048473 1.6793836
-16.7762611 -13.2417731 1.6618478
-18.7364564 -13.5882449 1.6863087
-20.6532013 -13.9202224 1.6879784
-22.5294884 -14.2389267 1.6691543
-23.6443507 -13.7137915 -0.6748902
-24.0378886 -12.2599636 -5.6438432
-33.1829168 -16.1008643 1.7332185
-34.8434705 -16.3747197 1.6897706
-36.4979610 -16.6792206 1.7498039
-37.3764299 -15.5450057 -2.4494146
17.6327864 -14.7869978 19.7476150
15.9046987 -14.8469763 18.9773272
14.2125452 -14.8911421 18.1728615
12.6465606 -14.8714222 17.2195662
11.1175640 -14.8307233 16.2148847
9.5385991 -14.8149770 15.2679441
8.0030114 -14.7738097 14.2579223
6.4552594 -14.7371468 13.2565462
4.8873196 -14.7100813 12.2768312
3.3922602 -14.6369925 11.1797156
1.8511322 -14.5881119 10.1399802
0.3168110 -14.5316366 9.0779205
-1.1736619 -14.4424105 7.9277862
-2.7038082 -14.3742765 6.8279089
-4.2355755 -14.3025078 5.7145897
-5.7632267 -14.2225769 4.5754692
-7.2928349 -14.1382045 3.4199363
-8.8290118 -14.0525012 2.2561028
-10.6358858 -14.1781529 1.6675932
-12.6672923 -14.5006781 1.6306007
-14.6731476 -14.8259923 1.6176650
-16.6453506 -15.1471197 1.6093265
-18.5913188 -15.4705402 1.6237227
-20.5122740 -15.7977852 1.6654394
-22.3861443 -16.1066022 1.6702704
-24.1752151 -16.3533722 1.5092190
-23.6135445 -13.9430228 -6.4796915
-31.2852465 -17.5747891 1.6987253
-32.9767299 -17.8546374 1.7068385
-34.6396501 -18.1290340 1.7123128
-36.2620040 -18.3768319 1.6490582
-37.0109120 -17.0950332 -3.1916266
21.7158193 -14.7691406 14.9607839
19.9235706 -14.8182469 14.1251048
18.2953699 -14.7902680 13.1012785
16.5390453 -14.8238145 12.2292128
14.8132634 -14.8432230 11.3228971
13.1460497 -14.8329580 10.3415618
11.5294654 -14.7949852 9.2878780
9.7324603 -14.8528257 8.4813476
8.0484905 -14.8502583 7.5185882
6.3176800 -14.8740435 6.6253815
4.4782286 -14.9628458 5.9076953
2.8902203 -14.9038173 4.7934287
1.1980025 -14.9059783 3.8432377
-0.4752298 -14.8956230 2.8581657
-2.1858954 -14.9090473 1.9385921
-4.2444304 -15.1615986 1.6938384
-6.3319400 -15.4513408 1.5682651
-8.4845343 -15.8087103 1.6523881
-10.5529385 -16.1275006 1.6435301
-12.6009274 -16.4537213 1.6733195
-14.5936202 -16.7596361 1.6603873
-16.5485107 -17.0577147 1.6402892
-18.4786268 -17.3585726 1.6443500
-20.3711240 -17.6506480 1.6376914
-22.2340834 -17.9405964 1.6400016
-24.0749033 -18.2356772 1.6735569
-25.8857153 -18.5282507 1.7149612
-27.6287889 -18.7752169 1.6284486
-29.3846614 -19.0651417 1.6913014
-31.0957008 -19.3327076 1.6980244
-32.7769062 -19.5938661 1.6982791
-34.4357819 -19.8581564 1.7225935
-35.7046997 -19.5549742 -0.1011121
-36.4840737 -18.3797226 -4.8269056
30.6108497 -13.6412291 7.8611219
29.1253600 -13.4905324 6.4361211
22.6596757 -14.7582961 7.6713538
20.8903584 -14.7542366 6.6523592
19.0549474 -14.7811566 5.7156634
17.2462334 -14.7959951 4.7473951
15.5124356 -14.7736981 3.6780290
13.7137342 -14.7832192 2.6948793
11.7781655 -14.8650164 1.9135638
9.5047405 -15.1338069 1.6636481
7.1674429 -15.4527392 1.5713797
4.8189220 -15.7959946 1.5667882
2.4980217 -16.1428425 1.5917496
0.2305252 -16.4779616 1.6016458
-1.9984546 -16.8095862 1.6198721
-4.1706986 -17.1256022 1.6099224
-6.3062977 -17.4378844 1.6063158
-8.4077446 -17.7477810 1.6128521
-10.4682581 -18.0501865 1.6136368
-12.5028030 -18.3554033 1.6400161
-14.4962586 -18.6520912 1.6567197
-16.4406275 -18.9328013 1.6394824
-18.3533537 -19.2101401 1.6271534
-20.2385260 -19.4872530 1.6295759
-22.0991018 -19.7668302 1.6554735
-23.9301810 -20.0445449 1.6908960
-25.7162750 -20.3045174 1.6832301
-27.4758830 -20.5635597 1.6869869
-29.1958018 -20.8067152 1.6518251
-30.9001584 -21.0598407 1.6640360
-32.5810862 -21.3149110 1.6970512
-34.0735628 -21.3492047 0.9833277
-34.9602697 -20.5084319 -2.7702119
33.0810611 -14.7495337 4.8952676
31.3456085 -14.6926539 3.6755639
29.4603969 -14.6957445 2.6173828
27.3224196 -14.8070578 1.8606201
24.8481419 -15.0707695 1.5394704
22.1629485 -15.4413817 1.5380757
19.5485748 -15.7970328 1.5153913
16.9410048 -16.1668113 1.5546621
14.4255303 -16.5105542 1.5391915
11.9537885 -16.8502326 1.5318509
9.4835156 -17.2070752 1.5959217
7.1047858 -17.5353301 1.5944435
4.7857147 -17.8497460 1.5699496
2.4768438 -18.1765487 1.6021834
0.2639080 -18.4678826 1.5430682
-1.9460092 -18.7751923 1.5513590
-4.1429325 -19.0939670 1.6141741
-6.2694239 -19.3892639 1.6204591
-8.3574589 -19.6794587 1.6276099
-10.4058917 -19.9632463 1.6309105
-12.4278215 -20.2490762 1.6576642
-14.4053952 -20.5242491 1.6657934
-16.3512406 -20.7970243 1.6820870
-18.2407262 -21.0477578 1.6397621
-20.1086358 -21.3021098 1.6245723
-21.9688919 -21.5725303 1.6798019
-23.7683235 -21.8135589 1.6487264
-25.5550921 -22.0662362 1.6727424
-27.3017723 -22.3051743 1.6630362
-29.0241229 -22.5446223 1.6692467
-30.7184698 -22.7806046 1.6771144
-32.0447113 -22.6106374 0.2248574
-33.0893035 -22.0618153 -2.6252253
-34.0664105 -21.3416516 -6.1415131
36.0121629 -15.7831243 1.4147029
33.1180283 -16.1566925 1.4062202
30.1941826 -16.5580427 1.5026990
27.4310292 -16.9123212 1.4841467
24.7033397 -17.2679236 1.4915869
22.0393211 -17.6130509 1.4893146
19.4056871 -17.9613425 1.5182167
16.8293344 -18.3011323 1.5424258
14.3025102 -18.6353054 1.5701860
11.8734970 -18.9409364 1.5284099
9.4725237 -19.2491270 1.5138206
7.0795702 -19.5699415 1.5591739
4.7433707 -19.8798274 1.5888887
2.4759426 -20.1715895 1.5782407
0.2415676 -20.4627479 1.5837575
-1.9492491 -20.7474548 1.5857647
-4.0925705 -21.0228588 1.5739950
-6.2300213 -21.3125673 1.6283161
-8.2972766 -21.5788765 1.6199437
-10.3345706 -21.8446904 1.6264513
-12.3315715 -22.1032111 1.6238992
-14.2994800 -22.3612213 1.6356653
-16.2235300 -22.6082510 1.6242258
-18.1392391 -22.8690590 1.6779749
-19.9988550 -23.1088284 1.6713599
-21.8133828 -23.3335453 1.6243757
-23.5660009 -23.5269702 1.4753587
-25.0769252 -23.5260648 0.6114316
-26.5915587 -23.5278610 -0.2427557
-28.1082610 -23.5312010 -1.0913483
-29.5185619 -23.4240399 -2.3641193
-30.7512913 -23.1075121 -4.4542568
-31.9248229 -22.6787940 -7.0028487
35.6565202 -18.0990322 1.5017628
32.7443759 -18.4618774 1.5446980
30.0358991 -18.7650625 1.4236221
27.2279757 -19.1189796 1.4840764
24.5122173 -19.4531609 1.5044159
21.9141303 -19.7561562 1.4454158
19.2983722 -20.0804777 1.4764917
16.7121276 -20.4081542 1.5401585
14.2583655 -20.6957001 1.4909266
11.7845950 -21.0064806 1.5394002
9.3659490 -21.3087391 1.5792952
7.0491002 -21.5803329 1.5332433
4.7261941 -21.8696641 1.5670376
2.4700812 -22.1428552 1.5631319
0.2523397 -22.4127090 1.5654406
-1.9450718 -22.6882429 1.6060212
-4.0812897 -22.9482457 1.6085677
-6.1697714 -23.1986047 1.5930527
-8.1366389 -23.3963338 1.3997386
-9.7607885 -23.4057304 0.5174358
-11.4308928 -23.4433745 -0.2584191
-13.0627375 -23.4591436 -1.1151836
-14.6330843 -23.4351633 -2.1235466
-16.2896004 -23.4677191 -2.9155471
-17.8889971 -23.4616919 -3.8561664
-19.5094607 -23.4702646 -4.7402356
-21.1590243 -23.5017615 -5.5332436
-22.7517886 -23.4891565 -6.5009714
-24.4048823 -23.5265746 -7.2681847
35.4480322 -20.3288292 1.4330335
32.5872799 -20.6550188 1.4437397
29.7411157 -20.9900209 1.5072719
27.0347419 -21.2903712 1.4758220
24.3149247 -21.6088716 1.5283044
21.7015178 -21.9026568 1.5168758
19.1384752 -22.1911049 1.5073060
16.6176472 -22.4769838 1.5089066
14.0846367 -22.7816516 1.5983858
11.7264732 -23.0306035 1.5065992
9.3962249 -23.2806924 1.4365146
7.6291856 -23.3028005 0.5376638
5.8358327 -23.3373343 -0.3135096
4.0829055 -23.3551451 -1.2259827
2.4176432 -23.3327253 -2.2914067
0.6210125 -23.3716261 -3.1224105
-1.0936820 -23.3719307 -4.1013906
-2.8605347 -23.3984899 -4.9776654
-4.5164672 -23.3676979 -6.0800168
-6.2818846 -23.3942003 -6.9557579
35.1537346 -22.5548072 1.4625688
32.2925429 -22.8631267 1.5022795
29.6145634 -23.1258577 1.3985749
27.4351805 -23.2369341 0.7542059
25.4812611 -23.2773520 -0.1459921
23.7027908 -23.2593107 -1.2642080
21.9755536 -23.2221289 -2.4573684
19.9197764 -23.3005507 -3.2088384
18.2278867 -23.2488110 -4.4610764
16.2185896 -23.3136399 -5.2599796
14.4514081 -23.2878565 -6.4139195
12.5281992 -23.3222372 -7.3294119
36.4999038 -23.1639887 -6.9252041
34.6177950 -23.1355052 -8.1765715
32.5177904 -23.1726274 -9.1651772
30.4329409 -23.2062986 -10.1654802
28.5075979 -23.1896281 -11.3718359
28.0894954 -22.6729376 -14.6691566
28.1104043 -21.9813974 -18.7483143
28.0823765 -21.2713533 -22.9650986
28.0440480 -20.5275402 -27.3875877
36.2799741 -23.1137566 -21.9757155
0
0
0
0
0
0
0
0
0
0
0
0
0
0
0
0
0
0
0
0
0
0
0
0
0
0
0
0
0
0
0
0
0
0
0
0
0
0
0
0
0
0
0
0
0
0
0
0
0
0
0
0
0
0
0
0
0
0
0
0
0
0
0
0
0
0
0
0
0
0
0
0
0
0
0
0
0
0
0
0
0
0
0
0
0
0
0
0
0
0
0
0
0
0
0
0
0
0
0
0
0
0
0
0
0
0
0
0
0
0
0
0
0
0
0
0
0
0
0
0
0
0
0
0
0
0
0
0
0
0
0
0
0
0
0
0
0
0
0
0
0
0
0
0
0
0
0
0
0
0
0
0
0
0
0
0
0
0
0
0
0
0
0
0
0
0
0
0
0
0
0
0
0
0
0
0
0
0
0
0
0
0
0
0
0
0
0
0
0
0
0
0
0
0
0
0
0
0
0
0
0
0
0
0
0
0
0
0
0
0
0
0
0
0
0
0
0
0
0
0
0
0
0
0
0
0
0
0
0
0
0
0
0
0
0
0
0
0
0
0
0
0
0
0
0
0
0
0
0
0
0
0
0
0
0
0
0
0
0
0
0
0
0
0
0
0
0
0
0
0
0
0
0
0
0
0
0
0
0
0
0
0
0
0
0
0
0
0
0
0
0
0
0
0
0
0
0
0
0
0
0
0
0
0
0
0
0
0
0
0
0
0
0
0
0
0
0
0
0
0
0
0
0
0
0
0
0
0
0
0
0
0
0
0
0
0
0
0
0
0
0
0
0
0
0
0
0
0
0
0
0
0
0
0
0
0
0
0
0
0
0
0
0
0
0
0
0
0
0
0
0
0
0
0
0
0
0
0
0
0
0
0
0
0
0
0
0
0
0
0
0
0
0
0
0
0
0
0
0
0
0
0
0
0
0
0
0
0
0
0
0
0
0
0
0
0
0
0
0
0
0
0
0
0
0
0
0
0
0
0
0
0
0
0
0
0
0
0
0
0
0
0
0
0
0
0
0
0
0
0
0
0
0
0
0
0
0
0
0
0
0
0
0
0
0
0
0
0
0
0
0
0
0
0
0
0
0
0
0
0
0
0
0
0
0
0
0
0
0
0
0
0
0
0
0
0
0
0
0
0
0
0
0
0
0
0
0
0
0
0
0
0
0
0
0
0
0
0
0
0
0
0
0
0
0
0
0
0
0
0
0
0
0
0
0
0
0
0
0
0
0
0
0
0
0
0
0
0
0
0
0
0
0
0
0
0
0
0
0
0
0
0
0
0
0
0
0
0
0
0
0
0
0
0
0
0
0
0
0
0
0
0
0
0
0
0
1 0
1 1
1 2
1 3
0
0
0
0
0
0
0
0
0
0
0
0
0
0
0
0
0
0
0
0
0
0
0
0
0
0
0
0
0
0
0
0
0
0
0
0
0
0
0
0
0
0
0
1 4
1 5
1 6
1 7
1 8
1 9
1 10
1 11
0
0
0
0
0
0
0
0
0
0
0
0
0
0
0
0
0
0
0
0
0
0
0
0
0
0
0
0
0
0
0
0
0
0
0
0
0
0
0
1 12
1 13
1 14
1 15
1 16
1 17
1 18
1 19
0
1 20
1 21
1 22
0
0
0
0
0
0
0
0
0
0
0
0
0
0
0
0
0
0
0
0
0
0
0
0
0
0
0
0
0
0
0
0
0
0
0
1 23
1 24
1 25
1 26
1 27
1 28
1 29
1 30
1 31
1 32
1 33
0
0
1 34
1 35
1 36
0
0
0
0
0
0
0
0
0
0
0
0
0
0
0
0
0
0
0
0
1 37
1 38
0
0
0
0
0
0
0
0
1 39
1 40
1 41
1 42
1 43
1 44
1 45
1 46
1 47
1 48
1 49
1 50
1 51
1 52
0
0
1 53
1 54
1 55
1 56
0
0
0
0
0
0
0
0
0
0
0
0
0
0
0
0
0
0
0
0
1 57
1 58
1 59
1 60
1 61
1 62
1 63
1 64
1 65
1 66
1 67
1 68
1 69
1 70
1 71
1 72
1 73
1 74
1 75
1 76
1 77
1 78
1 79
1 80
0
0
1 81
1 82
1 83
1 84
0
0
0
0
0
0
0
0
0
0
0
0
0
0
0
0
0
0
0
1 85
1 86
1 87
1 88
1 89
1 90
1 91
1 92
1 93
1 94
1 95
1 96
1 97
1 98
1 99
1 100
1 101
1 102
1 103
1 104
1 105
1 106
1 107
1 108
1 109
1 110
1 111
1 112
1 113
1 114
1 115
0
0
0
0
0
0
0
0
0
0
0
0
0
0
0
0
0
0
0
1 116
1 117
1 118
1 119
1 120
1 121
1 122
1 123
1 124
1 125
1 126
1 127
1 128
1 129
1 130
1 131
1 132
1 133
1 134
1 135
1 136
1 137
1 138
1 139
1 140
1 141
1 142
1 143
1 144
1 145
1 146
1 147
0
0
0
0
0
0
0
0
0
0
0
0
0
0
0
0
0
0
1 148
1 149
1 150
1 151
1 152
1 153
1 154
1 155
1 156
1 157
1 158
1 159
1 160
1 161
1 162
1 163
1 164
1 165
1 166
1 167
1 168
1 169
1 170
1 171
1 172
1 173
1 174
1 175
1 176
1 177
1 178
1 179
0
0
0
0
0
0
0
0
0
0
0
0
0
0
0
0
0
0
1 180
1 181
1 182
1 183
1 184
1 185
1 186
1 187
1 188
1 189
1 190
1 191
1 192
1 193
1 194
1 195
1 196
1 197
1 198
1 199
1 200
1 201
1 202
1 203
1 204
1 205
1 206
1 207
1 208
1 209
1 210
1 211
0
0
0
0
0
0
0
0
0
0
0
0
0
0
0
0
0
0
1 212
1 213
1 214
1 215
1 216
1 217
1 218
1 219
1 220
1 221
1 222
1 223
1 224
1 225
1 226
1 227
1 228
1 229
1 230
1 231
1 232
1 233
1 234
1 235
1 236
1 237
1 238
1 239
1 240
1 241
1 242
1 243
0
0
0
0
0
0
0
0
0
0
0
0
0
0
0
0
0
0
1 244
1 245
1 246
1 247
1 248
1 249
1 250
1 251
1 252
1 253
1 254
1 255
1 256
1 257
1 258
1 259
1 260
1 261
1 262
1 263
1 264
1 265
1 266
1 267
1 268
1 269
1 270
1 271
1 272
1 273
1 274
1 275
0
0
0
0
0
0
0
0
0
0
0
0
0
0
0
0
0
0
1 276
1 277
1 278
1 279
1 280
1 281
1 282
1 283
1 284
1 285
1 286
1 287
1 288
1 289
1 290
1 291
1 292
1 293
1 294
1 295
1 296
1 297
1 298
1 299
1 300
1 301
1 302
1 303
1 304
1 305
1 306
1 307
0
0
0
0
0
0
0
0
0
0
0
0
0
0
0
0
0
0
1 308
1 309
1 310
1 311
1 312
1 313
1 314
1 315
1 316
1 317
1 318
1 319
1 320
1 321
1 322
1 323
1 324
1 325
1 326
1 327
1 328
1 329
1 330
1 331
1 332
1 333
1 334
1 335
1 336
1 337
1 338
1 339
0
0
0
0
0
0
0
0
0
0
0
0
0
0
0
0
0
0
1 340
1 341
1 342
1 343
1 344
1 345
1 346
1 347
1 348
1 349
1 350
1 351
1 352
1 353
1 354
1 355
1 356
1 357
1 358
1 359
1 360
1 361
1 362
1 363
1 364
1 365
1 366
1 367
1 368
1 369
1 370
1 371
1 372
0
0
0
0
0
0
0
0
0
0
0
0
0
0
0
0
1 373
1 374
1 375
1 376
1 377
1 378
1 379
1 380
1 381
1 382
1 383
1 384
1 385
1 386
1 387
1 388
1 389
1 390
1 391
1 392
1 393
1 394
1 395
1 396
1 397
1 398
1 399
1 400
1 401
1 402
1 403
1 404
1 405
1 406
0
0
0
0
0
0
0
0
0
0
0
0
0
0
0
0
1 407
1 408
1 409
1 410
1 411
1 412
1 413
1 414
1 415
1 416
1 417
1 418
1 419
1 420
1 421
1 422
1 423
1 424
1 425
1 426
1 427
1 428
1 429
1 430
1 431
1 432
1 433
1 434
0
0
1 435
1 436
1 437
1 438
0
0
0
0
0
0
0
0
0
0
0
0
0
0
0
0
1 439
1 440
1 441
1 442
1 443
1 444
1 445
1 446
1 447
1 448
1 449
1 450
1 451
1 452
1 453
1 454
1 455
1 456
1 457
1 458
1 459
1 460
1 461
1 462
1 463
1 464
1 465
0
0
0
1 466
1 467
1 468
1 469
0
0
0
0
0
0
0
0
0
0
0
0
0
0
0
0
1 470
1 471
1 472
1 473
1 474
1 475
1 476
1 477
1 478
1 479
1 480
1 481
1 482
1 483
1 484
1 485
1 486
1 487
1 488
1 489
1 490
1 491
1 492
1 493
1 494
1 495
1 496
0
0
0
1 497
1 498
1 499
1 500
0
0
0
0
0
0
0
0
0
0
0
0
0
0
0
0
1 501
1 502
1 503
1 504
1 505
1 506
1 507
1 508
1 509
1 510
1 511
1 512
1 513
1 514
1 515
1 516
1 517
1 518
1 519
1 520
1 521
1 522
1 523
1 524
1 525
1 526
1 527
0
0
1 528
1 529
1 530
1 531
1 532
0
0
0
0
0
0
0
0
0
0
0
0
0
0
0
0
1 533
1 534
1 535
1 536
1 537
1 538
1 539
1 540
1 541
1 542
1 543
1 544
1 545
1 546
1 547
1 548
1 549
1 550
1 551
1 552
1 553
1 554
1 555
1 556
1 557
1 558
1 559
1 560
1 561
1 562
1 563
1 564
1 565
1 566
0
0
0
0
0
0
0
0
0
0
0
0
0
0
0
1 567
1 568
0
1 569
1 570
1 571
1 572
1 573
1 574
1 575
1 576
1 577
1 578
1 579
1 580
1 581
1 582
1 583
1 584
1 585
1 586
1 587
1 588
1 589
1 590
1 591
1 592
1 593
1 594
1 595
1 596
1 597
1 598
1 599
0
0
0
0
0
0
0
0
0
0
0
0
0
0
0
0
1 600
1 601
1 602
1 603
1 604
1 605
1 606
1 607
1 608
1 609
1 610
1 611
1 612
1 613
1 614
1 615
1 616
1 617
1 618
1 619
1 620
1 621
1 622
1 623
1 624
1 625
1 626
1 627
1 628
1 629
1 630
1 631
1 632
1 633
0
0
0
0
0
0
0
0
0
0
0
0
0
0
0
0
1 634
1 635
1 636
1 637
1 638
1 639
1 640
1 641
1 642
1 643
1 644
1 645
1 646
1 647
1 648
1 649
1 650
1 651
1 652
1 653
1 654
1 655
1 656
1 657
1 658
1 659
1 660
1 661
1 662
1 663
1 664
1 665
1 666
0
0
0
0
0
0
0
0
0
0
0
0
0
0
0
0
0
1 667
1 668
1 669
1 670
1 671
1 672
1 673
1 674
1 675
1 676
1 677
1 678
1 679
1 680
1 681
1 682
1 683
1 684
1 685
1 686
1 687
1 688
1 689
1 690
1 691
1 692
1 693
1 694
1 695
0
0
0
0
0
0
0
0
0
0
0
0
0
0
0
0
0
0
0
0
0
1 696
1 697
1 698
1 699
1 700
1 701
1 702
1 703
1 704
1 705
1 706
1 707
1 708
1 709
1 710
1 711
1 712
1 713
1 714
1 715
0
0
0
0
0
0
0
0
0
0
0
0
0
0
0
0
0
0
0
0
0
0
0
0
0
0
0
0
0
0
1 716
1 717
1 718
1 719
1 720
1 721
1 722
1 723
1 724
1 725
1 726
1 727
0
0
0
0
0
0
0
0
0
0
0
0
0
0
0
0
0
0
0
0
0
0
0
0
0
0
0
0
0
0
0
0
0
0
0
0
0
0
0
0
1 728
1 729
1 730
1 731
1 732
1 733
1 734
1 735
1 736
0
0
0
0
0
0
0
0
0
0
0
0
0
0
0
0
0
0
0
0
0
0
0
0
0
0
0
0
0
0
0
0
0
0
0
0
0
0
0
0
0
0
0
0
0
1 737
0
0
0
0
0
0
0
0
0
0
0
0
0
0
0
0
0
0
0
0
0
0
0
0
0
0
0
0
0
0
0
0
0
0
0
0
0
0
0
0
0
0
0
0
0
0
0
0
0
0
0
0
0
0
0
0
0
0
0
0
0
0
0
0
0
0
0
0
0
0
0
0
0
0
0
0
0
0
0
0
0
0
0
0
0
0
0
0
0
0
0
0
0
0
0
0
0
0
0
0
0
0
0
0
0
0
0
0
0
0
0
0
0
0
0
0
0
0
0
0
0
0
0
0
0
0
0
0
0
0
0
0
0
0
0
0
0
0
0
0
0
0
0
0
0
0
0
0
0
0
0
0
0
0
0
0
0
0
0
0
0
0
0
0
0
0
0
0
0
0
0
0
0
0
0
0
0
0
0
0
0
0
0
0
0
0
0
0
0
0
0
0
0
0
0
0
0
0
0
0
0
0
0
0
0
0
0
0
0
0
0
0
0
0
0
0
0
0
0
0
0
0
0
0
0
0
0
0
0
0
0
0
0
0
0
0
0
0
0
0
0
0
0
0
0
0
0
0
0
0
0
0
0
0
0
0
0
0
0
0
0
0
0
0
0
0
0
0
0
0
0
0
0
0
0
0
0
0
0
0
0
0
0
0
0
0
0
0
0
0
0
0
0
0
0
0
0
0
0
0
0
0
0
0
0
0
0
0
0
0
0
0
0
0
0
0
0
0
0
0
0
0
0
0
0
0
0
0
0
0
0
0
0
0
0
0
0
0
0
0
0
0
0
0
0
0
0
0
0
0
0
0
0
0
0
0
0
0
0
0
0
0
0
0
0
0
0
0
0
0
0
0
0
0
0
0
0
0
0
0
0
0
0
0
0
0
0
0
0
0
0
0
0
0
0
0
0
0
0
0
0
0
0
0
0
0
0
0
0
0
0
0
0
0
0
0
0
0
0
0
0
0
0
0
0
0
0
0
0
0
0
0
0
0
0
0
0
0
0
0
0
0
0
0
0
0
0
0
0
0
0
0
0
0
0
0
0
0
0
0
0
0
0
0
0
0
0
0
0
0
0
0
0
0
0
0
0
0
0
0
0
0
0
0
0
0
0
0
0
0
0
0
0
0
0
0
0
0
0
0
0
0
0
0
0
0
0
0
0
0
0
0
0
0
0
0
0
0
0
0
0
0
0
0
0
0
0
0
0
0
0
0
0
