ply
format ascii 1.0
obj_info num_cols 50
obj_info num_rows 50
element vertex 795
property float x
property float y
property float z
element range_grid 2500
property list uchar int vertex_indices
end_header
37.5171365 22.7704739 -1.9263179
37.3944164 22.0344163 0.5505140
36.2832563 22.0966074 1.7673016
34.1444753 22.9474913 1.8039950
37.3962455 22.6770314 -7.4739733
37.4229910 21.7983429 -4.6300184
37.4505031 20.9492645 -1.8840182
37.4633229 20.1401308 0.7498190
36.1976969 20.3201948 1.7680308
34.0314000 21.1607687 1.7671950
31.7871647 22.0304764 1.7699587
29.4766113 22.9195764 1.7934640
37.4617642 22.4207947 -13.1146369
37.4334385 21.5634070 -10.1580918
37.4043965 20.7369401 -7.3059656
37.4338443 19.8947163 -4.4744110
37.4819976 19.0673267 -1.7171313
37.4488257 18.3275762 0.8448482
36.1006953 18.5629092 1.7545001
33.9309230 19.3744187 1.7444490
31.6948972 20.2056944 1.7511669
29.3821270 21.0629967 1.7666461
26.9815357 21.9525886 1.7836127
24.5295115 22.8486832 1.8437167
37.4855685 23.1237302 -22.5158273
37.3700876 22.2773485 -19.3669609
37.3703574 21.3715949 -16.1542736
37.4180565 20.4624108 -12.9895659
37.5200469 19.5448123 -9.8638605
37.4415067 18.7937175 -7.0998575
37.4685202 17.9915851 -4.2886675
37.4179063 17.2724652 -1.6735065
37.4122745 16.5456963 0.9117429
36.0056908 16.8142777 1.7427875
33.8547095 17.5814627 1.7491369
31.6269040 18.3751488 1.7589040
29.3161346 19.1981119 1.7700282
26.9075967 20.0585852 1.7720782
24.4492622 20.9241169 1.8193354
21.8566903 21.8476810 1.8309680
19.1628652 22.8061780 1.8470880
37.4260953 22.0008488 -25.8079036
37.3657179 21.1174856 -22.4635531
37.3584057 20.2268199 -19.1594156
37.4157662 19.3205614 -15.8795279
37.4518864 18.4629535 -12.7527066
37.4703453 17.6487875 -9.7642165
37.4574286 16.8855236 -6.9242811
37.4088430 16.1735147 -4.2287673
37.4492959 15.4244739 -1.5090612
37.5602291 14.6528242 1.2049924
36.6445809 14.5882823 2.6037757
35.5091337 14.6691581 3.7430695
34.3388219 14.7695682 4.8542690
33.1431749 14.8825546 5.9510411
26.8271193 18.1802745 1.7533750
24.3713591 19.0094931 1.7969804
21.7781885 19.8963037 1.8016162
19.0938383 20.8106129 1.8200401
16.2729404 21.7777812 1.8159100
13.3618250 22.7687322 1.8380953
37.3951732 19.8982080 -25.5929986
37.5190032 18.9202529 -21.9712052
37.4380327 18.1289464 -18.8113882
37.3809423 17.3496428 -15.7281669
37.4463336 16.5121883 -12.5752682
37.4285406 15.7621235 -9.6547465
37.4883567 14.9854822 -6.7297547
37.3725550 14.3528828 -4.1390523
37.4835470 13.5926460 -1.3422049
37.4945059 12.9222791 1.2340056
36.5884482 12.8561922 2.6359476
35.4583656 12.9319398 3.7733884
34.3337048 13.0016549 4.9272757
33.1772319 13.0881489 6.0565923
32.0533739 13.1522635 7.2311020
30.7005618 13.3484364 8.1851197
26.2460135 13.5453010 13.0616715
25.0734079 13.6225208 14.2472364
23.9061105 13.6944756 15.4464260
22.7256876 13.7711461 16.6440060
21.5098677 13.8639715 17.8239628
20.3429538 13.9288518 19.0500009
19.1325469 14.0138842 20.2532176
17.9141155 14.1004746 21.4605694
16.7360043 14.1646182 22.7036238
15.4346881 14.2871234 23.8771021
37.2917602 18.7435055 -29.0417375
37.3258980 17.8428627 -25.4445527
37.4142924 15.3489032 -15.4758738
37.4064560 14.6026088 -12.4495001
37.4506274 13.8483664 -9.4567376
37.5030495 13.1150153 -6.5588445
37.4444890 12.4775384 -3.9081896
37.4432447 11.8255363 -1.2712706
37.5073104 11.1548253 1.3587180
36.5347991 11.1344238 2.6704052
35.3980670 11.2123626 3.7921777
34.3058911 11.2613903 4.9744890
33.1401928 11.3510844 6.0853601
32.0123699 11.4161950 7.2477224
30.0410035 11.9515101 7.5757657
25.6582608 13.8007177 5.6410571
26.2257755 11.7878026 13.0597950
25.0545242 11.8623107 14.2390656
23.8994285 11.9262004 15.4408348
22.7146587 12.0030972 16.6275371
21.5165688 12.0843063 17.8136459
20.3431920 12.1509279 19.0274797
19.1102170 12.2444971 20.2077236
17.9071880 12.3210255 21.4189943
16.7242179 12.3858523 22.6522083
15.5047164 12.4658591 23.8702401
14.2828765 12.5446990 25.0959445
13.0913189 12.6075575 26.3479683
37.3984015 16.5348059 -28.5726918
36.4915245 16.3327288 -26.5719338
37.3788665 13.4141476 -15.3290718
37.3981606 12.6884369 -12.2793513
37.4346958 11.9774496 -9.3137620
37.4839019 11.2832547 -6.4352993
37.4685843 10.6519113 -3.7416229
37.4729384 10.0299398 -1.1124771
37.5128370 9.4075617 1.4735223
36.5029507 9.4118782 2.7300372
35.3728480 9.4841175 3.8505861
34.2502810 9.5495741 4.9903536
33.0949122 9.6307754 6.1048337
31.9874751 9.6832241 7.2806029
26.9603325 11.8263939 4.5480994
25.6231243 11.9646723 5.6503430
26.2175289 10.0363646 13.0682342
25.0512996 10.1063388 14.2439809
23.8952159 10.1691545 15.4372441
22.6976490 10.2500114 16.6064503
21.5062022 10.3255208 17.7905830
20.3487165 10.3828269 19.0089543
19.1306483 10.4664456 20.1923410
17.9238787 10.5424822 21.3935828
16.7450317 10.6037279 22.6222308
15.5356018 10.6768101 23.8393454
14.3145015 10.7529609 25.0581934
13.0999163 10.8241650 26.2897712
11.8732738 10.8985715 27.5230040
37.3649611 14.4493082 -28.3483068
36.0028258 14.5593494 -27.1207688
37.5166527 12.0870534 -18.0323649
37.3442242 11.4952617 -15.1827660
37.4316656 10.7662240 -12.0502761
37.4605096 10.0978451 -9.1137295
37.4395523 9.4817916 -6.3471477
37.4736392 8.8547998 -3.6012971
37.4095573 8.3044742 -1.0727089
37.4894129 7.6917610 1.5519393
36.4737144 7.7008000 2.7920388
35.3105517 7.7889997 3.8659186
34.2208140 7.8350700 5.0346329
33.0689416 7.9119799 6.1444969
31.9549929 7.9667074 7.3052237
26.9197803 10.0109169 4.5596841
25.5840914 10.1430597 5.6555798
26.1897932 8.3068040 13.0596258
25.0336977 8.3697822 14.2367802
23.8796813 8.4297986 15.4244880
22.7045898 8.4976021 16.6041245
21.5178764 8.5685940 17.7842292
20.3443393 8.6315666 18.9833942
19.1448408 8.7040889 20.1728073
17.9350692 8.7789601 21.3647224
16.7623373 8.8357697 22.5902850
15.5441095 8.9101989 23.7948250
14.3364731 8.9781012 25.0150454
13.1408550 9.0391289 26.2506949
11.9039229 9.1153115 27.4710127
10.6761465 9.1857372 28.7053963
37.4720680 13.0624961 -31.4836411
37.2999060 12.4030999 -28.1806744
36.1267000 12.3922761 -26.6534894
37.4459007 10.1731844 -17.9273280
37.4093370 9.5338433 -14.8888846
37.3432452 8.9342721 -11.9994213
37.4450522 8.2603033 -8.9730484
37.4263232 7.6767217 -6.2180324
37.4658576 7.0808796 -3.4789579
37.4197788 6.5509598 -0.9406842
37.4514015 5.9971337 1.6116923
36.4050572 6.0231628 2.8067275
35.3082535 6.0739757 3.9492679
34.1486410 6.1546313 5.0311771
33.0583436 6.1980600 6.2000903
31.9206728 6.2630849 7.3275446
26.8482176 8.2225905 4.5399861
25.5582950 8.3273039 5.6732935
26.1876692 6.5770655 13.0731665
25.0329804 6.6374642 14.2436913
23.8772472 6.6964081 15.4223397
22.7002252 6.7627782 16.5930222
21.5238756 6.8268303 17.7737086
20.3800199 6.8751580 18.9870973
19.0836736 6.9858106 20.1006908
17.6624261 7.1449526 21.1445231
16.6523924 7.1320854 22.4759137
15.6029803 7.1351787 23.7821605
14.3448180 7.2209650 24.9640844
13.1780023 7.2685420 26.2098831
11.9387279 7.3428376 27.4218177
10.7131161 7.4098861 28.6504776
9.5228023 7.4617572 29.9057507
37.4423846 10.9732694 -31.2362432
37.3335750 10.3143334 -27.8465340
37.4018890 9.5760912 -24.2878401
37.3588268 8.9298151 -21.0432317
37.4140342 8.2514796 -17.7638161
37.4913133 7.5852927 -14.5721050
37.4126957 7.0279437 -11.7218374
37.4647336 6.4197511 -8.7847181
37.4727364 5.8555944 -6.0096691
37.4740744 5.3138455 -3.3368688
37.4219232 4.8172799 -0.8199254
37.4361399 4.3035355 1.6984437
36.3562196 4.3462738 2.8442214
35.2440614 4.4030356 3.9612715
34.1183935 4.4642036 5.0735421
32.9940802 4.5225756 6.1979138
31.8987152 4.5654910 7.3622214
26.8037004 6.4323918 4.5469525
25.5495519 6.5165504 5.7071415
26.1838733 4.8606172 13.0851434
25.0088848 4.9275455 14.2309407
23.8760105 4.9747575 15.4211623
22.6945426 5.0405023 16.5809433
21.5465690 5.0906019 17.7758794
17.1443544 6.4465651 16.6125795
14.4421698 7.0925802 16.8182726
13.1960051 7.1517989 18.0915531
13.0153793 6.7976563 20.0667993
13.3281920 6.2640771 22.3079439
14.2239975 5.5240901 24.8356260
13.1893759 5.5202220 26.1545770
11.9825367 5.5795065 27.3781262
10.7473684 5.6474276 28.5946300
9.5503957 5.6998182 29.8398165
8.3169328 5.7636935 31.0741508
37.3810153 8.9220266 -31.0475329
37.4678035 8.1917818 -27.3440691
37.4299008 7.5585280 -23.9905979
37.4603054 6.9115461 -20.6511120
37.3829431 6.3458633 -17.6009196
37.4566196 5.7210556 -14.4314563
37.4306931 5.1696717 -11.5204095
37.3500602 4.6650931 -8.7851147
37.4877955 4.0688442 -5.8450704
37.5012971 3.5534210 -3.1711999
37.4722680 3.0754358 -0.6394457
37.4024164 2.6322449 1.7618519
36.3098637 2.6797212 2.8839980
35.2091659 2.7291533 4.0061476
34.0801094 2.7895708 5.1065071
32.9868868 2.8319370 6.2561710
31.8303120 2.9004788 7.3486239
26.7851501 4.6427264 4.5794538
25.5210292 4.7275748 5.7216335
26.1593448 3.1649501 13.0790071
25.0150688 3.2167319 14.2435341
23.8586712 3.2716384 15.4069486
22.6893530 3.3298516 16.5693020
15.6464603 5.6454187 13.3121213
11.0820319 6.9585279 12.1804839
9.3421829 7.1790125 13.2111021
8.5587428 7.0399754 14.9193443
8.7814245 6.5370946 17.2654363
13.1635640 3.7964702 26.0780909
12.0205562 3.8308841 27.3316985
10.8021952 3.8900965 28.5503318
9.5897032 3.9456989 29.7804527
8.3658822 4.0035758 31.0129052
37.4223085 6.8321545 -30.6806906
37.4614201 6.1738111 -27.0846387
37.4140630 5.5855018 -23.7681431
37.3563449 5.0242527 -20.5885054
37.4369549 4.4137074 -17.3090177
37.4090731 3.8786070 -14.3114880
37.3879792 3.3589529 -11.4079718
37.4009740 2.8409241 -8.5561079
37.4662615 2.3159167 -5.7310379
37.4819882 1.8312523 -3.0673174
37.4571368 1.3808566 -0.5425565
37.3470228 0.9829788 1.7981182
36.2608104 1.0258373 2.9199565
35.1589640 1.0738180 4.0329969
34.0298558 1.1316192 5.1257761
32.9452170 1.1687772 6.2772066
31.8147872 1.2234165 7.3891461
26.7442743 2.8750200 4.5893653
25.5072186 2.9449618 5.7499969
26.1422434 1.4776742 13.0792187
25.0254472 1.5168725 14.2595900
23.8615284 1.5722965 15.4090882
22.5948725 1.6637013 16.4879248
8.2640075 6.4845840 7.7281417
5.1878926 7.1546061 7.8674940
3.8933420 7.1783890 9.3556304
3.9196674 6.7414178 11.7420302
12.0479290 2.0980897 27.2798015
10.8691861 2.1417258 28.5131133
9.6432576 2.1991743 29.7289921
8.4191264 2.2544970 30.9543924
37.4526974 4.7717482 -30.3363778
37.4557378 4.1752998 -26.8266682
37.3374270 3.6607098 -23.6476872
37.4195962 3.0685798 -20.2621879
37.4034962 2.5442808 -17.1535977
37.4581349 2.0057897 -14.0497050
37.4546567 1.5125679 -11.1399364
37.4127567 1.0534483 -8.3830946
37.4106974 0.5922696 -5.6638538
37.5174673 0.0993216 -2.8933147
37.4876942 -0.3194660 -0.3891943
37.2967367 -0.6574122 1.8399102
36.2087913 -0.6156297 2.9518017
35.1206295 -0.5753462 4.0727933
33.9947217 -0.5215321 5.1611960
32.9173563 -0.4886823 6.3125008
31.7757347 -0.4322423 7.4050498
26.7012038 1.1197831 4.5967638
25.4580089 1.1884596 5.7440191
26.1396389 -0.2033473 13.0919109
25.0215564 -0.1653347 14.2636280
23.8485569 -0.1094157 15.3984132
7.8515097 5.0530713 4.9558939
6.4685659 5.1083643 6.3564281
5.0572490 5.1714414 7.7465255
3.6572895 5.2288413 9.1558883
12.0723840 0.3779963 27.2267315
10.9104630 0.4144039 28.4626243
9.6883281 0.4677797 29.6737238
8.4641083 0.5203123 30.8923923
7.2516244 0.5679856 32.1250374
37.3686729 2.7886132 -30.1954563
37.4042028 2.2177522 -26.6488673
37.2961828 1.7339393 -23.4711291
37.3374908 1.2007100 -20.1684431
37.3738700 0.6888492 -16.9940337
37.4198416 0.1909315 -13.9192696
37.5025403 -0.3053118 -10.9007573
37.4669492 -0.7351338 -8.1527947
37.4872155 -1.1734975 -5.4206369
37.4588894 -1.5777540 -2.8425293
37.4881635 -1.9917800 -0.2746730
37.2486661 -2.2875167 1.8837006
36.1585883 -2.2468966 2.9851699
35.0808577 -2.2124946 4.1103821
33.9635540 -2.1646761 5.2004643
32.8619400 -2.1243353 6.3180512
31.7537619 -2.0830934 7.4381421
26.6399735 -0.6175986 4.5857875
25.4252110 -0.5628437 5.7535596
26.1107447 -1.8635232 13.0816838
24.9960419 -1.8285754 14.2494876
23.8349246 -1.7796590 15.3872044
7.8280415 3.0508293 4.9286451
6.4816282 3.0915027 6.3488774
5.0760196 3.1494000 7.7344569
3.6597596 3.2088170 9.1237361
12.1070709 -1.3334541 27.1798477
10.9355822 -1.2962174 28.4039437
9.7311844 -1.2508504 29.6178650
8.5146057 -1.2033804 30.8337213
7.3473134 -1.1707036 32.0812754
37.3643077 0.7850526 -29.9176749
37.4698464 0.2256073 -26.2755612
37.4589129 -0.2634224 -22.9638133
37.4081875 -0.7179941 -19.8350810
37.4202804 -1.1820845 -16.7201080
37.4628631 -1.6421346 -13.6702207
37.4731571 -2.0734874 -10.7738088
37.4183924 -2.4648711 -8.0662242
37.4330402 -2.8697356 -5.3538608
37.4982580 -3.2803033 -2.6657899
37.5439501 -3.6703594 -0.0918242
37.1936892 -3.9039759 1.9184303
36.1107830 -3.8681601 3.0207425
35.0252650 -3.8328128 4.1294555
33.9139150 -3.7898617 5.2189427
32.8308212 -3.7581263 6.3490076
31.7168158 -3.7172024 7.4554623
26.6045077 -2.3531494 4.6001102
25.4116506 -2.3087988 5.7813076
26.1053657 -3.5203850 13.0917619
24.9814682 -3.4844992 14.2444715
23.8371851 -3.4436293 15.3888645
22.7004092 -3.4063452 16.5481252
6.4839004 1.0921269 6.3333059
5.0792037 1.1462893 7.7112180
3.6823579 1.1965124 9.1059555
12.1784616 -3.0428351 27.1540269
10.9741967 -2.9990251 28.3530274
9.7739347 -2.9575041 29.5624975
8.5604606 -2.9137544 30.7733333
7.2578746 -2.8485152 31.9498225
37.3659290 -1.2010903 -29.6323052
37.4611621 -1.7130609 -26.0304827
37.4388382 -2.1597383 -22.7576658
37.3864874 -2.5785975 -19.6498237
37.3886624 -3.0032590 -16.5672517
37.4241202 -3.4254681 -13.5436516
37.4296751 -3.8221788 -10.6683276
37.4756318 -4.2200192 -7.8347545
37.4698677 -4.5863011 -5.1665056
37.4696324 -4.9425239 -2.5781750
37.4806383 -5.2911269 -0.0591046
37.1413414 -5.5106977 1.9556843
36.0781577 -5.4835994 3.0734883
34.9835405 -5.4473575 4.1637309
33.8788610 -5.4092621 5.2529499
32.7836346 -5.3755711 6.3624790
31.6852270 -5.3421520 7.4779170
26.5820822 -4.0811924 4.6270510
25.3826783 -4.0376697 5.7939711
26.0927556 -5.1635175 13.0954649
24.9850636 -5.1345376 14.2546350
23.8254484 -5.0919561 15.3791927
22.7103888 -5.0631317 16.5486029
21.3875909 -4.9783554 17.5683892
5.1018509 -0.8485219 7.7023353
3.6986734 -0.7998741 9.0839965
13.3886811 -4.7647765 25.9077381
12.1889203 -4.7239209 27.0944762
11.0037708 -4.6878247 28.2977256
9.8233551 -4.6539328 29.5111352
8.5889401 -4.6081406 30.7048604
37.3682068 -3.1675171 -29.3486376
37.3697629 -3.6026373 -25.9267073
37.4924967 -4.0657231 -22.4339428
37.3077758 -4.4025534 -19.5560450
37.3969271 -4.8232557 -16.3554313
37.4969598 -5.2330057 -13.2543974
37.4670853 -5.5848599 -10.4489610
37.4252470 -5.9209056 -7.7531851
37.4155882 -6.2563214 -5.1019922
37.4407291 -6.5919644 -2.4918642
37.5091029 -6.9304677 0.0875335
37.0883603 -7.1065915 1.9915143
36.0172936 -7.0789013 3.0925553
34.9358101 -7.0492080 4.1906616
33.8705989 -7.0254983 5.3158139
32.7617264 -6.9900473 6.4023420
31.6558836 -6.9567780 7.5023062
26.5465856 -5.7935306 4.6406852
25.3468398 -5.7530803 5.7997779
26.0846363 -6.7966681 13.1029627
24.9680480 -6.7673785 14.2474752
23.8253717 -6.7323511 15.3789628
22.7070685 -6.7047321 16.5387314
21.5447039 -6.6669486 17.6727772
20.3789163 -6.6295288 18.8138988
14.6145732 -6.4745557 24.6927569
13.4141271 -6.4354804 25.8635321
12.2557460 -6.4071512 27.0670651
11.0546543 -6.3700843 28.2544380
9.8527068 -6.3339091 29.4498814
8.6640601 -6.3017099 30.6602321
37.3137304 -5.0946742 -29.1659947
37.4051101 -5.5220768 -25.6124745
37.4054875 -5.9036182 -22.3407557
37.3677893 -6.2590475 -19.2463223
37.3667342 -6.6136551 -16.2038383
37.3860196 -6.9623478 -13.2370066
37.4232904 -7.3046927 -10.3466544
37.4764421 -7.6403633 -7.5330034
37.4379406 -7.9376284 -4.9364141
37.4437638 -8.2382521 -2.3653367
37.5287725 -8.5521057 0.2221698
37.0425906 -8.6940640 2.0354010
35.9571121 -8.6644848 3.1118654
34.8879507 -8.6405710 4.2169226
33.8092061 -8.6150557 5.3199881
32.7188386 -8.5874702 6.4195419
31.6179123 -8.5581886 7.5174873
26.5069922 -7.4935635 4.6499393
25.3318216 -7.4626992 5.8252904
26.0870321 -8.4211194 13.1194759
24.9473828 -8.3886123 14.2372109
23.8273022 -8.3618646 15.3803593
22.7078411 -8.3362084 16.5321104
21.5584798 -8.3045526 17.6690472
20.3907994 -8.2697752 18.8016611
19.2716882 -8.2470462 19.9780870
18.1157313 -8.2169352 21.1363547
16.9434314 -8.1842198 22.2923134
15.8008664 -8.1589744 23.4758982
14.6136076 -8.1250101 24.6394766
13.4348475 -8.0938816 25.8169604
12.2735699 -8.0673608 27.0125386
11.0863292 -8.0363296 28.2012494
9.9003856 -8.0065011 29.3986854
37.4058890 -7.0518972 -28.7324952
37.3941702 -7.4065626 -25.3783150
37.4857856 -7.7794123 -21.9787775
37.4878193 -8.1124316 -18.8451935
37.4929009 -8.4346307 -15.8172179
37.4604873 -8.7350168 -12.9489771
37.4858330 -9.0413832 -10.0947844
37.4944574 -9.3329140 -7.3599296
37.4252503 -9.5938181 -4.8186700
37.4113275 -9.8610162 -2.2854887
37.5492171 -10.1594380 0.3567828
36.9769320 -10.2657007 2.0546477
35.9500545 -10.2536994 3.1926177
34.8676682 -10.2284885 4.2738154
33.7641253 -10.1991134 5.3415728
32.6885194 -10.1776328 6.4496387
31.6081525 -10.1559077 7.5612024
26.4775141 -9.1850452 4.6689039
25.3087323 -9.1585003 5.8427897
26.0798233 -10.0318251 13.1275614
24.9416431 -10.0026507 14.2394060
23.8214184 -9.9783668 15.3754298
22.7003181 -9.9547762 16.5190494
21.5458403 -9.9250402 17.6454590
20.4152534 -9.9012483 18.7987394
19.2829104 -9.8779341 19.9586579
18.1203759 -9.8493504 21.1057340
16.9831423 -9.8267397 22.2782353
15.8131499 -9.7984725 23.4373773
14.6500926 -9.7724617 24.6093197
13.4633922 -9.7427663 25.7753664
12.3169707 -9.7216215 26.9728655
11.1268066 -9.6930074 28.1533147
9.9495720 -9.6676638 29.3488116
37.3213088 -8.9346194 -28.6067977
37.4697474 -9.2973149 -25.0023852
37.4664351 -9.9041299 -18.6675428
37.4112225 -10.1776544 -15.7471046
37.4194117 -10.4580263 -12.8319204
37.4433905 -10.7328916 -9.9932845
37.5225386 -11.0122560 -7.1744432
37.4523542 -11.2461620 -4.6492313
37.4136954 -11.4800986 -2.1618331
37.4778466 -11.7308129 0.3762450
36.9564087 -11.8382293 2.1276407
35.9052448 -11.8218910 3.2286751
34.8103480 -11.7965170 4.2883397
33.7543656 -11.7807611 5.4012793
32.6694865 -11.7594530 6.4912457
31.5676306 -11.7353949 7.5730567
26.4518554 -10.8660504 4.6913294
25.2727843 -10.8401871 5.8477066
26.0536442 -11.6276899 13.1191105
24.9326790 -11.6050519 14.2388523
23.8060362 -11.5821598 15.3628109
22.6951725 -11.5631222 16.5078956
21.5601959 -11.5402710 17.6423615
20.4092508 -11.5152726 18.7737411
19.2952388 -11.4979181 19.9401946
18.1385368 -11.4734935 21.0845239
17.0036117 -11.4537964 22.2518344
15.8364515 -11.4291143 23.4061281
14.6764222 -11.4064979 24.5733469
13.5186108 -11.3850262 25.7498259
12.3555987 -11.3633969 26.9309507
11.1795287 -11.3402964 28.1125222
37.3578836 -10.8341941 -28.2749705
36.6436527 -10.9446681 -26.1277857
37.4841613 -11.6896333 -18.4308158
37.3811080 -11.9212810 -15.6005242
37.4554217 -12.1853770 -12.6037393
37.5070220 -12.4354877 -9.7431357
37.4733047 -12.6585648 -7.0961193
37.4610945 -12.8790332 -4.5053712
37.4379925 -13.0901293 -2.0110774
37.4860986 -13.3094494 0.4939366
36.9060281 -13.3928571 2.1640080
35.8504187 -13.3776971 3.2524933
34.7670394 -13.3577360 4.3181741
33.7175918 -13.3452902 5.4309872
32.6214118 -13.3244501 6.5017447
31.5570600 -13.3105292 7.6151901
26.4321842 -12.5368412 4.7193566
25.2700718 -12.5172869 5.8841880
26.0472173 -13.2169411 13.1276814
24.9311997 -13.1980094 14.2445214
23.8220003 -13.1809935 15.3755734
22.6997690 -13.1624510 16.5044119
21.5632388 -13.1422325 17.6308110
20.4496192 -13.1265489 18.7827292
19.2967280 -13.1050922 19.9142767
18.1521397 -13.0857388 21.0604444
17.0217831 -13.0693507 22.2241987
15.8547331 -13.0478337 23.3720169
14.6868849 -13.0269381 24.5280518
13.5675318 -13.0141789 25.7210159
12.2562258 -12.9729448 26.8114014
-36.9512429 -5.7865810 1.8382750
37.3698617 -12.7076752 -27.9882177
35.8871272 -12.6395987 -27.1334995
37.3925800 -13.6591793 -15.3929544
37.4009360 -13.8773199 -12.5091111
37.4628813 -14.0986348 -9.6466907
37.4247948 -14.2934038 -7.0178273
37.5018468 -14.5036351 -4.3203457
37.4503822 -14.6832489 -1.8766634
37.4326490 -14.8634039 0.5342093
36.7517504 -14.9187039 2.0750013
35.7058339 -14.9078841 3.1714088
34.6734054 -14.9000055 4.2908444
33.6155645 -14.8882602 5.3891119
32.5051803 -14.8682438 6.4399488
31.4427263 -14.8570467 7.5509579
26.3923087 -14.1928310 4.7270841
25.2487572 -14.1792484 5.9025902
26.0221619 -14.7924401 13.1200211
24.9139638 -14.7776010 14.2369464
23.7967581 -14.7620399 15.3549732
22.6780915 -14.7469073 16.4804161
21.5714985 -14.7341684 17.6232982
20.4570600 -14.7208523 18.7678255
19.3153240 -14.7042106 19.9005983
18.1742163 -14.6883026 21.0423577
17.0463440 -14.6748521 22.2010276
15.8535550 -14.6530514 23.3258869
11.4195628 -14.1931681 22.4818133
-27.0265277 -9.1970040 1.7831127
-31.8046999 -8.7702857 1.7870180
-36.7733195 -8.3293788 1.8284794
37.3910519 -14.5639817 -27.6884182
35.6664208 -14.4611813 -27.2494516
37.4352899 -15.3861723 -15.1402957
37.3617805 -15.5598140 -12.3934368
37.4221924 -15.7501904 -9.5465431
37.4759784 -15.9332093 -6.8046628
37.4487005 -16.0971441 -4.2605568
37.4592001 -16.2619092 -1.7478508
37.4698883 -16.4215487 0.6860859
36.2166715 -16.3810420 1.5290767
34.2046443 -16.2267530 1.5146717
32.1560489 -16.0721135 1.5376068
30.0201171 -15.9096761 1.5430499
27.7965342 -15.7397667 1.5363634
25.5087171 -15.5660822 1.5468476
23.1906043 -15.3935797 1.6108317
20.8487036 -15.2231228 1.7339477
18.4584782 -15.0512841 1.8923309
16.4317974 -14.9335869 2.4557985
7.0577149 -14.9357873 13.4383263
-0.9666692 -14.1209526 10.3236399
-18.1453084 -12.2507791 1.7282960
-22.3889279 -11.9298014 1.7659156
-31.4259168 -11.0675809 -0.8922347
-31.7017472 -11.2190028 1.7504205
-36.6500048 -10.8444340 1.7897823
37.5231130 -16.4185259 -27.2024316
35.9823900 -16.3610571 -26.4807135
37.4021557 -16.9220112 -17.9419179
37.5157780 -17.1007792 -14.8330204
37.4078077 -17.2417426 -12.1555134
37.4057022 -17.3929489 -9.4135592
37.5309565 -17.5568238 -6.5878047
37.5304984 -17.6983129 -4.0237900
37.4898239 -17.8299526 -1.5922108
37.4629196 -17.9593126 0.7823095
36.1274093 -17.9155722 1.5179473
34.1166899 -17.7876283 1.5005846
32.0965713 -17.6628240 1.5508575
29.9501365 -17.5266211 1.5391460
27.7462491 -17.3879128 1.5477807
25.4573613 -17.2435366 1.5509850
23.1050708 -17.0963026 1.5749596
20.6444848 -16.9411490 1.5793602
18.0997261 -16.7811928 1.5930601
15.4513488 -16.6144685 1.6026988
12.6923790 -16.4405075 1.6077665
9.8318333 -16.2606178 1.6216449
6.8238926 -16.0701221 1.6120166
3.6882130 -15.8715657 1.6025085
0.4788920 -15.6709703 1.6403195
-2.8566785 -15.4629911 1.6888076
-6.4611977 -15.2333688 1.6529069
-10.1729272 -14.9992748 1.6586605
-13.9980312 -14.7602901 1.7055307
-18.0790934 -14.5026254 1.7068317
-22.2793692 -14.2402684 1.7595253
-32.5705767 -13.4019344 -1.6538994
-32.5737722 -13.5570854 1.1607724
-36.4570196 -13.3465716 1.7900062
37.4092403 -18.2162248 -27.1380911
37.3488762 -18.3555816 -23.9880724
37.4584302 -18.5107875 -20.6760612
37.4594404 -18.6475423 -17.6517431
37.4096565 -18.7736394 -14.8068179
37.3927020 -18.8993063 -12.0078550
37.4366631 -19.0277400 -9.2153058
37.4167263 -19.1448540 -6.6022507
37.4772475 -19.2670471 -3.9661473
37.4457176 -19.3754516 -1.5329015
37.4329688 -19.4824926 0.8493295
36.0386481 -19.4422491 1.5069274
34.0553770 -19.3431785 1.5169109
32.0121665 -19.2414963 1.5356606
29.8912470 -19.1355747 1.5468913
27.6738433 -19.0237900 1.5355245
25.3734239 -18.9077230 1.5215798
23.0376091 -18.7920965 1.5566726
20.5929238 -18.6700454 1.5704988
18.0608610 -18.5438466 1.5895668
15.3989486 -18.4098484 1.5802396
12.6453242 -18.2718105 1.5833563
9.7941498 -18.1294080 1.5982120
6.8204370 -17.9806737 1.6090232
3.7245526 -17.8259208 1.6223135
0.4852963 -17.6636268 1.6279358
-2.8907956 -17.4946622 1.6378934
-6.3915413 -17.3203158 1.6671708
-10.0832409 -17.1354511 1.6757426
-13.9539218 -16.9414617 1.6811424
-17.9676413 -16.7415610 1.7145592
-22.2045864 -16.5297555 1.7324216
-32.2167772 -15.8797782 -1.5320296
-32.0907749 -16.0159685 1.3410378
-36.2415237 -15.8285842 1.8034818
37.4521545 -20.0186153 -26.8094338
37.3958011 -20.1270945 -23.6747596
37.3998178 -20.2374044 -20.5520154
37.4289653 -20.3461946 -17.4989170
37.4754432 -20.4528306 -14.5252087
37.4450175 -20.5490956 -11.7641862
37.4541894 -20.6456314 -9.0373500
37.4325384 -20.7364136 -6.4410254
37.5177246 -20.8332434 -3.7862185
37.5227084 -20.9204203 -1.3202542
37.4912686 -21.0019602 1.0244219
35.9432417 -20.9605625 1.4874846
33.9746063 -20.8879445 1.5102038
31.9223489 -20.8115398 1.5139854
29.7963739 -20.7322934 1.5151470
27.6003672 -20.6506287 1.5217944
25.3148430 -20.5652469 1.5177087
22.9934888 -20.4802049 1.5611343
20.5391548 -20.3886065 1.5592925
17.9991569 -20.2940716 1.5647705
15.3657221 -20.1962121 1.5747873
12.6183150 -20.0937984 1.5761978
9.7778474 -19.9884440 1.5926299
6.8091913 -19.8779794 1.5997235
3.7031846 -19.7620462 1.5970026
0.4848476 -19.6424951 1.6104810
-2.8682213 -19.5180827 1.6285921
-6.3838387 -19.3872987 1.6379328
-10.0391771 -19.2518251 1.6620483
-13.8932183 -19.1083022 1.6680599
-17.9091385 -18.9592740 1.6891452
-22.1613157 -18.8005987 1.6865370
-26.4969797 -18.6415621 1.7619454
-31.1779353 -18.4671777 1.7673292
-36.0841961 -18.2848597 1.7860101
37.4637963 -21.7992250 -26.5364628
37.3590224 -21.8738124 -23.5011118
37.4670281 -21.9596056 -20.2299549
37.4819544 -22.0364936 -17.2194468
37.4418776 -22.1073427 -14.3935138
37.4231351 -22.1771462 -11.6292732
37.4115771 -22.2450976 -8.9448229
37.4776142 -22.3154308 -6.2414407
37.5002017 -22.3810008 -3.6835847
37.5343773 -22.4451739 -1.1918479
37.5650179 -22.5071664 1.2175066
35.8739685 -22.4728931 1.4987581
33.9103680 -22.4253890 1.5221451
31.8539428 -22.3748578 1.5158903
29.7362392 -22.3231078 1.5207386
27.5285500 -22.2687437 1.5094642
25.2527779 -22.2130114 1.5099707
22.9410792 -22.1575851 1.5571356
20.4747821 -22.0966799 1.5377373
17.9612741 -22.0357230 1.5617978
15.3155315 -21.9707177 1.5540189
12.5958565 -21.9045784 1.5728749
9.7604769 -21.8354618 1.5861018
6.8011828 -21.7631502 1.5930463
3.7156609 -21.6877023 1.5982449
0.5055806 -21.6093490 1.6091723
-2.8545192 -21.5271399 1.6129782
-6.3457882 -21.4420633 1.6303733
-10.0156664 -21.3522777 1.6346342
-13.8222432 -21.2597344 1.6621361
-17.8333425 -21.1618139 1.6751801
-22.0319179 -21.0594478 1.6939930
-26.4372003 -20.9520840 1.7153918
-31.1098837 -20.8375868 1.7138324
-6.5330158 -23.4771148 1.4637435
-10.1673904 -23.4346735 1.4878088
-13.8778051 -23.3922937 1.5731440
-17.8848732 -23.3452023 1.5806185
-21.9783865 -23.2981449 1.6554438
-26.3559032 -23.2469898 1.6821530
0
0
0
0
0
0
0
0
0
0
0
0
0
0
0
0
0
0
0
0
0
0
0
0
0
0
0
0
0
0
0
0
0
0
0
0
0
0
0
0
0
0
0
0
0
0
0
0
0
0
0
0
0
0
0
0
0
0
0
0
0
0
0
0
0
0
0
0
0
0
0
0
0
0
0
0
0
0
0
0
0
0
0
0
0
0
0
0
0
0
0
0
0
0
0
0
0
0
0
0
0
0
0
0
0
0
0
0
0
0
0
0
0
0
0
0
0
0
0
0
0
0
0
0
0
0
0
0
0
0
0
0
0
0
0
0
0
0
0
0
0
0
0
0
0
0
0
0
0
0
0
0
0
0
0
0
0
0
0
0
0
0
0
0
0
0
0
0
0
0
0
0
0
0
0
0
0
0
0
0
0
0
0
0
0
0
0
0
0
0
0
0
0
0
0
0
0
0
0
0
0
0
0
0
0
0
0
0
0
0
0
0
0
0
0
0
0
0
0
0
0
0
0
0
0
0
0
0
0
0
0
0
0
0
0
0
0
0
0
0
0
0
0
0
0
0
0
0
0
0
0
0
0
0
0
0
0
0
0
0
0
0
0
0
0
0
0
0
0
0
0
0
0
0
0
0
0
0
0
0
0
0
0
0
0
0
0
0
0
0
0
0
0
0
0
0
0
0
0
0
0
0
0
0
0
0
0
0
0
0
0
0
0
0
0
0
0
0
0
0
0
0
0
0
0
0
0
0
0
0
0
0
0
0
0
0
0
0
0
0
0
0
0
0
0
0
0
0
0
0
0
0
0
0
0
0
0
0
0
0
0
0
0
0
0
0
0
0
0
0
0
0
0
0
0
0
0
0
0
0
0
0
0
0
0
0
0
0
0
0
0
0
0
0
0
0
0
0
0
0
0
0
0
0
0
0
0
0
0
0
1 0
1 1
1 2
1 3
0
0
0
0
0
0
0
0
0
0
0
0
0
0
0
0
0
0
0
0
0
0
0
0
0
0
0
0
0
0
0
0
0
0
0
0
0
0
0
0
0
0
0
0
1 4
1 5
1 6
1 7
1 8
1 9
1 10
1 11
0
0
0
0
0
0
0
0
0
0
0
0
0
0
0
0
0
0
0
0
0
0
0
0
0
0
0
0
0
0
0
0
0
0
0
0
0
0
0
0
1 12
1 13
1 14
1 15
1 16
1 17
1 18
1 19
1 20
1 21
1 22
1 23
0
0
0
0
0
0
0
0
0
0
0
0
0
0
0
0
0
0
0
0
0
0
0
0
0
0
0
0
0
0
0
0
0
0
0
1 24
1 25
1 26
1 27
1 28
1 29
1 30
1 31
1 32
1 33
1 34
1 35
1 36
1 37
1 38
1 39
1 40
0
0
0
0
0
0
0
0
0
0
0
0
0
0
0
0
0
0
0
0
0
0
0
0
0
0
0
0
0
0
0
0
1 41
1 42
1 43
1 44
1 45
1 46
1 47
1 48
1 49
1 50
1 51
1 52
1 53
1 54
1 55
1 56
1 57
1 58
1 59
1 60
0
0
0
0
0
0
0
0
0
0
0
0
0
0
0
0
0
0
0
0
0
0
0
0
0
0
0
0
0
0
1 61
1 62
1 63
1 64
1 65
1 66
1 67
1 68
1 69
1 70
1 71
1 72
1 73
1 74
1 75
1 76
0
0
0
1 77
1 78
1 79
1 80
1 81
1 82
1 83
1 84
1 85
1 86
0
0
0
0
0
0
0
0
0
0
0
0
0
0
0
0
0
0
0
0
1 87
1 88
0
0
1 89
1 90
1 91
1 92
1 93
1 94
1 95
1 96
1 97
1 98
1 99
1 100
1 101
1 102
0
0
1 103
1 104
1 105
1 106
1 107
1 108
1 109
1 110
1 111
1 112
1 113
1 114
0
0
0
0
0
0
0
0
0
0
0
0
0
0
0
0
0
0
1 115
1 116
0
0
1 117
1 118
1 119
1 120
1 121
1 122
1 123
1 124
1 125
1 126
1 127
1 128
1 129
1 130
0
0
1 131
1 132
1 133
1 134
1 135
1 136
1 137
1 138
1 139
1 140
1 141
1 142
1 143
0
0
0
0
0
0
0
0
0
0
0
0
0
0
0
0
0
1 144
1 145
0
1 146
1 147
1 148
1 149
1 150
1 151
1 152
1 153
1 154
1 155
1 156
1 157
1 158
1 159
1 160
0
0
1 161
1 162
1 163
1 164
1 165
1 166
1 167
1 168
1 169
1 170
1 171
1 172
1 173
1 174
0
0
0
0
0
0
0
0
0
0
0
0
0
0
0
1 175
1 176
1 177
0
1 178
1 179
1 180
1 181
1 182
1 183
1 184
1 185
1 186
1 187
1 188
1 189
1 190
1 191
1 192
0
0
1 193
1 194
1 195
1 196
1 197
1 198
1 199
1 200
1 201
1 202
1 203
1 204
1 205
1 206
1 207
0
0
0
0
0
0
0
0
0
0
0
0
0
0
1 208
1 209
1 210
1 211
1 212
1 213
1 214
1 215
1 216
1 217
1 218
1 219
1 220
1 221
1 222
1 223
1 224
1 225
1 226
0
0
1 227
1 228
1 229
1 230
1 231
1 232
1 233
1 234
1 235
1 236
1 237
1 238
1 239
1 240
1 241
1 242
0
0
0
0
0
0
0
0
0
0
0
0
0
1 243
1 244
1 245
1 246
1 247
1 248
1 249
1 250
1 251
1 252
1 253
1 254
1 255
1 256
1 257
1 258
1 259
1 260
1 261
0
0
1 262
1 263
1 264
1 265
1 266
1 267
1 268
1 269
1 270
0
0
1 271
1 272
1 273
1 274
1 275
0
0
0
0
0
0
0
0
0
0
0
0
0
1 276
1 277
1 278
1 279
1 280
1 281
1 282
1 283
1 284
1 285
1 286
1 287
1 288
1 289
1 290
1 291
1 292
1 293
1 294
0
0
1 295
1 296
1 297
1 298
1 299
1 300
1 301
1 302
0
0
0
0
1 303
1 304
1 305
1 306
0
0
0
0
0
0
0
0
0
0
0
0
0
1 307
1 308
1 309
1 310
1 311
1 312
1 313
1 314
1 315
1 316
1 317
1 318
1 319
1 320
1 321
1 322
1 323
1 324
1 325
0
0
1 326
1 327
1 328
1 329
1 330
1 331
1 332
0
0
0
0
0
1 333
1 334
1 335
1 336
1 337
0
0
0
0
0
0
0
0
0
0
0
0
1 338
1 339
1 340
1 341
1 342
1 343
1 344
1 345
1 346
1 347
1 348
1 349
1 350
1 351
1 352
1 353
1 354
1 355
1 356
0
0
1 357
1 358
1 359
1 360
1 361
1 362
1 363
0
0
0
0
0
1 364
1 365
1 366
1 367
1 368
0
0
0
0
0
0
0
0
0
0
0
0
1 369
1 370
1 371
1 372
1 373
1 374
1 375
1 376
1 377
1 378
1 379
1 380
1 381
1 382
1 383
1 384
1 385
1 386
1 387
0
0
1 388
1 389
1 390
1 391
1 392
1 393
1 394
0
0
0
0
0
1 395
1 396
1 397
1 398
1 399
0
0
0
0
0
0
0
0
0
0
0
0
1 400
1 401
1 402
1 403
1 404
1 405
1 406
1 407
1 408
1 409
1 410
1 411
1 412
1 413
1 414
1 415
1 416
1 417
1 418
0
0
1 419
1 420
1 421
1 422
1 423
1 424
1 425
0
0
0
0
1 426
1 427
1 428
1 429
1 430
0
0
0
0
0
0
0
0
0
0
0
0
0
1 431
1 432
1 433
1 434
1 435
1 436
1 437
1 438
1 439
1 440
1 441
1 442
1 443
1 444
1 445
1 446
1 447
1 448
1 449
0
0
1 450
1 451
1 452
1 453
1 454
1 455
0
0
0
0
1 456
1 457
1 458
1 459
1 460
1 461
0
0
0
0
0
0
0
0
0
0
0
0
0
1 462
1 463
1 464
1 465
1 466
1 467
1 468
1 469
1 470
1 471
1 472
1 473
1 474
1 475
1 476
1 477
1 478
1 479
1 480
0
0
1 481
1 482
1 483
1 484
1 485
1 486
1 487
1 488
1 489
1 490
1 491
1 492
1 493
1 494
1 495
0
0
0
0
0
0
0
0
0
0
0
0
0
0
1 496
1 497
1 498
1 499
1 500
1 501
1 502
1 503
1 504
1 505
1 506
1 507
1 508
1 509
1 510
1 511
1 512
1 513
1 514
0
0
1 515
1 516
1 517
1 518
1 519
1 520
1 521
1 522
1 523
1 524
1 525
1 526
1 527
1 528
1 529
0
0
0
0
0
0
0
0
0
0
0
0
0
0
1 530
1 531
0
1 532
1 533
1 534
1 535
1 536
1 537
1 538
1 539
1 540
1 541
1 542
1 543
1 544
1 545
1 546
1 547
0
0
1 548
1 549
1 550
1 551
1 552
1 553
1 554
1 555
1 556
1 557
1 558
1 559
1 560
1 561
0
0
0
0
0
0
0
0
0
0
0
0
0
0
0
1 562
1 563
0
1 564
1 565
1 566
1 567
1 568
1 569
1 570
1 571
1 572
1 573
1 574
1 575
1 576
1 577
1 578
1 579
0
0
1 580
1 581
1 582
1 583
1 584
1 585
1 586
1 587
1 588
1 589
1 590
1 591
1 592
1 593
0
0
0
0
0
0
0
0
0
0
0
0
0
0
0
1 594
1 595
0
0
1 596
1 597
1 598
1 599
1 600
1 601
1 602
1 603
1 604
1 605
1 606
1 607
1 608
1 609
1 610
0
0
1 611
1 612
1 613
1 614
1 615
1 616
1 617
1 618
1 619
1 620
1 621
1 622
1 623
1 624
0
0
0
0
0
0
0
0
0
0
0
0
0
0
0
1 625
1 626
0
0
1 627
1 628
1 629
1 630
1 631
1 632
1 633
1 634
1 635
1 636
1 637
1 638
1 639
1 640
1 641
1 642
1 643
0
0
0
0
0
0
0
1 644
1 645
1 646
1 647
1 648
1 649
1 650
0
0
0
0
0
0
0
0
0
0
0
0
0
0
0
1 651
1 652
0
1 653
1 654
1 655
1 656
1 657
1 658
1 659
1 660
1 661
1 662
1 663
1 664
1 665
1 666
1 667
1 668
1 669
1 670
1 671
1 672
1 673
1 674
1 675
1 676
1 677
1 678
1 679
1 680
1 681
1 682
1 683
1 684
0
0
0
0
0
0
0
0
0
0
0
0
0
0
0
1 685
1 686
1 687
1 688
1 689
1 690
1 691
1 692
1 693
1 694
1 695
1 696
1 697
1 698
1 699
1 700
1 701
1 702
1 703
1 704
1 705
1 706
1 707
1 708
1 709
1 710
1 711
1 712
1 713
1 714
1 715
1 716
1 717
1 718
1 719
0
0
0
0
0
0
0
0
0
0
0
0
0
0
0
1 720
1 721
1 722
1 723
1 724
1 725
1 726
1 727
1 728
1 729
1 730
1 731
1 732
1 733
1 734
1 735
1 736
1 737
1 738
1 739
1 740
1 741
1 742
1 743
1 744
1 745
1 746
1 747
1 748
1 749
1 750
1 751
1 752
1 753
1 754
0
0
0
0
0
0
0
0
0
0
0
0
0
0
0
1 755
1 756
1 757
1 758
1 759
1 760
1 761
1 762
1 763
1 764
1 765
1 766
1 767
1 768
1 769
1 770
1 771
1 772
1 773
1 774
1 775
1 776
1 777
1 778
1 779
1 780
1 781
1 782
1 783
1 784
1 785
1 786
1 787
1 788
0
0
0
0
0
0
0
0
0
0
0
0
0
0
0
0
0
0
0
0
0
0
0
0
0
0
0
0
0
0
0
0
0
0
0
0
0
0
0
0
0
0
0
1 789
1 790
1 791
1 792
1 793
1 794
0
0
0
0
0
0
0
0
0
0
0
0
0
0
0
0
0
0
0
0
0
0
0
0
0
0
0
0
0
0
0
0
0
0
0
0
0
0
0
0
0
0
0
0
0
0
0
0
0
0
0
0
0
0
0
0
0
0
0
0
0
0
0
0
0
0
0
0
0
0
0
0
0
0
0
0
0
0
0
0
0
0
0
0
0
0
0
0
0
0
0
0
0
0
0
0
0
0
0
0
0
0
0
0
0
0
0
0
0
0
0
0
0
0
0
0
0
0
0
0
0
0
0
0
0
0
0
0
0
0
0
0
0
0
0
0
0
0
0
0
0
0
0
0
0
0
0
0
0
0
0
0
0
0
0
0
0
0
0
0
0
0
0
0
0
0
0
0
0
0
0
0
0
0
0
0
0
0
0
0
0
0
0
0
0
0
0
0
0
0
0
0
0
0
0
0
0
0
0
0
0
0
0
0
0
0
0
0
0
0
0
0
0
0
0
0
0
0
0
0
0
0
0
0
0
0
0
0
0
0
0
0
0
0
0
0
0
0
0
0
0
0
0
0
0
0
0
0
0
0
0
0
0
0
0
0
0
0
0
0
0
0
0
0
0
0
0
0
0
0
0
0
0
0
0
0
0
0
0
0
0
0
0
0
0
0
0
0
0
0
0
0
0
0
0
0
0
0
0
0
0
0
0
0
0
0
0
0
0
0
0
0
0
0
0
0
0
0
0
0
0
0
0
0
0
0
0
0
0
0
0
0
0
0
0
0
0
0
0
0
0
0
0
0
0
0
0
0
0
0
0
0
0
0
0
0
0
0
0
0
0
0
0
0
0
0
0
0
0
0
0
0
0
0
0
0
0
0
0
0
0
0
0
0
0
0
0
0
0
0
0
0
0
0
0
0
0
0
0
0
0
0
0
0
0
0
0
0
0
0
0
0
0
0
0
0
0
0
0
0
0
0
0
0
0
0
0
0
0
0
0
0
0
0
0
0
0
0
0
0
0
0
0
0
0
0
0
0
0
0
0
0
0
0
0
0
0
0
0
0
0
0
0
0
0
0
0
0
0
0
0
0
0
0
0
0
0
0
0
0
0
0
0
0
0
0
0
0
0
0
0
0
0
0
0
0
0
0
0
0
0
0
0
0
0
0
0
0
0
0
0
0
0
0
0
0
0
0
0
0
0
0
0
0
0
0
0
0
0
0
0
0
0
0
0
0
0
0
0
0
0
0
0
0
0
0
0
0
0
0
0
0
0
0
0
0
0
0
0
0
0
0
0
0
0
0
0
0
0
0
0
0
0
0
0
0
0
0
0
0
0
0
0
0
0
0
0
0
0
0
0
0
0
0
0
0
0
0
0
0
0
0
0
0
0
0
0
0
0
0
0
0
0
0
0
0
0
0
0
0
0
0
0
0
0
0
0
0
0
0
0
0
0
0
0
0
0
0
0
0
0
0
0
0
0
0
0
0
0
0
0
0
0
0
0
0
0
0
0
0
0
0
0
0
0
0
0
