ply
format ascii 1.0
obj_info num_cols 50
obj_info num_rows 50
element vertex 696
property float x
property float y
property float z
element range_grid 2500
property list uchar int vertex_indices
end_header
36.8235252 23.2912087 -25.4868102
34.7454209 23.2540880 -25.5554834
32.7266293 23.0917547 -25.8292177
30.5807434 23.1850854 -25.6842726
28.5005515 23.1390595 -25.7675537
35.8080134 23.7199483 -21.0104330
33.7842565 23.6858031 -21.0723511
31.7643668 23.6398265 -21.1529930
29.7045294 23.6771162 -21.1019120
28.0414045 22.7744256 -22.5380388
28.0329581 17.4821624 -30.9199789
37.0427569 23.7516851 -17.3323286
35.1056845 23.6343362 -17.5196297
33.0904730 23.6600894 -17.4882420
31.0850815 23.6686857 -17.4830718
29.0895449 23.6565955 -17.5095203
28.0588996 21.2945171 -21.1284880
28.0458534 15.8988326 -29.3859559
36.3346472 23.6617778 -13.9886754
34.3954489 23.6176926 -14.0618038
32.4171991 23.6486766 -14.0240599
30.4611672 23.6357941 -14.0511066
28.4598980 23.7265655 -13.9250275
28.0490320 19.8800603 -19.6159223
28.0157852 14.4282020 -27.6796893
35.6119378 23.6503898 -10.6592624
33.7126491 23.6014028 -10.7372522
31.7802695 23.6160696 -10.7243719
29.8625161 23.6006632 -10.7544273
28.0630681 23.3040091 -11.1860990
28.0601889 18.4125323 -18.1796571
28.2135785 12.3377791 -26.8643401
36.7963036 23.6542743 -7.4272379
34.9295711 23.6147175 -7.4899119
33.0375345 23.6219563 -7.4880085
31.1576434 23.6046865 -7.5199315
29.2674363 23.6090348 -7.5220159
28.0701444 21.9439751 -9.8287570
28.0608362 16.9702695 -16.7039544
28.2573495 10.6539630 -25.4341488
36.1359130 23.5625862 -4.4516338
34.2816746 23.5617351 -4.4608844
32.4190554 23.5783540 -4.4468206
30.5693775 23.5693437 -4.4669572
28.7257315 23.5457821 -4.5065171
26.8688759 23.5520260 -4.5062956
25.0100831 23.5648116 -4.4973389
23.1450951 23.5977425 -4.4614824
21.3011189 23.5721944 -4.5036989
19.4581111 23.5394021 -4.5555940
17.5980351 23.5638517 -4.5310524
15.7579109 23.5125998 -4.6076087
13.9031137 23.5172969 -4.6094459
12.0441929 23.5462937 -4.5788211
10.1901329 23.5562453 -4.5736317
8.3446267 23.5080102 -4.6461792
6.4925504 23.4985530 -4.6669235
4.6370390 23.5283325 -4.6352377
2.7857232 23.5129205 -4.6639382
0.9339464 23.4905839 -4.7018963
-0.9187693 23.5029084 -4.6935292
-2.7702761 23.5265466 -4.6700346
-4.6224280 23.5124164 -4.6970254
-6.4762186 23.4854801 -4.7411405
-8.3265303 23.5012265 -4.7281890
-10.1793890 23.4908767 -4.7501298
-12.0364384 23.4573795 -4.8030286
-13.8873117 23.4643209 -4.8018488
-15.7334821 23.4899898 -4.7756165
-17.5876738 23.4767309 -4.8014516
-19.4371680 23.4824733 -4.8018684
-21.2911052 23.4717718 -4.8242841
-23.1408453 23.4749812 -4.8280875
-24.9967850 23.4597146 -4.8566138
-26.8526779 23.4462033 -4.8827937
-28.7208876 23.4039789 -4.9474064
-30.7185164 23.0708449 -5.4014251
-33.0517783 22.0542760 -6.7704151
37.2560006 23.5904944 -1.4193686
35.4418539 23.5794926 -1.4416897
33.6402075 23.5430394 -1.4968546
31.7909646 23.6021392 -1.4287159
29.9746835 23.5958964 -1.4448947
28.1713174 23.5590261 -1.5006064
26.3542273 23.5520696 -1.5177114
24.5246983 23.5780310 -1.4923209
22.7274577 23.5152078 -1.5815531
20.8986749 23.5413350 -1.5559449
19.0853245 23.5201165 -1.5914690
17.2583972 23.5465109 -1.5655071
15.4427380 23.5324432 -1.5917980
13.6305000 23.4996077 -1.6423337
11.8080462 23.5135276 -1.6324769
9.9893780 23.5094969 -1.6458071
8.1707459 23.5050553 -1.6596681
6.3509704 23.5111376 -1.6599306
4.5337190 23.4915916 -1.6933102
2.7145341 23.4931924 -1.6993630
0.8959086 23.4835541 -1.7199416
-0.9230167 23.4823037 -1.7296789
-2.7414855 23.4923120 -1.7248606
-4.5605158 23.4790704 -1.7500987
-6.3797121 23.4700115 -1.7699308
-8.1991478 23.4613875 -1.7892018
-10.0203251 23.4418854 -1.8225422
-11.8368597 23.4561330 -1.8122354
-13.6535910 23.4642752 -1.8098216
-15.4718476 23.4624297 -1.8203251
-17.2876499 23.4702870 -1.8182756
-19.1125871 23.4419584 -1.8630421
-20.9311542 23.4395782 -1.8742382
-22.7503931 23.4349003 -1.8884075
-24.5601175 23.4575850 -1.8671642
-26.3854642 23.4350158 -1.9044878
-28.2008802 23.4395863 -1.9066850
-30.1119686 23.2205115 -2.1984033
-32.2830056 22.4571429 -3.1948605
-35.2319079 20.1677522 -6.1673946
36.5595700 23.5968674 1.4677110
34.7766082 23.5892085 1.4500216
33.0081165 23.5520255 1.3954858
31.2147032 23.5640059 1.4023026
29.4216072 23.5771201 1.4105385
27.6459844 23.5505742 1.3692692
25.8476209 23.5789562 1.3965695
24.0666588 23.5643649 1.3702220
22.2862746 23.5463715 1.3396237
20.4879100 23.5833839 1.3777141
18.7064196 23.5690205 1.3516491
16.9254431 23.5505178 1.3204113
15.1363420 23.5633568 1.3283213
13.3536278 23.5496481 1.3030693
11.5718107 23.5280839 1.2680002
9.7832412 23.5439032 1.2796386
7.9953494 23.5623887 1.2946136
6.2129413 23.5388530 1.2570768
4.4297856 23.5114144 1.2146572
2.6435098 23.5211352 1.2186814
0.8580433 23.5263503 1.2170763
-0.9269405 23.5396691 1.2256049
-2.7118716 23.5236119 1.1974065
-4.4978727 23.4999395 1.1596827
-6.2830567 23.4993473 1.1508181
-8.0695827 23.4847600 1.1244504
-9.8520916 23.5045671 1.1411022
-11.6392377 23.4876520 1.1118212
-13.4224974 23.4953791 1.1133666
-15.2068891 23.4949657 1.1047293
-17.0031845 23.4439373 1.0327570
-18.7856798 23.4544301 1.0377637
-20.5694332 23.4580529 1.0341755
-22.3519440 23.4643943 1.0339919
-24.1411570 23.4496982 1.0074759
-25.9224454 23.4580100 1.0097612
-27.7068150 23.4569572 1.0003246
-29.5605441 23.2912720 0.7847424
-31.6259363 22.6724354 0.0016489
-34.1048396 21.2502024 -1.7877648
37.0598367 21.4332540 1.6333980
35.2299001 21.4696728 1.6689609
33.4220981 21.4650149 1.6549508
31.5944041 21.5032527 1.6927238
29.7871386 21.4996720 1.6800188
27.9746640 21.5087810 1.6826359
26.1537357 21.5415630 1.7138424
24.3501604 21.5312756 1.6930438
22.5445815 21.5259725 1.6782638
20.7304371 21.5482499 1.6967981
18.9301001 21.5262662 1.6618698
17.1186625 21.5439732 1.6748896
15.3038401 21.5811953 1.7114940
13.4993915 21.5779549 1.6992136
11.6928493 21.5865752 1.7012672
9.8891938 21.5804301 1.6854777
8.0807236 21.6112642 1.7143863
6.2746552 21.6359460 1.7358658
4.4748373 21.5968944 1.6802991
2.6691908 21.6390029 1.7228552
0.8670690 21.6316504 1.7056128
-0.9352522 21.6204231 1.6836834
-2.7370664 21.6411385 1.7003859
-4.5377988 21.6585932 1.7131502
-6.3367329 21.6849462 1.7366837
-8.1386630 21.6682175 1.7081031
-9.9383982 21.6733466 1.7059662
-11.7341537 21.7009317 1.7310045
-13.5309249 21.7141493 1.7386631
-15.3334754 21.6954932 1.7077487
-17.1246486 21.7286774 1.7395794
-18.9257673 21.7163339 1.7163059
-20.7181316 21.7361741 1.7319937
-22.5138526 21.7413608 1.7299450
-24.3094464 21.7455746 1.7267203
-26.0972536 21.7701097 1.7481070
-27.8907891 21.7761853 1.7471434
-29.6854390 21.7783661 1.7414645
-31.4711277 21.8002081 1.7596042
-33.3149496 21.6945537 1.6232884
35.8036381 19.0796702 1.6427665
33.9656326 19.0771051 1.6311012
32.1018366 19.1314289 1.6858662
30.2632286 19.1339125 1.6801043
28.4324206 19.1178517 1.6526850
26.5834205 19.1482355 1.6795134
24.7455110 19.1520948 1.6753642
22.9084080 19.1546675 1.6697136
21.0774000 19.1381201 1.6417241
19.2256497 19.1941920 1.6985909
17.3963230 19.1731084 1.6653025
15.5564666 19.1947342 1.6819284
13.7203071 19.2043406 1.6845107
11.8825208 19.2270949 1.7024666
10.0511004 19.2163210 1.6812292
8.2167156 19.2264953 1.6844843
6.3829412 19.2376229 1.6888575
4.5517117 19.2244435 1.6648069
2.7186808 19.2385950 1.6727211
0.8863460 19.2618874 1.6913322
-0.9446370 19.2775757 1.7010539
-2.7747900 19.2877090 1.7042809
-4.6045177 19.2926225 1.7014035
-6.4347689 19.2852776 1.6841831
-8.2631514 19.2977197 1.6901195
-10.0897567 19.3175865 1.7047501
-11.9150227 19.3383878 1.7204802
-13.7480976 19.3088339 1.6772651
-15.5674293 19.3526788 1.7199809
-17.4001974 19.3277511 1.6821793
-19.2148424 19.3778928 1.7322835
-21.0505962 19.3432244 1.6830726
-22.8675726 19.3749616 1.7116352
-24.6931433 19.3753768 1.7035151
-26.5096972 19.4004633 1.7242994
-28.3367340 19.3943179 1.7084973
-30.1521889 19.4168874 1.7263423
-31.9761287 19.4167866 1.7176262
-33.8010336 19.4141814 1.7059757
-35.6512057 19.3592074 1.6329422
36.3690395 16.6659947 1.6774645
34.5087825 16.6495990 1.6499956
32.6428465 16.6445123 1.6352982
30.7724138 16.6499387 1.6324772
28.8932037 16.6786567 1.6559740
27.0268855 16.6770520 1.6452154
25.1613335 16.6735517 1.6323152
23.2906674 16.6859911 1.6374299
21.4183006 16.7068894 1.6521096
19.5479579 16.7248726 1.6635000
17.6850699 16.7170611 1.6457334
15.8125591 16.7516992 1.6759622
13.9510620 16.7401625 1.6539865
12.0857620 16.7484785 1.6544603
10.2206112 16.7598806 1.6584275
8.3572215 16.7630690 1.6531075
6.4924514 16.7840192 1.6678824
4.6306454 16.7810446 1.6555950
2.7679192 16.7983180 1.6662186
0.9067417 16.7934122 1.6517487
-0.9544238 16.8168276 1.6693308
-2.8146216 16.8260616 1.6708680
-4.6747436 16.8243318 1.6599976
-6.5330349 16.8450108 1.6744966
-8.3903648 16.8631711 1.6861496
-10.2464705 16.8823675 1.6989812
-12.1076660 16.8605144 1.6653315
-13.9605892 16.8905528 1.6904485
-15.8193012 16.8835362 1.6736016
-17.6685604 16.9189558 1.7048262
-19.5300573 16.8979476 1.6721313
-21.3823234 16.9134471 1.6807973
-23.2367134 16.9187119 1.6778703
-27.4480708 9.6953276 -6.5172110
-29.4402113 9.8180410 -6.3878782
-32.4884288 16.9767274 1.6991985
-34.3353294 16.9908788 1.7063646
-36.1756621 17.0169712 1.7270761
36.5813159 14.9360198 2.5440568
34.6122723 15.1303323 2.7472235
32.7458511 15.1129941 2.7191577
30.8702937 15.1161006 2.7134318
29.0004376 15.1054525 2.6926740
27.1387108 15.0716304 2.6465832
25.2513633 15.1086721 2.6779549
23.3884960 15.0746390 2.6316275
21.4975167 15.1318934 2.6851120
19.6347515 15.0947576 2.6353879
17.7723518 15.0493773 2.5766388
15.8926115 15.0741450 2.5946091
14.0167199 15.0862712 2.5987571
12.1422842 15.0944069 2.5985431
10.2729570 15.0712574 2.5641004
8.3997773 15.0722944 2.5561203
6.5265790 15.0760082 2.5510709
4.6549645 15.0626171 2.5273013
2.7834229 15.0375643 2.4907639
0.9100280 15.0493396 2.4945399
-0.9626583 15.0387702 2.4738546
-2.8377381 14.9517037 2.3694025
-4.7200946 14.8024850 2.1968657
-6.6117572 14.6245198 1.9928097
-8.5074582 14.4912773 1.8377002
-10.4096561 14.3567658 1.6811695
-12.3002270 14.3429090 1.6567978
-14.1836596 14.3729258 1.6804972
-16.0709743 14.3750165 1.6736019
-17.9575147 14.3792798 1.6690892
-19.8379638 14.4065694 1.6898171
-21.7308103 14.3826412 1.6544074
-24.4825051 11.4631259 -1.5555015
-26.9783435 9.7861955 -3.4036841
-29.0200246 9.6620375 -3.5495577
-30.7285100 10.4551224 -2.6895392
-33.0023160 14.4928355 1.7202061
-34.8891319 14.4840432 1.7013976
-36.7661131 14.4968074 1.7062389
32.1783717 15.1265529 5.4542087
30.3231373 15.1568225 5.4771095
28.4950604 15.1205219 5.4296297
26.9788031 14.2116651 4.4594344
24.8242754 15.0775203 5.3659513
22.9797736 15.0811836 5.3607223
21.1389657 15.0732124 5.3431876
19.2842928 15.1172493 5.3806740
17.4480017 15.0938909 5.3468627
15.6072758 15.0868010 5.3302620
13.7670243 15.0763693 5.3101238
11.9257685 15.0700389 5.2943250
10.0845703 15.0624240 5.2771657
8.2448835 15.0404157 5.2447678
6.3986529 15.0787264 5.2762305
4.5564024 15.0890522 5.2780698
2.7173080 15.0451324 5.2224650
0.8760223 15.0130124 5.1793483
-0.9668655 14.8873052 5.0370914
-2.8161741 14.7411535 4.8731470
-4.6769278 14.5045664 4.6133523
-6.5540161 14.1995402 4.2809828
-8.4571812 13.7775352 3.8245747
-10.3869307 13.3031481 3.3125495
-12.3501610 12.7551913 2.7224302
-14.3553691 12.1150441 2.0344510
-16.3302800 11.7871007 1.6773233
-18.2530862 11.7679647 1.6475574
-20.1715761 11.7695819 1.6397956
-22.0777767 11.8161659 1.6797255
-24.0030291 11.7890461 1.6414906
-26.5184461 9.8950525 -0.3771458
-28.5909263 9.5732463 -0.7282545
-30.3576833 10.1342082 -0.1427808
-31.7893709 11.4892964 1.2855263
-33.5633561 11.8542872 1.6633818
-35.4693925 11.8755581 1.6764997
-37.4036213 11.8328907 1.6217516
30.0560692 14.5430293 7.4799886
28.7064929 13.2777209 6.1765661
27.3447525 11.8772880 4.7346097
22.5813959 15.0974092 8.0106677
20.7694895 15.0946098 7.9987236
18.9611091 15.0783215 7.9729741
17.1557864 15.0464479 7.9312683
15.3313243 15.0990005 7.9759851
13.5288880 15.0481084 7.9148039
11.7123437 15.0698435 7.9279791
9.9028682 15.0496074 7.8981785
8.0875534 15.0729467 7.9130037
6.2795755 15.0306589 7.8606125
4.4677168 15.0182697 7.8388412
2.6584065 14.9398597 7.7494259
0.8464551 14.8188096 7.6163007
-0.9712134 14.6378169 7.4217188
-2.7999223 14.3564249 7.1241945
-4.6453996 14.0028336 6.7525977
-6.5100893 13.6135227 6.3442999
-8.4060322 13.0908561 5.7991855
-10.3315082 12.5273326 5.2120537
-12.2954686 11.8811415 4.5400130
-14.3041249 11.1502576 3.7809570
-16.3681545 10.3104016 2.9099512
-18.4817341 9.4244179 1.9914264
-20.5077565 9.0785369 1.6268268
-22.4568079 9.0867049 1.6254350
-24.3985115 9.1184886 1.6482809
-26.3417173 9.1399830 1.6605750
-28.2839062 9.1609138 1.6722966
-30.2340046 9.1564473 1.6579520
-32.1800227 9.1627393 1.6546529
-34.1232374 9.1747529 1.6572312
-36.0682697 9.1807652 1.6536504
30.4370049 12.3068204 7.8343138
29.0698293 11.0061634 6.5378850
23.9923129 15.0732443 10.5442665
22.2175372 15.0412988 10.5035856
20.4220528 15.0792311 10.5320775
18.6375433 15.0816055 10.5253726
16.8588549 15.0599645 10.4948880
15.0766992 15.0509861 10.4769396
13.2973690 15.0252962 10.4424376
11.5114541 15.0341697 10.4421688
9.7251637 15.0500228 10.4488178
7.9451659 15.0186657 10.4086938
6.1667132 14.9560052 10.3375431
4.3869645 14.8716949 10.2449219
2.6066569 14.7146077 10.0801461
0.8196742 14.5341665 9.8921827
-0.9758759 14.2307647 9.5822711
-2.7875456 13.8448864 9.1905095
-4.6200317 13.3982810 8.7384365
-6.4792412 12.8680505 8.2033209
-8.3668297 12.2979020 7.6284859
-10.2924306 11.6304047 6.9569452
-12.2596076 10.8882972 6.2112238
-14.2824864 10.0178242 5.3379564
-16.3526702 9.1108194 4.4282309
-18.5059435 8.0108152 3.3267413
-20.7464725 6.7573475 2.0726631
-22.8402228 6.2953539 1.6040077
-24.8146013 6.3317826 1.6301008
-26.7899452 6.3588839 1.6469416
-28.7680079 6.3733090 1.6512013
-30.7475888 6.3809830 1.6487602
-32.7222357 6.4003457 1.6579324
-34.7085323 6.3877621 1.6353735
-36.6930995 6.3802204 1.6178219
25.3544093 15.0653923 13.0146597
23.6051251 15.0425000 12.9837087
21.8479423 15.0432944 12.9754351
20.0938831 15.0333802 12.9569069
18.3291201 15.0651160 12.9782700
16.5755498 15.0546931 12.9592565
14.8264522 15.0208051 12.9177605
13.0654897 15.0447508 12.9316718
11.3167184 14.9995771 12.8793535
9.5632224 14.9752238 12.8469797
7.8093844 14.9454063 12.8093634
6.0643661 14.8031839 12.6639852
4.3133197 14.6558354 12.5136597
2.5610043 14.3852243 12.2451068
0.7970294 14.0849868 11.9480793
-0.9808572 13.6743819 11.5451272
-2.7790530 13.2003163 11.0812057
-4.6009038 12.6838200 10.5764674
-6.4543422 12.0547684 9.9636152
-8.3392733 11.3961686 9.3222615
-10.2679193 10.6212018 8.5690758
-12.2452272 9.7516620 7.7249350
-14.2850773 8.7423715 6.7464382
-16.3857413 7.6542269 5.6920000
-18.5636528 6.4345689 4.5110304
-20.8688348 4.9068241 3.0339210
-23.2086700 3.5172445 1.6891475
-25.2485059 3.4355815 1.6003357
-27.2621038 3.4529429 1.6066329
-29.2676901 3.4920068 1.6337860
-31.2791542 3.5084108 1.6391760
-33.3022777 3.4907309 1.6118162
-35.3127850 3.5067739 1.6168648
-37.3421508 3.4752067 1.5761536
23.2406985 14.9775090 15.3167360
21.5087392 14.9803287 15.3103360
19.7706280 15.0071144 15.3261393
18.0347756 15.0302915 15.3386064
16.3071448 15.0220716 15.3219866
14.5786140 15.0172733 15.3085367
12.8620574 14.9449405 15.2324916
11.1293494 14.9564287 15.2341302
9.4080296 14.8873574 15.1610864
7.6946734 14.7192350 14.9961860
5.9759010 14.5280089 14.8098222
4.2545547 14.2459801 14.5391997
2.5225812 13.9177697 14.2256754
0.7777087 13.5002816 13.8292535
-0.9860877 13.0031703 13.3588600
-2.7730344 12.4726664 12.8573648
-4.5881146 11.8519138 12.2719920
-6.4370648 11.1462641 11.6076766
-8.3244492 10.3684627 10.8762201
-10.2609343 9.4685245 10.0311914
-12.2508860 8.4747004 9.0987785
-14.3111510 7.3217624 8.0183763
-16.4439562 6.0563102 6.8332078
-18.6876058 4.5293671 5.4048552
-21.0812183 2.6472524 3.6461994
-23.6135782 0.5503670 1.6875607
-25.6933824 0.4519599 1.5854334
-27.7456222 0.4609379 1.5830798
-29.7948399 0.4775314 1.5878074
-31.8525179 0.4666013 1.5669549
-33.8857650 0.5236246 1.6092758
-35.9286532 0.5485637 1.6217793
21.1514450 15.0165702 17.6648042
19.4494062 15.0104959 17.6503878
17.7432575 15.0209107 17.6507475
16.0384832 15.0278863 17.6480280
14.3506093 14.9516994 17.5707652
12.6578898 14.8846712 17.5016963
10.9613537 14.8240792 17.4383832
9.2788382 14.6368708 17.2615150
7.5922623 14.4116955 17.0505531
5.9035511 14.0968759 16.7591305
4.2024877 13.7584883 16.4464925
2.4908666 13.3159576 16.0403381
0.7612232 12.7955492 15.5641992
-0.9915681 12.2232517 15.0413717
-2.7704910 11.6181774 14.4889918
-4.5816611 10.8971018 13.8323394
-6.4304668 10.0938564 13.1017474
-8.3241304 9.1894447 12.2801298
-10.2697673 8.1806314 11.3645458
-12.2819187 7.0117715 10.3049812
-14.3711788 5.6833602 9.1018248
-16.5576828 4.1428386 7.7078029
-18.8978371 2.1819460 5.9357195
-21.4747350 -0.4438478 3.5656893
-24.0726011 -2.6831906 1.5423598
-26.1524185 -2.6326863 1.5767287
-28.2363876 -2.6047475 1.5908247
-30.3323792 -2.6196415 1.5664182
-32.4200938 -2.6085177 1.5654043
-34.5008261 -2.5798260 1.5801930
-36.5932691 -2.5857349 1.5638687
19.1741272 14.8745750 19.7838532
17.4635233 14.9989008 19.8826533
15.8073106 14.8979022 19.7861654
14.1389144 14.8375130 19.7248608
12.4780627 14.7189440 19.6130975
10.8212214 14.5402444 19.4491632
9.1680237 14.2735464 19.2088671
7.5090583 13.9527559 18.9215891
5.8426254 13.5560056 18.5683395
4.1612496 13.1226767 18.1832607
2.4651654 12.5885307 17.7105960
0.7467636 12.0048279 17.1947980
-0.9972767 11.3481193 16.6154957
-2.7709609 10.6504666 16.0004967
-4.5809563 9.8264989 15.2756651
-6.4335747 8.9052362 14.4661560
-8.3359083 7.8789261 13.5652028
-10.3026669 6.6780493 12.5123856
-12.3432938 5.3176847 11.3207422
-14.4783797 3.7330512 9.9339340
-16.7616160 1.7053472 8.1617593
-19.3039074 -1.1744925 5.6485656
-22.3832200 -5.9070062 1.5244225
-24.5092860 -5.8795428 1.5369345
-26.6278615 -5.8291253 1.5694100
-28.7743432 -5.8840898 1.5102672
-30.8888430 -5.8285401 1.5472192
-33.0097708 -5.8003027 1.5604303
-35.1403698 -5.8034805 1.5463221
-37.2793530 -5.8291428 1.5126530
17.2407246 14.7697495 21.8754579
15.5793877 14.7847242 21.8790813
13.9485293 14.6447718 21.7528213
12.3223553 14.4425388 21.5743075
10.7023350 14.1409205 21.3124016
9.0731697 13.8097795 21.0256648
7.4382484 13.3987202 20.6718128
5.7919867 12.9126089 20.2549001
4.1264540 12.4009682 19.8164541
2.4432329 11.7837060 19.2892529
0.7345131 11.1124505 18.7165919
-1.0032784 10.3593024 18.0750327
-2.7747979 9.5506851 17.3867303
-4.5863545 8.6274616 16.6020107
-6.4466656 7.5704130 15.7046943
-8.3675781 6.3438247 14.6647379
-10.3612124 4.9373360 13.4733796
-12.4503586 3.2667158 12.0597919
-14.6718523 1.2037111 10.3161196
-17.1661459 -1.9072412 7.6913193
-20.6259589 -9.2367421 1.5202227
-22.7899957 -9.1947723 1.5437990
-24.9631936 -9.1992671 1.5283230
-27.1339272 -9.1943357 1.5207728
-29.3021450 -9.1819493 1.5194939
-31.4588145 -9.1340702 1.5480701
-33.6142193 -9.0892259 1.5741058
-35.8015549 -9.1422169 1.5178454
15.4228538 14.3632645 23.6644829
13.7928428 14.2974878 23.6022239
12.2044385 13.9673369 23.3256057
10.6034301 13.6281980 23.0416235
8.9969050 13.2187214 22.7005201
7.3819315 12.7238561 22.2900628
5.7502319 12.1779591 21.8380934
4.0994251 11.5666870 21.3329568
2.4252991 10.8910605 20.7754585
0.7242729 10.1226289 20.1424863
-1.0095764 9.2607646 19.4334985
-2.7817061 8.3262995 18.6653743
-4.5997000 7.2541664 17.7852590
-6.4741550 6.0171442 16.7710001
-8.4171474 4.5975015 15.6081400
-10.4533272 2.8761914 14.1999171
-12.6312420 0.6286355 12.3637829
-15.0743514 -2.7374942 9.6182881
-18.8071610 -12.7308468 1.4866294
-21.0155520 -12.6917410 1.5063536
-23.2095353 -12.5943980 1.5734260
-26.7840986 -18.3451401 -3.1137541
-29.1321904 -18.3967854 -3.1684503
-31.1481792 -17.2523593 -2.2505191
-34.2677335 -12.5837818 1.5218699
-36.4820593 -12.5919478 1.5031926
13.6738466 13.7766907 25.2729900
12.0968538 13.4496254 25.0076627
10.5167409 13.0498409 24.6852530
8.9361083 12.5189798 24.2599799
7.3358690 11.9633060 23.8151277
5.7168906 11.3528639 23.3271939
4.0785362 10.6408971 22.7594834
2.4125988 9.8740294 22.1485387
0.7164050 9.0092649 21.4606047
-1.0163295 8.0021913 20.6607947
-2.7924605 6.9405102 19.8178937
-4.6212347 5.6944890 18.8300453
-6.5178620 4.2091205 17.6539995
-8.5010620 2.4420943 16.2564510
-10.6197566 0.1036696 14.4097612
-13.0716029 -4.0628298 11.1266849
-16.9127926 -16.3466769 1.4660006
-19.1676880 -16.3162197 1.4775081
-21.4322514 -16.3438968 1.4433424
-23.6677294 -16.2301693 1.5203019
-26.3996183 -18.2637571 -0.0905418
-28.7525081 -18.4736309 -0.2681692
-30.8137812 -17.5933592 0.4112822
-32.6832702 -16.1910266 1.5014675
-34.9268025 -16.1533553 1.5186986
12.0094209 12.8262177 26.5774713
10.4534833 12.3229989 26.1871146
8.8846982 11.7551059 25.7476271
7.3028482 11.0847808 25.2303661
5.6939819 10.4072608 24.7074975
4.0635013 9.6236525 24.1040344
2.4048428 8.7335832 23.4196577
0.7115982 7.7262251 22.6461184
-1.0235389 6.5892749 21.7740430
-2.8087030 5.3184246 20.8001185
-4.6543485 3.8649755 19.6873460
-6.5883568 1.9738849 18.2421052
-8.6465832 -0.4567630 16.3868876
-12.6373703 -20.1264848 1.4440496
-14.9429368 -20.1188662 1.4370344
-17.2441717 -20.0853493 1.4496887
-19.5521512 -20.1012939 1.4247860
-21.8532104 -20.0781475 1.4295746
-24.1510295 -20.0450291 1.4419456
-26.4589909 -20.0627419 1.4157017
-28.7466336 -19.9973283 1.4526270
-31.0411841 -19.9680144 1.4621302
-33.3390084 -19.9547084 1.4594722
10.3980706 11.5519014 27.6360985
8.8489095 10.8714481 27.1285681
7.2774802 10.1369175 26.5812678
5.6790661 9.3662664 26.0073357
4.0567169 8.4691964 25.3405894
2.4028601 7.4415562 24.5779431
0.7093219 6.2943615 23.7274267
-1.0313910 4.9647256 22.7428950
-2.8304173 3.4532006 21.6246902
-4.7094839 1.5171622 20.1948180
-6.7126312 -1.1255493 18.2461751
10.4020757 10.3597889 28.7697409
8.8242692 9.9002977 28.4353301
7.2658311 9.0541188 27.8271071
5.6753844 8.1834728 27.2013713
4.0596773 7.1449563 26.4565766
2.4075313 5.9669402 25.6127573
0.7109462 4.6254747 24.6529027
-1.0400496 3.0810625 23.5489774
-2.8649759 1.0183302 22.0774668
-4.8062584 -1.8213618 20.0549163
8.8104815 8.8401087 29.6736728
7.2657819 7.8522838 28.9888864
5.6819355 6.8655720 28.3046386
4.0712957 5.6624617 27.4721537
2.4190578 4.2957034 26.5274453
0.7171924 2.6639777 25.4011333
-1.0508182 0.5168659 23.9217589
-2.9244603 -2.5319548 21.8247313
7.2764024 6.5360194 30.0781178
5.7032513 5.3464275 29.2828832
4.0949027 3.9549499 28.3540216
2.4430540 2.2633206 27.2265419
0.7339998 0.0347123 25.7438480
-1.0659190 -3.4312169 23.4428955
7.3056940 5.0148965 31.0448539
5.7453206 3.5367509 30.0926189
4.1401356 1.8370527 28.9987533
2.4924841 -0.5114029 27.4906742
0.7956113 -5.4099245 24.3551310
7.3822391 2.9703365 31.7063824
5.8127451 1.3615943 30.7064111
4.2305806 -1.1450424 29.1533622
5.9481224 -1.7847063 30.7871862
0
0
0
0
0
0
0
0
0
0
0
0
0
0
0
0
0
0
0
0
0
0
0
0
0
0
0
0
0
0
0
0
0
0
0
0
0
0
0
0
0
0
0
0
0
0
0
0
0
0
0
0
0
0
0
0
0
0
0
0
0
0
0
0
0
0
0
0
0
0
0
0
0
0
0
0
0
0
0
0
0
0
0
0
0
0
0
0
0
0
0
0
0
0
0
0
0
0
0
0
0
0
0
0
0
0
0
0
0
0
0
0
0
0
0
0
0
0
0
0
0
0
0
0
0
0
0
0
0
0
0
0
0
0
0
0
0
0
0
0
0
0
0
0
0
0
0
0
0
0
0
0
0
0
0
0
0
0
0
0
0
0
0
0
0
0
0
0
0
0
0
0
0
0
0
0
0
0
0
0
0
0
0
0
0
0
0
0
0
0
0
0
0
0
0
0
0
0
0
0
0
0
0
0
0
0
0
0
0
0
0
0
0
0
0
0
0
0
0
0
0
0
0
0
0
0
0
0
0
0
0
0
0
0
0
0
0
0
0
0
0
0
0
0
0
0
0
0
0
0
0
0
0
0
0
0
0
0
0
0
0
0
0
0
0
0
0
0
0
0
0
0
0
0
0
0
0
0
0
0
0
0
0
0
0
0
0
0
0
0
0
0
0
0
0
0
0
0
0
0
0
0
0
0
0
0
0
0
0
0
0
0
0
0
0
0
0
0
0
0
0
0
0
0
0
0
0
0
0
0
0
0
0
0
0
0
0
0
0
0
0
0
0
0
0
0
0
0
0
0
0
0
0
0
0
0
0
0
0
0
0
0
0
0
0
0
0
0
0
0
0
0
0
0
0
0
0
0
0
0
0
0
0
0
0
0
0
0
0
0
0
0
0
0
0
0
0
0
0
0
0
0
0
0
0
0
0
1 0
1 1
1 2
1 3
1 4
0
0
0
0
0
0
0
0
0
0
0
0
0
0
0
0
0
0
0
0
0
0
0
0
0
0
0
0
0
0
0
0
0
0
0
0
0
0
0
0
0
0
0
0
0
1 5
1 6
1 7
1 8
1 9
1 10
0
0
0
0
0
0
0
0
0
0
0
0
0
0
0
0
0
0
0
0
0
0
0
0
0
0
0
0
0
0
0
0
0
0
0
0
0
0
0
0
0
0
0
1 11
1 12
1 13
1 14
1 15
1 16
1 17
0
0
0
0
0
0
0
0
0
0
0
0
0
0
0
0
0
0
0
0
0
0
0
0
0
0
0
0
0
0
0
0
0
0
0
0
0
0
0
0
0
0
0
1 18
1 19
1 20
1 21
1 22
1 23
1 24
0
0
0
0
0
0
0
0
0
0
0
0
0
0
0
0
0
0
0
0
0
0
0
0
0
0
0
0
0
0
0
0
0
0
0
0
0
0
0
0
0
0
0
1 25
1 26
1 27
1 28
1 29
1 30
1 31
0
0
0
0
0
0
0
0
0
0
0
0
0
0
0
0
0
0
0
0
0
0
0
0
0
0
0
0
0
0
0
0
0
0
0
0
0
0
0
0
0
0
1 32
1 33
1 34
1 35
1 36
1 37
1 38
1 39
0
0
0
0
0
0
0
0
0
0
0
0
0
0
0
0
0
0
0
0
0
0
0
0
0
0
0
0
0
0
0
0
0
0
0
0
0
0
0
0
0
0
1 40
1 41
1 42
1 43
1 44
1 45
1 46
1 47
1 48
1 49
1 50
1 51
1 52
1 53
1 54
1 55
1 56
1 57
1 58
1 59
1 60
1 61
1 62
1 63
1 64
1 65
1 66
1 67
1 68
1 69
1 70
1 71
1 72
1 73
1 74
1 75
1 76
1 77
0
0
0
0
0
0
0
0
0
0
0
1 78
1 79
1 80
1 81
1 82
1 83
1 84
1 85
1 86
1 87
1 88
1 89
1 90
1 91
1 92
1 93
1 94
1 95
1 96
1 97
1 98
1 99
1 100
1 101
1 102
1 103
1 104
1 105
1 106
1 107
1 108
1 109
1 110
1 111
1 112
1 113
1 114
1 115
1 116
1 117
0
0
0
0
0
0
0
0
0
0
1 118
1 119
1 120
1 121
1 122
1 123
1 124
1 125
1 126
1 127
1 128
1 129
1 130
1 131
1 132
1 133
1 134
1 135
1 136
1 137
1 138
1 139
1 140
1 141
1 142
1 143
1 144
1 145
1 146
1 147
1 148
1 149
1 150
1 151
1 152
1 153
1 154
1 155
1 156
1 157
0
0
0
0
0
0
0
0
0
0
1 158
1 159
1 160
1 161
1 162
1 163
1 164
1 165
1 166
1 167
1 168
1 169
1 170
1 171
1 172
1 173
1 174
1 175
1 176
1 177
1 178
1 179
1 180
1 181
1 182
1 183
1 184
1 185
1 186
1 187
1 188
1 189
1 190
1 191
1 192
1 193
1 194
1 195
1 196
1 197
0
0
0
0
0
0
0
0
0
0
0
1 198
1 199
1 200
1 201
1 202
1 203
1 204
1 205
1 206
1 207
1 208
1 209
1 210
1 211
1 212
1 213
1 214
1 215
1 216
1 217
1 218
1 219
1 220
1 221
1 222
1 223
1 224
1 225
1 226
1 227
1 228
1 229
1 230
1 231
1 232
1 233
1 234
1 235
1 236
1 237
0
0
0
0
0
0
0
0
0
0
1 238
1 239
1 240
1 241
1 242
1 243
1 244
1 245
1 246
1 247
1 248
1 249
1 250
1 251
1 252
1 253
1 254
1 255
1 256
1 257
1 258
1 259
1 260
1 261
1 262
1 263
1 264
1 265
1 266
1 267
1 268
1 269
1 270
1 271
1 272
0
0
1 273
1 274
1 275
0
0
0
0
0
0
0
0
0
0
1 276
1 277
1 278
1 279
1 280
1 281
1 282
1 283
1 284
1 285
1 286
1 287
1 288
1 289
1 290
1 291
1 292
1 293
1 294
1 295
1 296
1 297
1 298
1 299
1 300
1 301
1 302
1 303
1 304
1 305
1 306
1 307
1 308
1 309
1 310
1 311
0
1 312
1 313
1 314
0
0
0
0
0
0
0
0
0
0
0
0
1 315
1 316
1 317
1 318
1 319
1 320
1 321
1 322
1 323
1 324
1 325
1 326
1 327
1 328
1 329
1 330
1 331
1 332
1 333
1 334
1 335
1 336
1 337
1 338
1 339
1 340
1 341
1 342
1 343
1 344
1 345
1 346
1 347
1 348
1 349
1 350
1 351
1 352
0
0
0
0
0
0
0
0
0
0
0
0
0
1 353
1 354
1 355
0
1 356
1 357
1 358
1 359
1 360
1 361
1 362
1 363
1 364
1 365
1 366
1 367
1 368
1 369
1 370
1 371
1 372
1 373
1 374
1 375
1 376
1 377
1 378
1 379
1 380
1 381
1 382
1 383
1 384
1 385
1 386
1 387
0
0
0
0
0
0
0
0
0
0
0
0
0
0
1 388
1 389
0
1 390
1 391
1 392
1 393
1 394
1 395
1 396
1 397
1 398
1 399
1 400
1 401
1 402
1 403
1 404
1 405
1 406
1 407
1 408
1 409
1 410
1 411
1 412
1 413
1 414
1 415
1 416
1 417
1 418
1 419
1 420
1 421
1 422
0
0
0
0
0
0
0
0
0
0
0
0
0
0
0
0
1 423
1 424
1 425
1 426
1 427
1 428
1 429
1 430
1 431
1 432
1 433
1 434
1 435
1 436
1 437
1 438
1 439
1 440
1 441
1 442
1 443
1 444
1 445
1 446
1 447
1 448
1 449
1 450
1 451
1 452
1 453
1 454
1 455
1 456
0
0
0
0
0
0
0
0
0
0
0
0
0
0
0
0
0
1 457
1 458
1 459
1 460
1 461
1 462
1 463
1 464
1 465
1 466
1 467
1 468
1 469
1 470
1 471
1 472
1 473
1 474
1 475
1 476
1 477
1 478
1 479
1 480
1 481
1 482
1 483
1 484
1 485
1 486
1 487
1 488
0
0
0
0
0
0
0
0
0
0
0
0
0
0
0
0
0
0
0
1 489
1 490
1 491
1 492
1 493
1 494
1 495
1 496
1 497
1 498
1 499
1 500
1 501
1 502
1 503
1 504
1 505
1 506
1 507
1 508
1 509
1 510
1 511
1 512
1 513
1 514
1 515
1 516
1 517
1 518
1 519
0
0
0
0
0
0
0
0
0
0
0
0
0
0
0
0
0
0
0
0
1 520
1 521
1 522
1 523
1 524
1 525
1 526
1 527
1 528
1 529
1 530
1 531
1 532
1 533
1 534
1 535
1 536
1 537
1 538
1 539
1 540
1 541
1 542
1 543
1 544
1 545
1 546
1 547
1 548
1 549
0
0
0
0
0
0
0
0
0
0
0
0
0
0
0
0
0
0
0
0
0
1 550
1 551
1 552
1 553
1 554
1 555
1 556
1 557
1 558
1 559
1 560
1 561
1 562
1 563
1 564
1 565
1 566
1 567
1 568
1 569
1 570
1 571
1 572
1 573
1 574
1 575
1 576
1 577
0
0
0
0
0
0
0
0
0
0
0
0
0
0
0
0
0
0
0
0
0
0
0
1 578
1 579
1 580
1 581
1 582
1 583
1 584
1 585
1 586
1 587
1 588
1 589
1 590
1 591
1 592
1 593
1 594
1 595
1 596
1 597
1 598
1 599
1 600
1 601
0
1 602
1 603
0
0
0
0
0
0
0
0
0
0
0
0
0
0
0
0
0
0
0
0
0
0
0
0
1 604
1 605
1 606
1 607
1 608
1 609
1 610
1 611
1 612
1 613
1 614
1 615
1 616
1 617
1 618
1 619
1 620
1 621
1 622
1 623
1 624
1 625
1 626
1 627
1 628
0
0
0
0
0
0
0
0
0
0
0
0
0
0
0
0
0
0
0
0
0
0
0
0
0
0
1 629
1 630
1 631
1 632
1 633
1 634
1 635
1 636
1 637
1 638
1 639
1 640
1 641
1 642
1 643
1 644
1 645
1 646
1 647
1 648
1 649
1 650
1 651
0
0
0
0
0
0
0
0
0
0
0
0
0
0
0
0
0
0
0
0
0
0
0
0
0
0
0
0
1 652
1 653
1 654
1 655
1 656
1 657
1 658
1 659
1 660
1 661
1 662
0
0
0
0
0
0
0
0
0
0
0
0
0
0
0
0
0
0
0
0
0
0
0
0
0
0
0
0
0
0
0
0
0
0
0
0
0
0
0
1 663
1 664
1 665
1 666
1 667
1 668
1 669
1 670
1 671
1 672
0
0
0
0
0
0
0
0
0
0
0
0
0
0
0
0
0
0
0
0
0
0
0
0
0
0
0
0
0
0
0
0
0
0
0
0
0
0
0
0
0
1 673
1 674
1 675
1 676
1 677
1 678
1 679
1 680
0
0
0
0
0
0
0
0
0
0
0
0
0
0
0
0
0
0
0
0
0
0
0
0
0
0
0
0
0
0
0
0
0
0
0
0
0
0
0
0
0
0
0
1 681
1 682
1 683
1 684
1 685
1 686
0
0
0
0
0
0
0
0
0
0
0
0
0
0
0
0
0
0
0
0
0
0
0
0
0
0
0
0
0
0
0
0
0
0
0
0
0
0
0
0
0
0
0
0
1 687
1 688
1 689
1 690
1 691
0
0
0
0
0
0
0
0
0
0
0
0
0
0
0
0
0
0
0
0
0
0
0
0
0
0
0
0
0
0
0
0
0
0
0
0
0
0
0
0
0
0
0
0
0
1 692
1 693
1 694
0
0
0
0
0
0
0
0
0
0
0
0
0
0
0
0
0
0
0
0
0
0
0
0
0
0
0
0
0
0
0
0
0
0
0
0
0
0
0
0
0
0
0
0
0
0
0
0
1 695
0
0
0
0
0
0
0
0
0
0
0
0
0
0
0
0
0
0
0
0
0
0
0
0
0
0
0
0
0
0
0
0
0
0
0
0
0
0
0
0
0
0
0
0
0
0
0
0
0
0
0
0
0
0
0
0
0
0
0
0
0
0
0
0
0
0
0
0
0
0
0
0
0
0
0
0
0
0
0
0
0
0
0
0
0
0
0
0
0
0
0
0
0
0
0
0
0
0
0
0
0
0
0
0
0
0
0
0
0
0
0
0
0
0
0
0
0
0
0
0
0
0
0
0
0
0
0
0
0
0
0
0
0
0
0
0
0
0
0
0
0
0
0
0
0
0
0
0
0
0
0
0
0
0
0
0
0
0
0
0
0
0
0
0
0
0
0
0
0
0
0
0
0
0
0
0
0
0
0
0
0
0
0
0
0
0
0
0
0
0
0
0
0
0
0
0
0
0
0
0
0
0
0
0
0
0
0
0
0
0
0
0
0
0
0
0
0
0
0
0
0
0
0
0
0
0
0
0
0
0
0
0
0
0
0
0
0
0
0
0
0
0
0
0
0
0
0
0
0
0
0
0
0
0
0
0
0
0
0
0
0
0
0
0
0
0
0
0
0
0
0
0
0
0
0
0
0
0
0
0
0
0
0
0
0
0
0
0
0
0
0
0
0
0
0
0
0
0
0
0
0
0
0
0
0
0
0
0
0
0
0
0
0
0
0
0
0
0
0
0
0
0
0
0
0
0
0
0
0
0
0
0
0
0
0
0
0
0
0
0
0
0
0
0
0
0
0
0
0
0
0
0
0
0
0
0
0
0
0
0
0
0
0
0
0
0
0
0
0
0
0
0
0
0
0
0
0
0
0
0
0
0
0
0
0
0
0
0
0
0
0
0
0
0
0
0
0
0
0
0
0
0
0
0
0
0
0
0
0
0
0
0
0
0
0
0
0
0
0
0
0
0
0
0
0
0
0
0
0
0
0
0
0
0
0
0
0
0
0
0
0
0
0
0
0
0
0
0
0
0
0
0
0
0
0
0
0
0
0
0
0
0
0
0
0
0
0
0
0
0
0
0
0
0
0
0
0
0
0
0
0
0
0
0
0
0
0
0
0
0
0
0
0
0
0
0
0
0
0
0
0
0
0
0
0
0
0
0
0
0
0
0
0
0
0
0
0
0
0
0
0
0
0
0
0
0
0
0
0
0
0
0
0
0
0
0
0
0
0
0
0
0
0
0
0
0
0
0
0
0
0
0
0
0
0
0
0
0
0
0
0
0
0
0
0
0
0
0
0
0
0
0
0
0
0
0
0
0
