ply
format ascii 1.0
obj_info num_cols 50
obj_info num_rows 50
element vertex 793
property float x
property float y
property float z
element range_grid 2500
property list uchar int vertex_indices
end_header
-36.1660360 17.2294610 -7.5225252
-34.0026789 18.9422368 -7.4485075
-31.8144458 20.6116767 -7.4654319
-29.5346226 22.3514215 -7.4824394
-35.8884965 15.0417931 -7.4998379
-33.7889232 16.6074285 -7.4980640
-31.5929885 18.2541380 -7.4823623
-29.3086899 19.9632662 -7.4718035
-26.9162554 21.7613415 -7.4486698
-37.4920133 11.6627662 -7.2789115
-35.6376606 12.8535437 -7.5099218
-33.5533624 14.3592185 -7.5104177
-30.0507983 18.0424388 -5.7244881
-28.5837803 18.3973685 -6.8170796
-26.7299867 19.3214921 -7.4606862
-24.2930914 21.0662244 -7.4855256
-21.7128396 22.9411194 -7.4691729
-37.3569912 9.3520031 -7.4789528
-35.3994293 10.6901088 -7.5318383
-33.3155516 12.1611875 -7.5135662
-28.0613021 18.4257863 -3.3807674
-26.9295428 18.2202166 -4.9772875
-25.9435826 17.8112751 -6.7357236
-24.1308805 18.6041183 -7.4983361
-21.5820339 20.3927615 -7.4930548
-18.9018657 22.2848763 -7.4694028
-37.5955784 12.2401954 1.2377556
-37.1681909 7.1839995 -7.5883767
-35.1666128 8.5628786 -7.5551361
-33.0832455 9.9993003 -7.5185591
-26.5154111 18.0178452 -1.6413304
-25.5237013 17.5877123 -3.4628141
-24.7449585 16.8762084 -5.5101402
-23.9800848 16.1776342 -7.5205782
-21.4285894 17.9292184 -7.4883263
-18.7977488 19.7121138 -7.4933037
-16.0145057 21.6192182 -7.4640209
-36.9351412 5.1327339 -7.6233554
-34.9115228 6.5125158 -7.5400301
-32.8783460 7.8404855 -7.5557495
-30.7471702 9.2470512 -7.5473575
-24.4434511 16.4314771 -2.3673160
-23.9540597 15.3363936 -4.7828841
-23.6224490 14.0786272 -7.2988851
-21.2954875 15.4892490 -7.5030931
-18.6631379 17.2328732 -7.4820112
-15.9444096 19.0138899 -7.4940314
-13.0750013 20.9092253 -7.4801073
-10.0580080 22.9084163 -7.4546061
-36.6503081 3.2002492 -7.5740706
-34.6783779 4.4696013 -7.5507068
-32.6558394 5.7509515 -7.5629835
-30.5426749 7.0988893 -7.5596568
-28.3389525 8.5088291 -7.5487254
-23.6701543 11.4853670 -7.5441549
-21.1570184 13.1062781 -7.5087799
-18.5629932 14.7608459 -7.5048717
-15.8344180 16.5122768 -7.4813155
-13.0077327 18.3114110 -7.4838069
-10.0325704 20.2143245 -7.4700932
-6.9139723 22.2093224 -7.4551144
-36.4039355 1.2471695 -7.5765375
-34.4729438 2.4278168 -7.5951397
-32.4490215 3.6808262 -7.5863522
-30.3409826 4.9894779 -7.5707105
-28.1622621 6.3325106 -7.5718282
-25.8640617 7.7700822 -7.5349951
-23.5061981 9.2213238 -7.5402458
-21.0316167 10.7552927 -7.5259409
-18.4376914 12.3700845 -7.4984934
-15.7889303 13.9850208 -7.5323260
-12.9448408 15.7620544 -7.4903889
-10.0234592 17.5584158 -7.5000246
-6.9424683 19.4643301 -7.4894243
-3.7046982 21.4706521 -7.4720546
-36.1642796 -0.6780817 -7.5830085
-34.2425944 0.4608116 -7.5982374
-32.2295837 1.6681568 -7.5872349
-30.1506477 2.9065634 -7.5918234
-27.9667557 4.2232631 -7.5669716
-25.7017410 5.5837827 -7.5507729
-23.3426955 7.0009772 -7.5335374
-20.9223293 8.4326380 -7.5579438
-18.3722473 9.9572410 -7.5531527
-15.7082058 11.5513709 -7.5455239
-12.9142713 13.2287619 -7.5271103
-10.0060202 14.9676494 -7.5213680
-6.9512680 16.7991469 -7.5059018
-3.7735641 18.6933821 -7.5104682
-0.3883375 20.7344680 -7.4717870
3.1264801 22.8354642 -7.4659129
-35.9473949 -2.5974165 -7.6172191
-34.0266937 -1.4879203 -7.6163731
-32.0083718 -0.3041878 -7.5807606
-29.9408938 0.8884811 -7.5829889
-27.7772696 2.1467793 -7.5655412
-25.5507894 3.4268412 -7.5763677
-23.2331547 4.7603697 -7.5855758
-20.7973155 6.1750495 -7.5696891
-18.2673180 7.6390853 -7.5635574
-15.6191505 9.1759837 -7.5484201
-12.8572604 10.7767771 -7.5367295
-9.9676078 12.4527232 -7.5223547
-6.9531880 14.1965716 -7.5160383
-3.8149111 16.0037259 -7.5257012
-0.4815804 17.9420765 -7.4992364
2.9693189 19.9285812 -7.5111676
6.6214502 22.0416268 -7.5029706
-37.4715684 -5.3760061 -7.4928033
-35.7209527 -4.4673769 -7.6314802
-33.7987725 -3.3845126 -7.6122387
-31.8231160 -2.2842339 -7.6180544
-29.7521418 -1.1173925 -7.5970140
-27.6358255 0.0529852 -7.6198275
-25.4089985 1.3017029 -7.6091533
-23.0890031 2.6043923 -7.5945566
-20.6753337 3.9583682 -7.5820117
-18.1462961 5.3840975 -7.5547014
-15.5398542 6.8371321 -7.5594340
-12.8000067 8.3742583 -7.5448379
-9.9449686 9.9721827 -7.5373324
-6.9568473 11.6455443 -7.5275596
-3.8437165 13.3823510 -7.5305869
-0.5667592 15.2168388 -7.5211245
2.8798100 17.1494590 -7.5047673
6.5187205 19.1964745 -7.4743255
10.2696999 21.2783934 -7.4995996
27.9587070 23.2324994 -23.4512895
27.9849489 22.0470078 -25.8675626
28.0125269 20.8959023 -28.2161076
-37.4755635 -3.2546797 0.9407811
-37.3203812 -7.2843643 -7.6324839
-35.4898498 -6.2968230 -7.6333800
-33.5945450 -5.2752752 -7.6362623
-31.6057416 -4.1879444 -7.6072140
-29.5856488 -3.1111701 -7.6353648
-27.4656982 -1.9665005 -7.6343362
-25.2413120 -0.7530677 -7.6074689
-22.9445466 0.4900808 -7.6000861
-20.5568570 1.7809604 -7.5955010
-18.0625561 3.1331907 -7.5829739
-15.4633462 4.5415222 -7.5715307
-12.7812182 5.9806970 -7.5890770
-9.9512418 7.5131355 -7.5785548
-6.9845672 9.1229873 -7.5604572
-3.8818753 10.8055009 -7.5439207
-0.6395565 12.5602742 -7.5338445
2.7502487 14.3908422 -7.5317016
6.3233866 16.3258002 -7.5182163
10.0687530 18.3501162 -7.5122277
14.0277395 20.4956433 -7.4939081
18.1803846 22.7394089 -7.4886827
28.0342853 23.0118649 -18.0053367
27.9887755 21.7485924 -20.5870666
28.0353970 20.5918512 -23.0504003
28.0200503 19.4212786 -25.4728544
28.0110576 18.2880959 -27.8245276
28.0122884 17.1935922 -30.1070861
-37.1247318 -9.0976744 -7.6977910
-35.2698340 -8.1065260 -7.6460851
-33.3761495 -7.1141677 -7.6354261
-31.4122851 -6.0848293 -7.6239333
-29.3946030 -5.0391401 -7.6377217
-27.2794818 -3.9304181 -7.6251192
-25.0889390 -2.7861038 -7.6205788
-22.8035607 -1.5879549 -7.6065730
-20.4281476 -0.3440715 -7.5951841
-17.9693868 0.9361726 -7.5991200
-15.3940727 2.2835882 -7.5892462
-12.7098825 3.6869956 -7.5810544
-9.9137791 5.1462488 -7.5782789
-6.9768306 6.6854557 -7.5614433
-3.9211328 8.2800997 -7.5586009
-0.7196460 9.9517703 -7.5535822
2.6343867 11.7025722 -7.5494496
6.1751572 13.5584377 -7.5287096
9.8816060 15.4961262 -7.5178270
13.7843132 17.5375544 -7.5039113
17.8618115 19.6599517 -7.5119538
22.1823115 21.9154097 -7.5062827
27.9931832 22.6873146 -12.3807381
28.0623179 21.4909007 -15.0412593
27.9611888 20.2002779 -17.7134990
28.0203198 19.0669209 -20.2266386
29.0502298 18.6824719 -22.2158260
30.1630725 18.3694743 -24.1441204
27.9582823 15.6834429 -27.4607336
28.0649844 14.7074718 -29.6876703
28.1747786 13.7600008 -31.8565642
-36.9018904 -10.8439668 -7.7160496
-35.0475196 -9.8808710 -7.6502305
-33.1676456 -8.9313719 -7.6435548
-31.2237188 -7.9521921 -7.6426277
-29.2153621 -6.9447907 -7.6511387
-27.1185963 -5.8856409 -7.6434656
-24.9274456 -4.7717079 -7.6195498
-22.6765309 -3.6412591 -7.6260034
-20.3227000 -2.4524407 -7.6178011
-17.8669749 -1.2095734 -7.6034572
-15.3088860 0.0847728 -7.5892502
-12.6791123 1.3990359 -7.6112313
-9.9048372 2.7991525 -7.6039126
-6.9940635 4.2733457 -7.5846263
-3.9730051 5.7944937 -7.5845197
-0.8204850 7.3786933 -7.5914358
2.5339278 9.0832193 -7.5565774
6.0181091 10.8412692 -7.5481489
9.6701077 12.6818447 -7.5441280
13.5312990 14.6348096 -7.5243110
17.5891782 16.6848341 -7.5089067
21.8397446 18.8242735 -7.5105110
26.3533982 21.1039395 -7.4947500
28.0745801 21.1718800 -9.2814493
28.0401374 19.9104788 -12.0645153
28.0289711 18.7036581 -14.7516976
28.0057954 17.5231253 -17.3665450
29.2158357 17.2695352 -19.2968007
32.0003653 18.1477878 -20.4684863
28.0250072 12.1932512 -29.3115634
27.9837827 11.1823715 -31.5265529
32.5794255 13.2937383 -31.9796418
-36.6537142 -12.5303475 -7.6909177
-34.8389867 -11.6391573 -7.6691656
-32.9860146 -10.7451935 -7.6840876
-31.0566525 -9.8082532 -7.6854235
-29.0419494 -8.8217441 -7.6679701
-26.9492422 -7.7961376 -7.6477481
-24.7956761 -6.7508133 -7.6503859
-22.5419055 -5.6485645 -7.6339256
-20.2032990 -4.5073535 -7.6227105
-17.7804428 -3.3299176 -7.6224301
-15.2535461 -2.1000366 -7.6177659
-12.6441565 -0.8400216 -7.6361847
-9.8926856 0.5014133 -7.6258866
-7.0231400 1.8990739 -7.6182543
-4.0157802 3.3669876 -7.6029987
-0.8516613 4.9175635 -7.5726892
2.4263691 6.5112109 -7.5708659
5.8696996 8.1877026 -7.5631932
9.4469568 9.9179178 -7.5818585
13.2759532 11.7922566 -7.5499590
17.2430463 13.7157665 -7.5596575
21.4730272 15.7816207 -7.5354849
25.9784788 17.9928706 -7.4845459
28.0073685 18.3017508 -9.0549553
28.0634791 17.1601980 -11.7662215
27.9745976 15.9476537 -14.4787330
28.0453596 14.8834377 -17.0271184
30.5103351 15.5256823 -18.3157779
34.1767069 16.9800310 -19.0748087
28.0512846 10.7309853 -26.6660948
28.0317245 9.7487913 -28.9224079
28.0028117 8.7865636 -31.1218640
31.4788353 10.1130196 -31.9630077
-36.4281179 -14.2134036 -7.6944795
-34.6221994 -13.3573646 -7.6712819
-32.8004565 -12.5214498 -7.7143693
-29.1184126 -9.8268791 -5.3825144
-27.8566982 -9.6560891 -6.3946955
-26.7700357 -9.6627484 -7.6364984
-24.6438377 -8.6736583 -7.6543557
-22.4047937 -7.6167471 -7.6362741
-20.0942858 -6.5339748 -7.6365629
-17.7070979 -5.4220577 -7.6532029
-15.1887364 -4.2342519 -7.6351607
-12.5952578 -3.0234546 -7.6465163
-9.8575045 -1.7317034 -7.6257772
-7.0153074 -0.3966760 -7.6186959
-4.0450991 0.9989067 -7.6102698
-0.9328454 2.4634207 -7.5961703
2.3000892 3.9764118 -7.6015267
5.7012984 5.5729524 -7.5956138
9.2814827 7.2573443 -7.5801483
13.0252259 9.0137418 -7.5758779
16.9810858 10.8752274 -7.5579538
21.1177940 12.8139574 -7.5581190
25.5168675 14.8857533 -7.5339751
28.0585891 15.5665185 -8.7626244
28.0070817 14.3975587 -11.5179648
28.0855283 13.3529552 -14.1205959
28.0320345 12.2477878 -16.7201606
28.2059365 11.3276056 -19.1310115
28.0377322 9.2236125 -24.0051449
28.0188535 8.2566687 -26.3110810
28.0110735 7.3226697 -28.5502452
28.0701522 6.4555797 -30.7037911
30.3031152 6.9682351 -31.9887601
36.2304448 9.7455143 -31.9905663
-37.3845823 -14.9882761 -4.1609766
-37.2518810 -15.9277631 -6.6584203
-36.2049830 -15.8702768 -7.6966269
-34.4326142 -15.0738780 -7.7073962
-28.1086046 -9.7612601 -1.5712227
-27.0348564 -9.8087180 -2.9019803
-26.2460986 -10.1270014 -4.5877607
-25.5375163 -10.5074113 -6.3382747
-24.5242544 -10.5918325 -7.6931143
-22.3168260 -9.5938946 -7.6914122
-20.0004014 -8.5366318 -7.6645134
-17.6105188 -7.4542300 -7.6577233
-15.1267426 -6.3305836 -7.6538672
-12.5448449 -5.1643306 -7.6543142
-9.8336140 -3.9319660 -7.6355639
-7.0196027 -2.6583842 -7.6298484
-4.0926613 -1.3375703 -7.6335953
-1.0155225 0.0573237 -7.6217867
2.1957824 1.5103444 -7.6161902
5.5542054 3.0285298 -7.6138406
9.0772462 4.6218662 -7.6095389
12.7869588 6.3030644 -7.5964202
16.7117744 8.0886688 -7.5652384
20.8015865 9.9383100 -7.5603053
25.1321448 11.9022998 -7.5414135
28.0521005 12.8342973 -8.5088671
28.0554430 11.7530683 -11.2144679
28.0181125 10.6756875 -13.8645361
28.0238016 9.6573892 -16.4155316
28.0630684 8.6895430 -18.8783613
28.0750959 7.7308993 -21.2874445
28.0517684 6.7759140 -23.6474731
28.0655451 5.8698612 -25.9271143
28.0468558 4.9677540 -28.1602447
28.0447166 4.0993683 -30.3277938
29.1720964 3.9346569 -32.0120957
34.9974949 6.5723342 -31.9973048
-37.4708741 -14.7997614 0.9971259
-37.3327089 -15.7744639 -1.6895704
-37.1077985 -16.6127398 -4.1200765
-36.8496162 -17.3786615 -6.4003243
-35.9944160 -17.5118526 -7.7123793
-34.2294900 -16.7464951 -7.7194226
-26.3114656 -10.1044511 0.5788586
-25.5666598 -10.4821763 -1.2433426
-24.9811368 -10.9909395 -3.2257865
-24.4950277 -11.5688917 -5.2755401
-24.0738627 -12.1814884 -7.3418623
-22.1692276 -11.4815468 -7.6765943
-19.8951606 -10.4923857 -7.6778406
-17.5177662 -9.4525978 -7.6643914
-15.0521942 -8.3773434 -7.6584899
-12.4773540 -7.2514506 -7.6445752
-9.8039362 -6.0860124 -7.6393688
-7.0446517 -4.8929388 -7.6594307
-4.1266127 -3.6177060 -7.6455553
-1.0720973 -2.2811489 -7.6266646
2.1033440 -0.8977579 -7.6228097
5.4465073 0.5644219 -7.6039002
8.8714478 2.0399482 -7.6427360
12.5780373 3.6696562 -7.5994984
16.4120678 5.3390942 -7.5971015
20.4168642 7.0762498 -7.6118327
24.6967107 8.9486907 -7.5860948
28.0927040 10.1781613 -8.2310512
28.0660082 9.1243312 -10.9369143
28.0204097 8.0883809 -13.5749993
28.0535363 7.1319037 -16.0956992
28.0293701 6.1659292 -18.5763238
28.0980165 5.2841123 -20.9433180
28.0529451 4.3564299 -23.3009060
28.0752904 3.4942878 -25.5645054
28.0529494 2.6281624 -27.7879570
28.0319191 1.7853156 -29.9524524
28.2632354 1.1110141 -31.9644747
33.8059657 3.5078338 -32.0041885
-37.1699391 -16.4640048 1.0291195
-36.9656004 -17.3229135 -1.5206120
-36.6472503 -18.0275824 -3.7828991
-36.2578603 -18.6305891 -5.8510822
-35.7535765 -19.0964066 -7.6788472
-34.0174809 -18.3822933 -7.7143579
-32.2025932 -17.6249027 -7.7221432
-24.4603339 -11.5454321 -0.0658310
-24.0766662 -12.2207683 -2.3227987
-23.7815305 -12.9460277 -4.6144181
-23.6219778 -13.7583923 -6.9878555
-22.0584855 -13.3675048 -7.7007348
-19.7859468 -12.4095654 -7.6846717
-17.4296113 -11.4185376 -7.6740480
-14.9947500 -10.4003319 -7.6788582
-12.4467606 -9.3294803 -7.6694814
-9.7884557 -8.2108188 -7.6557916
-7.0408547 -7.0625156 -7.6630646
-4.1538720 -5.8490640 -7.6520887
-1.1314815 -4.5765117 -7.6346959
2.0048891 -3.2629810 -7.6355764
5.2994166 -1.8793324 -7.6260246
8.7091696 -0.4585151 -7.6464387
12.3663351 1.0878721 -7.6076623
16.1466094 2.6707570 -7.6095777
20.1508261 4.3552225 -7.5905208
24.3173067 6.0966618 -7.6011593
28.1405753 7.5680229 -7.9527577
28.0169847 6.4992862 -10.6980846
28.0584831 5.5638938 -13.2701366
28.0488786 4.6232132 -15.7986739
28.0538497 3.7173308 -18.2497553
28.1239045 2.8750962 -20.6026181
28.0800981 1.9881653 -22.9473788
28.0593990 1.1382019 -25.2184756
28.0677857 0.3272093 -27.4172617
28.0406379 -0.4830643 -29.5739219
28.0649027 -1.2438257 -31.6550629
32.6296340 0.5331770 -32.0200631
-36.3494009 -18.6081112 -0.9397590
-35.9780551 -19.2329131 -3.1152800
-35.5534118 -19.7795862 -5.1316512
-35.1372593 -20.3101714 -7.0932180
-33.8226419 -20.0068280 -7.7291201
-32.0053244 -19.2710435 -7.7192339
-30.1337884 -18.5175586 -7.7209955
-23.6429210 -13.8700265 -2.0123971
-23.6848194 -14.8432483 -4.6989323
-23.9600747 -15.9697682 -7.5519674
-21.9332607 -15.2079563 -7.7061003
-19.6772922 -14.2932075 -7.6899909
-17.3460800 -13.3527219 -7.6867525
-14.9135352 -12.3680239 -7.6740141
-12.4061164 -11.3611335 -7.6836849
-9.7623018 -10.2880243 -7.6617249
-7.0665147 -9.2128952 -7.6929197
-4.2078176 -8.0571072 -7.6819309
-1.1946655 -6.8304481 -7.6466833
1.9179734 -5.5740337 -7.6404596
5.1596439 -4.2692544 -7.6444240
8.5559267 -2.9012839 -7.6458822
12.1532456 -1.4425243 -7.6198553
15.8646997 0.0468539 -7.6370073
19.8060674 1.6392219 -7.6250873
23.9388065 3.3059615 -7.6208620
27.9610694 4.8572804 -7.8158238
28.1174826 4.0086318 -10.3768841
28.0444960 3.0459971 -12.9984887
28.0810253 2.1750039 -15.4866189
28.0715803 1.3009697 -17.9312528
28.0817171 0.4618410 -20.2999954
28.0416062 -0.3835500 -22.6294534
28.0775114 -1.1639754 -24.8624556
28.0427354 -1.9633740 -27.0687511
28.0425672 -2.7233280 -29.2034130
28.0957112 -3.4351960 -31.2633378
31.4838847 -2.3460080 -32.0387689
-35.6079118 -19.7790778 -0.1558416
-35.1579832 -20.3079909 -2.2131513
-34.6849460 -20.7926583 -4.1671886
-34.2066385 -21.2516746 -6.0521465
-33.5589504 -21.5446636 -7.6432539
-31.8237956 -20.9035941 -7.7336216
-29.9466369 -20.1697251 -7.7133721
-28.0447825 -19.4440227 -7.7449987
-26.0618238 -18.6809336 -7.7591334
-23.9665894 -17.8581094 -7.7257081
-21.8077888 -17.0163119 -7.7087943
-19.5891381 -16.1593572 -7.7153466
-17.2617302 -15.2517360 -7.6968855
-14.8807009 -14.3362822 -7.7162637
-12.3720723 -13.3603562 -7.7032876
-9.7599464 -12.3439733 -7.6892095
-7.0648829 -11.3033665 -7.6982295
-4.2558158 -10.2185169 -7.7069753
-1.2723091 -9.0509843 -7.6714544
1.7909584 -7.8671606 -7.6786421
5.0314121 -6.6044494 -7.6557802
8.3670724 -5.3189095 -7.6740000
11.9212897 -3.9337703 -7.6484462
15.6234984 -2.4972557 -7.6402597
19.4937735 -0.9992932 -7.6427157
23.5811725 0.5871007 -7.6324498
27.7728650 2.1910914 -7.6888694
28.0214795 1.4380326 -10.1738923
28.0869827 0.6001469 -12.6996289
28.0240301 -0.2879452 -15.2267132
28.1017389 -1.0727272 -17.6109068
28.0608194 -1.9023633 -19.9919230
28.0693134 -2.6829663 -22.2854649
28.0702098 -3.4473013 -24.5228006
28.0915121 -4.1810316 -26.6937134
28.1057715 -4.8998064 -28.8128883
28.0548359 -5.6345078 -30.9047925
30.3240763 -5.1561480 -32.0763732
36.0499558 -2.9302720 -32.0515819
-34.7311260 -20.8420884 0.8438756
-34.1749577 -21.2599111 -1.0614025
-33.6651634 -21.6994583 -2.9803435
-33.0745724 -22.0518210 -4.7250011
-32.5040952 -22.4059752 -6.4523085
-31.6327801 -22.5012921 -7.7313463
-29.8044242 -21.8308992 -7.7603707
-27.8762914 -21.1081540 -7.7428845
-25.8908633 -20.3685363 -7.7389223
-23.8285132 -19.5982194 -7.7285720
-21.7008479 -18.8074246 -7.7298457
-19.4754841 -17.9737694 -7.7112032
-17.1864139 -17.1236873 -7.7147160
-14.8158147 -16.2455412 -7.7251041
-12.3402358 -15.3246122 -7.7240716
-9.7508046 -14.3570186 -7.7098424
-7.0625814 -13.3550488 -7.7028163
-4.2693409 -12.3162682 -7.7026282
-1.3423388 -11.2238924 -7.6906864
1.6881201 -10.0996176 -7.6987947
4.8685206 -8.9158707 -7.6955760
8.2072884 -7.6701424 -7.6829336
11.7228039 -6.3540411 -7.6561199
15.3427897 -5.0137681 -7.6740754
19.2126860 -3.5647978 -7.6439496
23.2151834 -2.0797575 -7.6542091
27.4546390 -0.5004747 -7.6457856
28.0945471 -0.9938183 -9.8763991
28.0842923 -1.8348810 -12.4301605
28.0616525 -2.6597495 -14.9204787
28.0787084 -3.4408884 -17.3224390
28.0633776 -4.2185415 -19.6770323
28.1052219 -4.9456223 -21.9422225
28.0783164 -5.6896454 -24.1811092
28.0792403 -6.4003280 -26.3498675
28.0711979 -7.0976083 -28.4675759
28.0761291 -7.7709862 -30.5270934
29.2728419 -7.8372136 -32.0864905
34.8608093 -5.7515409 -32.0630588
-33.0218328 -22.1009546 0.3472185
-32.4521284 -22.4817017 -1.5116316
-31.8176008 -22.7938264 -3.2256669
-31.0764856 -23.0084207 -4.7502994
-30.3471376 -23.2232318 -6.2622593
-29.5074199 -23.3452390 -7.6041555
-27.7200737 -22.7543144 -7.7528752
-25.7458635 -22.0481737 -7.7470562
-23.6990283 -21.3153528 -7.7387845
-21.5728333 -20.5525175 -7.7250940
-19.3808370 -19.7706530 -7.7255550
-17.1209641 -18.9693168 -7.7411150
-14.7639277 -18.1298536 -7.7456517
-12.3023457 -17.2492978 -7.7381078
-9.7345289 -16.3285676 -7.7233247
-7.0659726 -15.3731019 -7.7123736
-4.3043693 -14.3893689 -7.7171078
-1.4237346 -13.3626270 -7.7201118
1.6433984 -12.2538166 -7.6736711
4.7548997 -11.1517811 -7.6991775
8.0489715 -9.9746602 -7.6930060
11.4983902 -8.7415742 -7.6851028
15.0998823 -7.4568106 -7.6853982
18.8870179 -6.1036074 -7.6786587
22.8483951 -4.6911790 -7.6812664
27.0496457 -3.1859397 -7.6608471
28.1316095 -3.4103121 -9.6036559
28.0405920 -4.2546952 -12.1879726
28.1077161 -4.9928566 -14.6137643
28.0704918 -5.7655071 -17.0308414
28.0969967 -6.4850448 -19.3512286
28.1191716 -7.1880111 -21.6139520
28.1344687 -7.8763221 -23.8222173
28.0856003 -8.5788456 -26.0028573
28.0980667 -9.2338212 -28.1018018
28.0916747 -9.8816562 -30.1566027
28.2885335 -10.4168221 -32.0835808
33.6662090 -8.5004494 -32.0904206
-30.9241273 -23.0636168 0.4159577
-30.1659904 -23.2813018 -1.1698426
-29.3828924 -23.4709490 -2.6907905
-28.4625357 -23.5508485 -4.0028605
-27.4545430 -23.5634747 -5.1908702
-26.3933557 -23.5372434 -6.3101500
-25.4191459 -23.5725922 -7.5353076
-23.5606396 -22.9975537 -7.7361974
-21.4711609 -22.2865101 -7.7474446
-19.3010239 -21.5464409 -7.7538796
-17.0362491 -20.7696994 -7.7459692
-14.6840061 -19.9627278 -7.7369838
-12.2195065 -19.1113687 -7.7080298
-9.7029097 -18.2551254 -7.7220661
-7.0938316 -17.3695437 -7.7436924
-4.3337467 -16.4208093 -7.7270084
-1.4667711 -15.4379567 -7.7184029
1.5319060 -14.4080709 -7.7031389
4.6444823 -13.3434734 -7.7019483
7.8876322 -12.2362565 -7.7074939
11.3043585 -11.0643022 -7.6951205
14.8734038 -9.8420561 -7.6886937
18.5964669 -8.5707123 -7.6941164
22.5496764 -7.2116621 -7.6695602
26.6699914 -5.8016941 -7.6656808
28.0683465 -5.8432706 -9.3937735
28.1444494 -6.5608465 -11.8663792
28.1006728 -7.3196916 -14.3399174
28.1209373 -8.0264255 -16.7129864
28.0855003 -8.7420604 -19.0523238
28.1429677 -9.3939952 -21.2854722
29.4932185 -9.4083657 -22.8684083
28.0996917 -11.3533070 -27.7513678
28.0543944 -11.9885624 -29.8122172
28.0519782 -12.5887713 -31.8052827
32.5263803 -11.1509612 -32.1113980
-27.0970121 -23.5830733 0.1710132
-26.0291872 -23.5783720 -1.0282699
-24.9374144 -23.5567998 -2.1961418
-23.8707422 -23.5527707 -3.3964505
-22.7985727 -23.5448240 -4.5893924
-21.7390746 -23.5451229 -5.7965857
-20.7213114 -23.5720123 -7.0487434
-19.1957559 -23.2751507 -7.7530416
-16.9570450 -22.5428920 -7.7549872
-14.6333261 -21.7826184 -7.7562774
-12.2110323 -20.9875036 -7.7486165
-9.6832818 -20.1551319 -7.7314380
-7.0900358 -19.3106167 -7.7465879
-4.3504244 -18.4079836 -7.7262409
-1.5201912 -17.4814727 -7.7260172
1.4321347 -16.5145925 -7.7243902
4.5186795 -15.5024654 -7.7182014
7.7112489 -14.4623298 -7.7353051
11.0837063 -13.3559660 -7.7268683
14.6440441 -12.1819809 -7.6971452
18.3304003 -10.9752825 -7.6971140
22.1962481 -9.7098586 -7.6971837
26.2522430 -8.3827143 -7.6990700
28.1591305 -8.1603866 -9.0966978
28.0885062 -8.9145684 -11.6391892
28.1101724 -9.6038862 -14.0611622
28.0845264 -10.2976457 -16.4447214
28.1340632 -10.9378469 -18.7276053
30.4910421 -10.4856787 -19.8382872
33.2139719 -9.8758888 -20.8173992
28.1282166 -14.0164971 -29.4278710
28.1083709 -14.5958140 -31.4200251
31.3707311 -13.7381688 -32.1512446
36.8749913 -11.9391293 -32.1607089
-22.3465951 -23.6258172 0.8763851
-21.1351176 -23.5516605 -0.2346390
-20.0549340 -23.5637290 -1.5100172
-18.9495718 -23.5591734 -2.7535546
-17.8145377 -23.5360933 -3.9634528
-16.7319548 -23.5452367 -5.2309129
-15.5918106 -23.5193933 -6.4365725
-14.4451959 -23.4902542 -7.6376058
-12.1749934 -22.8137509 -7.7618529
-9.6747544 -22.0280406 -7.7506143
-7.0795246 -21.2136925 -7.7433685
-4.3645649 -20.3584161 -7.7235557
-1.5751627 -19.4885857 -7.7356031
1.3598496 -18.5668807 -7.7247214
4.4081923 -17.6125426 -7.7241890
7.5854529 -16.6189048 -7.7274957
10.9057457 -15.5804335 -7.7305779
14.4089962 -14.4789195 -7.7126340
18.0794382 -13.3247965 -7.6936898
21.8588196 -12.1487109 -7.7189499
25.8984131 -10.8785128 -7.6980996
28.1021351 -10.5161713 -8.8907311
28.1253525 -11.1877487 -11.3630758
28.1538026 -11.8390726 -13.7676231
28.1107019 -12.5060965 -16.1477803
28.3552602 -13.0258344 -18.3194593
32.0453279 -11.9939320 -18.7680141
28.0841075 -16.0696870 -29.0960146
28.0809624 -16.6132146 -31.0719496
30.9925074 -15.9330654 -31.9140582
35.9153741 -14.4422209 -32.0965605
-15.9459921 -23.5739485 0.5230413
-14.8096294 -23.5753497 -0.7797351
-13.6191824 -23.5450498 -2.0231905
-12.4824910 -23.5459489 -3.3244247
-11.2585167 -23.4976384 -4.5373743
-10.1449732 -23.5112837 -5.8608590
-9.0221869 -23.5191342 -7.1727656
-7.0987566 -23.0996206 -7.7666322
-4.4171510 -22.2947236 -7.7543011
-1.6549594 -21.4721632 -7.7665188
1.2565546 -20.5977059 -7.7510214
4.2907206 -19.6869949 -7.7371022
7.4293232 -18.7505864 -7.7442799
10.7274190 -17.7627162 -7.7370167
14.1707775 -16.7323654 -7.7333657
17.7872424 -15.6480731 -7.7213463
21.5427166 -14.5279611 -7.7312386
25.5095013 -13.3400972 -7.7236370
28.0919890 -12.8134066 -8.6606487
28.1521871 -13.4331593 -11.0963010
28.1259275 -14.0749089 -13.5172510
28.1421781 -14.6813696 -15.8519631
28.0968122 -15.2988977 -18.1585933
32.3647251 -14.0592693 -18.2971047
28.0603765 -17.5586608 -26.7473444
28.1342297 -18.0557933 -28.7302837
28.2193982 -18.5365120 -30.6634554
31.6049386 -17.6941099 -31.3115940
35.8514767 -16.5322197 -31.7225942
-9.0293387 -23.5211651 0.1345724
-7.8764292 -23.5372066 -1.2482316
-6.7142310 -23.5474928 -2.6185743
-5.4437469 -23.5012159 -3.8858863
-4.2432241 -23.4915485 -5.2200256
-3.0824310 -23.5016947 -6.5882001
-1.6515433 -23.3780903 -7.7287999
1.1541509 -22.5903037 -7.7776874
4.1505819 -21.7337991 -7.7690831
7.2761539 -20.8405553 -7.7608087
10.5275337 -19.9136544 -7.7614139
13.9493495 -18.9340146 -7.7454016
17.5470435 -17.9013190 -7.7177237
21.2343185 -16.8561920 -7.7426298
25.1539151 -15.7362736 -7.7332413
28.1614106 -15.0416261 -8.3864753
28.0923168 -15.6837794 -10.8830418
28.1122945 -16.2714534 -13.2629619
28.1144862 -16.8513862 -15.5914928
28.0999174 -17.4234569 -17.8693230
28.0913344 -17.9786951 -20.0864860
28.1854766 -18.4787654 -22.1998545
28.0966642 -19.0393388 -24.3466663
28.1172959 -19.5433054 -26.3915962
28.0654569 -20.0633563 -28.4181603
29.4785368 -20.0083869 -29.8136801
32.8690491 -19.2034523 -30.4625857
36.6242788 -18.2794312 -31.0509427
-2.9568403 -23.5633550 0.9330317
-1.6195838 -23.5099663 -0.3737070
-0.4495614 -23.5386796 -1.8352477
0.8910280 -23.4849516 -3.1443732
2.1615109 -23.4653399 -4.5171199
3.3622418 -23.4781842 -5.9468893
4.6277593 -23.4607949 -7.3233242
7.1345477 -22.8861167 -7.7705813
10.3488792 -22.0138471 -7.7728760
13.7128614 -21.0999042 -7.7707940
17.2363796 -20.1417049 -7.7647613
20.9276315 -19.1375191 -7.7568708
24.8094556 -18.0795658 -7.7404581
28.1573163 -17.2698422 -8.1596076
28.0798793 -17.8802537 -10.6462183
28.1559894 -18.4128869 -12.9805892
28.0986927 -18.9849997 -15.3286909
28.1310392 -19.5073745 -17.5696457
28.1626010 -20.0169922 -19.7558789
28.1447657 -20.5329934 -21.9124535
28.1188256 -21.0394934 -24.0196583
28.1145194 -21.5256865 -26.0659721
28.7034537 -21.7804215 -27.8153921
31.5882605 -21.1878003 -28.6200125
34.7427814 -20.5105970 -29.3767713
5.1285648 -23.5058872 0.5286292
6.3838029 -23.5170005 -0.9615666
7.7407364 -23.4827533 -2.3668278
9.0456006 -23.4716664 -3.8152883
10.3044289 -23.4801874 -5.2980800
11.6546874 -23.4496280 -6.7120745
13.5281294 -23.2022996 -7.7628827
16.9686865 -22.3192831 -7.7863280
20.5964576 -21.3836801 -7.7908739
24.4300937 -20.3900921 -7.7739270
28.0654711 -19.4998835 -7.9890171
28.1050861 -20.0299653 -10.3911154
28.1075420 -20.5606376 -12.7531868
28.1237893 -21.0725745 -15.0477951
28.1282940 -21.5760396 -17.2912610
28.1324865 -22.0671235 -19.4793249
28.1441037 -22.5434536 -21.6103185
28.1483367 -23.0109127 -23.6933979
29.5633414 -22.9634912 -25.1067440
31.8075096 -22.6242307 -26.1743695
34.4488170 -22.1538201 -27.1147747
13.8545108 -23.4871433 0.0034213
15.2327146 -23.4695859 -1.4994187
16.5866316 -23.4618493 -3.0204201
17.9470328 -23.4514069 -4.5361797
19.3525235 -23.4233546 -6.0211446
20.6499013 -23.4371804 -7.5783231
24.0736792 -22.6448591 -7.7974371
27.9315211 -21.7101658 -7.8475550
28.1156956 -22.1551032 -10.1478563
28.1770242 -22.6333971 -12.4634265
28.1765517 -23.1218445 -14.7555696
28.8455788 -23.3599237 -16.6426066
30.2898280 -23.3194912 -18.1140423
31.6341591 -23.3144062 -19.6364638
32.9881424 -23.3058161 -21.1535355
34.3041853 -23.3099909 -22.6868833
36.1325098 -23.1419317 -24.0010362
21.8452472 -23.5283806 0.9188681
23.4250390 -23.4587221 -0.5564930
24.8423573 -23.4503917 -2.1491140
26.3220977 -23.4192197 -3.7002627
27.6827886 -23.4312203 -5.3285682
29.1686334 -23.3982136 -6.8776427
30.5341304 -23.4077977 -8.4994887
32.0240798 -23.3737904 -10.0483258
33.4892976 -23.3487164 -11.6130158
34.8971785 -23.3432495 -13.2089775
36.2885306 -23.3430901 -14.8122424
32.4701122 -23.4331489 0.5059751
33.9100769 -23.4402989 -1.1959878
35.5323836 -23.3858050 -2.7840295
36.7986482 -23.4501184 -4.5863042
0
0
0
0
0
0
0
0
0
0
0
0
0
0
0
0
0
0
0
0
0
0
0
0
0
0
0
0
0
0
0
0
0
0
0
0
0
0
0
0
0
0
0
0
0
0
0
0
0
0
0
0
0
0
0
0
0
0
0
0
0
0
0
0
0
0
0
0
0
0
0
0
0
0
0
0
0
0
0
0
0
0
0
0
0
0
0
0
0
0
0
0
0
0
0
0
0
0
0
0
0
0
0
0
0
0
0
0
0
0
0
0
0
0
0
0
0
0
0
0
0
0
0
0
0
0
0
0
0
0
0
0
0
0
0
0
0
0
0
0
0
0
0
0
0
0
0
0
0
0
0
0
0
0
0
0
0
0
0
0
0
0
0
0
0
0
0
0
0
0
0
0
0
0
0
0
0
0
0
0
0
0
0
0
0
0
0
0
0
0
0
0
0
0
0
0
0
0
0
0
0
0
0
0
0
0
0
0
0
0
0
0
0
0
0
0
0
0
0
0
0
0
0
0
0
0
0
0
0
0
0
0
0
0
0
0
0
0
0
0
0
0
0
0
0
0
0
0
0
0
0
0
0
0
0
0
0
0
0
0
0
0
0
0
0
0
0
0
0
0
0
0
0
0
0
0
0
0
0
0
0
0
0
0
0
0
0
0
0
0
0
0
0
0
0
0
0
0
0
0
0
0
0
0
0
0
0
0
0
0
0
0
0
0
0
0
0
0
0
0
0
0
0
0
0
0
0
0
0
0
0
0
0
0
0
0
0
0
0
0
0
0
0
0
0
0
0
0
0
0
0
0
0
0
0
0
0
0
0
0
0
0
0
0
1 0
1 1
1 2
1 3
0
0
0
0
0
0
0
0
0
0
0
0
0
0
0
0
0
0
0
0
0
0
0
0
0
0
0
0
0
0
0
0
0
0
0
0
0
0
0
0
0
0
0
0
0
0
1 4
1 5
1 6
1 7
1 8
0
0
0
0
0
0
0
0
0
0
0
0
0
0
0
0
0
0
0
0
0
0
0
0
0
0
0
0
0
0
0
0
0
0
0
0
0
0
0
0
0
0
0
0
1 9
1 10
1 11
1 12
1 13
1 14
1 15
1 16
0
0
0
0
0
0
0
0
0
0
0
0
0
0
0
0
0
0
0
0
0
0
0
0
0
0
0
0
0
0
0
0
0
0
0
0
0
0
0
0
0
0
1 17
1 18
1 19
1 20
1 21
1 22
1 23
1 24
1 25
0
0
0
0
0
0
0
0
0
0
0
0
0
0
0
0
0
0
0
0
0
0
0
0
0
0
0
0
0
0
0
0
0
0
0
0
0
0
1 26
0
0
1 27
1 28
1 29
1 30
1 31
1 32
1 33
1 34
1 35
1 36
0
0
0
0
0
0
0
0
0
0
0
0
0
0
0
0
0
0
0
0
0
0
0
0
0
0
0
0
0
0
0
0
0
0
0
0
0
0
0
0
1 37
1 38
1 39
1 40
1 41
1 42
1 43
1 44
1 45
1 46
1 47
1 48
0
0
0
0
0
0
0
0
0
0
0
0
0
0
0
0
0
0
0
0
0
0
0
0
0
0
0
0
0
0
0
0
0
0
0
0
0
0
1 49
1 50
1 51
1 52
1 53
0
1 54
1 55
1 56
1 57
1 58
1 59
1 60
0
0
0
0
0
0
0
0
0
0
0
0
0
0
0
0
0
0
0
0
0
0
0
0
0
0
0
0
0
0
0
0
0
0
0
0
0
1 61
1 62
1 63
1 64
1 65
1 66
1 67
1 68
1 69
1 70
1 71
1 72
1 73
1 74
0
0
0
0
0
0
0
0
0
0
0
0
0
0
0
0
0
0
0
0
0
0
0
0
0
0
0
0
0
0
0
0
0
0
0
0
1 75
1 76
1 77
1 78
1 79
1 80
1 81
1 82
1 83
1 84
1 85
1 86
1 87
1 88
1 89
1 90
0
0
0
0
0
0
0
0
0
0
0
0
0
0
0
0
0
0
0
0
0
0
0
0
0
0
0
0
0
0
0
0
0
0
1 91
1 92
1 93
1 94
1 95
1 96
1 97
1 98
1 99
1 100
1 101
1 102
1 103
1 104
1 105
1 106
1 107
0
0
0
0
0
0
0
0
0
0
0
0
0
0
0
0
0
0
0
0
0
0
0
0
0
0
0
0
0
0
0
0
1 108
1 109
1 110
1 111
1 112
1 113
1 114
1 115
1 116
1 117
1 118
1 119
1 120
1 121
1 122
1 123
1 124
1 125
1 126
0
0
0
0
0
0
0
0
0
1 127
1 128
1 129
0
0
0
0
0
0
0
0
0
0
0
0
0
0
0
0
1 130
0
0
1 131
1 132
1 133
1 134
1 135
1 136
1 137
1 138
1 139
1 140
1 141
1 142
1 143
1 144
1 145
1 146
1 147
1 148
1 149
1 150
1 151
0
0
0
0
0
1 152
1 153
1 154
1 155
1 156
1 157
0
0
0
0
0
0
0
0
0
0
0
0
0
0
0
0
0
0
1 158
1 159
1 160
1 161
1 162
1 163
1 164
1 165
1 166
1 167
1 168
1 169
1 170
1 171
1 172
1 173
1 174
1 175
1 176
1 177
1 178
1 179
0
0
1 180
1 181
1 182
1 183
1 184
1 185
1 186
1 187
1 188
0
0
0
0
0
0
0
0
0
0
0
0
0
0
0
0
0
1 189
1 190
1 191
1 192
1 193
1 194
1 195
1 196
1 197
1 198
1 199
1 200
1 201
1 202
1 203
1 204
1 205
1 206
1 207
1 208
1 209
1 210
1 211
1 212
1 213
1 214
1 215
1 216
1 217
0
0
1 218
1 219
1 220
0
0
0
0
0
0
0
0
0
0
0
0
0
0
0
0
1 221
1 222
1 223
1 224
1 225
1 226
1 227
1 228
1 229
1 230
1 231
1 232
1 233
1 234
1 235
1 236
1 237
1 238
1 239
1 240
1 241
1 242
1 243
1 244
1 245
1 246
1 247
1 248
1 249
0
1 250
1 251
1 252
1 253
0
0
0
0
0
0
0
0
0
0
0
0
0
0
0
0
1 254
1 255
1 256
1 257
1 258
1 259
1 260
1 261
1 262
1 263
1 264
1 265
1 266
1 267
1 268
1 269
1 270
1 271
1 272
1 273
1 274
1 275
1 276
1 277
1 278
1 279
1 280
1 281
0
1 282
1 283
1 284
1 285
1 286
1 287
0
0
0
0
0
0
0
0
0
0
0
0
0
1 288
1 289
1 290
1 291
1 292
1 293
1 294
1 295
1 296
1 297
1 298
1 299
1 300
1 301
1 302
1 303
1 304
1 305
1 306
1 307
1 308
1 309
1 310
1 311
1 312
1 313
1 314
1 315
1 316
1 317
1 318
1 319
1 320
1 321
1 322
1 323
1 324
0
0
0
0
0
0
0
0
0
0
0
1 325
1 326
1 327
1 328
1 329
1 330
1 331
1 332
1 333
1 334
1 335
1 336
1 337
1 338
1 339
1 340
1 341
1 342
1 343
1 344
1 345
1 346
1 347
1 348
1 349
1 350
1 351
1 352
1 353
1 354
1 355
1 356
1 357
1 358
1 359
1 360
1 361
1 362
1 363
0
0
0
0
0
0
0
0
0
0
0
1 364
1 365
1 366
1 367
1 368
1 369
1 370
1 371
1 372
1 373
1 374
1 375
1 376
1 377
1 378
1 379
1 380
1 381
1 382
1 383
1 384
1 385
1 386
1 387
1 388
1 389
1 390
1 391
1 392
1 393
1 394
1 395
1 396
1 397
1 398
1 399
1 400
1 401
1 402
0
0
0
0
0
0
0
0
0
0
0
0
1 403
1 404
1 405
1 406
1 407
1 408
1 409
1 410
1 411
1 412
1 413
1 414
1 415
1 416
1 417
1 418
1 419
1 420
1 421
1 422
1 423
1 424
1 425
1 426
1 427
1 428
1 429
1 430
1 431
1 432
1 433
1 434
1 435
1 436
1 437
1 438
1 439
1 440
0
0
0
0
0
0
0
0
0
0
0
0
1 441
1 442
1 443
1 444
1 445
1 446
1 447
1 448
1 449
1 450
1 451
1 452
1 453
1 454
1 455
1 456
1 457
1 458
1 459
1 460
1 461
1 462
1 463
1 464
1 465
1 466
1 467
1 468
1 469
1 470
1 471
1 472
1 473
1 474
1 475
1 476
1 477
1 478
1 479
0
0
0
0
0
0
0
0
0
0
0
1 480
1 481
1 482
1 483
1 484
1 485
1 486
1 487
1 488
1 489
1 490
1 491
1 492
1 493
1 494
1 495
1 496
1 497
1 498
1 499
1 500
1 501
1 502
1 503
1 504
1 505
1 506
1 507
1 508
1 509
1 510
1 511
1 512
1 513
1 514
1 515
1 516
1 517
1 518
0
0
0
0
0
0
0
0
0
0
0
0
1 519
1 520
1 521
1 522
1 523
1 524
1 525
1 526
1 527
1 528
1 529
1 530
1 531
1 532
1 533
1 534
1 535
1 536
1 537
1 538
1 539
1 540
1 541
1 542
1 543
1 544
1 545
1 546
1 547
1 548
1 549
1 550
1 551
1 552
1 553
1 554
1 555
1 556
0
0
0
0
0
0
0
0
0
0
0
0
0
1 557
1 558
1 559
1 560
1 561
1 562
1 563
1 564
1 565
1 566
1 567
1 568
1 569
1 570
1 571
1 572
1 573
1 574
1 575
1 576
1 577
1 578
1 579
1 580
1 581
1 582
1 583
1 584
1 585
1 586
1 587
1 588
0
1 589
1 590
1 591
1 592
0
0
0
0
0
0
0
0
0
0
0
0
0
0
0
1 593
1 594
1 595
1 596
1 597
1 598
1 599
1 600
1 601
1 602
1 603
1 604
1 605
1 606
1 607
1 608
1 609
1 610
1 611
1 612
1 613
1 614
1 615
1 616
1 617
1 618
1 619
1 620
1 621
1 622
0
0
1 623
1 624
1 625
1 626
0
0
0
0
0
0
0
0
0
0
0
0
0
0
0
0
1 627
1 628
1 629
1 630
1 631
1 632
1 633
1 634
1 635
1 636
1 637
1 638
1 639
1 640
1 641
1 642
1 643
1 644
1 645
1 646
1 647
1 648
1 649
1 650
1 651
1 652
1 653
0
0
0
1 654
1 655
1 656
1 657
0
0
0
0
0
0
0
0
0
0
0
0
0
0
0
0
0
0
0
1 658
1 659
1 660
1 661
1 662
1 663
1 664
1 665
1 666
1 667
1 668
1 669
1 670
1 671
1 672
1 673
1 674
1 675
1 676
1 677
1 678
1 679
1 680
1 681
0
0
1 682
1 683
1 684
1 685
1 686
0
0
0
0
0
0
0
0
0
0
0
0
0
0
0
0
0
0
0
0
0
0
1 687
1 688
1 689
1 690
1 691
1 692
1 693
1 694
1 695
1 696
1 697
1 698
1 699
1 700
1 701
1 702
1 703
1 704
1 705
1 706
1 707
1 708
1 709
1 710
1 711
1 712
1 713
1 714
0
0
0
0
0
0
0
0
0
0
0
0
0
0
0
0
0
0
0
0
0
0
0
0
1 715
1 716
1 717
1 718
1 719
1 720
1 721
1 722
1 723
1 724
1 725
1 726
1 727
1 728
1 729
1 730
1 731
1 732
1 733
1 734
1 735
1 736
1 737
1 738
1 739
0
0
0
0
0
0
0
0
0
0
0
0
0
0
0
0
0
0
0
0
0
0
0
0
0
0
0
0
1 740
1 741
1 742
1 743
1 744
1 745
1 746
1 747
1 748
1 749
1 750
1 751
1 752
1 753
1 754
1 755
1 756
1 757
1 758
1 759
1 760
0
0
0
0
0
0
0
0
0
0
0
0
0
0
0
0
0
0
0
0
0
0
0
0
0
0
0
0
0
0
0
0
1 761
1 762
1 763
1 764
1 765
1 766
1 767
1 768
1 769
1 770
1 771
1 772
1 773
1 774
1 775
1 776
1 777
0
0
0
0
0
0
0
0
0
0
0
0
0
0
0
0
0
0
0
0
0
0
0
0
0
0
0
0
0
0
0
0
0
0
0
1 778
1 779
1 780
1 781
1 782
1 783
1 784
1 785
1 786
1 787
1 788
0
0
0
0
0
0
0
0
0
0
0
0
0
0
0
0
0
0
0
0
0
0
0
0
0
0
0
0
0
0
0
0
0
0
0
0
0
0
0
0
0
0
1 789
1 790
1 791
1 792
0
0
0
0
0
0
0
0
0
0
0
0
0
0
0
0
0
0
0
0
0
0
0
0
0
0
0
0
0
0
0
0
0
0
0
0
0
0
0
0
0
0
0
0
0
0
0
0
0
0
0
0
0
0
0
0
0
0
0
0
0
0
0
0
0
0
0
0
0
0
0
0
0
0
0
0
0
0
0
0
0
0
0
0
0
0
0
0
0
0
0
0
0
0
0
0
0
0
0
0
0
0
0
0
0
0
0
0
0
0
0
0
0
0
0
0
0
0
0
0
0
0
0
0
0
0
0
0
0
0
0
0
0
0
0
0
0
0
0
0
0
0
0
0
0
0
0
0
0
0
0
0
0
0
0
0
0
0
0
0
0
0
0
0
0
0
0
0
0
0
0
0
0
0
0
0
0
0
0
0
0
0
0
0
0
0
0
0
0
0
0
0
0
0
0
0
0
0
0
0
0
0
0
0
0
0
0
0
0
0
0
0
0
0
0
0
0
0
0
0
0
0
0
0
0
0
0
0
0
0
0
0
0
0
0
0
0
0
0
0
0
0
0
0
0
0
0
0
0
0
0
0
0
0
0
0
0
0
0
0
0
0
0
0
0
0
0
0
0
0
0
0
0
0
0
0
0
0
0
0
0
0
0
0
0
0
0
0
0
0
0
0
0
0
0
0
0
0
0
0
0
0
0
0
0
0
0
0
0
0
0
0
0
0
0
0
0
0
0
0
0
0
0
0
0
0
0
0
0
0
0
0
0
0
0
0
0
0
0
0
0
0
0
0
0
0
0
0
0
0
0
0
0
0
0
0
0
0
0
0
0
0
0
0
0
0
0
0
0
0
0
0
0
0
0
0
0
0
0
0
0
0
0
0
0
0
0
0
0
0
0
0
0
0
0
0
0
0
0
0
0
0
0
0
0
0
0
0
0
0
0
0
0
0
0
0
0
0
0
0
0
0
0
0
0
0
0
0
0
0
0
0
0
0
0
0
0
0
0
0
0
0
0
0
0
0
0
0
0
0
0
0
0
0
0
0
0
0
0
0
0
0
0
0
0
0
0
0
0
0
0
0
0
0
0
0
0
0
0
0
0
0
0
0
0
0
0
0
0
0
0
0
0
0
0
0
0
0
0
0
0
0
0
0
0
0
0
0
0
0
0
0
