ply
format ascii 1.0
obj_info num_cols 50
obj_info num_rows 50
element vertex 344
property float x
property float y
property float z
element range_grid 2500
property list uchar int vertex_indices
end_header
25.9740057 23.5887546 0.2837114
25.8253610 23.5746488 -2.0462623
25.5914924 23.5746948 -4.3694873
25.3083540 23.5829496 -6.6871625
28.0039541 23.0921765 -9.5061484
27.9909549 23.0542591 -11.9245709
27.9696102 23.0175851 -14.3509337
27.9715008 22.9768432 -16.7917875
27.9987526 22.9316542 -19.2488829
27.8882950 22.9095440 -21.6822984
27.8967685 22.8672002 -24.1543929
28.3465647 22.7498720 -26.7641275
13.4832593 23.5119634 -0.5914458
13.1740541 23.5284632 -2.7122998
12.7797993 23.5606169 -4.8188450
12.6172994 23.5501934 -6.9601548
28.0307853 20.6678567 -11.9943376
27.9860114 20.6306231 -14.4319343
27.9555621 20.5905769 -16.8814041
27.9790090 20.5403696 -19.3529116
28.0091574 20.4887100 -21.8373139
27.9439714 20.4545664 -24.3073381
27.9538181 20.4062909 -26.8072821
27.9156533 20.3667722 -29.3034472
2.6457340 23.5303195 0.6860940
2.6429692 23.4896962 -1.3068551
2.3933041 23.4983936 -3.2705545
1.9885610 23.5382327 -5.2079701
1.7697318 23.5407860 -7.1745629
27.9762433 18.2184164 -14.5086147
27.9838816 18.1658175 -16.9819227
27.9767399 18.1159861 -19.4624339
27.9349803 17.9693476 -26.9599534
27.9634603 17.9114119 -29.4925334
-6.3008244 23.4350293 -0.1134034
-6.6854169 23.4762821 -1.9167729
-6.9049239 23.4817079 -3.7427727
-7.1551063 23.4938177 -5.5633906
-7.3843931 23.5013774 -7.3875428
28.0138796 15.7090590 -17.0840450
28.2060727 15.4379117 -27.1989761
27.9550969 15.4354761 -29.6666315
23.2712378 15.1102020 14.5640181
-14.2505319 23.4281592 0.9477019
-14.4981254 23.4430369 -0.7519668
-14.7020945 23.4476950 -2.4578835
-14.8169729 23.4313773 -4.1807983
-15.1162000 23.4584391 -5.8695182
27.9774444 13.2356977 -17.1727020
27.9865431 12.9819654 -27.2973431
27.9539862 12.9261522 -29.8452350
15.3594517 14.8854978 21.1609554
14.6931598 14.9917274 18.9817189
14.3815787 15.0106017 16.8214500
13.7969067 15.0971599 14.6624852
-21.3106030 23.4051716 0.2635932
-21.4488636 23.3959610 -1.3465326
-21.7391125 23.4251097 -2.9303759
-21.9472238 23.4335416 -4.5279241
-22.1050705 23.4292275 -6.1363958
28.0345857 10.6396707 -19.8149897
30.8830704 9.8456209 -23.0914616
28.2983684 10.4348138 -24.9837865
27.9545872 10.4533439 -27.4523240
27.9685957 10.3802699 -30.0310506
12.5356773 13.5142895 25.3730667
11.1923495 13.8061631 23.1768856
10.0242776 14.0528990 21.0251314
8.8091231 14.3129353 18.9017118
7.8058883 14.5178573 16.8137115
-27.4677505 23.4076418 1.1819587
-27.5390235 23.3820713 -0.3426882
-27.7873624 23.4042624 -1.8382168
-27.8939344 23.3881049 -3.3607809
-28.0396230 23.3824804 -4.8775414
-28.3352472 23.4175877 -6.3597556
27.9904450 8.0244247 -22.4787593
28.0027347 7.9461457 -25.0518377
28.0386016 7.8610777 -27.6435196
27.9633204 7.8061034 -30.2130578
10.8213656 11.8516730 27.4686476
9.2201098 12.2343375 25.2510262
7.6925501 12.5977346 23.0826567
6.3591342 12.9079397 20.9663872
4.9775891 13.2328067 18.8842599
3.8011106 13.5010631 16.8435757
-31.0835483 22.8315082 0.2307731
-31.2183554 22.8236697 -1.2335802
-31.3756234 22.8222657 -2.6950109
-31.4328173 22.7918707 -4.1797440
-31.5164080 22.7689889 -5.6625960
-31.6000125 22.7459991 -7.1490224
28.0154501 5.3447768 -25.2067996
28.0471350 5.2540690 -27.8147832
27.9535651 5.1995698 -30.3960605
8.3775516 10.3762935 27.3896854
6.6855322 10.8101717 25.1899611
5.1724536 11.1923716 23.0503042
3.7757495 11.5412655 20.9587407
2.2240576 11.9377647 18.8998871
0.8505353 12.2823850 16.8882315
-33.0920122 21.9188543 0.5437767
-33.1308910 21.8816230 -0.9127526
-33.2350013 21.8642496 -2.3608296
-33.2982618 21.8342194 -3.8207914
-33.3459084 21.7992357 -5.2887418
-33.4073162 21.7683407 -6.7579037
28.0071227 2.7152205 -25.3579220
28.0183751 2.6239104 -27.9772269
27.9853953 2.5459379 -30.5946041
8.2045459 8.3192492 29.5975789
6.4351641 8.8016600 27.3583860
4.8174716 9.2381130 25.1827285
3.1557857 9.6900735 23.0494649
1.5091016 10.1389864 20.9642872
0.0251427 10.5380586 18.9322122
-1.4029626 10.9209103 16.9431170
-2.8025513 11.2961384 14.9943338
-34.4941224 20.8632083 0.7539644
-34.4919366 20.8106111 -0.6949412
-34.5963831 20.7924804 -2.1282192
-34.6624614 20.7617448 -3.5727933
-34.7360231 20.7333083 -5.0196116
-34.7466669 20.6841394 -6.4866969
28.0252462 0.0423812 -25.5184595
28.0191809 -0.0499807 -28.1506853
28.0590154 -0.1578712 -30.8089681
6.9092764 6.5440025 29.6248561
5.0146116 7.0952580 27.3789181
3.2346663 7.6104308 25.1979803
1.4505132 8.1289612 23.0680421
-0.1414869 8.5852812 21.0004515
-1.7362345 9.0442573 18.9783362
-3.2680905 9.4838963 17.0035079
-4.6288643 9.8677373 15.0734460
-35.5393320 19.7173719 0.9035149
-35.5806112 19.6767044 -0.5279868
-35.6369172 19.6410203 -1.9612571
-35.6651749 19.5955005 -3.4052402
-35.7008668 19.5523417 -4.8528377
-35.7263439 19.5054496 -6.3083087
28.0196069 -2.6585129 -25.6744410
28.0275409 -2.7623114 -28.3287245
28.0387204 -2.8677054 -30.9962491
5.9080569 4.6845294 29.6869678
3.9317074 5.2940813 27.4337320
2.0943916 5.8571935 25.2509524
0.2347913 6.4303053 23.1201344
-1.4856057 6.9565963 21.0518259
-3.1157517 7.4530683 19.0373319
-4.7380074 7.9486706 17.0705309
-6.2611588 8.4110811 15.1517446
-36.3414159 18.5029885 1.0116170
-36.3733531 18.4565879 -0.4167573
-36.4206124 18.4155362 -1.8471800
-36.4490154 18.3674367 -3.2865917
-36.4587017 18.3122971 -4.7360276
-36.4813904 18.2616561 -6.1882050
28.0342597 -5.4029532 -25.8382482
28.0253314 -5.5075939 -28.5059738
28.0380371 -5.6206575 -31.1923499
5.2644749 2.7016882 29.7932089
3.1431305 3.3959987 27.5195477
1.1554163 4.0436738 25.3213120
-0.7435404 4.6610391 23.1887383
-2.5706764 5.2541938 21.1166807
-4.2323459 5.7882146 19.1055493
-5.9741977 6.3541672 17.1415338
-7.4984532 6.8412057 15.2307355
-36.9084968 17.2096474 1.0794032
-36.9553642 17.1662202 -0.3454415
-36.9821618 17.1149233 -1.7792061
-37.0221001 17.0684222 -3.2154792
-37.0190784 17.0052246 -4.6673606
-37.0352112 16.9491051 -6.1208541
28.0200540 -8.1739162 -25.9960825
28.0154392 -8.2870775 -28.6833129
28.0352119 -8.4101884 -31.3904315
5.0827704 0.5355202 29.9584627
2.8487078 1.3075173 27.6595814
0.7187060 2.0422012 25.4377700
-1.4042486 2.7770475 23.2807773
-3.3236122 3.4355332 21.2001308
-4.9850568 3.9960048 19.1879085
-6.8259301 4.6288414 17.2206905
-8.3919155 5.1565211 15.3110145
-37.2953182 15.8458403 1.1160680
-37.3036799 15.7843747 -0.3187447
-37.3242262 15.7275214 -1.7571925
-37.3645153 15.6783494 -3.1969168
-37.3880152 15.6221799 -4.6458681
-37.3970197 15.5598955 -6.1044133
28.0318393 -11.1148531 -28.8710564
28.0189883 -11.2323637 -31.5869158
5.3716987 -1.8435904 30.1860490
2.9199018 -0.9470396 27.8417025
0.7224525 -0.1503404 25.5965512
-1.5554736 0.6823326 23.4121784
-3.5397707 1.3984570 21.3154749
-5.4649018 2.0932477 19.2816893
-7.3800866 2.7867535 17.3069064
-9.0884868 3.3981104 15.3923677
-10.7277172 3.9834614 13.5289784
-37.4991629 14.3998832 1.1209312
-37.5096489 14.3357346 -0.3195163
-37.5203694 14.2713909 -1.7660942
-37.5360491 14.2088448 -3.2177504
-37.5500675 14.1453075 -4.6758882
-37.5299667 14.0670180 -6.1492901
28.0385420 -13.9779514 -29.0584049
28.0265886 -14.1030431 -31.7938379
6.6343668 -4.6762139 30.5436902
4.0012039 -3.6627225 28.1402808
1.1556332 -2.5547136 25.7984436
-1.3113345 -1.6037288 23.5759702
-3.4518684 -0.7884288 21.4504591
-5.5937181 0.0307435 19.3911154
-7.6058337 0.7975640 17.4017930
-9.4601643 1.4996460 15.4762694
-11.1969370 2.1539275 13.6069515
-37.5082064 12.8555898 1.0917215
-37.5156160 12.7862946 -0.3590641
-37.5308034 12.7201107 -1.8145911
-37.5358543 12.6491404 -3.2785798
-37.5390437 12.5770179 -4.7495893
-37.5324047 12.5001995 -6.2299018
28.1649880 -16.7969877 -26.5365343
28.0203769 -16.8698420 -29.2407374
6.2125937 -6.9519096 28.5736578
2.7737571 -5.5326598 26.1185025
-0.2300018 -4.3016324 23.8087921
-2.8988666 -3.2152189 21.6161339
-5.2687194 -2.2582464 19.5218519
-7.3227539 -1.4390610 17.5110554
-9.3699774 -0.6195624 15.5647068
-11.3355801 0.1665414 13.6821824
-37.5200189 11.2916900 1.0625786
-37.4887206 11.2006273 -0.4054989
-37.5335969 11.1442834 -1.8653894
-37.5212442 11.0612191 -3.3435711
-37.5168756 10.9814699 -4.8270732
-37.5318806 10.9103443 -6.3124316
28.1028859 -19.7032977 -26.6897792
28.0875138 -19.8411970 -29.4518229
-0.9336573 -6.3519628 21.8738817
-4.2299649 -4.9226188 19.6871458
-6.5611955 -3.9395095 17.6353388
-8.9815325 -2.9104619 15.6573021
-11.0590537 -2.0384172 13.7546668
-37.5054154 9.6939221 1.0284069
-37.4928148 9.6069727 -0.4465444
-37.5009446 9.5296074 -1.9244191
-37.5083684 9.4515395 -3.4090420
-37.5103088 9.3704528 -4.9016957
-37.5259653 9.2956368 -6.3975673
-7.7534922 -5.6567727 15.7604254
-10.2615260 -4.5384589 13.8244997
-37.4997357 8.0778871 0.9953435
-37.5019854 7.9937855 -0.4871848
-37.4835457 7.8988935 -1.9809740
-37.5118263 7.8270871 -3.4716189
-37.5143846 7.7419566 -4.9746808
-37.5095896 7.6527050 -6.4867229
-37.4817634 6.4326092 0.9596719
-37.4997928 6.3523322 -0.5306194
-37.4834916 6.2537001 -2.0345921
-37.5116628 6.1779396 -3.5359276
-37.5087921 6.0854917 -5.0511436
-37.5083196 5.9938693 -6.5730102
-37.4686466 4.7661245 0.9243793
-37.4826897 4.6794846 -0.5775709
-37.4723410 4.5791397 -2.0913477
-37.5103819 4.5047460 -3.6014109
-37.5042791 4.4058291 -5.1284129
-37.5022521 4.3086762 -6.6618364
-37.4658544 3.0813237 0.8904249
-37.4960568 2.9994327 -0.6192064
-37.4704921 2.8855490 -2.1468955
-37.4820651 2.7922124 -3.6741705
-37.5090031 2.7071704 -5.2044345
-37.5077031 2.6056067 -6.7487734
-37.4531525 1.3665102 0.8542399
-37.4761846 1.2762427 -0.6679782
-37.4829085 1.1759384 -2.2001619
-37.4845660 1.0721604 -3.7406767
-37.4914613 0.9709766 -5.2872455
-37.5071218 0.8744952 -6.8386384
-37.4443593 -0.3710957 0.8182462
-37.4606645 -0.4699041 -0.7165656
-37.4802989 -0.5671607 -2.2574724
-37.4787976 -0.6778338 -3.8101064
-37.4639338 -0.7972462 -5.3737910
-37.5188495 -0.8743194 -6.9264121
-37.4599460 -2.1188703 0.7860701
-37.4706233 -2.2259197 -0.7608086
-37.4634816 -2.3447817 -2.3186998
-37.4641040 -2.4592950 -3.8826585
-37.4800756 -2.5646021 -5.4503228
-37.5167692 -2.6572115 -7.0193273
-37.4662437 -3.8977031 0.7517450
-37.4499255 -4.0273888 -0.8117819
-37.4568417 -4.1424585 -2.3785807
-37.4762128 -4.2499023 -3.9498734
-37.4731402 -4.3726825 -5.5339741
-37.4893679 -4.4833123 -7.1206716
-37.4330465 -5.7292264 0.7098606
-37.4399399 -5.8489562 -0.8613469
-37.4538226 -5.9645302 -2.4385449
-37.4664243 -6.0815536 -4.0233397
-37.4545827 -6.2158555 -5.6218727
-37.5043918 -6.3086228 -7.2116043
-37.4152176 -7.5783970 0.6701593
-37.4325933 -7.6961402 -0.9111068
-37.4478911 -7.8159359 -2.5000373
-37.4396705 -7.9529153 -4.1019575
-37.4629887 -8.0682919 -5.7040332
-37.4794953 -8.1890785 -7.3151536
-37.4226391 -9.4375991 0.6344217
-37.4550628 -9.5496489 -0.9556459
-37.4450922 -9.6931035 -2.5617535
-37.4321697 -9.8394323 -4.1770761
-37.4674727 -9.9512532 -5.7884750
-37.4473291 -10.1042688 -7.4222802
-37.4123954 -11.3377428 0.5949576
-37.4094899 -11.4813267 -1.0145273
-37.4553495 -11.5889810 -2.6215136
-37.4516680 -11.7345214 -4.2467934
-37.4306292 -11.8939140 -5.8850659
-37.3875114 -12.0708363 -7.5388290
-37.4100725 -13.2609925 0.5563401
-37.4244925 -13.3972053 -1.0620506
-37.4664491 -13.5127361 -2.6820165
-37.4524430 -13.6724239 -4.3221566
-37.4512185 -13.8229566 -5.9679207
-37.3371581 -15.2700479 0.5043780
-37.3080283 -15.4470037 -1.1368367
-37.2955786 -15.6114958 -2.7839819
-37.2476512 -15.8053424 -4.4487890
-37.1911384 -16.0070999 -6.1264611
-36.6265591 -17.8376441 0.3361732
-36.4545747 -18.1409650 -1.3616606
-36.3891606 -18.3576917 -3.0515904
-36.2720820 -18.6183703 -4.7656641
-36.0315232 -18.9830238 -6.5263998
0
0
0
0
0
0
0
0
0
0
0
0
0
0
0
0
0
0
0
0
0
0
0
0
0
0
0
0
0
0
0
0
0
0
0
0
0
0
0
0
0
0
0
0
0
0
0
0
0
0
0
0
0
0
0
0
0
0
0
0
0
0
0
0
0
0
0
0
0
0
0
0
0
0
0
0
0
0
0
0
0
0
0
0
0
0
0
0
0
0
0
0
0
0
0
0
0
0
0
0
0
0
0
0
0
0
0
0
0
0
0
0
0
0
0
0
0
0
0
0
0
0
0
0
0
0
0
0
0
0
0
0
0
0
0
0
0
0
0
0
0
0
0
0
0
0
0
0
0
0
0
0
0
0
0
0
0
0
0
0
0
0
0
0
0
0
0
0
0
0
0
0
0
0
0
0
0
0
0
0
0
0
0
0
0
0
0
0
0
0
0
0
0
0
0
0
0
0
0
0
0
0
0
0
0
0
0
0
0
0
0
0
0
0
0
0
0
0
0
0
0
0
0
0
0
0
0
0
0
0
0
0
0
0
0
0
0
0
0
0
0
0
0
0
0
0
0
0
0
0
0
0
0
0
0
0
0
0
0
0
0
0
0
0
0
0
0
0
0
0
0
0
0
0
0
0
0
0
0
0
0
0
0
0
0
0
0
0
0
0
0
0
0
0
0
0
0
0
0
0
0
0
0
0
0
0
0
0
0
0
0
0
0
0
0
0
0
0
0
0
0
0
0
0
0
0
0
0
0
0
0
0
0
0
0
0
0
0
0
0
0
0
0
0
0
0
0
0
0
0
0
0
0
0
0
0
0
0
0
0
0
0
0
0
0
0
0
0
0
0
0
0
0
0
0
0
0
0
0
0
0
0
0
0
0
0
0
0
0
0
0
0
0
0
0
0
0
0
0
0
0
0
0
0
0
0
0
0
0
0
0
0
0
0
0
0
0
0
0
0
0
0
0
0
0
0
0
0
0
0
0
0
0
0
0
0
0
0
0
0
0
0
0
0
0
0
0
0
0
0
0
0
0
0
0
0
0
0
0
0
0
0
0
0
0
0
0
0
0
0
0
0
0
0
0
0
0
0
0
0
0
0
0
0
0
0
0
0
0
0
0
0
0
0
0
0
0
0
0
0
0
0
0
0
0
0
0
0
0
0
0
0
0
0
0
0
0
0
0
0
0
0
0
0
0
0
0
0
0
0
0
0
0
0
0
0
0
0
0
0
0
0
0
0
0
0
0
0
0
0
0
0
0
0
0
0
0
0
0
0
0
0
0
0
0
0
0
0
0
0
0
0
0
1 0
1 1
1 2
1 3
1 4
1 5
1 6
1 7
1 8
1 9
1 10
1 11
0
0
0
0
0
0
0
0
0
0
0
0
0
0
0
0
0
0
0
0
0
0
0
0
0
0
0
0
0
0
0
0
0
0
0
0
0
0
0
1 12
1 13
1 14
1 15
1 16
1 17
1 18
1 19
1 20
1 21
1 22
1 23
0
0
0
0
0
0
0
0
0
0
0
0
0
0
0
0
0
0
0
0
0
0
0
0
0
0
0
0
0
0
0
0
0
0
0
0
0
0
1 24
1 25
1 26
1 27
1 28
1 29
1 30
1 31
0
0
1 32
1 33
0
0
0
0
0
0
0
0
0
0
0
0
0
0
0
0
0
0
0
0
0
0
0
0
0
0
0
0
0
0
0
0
0
0
0
0
0
0
0
1 34
1 35
1 36
1 37
1 38
1 39
0
0
0
1 40
1 41
0
0
0
0
0
0
0
0
0
0
0
0
0
0
0
0
0
0
0
0
0
0
0
0
0
0
0
0
0
0
0
1 42
0
0
0
0
0
0
0
1 43
1 44
1 45
1 46
1 47
1 48
0
0
0
1 49
1 50
0
0
0
0
0
0
0
0
0
0
0
0
0
0
0
0
0
0
0
0
0
0
0
0
0
0
0
0
1 51
1 52
1 53
1 54
0
0
0
0
0
0
0
0
1 55
1 56
1 57
1 58
1 59
1 60
1 61
1 62
1 63
1 64
0
0
0
0
0
0
0
0
0
0
0
0
0
0
0
0
0
0
0
0
0
0
0
0
0
0
1 65
1 66
1 67
1 68
1 69
0
0
0
0
0
0
0
0
0
1 70
1 71
1 72
1 73
1 74
1 75
1 76
1 77
1 78
1 79
0
0
0
0
0
0
0
0
0
0
0
0
0
0
0
0
0
0
0
0
0
0
0
0
0
1 80
1 81
1 82
1 83
1 84
1 85
0
0
0
0
0
0
0
0
0
0
1 86
1 87
1 88
1 89
1 90
1 91
1 92
1 93
1 94
0
0
0
0
0
0
0
0
0
0
0
0
0
0
0
0
0
0
0
0
0
0
0
0
0
1 95
1 96
1 97
1 98
1 99
1 100
0
0
0
0
0
0
0
0
0
0
1 101
1 102
1 103
1 104
1 105
1 106
1 107
1 108
1 109
0
0
0
0
0
0
0
0
0
0
0
0
0
0
0
0
0
0
0
0
0
0
0
0
1 110
1 111
1 112
1 113
1 114
1 115
1 116
1 117
0
0
0
0
0
0
0
0
0
1 118
1 119
1 120
1 121
1 122
1 123
1 124
1 125
1 126
0
0
0
0
0
0
0
0
0
0
0
0
0
0
0
0
0
0
0
0
0
0
0
0
1 127
1 128
1 129
1 130
1 131
1 132
1 133
1 134
0
0
0
0
0
0
0
0
0
1 135
1 136
1 137
1 138
1 139
1 140
1 141
1 142
1 143
0
0
0
0
0
0
0
0
0
0
0
0
0
0
0
0
0
0
0
0
0
0
0
0
1 144
1 145
1 146
1 147
1 148
1 149
1 150
1 151
0
0
0
0
0
0
0
0
0
1 152
1 153
1 154
1 155
1 156
1 157
1 158
1 159
1 160
0
0
0
0
0
0
0
0
0
0
0
0
0
0
0
0
0
0
0
0
0
0
0
0
1 161
1 162
1 163
1 164
1 165
1 166
1 167
1 168
0
0
0
0
0
0
0
0
0
1 169
1 170
1 171
1 172
1 173
1 174
1 175
1 176
1 177
0
0
0
0
0
0
0
0
0
0
0
0
0
0
0
0
0
0
0
0
0
0
0
0
1 178
1 179
1 180
1 181
1 182
1 183
1 184
1 185
0
0
0
0
0
0
0
0
0
1 186
1 187
1 188
1 189
1 190
1 191
0
1 192
1 193
0
0
0
0
0
0
0
0
0
0
0
0
0
0
0
0
0
0
0
0
0
0
0
0
1 194
1 195
1 196
1 197
1 198
1 199
1 200
1 201
1 202
0
0
0
0
0
0
0
0
1 203
1 204
1 205
1 206
1 207
1 208
0
1 209
1 210
0
0
0
0
0
0
0
0
0
0
0
0
0
0
0
0
0
0
0
0
0
0
0
0
1 211
1 212
1 213
1 214
1 215
1 216
1 217
1 218
1 219
0
0
0
0
0
0
0
0
1 220
1 221
1 222
1 223
1 224
1 225
1 226
1 227
0
0
0
0
0
0
0
0
0
0
0
0
0
0
0
0
0
0
0
0
0
0
0
0
0
0
1 228
1 229
1 230
1 231
1 232
1 233
1 234
1 235
0
0
0
0
0
0
0
0
1 236
1 237
1 238
1 239
1 240
1 241
1 242
1 243
0
0
0
0
0
0
0
0
0
0
0
0
0
0
0
0
0
0
0
0
0
0
0
0
0
0
0
0
0
1 244
1 245
1 246
1 247
1 248
0
0
0
0
0
0
0
0
1 249
1 250
1 251
1 252
1 253
1 254
0
0
0
0
0
0
0
0
0
0
0
0
0
0
0
0
0
0
0
0
0
0
0
0
0
0
0
0
0
0
0
0
0
0
1 255
1 256
0
0
0
0
0
0
0
0
1 257
1 258
1 259
1 260
1 261
1 262
0
0
0
0
0
0
0
0
0
0
0
0
0
0
0
0
0
0
0
0
0
0
0
0
0
0
0
0
0
0
0
0
0
0
0
0
0
0
0
0
0
0
0
0
1 263
1 264
1 265
1 266
1 267
1 268
0
0
0
0
0
0
0
0
0
0
0
0
0
0
0
0
0
0
0
0
0
0
0
0
0
0
0
0
0
0
0
0
0
0
0
0
0
0
0
0
0
0
0
0
1 269
1 270
1 271
1 272
1 273
1 274
0
0
0
0
0
0
0
0
0
0
0
0
0
0
0
0
0
0
0
0
0
0
0
0
0
0
0
0
0
0
0
0
0
0
0
0
0
0
0
0
0
0
0
0
1 275
1 276
1 277
1 278
1 279
1 280
0
0
0
0
0
0
0
0
0
0
0
0
0
0
0
0
0
0
0
0
0
0
0
0
0
0
0
0
0
0
0
0
0
0
0
0
0
0
0
0
0
0
0
0
1 281
1 282
1 283
1 284
1 285
1 286
0
0
0
0
0
0
0
0
0
0
0
0
0
0
0
0
0
0
0
0
0
0
0
0
0
0
0
0
0
0
0
0
0
0
0
0
0
0
0
0
0
0
0
0
1 287
1 288
1 289
1 290
1 291
1 292
0
0
0
0
0
0
0
0
0
0
0
0
0
0
0
0
0
0
0
0
0
0
0
0
0
0
0
0
0
0
0
0
0
0
0
0
0
0
0
0
0
0
0
0
1 293
1 294
1 295
1 296
1 297
1 298
0
0
0
0
0
0
0
0
0
0
0
0
0
0
0
0
0
0
0
0
0
0
0
0
0
0
0
0
0
0
0
0
0
0
0
0
0
0
0
0
0
0
0
0
1 299
1 300
1 301
1 302
1 303
1 304
0
0
0
0
0
0
0
0
0
0
0
0
0
0
0
0
0
0
0
0
0
0
0
0
0
0
0
0
0
0
0
0
0
0
0
0
0
0
0
0
0
0
0
0
1 305
1 306
1 307
1 308
1 309
1 310
0
0
0
0
0
0
0
0
0
0
0
0
0
0
0
0
0
0
0
0
0
0
0
0
0
0
0
0
0
0
0
0
0
0
0
0
0
0
0
0
0
0
0
0
1 311
1 312
1 313
1 314
1 315
1 316
0
0
0
0
0
0
0
0
0
0
0
0
0
0
0
0
0
0
0
0
0
0
0
0
0
0
0
0
0
0
0
0
0
0
0
0
0
0
0
0
0
0
0
0
1 317
1 318
1 319
1 320
1 321
1 322
0
0
0
0
0
0
0
0
0
0
0
0
0
0
0
0
0
0
0
0
0
0
0
0
0
0
0
0
0
0
0
0
0
0
0
0
0
0
0
0
0
0
0
0
1 323
1 324
1 325
1 326
1 327
1 328
0
0
0
0
0
0
0
0
0
0
0
0
0
0
0
0
0
0
0
0
0
0
0
0
0
0
0
0
0
0
0
0
0
0
0
0
0
0
0
0
0
0
0
0
1 329
1 330
1 331
1 332
1 333
0
0
0
0
0
0
0
0
0
0
0
0
0
0
0
0
0
0
0
0
0
0
0
0
0
0
0
0
0
0
0
0
0
0
0
0
0
0
0
0
0
0
0
0
0
1 334
1 335
1 336
1 337
1 338
0
0
0
0
0
0
0
0
0
0
0
0
0
0
0
0
0
0
0
0
0
0
0
0
0
0
0
0
0
0
0
0
0
0
0
0
0
0
0
0
0
0
0
0
0
1 339
1 340
1 341
1 342
1 343
0
0
0
0
0
0
0
0
0
0
0
0
0
0
0
0
0
0
0
0
0
0
0
0
0
0
0
0
0
0
0
0
0
0
0
0
0
0
0
0
0
0
0
0
0
0
0
0
0
0
0
0
0
0
0
0
0
0
0
0
0
0
0
0
0
0
0
0
0
0
0
0
0
0
0
0
0
0
0
0
0
0
0
0
0
0
0
0
0
0
0
0
0
0
0
0
0
0
0
0
0
0
0
0
0
0
0
0
0
0
0
0
0
0
0
0
0
0
0
0
0
0
0
0
0
0
0
0
0
0
0
0
0
0
0
0
0
0
0
0
0
0
0
0
0
0
0
0
0
0
0
0
0
0
0
0
0
0
0
0
0
0
0
0
0
0
0
0
0
0
0
0
0
0
0
0
0
0
0
0
0
0
0
0
0
0
0
0
0
0
0
0
0
0
0
0
0
0
0
0
0
0
0
0
0
0
0
0
0
0
0
0
0
0
0
0
0
0
0
0
0
0
0
0
0
0
0
0
0
0
0
0
0
0
0
0
0
0
0
0
0
0
0
0
0
0
0
0
0
0
0
0
0
0
0
0
0
0
0
0
0
0
0
0
0
0
0
0
0
0
0
0
0
0
0
0
0
0
0
0
0
0
0
0
0
0
0
0
0
0
0
0
0
0
0
0
0
0
0
0
0
0
0
0
0
0
0
0
0
0
0
0
0
0
0
0
0
0
