ply
format ascii 1.0
obj_info num_cols 50
obj_info num_rows 50
element vertex 562
property float x
property float y
property float z
element range_grid 2500
property list uchar int vertex_indices
end_header
37.4907898 18.8278989 -30.0142266
37.4466121 20.7337714 -26.9599425
37.4582011 22.6722733 -23.8085223
37.4484379 17.1009733 -30.0799167
37.4469601 18.8683036 -27.1282074
37.4411393 20.7587915 -23.9741714
37.4628138 22.7315034 -20.6609340
33.2738009 16.4637181 -31.5852386
35.1176223 15.4792389 -31.8180462
36.8510045 14.5949670 -31.9658450
37.4455538 15.3383379 -30.2129220
37.4595147 17.0129106 -27.3162378
37.5035950 18.7492661 -24.2891813
37.4387065 20.7796984 -20.8418754
37.4832506 22.7676385 -17.3809235
29.7456158 16.2978704 -31.6607290
31.7062288 15.2795910 -31.9147297
33.4401571 14.5019541 -31.9207965
35.1098733 13.7666855 -31.9025071
36.7935019 12.9691757 -31.9838523
37.4434372 13.6004300 -30.3452504
37.4767023 15.1799096 -27.5101011
36.3700843 18.5950377 -22.3157730
37.4934778 18.7337077 -21.1771805
37.4517100 20.7764008 -17.5778921
37.4972042 22.8184268 -13.9105020
29.8853195 14.3777059 -31.9049295
31.6916917 13.5686041 -31.9559423
33.3947334 12.8461252 -31.9299625
35.0561408 12.1372128 -31.9121391
36.6957736 11.4164046 -31.9334543
37.4622961 11.8588698 -30.5121564
37.4739678 13.4042948 -27.6650696
35.3727184 18.1549549 -20.6105014
36.8186379 17.8331089 -20.0530718
37.4546518 18.7615875 -17.8429793
37.4520208 20.7946886 -14.1117479
37.5081699 22.8783295 -10.2410254
29.8247462 12.7234014 -31.8657631
31.6433057 11.9193009 -31.9466542
33.3271334 11.2365714 -31.9042957
35.0073432 10.5202243 -31.9285986
36.6387215 9.8259545 -31.9498077
37.4633666 10.1677815 -30.6460370
37.4458233 11.6900938 -27.7714879
34.6455888 17.2609879 -19.4258562
36.1936597 16.8200137 -19.0326410
37.4864041 16.7366453 -18.1637480
37.4493824 18.7349600 -14.4014912
37.4646298 20.7940080 -10.4824695
37.5282935 22.9272139 -6.3842714
29.8421359 10.9985304 -31.9360213
31.5947232 10.2884135 -31.9364192
33.2932657 9.6039500 -31.9294364
34.9421307 8.9419627 -31.9178362
36.5553374 8.2868193 -31.9211474
37.4638271 8.5019952 -30.7769434
37.4626549 9.9395592 -27.9573361
34.0677662 16.1204091 -18.5284345
35.7091010 15.5748273 -18.2944281
37.3270424 15.0271222 -18.0831798
37.4677583 16.6781511 -14.7319828
37.4532168 18.6921322 -10.7920550
37.4476475 20.8425919 -6.5772218
37.5285714 23.0144384 -2.2516865
29.7869270 9.3750961 -31.9034257
31.5591337 8.6608784 -31.9445904
33.2673089 7.9815756 -31.9657723
34.9160444 7.3346858 -31.9684007
36.5018498 6.7271951 -31.9410660
37.4671178 6.8566190 -30.9108820
37.4625366 8.2378801 -28.1100893
37.4816563 9.6743854 -25.1782892
35.4872739 13.9525746 -18.0776714
37.2295930 13.2451544 -18.1287963
37.4572600 14.6996347 -14.9947010
37.4576906 16.6018935 -11.1321194
37.4454444 18.6654353 -6.9521561
37.4504357 20.8602364 -2.4919872
29.7836884 7.7139755 -31.9435218
31.5064935 7.0701636 -31.9271148
33.2159216 6.4068206 -31.9624148
34.8541854 5.7878607 -31.9609874
36.4740324 5.1555285 -32.0023250
37.4702822 5.2350668 -31.0427528
37.4645355 6.5585468 -28.2644193
37.4654114 7.9559223 -25.3254376
37.4884290 9.4138966 -22.2414242
37.4971144 10.9880801 -18.9244546
37.4609513 12.7333205 -15.2834688
37.4615449 14.5490650 -11.4650001
37.4665160 16.4919759 -7.3756548
37.4740641 18.5794661 -2.9802508
29.7700199 6.0837066 -31.9684046
31.4883745 5.4604993 -31.9595516
33.1856838 4.8267159 -31.9904934
34.8260324 4.2207429 -32.0061407
36.4001702 3.6553159 -31.9860953
37.4926673 3.6144427 -31.2059747
37.4559833 4.9163913 -28.3975401
37.4595510 6.2493016 -25.4895991
37.4621769 7.6683310 -22.3947091
37.4716036 9.1718506 -19.1102605
37.4650098 10.7993581 -15.5683240
37.4713271 12.5234380 -11.8056339
37.4644635 14.3925379 -7.7373570
37.4662907 16.3901980 -3.3819663
37.4891048 18.5123666 1.2614904
29.7588025 4.4702243 -31.9962178
31.4629016 3.8773096 -31.9805434
33.1103827 3.3112803 -31.9491407
34.7449525 2.7282998 -31.9663442
36.3362178 2.1598331 -31.9851970
37.5242052 2.0079554 -31.3830558
37.4614881 3.2812532 -28.5538349
37.4721832 4.5458353 -25.6858905
37.4714640 5.9042832 -22.6147847
37.4649150 7.3587575 -19.3311871
37.4617986 8.9069295 -15.8329912
37.4567009 10.5659048 -12.0858275
37.4676000 12.3226401 -8.1048797
37.4617261 14.2355650 -3.7841113
37.4800133 16.2614245 0.8112517
29.7364025 2.8862227 -32.0078165
31.4358315 2.3138763 -31.9985425
33.0899413 1.7563704 -31.9905078
34.7110200 1.2024483 -32.0003597
36.2956803 0.6559258 -32.0218357
37.5346567 0.4486492 -31.5219768
37.4679934 1.6688851 -28.7097770
37.4773851 2.8769444 -25.8656083
37.4739662 4.1758086 -22.8184181
37.4671907 5.5628632 -19.5668174
37.4648459 7.0372315 -16.1066640
37.4739845 8.5988693 -12.4324456
37.4665425 10.2947492 -8.4562112
37.4669709 12.1058951 -4.2030491
37.4583665 14.0700505 0.4022077
29.7024903 1.3304495 -32.0027794
31.4127450 0.7645246 -32.0217122
33.0454520 0.2428095 -31.9945086
34.6473388 -0.2766526 -31.9863585
36.2255835 -0.8008682 -32.0086458
37.5327602 -1.0756312 -31.6379734
37.4787475 0.0754659 -28.8712111
37.4679625 1.2489004 -26.0154865
37.4757450 2.4745132 -23.0176049
37.4770004 3.7864719 -19.8141552
37.4660202 5.2002204 -16.3719876
37.4728112 6.6890228 -12.7324583
37.4655892 8.3017131 -8.8016859
37.4706139 10.0170255 -4.6106599
37.4640013 11.8797673 -0.0690344
29.6541321 -0.1961024 -31.9770337
31.3643107 -0.7445995 -32.0072805
33.0155424 -1.2676495 -32.0198680
34.6111191 -1.7663062 -32.0148493
36.1869979 -2.2731183 -32.0462479
37.5208640 -2.5691975 -31.7352218
37.4796668 -1.4846432 -29.0129967
37.4696136 -0.3676821 -26.1836264
37.4710364 0.8059217 -23.2012216
37.4725663 2.0542464 -20.0289201
37.4664344 3.3936068 -16.6314699
37.4664114 4.8169311 -13.0158598
37.4699399 6.3362497 -9.1535675
37.4624103 7.9807210 -4.9821676
37.4702242 9.7296372 -0.5332196
29.6425473 -1.7378063 -32.0024146
31.3500208 -2.2672339 -32.0420267
32.9493820 -2.7292831 -31.9895211
34.5677908 -3.2326503 -32.0311838
36.1279531 -3.7095127 -32.0491445
37.5006064 -4.0352513 -31.8166506
37.4784668 -3.0206940 -29.1490308
37.4772306 -1.9667305 -26.3604433
37.4715815 -0.8435579 -23.3921958
37.4753746 0.3406179 -20.2549588
37.4867584 1.5938184 -16.9289776
37.4723299 2.9610554 -13.3217550
37.4718480 4.4074533 -9.4938919
37.4797987 5.9483489 -5.4091925
37.4702880 7.6271812 -0.9733348
29.6587557 -3.2839685 -32.0662492
31.3017128 -3.7443885 -32.0266176
32.9328528 -4.2182849 -32.0336264
34.5161343 -4.6757696 -32.0335060
36.0526791 -5.1165113 -32.0244470
37.4698209 -5.4732362 -31.8786745
37.4746888 -4.5329836 -29.2785636
37.4770958 -3.5348122 -26.5204914
37.4715748 -2.4680260 -23.5792853
37.4778564 -1.3462917 -20.4769394
37.4807224 -0.1482363 -17.1665807
37.4765971 1.1377009 -13.6191415
37.4687788 2.5169420 -9.8170177
37.4762779 3.9773698 -5.7784995
37.4832487 5.5472246 -1.4382527
29.6049286 -4.7575034 -32.0315381
31.2656635 -5.2161145 -32.0284924
32.9047695 -5.6805311 -32.0594618
34.4825055 -6.1185609 -32.0633149
35.9882328 -6.5191130 -32.0165528
37.4448280 -6.8989305 -31.9492082
37.4801943 -6.0328490 -29.4227005
37.4789977 -5.0823993 -26.6820189
37.4864903 -4.0827220 -23.7923995
37.4730105 -3.0003035 -20.6808523
37.4802033 -1.8690566 -17.4119507
37.4815596 -0.6565589 -13.9133356
37.4744591 0.6483816 -10.1548150
37.4837476 2.0279844 -6.1678409
37.4709654 3.5348970 -1.8312544
29.6046258 -6.2558317 -32.0713161
31.2240622 -6.6681154 -32.0217363
32.8353540 -7.0948041 -32.0221365
34.4402404 -7.5383925 -32.0786566
35.9539897 -7.9319623 -32.0570365
37.4133718 -8.3018549 -32.0073960
37.4751213 -7.5026853 -29.5462244
37.4839926 -6.6106366 -26.8469963
37.4816782 -5.6549771 -23.9647320
37.4814307 -4.6421319 -20.9082339
37.4900110 -3.5731115 -17.6751501
37.4895766 -2.4246780 -14.2096053
37.4774636 -1.1859847 -10.4809931
37.4931314 0.1106726 -6.5552549
37.4790211 1.5349333 -2.2682090
29.5658193 -7.7098955 -32.0568001
31.2085126 -8.1237401 -32.0522603
32.8149570 -8.5317162 -32.0581420
34.3821663 -8.9311431 -32.0683554
35.8959645 -9.3104586 -32.0576681
37.3638967 -9.6739857 -32.0337191
37.4804208 -8.9611872 -29.6862947
37.4816420 -8.1108946 -26.9962231
37.4873435 -7.2138081 -24.1545815
37.4915571 -6.2603312 -21.1357921
37.4803660 -5.2323933 -17.8938318
37.4812397 -4.1486083 -14.4656063
37.4858782 -2.9952138 -10.8142273
37.4876847 -1.7582446 -6.9008031
37.4815064 -0.4232236 -2.6836686
29.5469558 -9.1624943 -32.0697513
31.1778435 -9.5526932 -32.0602588
32.7676543 -9.9336223 -32.0528585
34.3225324 -10.3089567 -32.0548348
35.8448701 -10.6800133 -32.0686454
37.3235453 -11.0380997 -32.0743321
37.4897280 -10.4026195 -29.8316174
37.4867952 -9.5963174 -27.1571019
37.4903387 -8.7476313 -24.3366925
37.4876523 -7.8419838 -21.3321603
37.4902239 -6.8839848 -18.1496179
37.4802221 -5.8525496 -14.7333333
37.4946636 -4.7745922 -11.1430406
37.4827024 -3.5965233 -7.2415111
37.4888379 -2.3517399 -3.1040147
37.5298613 -1.0500619 1.2502827
29.5493419 -10.6127522 -32.1119485
31.1522961 -10.9698302 -32.0751328
32.7468333 -11.3388575 -32.0867820
34.2820696 -11.6862962 -32.0705372
35.7912091 -12.0335362 -32.0744971
37.2749058 -12.3810364 -32.0997402
37.4885490 -11.8162966 -29.9566876
37.4960012 -11.0638339 -27.3232626
36.5183564 -9.5027589 -22.6551933
37.5110003 -9.4224390 -21.5798108
37.4942002 -8.5049293 -18.3894941
37.4923073 -7.5410341 -15.0252704
37.4959886 -6.5179181 -11.4497949
37.4889822 -5.4146876 -7.6031334
37.4848932 -4.2355866 -3.4892105
37.5097666 -2.9976154 0.8534695
29.5045088 -12.0180137 -32.0878110
31.1533188 -12.3880201 -32.1279334
32.7116682 -12.7194023 -32.0984159
34.2496696 -13.0542639 -32.0980142
35.7620043 -13.3893797 -32.1191213
37.2174130 -13.7036352 -32.1090851
37.4852749 -13.2096573 -30.0763839
37.5295631 -12.5279027 -27.5318124
35.3061782 -10.1392541 -20.5230062
36.6923460 -10.3406099 -20.1529642
37.4956173 -10.0991737 -18.6205341
37.4889191 -9.1898900 -15.2794524
37.4852698 -8.2231424 -11.7244420
37.4896937 -7.1973685 -7.9457248
37.4931690 -6.0982787 -3.8979425
37.5011014 -4.9228068 0.4345230
-2.9851255 -0.4114006 -7.5591585
-0.3042350 -0.9725241 -7.5896940
2.3102207 -1.5229642 -7.6319986
29.4515056 -13.4051480 -32.0519182
31.1208933 -13.7701973 -32.1317338
32.6979580 -14.0982049 -32.1416103
34.1945268 -14.3935747 -32.0891810
35.6650488 -14.6877269 -32.0529164
37.1013609 -14.9753499 -32.0187166
37.4906731 -14.5903911 -30.2096311
37.5251618 -13.9440077 -27.6688387
34.5490194 -11.1680206 -19.2638843
36.0528636 -11.4328050 -19.0867016
37.4660385 -11.6466334 -18.7841553
37.4846197 -10.8128927 -15.5276869
37.4896572 -9.9139316 -12.0285109
37.4940742 -8.9536263 -8.2913285
37.4910043 -7.9197627 -4.2741609
37.4945424 -6.8166042 0.0177253
-2.9454944 -2.5304340 -7.5574588
-0.2094342 -3.0914411 -7.6697470
2.3375123 -3.5836301 -7.6505665
4.8297457 -4.0695823 -7.6496541
29.3987389 -14.7796432 -32.0160128
31.0333813 -15.1080818 -32.0553788
32.5845911 -15.4056275 -32.0345534
34.0657612 -15.6776562 -31.9649150
35.5011690 -15.9364936 -31.8777170
36.9326703 -16.2063690 -31.8391103
37.4926765 -15.9504117 -30.3352677
37.5053780 -15.3313674 -27.7759325
34.0907425 -12.4309844 -18.5755373
35.6335708 -12.7036607 -18.4590360
37.1699001 -12.9880766 -18.3960975
37.4985763 -12.4244769 -15.8112552
37.4903683 -11.5749484 -12.3196166
37.4822326 -10.6684528 -8.5933384
37.4989576 -9.7186617 -4.6688054
37.4973111 -8.6854729 -0.4156105
-0.2123598 -5.1400978 -7.6362491
2.3380298 -5.6092655 -7.6369676
4.8142652 -6.0635342 -7.6321646
7.2007125 -6.4944237 -7.5973247
29.2219224 -16.0792612 -31.8070014
30.8221991 -16.3719415 -31.7999934
32.3689931 -16.6504117 -31.7738507
33.8255771 -16.8938024 -31.6668363
35.2366436 -17.1241776 -31.5395059
36.6516988 -17.3686366 -31.4705658
37.4964931 -17.2934970 -30.4624527
37.4968163 -16.7080548 -27.9016287
33.8528496 -13.8438948 -18.3054383
35.4347607 -14.1260168 -18.2670225
37.0164238 -14.4246757 -18.3011346
37.5028417 -14.0040107 -16.0700321
37.4926872 -13.2109956 -12.6097678
37.5082869 -12.3836750 -8.9787466
37.5102404 -11.4892355 -5.0651412
37.5054564 -10.5258139 -0.8552460
2.3356638 -7.6127890 -7.6200329
4.7968313 -8.0364778 -7.6122131
7.2803683 -8.4885349 -7.7185796
28.9479898 -17.3283829 -31.4626867
30.5000240 -17.5798045 -31.3843078
32.0097330 -17.8221936 -31.2979255
33.4589088 -18.0456707 -31.1721642
34.8899725 -18.2708315 -31.0688373
36.2854677 -18.4885165 -30.9593197
37.5028187 -18.6201820 -30.5924124
37.4923050 -18.0691319 -28.0328372
33.8406153 -15.3839892 -18.4605623
35.4949260 -15.6961423 -18.5828311
37.1415951 -16.0219832 -18.7750437
37.4978457 -15.5535808 -16.3052224
37.5038450 -14.8271753 -12.9151430
37.4970017 -14.0441586 -9.2715840
37.5067711 -13.2192088 -5.4192246
37.4969449 -12.3218194 -1.2450606
-36.9508723 -3.2495934 -7.6685941
-33.5130259 -3.7763636 -7.5202928
7.2186849 -10.3974772 -7.6565074
28.5305989 -18.5155280 -30.9188427
30.0385893 -18.7293631 -30.7679309
31.5351728 -18.9479387 -30.6498445
33.0023324 -19.1630799 -30.5383806
34.4222970 -19.3659114 -30.4036459
35.8045217 -19.5601954 -30.2567618
37.1609661 -19.7513708 -30.1151842
37.5049156 -19.4213672 -28.1931888
37.4987974 -18.8838616 -25.5195453
37.5298828 -17.7374111 -19.7813017
37.4966940 -17.0826120 -16.5449818
37.5024864 -16.4099569 -13.1882321
37.4982779 -15.6869555 -9.5886571
37.5107458 -14.9257906 -5.7854465
37.5022060 -14.0971604 -1.6629802
-36.7403072 -5.6647212 -7.6261363
-33.2434824 -6.1778498 -7.5455473
-29.6740470 -6.7302632 -7.6164671
29.4740626 -19.8486545 -30.0034517
30.9706420 -20.0493877 -29.8679622
32.4409199 -20.2480829 -29.7428246
33.8333323 -20.4212963 -29.5442771
35.2090357 -20.5954183 -29.3640955
36.5583846 -20.7659397 -29.1859478
37.5502131 -20.7708446 -28.4106200
37.5056502 -20.2556290 -25.6900099
37.5008969 -19.7313373 -22.8886659
37.5054941 -19.1809631 -19.9402127
37.5004786 -18.5917328 -16.7916315
37.5075452 -17.9722299 -13.4713137
37.5104932 -17.3100555 -9.9260142
37.5088371 -16.6006186 -6.1315609
37.5126289 -15.8452556 -2.0869805
-36.4424632 -8.0763189 -7.6544513
-32.7840722 -8.6022501 -7.7269596
-29.4590636 -9.0504247 -7.6207099
-26.1445365 -9.5105560 -7.5919522
28.7669275 -20.9314996 -29.0342971
30.2354486 -21.1025484 -28.8321751
31.7035583 -21.2814869 -28.6759188
33.1045497 -21.4409705 -28.4617401
34.4570372 -21.5875168 -28.2121797
35.8097944 -21.7416108 -28.0059592
37.1401457 -21.8936052 -27.8057670
37.5115270 -21.6079519 -25.8564593
37.5018513 -21.1237384 -23.0698271
37.5095430 -20.6195977 -20.1541279
37.5135253 -20.0830321 -17.0543030
37.5035579 -19.5056537 -13.7302392
37.5119164 -18.9009224 -10.2334763
37.5061912 -18.2480439 -6.4702541
37.5031103 -17.5516817 -2.4539402
-36.1226443 -10.4625878 -7.7027352
-32.7361763 -10.8818950 -7.5778027
-31.1174199 -10.8489203 -6.0573803
-22.6002632 -12.2184820 -7.7143768
-19.5231854 -12.6110697 -7.6733824
29.2825021 -22.1056050 -27.4729531
30.6713386 -22.2348931 -27.1546449
32.1070813 -22.3884445 -26.9501045
33.4802915 -22.5247732 -26.6885430
34.7774474 -22.6370562 -26.3382372
36.0666035 -22.7517557 -26.0095488
37.3204478 -22.8573760 -25.6527055
37.5157730 -22.5025721 -23.2737150
37.5074984 -22.0347555 -20.3527450
37.5123852 -21.5449466 -17.2834589
37.5045077 -21.0186260 -13.9960375
37.5036124 -20.4620925 -10.5138699
37.5061762 -19.8705420 -6.8097509
37.5214503 -19.2452840 -2.8843661
37.5654471 -18.5915167 1.2427516
-35.8979266 -12.7950848 -7.6789720
-32.5210729 -13.1811247 -7.5662166
-32.3524369 -12.8027800 -4.8453799
-22.5093261 -14.3872634 -7.6525710
-19.3644801 -14.7678117 -7.6911771
-16.3945174 -15.1162723 -7.6530297
-13.3953417 -15.4848018 -7.7281449
29.2391132 -23.0992115 -25.0180662
30.5416344 -23.1832133 -24.5313869
31.8591933 -23.2766626 -24.0969800
33.0622646 -23.3320949 -23.4961667
34.2599801 -23.3881840 -22.9041986
35.4011808 -23.4249176 -22.2260640
36.4029149 -23.4072317 -21.2898511
37.4016469 -23.3870451 -20.3390061
37.5718416 -23.0115922 -17.6366466
37.5198307 -22.5152061 -14.2893668
37.5102191 -22.0065599 -10.8238530
37.5147214 -21.4711747 -7.1642597
37.5103818 -20.8952050 -3.2347296
37.5302467 -20.2909477 0.9076683
-35.5932658 -15.1174810 -7.7206371
-32.4343526 -15.4254583 -7.4523078
-32.5281297 -15.0248301 -4.5218829
-22.2376572 -16.5752376 -7.7544745
-19.2114935 -16.8979566 -7.7052109
-16.2056472 -17.2270204 -7.7201633
-13.3077906 -17.5416778 -7.7151812
-10.4794212 -17.8505859 -7.7237974
-7.7286568 -18.1514063 -7.7350913
-5.0374767 -18.4482731 -7.7653737
-2.4663439 -18.7252843 -7.7446684
0.0448109 -18.9971595 -7.7343990
2.4879993 -19.2614415 -7.7226468
4.8805606 -19.5224459 -7.7276406
7.2178370 -19.7786651 -7.7418703
29.3013787 -23.4332691 -17.1364607
30.4924929 -23.4513233 -16.2991715
31.6453675 -23.4564637 -15.3961848
32.8271510 -23.4722331 -14.5493663
33.9644772 -23.4718803 -13.6178482
35.1207698 -23.4785996 -12.7239209
36.2844463 -23.4884015 -11.8471002
37.3811242 -23.4709098 -10.8201399
37.5824354 -23.0709844 -7.6539875
37.5224650 -22.5292225 -3.6366385
37.5144419 -21.9734070 0.5286191
-35.4439978 -17.3796746 -7.6421459
-31.8346194 -17.7492943 -7.7588734
-25.2505622 -18.3957600 -7.7406215
-22.1503847 -18.6954146 -7.6925689
-19.0886038 -18.9970879 -7.6928005
-16.1098428 -19.2913562 -7.6994754
-13.2329286 -19.5737368 -7.6907208
-10.3725602 -19.8624908 -7.7485772
-7.6669549 -20.1267915 -7.7298140
-5.0145230 -20.3886220 -7.7340912
-2.4179374 -20.6472228 -7.7572803
0.0858171 -20.8935750 -7.7546446
2.4672821 -21.1197698 -7.6845157
4.9134289 -21.3710901 -7.7704638
7.2139190 -21.5957020 -7.7535561
9.4715859 -21.8185774 -7.7573096
11.6500254 -22.0299613 -7.7303847
13.8069038 -22.2447208 -7.7492330
15.8856083 -22.4474017 -7.7316532
17.9374482 -22.6517224 -7.7497486
19.9408475 -22.8515410 -7.7700940
21.8781823 -23.0412868 -7.7607748
23.7809940 -23.2298337 -7.7697858
25.6111339 -23.4051491 -7.7282614
27.3022200 -23.5448357 -7.5042260
28.4831026 -23.5233379 -6.3570397
29.7528545 -23.5305360 -5.3758138
31.0560662 -23.5495600 -4.4655753
32.2499684 -23.5300620 -3.3243581
33.5535006 -23.5497476 -2.4193631
34.8304040 -23.5601692 -1.4591017
36.0812767 -23.5606474 -0.4374275
37.3434014 -23.5654215 0.5577194
-35.0531465 -19.6602247 -7.7570757
-31.6727967 -19.9538513 -7.7107831
-28.2937881 -20.2565438 -7.7501611
-25.0860339 -20.5378678 -7.7313200
-21.9732427 -20.8108618 -7.7130214
-18.8602384 -21.0930056 -7.7798940
-15.9588640 -21.3442591 -7.7329984
-13.0407436 -21.6074558 -7.7837082
-10.3192987 -21.8409479 -7.7193872
-7.5673561 -22.0889649 -7.7654230
-4.9304976 -22.3223937 -7.7702048
-2.3922758 -22.5438540 -7.7446171
0.1151473 -22.7671508 -7.7615356
2.5659000 -22.9867645 -7.7907924
4.8917311 -23.1873018 -7.7450347
7.2118913 -23.3946539 -7.7675166
9.2536214 -23.5460282 -7.4972563
10.5675293 -23.5313336 -6.2776160
12.0148569 -23.5480459 -5.2410043
13.4100298 -23.5523497 -4.1316214
14.8721004 -23.5735493 -3.1247183
16.2684778 -23.5784504 -2.0199135
17.5976992 -23.5654681 -0.8036290
19.0824799 -23.5939460 0.1540947
20.6245489 -23.6396197 0.9986208
-31.3030020 -22.1669439 -7.8351152
-28.1776866 -22.3971685 -7.6834738
-24.9297910 -22.6544181 -7.7165328
-21.7336784 -22.9115664 -7.7914438
-18.8188941 -23.1304782 -7.6944700
-15.8741382 -23.3618002 -7.7041298
-13.1320935 -23.5661746 -7.5963335
-11.5214490 -23.5795573 -6.4029707
-8.4518761 -23.5795699 -3.8585793
-6.7860378 -23.6034752 -2.7309432
-5.3073064 -23.5927681 -1.3917118
-3.6150828 -23.6224641 -0.3035530
-2.0003082 -23.6379076 0.8714007
0
0
0
0
0
0
0
0
0
0
0
0
0
0
0
0
0
0
0
0
0
0
0
0
0
0
0
0
0
0
0
0
0
0
0
0
0
0
0
0
0
0
0
0
0
0
0
0
0
0
0
0
0
0
0
0
0
0
0
0
0
0
0
0
0
0
0
0
0
0
0
0
0
0
0
0
0
0
0
0
0
0
0
0
0
0
0
0
0
0
0
0
0
0
0
0
0
0
0
0
0
0
0
0
0
0
0
0
0
0
0
0
0
0
0
0
0
0
0
0
0
0
0
0
0
0
0
0
0
0
0
0
1 0
1 1
1 2
0
0
0
0
0
0
0
0
0
0
0
0
0
0
0
0
0
0
0
0
0
0
0
0
0
0
0
0
0
0
0
0
0
0
0
0
0
0
0
0
0
0
0
0
0
0
0
1 3
1 4
1 5
1 6
0
0
0
0
0
0
0
0
0
0
0
0
0
0
0
0
0
0
0
0
0
0
0
0
0
0
0
0
0
0
0
0
0
0
0
0
0
0
0
0
0
0
0
1 7
1 8
1 9
1 10
1 11
1 12
1 13
1 14
0
0
0
0
0
0
0
0
0
0
0
0
0
0
0
0
0
0
0
0
0
0
0
0
0
0
0
0
0
0
0
0
0
0
0
0
0
0
0
0
1 15
1 16
1 17
1 18
1 19
1 20
1 21
1 22
1 23
1 24
1 25
0
0
0
0
0
0
0
0
0
0
0
0
0
0
0
0
0
0
0
0
0
0
0
0
0
0
0
0
0
0
0
0
0
0
0
0
0
0
0
1 26
1 27
1 28
1 29
1 30
1 31
1 32
1 33
1 34
1 35
1 36
1 37
0
0
0
0
0
0
0
0
0
0
0
0
0
0
0
0
0
0
0
0
0
0
0
0
0
0
0
0
0
0
0
0
0
0
0
0
0
0
1 38
1 39
1 40
1 41
1 42
1 43
1 44
1 45
1 46
1 47
1 48
1 49
1 50
0
0
0
0
0
0
0
0
0
0
0
0
0
0
0
0
0
0
0
0
0
0
0
0
0
0
0
0
0
0
0
0
0
0
0
0
0
1 51
1 52
1 53
1 54
1 55
1 56
1 57
1 58
1 59
1 60
1 61
1 62
1 63
1 64
0
0
0
0
0
0
0
0
0
0
0
0
0
0
0
0
0
0
0
0
0
0
0
0
0
0
0
0
0
0
0
0
0
0
0
0
1 65
1 66
1 67
1 68
1 69
1 70
1 71
1 72
1 73
1 74
1 75
1 76
1 77
1 78
0
0
0
0
0
0
0
0
0
0
0
0
0
0
0
0
0
0
0
0
0
0
0
0
0
0
0
0
0
0
0
0
0
0
0
0
1 79
1 80
1 81
1 82
1 83
1 84
1 85
1 86
1 87
1 88
1 89
1 90
1 91
1 92
0
0
0
0
0
0
0
0
0
0
0
0
0
0
0
0
0
0
0
0
0
0
0
0
0
0
0
0
0
0
0
0
0
0
0
0
1 93
1 94
1 95
1 96
1 97
1 98
1 99
1 100
1 101
1 102
1 103
1 104
1 105
1 106
1 107
0
0
0
0
0
0
0
0
0
0
0
0
0
0
0
0
0
0
0
0
0
0
0
0
0
0
0
0
0
0
0
0
0
0
0
1 108
1 109
1 110
1 111
1 112
1 113
1 114
1 115
1 116
1 117
1 118
1 119
1 120
1 121
1 122
0
0
0
0
0
0
0
0
0
0
0
0
0
0
0
0
0
0
0
0
0
0
0
0
0
0
0
0
0
0
0
0
0
0
0
1 123
1 124
1 125
1 126
1 127
1 128
1 129
1 130
1 131
1 132
1 133
1 134
1 135
1 136
1 137
0
0
0
0
0
0
0
0
0
0
0
0
0
0
0
0
0
0
0
0
0
0
0
0
0
0
0
0
0
0
0
0
0
0
0
1 138
1 139
1 140
1 141
1 142
1 143
1 144
1 145
1 146
1 147
1 148
1 149
1 150
1 151
1 152
0
0
0
0
0
0
0
0
0
0
0
0
0
0
0
0
0
0
0
0
0
0
0
0
0
0
0
0
0
0
0
0
0
0
0
1 153
1 154
1 155
1 156
1 157
1 158
1 159
1 160
1 161
1 162
1 163
1 164
1 165
1 166
1 167
0
0
0
0
0
0
0
0
0
0
0
0
0
0
0
0
0
0
0
0
0
0
0
0
0
0
0
0
0
0
0
0
0
0
0
1 168
1 169
1 170
1 171
1 172
1 173
1 174
1 175
1 176
1 177
1 178
1 179
1 180
1 181
1 182
0
0
0
0
0
0
0
0
0
0
0
0
0
0
0
0
0
0
0
0
0
0
0
0
0
0
0
0
0
0
0
0
0
0
0
1 183
1 184
1 185
1 186
1 187
1 188
1 189
1 190
1 191
1 192
1 193
1 194
1 195
1 196
1 197
0
0
0
0
0
0
0
0
0
0
0
0
0
0
0
0
0
0
0
0
0
0
0
0
0
0
0
0
0
0
0
0
0
0
0
1 198
1 199
1 200
1 201
1 202
1 203
1 204
1 205
1 206
1 207
1 208
1 209
1 210
1 211
1 212
0
0
0
0
0
0
0
0
0
0
0
0
0
0
0
0
0
0
0
0
0
0
0
0
0
0
0
0
0
0
0
0
0
0
0
1 213
1 214
1 215
1 216
1 217
1 218
1 219
1 220
1 221
1 222
1 223
1 224
1 225
1 226
1 227
0
0
0
0
0
0
0
0
0
0
0
0
0
0
0
0
0
0
0
0
0
0
0
0
0
0
0
0
0
0
0
0
0
0
0
1 228
1 229
1 230
1 231
1 232
1 233
1 234
1 235
1 236
1 237
1 238
1 239
1 240
1 241
1 242
0
0
0
0
0
0
0
0
0
0
0
0
0
0
0
0
0
0
0
0
0
0
0
0
0
0
0
0
0
0
0
0
0
0
0
1 243
1 244
1 245
1 246
1 247
1 248
1 249
1 250
1 251
1 252
1 253
1 254
1 255
1 256
1 257
1 258
0
0
0
0
0
0
0
0
0
0
0
0
0
0
0
0
0
0
0
0
0
0
0
0
0
0
0
0
0
0
0
0
0
0
1 259
1 260
1 261
1 262
1 263
1 264
1 265
1 266
1 267
1 268
1 269
1 270
1 271
1 272
1 273
1 274
0
0
0
0
0
0
0
0
0
0
0
0
0
0
0
0
0
0
0
0
0
0
0
0
0
0
0
0
0
0
0
0
0
0
1 275
1 276
1 277
1 278
1 279
1 280
1 281
1 282
1 283
1 284
1 285
1 286
1 287
1 288
1 289
1 290
0
0
0
0
0
0
0
0
0
0
0
0
0
0
0
0
0
0
0
0
0
0
0
0
0
0
0
0
1 291
1 292
1 293
0
0
0
1 294
1 295
1 296
1 297
1 298
1 299
1 300
1 301
1 302
1 303
1 304
1 305
1 306
1 307
1 308
1 309
0
0
0
0
0
0
0
0
0
0
0
0
0
0
0
0
0
0
0
0
0
0
0
0
0
0
0
0
1 310
1 311
1 312
1 313
0
0
1 314
1 315
1 316
1 317
1 318
1 319
1 320
1 321
1 322
1 323
1 324
1 325
1 326
1 327
1 328
1 329
0
0
0
0
0
0
0
0
0
0
0
0
0
0
0
0
0
0
0
0
0
0
0
0
0
0
0
0
0
1 330
1 331
1 332
1 333
0
1 334
1 335
1 336
1 337
1 338
1 339
1 340
1 341
1 342
1 343
1 344
1 345
1 346
1 347
1 348
1 349
0
0
0
0
0
0
0
0
0
0
0
0
0
0
0
0
0
0
0
0
0
0
0
0
0
0
0
0
0
0
1 350
1 351
1 352
0
1 353
1 354
1 355
1 356
1 357
1 358
1 359
1 360
1 361
1 362
1 363
1 364
1 365
1 366
1 367
1 368
0
0
0
0
0
0
0
0
0
0
0
0
0
0
0
0
0
1 369
1 370
0
0
0
0
0
0
0
0
0
0
0
0
0
1 371
0
1 372
1 373
1 374
1 375
1 376
1 377
1 378
1 379
1 380
0
1 381
1 382
1 383
1 384
1 385
1 386
0
0
0
0
0
0
0
0
0
0
0
0
0
0
0
0
0
1 387
1 388
1 389
0
0
0
0
0
0
0
0
0
0
0
0
0
0
0
1 390
1 391
1 392
1 393
1 394
1 395
1 396
1 397
1 398
1 399
1 400
1 401
1 402
1 403
1 404
0
0
0
0
0
0
0
0
0
0
0
0
0
0
0
0
0
1 405
1 406
1 407
1 408
0
0
0
0
0
0
0
0
0
0
0
0
0
0
1 409
1 410
1 411
1 412
1 413
1 414
1 415
1 416
1 417
1 418
1 419
1 420
1 421
1 422
1 423
0
0
0
0
0
0
0
0
0
0
0
0
0
0
0
0
0
1 424
1 425
1 426
0
1 427
1 428
0
0
0
0
0
0
0
0
0
0
0
0
0
1 429
1 430
1 431
1 432
1 433
1 434
1 435
1 436
1 437
1 438
1 439
1 440
1 441
1 442
1 443
0
0
0
0
0
0
0
0
0
0
0
0
0
0
0
0
1 444
1 445
1 446
0
1 447
1 448
1 449
1 450
0
0
0
0
0
0
0
0
0
0
0
0
1 451
1 452
1 453
1 454
1 455
1 456
1 457
1 458
1 459
1 460
1 461
1 462
1 463
1 464
0
0
0
0
0
0
0
0
0
0
0
0
0
0
0
0
1 465
1 466
1 467
0
1 468
1 469
1 470
1 471
1 472
1 473
1 474
1 475
1 476
1 477
1 478
1 479
0
0
0
0
0
0
0
1 480
1 481
1 482
1 483
1 484
1 485
1 486
1 487
1 488
1 489
1 490
0
0
0
0
0
0
0
0
0
0
0
0
0
0
0
0
1 491
1 492
0
1 493
1 494
1 495
1 496
1 497
1 498
1 499
1 500
1 501
1 502
1 503
1 504
1 505
1 506
1 507
1 508
1 509
1 510
1 511
1 512
1 513
1 514
1 515
1 516
1 517
1 518
1 519
1 520
1 521
1 522
1 523
0
0
0
0
0
0
0
0
0
0
0
0
0
0
0
0
1 524
1 525
1 526
1 527
1 528
1 529
1 530
1 531
1 532
1 533
1 534
1 535
1 536
1 537
1 538
1 539
1 540
1 541
1 542
1 543
1 544
1 545
1 546
1 547
1 548
0
0
0
0
0
0
0
0
0
0
0
0
0
0
0
0
0
0
0
0
0
0
0
0
0
0
1 549
1 550
1 551
1 552
1 553
1 554
1 555
1 556
0
1 557
1 558
1 559
1 560
1 561
0
0
0
0
0
0
0
0
0
0
0
0
0
0
0
0
0
0
0
0
0
0
0
0
0
0
0
0
0
0
0
0
0
0
0
0
0
0
0
0
0
0
0
0
0
0
0
0
0
0
0
0
0
0
0
0
0
0
0
0
0
0
0
0
0
0
0
0
0
0
0
0
0
0
0
0
0
0
0
0
0
0
0
0
0
0
0
0
0
0
0
0
0
0
0
0
0
0
0
0
0
0
0
0
0
0
0
0
0
0
0
0
0
0
0
0
0
0
0
0
0
0
0
0
0
0
0
0
0
0
0
0
0
0
0
0
0
0
0
0
0
0
0
0
0
0
0
0
0
0
0
0
0
0
0
0
0
0
0
0
0
0
0
0
0
0
0
0
0
0
0
0
0
0
0
0
0
0
0
0
0
0
0
0
0
0
0
0
0
0
0
0
0
0
0
0
0
0
0
0
0
0
0
0
0
0
0
0
0
0
0
0
0
0
0
0
0
0
0
0
0
0
0
0
0
0
0
0
0
0
0
0
0
0
0
0
0
0
0
0
0
0
0
0
0
0
0
0
0
0
0
0
0
0
0
0
0
0
0
0
0
0
0
0
0
0
0
0
0
0
0
0
0
0
0
0
0
0
0
0
0
0
0
0
0
0
0
0
0
0
0
0
0
0
0
0
0
0
0
0
0
0
0
0
0
0
0
0
0
0
0
0
0
0
0
0
0
0
0
0
0
0
0
0
0
0
0
0
0
0
0
0
0
0
0
0
0
0
0
0
0
0
0
0
0
0
0
0
0
0
0
0
0
0
0
0
0
0
0
0
0
0
0
0
0
0
0
0
0
0
0
0
0
0
0
0
0
0
0
0
0
0
0
0
0
0
0
0
0
0
0
0
0
0
0
0
0
0
0
0
0
0
0
0
0
0
0
0
0
0
0
0
0
0
0
0
0
0
0
0
0
0
0
0
0
0
0
0
0
0
0
0
0
0
0
0
0
0
0
0
0
0
0
0
0
0
0
0
0
0
0
0
0
0
0
0
0
0
0
0
0
0
0
0
0
0
0
0
0
0
0
0
0
0
0
0
0
0
0
0
0
0
0
0
0
0
0
0
0
0
0
0
0
0
0
0
0
0
0
0
0
0
0
0
0
0
0
0
0
0
0
0
0
0
0
0
0
0
0
0
0
0
0
0
0
0
0
0
0
0
0
0
0
0
0
0
0
0
0
0
0
0
0
0
0
0
0
0
0
0
0
0
0
0
0
0
0
0
0
0
0
0
0
0
0
0
0
0
0
0
0
0
0
0
0
0
0
0
0
0
0
0
0
0
0
0
0
0
0
0
0
0
0
0
0
0
0
0
0
0
0
0
0
0
0
0
0
0
0
0
0
0
0
0
0
0
0
0
0
0
0
0
0
0
0
0
0
0
0
0
0
0
0
0
0
0
0
0
0
0
0
0
0
0
0
0
0
0
0
0
0
0
0
0
0
0
0
0
0
0
0
0
0
0
0
0
0
0
0
0
0
0
0
0
0
