ply
format ascii 1.0
obj_info num_cols 50
obj_info num_rows 50
element vertex 799
property float x
property float y
property float z
element range_grid 2500
property list uchar int vertex_indices
end_header
32.1626633 23.5580806 0.8687863
34.0669805 23.5564559 0.3190076
35.9769217 23.5508668 -0.2241700
10.3484290 13.7031366 22.5306660
11.9557843 14.5785595 20.3144941
13.9222245 14.8395064 19.2211718
17.2584387 23.4994679 0.9535698
19.1142116 23.4885975 0.4353588
20.9444388 23.5071975 -0.1342823
22.7756621 23.5241917 -0.7010060
24.6123261 23.5352322 -1.2574210
26.4860915 23.5098325 -1.7518466
28.2761239 23.5663182 -2.3854643
30.1666365 23.5274732 -2.8579075
31.9940711 23.5479293 -3.4304434
33.8123934 23.5757075 -4.0149531
35.6471926 23.5886517 -4.5746280
3.1773890 23.4251797 1.0667560
4.9499531 23.4592613 0.4847580
6.7591938 23.4349878 0.0042189
8.5369817 23.4597549 -0.5614008
10.3268725 23.4664319 -1.0957817
12.1227238 23.4655376 -1.6173493
13.9104773 23.4758878 -2.1581666
15.7080410 23.4742860 -2.6788733
17.4867572 23.4957165 -3.2383513
19.2945978 23.4834606 -3.7415778
21.0590060 23.5200992 -4.3261132
22.8619923 23.5144038 -4.8405329
24.6450450 23.5300294 -5.3901187
26.4304581 23.5430039 -5.9352974
28.2027349 23.5683181 -6.5003626
29.9884437 23.5803412 -7.0437991
31.8069742 23.5629034 -7.5401820
33.5641490 23.6003975 -8.1242537
35.3592078 23.6043776 -8.6549577
37.1116313 23.6437482 -9.2412513
-10.1779933 23.3902410 1.1119695
-8.4281601 23.3723868 0.6343895
-6.6860467 23.3778586 0.1159053
-4.9400972 23.3753011 -0.3888427
-3.1927837 23.3715861 -0.8918474
-1.4600004 23.3984763 -1.4472361
0.2815609 23.4069964 -1.9711990
2.0176527 23.4253379 -2.5117369
3.7548894 23.4409042 -3.0474743
5.5097274 23.4280829 -3.5358266
7.2465850 23.4445584 -4.0731355
8.9855659 23.4574082 -4.6043560
10.7197572 23.4766022 -5.1459165
12.4610943 23.4856424 -5.6707762
14.1944493 23.5048487 -6.2121154
15.9472605 23.4997646 -6.7141913
17.6472866 23.5574285 -7.3169573
19.5304446 23.4056778 -7.5857136
21.5418911 23.1259836 -7.6551904
23.6172338 22.7988470 -7.6555370
25.7154212 22.4705787 -7.6604558
27.8144720 22.1628942 -7.7037098
28.1746398 23.5307270 -10.3395082
29.8728726 23.5813774 -10.9287750
31.5952226 23.6080501 -11.4807168
33.3541429 23.6019080 -11.9826180
35.0773289 23.6269690 -12.5318220
36.7895857 23.6602615 -13.0930662
-22.8292494 23.3024080 1.2505537
-21.1324548 23.3035037 0.7527873
-19.4353818 23.3061668 0.2521463
-17.7396889 23.3177749 -0.2640330
-16.0440617 23.3292268 -0.7799146
-14.3548502 23.3643391 -1.3360882
-12.6510464 23.3452951 -1.8000105
-10.9582539 23.3651502 -2.3300398
-9.2684413 23.3915586 -2.8708773
-7.5594856 23.3664931 -3.3255735
-5.8803974 23.4171999 -3.9065811
-4.1771230 23.4090584 -4.3897787
-2.4757800 23.4072223 -4.8836491
-0.7817072 23.4208850 -5.4030165
0.9114323 23.4358292 -5.9243951
2.6075298 23.4451273 -6.4365757
4.2736230 23.5036581 -7.0277297
5.9997769 23.4638351 -7.4611512
7.8615066 23.2271267 -7.5833071
9.7921152 22.9145039 -7.5902983
11.7484238 22.5943868 -7.5914430
13.7042143 22.3019055 -7.6416877
15.7143884 21.9650193 -7.6286870
17.7366273 21.6398024 -7.6400082
19.7828905 21.3110978 -7.6521338
21.8684212 20.9621967 -7.6397404
23.9502653 20.6416904 -7.6768737
26.0806005 20.2921394 -7.6764139
28.0469567 20.1317978 -7.9652405
28.1281109 23.5138991 -14.0164063
29.7342588 23.6091312 -14.6554514
31.4466449 23.6039805 -15.1466416
33.1235523 23.6306968 -15.6842567
34.8279342 23.6331253 -16.1866154
36.4937287 23.6679410 -16.7354179
-29.9006942 23.0872851 0.1574530
-28.2440920 23.2703248 -0.6416228
-26.5927252 23.3307941 -1.2286473
-24.9361600 23.2781790 -1.6229657
-23.2830412 23.2953760 -2.1361810
-21.6323568 23.3273852 -2.6741245
-19.9779502 23.3284653 -3.1600351
-18.3232774 23.3308670 -3.6482934
-16.6715404 23.3483072 -4.1615220
-15.0174214 23.3545688 -4.6562478
-13.3589559 23.3463336 -5.1273465
-11.7136399 23.3831937 -5.6720509
-10.0508696 23.3648629 -6.1270697
-8.3978534 23.3769636 -6.6315017
-6.7602487 23.4265812 -7.1958614
-5.0566263 23.3196913 -7.5107291
-3.2620516 23.0335162 -7.5442788
-1.4451328 22.7386372 -7.5694165
0.3923163 22.4400070 -7.5941184
2.2580032 22.1244699 -7.5980440
4.1515604 21.7952871 -7.5866871
6.0570896 21.4801304 -7.6029233
7.9881869 21.1561433 -7.6114739
9.9387437 20.8334979 -7.6280224
11.9198996 20.4963801 -7.6286668
13.9353992 20.1415434 -7.6089269
15.9423618 19.8266106 -7.6552256
17.9960309 19.4782529 -7.6577814
20.0696918 19.1322048 -7.6701534
22.1846254 18.7636092 -7.6558749
24.3153405 18.4032801 -7.6604119
26.4640291 18.0480427 -7.6789528
28.0689012 23.5121731 -17.5333748
29.6354827 23.6050331 -18.1512247
31.2628097 23.6385251 -18.6848809
32.9439754 23.6234982 -19.1509563
34.5911892 23.6387772 -19.6591496
36.2385679 23.6536346 -20.1666670
-33.5511859 21.3543700 0.7250810
-31.8266905 22.4240086 -1.5514695
-30.1746851 23.0548211 -3.0800702
-28.5564460 23.2627870 -3.8985280
-26.9439741 23.3072565 -4.4445396
-25.3303572 23.3030251 -4.9102361
-23.7182121 23.3226802 -5.4150584
-22.1032654 23.3151255 -5.8756409
-20.4948681 23.3564297 -6.4152169
-18.8862777 23.3864638 -6.9361859
-17.2658189 23.3553035 -7.3592913
-15.6045018 23.1661885 -7.5327865
-13.9008666 22.8651715 -7.5333644
-12.1781858 22.5620182 -7.5359838
-10.4393121 22.2659132 -7.5550192
-8.6779201 21.9576761 -7.5605599
-6.8916273 21.6340039 -7.5478342
-5.0983464 21.3406991 -7.5874452
-3.2714271 21.0126934 -7.5794445
-1.4236688 20.6830657 -7.5748622
0.4453938 20.3512076 -7.5728275
2.3262746 20.0350717 -7.6002913
4.2300336 19.7128054 -7.6243051
6.1707458 19.3618600 -7.6116505
8.1242395 19.0247318 -7.6256220
10.0997791 18.6855082 -7.6425818
12.1062244 18.3316131 -7.6442986
14.1476604 17.9591999 -7.6255990
16.1954628 17.6087467 -7.6451313
18.2580115 17.2669770 -7.6833636
20.3739067 16.8851650 -7.6709119
22.4985438 16.5208448 -7.6899881
24.6659067 16.1330534 -7.6827116
26.8511590 15.7518218 -7.6915391
28.0514278 23.4733875 -20.8303817
29.5182211 23.6227273 -21.5073867
31.1286343 23.6347095 -21.9989950
32.7480777 23.6386135 -22.4798707
34.3489074 23.6587624 -22.9821960
36.0451343 23.5986311 -23.3795202
-32.0556747 22.3488842 -4.6149262
-30.4372558 22.9791399 -6.0963922
-28.8540765 23.2265833 -6.9560013
-27.2775767 23.2410391 -7.4414665
-25.6851903 22.9817068 -7.4942298
-24.0756905 22.7040335 -7.5227136
-22.4475818 22.4088778 -7.5287282
-20.7991813 22.0951422 -7.5110136
-19.1360091 21.8037154 -7.5332685
-17.4507274 21.4890803 -7.5249340
-15.7483547 21.1815300 -7.5329297
-14.0235590 20.8583438 -7.5225244
-12.2855522 20.5559688 -7.5492385
-10.5236377 20.2352609 -7.5536788
-8.7371754 19.8989806 -7.5404426
-6.9367436 19.5787960 -7.5570154
-5.1165721 19.2570758 -7.5769248
-3.2739818 18.9279906 -7.5916443
-1.4079493 18.5907354 -7.6001880
0.4838396 18.2420779 -7.5980712
2.3887598 17.9081260 -7.6232971
4.3235448 17.5562049 -7.6285774
6.2888001 17.1879859 -7.6167592
8.2772442 16.8177730 -7.6085570
10.2740631 16.4690732 -7.6371770
12.3006327 16.1070506 -7.6532403
14.3663651 15.7198692 -7.6405996
16.4504171 15.3393090 -7.6439092
18.5526833 14.9647597 -7.6621627
20.6867880 14.5781755 -7.6705292
22.8373601 14.1997817 -7.6968091
25.0301409 13.7981569 -7.6983581
27.2400053 13.4045000 -7.7176459
28.0842299 23.3890685 -23.9150455
29.6224373 23.4387392 -24.4455339
31.2432973 23.4114113 -24.8772625
32.9348451 23.3235952 -25.2330966
34.6546379 23.2163634 -25.5661992
-33.9334583 21.2213161 -5.4302315
-32.2798116 22.1914128 -7.4112267
-30.7185701 21.9607699 -7.5140894
-29.1441029 21.6548999 -7.5048689
-27.5517821 21.3448969 -7.4945194
-25.9417689 21.0406346 -7.4982142
-24.3138408 20.7334593 -7.5026789
-22.6692979 20.4376444 -7.5295344
-21.0029446 20.1083724 -7.5112181
-19.3229777 19.8123764 -7.5481956
-17.6187644 19.4802369 -7.5365753
-15.8964104 19.1533128 -7.5383214
-14.1623925 18.8557739 -7.5887909
-12.3951822 18.5013615 -7.5613330
-10.6111434 18.1592012 -7.5577034
-8.8120977 17.8316608 -7.5810175
-6.9907047 17.4951390 -7.5970479
-5.1405954 17.1353370 -7.5856223
-3.2820038 16.8051919 -7.6224049
-1.3888717 16.4409470 -7.6167628
0.5150205 16.0986236 -7.6480730
2.4687102 15.6972033 -7.6029039
4.4176939 15.3483811 -7.6374356
6.4037271 14.9698300 -7.6370173
8.4144667 14.5867854 -7.6369261
10.4452752 14.2073863 -7.6483475
12.5057347 13.8163482 -7.6505327
14.5822051 13.4353674 -7.6729229
16.6877566 13.0446567 -7.6888528
18.8385050 12.6233377 -7.6708690
21.0038900 12.2150654 -7.6772950
23.1943487 11.8052076 -7.6886388
25.3983825 11.4080200 -7.7235006
27.6289416 11.0069188 -7.7601175
28.5493463 22.8932194 -26.3536985
30.2667609 22.7549465 -26.6448094
31.9822063 22.6260951 -26.9498660
33.7399087 22.4668267 -27.2204407
-34.1601893 20.6340467 -7.5141472
-32.6051110 20.3133927 -7.4940459
-31.0318467 19.9936227 -7.4806056
-29.4402754 19.6959914 -7.5054926
-27.8310259 19.3572146 -7.4743441
-26.2050932 19.0722594 -7.5281953
-24.5595614 18.7416148 -7.5198134
-22.8980288 18.4380476 -7.5564307
-21.2141940 18.0954386 -7.5415022
-19.5077657 17.7326049 -7.5031168
-17.7920988 17.4311891 -7.5588475
-16.0529313 17.0998905 -7.5770150
-14.2881506 16.7402560 -7.5605422
-12.5076957 16.3983350 -7.5750374
-10.7052205 16.0476399 -7.5829476
-8.8813183 15.6922977 -7.5902403
-7.0375741 15.3379676 -7.6048714
-5.1657787 14.9627088 -7.5966020
-3.2731748 14.5887058 -7.5963178
-1.3720617 14.2441559 -7.6423662
0.5680861 13.8574889 -7.6372103
2.5342989 13.4624541 -7.6272632
4.5246775 13.0641012 -7.6194811
6.5237946 12.6913369 -7.6523481
8.5608619 12.2893269 -7.6528471
10.6167172 11.8941367 -7.6690174
12.7071398 11.4797031 -7.6667107
14.8062846 11.0879775 -7.7007612
16.9492540 10.6647552 -7.7008206
19.1181972 10.2388872 -7.7045773
21.3206621 9.8004572 -7.6994927
23.5416477 9.3704433 -7.7123765
25.8080592 8.9140622 -7.6993734
27.9866107 8.5963285 -7.8668770
28.0281127 21.8469866 -27.5983800
29.5318305 21.9031031 -28.1238828
31.2841688 21.7247758 -28.3735697
33.0699321 21.5255551 -28.6019883
-36.0976634 18.7341696 -7.1347687
-34.5126398 18.6671163 -7.5047677
-32.9412897 18.3357288 -7.4908550
-31.3511677 18.0151257 -7.4979643
-23.1313483 16.3848277 -7.5735119
-21.4267127 16.0059605 -7.5305804
-19.7080560 15.6738956 -7.5590364
-17.9698848 15.3357129 -7.5844421
-16.2076783 14.9715438 -7.5795731
-14.4236044 14.6000693 -7.5706394
-12.6236571 14.2470368 -7.5928801
-10.7985947 13.8745670 -7.5945760
-8.9480034 13.4864350 -7.5812744
-7.0778857 13.1042356 -7.5822443
-5.1870937 12.7235249 -7.5914366
-3.2759007 12.3447186 -7.6093684
-1.3331525 11.9408075 -7.6005054
0.6158998 11.5730841 -7.6455045
2.6098457 11.1536734 -7.6294302
4.6168244 10.7547804 -7.6466777
6.6630103 10.3235582 -7.6289991
8.6990577 9.9538883 -7.6967975
10.8020403 9.5044761 -7.6696885
12.9216371 9.0687801 -7.6671803
15.0589349 8.6433504 -7.6846346
17.2431313 8.1828498 -7.6654855
19.4168487 7.7746746 -7.7184530
21.6445206 7.3229618 -7.7247253
23.9122774 6.8511469 -7.7139020
26.2070150 6.3783717 -7.7096373
28.0061485 13.1772407 -18.0100155
28.0405521 18.6405707 -25.8717795
29.0263054 20.8491869 -29.3359393
30.7976865 20.6417413 -29.5590055
32.6006362 20.4158266 -29.7648173
-36.4394046 17.0242195 -7.5474680
-34.8741006 16.6461564 -7.4836027
-33.2840138 16.3302133 -7.5132797
-31.8771148 11.4950249 -1.2147960
-30.1564864 9.9154871 0.4713678
-28.3612982 9.4373955 0.6064004
-26.5681427 9.7600007 -0.3696007
-23.3682702 14.2612150 -7.5611990
-21.6488869 13.9046065 -7.5724993
-19.9069953 13.5253655 -7.5590072
-18.1445246 13.1458847 -7.5512431
-16.3643098 12.7810044 -7.5689754
-14.5630960 12.4106581 -7.5853036
-12.7429245 12.0449508 -7.6136558
-10.8956069 11.6524843 -7.6128522
-9.0268224 11.2594115 -7.6175295
-7.1264644 10.8348208 -7.5877483
-5.2203619 10.4593316 -7.6278282
-3.2752896 10.0347595 -7.6112421
-1.3162977 9.6327007 -7.6300114
0.6660155 9.2272126 -7.6508884
2.6771515 8.8068853 -7.6596526
4.7139733 8.3806598 -7.6677930
6.7886317 7.9256683 -7.6471403
8.8764787 7.4921004 -7.6601148
10.9777480 7.0765373 -7.7020392
13.1319708 6.6095578 -7.6881764
15.3025567 6.1571742 -7.6993968
17.5121075 5.6824463 -7.6910717
19.7423753 5.2153037 -7.6993791
21.9869950 4.7640398 -7.7339584
24.2767783 4.2842827 -7.7422811
26.5922079 3.8051293 -7.7589954
28.6723445 19.6538326 -30.3748817
30.4852795 19.3977197 -30.5532559
32.3272879 19.1272762 -30.7202970
-36.8221678 15.0008117 -7.5653859
-35.2392159 14.6268704 -7.5303614
-33.6365233 14.2527223 -7.5008788
-32.1103888 11.8763932 -4.7627613
-30.4483056 10.0797289 -2.8423814
-28.6970954 9.4550351 -2.5205562
-26.9365661 9.6318888 -3.2768105
-25.2225803 10.4983591 -4.9445131
-23.6138624 12.1203736 -7.5947989
-21.8725681 11.7191440 -7.5698435
-20.1101954 11.3191056 -7.5527000
-18.3288747 10.9331957 -7.5600964
-16.5295469 10.5606277 -7.5907005
-14.7002303 10.1394622 -7.5649482
-12.8574983 9.7559911 -7.5937201
-10.9842168 9.3336086 -7.5792957
-9.0912232 8.9205331 -7.5831681
-7.1846257 8.5339781 -7.6266301
-5.2469838 8.1165094 -7.6377707
-3.2826767 7.6867171 -7.6402392
-1.2880788 7.2378062 -7.6259883
0.7219569 6.8089797 -7.6432328
2.7540520 6.3817879 -7.6691736
4.8177409 5.9356482 -7.6790079
6.9096788 5.4803197 -7.6848426
9.0336479 5.0099338 -7.6799191
11.1869397 4.5316089 -7.6729891
13.3604795 4.0622906 -7.6841111
15.5480649 3.6111875 -7.7238107
17.7835187 3.1218945 -7.7263870
20.0493629 2.6258685 -7.7288896
22.3529181 2.1130831 -7.7200251
24.6720421 1.6169320 -7.7380662
27.0389293 1.0914623 -7.7308548
28.5263715 18.2463149 -31.1837812
30.3714814 17.9543594 -31.3360288
32.2272497 17.6673791 -31.4980931
-37.2189953 12.8896566 -7.5289410
-35.6179117 12.5096947 -7.5086387
-33.9931006 12.1826141 -7.5639109
-32.3556724 11.7709035 -7.5131626
-30.7262894 10.2528908 -6.0254514
-29.0187112 9.5657213 -5.6382020
-27.2906471 9.4923490 -6.0529340
-25.5946372 10.1552646 -7.4129840
-23.8598003 9.8546362 -7.5350218
-22.1017030 9.4783403 -7.5658015
-20.3242402 9.1034498 -7.6041174
-18.5231916 8.7012516 -7.6139815
-16.6920750 8.2466990 -7.5648271
-14.8524005 7.8666254 -7.6147779
-12.9802899 7.4305791 -7.6017171
-11.0896280 7.0106687 -7.6150539
-9.1733127 6.5768621 -7.6179403
-7.2371360 6.1518446 -7.6380840
-5.2715437 5.7044480 -7.6378872
-3.2819635 5.2548980 -7.6419757
-1.2710612 4.8106998 -7.6592953
0.7645252 4.3625431 -7.6787651
2.8425014 3.8698953 -7.6530485
4.9224538 3.4291493 -7.6952186
7.0397188 2.9584590 -7.7095677
9.2008234 2.4494425 -7.6871530
11.3766035 1.9625783 -7.6977941
13.5860422 1.4607155 -7.6989172
15.8116812 0.9758613 -7.7268759
18.0708599 0.4773303 -7.7469955
20.3844089 -0.0661476 -7.7248729
22.7031880 -0.5746423 -7.7496576
25.0748753 -1.1218196 -7.7398920
27.4604537 -1.6484452 -7.7608752
28.1454175 9.6560788 -22.6220354
27.9762473 13.7720569 -27.9094844
28.5594116 16.6405170 -31.8012051
30.4897713 16.2611665 -31.8788509
32.3879888 15.9343653 -32.0151558
-36.0054305 10.3449086 -7.4917020
-34.3639376 9.9880665 -7.5290664
-32.7042210 9.6329388 -7.5739617
-31.0280773 9.2245367 -7.5569164
-29.3311657 8.8286519 -7.5616974
-27.6139877 8.4232170 -7.5604899
-25.8752451 7.9949637 -7.5370425
-24.1182060 7.6164853 -7.5814026
-22.3377417 7.1932305 -7.5765429
-20.5366568 6.7772275 -7.5868644
-18.7139561 6.3577982 -7.5992735
-16.8657235 5.9131509 -7.5876060
-15.0004537 5.4972380 -7.6169948
-13.1071462 5.0496113 -7.6149029
-11.1954150 4.6197906 -7.6405757
-9.2579817 4.1755659 -7.6557797
-7.2923440 3.7120675 -7.6551487
-5.3043026 3.2521927 -7.6656768
-3.2809812 2.7574542 -7.6429137
-1.2434997 2.2926578 -7.6618715
0.8218259 1.8171245 -7.6755909
2.9138889 1.3354665 -7.6895273
5.0414109 0.8289550 -7.6827753
7.1924211 0.3273068 -7.6890571
9.3634357 -0.1630924 -7.7153494
11.5837436 -0.7006817 -7.6970349
13.8000671 -1.1803031 -7.7502199
16.0824087 -1.7334599 -7.7307072
18.3705680 -2.2487996 -7.7603248
20.6974181 -2.7843516 -7.7760275
23.0625990 -3.3371736 -7.7813976
25.4635751 -3.9014910 -7.7829263
27.8599553 -4.4174833 -7.8436843
28.8888153 14.6931887 -32.1071526
30.9036302 14.2318295 -32.1237261
32.9544274 13.7575795 -32.1347639
-36.3954692 8.1924195 -7.5559456
-34.7399851 7.7881252 -7.5550500
-33.0653909 7.3673839 -7.5398616
-31.3684691 6.9888210 -7.5824104
-29.6535914 6.5223660 -7.5237033
-27.9167185 6.1349422 -7.5673166
-26.1591286 5.7103631 -7.5720048
-24.3785871 5.2562604 -7.5476811
-22.5825130 4.8827845 -7.6257021
-20.7561022 4.4041325 -7.5851709
-18.9134758 3.9811096 -7.6168785
-17.0426116 3.5131837 -7.6024903
-15.1482576 3.0439720 -7.5934856
-13.2424788 2.6318610 -7.6570878
-11.3016550 2.1575052 -7.6555805
-9.3338556 1.6699987 -7.6461016
-7.3428355 1.1861339 -7.6479009
-5.3280660 0.7033449 -7.6580237
-3.2835214 0.2031682 -7.6558653
-1.2120959 -0.3026167 -7.6548521
0.8780972 -0.7914787 -7.6799034
3.0037990 -1.3079886 -7.6819283
5.1499236 -1.8121041 -7.7050165
7.3358982 -2.3487999 -7.7003813
9.5344687 -2.8558225 -7.7354454
11.7711740 -3.3884988 -7.7506771
14.0596911 -3.9692815 -7.7228963
16.3465537 -4.4944290 -7.7620802
18.6848228 -5.0634847 -7.7632219
21.0660218 -5.6568852 -7.7475354
23.4533330 -6.2126194 -7.7793229
25.8850752 -6.7941478 -7.7929685
28.1227673 -7.0435231 -8.1519736
29.5270587 12.3652877 -32.0987721
31.5778103 11.8805588 -32.1171774
33.6720647 11.3753424 -32.1236006
-36.7965496 5.9714439 -7.5987320
-35.1299788 5.4779412 -7.5129333
-33.4334726 5.0816852 -7.5500330
-31.7184374 4.6647749 -7.5683914
-29.9837141 4.2046284 -7.5418689
-28.2270269 3.7870246 -7.5717340
-26.4490420 3.3411087 -7.5746963
-24.6496818 2.9010615 -7.5908634
-22.8289451 2.4618021 -7.6142773
-20.9858712 2.0137021 -7.6339305
-19.1142014 1.5130456 -7.6004074
-17.2253700 1.0596070 -7.6273343
-15.3122271 0.5936976 -7.6468272
-13.3713443 0.1026786 -7.6450785
-11.4066417 -0.3878699 -7.6509271
-9.4185814 -0.8761782 -7.6663116
-7.3974598 -1.3985373 -7.6515427
-5.3548510 -1.9074786 -7.6588651
-3.2872302 -2.4170188 -7.6728831
-1.1934524 -2.9303399 -7.6902041
0.9380842 -3.4782882 -7.6780851
3.0937902 -4.0197230 -7.6807537
5.2624536 -4.5287104 -7.7253069
7.4736569 -5.0779661 -7.7352190
9.7257167 -5.6575853 -7.7216077
11.9847696 -6.1934583 -7.7613672
14.2974127 -6.7830078 -7.7540298
16.6408106 -7.3762656 -7.7514405
19.0026494 -7.9506755 -7.7764092
21.4113352 -8.5573330 -7.7774168
23.8393451 -9.1469899 -7.8040772
26.3252496 -9.7827795 -7.7937609
28.1203191 10.4738292 -32.0802555
30.1576234 9.9940263 -32.1201802
32.2600084 9.4677236 -32.1248232
34.3819017 8.9482252 -32.1432159
-37.2136051 3.6399250 -7.5751642
-35.5219104 3.2006410 -7.5775319
-33.8109168 2.7359444 -7.5567803
-32.0781249 2.2630005 -7.5331243
-30.3216204 1.8545712 -7.5896825
-28.5453978 1.4099511 -7.6110171
-26.7469592 0.9306519 -7.5995826
-24.9261360 0.4605146 -7.6051690
-23.0827037 -0.0118705 -7.6148975
-21.2138337 -0.5135502 -7.5989197
-19.3242557 -0.9887541 -7.6191097
-17.4090350 -1.4841997 -7.6239250
-15.4661438 -2.0034444 -7.6099297
-13.5061890 -2.4824608 -7.6466265
-11.5156689 -2.9970330 -7.6520310
-9.5067557 -3.4856626 -7.6923133
-7.4576098 -4.0386038 -7.6715400
-5.3867559 -4.5751079 -7.6758412
-3.2944997 -5.0978864 -7.7020501
-1.1662604 -5.6536936 -7.7014377
0.9871922 -6.2056964 -7.7126048
3.1780135 -6.7866348 -7.7020045
5.3897156 -7.3504686 -7.7169913
7.6292589 -7.9163342 -7.7379140
9.9139036 -8.5222949 -7.7266973
12.2166320 -9.1052257 -7.7469622
14.5631941 -9.7202493 -7.7437913
16.9219910 -10.3022056 -7.7817585
19.3198103 -10.9046672 -7.8080124
21.7746706 -11.5568590 -7.7947297
24.2568249 -12.2024252 -7.7970432
26.7774329 -12.8602896 -7.7967866
28.7074806 8.0835938 -32.1299815
30.8228595 7.5293829 -32.1273733
32.9490285 6.9932557 -32.1484759
35.1355793 6.4184554 -32.1435755
-35.9301530 0.7920424 -7.5567890
-34.1982600 0.3256249 -7.5577859
-32.4437628 -0.1231464 -7.5848506
-30.6690653 -0.6086068 -7.5776221
-28.8716811 -1.0778750 -7.5948896
-27.0524235 -1.5431788 -7.6229887
-25.2093834 -2.0511804 -7.6112591
-23.3425942 -2.5590378 -7.6067230
-21.4547297 -3.0378109 -7.6403586
-19.5370483 -3.5805803 -7.6125715
-17.5973630 -4.0989115 -7.6181308
-15.6386398 -4.5847669 -7.6649816
-13.6492122 -5.1136101 -7.6737357
-11.6267782 -5.6822265 -7.6486042
-9.5916674 -6.1902614 -7.6937342
-7.5165389 -6.7622698 -7.6804884
-5.4227841 -7.3047042 -7.7052264
-3.2966854 -7.8702492 -7.7141748
-1.1470416 -8.4265826 -7.7402102
1.0506878 -9.0466908 -7.7104779
3.2616835 -9.6239114 -7.7317573
5.5122885 -10.2331988 -7.7295671
7.7861545 -10.8296684 -7.7483389
10.0924022 -11.4362011 -7.7656554
12.4257370 -12.0397463 -7.7942757
14.8201631 -12.7111407 -7.7665078
17.2299347 -13.3506560 -7.7782826
19.6648841 -13.9810247 -7.8075568
22.1334480 -14.6186576 -7.8388137
24.6800194 -15.3398795 -7.8014144
27.2234807 -15.9993449 -7.8308902
29.3482657 5.5743135 -32.1438735
31.5080585 4.9853149 -32.1370554
33.6874945 4.4057505 -32.1464130
35.8905208 3.8303744 -32.1673567
-36.3459393 -1.6460225 -7.5719125
-34.5934979 -2.1173887 -7.5906133
-32.8207120 -2.6155144 -7.5869156
-31.0242940 -3.0832271 -7.6225341
-29.2065922 -3.6122480 -7.5993278
-27.3649967 -4.1224671 -7.6031796
-25.5020079 -4.5840080 -7.6650887
-23.6101939 -5.1639712 -7.6097305
-21.6988002 -5.6631440 -7.6460083
-19.7604559 -6.1990170 -7.6512848
-17.7951578 -6.7527132 -7.6456158
-15.8039903 -7.3093203 -7.6445228
-13.7962588 -7.8149636 -7.7024841
-11.7499480 -8.3974721 -7.6902197
-9.6723255 -9.0005708 -7.6653621
-7.5816275 -9.5438170 -7.7079679
-5.4578294 -10.1174363 -7.7281172
-3.2940211 -10.7381870 -7.7100544
-1.1150285 -11.3161744 -7.7419245
1.1001239 -11.9227642 -7.7541263
3.3660874 -12.5935590 -7.7131787
5.6319861 -13.1829868 -7.7586563
7.9597584 -13.8588014 -7.7306978
10.2829823 -14.4507504 -7.7904900
12.6621773 -15.1068579 -7.7987118
15.0835210 -15.7884189 -7.7923859
17.5378353 -16.4732633 -7.7923453
20.0022980 -17.1166132 -7.8393969
22.5526570 -17.8645977 -7.8007470
25.0947627 -18.5364439 -7.8405400
27.7051974 -19.2724055 -7.8324717
28.1005200 3.2575328 -31.8855167
30.0166373 2.9734276 -32.1516830
32.2204029 2.3503592 -32.1430025
34.4246055 1.7612838 -32.1705658
36.6583439 1.1694596 -32.2039642
-36.7692146 -4.1135252 -7.6221990
-34.9982525 -4.6155986 -7.6312520
-33.2067243 -5.1572932 -7.6056638
-31.3901319 -5.6750517 -7.6121236
-29.5503174 -6.2053773 -7.6125492
-27.6866739 -6.7323878 -7.6234522
-25.7991912 -7.2620740 -7.6386753
-23.8862346 -7.8190387 -7.6334048
-21.9479326 -8.3792573 -7.6323067
-19.9865554 -8.9185089 -7.6596134
-17.9972812 -9.4863577 -7.6657893
-15.9820562 -10.0566425 -7.6771582
-13.9427586 -10.6172573 -7.7056113
-11.8608384 -11.2684061 -7.6536132
-9.7643785 -11.8504034 -7.6770353
-7.6407379 -12.4363145 -7.7044956
-5.4856936 -13.0414740 -7.7214785
-3.2976333 -13.6670394 -7.7272720
-1.0872505 -14.2730862 -7.7597577
1.1603964 -14.9096687 -7.7718979
3.4487584 -15.5808618 -7.7605261
5.7662558 -16.2489685 -7.7609705
8.1127508 -16.9141314 -7.7730436
10.5005984 -17.6067242 -7.7691776
12.8963102 -18.2455392 -7.8229431
15.3522655 -18.9529499 -7.8240431
17.8458726 -19.6722797 -7.8240557
20.3706534 -20.3890053 -7.8359933
22.9497506 -21.1476218 -7.8209672
25.5414619 -21.8666083 -7.8504338
28.1011964 -22.4721014 -7.9871183
28.3167031 -12.2710357 -18.5406252
28.4965122 0.9317367 -32.1701464
30.7012897 0.2922424 -32.1665760
32.9405578 -0.3542979 -32.1659913
35.1842418 -0.9702887 -32.1981300
-37.2098706 -6.7120976 -7.6028528
-35.4180998 -7.2402448 -7.6089941
-33.6042791 -7.7920288 -7.5981532
-31.7660405 -8.3423844 -7.5959817
-29.9031520 -8.8630700 -7.6306599
-28.0170257 -9.4024348 -7.6536427
-24.1684278 -10.5694813 -7.6343616
-22.2076224 -11.1241481 -7.6642801
-20.2195065 -11.7071874 -7.6740637
-18.2006965 -12.3314442 -7.6519315
-16.1666608 -12.8677650 -7.7218478
-14.0860265 -13.5446288 -7.6657030
-11.9958688 -14.1107950 -7.7225704
-9.8635379 -14.7599381 -7.7093630
-7.7050331 -15.3979133 -7.7150409
-5.5190208 -16.0329489 -7.7318098
-3.2938856 -16.7085810 -7.7197827
-1.0454264 -17.3617493 -7.7370386
1.2219456 -17.9830493 -7.7916292
3.5440615 -18.6852124 -7.7819804
5.8933999 -19.3765779 -7.7911595
8.2871696 -20.1042910 -7.7773475
10.7071808 -20.8171043 -7.7861556
13.1450210 -21.4974123 -7.8326107
15.6506344 -22.2621842 -7.8151096
18.1781271 -23.0012598 -7.8296803
29.1902084 -1.8474536 -32.1543025
31.4039629 -2.4740015 -32.1877545
33.6835797 -3.1497702 -32.1917629
36.0007127 -3.8349933 -32.1974966
-35.8475406 -9.9127184 -7.6097346
-34.0105443 -10.4620101 -7.6260426
-32.1491336 -10.9955721 -7.6647595
-30.3615117 -18.0428962 -1.4048215
-28.3147201 -18.6262619 -1.4506075
-26.2672897 -18.3172246 -2.3565132
-22.4745604 -13.9418101 -7.6992050
-20.4594074 -14.5689089 -7.6934521
-18.4133383 -15.2286775 -7.6654006
-16.3445430 -15.8444751 -7.6864702
-14.2402916 -16.5161327 -7.6642433
-12.1198318 -17.1145946 -7.7173627
-9.9615311 -17.7725504 -7.7243924
-7.7803797 -18.4043494 -7.7634140
-5.5566942 -19.0985883 -7.7549010
-3.3051605 -19.7839915 -7.7631735
-1.0138750 -20.5044774 -7.7494467
1.3048541 -21.2122875 -7.7560855
3.6506170 -21.9086203 -7.7818134
6.0209184 -22.5883838 -7.8307958
28.5405673 -17.1255711 -19.7834587
28.0818707 -10.1217826 -26.3961534
28.0449269 -4.5964120 -31.7094932
29.8542947 -4.6497991 -32.1954548
32.1512828 -5.3642604 -32.1892270
34.4590283 -6.0517281 -32.2122058
36.7909381 -6.7316947 -32.2495897
-36.2872733 -12.6409204 -7.6265938
-34.4293783 -13.2319267 -7.6273753
-32.5519278 -13.9659126 -7.5005775
-30.7006347 -17.8046271 -4.4694861
-28.6955414 -18.6633586 -4.2642430
-26.6775776 -18.5143608 -5.0029740
-24.7202916 -17.1259398 -6.8799773
-22.7448733 -16.8987118 -7.6790479
-20.7027979 -17.5494138 -7.6788744
-18.6310081 -18.2184065 -7.6704675
-16.5370948 -18.8373873 -7.7152937
-14.4053466 -19.5327702 -7.7000857
-12.2504534 -20.1898485 -7.7274921
-10.0599992 -20.8861808 -7.7288453
-7.8494024 -21.5373357 -7.7783326
-5.5894328 -22.2809365 -7.7562468
-3.3091515 -22.9795933 -7.7821275
28.2932983 -6.8894686 -32.1852547
30.5811667 -7.6062591 -32.1964726
32.9036700 -8.3285491 -32.2128531
35.2606759 -9.0556718 -32.2349789
-36.7389279 -15.4430326 -7.6440175
-34.8603810 -16.0875910 -7.6204079
-32.9518982 -16.6623637 -7.6687375
-31.0258354 -17.5349383 -7.4532911
-29.0635146 -18.4911439 -7.1730829
-27.0762195 -18.6747177 -7.5982178
-25.0663951 -19.2224041 -7.7011501
-23.0257884 -19.8984428 -7.6972957
-20.9569413 -20.5734330 -7.7027862
-18.8588819 -21.2574786 -7.7087838
-16.7310072 -21.9508515 -7.7152221
-14.5740139 -22.6445605 -7.7300157
-12.3700416 -23.4477192 -7.6599137
28.3541989 -17.9775395 -24.7111741
28.9802268 -9.8864971 -32.2059542
31.3247163 -10.6563207 -32.2077490
33.7059874 -11.4324266 -32.2148066
36.1292309 -12.2214483 -32.2226786
-35.3017237 -18.9958736 -7.6384106
-33.3713241 -19.6384893 -7.6507165
-31.4142428 -20.2723397 -7.6786277
-29.4312414 -20.9448605 -7.6804283
-27.4214401 -21.5588461 -7.7414000
-25.3812553 -22.3154568 -7.6866664
-23.3133212 -23.0116460 -7.6930363
29.6990352 -13.0030286 -32.2200306
32.0388476 -13.7335181 -32.2772937
34.5576511 -14.6809535 -32.1980635
37.2475303 -15.8153048 -32.0062504
28.3237453 -15.8536803 -31.9266033
31.0197185 -17.1474373 -31.6334890
0
0
0
0
0
0
0
0
0
0
0
0
0
0
0
0
0
0
0
0
0
0
0
0
0
0
0
0
0
0
0
0
0
0
0
0
0
0
0
0
0
0
0
0
0
0
0
0
0
0
0
0
0
0
0
0
0
0
0
0
0
0
0
0
0
0
0
0
0
0
0
0
0
0
0
0
0
0
0
0
0
0
0
0
0
0
0
0
0
0
0
0
0
0
0
0
0
0
0
0
0
0
0
0
0
0
0
0
0
0
0
0
0
0
0
0
0
0
0
0
0
0
0
0
0
0
0
0
0
0
0
0
0
0
0
0
0
0
0
0
0
0
0
0
0
0
0
0
0
0
0
0
0
0
0
0
0
0
0
0
0
0
0
0
0
0
0
0
0
0
0
0
0
0
0
0
0
0
0
0
0
0
0
0
0
0
0
0
0
0
0
0
0
0
0
0
0
0
0
0
0
0
0
0
0
0
0
0
0
0
0
0
0
0
0
0
0
0
0
0
0
0
0
0
0
0
0
0
0
0
0
0
0
0
0
0
0
0
0
0
0
0
0
0
0
0
0
0
0
0
0
0
0
0
0
0
0
0
0
0
0
0
0
0
0
0
0
0
0
0
0
0
0
0
0
0
0
0
0
0
0
0
0
0
0
0
0
0
0
0
0
0
0
0
0
0
0
0
0
0
0
0
0
0
0
0
0
0
0
0
0
0
0
0
0
0
0
0
0
0
0
0
0
0
0
0
0
0
0
0
0
0
0
0
0
0
0
0
0
0
0
0
0
0
0
0
0
0
0
0
0
0
0
0
0
0
0
0
0
0
0
0
0
0
0
0
0
0
0
0
0
0
0
0
0
0
0
0
0
0
0
0
0
0
0
0
0
0
0
0
0
0
0
0
0
0
0
0
0
0
0
0
0
0
0
0
0
0
0
0
0
0
0
0
0
0
0
0
0
0
0
0
0
0
0
0
0
0
0
0
0
0
0
0
0
0
0
0
0
0
0
0
0
0
0
0
0
0
0
0
0
0
0
0
0
0
0
0
0
0
0
0
0
0
0
0
0
0
0
0
0
0
0
0
0
0
0
0
0
0
0
0
0
0
0
0
0
0
0
0
0
0
0
0
0
0
0
0
0
0
0
0
0
0
0
0
0
0
0
0
0
0
0
0
0
0
0
0
0
0
0
0
0
0
0
0
0
0
0
0
0
0
0
0
0
0
0
0
0
0
0
0
0
0
0
0
0
0
0
0
0
0
0
0
0
0
0
0
0
0
0
0
0
0
0
0
0
0
0
0
0
0
0
0
0
0
0
0
0
0
0
0
0
0
0
0
0
0
0
0
0
0
0
0
0
0
0
0
0
0
0
0
0
0
0
0
0
0
0
0
0
0
0
0
0
0
0
0
0
0
0
0
0
0
0
0
0
0
0
0
0
0
0
0
0
0
0
0
0
0
1 0
1 1
1 2
0
0
0
0
0
0
0
0
0
0
0
0
0
0
0
0
0
0
0
0
0
0
0
0
0
0
0
0
0
0
0
0
0
1 3
1 4
1 5
0
0
0
0
1 6
1 7
1 8
1 9
1 10
1 11
1 12
1 13
1 14
1 15
1 16
0
0
0
0
0
0
0
0
0
0
0
0
0
0
0
0
0
0
0
0
0
0
0
0
0
0
0
0
0
0
0
0
1 17
1 18
1 19
1 20
1 21
1 22
1 23
1 24
1 25
1 26
1 27
1 28
1 29
1 30
1 31
1 32
1 33
1 34
1 35
1 36
0
0
0
0
0
0
0
0
0
0
0
0
0
0
0
0
0
0
0
0
0
0
0
1 37
1 38
1 39
1 40
1 41
1 42
1 43
1 44
1 45
1 46
1 47
1 48
1 49
1 50
1 51
1 52
1 53
1 54
1 55
1 56
1 57
1 58
1 59
1 60
1 61
1 62
1 63
1 64
0
0
0
0
0
0
0
0
0
0
0
0
0
0
0
1 65
1 66
1 67
1 68
1 69
1 70
1 71
1 72
1 73
1 74
1 75
1 76
1 77
1 78
1 79
1 80
1 81
1 82
1 83
1 84
1 85
1 86
1 87
1 88
1 89
1 90
1 91
1 92
1 93
0
1 94
1 95
1 96
1 97
1 98
1 99
0
0
0
0
0
0
0
0
0
0
1 100
1 101
1 102
1 103
1 104
1 105
1 106
1 107
1 108
1 109
1 110
1 111
1 112
1 113
1 114
1 115
1 116
1 117
1 118
1 119
1 120
1 121
1 122
1 123
1 124
1 125
1 126
1 127
1 128
1 129
1 130
1 131
0
0
0
1 132
1 133
1 134
1 135
1 136
1 137
0
0
0
0
0
0
0
1 138
1 139
1 140
1 141
1 142
1 143
1 144
1 145
1 146
1 147
1 148
1 149
1 150
1 151
1 152
1 153
1 154
1 155
1 156
1 157
1 158
1 159
1 160
1 161
1 162
1 163
1 164
1 165
1 166
1 167
1 168
1 169
1 170
1 171
0
0
0
0
1 172
1 173
1 174
1 175
1 176
1 177
0
0
0
0
0
0
0
1 178
1 179
1 180
1 181
1 182
1 183
1 184
1 185
1 186
1 187
1 188
1 189
1 190
1 191
1 192
1 193
1 194
1 195
1 196
1 197
1 198
1 199
1 200
1 201
1 202
1 203
1 204
1 205
1 206
1 207
1 208
1 209
1 210
0
0
0
0
0
1 211
1 212
1 213
1 214
1 215
0
0
0
0
0
0
1 216
1 217
1 218
1 219
1 220
1 221
1 222
1 223
1 224
1 225
1 226
1 227
1 228
1 229
1 230
1 231
1 232
1 233
1 234
1 235
1 236
1 237
1 238
1 239
1 240
1 241
1 242
1 243
1 244
1 245
1 246
1 247
1 248
1 249
0
0
0
0
0
0
1 250
1 251
1 252
1 253
0
0
0
0
0
0
1 254
1 255
1 256
1 257
1 258
1 259
1 260
1 261
1 262
1 263
1 264
1 265
1 266
1 267
1 268
1 269
1 270
1 271
1 272
1 273
1 274
1 275
1 276
1 277
1 278
1 279
1 280
1 281
1 282
1 283
1 284
1 285
1 286
1 287
0
0
0
0
0
0
1 288
1 289
1 290
1 291
0
0
0
0
0
1 292
1 293
1 294
1 295
0
0
0
0
1 296
1 297
1 298
1 299
1 300
1 301
1 302
1 303
1 304
1 305
1 306
1 307
1 308
1 309
1 310
1 311
1 312
1 313
1 314
1 315
1 316
1 317
1 318
1 319
1 320
1 321
0
0
0
1 322
0
0
1 323
0
1 324
1 325
1 326
0
0
0
0
0
1 327
1 328
1 329
1 330
1 331
1 332
1 333
0
1 334
1 335
1 336
1 337
1 338
1 339
1 340
1 341
1 342
1 343
1 344
1 345
1 346
1 347
1 348
1 349
1 350
1 351
1 352
1 353
1 354
1 355
1 356
1 357
1 358
1 359
0
0
0
0
0
0
0
0
1 360
1 361
1 362
0
0
0
0
0
1 363
1 364
1 365
1 366
1 367
1 368
1 369
1 370
1 371
1 372
1 373
1 374
1 375
1 376
1 377
1 378
1 379
1 380
1 381
1 382
1 383
1 384
1 385
1 386
1 387
1 388
1 389
1 390
1 391
1 392
1 393
1 394
1 395
1 396
0
0
0
0
0
0
0
0
1 397
1 398
1 399
0
0
0
0
0
1 400
1 401
1 402
1 403
1 404
1 405
1 406
1 407
1 408
1 409
1 410
1 411
1 412
1 413
1 414
1 415
1 416
1 417
1 418
1 419
1 420
1 421
1 422
1 423
1 424
1 425
1 426
1 427
1 428
1 429
1 430
1 431
1 432
1 433
0
0
0
0
1 434
0
1 435
0
1 436
1 437
1 438
0
0
0
0
0
0
1 439
1 440
1 441
1 442
1 443
1 444
1 445
1 446
1 447
1 448
1 449
1 450
1 451
1 452
1 453
1 454
1 455
1 456
1 457
1 458
1 459
1 460
1 461
1 462
1 463
1 464
1 465
1 466
1 467
1 468
1 469
1 470
1 471
0
0
0
0
0
0
0
0
1 472
1 473
1 474
0
0
0
0
0
0
1 475
1 476
1 477
1 478
1 479
1 480
1 481
1 482
1 483
1 484
1 485
1 486
1 487
1 488
1 489
1 490
1 491
1 492
1 493
1 494
1 495
1 496
1 497
1 498
1 499
1 500
1 501
1 502
1 503
1 504
1 505
1 506
1 507
0
0
0
0
0
0
0
0
1 508
1 509
1 510
0
0
0
0
0
0
1 511
1 512
1 513
1 514
1 515
1 516
1 517
1 518
1 519
1 520
1 521
1 522
1 523
1 524
1 525
1 526
1 527
1 528
1 529
1 530
1 531
1 532
1 533
1 534
1 535
1 536
1 537
1 538
1 539
1 540
1 541
1 542
0
0
0
0
0
0
0
0
1 543
1 544
1 545
1 546
0
0
0
0
0
0
1 547
1 548
1 549
1 550
1 551
1 552
1 553
1 554
1 555
1 556
1 557
1 558
1 559
1 560
1 561
1 562
1 563
1 564
1 565
1 566
1 567
1 568
1 569
1 570
1 571
1 572
1 573
1 574
1 575
1 576
1 577
1 578
0
0
0
0
0
0
0
0
1 579
1 580
1 581
1 582
0
0
0
0
0
0
0
1 583
1 584
1 585
1 586
1 587
1 588
1 589
1 590
1 591
1 592
1 593
1 594
1 595
1 596
1 597
1 598
1 599
1 600
1 601
1 602
1 603
1 604
1 605
1 606
1 607
1 608
1 609
1 610
1 611
1 612
1 613
0
0
0
0
0
0
0
0
1 614
1 615
1 616
1 617
0
0
0
0
0
0
0
1 618
1 619
1 620
1 621
1 622
1 623
1 624
1 625
1 626
1 627
1 628
1 629
1 630
1 631
1 632
1 633
1 634
1 635
1 636
1 637
1 638
1 639
1 640
1 641
1 642
1 643
1 644
1 645
1 646
1 647
1 648
0
0
0
0
0
0
0
1 649
1 650
1 651
1 652
1 653
0
0
0
0
0
0
0
1 654
1 655
1 656
1 657
1 658
1 659
1 660
1 661
1 662
1 663
1 664
1 665
1 666
1 667
1 668
1 669
1 670
1 671
1 672
1 673
1 674
1 675
1 676
1 677
1 678
1 679
1 680
1 681
1 682
1 683
1 684
0
0
1 685
0
0
0
0
1 686
1 687
1 688
1 689
0
0
0
0
0
0
0
0
1 690
1 691
1 692
1 693
1 694
1 695
0
1 696
1 697
1 698
1 699
1 700
1 701
1 702
1 703
1 704
1 705
1 706
1 707
1 708
1 709
1 710
1 711
1 712
1 713
1 714
1 715
0
0
0
0
0
0
0
0
0
0
0
1 716
1 717
1 718
1 719
0
0
0
0
0
0
0
0
0
1 720
1 721
1 722
1 723
1 724
1 725
0
1 726
1 727
1 728
1 729
1 730
1 731
1 732
1 733
1 734
1 735
1 736
1 737
1 738
1 739
0
0
0
0
0
0
0
0
0
0
0
1 740
0
1 741
0
1 742
1 743
1 744
1 745
1 746
0
0
0
0
0
0
0
0
0
1 747
1 748
1 749
1 750
1 751
1 752
1 753
1 754
1 755
1 756
1 757
1 758
1 759
1 760
1 761
1 762
1 763
0
0
0
0
0
0
0
0
0
0
0
0
0
0
0
0
0
0
0
1 764
1 765
1 766
1 767
0
0
0
0
0
0
0
0
0
0
1 768
1 769
1 770
1 771
1 772
1 773
1 774
1 775
1 776
1 777
1 778
1 779
1 780
0
0
0
0
0
0
0
0
0
0
0
0
0
0
0
0
0
0
0
0
1 781
0
0
1 782
1 783
1 784
1 785
0
0
0
0
0
0
0
0
0
0
0
1 786
1 787
1 788
1 789
1 790
1 791
1 792
0
0
0
0
0
0
0
0
0
0
0
0
0
0
0
0
0
0
0
0
0
0
0
0
0
0
0
0
1 793
1 794
1 795
1 796
0
0
0
0
0
0
0
0
0
0
0
0
0
0
0
0
0
0
0
0
0
0
0
0
0
0
0
0
0
0
0
0
0
0
0
0
0
0
0
0
0
0
0
0
0
1 797
1 798
0
0
0
0
0
0
0
0
0
0
0
0
0
0
0
0
0
0
0
0
0
0
0
0
0
0
0
0
0
0
0
0
0
0
0
0
0
0
0
0
0
0
0
0
0
0
0
0
0
0
0
0
0
0
0
0
0
0
0
0
0
0
0
0
0
0
0
0
0
0
0
0
0
0
0
0
0
0
0
0
0
0
0
0
0
0
0
0
0
0
0
0
0
0
0
0
0
0
0
0
0
0
0
0
0
0
0
0
0
0
0
0
0
0
0
0
0
0
0
0
0
0
0
0
0
0
0
0
0
0
0
0
0
0
0
0
0
0
0
0
0
0
0
0
0
0
0
0
0
0
0
0
0
0
0
0
0
0
0
0
0
0
0
0
0
0
0
0
0
0
0
0
0
0
0
0
0
0
0
0
0
0
0
0
0
0
0
0
0
0
0
0
0
0
0
0
0
0
0
0
0
0
0
0
0
0
0
0
0
0
0
0
0
0
0
0
0
0
0
0
0
0
0
0
0
0
0
0
0
0
0
0
0
0
0
0
0
0
0
0
0
0
0
0
0
0
0
0
0
0
0
0
0
0
0
0
0
0
0
0
0
0
0
0
0
0
0
0
0
0
0
0
0
0
0
0
0
0
0
0
0
0
0
0
0
0
0
0
0
0
0
0
0
0
0
0
0
0
0
0
0
0
0
0
0
0
0
0
0
0
0
0
0
0
0
0
0
0
0
0
0
0
0
0
0
0
0
0
0
0
0
0
0
0
0
0
0
0
0
0
0
0
0
0
0
0
0
0
0
0
0
0
0
0
0
0
0
0
0
0
0
0
0
0
0
0
0
0
0
0
0
0
0
0
0
0
0
0
0
0
0
0
0
0
0
0
0
0
0
0
0
0
0
0
0
0
0
0
0
0
0
0
0
0
0
0
0
0
0
0
0
0
0
0
0
0
0
0
0
0
0
0
0
0
0
0
0
0
0
0
0
0
0
0
0
0
0
0
0
0
0
0
0
0
0
0
0
0
0
0
0
0
0
0
0
0
0
0
0
0
0
0
0
0
0
0
0
0
0
0
0
0
0
0
0
0
0
0
0
0
0
0
0
0
0
0
0
0
0
0
0
0
0
0
0
0
0
0
0
0
0
0
0
0
0
0
0
0
0
0
0
0
0
0
0
0
0
0
0
0
0
0
0
0
0
0
0
0
0
0
0
0
0
0
0
0
0
0
0
0
0
0
0
0
0
0
0
0
0
0
0
0
0
0
0
